G04 #@! TF.GenerationSoftware,KiCad,Pcbnew,5.1.5+dfsg1-2build2*
G04 #@! TF.CreationDate,2021-07-06T13:38:07+01:00*
G04 #@! TF.ProjectId,Video+Sound,56696465-6f2b-4536-9f75-6e642e6b6963,rev?*
G04 #@! TF.SameCoordinates,Original*
G04 #@! TF.FileFunction,Legend,Bot*
G04 #@! TF.FilePolarity,Positive*
%FSLAX46Y46*%
G04 Gerber Fmt 4.6, Leading zero omitted, Abs format (unit mm)*
G04 Created by KiCad (PCBNEW 5.1.5+dfsg1-2build2) date 2021-07-06 13:38:07*
%MOMM*%
%LPD*%
G04 APERTURE LIST*
%ADD10C,0.050000*%
%ADD11C,0.120000*%
%ADD12C,0.150000*%
G04 APERTURE END LIST*
D10*
X74041000Y-63500000D02*
X73914000Y-155575000D01*
X172466000Y-63500000D02*
X74041000Y-63500000D01*
X172466000Y-155575000D02*
X172466000Y-63500000D01*
X73914000Y-155575000D02*
X172466000Y-155575000D01*
D11*
X147548000Y-79156000D02*
X147548000Y-87216000D01*
X143028000Y-79156000D02*
X147548000Y-79156000D01*
X143028000Y-87216000D02*
X143028000Y-79156000D01*
X155413000Y-78714000D02*
X147353000Y-78714000D01*
X155413000Y-74194000D02*
X155413000Y-78714000D01*
X147353000Y-74194000D02*
X155413000Y-74194000D01*
X146593000Y-88291000D02*
X154653000Y-88291000D01*
X146593000Y-92811000D02*
X146593000Y-88291000D01*
X154653000Y-92811000D02*
X146593000Y-92811000D01*
X166848064Y-95906000D02*
X165643936Y-95906000D01*
X166848064Y-94086000D02*
X165643936Y-94086000D01*
X142388000Y-82960936D02*
X142388000Y-84165064D01*
X140568000Y-82960936D02*
X140568000Y-84165064D01*
X151602064Y-73681000D02*
X150397936Y-73681000D01*
X151602064Y-71861000D02*
X150397936Y-71861000D01*
X150273936Y-93324000D02*
X151478064Y-93324000D01*
X150273936Y-95144000D02*
X151478064Y-95144000D01*
X80036000Y-120869000D02*
X80036000Y-112809000D01*
X84556000Y-120869000D02*
X80036000Y-120869000D01*
X84556000Y-112809000D02*
X84556000Y-120869000D01*
X138410000Y-111497936D02*
X138410000Y-112702064D01*
X136590000Y-111497936D02*
X136590000Y-112702064D01*
X112590000Y-102452064D02*
X112590000Y-101247936D01*
X114410000Y-102452064D02*
X114410000Y-101247936D01*
X129952064Y-119910000D02*
X128747936Y-119910000D01*
X129952064Y-118090000D02*
X128747936Y-118090000D01*
X120702064Y-96410000D02*
X119497936Y-96410000D01*
X120702064Y-94590000D02*
X119497936Y-94590000D01*
X104426936Y-106447000D02*
X105631064Y-106447000D01*
X104426936Y-104627000D02*
X105631064Y-104627000D01*
X158082064Y-122026000D02*
X156877936Y-122026000D01*
X158082064Y-123846000D02*
X156877936Y-123846000D01*
X136590000Y-118102064D02*
X136590000Y-116897936D01*
X138410000Y-118102064D02*
X138410000Y-116897936D01*
X114647936Y-118090000D02*
X115852064Y-118090000D01*
X114647936Y-119910000D02*
X115852064Y-119910000D01*
X136147936Y-94590000D02*
X137352064Y-94590000D01*
X136147936Y-96410000D02*
X137352064Y-96410000D01*
X112590000Y-95897936D02*
X112590000Y-97102064D01*
X114410000Y-95897936D02*
X114410000Y-97102064D01*
X131147936Y-96410000D02*
X132352064Y-96410000D01*
X131147936Y-94590000D02*
X132352064Y-94590000D01*
X113090000Y-114102064D02*
X113090000Y-112897936D01*
X114910000Y-114102064D02*
X114910000Y-112897936D01*
X120602064Y-119910000D02*
X119397936Y-119910000D01*
X120602064Y-118090000D02*
X119397936Y-118090000D01*
X138410000Y-99397936D02*
X138410000Y-100602064D01*
X136590000Y-99397936D02*
X136590000Y-100602064D01*
X150147936Y-110410000D02*
X151352064Y-110410000D01*
X150147936Y-108590000D02*
X151352064Y-108590000D01*
X117852064Y-103590000D02*
X116647936Y-103590000D01*
X117852064Y-105410000D02*
X116647936Y-105410000D01*
X136897936Y-108410000D02*
X138102064Y-108410000D01*
X136897936Y-106590000D02*
X138102064Y-106590000D01*
X117852064Y-101090000D02*
X116647936Y-101090000D01*
X117852064Y-102910000D02*
X116647936Y-102910000D01*
X87016000Y-108298064D02*
X87016000Y-107093936D01*
X85196000Y-108298064D02*
X85196000Y-107093936D01*
X87016000Y-117061064D02*
X87016000Y-115856936D01*
X85196000Y-117061064D02*
X85196000Y-115856936D01*
X89581000Y-106096000D02*
X89581000Y-110006000D01*
X89581000Y-110006000D02*
X87711000Y-110006000D01*
X87711000Y-110006000D02*
X87711000Y-106096000D01*
X83866000Y-106096000D02*
X83866000Y-110006000D01*
X83866000Y-110006000D02*
X81996000Y-110006000D01*
X81996000Y-110006000D02*
X81996000Y-106096000D01*
X89581000Y-114859000D02*
X89581000Y-118769000D01*
X89581000Y-118769000D02*
X87711000Y-118769000D01*
X87711000Y-118769000D02*
X87711000Y-114859000D01*
X131997936Y-134260000D02*
X133202064Y-134260000D01*
X131997936Y-132440000D02*
X133202064Y-132440000D01*
X100244936Y-134260000D02*
X101449064Y-134260000D01*
X100244936Y-132440000D02*
X101449064Y-132440000D01*
X111547936Y-134260000D02*
X112752064Y-134260000D01*
X111547936Y-132440000D02*
X112752064Y-132440000D01*
X142907936Y-134260000D02*
X144112064Y-134260000D01*
X142907936Y-132440000D02*
X144112064Y-132440000D01*
X90202936Y-134260000D02*
X91407064Y-134260000D01*
X90202936Y-132440000D02*
X91407064Y-132440000D01*
X121707936Y-134260000D02*
X122912064Y-134260000D01*
X121707936Y-132440000D02*
X122912064Y-132440000D01*
X78772936Y-134260000D02*
X79977064Y-134260000D01*
X78772936Y-132440000D02*
X79977064Y-132440000D01*
X166021936Y-126090000D02*
X167226064Y-126090000D01*
X166021936Y-127910000D02*
X167226064Y-127910000D01*
X166145936Y-109707000D02*
X167350064Y-109707000D01*
X166145936Y-111527000D02*
X167350064Y-111527000D01*
X160622064Y-116565000D02*
X159417936Y-116565000D01*
X160622064Y-118385000D02*
X159417936Y-118385000D01*
X160622064Y-114025000D02*
X159417936Y-114025000D01*
X160622064Y-115845000D02*
X159417936Y-115845000D01*
X160622064Y-111485000D02*
X159417936Y-111485000D01*
X160622064Y-113305000D02*
X159417936Y-113305000D01*
X80666000Y-108298064D02*
X80666000Y-107093936D01*
X78846000Y-108298064D02*
X78846000Y-107093936D01*
X79396000Y-117185064D02*
X79396000Y-115980936D01*
X77576000Y-117185064D02*
X77576000Y-115980936D01*
X133625000Y-85695064D02*
X133625000Y-84490936D01*
X131805000Y-85695064D02*
X131805000Y-84490936D01*
X128545000Y-85695064D02*
X128545000Y-84490936D01*
X126725000Y-85695064D02*
X126725000Y-84490936D01*
X121645000Y-84490936D02*
X121645000Y-85695064D01*
X123465000Y-84490936D02*
X123465000Y-85695064D01*
X145648000Y-120428936D02*
X145648000Y-121633064D01*
X147468000Y-120428936D02*
X147468000Y-121633064D01*
X96160000Y-84362064D02*
X96160000Y-83157936D01*
X94340000Y-84362064D02*
X94340000Y-83157936D01*
X105327936Y-134260000D02*
X106532064Y-134260000D01*
X105327936Y-132440000D02*
X106532064Y-132440000D01*
X116757936Y-134260000D02*
X117962064Y-134260000D01*
X116757936Y-132440000D02*
X117962064Y-132440000D01*
X126917936Y-134260000D02*
X128122064Y-134260000D01*
X126917936Y-132440000D02*
X128122064Y-132440000D01*
X95282936Y-134260000D02*
X96487064Y-134260000D01*
X95282936Y-132440000D02*
X96487064Y-132440000D01*
X83852936Y-134260000D02*
X85057064Y-134260000D01*
X83852936Y-132440000D02*
X85057064Y-132440000D01*
X137077936Y-134260000D02*
X138282064Y-134260000D01*
X137077936Y-132440000D02*
X138282064Y-132440000D01*
X147987936Y-134260000D02*
X149192064Y-134260000D01*
X147987936Y-132440000D02*
X149192064Y-132440000D01*
X106320000Y-84362064D02*
X106320000Y-83157936D01*
X104500000Y-84362064D02*
X104500000Y-83157936D01*
D12*
X145422857Y-78716142D02*
X145470476Y-78763761D01*
X145613333Y-78811380D01*
X145708571Y-78811380D01*
X145851428Y-78763761D01*
X145946666Y-78668523D01*
X145994285Y-78573285D01*
X146041904Y-78382809D01*
X146041904Y-78239952D01*
X145994285Y-78049476D01*
X145946666Y-77954238D01*
X145851428Y-77859000D01*
X145708571Y-77811380D01*
X145613333Y-77811380D01*
X145470476Y-77859000D01*
X145422857Y-77906619D01*
X144470476Y-78811380D02*
X145041904Y-78811380D01*
X144756190Y-78811380D02*
X144756190Y-77811380D01*
X144851428Y-77954238D01*
X144946666Y-78049476D01*
X145041904Y-78097095D01*
X143899047Y-78239952D02*
X143994285Y-78192333D01*
X144041904Y-78144714D01*
X144089523Y-78049476D01*
X144089523Y-78001857D01*
X144041904Y-77906619D01*
X143994285Y-77859000D01*
X143899047Y-77811380D01*
X143708571Y-77811380D01*
X143613333Y-77859000D01*
X143565714Y-77906619D01*
X143518095Y-78001857D01*
X143518095Y-78049476D01*
X143565714Y-78144714D01*
X143613333Y-78192333D01*
X143708571Y-78239952D01*
X143899047Y-78239952D01*
X143994285Y-78287571D01*
X144041904Y-78335190D01*
X144089523Y-78430428D01*
X144089523Y-78620904D01*
X144041904Y-78716142D01*
X143994285Y-78763761D01*
X143899047Y-78811380D01*
X143708571Y-78811380D01*
X143613333Y-78763761D01*
X143565714Y-78716142D01*
X143518095Y-78620904D01*
X143518095Y-78430428D01*
X143565714Y-78335190D01*
X143613333Y-78287571D01*
X143708571Y-78239952D01*
X157487857Y-76938142D02*
X157535476Y-76985761D01*
X157678333Y-77033380D01*
X157773571Y-77033380D01*
X157916428Y-76985761D01*
X158011666Y-76890523D01*
X158059285Y-76795285D01*
X158106904Y-76604809D01*
X158106904Y-76461952D01*
X158059285Y-76271476D01*
X158011666Y-76176238D01*
X157916428Y-76081000D01*
X157773571Y-76033380D01*
X157678333Y-76033380D01*
X157535476Y-76081000D01*
X157487857Y-76128619D01*
X156535476Y-77033380D02*
X157106904Y-77033380D01*
X156821190Y-77033380D02*
X156821190Y-76033380D01*
X156916428Y-76176238D01*
X157011666Y-76271476D01*
X157106904Y-76319095D01*
X155678333Y-76033380D02*
X155868809Y-76033380D01*
X155964047Y-76081000D01*
X156011666Y-76128619D01*
X156106904Y-76271476D01*
X156154523Y-76461952D01*
X156154523Y-76842904D01*
X156106904Y-76938142D01*
X156059285Y-76985761D01*
X155964047Y-77033380D01*
X155773571Y-77033380D01*
X155678333Y-76985761D01*
X155630714Y-76938142D01*
X155583095Y-76842904D01*
X155583095Y-76604809D01*
X155630714Y-76509571D01*
X155678333Y-76461952D01*
X155773571Y-76414333D01*
X155964047Y-76414333D01*
X156059285Y-76461952D01*
X156106904Y-76509571D01*
X156154523Y-76604809D01*
X151645857Y-94008142D02*
X151693476Y-94055761D01*
X151836333Y-94103380D01*
X151931571Y-94103380D01*
X152074428Y-94055761D01*
X152169666Y-93960523D01*
X152217285Y-93865285D01*
X152264904Y-93674809D01*
X152264904Y-93531952D01*
X152217285Y-93341476D01*
X152169666Y-93246238D01*
X152074428Y-93151000D01*
X151931571Y-93103380D01*
X151836333Y-93103380D01*
X151693476Y-93151000D01*
X151645857Y-93198619D01*
X150693476Y-94103380D02*
X151264904Y-94103380D01*
X150979190Y-94103380D02*
X150979190Y-93103380D01*
X151074428Y-93246238D01*
X151169666Y-93341476D01*
X151264904Y-93389095D01*
X149788714Y-93103380D02*
X150264904Y-93103380D01*
X150312523Y-93579571D01*
X150264904Y-93531952D01*
X150169666Y-93484333D01*
X149931571Y-93484333D01*
X149836333Y-93531952D01*
X149788714Y-93579571D01*
X149741095Y-93674809D01*
X149741095Y-93912904D01*
X149788714Y-94008142D01*
X149836333Y-94055761D01*
X149931571Y-94103380D01*
X150169666Y-94103380D01*
X150264904Y-94055761D01*
X150312523Y-94008142D01*
X170701857Y-95480142D02*
X170749476Y-95527761D01*
X170892333Y-95575380D01*
X170987571Y-95575380D01*
X171130428Y-95527761D01*
X171225666Y-95432523D01*
X171273285Y-95337285D01*
X171320904Y-95146809D01*
X171320904Y-95003952D01*
X171273285Y-94813476D01*
X171225666Y-94718238D01*
X171130428Y-94623000D01*
X170987571Y-94575380D01*
X170892333Y-94575380D01*
X170749476Y-94623000D01*
X170701857Y-94670619D01*
X170368523Y-94575380D02*
X169749476Y-94575380D01*
X170082809Y-94956333D01*
X169939952Y-94956333D01*
X169844714Y-95003952D01*
X169797095Y-95051571D01*
X169749476Y-95146809D01*
X169749476Y-95384904D01*
X169797095Y-95480142D01*
X169844714Y-95527761D01*
X169939952Y-95575380D01*
X170225666Y-95575380D01*
X170320904Y-95527761D01*
X170368523Y-95480142D01*
X168892333Y-94908714D02*
X168892333Y-95575380D01*
X169130428Y-94527761D02*
X169368523Y-95242047D01*
X168749476Y-95242047D01*
X141993857Y-80875142D02*
X142041476Y-80922761D01*
X142184333Y-80970380D01*
X142279571Y-80970380D01*
X142422428Y-80922761D01*
X142517666Y-80827523D01*
X142565285Y-80732285D01*
X142612904Y-80541809D01*
X142612904Y-80398952D01*
X142565285Y-80208476D01*
X142517666Y-80113238D01*
X142422428Y-80018000D01*
X142279571Y-79970380D01*
X142184333Y-79970380D01*
X142041476Y-80018000D01*
X141993857Y-80065619D01*
X141041476Y-80970380D02*
X141612904Y-80970380D01*
X141327190Y-80970380D02*
X141327190Y-79970380D01*
X141422428Y-80113238D01*
X141517666Y-80208476D01*
X141612904Y-80256095D01*
X140565285Y-80970380D02*
X140374809Y-80970380D01*
X140279571Y-80922761D01*
X140231952Y-80875142D01*
X140136714Y-80732285D01*
X140089095Y-80541809D01*
X140089095Y-80160857D01*
X140136714Y-80065619D01*
X140184333Y-80018000D01*
X140279571Y-79970380D01*
X140470047Y-79970380D01*
X140565285Y-80018000D01*
X140612904Y-80065619D01*
X140660523Y-80160857D01*
X140660523Y-80398952D01*
X140612904Y-80494190D01*
X140565285Y-80541809D01*
X140470047Y-80589428D01*
X140279571Y-80589428D01*
X140184333Y-80541809D01*
X140136714Y-80494190D01*
X140089095Y-80398952D01*
X147956857Y-73255142D02*
X148004476Y-73302761D01*
X148147333Y-73350380D01*
X148242571Y-73350380D01*
X148385428Y-73302761D01*
X148480666Y-73207523D01*
X148528285Y-73112285D01*
X148575904Y-72921809D01*
X148575904Y-72778952D01*
X148528285Y-72588476D01*
X148480666Y-72493238D01*
X148385428Y-72398000D01*
X148242571Y-72350380D01*
X148147333Y-72350380D01*
X148004476Y-72398000D01*
X147956857Y-72445619D01*
X147004476Y-73350380D02*
X147575904Y-73350380D01*
X147290190Y-73350380D02*
X147290190Y-72350380D01*
X147385428Y-72493238D01*
X147480666Y-72588476D01*
X147575904Y-72636095D01*
X146671142Y-72350380D02*
X146004476Y-72350380D01*
X146433047Y-73350380D01*
X155455857Y-94464142D02*
X155503476Y-94511761D01*
X155646333Y-94559380D01*
X155741571Y-94559380D01*
X155884428Y-94511761D01*
X155979666Y-94416523D01*
X156027285Y-94321285D01*
X156074904Y-94130809D01*
X156074904Y-93987952D01*
X156027285Y-93797476D01*
X155979666Y-93702238D01*
X155884428Y-93607000D01*
X155741571Y-93559380D01*
X155646333Y-93559380D01*
X155503476Y-93607000D01*
X155455857Y-93654619D01*
X154503476Y-94559380D02*
X155074904Y-94559380D01*
X154789190Y-94559380D02*
X154789190Y-93559380D01*
X154884428Y-93702238D01*
X154979666Y-93797476D01*
X155074904Y-93845095D01*
X153646333Y-93892714D02*
X153646333Y-94559380D01*
X153884428Y-93511761D02*
X154122523Y-94226047D01*
X153503476Y-94226047D01*
X82938857Y-122023142D02*
X82986476Y-122070761D01*
X83129333Y-122118380D01*
X83224571Y-122118380D01*
X83367428Y-122070761D01*
X83462666Y-121975523D01*
X83510285Y-121880285D01*
X83557904Y-121689809D01*
X83557904Y-121546952D01*
X83510285Y-121356476D01*
X83462666Y-121261238D01*
X83367428Y-121166000D01*
X83224571Y-121118380D01*
X83129333Y-121118380D01*
X82986476Y-121166000D01*
X82938857Y-121213619D01*
X82557904Y-121213619D02*
X82510285Y-121166000D01*
X82415047Y-121118380D01*
X82176952Y-121118380D01*
X82081714Y-121166000D01*
X82034095Y-121213619D01*
X81986476Y-121308857D01*
X81986476Y-121404095D01*
X82034095Y-121546952D01*
X82605523Y-122118380D01*
X81986476Y-122118380D01*
X81129333Y-121118380D02*
X81319809Y-121118380D01*
X81415047Y-121166000D01*
X81462666Y-121213619D01*
X81557904Y-121356476D01*
X81605523Y-121546952D01*
X81605523Y-121927904D01*
X81557904Y-122023142D01*
X81510285Y-122070761D01*
X81415047Y-122118380D01*
X81224571Y-122118380D01*
X81129333Y-122070761D01*
X81081714Y-122023142D01*
X81034095Y-121927904D01*
X81034095Y-121689809D01*
X81081714Y-121594571D01*
X81129333Y-121546952D01*
X81224571Y-121499333D01*
X81415047Y-121499333D01*
X81510285Y-121546952D01*
X81557904Y-121594571D01*
X81605523Y-121689809D01*
X136037142Y-111457142D02*
X136084761Y-111409523D01*
X136132380Y-111266666D01*
X136132380Y-111171428D01*
X136084761Y-111028571D01*
X135989523Y-110933333D01*
X135894285Y-110885714D01*
X135703809Y-110838095D01*
X135560952Y-110838095D01*
X135370476Y-110885714D01*
X135275238Y-110933333D01*
X135180000Y-111028571D01*
X135132380Y-111171428D01*
X135132380Y-111266666D01*
X135180000Y-111409523D01*
X135227619Y-111457142D01*
X135132380Y-112361904D02*
X135132380Y-111885714D01*
X135608571Y-111838095D01*
X135560952Y-111885714D01*
X135513333Y-111980952D01*
X135513333Y-112219047D01*
X135560952Y-112314285D01*
X135608571Y-112361904D01*
X135703809Y-112409523D01*
X135941904Y-112409523D01*
X136037142Y-112361904D01*
X136084761Y-112314285D01*
X136132380Y-112219047D01*
X136132380Y-111980952D01*
X136084761Y-111885714D01*
X136037142Y-111838095D01*
X135132380Y-113028571D02*
X135132380Y-113123809D01*
X135180000Y-113219047D01*
X135227619Y-113266666D01*
X135322857Y-113314285D01*
X135513333Y-113361904D01*
X135751428Y-113361904D01*
X135941904Y-113314285D01*
X136037142Y-113266666D01*
X136084761Y-113219047D01*
X136132380Y-113123809D01*
X136132380Y-113028571D01*
X136084761Y-112933333D01*
X136037142Y-112885714D01*
X135941904Y-112838095D01*
X135751428Y-112790476D01*
X135513333Y-112790476D01*
X135322857Y-112838095D01*
X135227619Y-112885714D01*
X135180000Y-112933333D01*
X135132380Y-113028571D01*
X111990142Y-101338142D02*
X112037761Y-101290523D01*
X112085380Y-101147666D01*
X112085380Y-101052428D01*
X112037761Y-100909571D01*
X111942523Y-100814333D01*
X111847285Y-100766714D01*
X111656809Y-100719095D01*
X111513952Y-100719095D01*
X111323476Y-100766714D01*
X111228238Y-100814333D01*
X111133000Y-100909571D01*
X111085380Y-101052428D01*
X111085380Y-101147666D01*
X111133000Y-101290523D01*
X111180619Y-101338142D01*
X111180619Y-101719095D02*
X111133000Y-101766714D01*
X111085380Y-101861952D01*
X111085380Y-102100047D01*
X111133000Y-102195285D01*
X111180619Y-102242904D01*
X111275857Y-102290523D01*
X111371095Y-102290523D01*
X111513952Y-102242904D01*
X112085380Y-101671476D01*
X112085380Y-102290523D01*
X112085380Y-102766714D02*
X112085380Y-102957190D01*
X112037761Y-103052428D01*
X111990142Y-103100047D01*
X111847285Y-103195285D01*
X111656809Y-103242904D01*
X111275857Y-103242904D01*
X111180619Y-103195285D01*
X111133000Y-103147666D01*
X111085380Y-103052428D01*
X111085380Y-102861952D01*
X111133000Y-102766714D01*
X111180619Y-102719095D01*
X111275857Y-102671476D01*
X111513952Y-102671476D01*
X111609190Y-102719095D01*
X111656809Y-102766714D01*
X111704428Y-102861952D01*
X111704428Y-103052428D01*
X111656809Y-103147666D01*
X111609190Y-103195285D01*
X111513952Y-103242904D01*
X129992857Y-117537142D02*
X130040476Y-117584761D01*
X130183333Y-117632380D01*
X130278571Y-117632380D01*
X130421428Y-117584761D01*
X130516666Y-117489523D01*
X130564285Y-117394285D01*
X130611904Y-117203809D01*
X130611904Y-117060952D01*
X130564285Y-116870476D01*
X130516666Y-116775238D01*
X130421428Y-116680000D01*
X130278571Y-116632380D01*
X130183333Y-116632380D01*
X130040476Y-116680000D01*
X129992857Y-116727619D01*
X129611904Y-116727619D02*
X129564285Y-116680000D01*
X129469047Y-116632380D01*
X129230952Y-116632380D01*
X129135714Y-116680000D01*
X129088095Y-116727619D01*
X129040476Y-116822857D01*
X129040476Y-116918095D01*
X129088095Y-117060952D01*
X129659523Y-117632380D01*
X129040476Y-117632380D01*
X128469047Y-117060952D02*
X128564285Y-117013333D01*
X128611904Y-116965714D01*
X128659523Y-116870476D01*
X128659523Y-116822857D01*
X128611904Y-116727619D01*
X128564285Y-116680000D01*
X128469047Y-116632380D01*
X128278571Y-116632380D01*
X128183333Y-116680000D01*
X128135714Y-116727619D01*
X128088095Y-116822857D01*
X128088095Y-116870476D01*
X128135714Y-116965714D01*
X128183333Y-117013333D01*
X128278571Y-117060952D01*
X128469047Y-117060952D01*
X128564285Y-117108571D01*
X128611904Y-117156190D01*
X128659523Y-117251428D01*
X128659523Y-117441904D01*
X128611904Y-117537142D01*
X128564285Y-117584761D01*
X128469047Y-117632380D01*
X128278571Y-117632380D01*
X128183333Y-117584761D01*
X128135714Y-117537142D01*
X128088095Y-117441904D01*
X128088095Y-117251428D01*
X128135714Y-117156190D01*
X128183333Y-117108571D01*
X128278571Y-117060952D01*
X120742857Y-94037142D02*
X120790476Y-94084761D01*
X120933333Y-94132380D01*
X121028571Y-94132380D01*
X121171428Y-94084761D01*
X121266666Y-93989523D01*
X121314285Y-93894285D01*
X121361904Y-93703809D01*
X121361904Y-93560952D01*
X121314285Y-93370476D01*
X121266666Y-93275238D01*
X121171428Y-93180000D01*
X121028571Y-93132380D01*
X120933333Y-93132380D01*
X120790476Y-93180000D01*
X120742857Y-93227619D01*
X119790476Y-94132380D02*
X120361904Y-94132380D01*
X120076190Y-94132380D02*
X120076190Y-93132380D01*
X120171428Y-93275238D01*
X120266666Y-93370476D01*
X120361904Y-93418095D01*
X119409523Y-93227619D02*
X119361904Y-93180000D01*
X119266666Y-93132380D01*
X119028571Y-93132380D01*
X118933333Y-93180000D01*
X118885714Y-93227619D01*
X118838095Y-93322857D01*
X118838095Y-93418095D01*
X118885714Y-93560952D01*
X119457142Y-94132380D01*
X118838095Y-94132380D01*
X105798857Y-104116142D02*
X105846476Y-104163761D01*
X105989333Y-104211380D01*
X106084571Y-104211380D01*
X106227428Y-104163761D01*
X106322666Y-104068523D01*
X106370285Y-103973285D01*
X106417904Y-103782809D01*
X106417904Y-103639952D01*
X106370285Y-103449476D01*
X106322666Y-103354238D01*
X106227428Y-103259000D01*
X106084571Y-103211380D01*
X105989333Y-103211380D01*
X105846476Y-103259000D01*
X105798857Y-103306619D01*
X104941714Y-103544714D02*
X104941714Y-104211380D01*
X105179809Y-103163761D02*
X105417904Y-103878047D01*
X104798857Y-103878047D01*
X104370285Y-104211380D02*
X104179809Y-104211380D01*
X104084571Y-104163761D01*
X104036952Y-104116142D01*
X103941714Y-103973285D01*
X103894095Y-103782809D01*
X103894095Y-103401857D01*
X103941714Y-103306619D01*
X103989333Y-103259000D01*
X104084571Y-103211380D01*
X104275047Y-103211380D01*
X104370285Y-103259000D01*
X104417904Y-103306619D01*
X104465523Y-103401857D01*
X104465523Y-103639952D01*
X104417904Y-103735190D01*
X104370285Y-103782809D01*
X104275047Y-103830428D01*
X104084571Y-103830428D01*
X103989333Y-103782809D01*
X103941714Y-103735190D01*
X103894095Y-103639952D01*
X158122857Y-121473142D02*
X158170476Y-121520761D01*
X158313333Y-121568380D01*
X158408571Y-121568380D01*
X158551428Y-121520761D01*
X158646666Y-121425523D01*
X158694285Y-121330285D01*
X158741904Y-121139809D01*
X158741904Y-120996952D01*
X158694285Y-120806476D01*
X158646666Y-120711238D01*
X158551428Y-120616000D01*
X158408571Y-120568380D01*
X158313333Y-120568380D01*
X158170476Y-120616000D01*
X158122857Y-120663619D01*
X157265714Y-120901714D02*
X157265714Y-121568380D01*
X157503809Y-120520761D02*
X157741904Y-121235047D01*
X157122857Y-121235047D01*
X156599047Y-120996952D02*
X156694285Y-120949333D01*
X156741904Y-120901714D01*
X156789523Y-120806476D01*
X156789523Y-120758857D01*
X156741904Y-120663619D01*
X156694285Y-120616000D01*
X156599047Y-120568380D01*
X156408571Y-120568380D01*
X156313333Y-120616000D01*
X156265714Y-120663619D01*
X156218095Y-120758857D01*
X156218095Y-120806476D01*
X156265714Y-120901714D01*
X156313333Y-120949333D01*
X156408571Y-120996952D01*
X156599047Y-120996952D01*
X156694285Y-121044571D01*
X156741904Y-121092190D01*
X156789523Y-121187428D01*
X156789523Y-121377904D01*
X156741904Y-121473142D01*
X156694285Y-121520761D01*
X156599047Y-121568380D01*
X156408571Y-121568380D01*
X156313333Y-121520761D01*
X156265714Y-121473142D01*
X156218095Y-121377904D01*
X156218095Y-121187428D01*
X156265714Y-121092190D01*
X156313333Y-121044571D01*
X156408571Y-120996952D01*
X138183857Y-121007142D02*
X138231476Y-121054761D01*
X138374333Y-121102380D01*
X138469571Y-121102380D01*
X138612428Y-121054761D01*
X138707666Y-120959523D01*
X138755285Y-120864285D01*
X138802904Y-120673809D01*
X138802904Y-120530952D01*
X138755285Y-120340476D01*
X138707666Y-120245238D01*
X138612428Y-120150000D01*
X138469571Y-120102380D01*
X138374333Y-120102380D01*
X138231476Y-120150000D01*
X138183857Y-120197619D01*
X137326714Y-120435714D02*
X137326714Y-121102380D01*
X137564809Y-120054761D02*
X137802904Y-120769047D01*
X137183857Y-120769047D01*
X136326714Y-120102380D02*
X136802904Y-120102380D01*
X136850523Y-120578571D01*
X136802904Y-120530952D01*
X136707666Y-120483333D01*
X136469571Y-120483333D01*
X136374333Y-120530952D01*
X136326714Y-120578571D01*
X136279095Y-120673809D01*
X136279095Y-120911904D01*
X136326714Y-121007142D01*
X136374333Y-121054761D01*
X136469571Y-121102380D01*
X136707666Y-121102380D01*
X136802904Y-121054761D01*
X136850523Y-121007142D01*
X116085857Y-117705142D02*
X116133476Y-117752761D01*
X116276333Y-117800380D01*
X116371571Y-117800380D01*
X116514428Y-117752761D01*
X116609666Y-117657523D01*
X116657285Y-117562285D01*
X116704904Y-117371809D01*
X116704904Y-117228952D01*
X116657285Y-117038476D01*
X116609666Y-116943238D01*
X116514428Y-116848000D01*
X116371571Y-116800380D01*
X116276333Y-116800380D01*
X116133476Y-116848000D01*
X116085857Y-116895619D01*
X115228714Y-117133714D02*
X115228714Y-117800380D01*
X115466809Y-116752761D02*
X115704904Y-117467047D01*
X115085857Y-117467047D01*
X114800142Y-116800380D02*
X114133476Y-116800380D01*
X114562047Y-117800380D01*
X137167857Y-94083142D02*
X137215476Y-94130761D01*
X137358333Y-94178380D01*
X137453571Y-94178380D01*
X137596428Y-94130761D01*
X137691666Y-94035523D01*
X137739285Y-93940285D01*
X137786904Y-93749809D01*
X137786904Y-93606952D01*
X137739285Y-93416476D01*
X137691666Y-93321238D01*
X137596428Y-93226000D01*
X137453571Y-93178380D01*
X137358333Y-93178380D01*
X137215476Y-93226000D01*
X137167857Y-93273619D01*
X136310714Y-93511714D02*
X136310714Y-94178380D01*
X136548809Y-93130761D02*
X136786904Y-93845047D01*
X136167857Y-93845047D01*
X135358333Y-93178380D02*
X135548809Y-93178380D01*
X135644047Y-93226000D01*
X135691666Y-93273619D01*
X135786904Y-93416476D01*
X135834523Y-93606952D01*
X135834523Y-93987904D01*
X135786904Y-94083142D01*
X135739285Y-94130761D01*
X135644047Y-94178380D01*
X135453571Y-94178380D01*
X135358333Y-94130761D01*
X135310714Y-94083142D01*
X135263095Y-93987904D01*
X135263095Y-93749809D01*
X135310714Y-93654571D01*
X135358333Y-93606952D01*
X135453571Y-93559333D01*
X135644047Y-93559333D01*
X135739285Y-93606952D01*
X135786904Y-93654571D01*
X135834523Y-93749809D01*
X114180857Y-93956142D02*
X114228476Y-94003761D01*
X114371333Y-94051380D01*
X114466571Y-94051380D01*
X114609428Y-94003761D01*
X114704666Y-93908523D01*
X114752285Y-93813285D01*
X114799904Y-93622809D01*
X114799904Y-93479952D01*
X114752285Y-93289476D01*
X114704666Y-93194238D01*
X114609428Y-93099000D01*
X114466571Y-93051380D01*
X114371333Y-93051380D01*
X114228476Y-93099000D01*
X114180857Y-93146619D01*
X113323714Y-93384714D02*
X113323714Y-94051380D01*
X113561809Y-93003761D02*
X113799904Y-93718047D01*
X113180857Y-93718047D01*
X112371333Y-93384714D02*
X112371333Y-94051380D01*
X112609428Y-93003761D02*
X112847523Y-93718047D01*
X112228476Y-93718047D01*
X132341857Y-94083142D02*
X132389476Y-94130761D01*
X132532333Y-94178380D01*
X132627571Y-94178380D01*
X132770428Y-94130761D01*
X132865666Y-94035523D01*
X132913285Y-93940285D01*
X132960904Y-93749809D01*
X132960904Y-93606952D01*
X132913285Y-93416476D01*
X132865666Y-93321238D01*
X132770428Y-93226000D01*
X132627571Y-93178380D01*
X132532333Y-93178380D01*
X132389476Y-93226000D01*
X132341857Y-93273619D01*
X131484714Y-93511714D02*
X131484714Y-94178380D01*
X131722809Y-93130761D02*
X131960904Y-93845047D01*
X131341857Y-93845047D01*
X131056142Y-93178380D02*
X130437095Y-93178380D01*
X130770428Y-93559333D01*
X130627571Y-93559333D01*
X130532333Y-93606952D01*
X130484714Y-93654571D01*
X130437095Y-93749809D01*
X130437095Y-93987904D01*
X130484714Y-94083142D01*
X130532333Y-94130761D01*
X130627571Y-94178380D01*
X130913285Y-94178380D01*
X131008523Y-94130761D01*
X131056142Y-94083142D01*
X114561857Y-110974142D02*
X114609476Y-111021761D01*
X114752333Y-111069380D01*
X114847571Y-111069380D01*
X114990428Y-111021761D01*
X115085666Y-110926523D01*
X115133285Y-110831285D01*
X115180904Y-110640809D01*
X115180904Y-110497952D01*
X115133285Y-110307476D01*
X115085666Y-110212238D01*
X114990428Y-110117000D01*
X114847571Y-110069380D01*
X114752333Y-110069380D01*
X114609476Y-110117000D01*
X114561857Y-110164619D01*
X113704714Y-110402714D02*
X113704714Y-111069380D01*
X113942809Y-110021761D02*
X114180904Y-110736047D01*
X113561857Y-110736047D01*
X113228523Y-110164619D02*
X113180904Y-110117000D01*
X113085666Y-110069380D01*
X112847571Y-110069380D01*
X112752333Y-110117000D01*
X112704714Y-110164619D01*
X112657095Y-110259857D01*
X112657095Y-110355095D01*
X112704714Y-110497952D01*
X113276142Y-111069380D01*
X112657095Y-111069380D01*
X120642857Y-117537142D02*
X120690476Y-117584761D01*
X120833333Y-117632380D01*
X120928571Y-117632380D01*
X121071428Y-117584761D01*
X121166666Y-117489523D01*
X121214285Y-117394285D01*
X121261904Y-117203809D01*
X121261904Y-117060952D01*
X121214285Y-116870476D01*
X121166666Y-116775238D01*
X121071428Y-116680000D01*
X120928571Y-116632380D01*
X120833333Y-116632380D01*
X120690476Y-116680000D01*
X120642857Y-116727619D01*
X119785714Y-116965714D02*
X119785714Y-117632380D01*
X120023809Y-116584761D02*
X120261904Y-117299047D01*
X119642857Y-117299047D01*
X118738095Y-117632380D02*
X119309523Y-117632380D01*
X119023809Y-117632380D02*
X119023809Y-116632380D01*
X119119047Y-116775238D01*
X119214285Y-116870476D01*
X119309523Y-116918095D01*
X136037142Y-99357142D02*
X136084761Y-99309523D01*
X136132380Y-99166666D01*
X136132380Y-99071428D01*
X136084761Y-98928571D01*
X135989523Y-98833333D01*
X135894285Y-98785714D01*
X135703809Y-98738095D01*
X135560952Y-98738095D01*
X135370476Y-98785714D01*
X135275238Y-98833333D01*
X135180000Y-98928571D01*
X135132380Y-99071428D01*
X135132380Y-99166666D01*
X135180000Y-99309523D01*
X135227619Y-99357142D01*
X135465714Y-100214285D02*
X136132380Y-100214285D01*
X135084761Y-99976190D02*
X135799047Y-99738095D01*
X135799047Y-100357142D01*
X135132380Y-100928571D02*
X135132380Y-101023809D01*
X135180000Y-101119047D01*
X135227619Y-101166666D01*
X135322857Y-101214285D01*
X135513333Y-101261904D01*
X135751428Y-101261904D01*
X135941904Y-101214285D01*
X136037142Y-101166666D01*
X136084761Y-101119047D01*
X136132380Y-101023809D01*
X136132380Y-100928571D01*
X136084761Y-100833333D01*
X136037142Y-100785714D01*
X135941904Y-100738095D01*
X135751428Y-100690476D01*
X135513333Y-100690476D01*
X135322857Y-100738095D01*
X135227619Y-100785714D01*
X135180000Y-100833333D01*
X135132380Y-100928571D01*
X151391857Y-108053142D02*
X151439476Y-108100761D01*
X151582333Y-108148380D01*
X151677571Y-108148380D01*
X151820428Y-108100761D01*
X151915666Y-108005523D01*
X151963285Y-107910285D01*
X152010904Y-107719809D01*
X152010904Y-107576952D01*
X151963285Y-107386476D01*
X151915666Y-107291238D01*
X151820428Y-107196000D01*
X151677571Y-107148380D01*
X151582333Y-107148380D01*
X151439476Y-107196000D01*
X151391857Y-107243619D01*
X151058523Y-107148380D02*
X150439476Y-107148380D01*
X150772809Y-107529333D01*
X150629952Y-107529333D01*
X150534714Y-107576952D01*
X150487095Y-107624571D01*
X150439476Y-107719809D01*
X150439476Y-107957904D01*
X150487095Y-108053142D01*
X150534714Y-108100761D01*
X150629952Y-108148380D01*
X150915666Y-108148380D01*
X151010904Y-108100761D01*
X151058523Y-108053142D01*
X149963285Y-108148380D02*
X149772809Y-108148380D01*
X149677571Y-108100761D01*
X149629952Y-108053142D01*
X149534714Y-107910285D01*
X149487095Y-107719809D01*
X149487095Y-107338857D01*
X149534714Y-107243619D01*
X149582333Y-107196000D01*
X149677571Y-107148380D01*
X149868047Y-107148380D01*
X149963285Y-107196000D01*
X150010904Y-107243619D01*
X150058523Y-107338857D01*
X150058523Y-107576952D01*
X150010904Y-107672190D01*
X149963285Y-107719809D01*
X149868047Y-107767428D01*
X149677571Y-107767428D01*
X149582333Y-107719809D01*
X149534714Y-107672190D01*
X149487095Y-107576952D01*
X117863857Y-106878380D02*
X118197190Y-106402190D01*
X118435285Y-106878380D02*
X118435285Y-105878380D01*
X118054333Y-105878380D01*
X117959095Y-105926000D01*
X117911476Y-105973619D01*
X117863857Y-106068857D01*
X117863857Y-106211714D01*
X117911476Y-106306952D01*
X117959095Y-106354571D01*
X118054333Y-106402190D01*
X118435285Y-106402190D01*
X117482904Y-105973619D02*
X117435285Y-105926000D01*
X117340047Y-105878380D01*
X117101952Y-105878380D01*
X117006714Y-105926000D01*
X116959095Y-105973619D01*
X116911476Y-106068857D01*
X116911476Y-106164095D01*
X116959095Y-106306952D01*
X117530523Y-106878380D01*
X116911476Y-106878380D01*
X116340047Y-106306952D02*
X116435285Y-106259333D01*
X116482904Y-106211714D01*
X116530523Y-106116476D01*
X116530523Y-106068857D01*
X116482904Y-105973619D01*
X116435285Y-105926000D01*
X116340047Y-105878380D01*
X116149571Y-105878380D01*
X116054333Y-105926000D01*
X116006714Y-105973619D01*
X115959095Y-106068857D01*
X115959095Y-106116476D01*
X116006714Y-106211714D01*
X116054333Y-106259333D01*
X116149571Y-106306952D01*
X116340047Y-106306952D01*
X116435285Y-106354571D01*
X116482904Y-106402190D01*
X116530523Y-106497428D01*
X116530523Y-106687904D01*
X116482904Y-106783142D01*
X116435285Y-106830761D01*
X116340047Y-106878380D01*
X116149571Y-106878380D01*
X116054333Y-106830761D01*
X116006714Y-106783142D01*
X115959095Y-106687904D01*
X115959095Y-106497428D01*
X116006714Y-106402190D01*
X116054333Y-106354571D01*
X116149571Y-106306952D01*
X138142857Y-106116380D02*
X138476190Y-105640190D01*
X138714285Y-106116380D02*
X138714285Y-105116380D01*
X138333333Y-105116380D01*
X138238095Y-105164000D01*
X138190476Y-105211619D01*
X138142857Y-105306857D01*
X138142857Y-105449714D01*
X138190476Y-105544952D01*
X138238095Y-105592571D01*
X138333333Y-105640190D01*
X138714285Y-105640190D01*
X137761904Y-105211619D02*
X137714285Y-105164000D01*
X137619047Y-105116380D01*
X137380952Y-105116380D01*
X137285714Y-105164000D01*
X137238095Y-105211619D01*
X137190476Y-105306857D01*
X137190476Y-105402095D01*
X137238095Y-105544952D01*
X137809523Y-106116380D01*
X137190476Y-106116380D01*
X136857142Y-105116380D02*
X136190476Y-105116380D01*
X136619047Y-106116380D01*
X117892857Y-100632380D02*
X118226190Y-100156190D01*
X118464285Y-100632380D02*
X118464285Y-99632380D01*
X118083333Y-99632380D01*
X117988095Y-99680000D01*
X117940476Y-99727619D01*
X117892857Y-99822857D01*
X117892857Y-99965714D01*
X117940476Y-100060952D01*
X117988095Y-100108571D01*
X118083333Y-100156190D01*
X118464285Y-100156190D01*
X117511904Y-99727619D02*
X117464285Y-99680000D01*
X117369047Y-99632380D01*
X117130952Y-99632380D01*
X117035714Y-99680000D01*
X116988095Y-99727619D01*
X116940476Y-99822857D01*
X116940476Y-99918095D01*
X116988095Y-100060952D01*
X117559523Y-100632380D01*
X116940476Y-100632380D01*
X116083333Y-99632380D02*
X116273809Y-99632380D01*
X116369047Y-99680000D01*
X116416666Y-99727619D01*
X116511904Y-99870476D01*
X116559523Y-100060952D01*
X116559523Y-100441904D01*
X116511904Y-100537142D01*
X116464285Y-100584761D01*
X116369047Y-100632380D01*
X116178571Y-100632380D01*
X116083333Y-100584761D01*
X116035714Y-100537142D01*
X115988095Y-100441904D01*
X115988095Y-100203809D01*
X116035714Y-100108571D01*
X116083333Y-100060952D01*
X116178571Y-100013333D01*
X116369047Y-100013333D01*
X116464285Y-100060952D01*
X116511904Y-100108571D01*
X116559523Y-100203809D01*
X86748857Y-111101142D02*
X86796476Y-111148761D01*
X86939333Y-111196380D01*
X87034571Y-111196380D01*
X87177428Y-111148761D01*
X87272666Y-111053523D01*
X87320285Y-110958285D01*
X87367904Y-110767809D01*
X87367904Y-110624952D01*
X87320285Y-110434476D01*
X87272666Y-110339238D01*
X87177428Y-110244000D01*
X87034571Y-110196380D01*
X86939333Y-110196380D01*
X86796476Y-110244000D01*
X86748857Y-110291619D01*
X85796476Y-111196380D02*
X86367904Y-111196380D01*
X86082190Y-111196380D02*
X86082190Y-110196380D01*
X86177428Y-110339238D01*
X86272666Y-110434476D01*
X86367904Y-110482095D01*
X85463142Y-110196380D02*
X84844095Y-110196380D01*
X85177428Y-110577333D01*
X85034571Y-110577333D01*
X84939333Y-110624952D01*
X84891714Y-110672571D01*
X84844095Y-110767809D01*
X84844095Y-111005904D01*
X84891714Y-111101142D01*
X84939333Y-111148761D01*
X85034571Y-111196380D01*
X85320285Y-111196380D01*
X85415523Y-111148761D01*
X85463142Y-111101142D01*
X86875857Y-119864142D02*
X86923476Y-119911761D01*
X87066333Y-119959380D01*
X87161571Y-119959380D01*
X87304428Y-119911761D01*
X87399666Y-119816523D01*
X87447285Y-119721285D01*
X87494904Y-119530809D01*
X87494904Y-119387952D01*
X87447285Y-119197476D01*
X87399666Y-119102238D01*
X87304428Y-119007000D01*
X87161571Y-118959380D01*
X87066333Y-118959380D01*
X86923476Y-119007000D01*
X86875857Y-119054619D01*
X85923476Y-119959380D02*
X86494904Y-119959380D01*
X86209190Y-119959380D02*
X86209190Y-118959380D01*
X86304428Y-119102238D01*
X86399666Y-119197476D01*
X86494904Y-119245095D01*
X84971095Y-119959380D02*
X85542523Y-119959380D01*
X85256809Y-119959380D02*
X85256809Y-118959380D01*
X85352047Y-119102238D01*
X85447285Y-119197476D01*
X85542523Y-119245095D01*
X89415857Y-105005142D02*
X89463476Y-105052761D01*
X89606333Y-105100380D01*
X89701571Y-105100380D01*
X89844428Y-105052761D01*
X89939666Y-104957523D01*
X89987285Y-104862285D01*
X90034904Y-104671809D01*
X90034904Y-104528952D01*
X89987285Y-104338476D01*
X89939666Y-104243238D01*
X89844428Y-104148000D01*
X89701571Y-104100380D01*
X89606333Y-104100380D01*
X89463476Y-104148000D01*
X89415857Y-104195619D01*
X89082523Y-104100380D02*
X88463476Y-104100380D01*
X88796809Y-104481333D01*
X88653952Y-104481333D01*
X88558714Y-104528952D01*
X88511095Y-104576571D01*
X88463476Y-104671809D01*
X88463476Y-104909904D01*
X88511095Y-105005142D01*
X88558714Y-105052761D01*
X88653952Y-105100380D01*
X88939666Y-105100380D01*
X89034904Y-105052761D01*
X89082523Y-105005142D01*
X87511095Y-105100380D02*
X88082523Y-105100380D01*
X87796809Y-105100380D02*
X87796809Y-104100380D01*
X87892047Y-104243238D01*
X87987285Y-104338476D01*
X88082523Y-104386095D01*
X83573857Y-105132142D02*
X83621476Y-105179761D01*
X83764333Y-105227380D01*
X83859571Y-105227380D01*
X84002428Y-105179761D01*
X84097666Y-105084523D01*
X84145285Y-104989285D01*
X84192904Y-104798809D01*
X84192904Y-104655952D01*
X84145285Y-104465476D01*
X84097666Y-104370238D01*
X84002428Y-104275000D01*
X83859571Y-104227380D01*
X83764333Y-104227380D01*
X83621476Y-104275000D01*
X83573857Y-104322619D01*
X83240523Y-104227380D02*
X82621476Y-104227380D01*
X82954809Y-104608333D01*
X82811952Y-104608333D01*
X82716714Y-104655952D01*
X82669095Y-104703571D01*
X82621476Y-104798809D01*
X82621476Y-105036904D01*
X82669095Y-105132142D01*
X82716714Y-105179761D01*
X82811952Y-105227380D01*
X83097666Y-105227380D01*
X83192904Y-105179761D01*
X83240523Y-105132142D01*
X82002428Y-104227380D02*
X81907190Y-104227380D01*
X81811952Y-104275000D01*
X81764333Y-104322619D01*
X81716714Y-104417857D01*
X81669095Y-104608333D01*
X81669095Y-104846428D01*
X81716714Y-105036904D01*
X81764333Y-105132142D01*
X81811952Y-105179761D01*
X81907190Y-105227380D01*
X82002428Y-105227380D01*
X82097666Y-105179761D01*
X82145285Y-105132142D01*
X82192904Y-105036904D01*
X82240523Y-104846428D01*
X82240523Y-104608333D01*
X82192904Y-104417857D01*
X82145285Y-104322619D01*
X82097666Y-104275000D01*
X82002428Y-104227380D01*
X89288857Y-113895142D02*
X89336476Y-113942761D01*
X89479333Y-113990380D01*
X89574571Y-113990380D01*
X89717428Y-113942761D01*
X89812666Y-113847523D01*
X89860285Y-113752285D01*
X89907904Y-113561809D01*
X89907904Y-113418952D01*
X89860285Y-113228476D01*
X89812666Y-113133238D01*
X89717428Y-113038000D01*
X89574571Y-112990380D01*
X89479333Y-112990380D01*
X89336476Y-113038000D01*
X89288857Y-113085619D01*
X88907904Y-113085619D02*
X88860285Y-113038000D01*
X88765047Y-112990380D01*
X88526952Y-112990380D01*
X88431714Y-113038000D01*
X88384095Y-113085619D01*
X88336476Y-113180857D01*
X88336476Y-113276095D01*
X88384095Y-113418952D01*
X88955523Y-113990380D01*
X88336476Y-113990380D01*
X88003142Y-112990380D02*
X87336476Y-112990380D01*
X87765047Y-113990380D01*
X133242857Y-131929142D02*
X133290476Y-131976761D01*
X133433333Y-132024380D01*
X133528571Y-132024380D01*
X133671428Y-131976761D01*
X133766666Y-131881523D01*
X133814285Y-131786285D01*
X133861904Y-131595809D01*
X133861904Y-131452952D01*
X133814285Y-131262476D01*
X133766666Y-131167238D01*
X133671428Y-131072000D01*
X133528571Y-131024380D01*
X133433333Y-131024380D01*
X133290476Y-131072000D01*
X133242857Y-131119619D01*
X132290476Y-132024380D02*
X132861904Y-132024380D01*
X132576190Y-132024380D02*
X132576190Y-131024380D01*
X132671428Y-131167238D01*
X132766666Y-131262476D01*
X132861904Y-131310095D01*
X131671428Y-131024380D02*
X131576190Y-131024380D01*
X131480952Y-131072000D01*
X131433333Y-131119619D01*
X131385714Y-131214857D01*
X131338095Y-131405333D01*
X131338095Y-131643428D01*
X131385714Y-131833904D01*
X131433333Y-131929142D01*
X131480952Y-131976761D01*
X131576190Y-132024380D01*
X131671428Y-132024380D01*
X131766666Y-131976761D01*
X131814285Y-131929142D01*
X131861904Y-131833904D01*
X131909523Y-131643428D01*
X131909523Y-131405333D01*
X131861904Y-131214857D01*
X131814285Y-131119619D01*
X131766666Y-131072000D01*
X131671428Y-131024380D01*
X101013666Y-131929142D02*
X101061285Y-131976761D01*
X101204142Y-132024380D01*
X101299380Y-132024380D01*
X101442238Y-131976761D01*
X101537476Y-131881523D01*
X101585095Y-131786285D01*
X101632714Y-131595809D01*
X101632714Y-131452952D01*
X101585095Y-131262476D01*
X101537476Y-131167238D01*
X101442238Y-131072000D01*
X101299380Y-131024380D01*
X101204142Y-131024380D01*
X101061285Y-131072000D01*
X101013666Y-131119619D01*
X100537476Y-132024380D02*
X100347000Y-132024380D01*
X100251761Y-131976761D01*
X100204142Y-131929142D01*
X100108904Y-131786285D01*
X100061285Y-131595809D01*
X100061285Y-131214857D01*
X100108904Y-131119619D01*
X100156523Y-131072000D01*
X100251761Y-131024380D01*
X100442238Y-131024380D01*
X100537476Y-131072000D01*
X100585095Y-131119619D01*
X100632714Y-131214857D01*
X100632714Y-131452952D01*
X100585095Y-131548190D01*
X100537476Y-131595809D01*
X100442238Y-131643428D01*
X100251761Y-131643428D01*
X100156523Y-131595809D01*
X100108904Y-131548190D01*
X100061285Y-131452952D01*
X112319666Y-131929142D02*
X112367285Y-131976761D01*
X112510142Y-132024380D01*
X112605380Y-132024380D01*
X112748238Y-131976761D01*
X112843476Y-131881523D01*
X112891095Y-131786285D01*
X112938714Y-131595809D01*
X112938714Y-131452952D01*
X112891095Y-131262476D01*
X112843476Y-131167238D01*
X112748238Y-131072000D01*
X112605380Y-131024380D01*
X112510142Y-131024380D01*
X112367285Y-131072000D01*
X112319666Y-131119619D01*
X111748238Y-131452952D02*
X111843476Y-131405333D01*
X111891095Y-131357714D01*
X111938714Y-131262476D01*
X111938714Y-131214857D01*
X111891095Y-131119619D01*
X111843476Y-131072000D01*
X111748238Y-131024380D01*
X111557761Y-131024380D01*
X111462523Y-131072000D01*
X111414904Y-131119619D01*
X111367285Y-131214857D01*
X111367285Y-131262476D01*
X111414904Y-131357714D01*
X111462523Y-131405333D01*
X111557761Y-131452952D01*
X111748238Y-131452952D01*
X111843476Y-131500571D01*
X111891095Y-131548190D01*
X111938714Y-131643428D01*
X111938714Y-131833904D01*
X111891095Y-131929142D01*
X111843476Y-131976761D01*
X111748238Y-132024380D01*
X111557761Y-132024380D01*
X111462523Y-131976761D01*
X111414904Y-131929142D01*
X111367285Y-131833904D01*
X111367285Y-131643428D01*
X111414904Y-131548190D01*
X111462523Y-131500571D01*
X111557761Y-131452952D01*
X143676666Y-131929142D02*
X143724285Y-131976761D01*
X143867142Y-132024380D01*
X143962380Y-132024380D01*
X144105238Y-131976761D01*
X144200476Y-131881523D01*
X144248095Y-131786285D01*
X144295714Y-131595809D01*
X144295714Y-131452952D01*
X144248095Y-131262476D01*
X144200476Y-131167238D01*
X144105238Y-131072000D01*
X143962380Y-131024380D01*
X143867142Y-131024380D01*
X143724285Y-131072000D01*
X143676666Y-131119619D01*
X143343333Y-131024380D02*
X142676666Y-131024380D01*
X143105238Y-132024380D01*
X90971666Y-131929142D02*
X91019285Y-131976761D01*
X91162142Y-132024380D01*
X91257380Y-132024380D01*
X91400238Y-131976761D01*
X91495476Y-131881523D01*
X91543095Y-131786285D01*
X91590714Y-131595809D01*
X91590714Y-131452952D01*
X91543095Y-131262476D01*
X91495476Y-131167238D01*
X91400238Y-131072000D01*
X91257380Y-131024380D01*
X91162142Y-131024380D01*
X91019285Y-131072000D01*
X90971666Y-131119619D01*
X90114523Y-131024380D02*
X90305000Y-131024380D01*
X90400238Y-131072000D01*
X90447857Y-131119619D01*
X90543095Y-131262476D01*
X90590714Y-131452952D01*
X90590714Y-131833904D01*
X90543095Y-131929142D01*
X90495476Y-131976761D01*
X90400238Y-132024380D01*
X90209761Y-132024380D01*
X90114523Y-131976761D01*
X90066904Y-131929142D01*
X90019285Y-131833904D01*
X90019285Y-131595809D01*
X90066904Y-131500571D01*
X90114523Y-131452952D01*
X90209761Y-131405333D01*
X90400238Y-131405333D01*
X90495476Y-131452952D01*
X90543095Y-131500571D01*
X90590714Y-131595809D01*
X122479666Y-131929142D02*
X122527285Y-131976761D01*
X122670142Y-132024380D01*
X122765380Y-132024380D01*
X122908238Y-131976761D01*
X123003476Y-131881523D01*
X123051095Y-131786285D01*
X123098714Y-131595809D01*
X123098714Y-131452952D01*
X123051095Y-131262476D01*
X123003476Y-131167238D01*
X122908238Y-131072000D01*
X122765380Y-131024380D01*
X122670142Y-131024380D01*
X122527285Y-131072000D01*
X122479666Y-131119619D01*
X121574904Y-131024380D02*
X122051095Y-131024380D01*
X122098714Y-131500571D01*
X122051095Y-131452952D01*
X121955857Y-131405333D01*
X121717761Y-131405333D01*
X121622523Y-131452952D01*
X121574904Y-131500571D01*
X121527285Y-131595809D01*
X121527285Y-131833904D01*
X121574904Y-131929142D01*
X121622523Y-131976761D01*
X121717761Y-132024380D01*
X121955857Y-132024380D01*
X122051095Y-131976761D01*
X122098714Y-131929142D01*
X79541666Y-131929142D02*
X79589285Y-131976761D01*
X79732142Y-132024380D01*
X79827380Y-132024380D01*
X79970238Y-131976761D01*
X80065476Y-131881523D01*
X80113095Y-131786285D01*
X80160714Y-131595809D01*
X80160714Y-131452952D01*
X80113095Y-131262476D01*
X80065476Y-131167238D01*
X79970238Y-131072000D01*
X79827380Y-131024380D01*
X79732142Y-131024380D01*
X79589285Y-131072000D01*
X79541666Y-131119619D01*
X78684523Y-131357714D02*
X78684523Y-132024380D01*
X78922619Y-130976761D02*
X79160714Y-131691047D01*
X78541666Y-131691047D01*
X163583857Y-127452380D02*
X163917190Y-126976190D01*
X164155285Y-127452380D02*
X164155285Y-126452380D01*
X163774333Y-126452380D01*
X163679095Y-126500000D01*
X163631476Y-126547619D01*
X163583857Y-126642857D01*
X163583857Y-126785714D01*
X163631476Y-126880952D01*
X163679095Y-126928571D01*
X163774333Y-126976190D01*
X164155285Y-126976190D01*
X162631476Y-127452380D02*
X163202904Y-127452380D01*
X162917190Y-127452380D02*
X162917190Y-126452380D01*
X163012428Y-126595238D01*
X163107666Y-126690476D01*
X163202904Y-126738095D01*
X162012428Y-126452380D02*
X161917190Y-126452380D01*
X161821952Y-126500000D01*
X161774333Y-126547619D01*
X161726714Y-126642857D01*
X161679095Y-126833333D01*
X161679095Y-127071428D01*
X161726714Y-127261904D01*
X161774333Y-127357142D01*
X161821952Y-127404761D01*
X161917190Y-127452380D01*
X162012428Y-127452380D01*
X162107666Y-127404761D01*
X162155285Y-127357142D01*
X162202904Y-127261904D01*
X162250523Y-127071428D01*
X162250523Y-126833333D01*
X162202904Y-126642857D01*
X162155285Y-126547619D01*
X162107666Y-126500000D01*
X162012428Y-126452380D01*
X163742666Y-111196380D02*
X164076000Y-110720190D01*
X164314095Y-111196380D02*
X164314095Y-110196380D01*
X163933142Y-110196380D01*
X163837904Y-110244000D01*
X163790285Y-110291619D01*
X163742666Y-110386857D01*
X163742666Y-110529714D01*
X163790285Y-110624952D01*
X163837904Y-110672571D01*
X163933142Y-110720190D01*
X164314095Y-110720190D01*
X163266476Y-111196380D02*
X163076000Y-111196380D01*
X162980761Y-111148761D01*
X162933142Y-111101142D01*
X162837904Y-110958285D01*
X162790285Y-110767809D01*
X162790285Y-110386857D01*
X162837904Y-110291619D01*
X162885523Y-110244000D01*
X162980761Y-110196380D01*
X163171238Y-110196380D01*
X163266476Y-110244000D01*
X163314095Y-110291619D01*
X163361714Y-110386857D01*
X163361714Y-110624952D01*
X163314095Y-110720190D01*
X163266476Y-110767809D01*
X163171238Y-110815428D01*
X162980761Y-110815428D01*
X162885523Y-110767809D01*
X162837904Y-110720190D01*
X162790285Y-110624952D01*
X157646666Y-117927380D02*
X157980000Y-117451190D01*
X158218095Y-117927380D02*
X158218095Y-116927380D01*
X157837142Y-116927380D01*
X157741904Y-116975000D01*
X157694285Y-117022619D01*
X157646666Y-117117857D01*
X157646666Y-117260714D01*
X157694285Y-117355952D01*
X157741904Y-117403571D01*
X157837142Y-117451190D01*
X158218095Y-117451190D01*
X157075238Y-117355952D02*
X157170476Y-117308333D01*
X157218095Y-117260714D01*
X157265714Y-117165476D01*
X157265714Y-117117857D01*
X157218095Y-117022619D01*
X157170476Y-116975000D01*
X157075238Y-116927380D01*
X156884761Y-116927380D01*
X156789523Y-116975000D01*
X156741904Y-117022619D01*
X156694285Y-117117857D01*
X156694285Y-117165476D01*
X156741904Y-117260714D01*
X156789523Y-117308333D01*
X156884761Y-117355952D01*
X157075238Y-117355952D01*
X157170476Y-117403571D01*
X157218095Y-117451190D01*
X157265714Y-117546428D01*
X157265714Y-117736904D01*
X157218095Y-117832142D01*
X157170476Y-117879761D01*
X157075238Y-117927380D01*
X156884761Y-117927380D01*
X156789523Y-117879761D01*
X156741904Y-117832142D01*
X156694285Y-117736904D01*
X156694285Y-117546428D01*
X156741904Y-117451190D01*
X156789523Y-117403571D01*
X156884761Y-117355952D01*
X157516666Y-115387380D02*
X157850000Y-114911190D01*
X158088095Y-115387380D02*
X158088095Y-114387380D01*
X157707142Y-114387380D01*
X157611904Y-114435000D01*
X157564285Y-114482619D01*
X157516666Y-114577857D01*
X157516666Y-114720714D01*
X157564285Y-114815952D01*
X157611904Y-114863571D01*
X157707142Y-114911190D01*
X158088095Y-114911190D01*
X157183333Y-114387380D02*
X156516666Y-114387380D01*
X156945238Y-115387380D01*
X157516666Y-112847380D02*
X157850000Y-112371190D01*
X158088095Y-112847380D02*
X158088095Y-111847380D01*
X157707142Y-111847380D01*
X157611904Y-111895000D01*
X157564285Y-111942619D01*
X157516666Y-112037857D01*
X157516666Y-112180714D01*
X157564285Y-112275952D01*
X157611904Y-112323571D01*
X157707142Y-112371190D01*
X158088095Y-112371190D01*
X156659523Y-111847380D02*
X156850000Y-111847380D01*
X156945238Y-111895000D01*
X156992857Y-111942619D01*
X157088095Y-112085476D01*
X157135714Y-112275952D01*
X157135714Y-112656904D01*
X157088095Y-112752142D01*
X157040476Y-112799761D01*
X156945238Y-112847380D01*
X156754761Y-112847380D01*
X156659523Y-112799761D01*
X156611904Y-112752142D01*
X156564285Y-112656904D01*
X156564285Y-112418809D01*
X156611904Y-112323571D01*
X156659523Y-112275952D01*
X156754761Y-112228333D01*
X156945238Y-112228333D01*
X157040476Y-112275952D01*
X157088095Y-112323571D01*
X157135714Y-112418809D01*
X80398857Y-105227380D02*
X80732190Y-104751190D01*
X80970285Y-105227380D02*
X80970285Y-104227380D01*
X80589333Y-104227380D01*
X80494095Y-104275000D01*
X80446476Y-104322619D01*
X80398857Y-104417857D01*
X80398857Y-104560714D01*
X80446476Y-104655952D01*
X80494095Y-104703571D01*
X80589333Y-104751190D01*
X80970285Y-104751190D01*
X80065523Y-104227380D02*
X79446476Y-104227380D01*
X79779809Y-104608333D01*
X79636952Y-104608333D01*
X79541714Y-104655952D01*
X79494095Y-104703571D01*
X79446476Y-104798809D01*
X79446476Y-105036904D01*
X79494095Y-105132142D01*
X79541714Y-105179761D01*
X79636952Y-105227380D01*
X79922666Y-105227380D01*
X80017904Y-105179761D01*
X80065523Y-105132142D01*
X79113142Y-104227380D02*
X78446476Y-104227380D01*
X78875047Y-105227380D01*
X79255857Y-113984380D02*
X79589190Y-113508190D01*
X79827285Y-113984380D02*
X79827285Y-112984380D01*
X79446333Y-112984380D01*
X79351095Y-113032000D01*
X79303476Y-113079619D01*
X79255857Y-113174857D01*
X79255857Y-113317714D01*
X79303476Y-113412952D01*
X79351095Y-113460571D01*
X79446333Y-113508190D01*
X79827285Y-113508190D01*
X78922523Y-112984380D02*
X78303476Y-112984380D01*
X78636809Y-113365333D01*
X78493952Y-113365333D01*
X78398714Y-113412952D01*
X78351095Y-113460571D01*
X78303476Y-113555809D01*
X78303476Y-113793904D01*
X78351095Y-113889142D01*
X78398714Y-113936761D01*
X78493952Y-113984380D01*
X78779666Y-113984380D01*
X78874904Y-113936761D01*
X78922523Y-113889142D01*
X77446333Y-112984380D02*
X77636809Y-112984380D01*
X77732047Y-113032000D01*
X77779666Y-113079619D01*
X77874904Y-113222476D01*
X77922523Y-113412952D01*
X77922523Y-113793904D01*
X77874904Y-113889142D01*
X77827285Y-113936761D01*
X77732047Y-113984380D01*
X77541571Y-113984380D01*
X77446333Y-113936761D01*
X77398714Y-113889142D01*
X77351095Y-113793904D01*
X77351095Y-113555809D01*
X77398714Y-113460571D01*
X77446333Y-113412952D01*
X77541571Y-113365333D01*
X77732047Y-113365333D01*
X77827285Y-113412952D01*
X77874904Y-113460571D01*
X77922523Y-113555809D01*
X133357857Y-82494380D02*
X133691190Y-82018190D01*
X133929285Y-82494380D02*
X133929285Y-81494380D01*
X133548333Y-81494380D01*
X133453095Y-81542000D01*
X133405476Y-81589619D01*
X133357857Y-81684857D01*
X133357857Y-81827714D01*
X133405476Y-81922952D01*
X133453095Y-81970571D01*
X133548333Y-82018190D01*
X133929285Y-82018190D01*
X132976904Y-81589619D02*
X132929285Y-81542000D01*
X132834047Y-81494380D01*
X132595952Y-81494380D01*
X132500714Y-81542000D01*
X132453095Y-81589619D01*
X132405476Y-81684857D01*
X132405476Y-81780095D01*
X132453095Y-81922952D01*
X133024523Y-82494380D01*
X132405476Y-82494380D01*
X131548333Y-81827714D02*
X131548333Y-82494380D01*
X131786428Y-81446761D02*
X132024523Y-82161047D01*
X131405476Y-82161047D01*
X128277857Y-82494380D02*
X128611190Y-82018190D01*
X128849285Y-82494380D02*
X128849285Y-81494380D01*
X128468333Y-81494380D01*
X128373095Y-81542000D01*
X128325476Y-81589619D01*
X128277857Y-81684857D01*
X128277857Y-81827714D01*
X128325476Y-81922952D01*
X128373095Y-81970571D01*
X128468333Y-82018190D01*
X128849285Y-82018190D01*
X127896904Y-81589619D02*
X127849285Y-81542000D01*
X127754047Y-81494380D01*
X127515952Y-81494380D01*
X127420714Y-81542000D01*
X127373095Y-81589619D01*
X127325476Y-81684857D01*
X127325476Y-81780095D01*
X127373095Y-81922952D01*
X127944523Y-82494380D01*
X127325476Y-82494380D01*
X126992142Y-81494380D02*
X126373095Y-81494380D01*
X126706428Y-81875333D01*
X126563571Y-81875333D01*
X126468333Y-81922952D01*
X126420714Y-81970571D01*
X126373095Y-82065809D01*
X126373095Y-82303904D01*
X126420714Y-82399142D01*
X126468333Y-82446761D01*
X126563571Y-82494380D01*
X126849285Y-82494380D01*
X126944523Y-82446761D01*
X126992142Y-82399142D01*
X122594666Y-82494380D02*
X122928000Y-82018190D01*
X123166095Y-82494380D02*
X123166095Y-81494380D01*
X122785142Y-81494380D01*
X122689904Y-81542000D01*
X122642285Y-81589619D01*
X122594666Y-81684857D01*
X122594666Y-81827714D01*
X122642285Y-81922952D01*
X122689904Y-81970571D01*
X122785142Y-82018190D01*
X123166095Y-82018190D01*
X122261333Y-81494380D02*
X121642285Y-81494380D01*
X121975619Y-81875333D01*
X121832761Y-81875333D01*
X121737523Y-81922952D01*
X121689904Y-81970571D01*
X121642285Y-82065809D01*
X121642285Y-82303904D01*
X121689904Y-82399142D01*
X121737523Y-82446761D01*
X121832761Y-82494380D01*
X122118476Y-82494380D01*
X122213714Y-82446761D01*
X122261333Y-82399142D01*
X145095142Y-120388142D02*
X145142761Y-120340523D01*
X145190380Y-120197666D01*
X145190380Y-120102428D01*
X145142761Y-119959571D01*
X145047523Y-119864333D01*
X144952285Y-119816714D01*
X144761809Y-119769095D01*
X144618952Y-119769095D01*
X144428476Y-119816714D01*
X144333238Y-119864333D01*
X144238000Y-119959571D01*
X144190380Y-120102428D01*
X144190380Y-120197666D01*
X144238000Y-120340523D01*
X144285619Y-120388142D01*
X144285619Y-120769095D02*
X144238000Y-120816714D01*
X144190380Y-120911952D01*
X144190380Y-121150047D01*
X144238000Y-121245285D01*
X144285619Y-121292904D01*
X144380857Y-121340523D01*
X144476095Y-121340523D01*
X144618952Y-121292904D01*
X145190380Y-120721476D01*
X145190380Y-121340523D01*
X144190380Y-122245285D02*
X144190380Y-121769095D01*
X144666571Y-121721476D01*
X144618952Y-121769095D01*
X144571333Y-121864333D01*
X144571333Y-122102428D01*
X144618952Y-122197666D01*
X144666571Y-122245285D01*
X144761809Y-122292904D01*
X144999904Y-122292904D01*
X145095142Y-122245285D01*
X145142761Y-122197666D01*
X145190380Y-122102428D01*
X145190380Y-121864333D01*
X145142761Y-121769095D01*
X145095142Y-121721476D01*
X97427142Y-83117142D02*
X97474761Y-83069523D01*
X97522380Y-82926666D01*
X97522380Y-82831428D01*
X97474761Y-82688571D01*
X97379523Y-82593333D01*
X97284285Y-82545714D01*
X97093809Y-82498095D01*
X96950952Y-82498095D01*
X96760476Y-82545714D01*
X96665238Y-82593333D01*
X96570000Y-82688571D01*
X96522380Y-82831428D01*
X96522380Y-82926666D01*
X96570000Y-83069523D01*
X96617619Y-83117142D01*
X96617619Y-83498095D02*
X96570000Y-83545714D01*
X96522380Y-83640952D01*
X96522380Y-83879047D01*
X96570000Y-83974285D01*
X96617619Y-84021904D01*
X96712857Y-84069523D01*
X96808095Y-84069523D01*
X96950952Y-84021904D01*
X97522380Y-83450476D01*
X97522380Y-84069523D01*
X96855714Y-84926666D02*
X97522380Y-84926666D01*
X96474761Y-84688571D02*
X97189047Y-84450476D01*
X97189047Y-85069523D01*
X106572857Y-131929142D02*
X106620476Y-131976761D01*
X106763333Y-132024380D01*
X106858571Y-132024380D01*
X107001428Y-131976761D01*
X107096666Y-131881523D01*
X107144285Y-131786285D01*
X107191904Y-131595809D01*
X107191904Y-131452952D01*
X107144285Y-131262476D01*
X107096666Y-131167238D01*
X107001428Y-131072000D01*
X106858571Y-131024380D01*
X106763333Y-131024380D01*
X106620476Y-131072000D01*
X106572857Y-131119619D01*
X106191904Y-131119619D02*
X106144285Y-131072000D01*
X106049047Y-131024380D01*
X105810952Y-131024380D01*
X105715714Y-131072000D01*
X105668095Y-131119619D01*
X105620476Y-131214857D01*
X105620476Y-131310095D01*
X105668095Y-131452952D01*
X106239523Y-132024380D01*
X105620476Y-132024380D01*
X105287142Y-131024380D02*
X104668095Y-131024380D01*
X105001428Y-131405333D01*
X104858571Y-131405333D01*
X104763333Y-131452952D01*
X104715714Y-131500571D01*
X104668095Y-131595809D01*
X104668095Y-131833904D01*
X104715714Y-131929142D01*
X104763333Y-131976761D01*
X104858571Y-132024380D01*
X105144285Y-132024380D01*
X105239523Y-131976761D01*
X105287142Y-131929142D01*
X118002857Y-131929142D02*
X118050476Y-131976761D01*
X118193333Y-132024380D01*
X118288571Y-132024380D01*
X118431428Y-131976761D01*
X118526666Y-131881523D01*
X118574285Y-131786285D01*
X118621904Y-131595809D01*
X118621904Y-131452952D01*
X118574285Y-131262476D01*
X118526666Y-131167238D01*
X118431428Y-131072000D01*
X118288571Y-131024380D01*
X118193333Y-131024380D01*
X118050476Y-131072000D01*
X118002857Y-131119619D01*
X117621904Y-131119619D02*
X117574285Y-131072000D01*
X117479047Y-131024380D01*
X117240952Y-131024380D01*
X117145714Y-131072000D01*
X117098095Y-131119619D01*
X117050476Y-131214857D01*
X117050476Y-131310095D01*
X117098095Y-131452952D01*
X117669523Y-132024380D01*
X117050476Y-132024380D01*
X116669523Y-131119619D02*
X116621904Y-131072000D01*
X116526666Y-131024380D01*
X116288571Y-131024380D01*
X116193333Y-131072000D01*
X116145714Y-131119619D01*
X116098095Y-131214857D01*
X116098095Y-131310095D01*
X116145714Y-131452952D01*
X116717142Y-132024380D01*
X116098095Y-132024380D01*
X128162857Y-131929142D02*
X128210476Y-131976761D01*
X128353333Y-132024380D01*
X128448571Y-132024380D01*
X128591428Y-131976761D01*
X128686666Y-131881523D01*
X128734285Y-131786285D01*
X128781904Y-131595809D01*
X128781904Y-131452952D01*
X128734285Y-131262476D01*
X128686666Y-131167238D01*
X128591428Y-131072000D01*
X128448571Y-131024380D01*
X128353333Y-131024380D01*
X128210476Y-131072000D01*
X128162857Y-131119619D01*
X127781904Y-131119619D02*
X127734285Y-131072000D01*
X127639047Y-131024380D01*
X127400952Y-131024380D01*
X127305714Y-131072000D01*
X127258095Y-131119619D01*
X127210476Y-131214857D01*
X127210476Y-131310095D01*
X127258095Y-131452952D01*
X127829523Y-132024380D01*
X127210476Y-132024380D01*
X126258095Y-132024380D02*
X126829523Y-132024380D01*
X126543809Y-132024380D02*
X126543809Y-131024380D01*
X126639047Y-131167238D01*
X126734285Y-131262476D01*
X126829523Y-131310095D01*
X96527857Y-131929142D02*
X96575476Y-131976761D01*
X96718333Y-132024380D01*
X96813571Y-132024380D01*
X96956428Y-131976761D01*
X97051666Y-131881523D01*
X97099285Y-131786285D01*
X97146904Y-131595809D01*
X97146904Y-131452952D01*
X97099285Y-131262476D01*
X97051666Y-131167238D01*
X96956428Y-131072000D01*
X96813571Y-131024380D01*
X96718333Y-131024380D01*
X96575476Y-131072000D01*
X96527857Y-131119619D01*
X96194523Y-131024380D02*
X95575476Y-131024380D01*
X95908809Y-131405333D01*
X95765952Y-131405333D01*
X95670714Y-131452952D01*
X95623095Y-131500571D01*
X95575476Y-131595809D01*
X95575476Y-131833904D01*
X95623095Y-131929142D01*
X95670714Y-131976761D01*
X95765952Y-132024380D01*
X96051666Y-132024380D01*
X96146904Y-131976761D01*
X96194523Y-131929142D01*
X95004047Y-131452952D02*
X95099285Y-131405333D01*
X95146904Y-131357714D01*
X95194523Y-131262476D01*
X95194523Y-131214857D01*
X95146904Y-131119619D01*
X95099285Y-131072000D01*
X95004047Y-131024380D01*
X94813571Y-131024380D01*
X94718333Y-131072000D01*
X94670714Y-131119619D01*
X94623095Y-131214857D01*
X94623095Y-131262476D01*
X94670714Y-131357714D01*
X94718333Y-131405333D01*
X94813571Y-131452952D01*
X95004047Y-131452952D01*
X95099285Y-131500571D01*
X95146904Y-131548190D01*
X95194523Y-131643428D01*
X95194523Y-131833904D01*
X95146904Y-131929142D01*
X95099285Y-131976761D01*
X95004047Y-132024380D01*
X94813571Y-132024380D01*
X94718333Y-131976761D01*
X94670714Y-131929142D01*
X94623095Y-131833904D01*
X94623095Y-131643428D01*
X94670714Y-131548190D01*
X94718333Y-131500571D01*
X94813571Y-131452952D01*
X85097857Y-131929142D02*
X85145476Y-131976761D01*
X85288333Y-132024380D01*
X85383571Y-132024380D01*
X85526428Y-131976761D01*
X85621666Y-131881523D01*
X85669285Y-131786285D01*
X85716904Y-131595809D01*
X85716904Y-131452952D01*
X85669285Y-131262476D01*
X85621666Y-131167238D01*
X85526428Y-131072000D01*
X85383571Y-131024380D01*
X85288333Y-131024380D01*
X85145476Y-131072000D01*
X85097857Y-131119619D01*
X84764523Y-131024380D02*
X84145476Y-131024380D01*
X84478809Y-131405333D01*
X84335952Y-131405333D01*
X84240714Y-131452952D01*
X84193095Y-131500571D01*
X84145476Y-131595809D01*
X84145476Y-131833904D01*
X84193095Y-131929142D01*
X84240714Y-131976761D01*
X84335952Y-132024380D01*
X84621666Y-132024380D01*
X84716904Y-131976761D01*
X84764523Y-131929142D01*
X83812142Y-131024380D02*
X83145476Y-131024380D01*
X83574047Y-132024380D01*
X138322857Y-131929142D02*
X138370476Y-131976761D01*
X138513333Y-132024380D01*
X138608571Y-132024380D01*
X138751428Y-131976761D01*
X138846666Y-131881523D01*
X138894285Y-131786285D01*
X138941904Y-131595809D01*
X138941904Y-131452952D01*
X138894285Y-131262476D01*
X138846666Y-131167238D01*
X138751428Y-131072000D01*
X138608571Y-131024380D01*
X138513333Y-131024380D01*
X138370476Y-131072000D01*
X138322857Y-131119619D01*
X137989523Y-131024380D02*
X137370476Y-131024380D01*
X137703809Y-131405333D01*
X137560952Y-131405333D01*
X137465714Y-131452952D01*
X137418095Y-131500571D01*
X137370476Y-131595809D01*
X137370476Y-131833904D01*
X137418095Y-131929142D01*
X137465714Y-131976761D01*
X137560952Y-132024380D01*
X137846666Y-132024380D01*
X137941904Y-131976761D01*
X137989523Y-131929142D01*
X136513333Y-131024380D02*
X136703809Y-131024380D01*
X136799047Y-131072000D01*
X136846666Y-131119619D01*
X136941904Y-131262476D01*
X136989523Y-131452952D01*
X136989523Y-131833904D01*
X136941904Y-131929142D01*
X136894285Y-131976761D01*
X136799047Y-132024380D01*
X136608571Y-132024380D01*
X136513333Y-131976761D01*
X136465714Y-131929142D01*
X136418095Y-131833904D01*
X136418095Y-131595809D01*
X136465714Y-131500571D01*
X136513333Y-131452952D01*
X136608571Y-131405333D01*
X136799047Y-131405333D01*
X136894285Y-131452952D01*
X136941904Y-131500571D01*
X136989523Y-131595809D01*
X149232857Y-131929142D02*
X149280476Y-131976761D01*
X149423333Y-132024380D01*
X149518571Y-132024380D01*
X149661428Y-131976761D01*
X149756666Y-131881523D01*
X149804285Y-131786285D01*
X149851904Y-131595809D01*
X149851904Y-131452952D01*
X149804285Y-131262476D01*
X149756666Y-131167238D01*
X149661428Y-131072000D01*
X149518571Y-131024380D01*
X149423333Y-131024380D01*
X149280476Y-131072000D01*
X149232857Y-131119619D01*
X148899523Y-131024380D02*
X148280476Y-131024380D01*
X148613809Y-131405333D01*
X148470952Y-131405333D01*
X148375714Y-131452952D01*
X148328095Y-131500571D01*
X148280476Y-131595809D01*
X148280476Y-131833904D01*
X148328095Y-131929142D01*
X148375714Y-131976761D01*
X148470952Y-132024380D01*
X148756666Y-132024380D01*
X148851904Y-131976761D01*
X148899523Y-131929142D01*
X147375714Y-131024380D02*
X147851904Y-131024380D01*
X147899523Y-131500571D01*
X147851904Y-131452952D01*
X147756666Y-131405333D01*
X147518571Y-131405333D01*
X147423333Y-131452952D01*
X147375714Y-131500571D01*
X147328095Y-131595809D01*
X147328095Y-131833904D01*
X147375714Y-131929142D01*
X147423333Y-131976761D01*
X147518571Y-132024380D01*
X147756666Y-132024380D01*
X147851904Y-131976761D01*
X147899523Y-131929142D01*
X107587142Y-83593333D02*
X107634761Y-83545714D01*
X107682380Y-83402857D01*
X107682380Y-83307619D01*
X107634761Y-83164761D01*
X107539523Y-83069523D01*
X107444285Y-83021904D01*
X107253809Y-82974285D01*
X107110952Y-82974285D01*
X106920476Y-83021904D01*
X106825238Y-83069523D01*
X106730000Y-83164761D01*
X106682380Y-83307619D01*
X106682380Y-83402857D01*
X106730000Y-83545714D01*
X106777619Y-83593333D01*
X107682380Y-84545714D02*
X107682380Y-83974285D01*
X107682380Y-84260000D02*
X106682380Y-84260000D01*
X106825238Y-84164761D01*
X106920476Y-84069523D01*
X106968095Y-83974285D01*
M02*
