G04 #@! TF.GenerationSoftware,KiCad,Pcbnew,5.1.5+dfsg1-2build2*
G04 #@! TF.CreationDate,2021-07-06T13:38:07+01:00*
G04 #@! TF.ProjectId,Video+Sound,56696465-6f2b-4536-9f75-6e642e6b6963,rev?*
G04 #@! TF.SameCoordinates,Original*
G04 #@! TF.FileFunction,Copper,L2,Inr*
G04 #@! TF.FilePolarity,Positive*
%FSLAX46Y46*%
G04 Gerber Fmt 4.6, Leading zero omitted, Abs format (unit mm)*
G04 Created by KiCad (PCBNEW 5.1.5+dfsg1-2build2) date 2021-07-06 13:38:07*
%MOMM*%
%LPD*%
G04 APERTURE LIST*
%ADD10C,0.050000*%
%ADD11O,1.700000X1.700000*%
%ADD12R,1.700000X1.700000*%
%ADD13C,1.900000*%
%ADD14R,1.900000X1.900000*%
%ADD15C,2.000000*%
%ADD16O,1.727200X1.727200*%
%ADD17R,1.727200X1.727200*%
%ADD18R,1.600000X1.600000*%
%ADD19C,1.600000*%
%ADD20C,4.000000*%
%ADD21C,1.550000*%
%ADD22C,0.100000*%
%ADD23C,0.711200*%
%ADD24C,0.863600*%
%ADD25C,0.609600*%
%ADD26C,0.254000*%
%ADD27C,1.143000*%
G04 APERTURE END LIST*
D10*
X74041000Y-63500000D02*
X73914000Y-155575000D01*
X172466000Y-63500000D02*
X74041000Y-63500000D01*
X172466000Y-155575000D02*
X172466000Y-63500000D01*
X73914000Y-155575000D02*
X172466000Y-155575000D01*
D11*
X115570000Y-67056000D03*
X118110000Y-67056000D03*
X120650000Y-67056000D03*
X123190000Y-67056000D03*
X125730000Y-67056000D03*
D12*
X128270000Y-67056000D03*
D13*
X170053000Y-97896000D03*
X170053000Y-92096000D03*
D14*
X162553000Y-97246000D03*
D13*
X162553000Y-92746000D03*
D15*
X92456000Y-107696000D03*
X92456000Y-116459000D03*
D16*
X132715000Y-75565000D03*
X132715000Y-78105000D03*
X130175000Y-75565000D03*
X130175000Y-78105000D03*
X127635000Y-75565000D03*
X127635000Y-78105000D03*
X125095000Y-75565000D03*
X125095000Y-78105000D03*
X122555000Y-75565000D03*
D17*
X122555000Y-78105000D03*
D18*
X164592000Y-114554000D03*
D19*
X164592000Y-116844000D03*
X164592000Y-119134000D03*
X164592000Y-121424000D03*
X164592000Y-123714000D03*
X166572000Y-113409000D03*
X166572000Y-115699000D03*
X166572000Y-117989000D03*
X166572000Y-120279000D03*
X166572000Y-122569000D03*
X168552000Y-114554000D03*
X168552000Y-116844000D03*
X168552000Y-119134000D03*
X168552000Y-121424000D03*
X168552000Y-123714000D03*
D20*
X166642000Y-131369000D03*
X166642000Y-106369000D03*
D21*
X83820000Y-145161000D03*
X86360000Y-145161000D03*
X88900000Y-145161000D03*
X91440000Y-145161000D03*
X93980000Y-145161000D03*
X96520000Y-145161000D03*
X99060000Y-145161000D03*
X101600000Y-145161000D03*
X104140000Y-145161000D03*
X106680000Y-145161000D03*
X109220000Y-145161000D03*
X111760000Y-145161000D03*
X114300000Y-145161000D03*
X116840000Y-145161000D03*
X119380000Y-145161000D03*
X121920000Y-145161000D03*
X124460000Y-145161000D03*
X127000000Y-145161000D03*
X129540000Y-145161000D03*
X132080000Y-145161000D03*
X134620000Y-145161000D03*
X137160000Y-145161000D03*
X139700000Y-145161000D03*
X142240000Y-145161000D03*
X144780000Y-145161000D03*
X147320000Y-145161000D03*
X149860000Y-145161000D03*
X152400000Y-145161000D03*
X154940000Y-145161000D03*
X157480000Y-145161000D03*
X160020000Y-145161000D03*
X162560000Y-145161000D03*
X83820000Y-150241000D03*
X86360000Y-150241000D03*
X88900000Y-150241000D03*
X91440000Y-150241000D03*
X93980000Y-150241000D03*
X96520000Y-150241000D03*
X99060000Y-150241000D03*
X101600000Y-150241000D03*
X104140000Y-150241000D03*
X106680000Y-150241000D03*
X109220000Y-150241000D03*
X111760000Y-150241000D03*
X114300000Y-150241000D03*
X116840000Y-150241000D03*
X119380000Y-150241000D03*
X121920000Y-150241000D03*
X124460000Y-150241000D03*
X127000000Y-150241000D03*
X129540000Y-150241000D03*
X132080000Y-150241000D03*
X134620000Y-150241000D03*
X137160000Y-150241000D03*
X139700000Y-150241000D03*
X142240000Y-150241000D03*
X144780000Y-150241000D03*
X147320000Y-150241000D03*
X149860000Y-150241000D03*
X152400000Y-150241000D03*
X154940000Y-150241000D03*
X157480000Y-150241000D03*
X160020000Y-150241000D03*
G04 #@! TA.AperFunction,ViaPad*
D22*
G36*
X163109505Y-149467204D02*
G01*
X163133773Y-149470804D01*
X163157572Y-149476765D01*
X163180671Y-149485030D01*
X163202850Y-149495520D01*
X163223893Y-149508132D01*
X163243599Y-149522747D01*
X163261777Y-149539223D01*
X163278253Y-149557401D01*
X163292868Y-149577107D01*
X163305480Y-149598150D01*
X163315970Y-149620329D01*
X163324235Y-149643428D01*
X163330196Y-149667227D01*
X163333796Y-149691495D01*
X163335000Y-149715999D01*
X163335000Y-150766001D01*
X163333796Y-150790505D01*
X163330196Y-150814773D01*
X163324235Y-150838572D01*
X163315970Y-150861671D01*
X163305480Y-150883850D01*
X163292868Y-150904893D01*
X163278253Y-150924599D01*
X163261777Y-150942777D01*
X163243599Y-150959253D01*
X163223893Y-150973868D01*
X163202850Y-150986480D01*
X163180671Y-150996970D01*
X163157572Y-151005235D01*
X163133773Y-151011196D01*
X163109505Y-151014796D01*
X163085001Y-151016000D01*
X162034999Y-151016000D01*
X162010495Y-151014796D01*
X161986227Y-151011196D01*
X161962428Y-151005235D01*
X161939329Y-150996970D01*
X161917150Y-150986480D01*
X161896107Y-150973868D01*
X161876401Y-150959253D01*
X161858223Y-150942777D01*
X161841747Y-150924599D01*
X161827132Y-150904893D01*
X161814520Y-150883850D01*
X161804030Y-150861671D01*
X161795765Y-150838572D01*
X161789804Y-150814773D01*
X161786204Y-150790505D01*
X161785000Y-150766001D01*
X161785000Y-149715999D01*
X161786204Y-149691495D01*
X161789804Y-149667227D01*
X161795765Y-149643428D01*
X161804030Y-149620329D01*
X161814520Y-149598150D01*
X161827132Y-149577107D01*
X161841747Y-149557401D01*
X161858223Y-149539223D01*
X161876401Y-149522747D01*
X161896107Y-149508132D01*
X161917150Y-149495520D01*
X161939329Y-149485030D01*
X161962428Y-149476765D01*
X161986227Y-149470804D01*
X162010495Y-149467204D01*
X162034999Y-149466000D01*
X163085001Y-149466000D01*
X163109505Y-149467204D01*
G37*
G04 #@! TD.AperFunction*
D23*
X146750000Y-121000000D03*
D24*
X107188000Y-84963000D03*
X102362000Y-105410000D03*
X131000000Y-120750000D03*
D23*
X137500000Y-100000000D03*
X113750000Y-109000000D03*
D24*
X130000000Y-93750000D03*
D23*
X129032000Y-85090000D03*
D24*
X155250000Y-102000000D03*
X92887800Y-83743800D03*
D25*
X117552500Y-102947500D03*
D24*
X142000000Y-129500000D03*
D23*
X142500000Y-122750000D03*
D24*
X115570000Y-95377000D03*
X81407000Y-111125000D03*
D23*
X115951000Y-114808000D03*
D24*
X136017000Y-105918000D03*
X115697000Y-120650000D03*
X131572000Y-129159000D03*
D23*
X134000000Y-88138000D03*
X149606000Y-85598000D03*
D24*
X123317000Y-95377000D03*
X111252000Y-129159000D03*
X121412000Y-129159000D03*
X89916000Y-129159000D03*
X79057500Y-129222500D03*
D23*
X147447000Y-92964000D03*
D24*
X135509000Y-119253000D03*
X137414000Y-117475000D03*
X100330000Y-129159000D03*
D23*
X80645000Y-119634000D03*
D24*
X90170000Y-137541000D03*
X111645000Y-137541000D03*
X121805000Y-137541000D03*
D23*
X160250000Y-125500000D03*
D24*
X100215000Y-137287000D03*
X157500000Y-130750000D03*
X130683000Y-135890000D03*
X78041500Y-138239500D03*
X140970000Y-136144000D03*
X123500000Y-119000000D03*
X113500000Y-101750000D03*
D23*
X142113000Y-94996000D03*
D24*
X139319000Y-92202000D03*
D23*
X112000000Y-122250000D03*
D24*
X112395000Y-119507000D03*
X94996000Y-120777000D03*
X128905000Y-120396000D03*
D23*
X131572000Y-94234000D03*
D24*
X137414000Y-104140000D03*
X128778000Y-95631000D03*
X94996000Y-101981000D03*
D23*
X78486000Y-116586000D03*
X77597000Y-109093000D03*
D25*
X87630000Y-142621000D03*
X129044000Y-137287000D03*
X83566000Y-139573000D03*
X81661000Y-138684000D03*
X130048000Y-137033000D03*
X80391000Y-140081000D03*
X130937000Y-137414000D03*
X80391000Y-138938000D03*
D24*
X79756000Y-104394000D03*
D23*
X117360000Y-133223000D03*
X107327000Y-137287000D03*
D25*
X79375000Y-133350000D03*
X90805000Y-133350000D03*
X100850000Y-133350000D03*
X112153000Y-133350000D03*
X122313000Y-133350000D03*
X137934000Y-134493000D03*
D23*
X137934000Y-132080000D03*
X154432000Y-122936000D03*
D25*
X157607000Y-112395000D03*
X157607000Y-114935000D03*
X157607000Y-117475000D03*
D23*
X146000000Y-124000000D03*
X152250000Y-111750000D03*
X79756000Y-67463000D03*
D25*
X124206000Y-81534000D03*
D23*
X92710000Y-80772000D03*
X153162000Y-95504000D03*
D25*
X98425000Y-113030000D03*
D23*
X107696000Y-107061000D03*
X85090000Y-137287000D03*
X97282000Y-137287000D03*
X131750000Y-95250000D03*
D25*
X139250000Y-95500000D03*
D23*
X136750000Y-94500000D03*
X115250000Y-119000000D03*
X120000000Y-119000000D03*
X112500000Y-112000000D03*
X115250000Y-98000000D03*
X135500000Y-116000000D03*
X127000000Y-120500000D03*
X113500000Y-99250000D03*
X137500000Y-102750000D03*
X115000000Y-94000000D03*
X118500000Y-94000000D03*
X137500000Y-114750000D03*
X139250000Y-109500000D03*
X147898000Y-106750000D03*
X150104000Y-111750000D03*
X122250000Y-93750000D03*
X152500000Y-107034000D03*
X107188000Y-82423000D03*
X127889000Y-133350000D03*
D24*
X78613000Y-113030000D03*
D23*
X97790000Y-130429000D03*
X86487000Y-130556000D03*
X108077000Y-130556000D03*
D25*
X148971000Y-134747000D03*
D23*
X152400000Y-85598000D03*
X150876000Y-78105000D03*
X166878000Y-81280000D03*
D25*
X148844000Y-132080000D03*
D23*
X168910000Y-87376000D03*
X147955000Y-79883000D03*
X152273000Y-92202000D03*
X148336000Y-85090000D03*
X149600000Y-74682000D03*
D25*
X133350000Y-89408000D03*
X133858000Y-90170000D03*
X133477000Y-107188000D03*
X132842000Y-108585000D03*
X132207000Y-109220000D03*
X133985000Y-108839000D03*
X142250000Y-120750000D03*
X142250000Y-111250000D03*
X84750000Y-127500000D03*
X137500000Y-120750000D03*
X113750000Y-106500000D03*
X105250000Y-119500000D03*
X141732000Y-121920000D03*
X142250000Y-110000000D03*
D23*
X147000000Y-113750000D03*
X150876000Y-109474000D03*
D24*
X160150000Y-105915000D03*
D23*
X151003000Y-80010000D03*
X152527000Y-75057000D03*
X160147000Y-98552000D03*
D25*
X117250000Y-102000000D03*
X138176000Y-108966000D03*
X117250000Y-104500000D03*
X106500000Y-119500000D03*
X112649000Y-107000000D03*
D23*
X149225000Y-82550000D03*
D26*
X129750000Y-93500000D02*
X130000000Y-93750000D01*
D27*
X118110000Y-67183000D02*
X118183000Y-67183000D01*
X125095000Y-73787000D02*
X125095000Y-75438000D01*
X129032000Y-85090000D02*
X129032000Y-83439000D01*
X129032000Y-83439000D02*
X125730000Y-80137000D01*
X125730000Y-80137000D02*
X120269000Y-80137000D01*
X120269000Y-80137000D02*
X118110000Y-77978000D01*
X118110000Y-77978000D02*
X118110000Y-67056000D01*
X111125000Y-84963000D02*
X118110000Y-77978000D01*
X107188000Y-84963000D02*
X111125000Y-84963000D01*
X105918000Y-83693000D02*
X107188000Y-84963000D01*
X92938600Y-83693000D02*
X105918000Y-83693000D01*
X83976000Y-100174000D02*
X83976000Y-105000000D01*
X88138000Y-96012000D02*
X83976000Y-100174000D01*
X88138000Y-88392000D02*
X88138000Y-96012000D01*
X92786200Y-83743800D02*
X88138000Y-88392000D01*
X92887800Y-83743800D02*
X92938600Y-83693000D01*
X92887800Y-83743800D02*
X92786200Y-83743800D01*
X130750000Y-93000000D02*
X130000000Y-93750000D01*
X132500000Y-93000000D02*
X130750000Y-93000000D01*
X133250000Y-93750000D02*
X132500000Y-93000000D01*
X133250000Y-96500000D02*
X133250000Y-93750000D01*
X136750000Y-100000000D02*
X133250000Y-96500000D01*
X137500000Y-100000000D02*
X136750000Y-100000000D01*
X155250000Y-110942000D02*
X155250000Y-102000000D01*
X142500000Y-122750000D02*
X143442000Y-122750000D01*
X143442000Y-122750000D02*
X155250000Y-110942000D01*
X123825000Y-72517000D02*
X125095000Y-73787000D01*
X120523000Y-72517000D02*
X123825000Y-72517000D01*
X118110000Y-70104000D02*
X120523000Y-72517000D01*
X118110000Y-67183000D02*
X118110000Y-70104000D01*
X76581000Y-119888000D02*
X78740000Y-122047000D01*
X78740000Y-122047000D02*
X78740000Y-122301000D01*
X76581000Y-112268000D02*
X76581000Y-119888000D01*
X77724000Y-111125000D02*
X76581000Y-112268000D01*
X81407000Y-111125000D02*
X77724000Y-111125000D01*
X139065000Y-101565000D02*
X137500000Y-100000000D01*
X136017000Y-105918000D02*
X136525000Y-106426000D01*
X138303000Y-106426000D02*
X139065000Y-105664000D01*
X139065000Y-105664000D02*
X139065000Y-101565000D01*
X136525000Y-106426000D02*
X138303000Y-106426000D01*
D26*
X115697000Y-120650000D02*
X116078000Y-120650000D01*
D27*
X115697000Y-120650000D02*
X118364000Y-120650000D01*
X118364000Y-120650000D02*
X119714000Y-122000000D01*
X119714000Y-122000000D02*
X129750000Y-122000000D01*
D26*
X116078000Y-120650000D02*
X116459000Y-120269000D01*
X116459000Y-120269000D02*
X116459000Y-119888000D01*
D27*
X129750000Y-122000000D02*
X131000000Y-120750000D01*
X117475000Y-118872000D02*
X117475000Y-116332000D01*
X117475000Y-116332000D02*
X115951000Y-114808000D01*
X115697000Y-120650000D02*
X117475000Y-118872000D01*
X141986000Y-129486000D02*
X142000000Y-129500000D01*
X141986000Y-123264000D02*
X141986000Y-129486000D01*
X142500000Y-122750000D02*
X141986000Y-123264000D01*
X83250000Y-105000000D02*
X83976000Y-105000000D01*
X81407000Y-106843000D02*
X83250000Y-105000000D01*
X81407000Y-111125000D02*
X81407000Y-106843000D01*
X87125000Y-111125000D02*
X92500000Y-116500000D01*
X81407000Y-111125000D02*
X87125000Y-111125000D01*
X84005000Y-105029000D02*
X83976000Y-105000000D01*
X101981000Y-105029000D02*
X84005000Y-105029000D01*
X102362000Y-105410000D02*
X101981000Y-105029000D01*
X132080000Y-88138000D02*
X129032000Y-85090000D01*
X134000000Y-88138000D02*
X132080000Y-88138000D01*
X134000000Y-88138000D02*
X134239000Y-88138000D01*
X147066000Y-88138000D02*
X149606000Y-85598000D01*
X134000000Y-88138000D02*
X147066000Y-88138000D01*
X154832000Y-102000000D02*
X155250000Y-102000000D01*
X147447000Y-94615000D02*
X154832000Y-102000000D01*
X147447000Y-87757000D02*
X147447000Y-94615000D01*
X149606000Y-85598000D02*
X147447000Y-87757000D01*
X103840000Y-105410000D02*
X102362000Y-105410000D01*
X113873000Y-95377000D02*
X103840000Y-105410000D01*
X115570000Y-95377000D02*
X113873000Y-95377000D01*
X123317000Y-95377000D02*
X115570000Y-95377000D01*
X129976000Y-93726000D02*
X130000000Y-93750000D01*
X124968000Y-93726000D02*
X129976000Y-93726000D01*
X123317000Y-95377000D02*
X124968000Y-93726000D01*
X121412000Y-129159000D02*
X131572000Y-129159000D01*
X121412000Y-129159000D02*
X111252000Y-129159000D01*
X79057500Y-129222500D02*
X78740000Y-128905000D01*
X79121000Y-129159000D02*
X79057500Y-129222500D01*
X89916000Y-129159000D02*
X79121000Y-129159000D01*
X78740000Y-128905000D02*
X78740000Y-122174000D01*
X108966000Y-116459000D02*
X92456000Y-116459000D01*
X110617000Y-114808000D02*
X108966000Y-116459000D01*
X115951000Y-114808000D02*
X110617000Y-114808000D01*
X134012000Y-120750000D02*
X131000000Y-120750000D01*
X135509000Y-119253000D02*
X134012000Y-120750000D01*
X136017000Y-108712000D02*
X136017000Y-105918000D01*
X139065000Y-111760000D02*
X136017000Y-108712000D01*
X139065000Y-115685000D02*
X139065000Y-111760000D01*
X137287000Y-117463000D02*
X139065000Y-115685000D01*
X137262000Y-117500000D02*
X135509000Y-119253000D01*
X100330000Y-129159000D02*
X111252000Y-129159000D01*
X100330000Y-129159000D02*
X89420000Y-129159000D01*
X141960000Y-129540000D02*
X142000000Y-129500000D01*
X140081000Y-129159000D02*
X140462000Y-129540000D01*
X140462000Y-129540000D02*
X141960000Y-129540000D01*
X131572000Y-129159000D02*
X140081000Y-129159000D01*
X111645000Y-137541000D02*
X114312000Y-137541000D01*
X100215000Y-137287000D02*
X103009000Y-137287000D01*
X133489000Y-137541000D02*
X134251000Y-137541000D01*
X114250000Y-137541000D02*
X121805000Y-137541000D01*
X137160000Y-142367000D02*
X137160000Y-145161000D01*
X136398000Y-141605000D02*
X137160000Y-142367000D01*
X133350000Y-138545000D02*
X136410000Y-141605000D01*
X133350000Y-137287000D02*
X133350000Y-138545000D01*
X103644000Y-137287000D02*
X102882000Y-137287000D01*
X108712000Y-138811000D02*
X105168000Y-138811000D01*
X109982000Y-137541000D02*
X108712000Y-138811000D01*
X105168000Y-138811000D02*
X103644000Y-137287000D01*
X111645000Y-137541000D02*
X109982000Y-137541000D01*
X78041500Y-138239500D02*
X78740000Y-137541000D01*
X78740000Y-137541000D02*
X82804000Y-137541000D01*
X89281000Y-138430000D02*
X90170000Y-137541000D01*
X83693000Y-138430000D02*
X89281000Y-138430000D01*
X82804000Y-137541000D02*
X83693000Y-138430000D01*
X82169000Y-145161000D02*
X83820000Y-145161000D01*
X78613000Y-141605000D02*
X82169000Y-145161000D01*
X78613000Y-138811000D02*
X78613000Y-141605000D01*
X78041500Y-138239500D02*
X78613000Y-138811000D01*
X93980000Y-137541000D02*
X90170000Y-137541000D01*
X95250000Y-138811000D02*
X93980000Y-137541000D01*
X98691000Y-138811000D02*
X95250000Y-138811000D01*
X100215000Y-137287000D02*
X98691000Y-138811000D01*
X140970000Y-136144000D02*
X141224000Y-135890000D01*
X141224000Y-135890000D02*
X152360000Y-135890000D01*
X152360000Y-135890000D02*
X157500000Y-130750000D01*
X140970000Y-136144000D02*
X139573000Y-137541000D01*
X125742000Y-137541000D02*
X121805000Y-137541000D01*
X139573000Y-137541000D02*
X133477000Y-137541000D01*
X133477000Y-137541000D02*
X131699000Y-135763000D01*
X127520000Y-135763000D02*
X125742000Y-137541000D01*
X131699000Y-135763000D02*
X127520000Y-135763000D01*
X122500000Y-109000000D02*
X128750000Y-102750000D01*
X122500000Y-118000000D02*
X123500000Y-119000000D01*
X122500000Y-109000000D02*
X122500000Y-118000000D01*
X113500000Y-101750000D02*
X113500000Y-103250000D01*
X119250000Y-109000000D02*
X122500000Y-109000000D01*
X113500000Y-103250000D02*
X119250000Y-109000000D01*
X139452000Y-92202000D02*
X139319000Y-92202000D01*
X141000000Y-93750000D02*
X139452000Y-92202000D01*
X141000000Y-119500000D02*
X141000000Y-93750000D01*
X135750000Y-124750000D02*
X141000000Y-119500000D01*
X117250000Y-124750000D02*
X135750000Y-124750000D01*
X112395000Y-119895000D02*
X117250000Y-124750000D01*
X112395000Y-119507000D02*
X112395000Y-119895000D01*
X128905000Y-120396000D02*
X127509000Y-119000000D01*
X127509000Y-119000000D02*
X123500000Y-119000000D01*
X133500000Y-102750000D02*
X128750000Y-102750000D01*
X137414000Y-104140000D02*
X134890000Y-104140000D01*
X134890000Y-104140000D02*
X133500000Y-102750000D01*
X128750000Y-95659000D02*
X128750000Y-102750000D01*
X128778000Y-95631000D02*
X128750000Y-95659000D01*
X113500000Y-104000000D02*
X113500000Y-101750000D01*
X109000000Y-108500000D02*
X113500000Y-104000000D01*
X101261000Y-108500000D02*
X109000000Y-108500000D01*
X100457000Y-107696000D02*
X101261000Y-108500000D01*
X92456000Y-107696000D02*
X100457000Y-107696000D01*
X137952000Y-92202000D02*
X139319000Y-92202000D01*
X137063000Y-91313000D02*
X137952000Y-92202000D01*
X112187000Y-91313000D02*
X137063000Y-91313000D01*
X101519000Y-101981000D02*
X112187000Y-91313000D01*
X94996000Y-101981000D02*
X101519000Y-101981000D01*
X111125000Y-120777000D02*
X112395000Y-119507000D01*
X94996000Y-120777000D02*
X111125000Y-120777000D01*
X154305000Y-89662000D02*
X160150000Y-95507000D01*
X154305000Y-83312000D02*
X154305000Y-89662000D01*
X160150000Y-95507000D02*
X160150000Y-105915000D01*
X151003000Y-80010000D02*
X154305000Y-83312000D01*
X152527000Y-78486000D02*
X152527000Y-75057000D01*
X151003000Y-80010000D02*
X152527000Y-78486000D01*
M02*
