M48
; DRILL file {KiCad 5.1.5+dfsg1-2build2} date Tue 06 Jul 2021 13:38:12 BST
; FORMAT={-:-/ absolute / inch / decimal}
; #@! TF.CreationDate,2021-07-06T13:38:12+01:00
; #@! TF.GenerationSoftware,Kicad,Pcbnew,5.1.5+dfsg1-2build2
; #@! TF.FileFunction,Plated,1,4,PTH
FMAT,2
INCH
T1C0.0160
T2C0.0394
T3C0.0400
T4C0.0472
T5C0.1260
%
G90
G05
T1
X3.055Y-4.295
X3.0725Y-5.4425
X3.09Y-4.59
X3.095Y-4.45
X3.1125Y-5.0875
X3.125Y-5.25
X3.14Y-2.656
X3.14Y-4.11
X3.165Y-5.47
X3.165Y-5.515
X3.175Y-4.71
X3.205Y-4.375
X3.215Y-5.46
X3.29Y-5.495
X3.3366Y-5.0197
X3.35Y-5.405
X3.405Y-5.14
X3.45Y-5.615
X3.54Y-5.085
X3.55Y-5.415
X3.575Y-5.25
X3.65Y-3.18
X3.657Y-3.297
X3.74Y-4.015
X3.74Y-4.755
X3.83Y-5.405
X3.85Y-5.135
X3.875Y-4.45
X3.9455Y-5.405
X3.95Y-5.085
X3.9705Y-5.25
X4.03Y-4.15
X4.1437Y-4.7047
X4.1929Y-4.7047
X4.22Y-3.245
X4.22Y-3.345
X4.2255Y-5.405
X4.24Y-4.215
X4.255Y-5.14
X4.38Y-5.085
X4.3955Y-5.415
X4.4094Y-4.813
X4.4155Y-5.25
X4.425Y-4.705
X4.4291Y-4.4094
X4.435Y-4.2126
X4.4685Y-3.9075
X4.4685Y-4.0059
X4.4783Y-4.1929
X4.4783Y-4.2913
X4.5276Y-3.7008
X4.5374Y-3.8583
X4.5374Y-4.685
X4.55Y-3.755
X4.555Y-4.75
X4.565Y-4.52
X4.6161Y-4.0157
X4.6161Y-4.1142
X4.6205Y-5.245
X4.6281Y-4.0531
X4.6654Y-3.7008
X4.7244Y-4.685
X4.78Y-5.085
X4.7955Y-5.415
X4.813Y-3.6909
X4.8155Y-5.25
X4.855Y-3.755
X4.8622Y-4.685
X4.89Y-3.21
X5.0Y-4.7441
X5.035Y-5.25
X5.07Y-3.765
X5.075Y-4.74
X5.08Y-3.35
X5.0805Y-5.405
X5.1181Y-3.6909
X5.12Y-5.395
X5.145Y-5.35
X5.155Y-5.41
X5.1575Y-4.7539
X5.18Y-3.71
X5.18Y-5.085
X5.187Y-3.75
X5.205Y-4.3
X5.23Y-4.275
X5.25Y-3.52
X5.255Y-4.22
X5.27Y-3.55
X5.275Y-4.285
X5.2756Y-3.47
X5.3346Y-4.5669
X5.335Y-4.695
X5.355Y-4.17
X5.3839Y-3.7205
X5.41Y-4.1
X5.41Y-4.625
X5.4134Y-3.937
X5.4134Y-4.0453
X5.4134Y-4.5177
X5.4134Y-4.7539
X5.4305Y-5.2
X5.4305Y-5.295
X5.44Y-4.29
X5.4823Y-3.7598
X5.4823Y-4.311
X5.485Y-3.63
X5.55Y-5.36
X5.58Y-4.8
X5.5906Y-5.0984
X5.595Y-3.74
X5.6004Y-4.3307
X5.6004Y-4.3799
X5.6004Y-4.7539
X5.6102Y-4.8327
X5.748Y-4.8819
X5.7776Y-4.7638
X5.7874Y-4.4783
X5.805Y-3.66
X5.8228Y-4.2028
X5.825Y-3.145
X5.84Y-3.35
X5.86Y-5.2
X5.865Y-5.305
X5.875Y-3.25
X5.8898Y-2.9402
X5.89Y-3.37
X5.9096Y-4.3996
X5.94Y-3.075
X5.94Y-4.31
X5.945Y-3.15
X5.9941Y-4.3996
X5.995Y-3.63
X6.0Y-3.37
X6.0039Y-4.2139
X6.005Y-2.955
X6.03Y-3.76
X6.08Y-4.84
X6.1122Y-4.0157
X6.2008Y-5.1476
X6.205Y-4.425
X6.205Y-4.525
X6.205Y-4.625
X6.305Y-3.88
X6.3051Y-4.1699
X6.3091Y-4.9409
X6.57Y-3.2
X6.65Y-3.44
T2
X3.3Y-5.715
X3.3Y-5.915
X3.4Y-5.715
X3.4Y-5.915
X3.5Y-5.715
X3.5Y-5.915
X3.6Y-5.715
X3.6Y-5.915
X3.7Y-5.715
X3.7Y-5.915
X3.8Y-5.715
X3.8Y-5.915
X3.9Y-5.715
X3.9Y-5.915
X4.0Y-5.715
X4.0Y-5.915
X4.1Y-5.715
X4.1Y-5.915
X4.2Y-5.715
X4.2Y-5.915
X4.3Y-5.715
X4.3Y-5.915
X4.4Y-5.715
X4.4Y-5.915
X4.5Y-5.715
X4.5Y-5.915
X4.6Y-5.715
X4.6Y-5.915
X4.7Y-5.715
X4.7Y-5.915
X4.8Y-5.715
X4.8Y-5.915
X4.9Y-5.715
X4.9Y-5.915
X5.0Y-5.715
X5.0Y-5.915
X5.1Y-5.715
X5.1Y-5.915
X5.2Y-5.715
X5.2Y-5.915
X5.3Y-5.715
X5.3Y-5.915
X5.4Y-5.715
X5.4Y-5.915
X5.5Y-5.715
X5.5Y-5.915
X5.6Y-5.715
X5.6Y-5.915
X5.7Y-5.715
X5.7Y-5.915
X5.8Y-5.715
X5.8Y-5.915
X5.9Y-5.715
X5.9Y-5.915
X6.0Y-5.715
X6.0Y-5.915
X6.1Y-5.715
X6.1Y-5.915
X6.2Y-5.715
X6.2Y-5.915
X6.3Y-5.715
X6.3Y-5.915
X6.4Y-5.715
X6.4Y-5.915
X4.55Y-2.64
X4.65Y-2.64
X4.75Y-2.64
X4.85Y-2.64
X4.95Y-2.64
X5.05Y-2.64
X3.64Y-4.24
X3.64Y-4.585
X6.48Y-4.51
X6.48Y-4.6002
X6.48Y-4.6903
X6.48Y-4.7805
X6.48Y-4.8706
X6.558Y-4.4649
X6.558Y-4.5551
X6.558Y-4.6452
X6.558Y-4.7354
X6.558Y-4.8256
X6.6359Y-4.51
X6.6359Y-4.6002
X6.6359Y-4.6903
X6.6359Y-4.7805
X6.6359Y-4.8706
T3
X4.825Y-2.975
X4.825Y-3.075
X4.925Y-2.975
X4.925Y-3.075
X5.025Y-2.975
X5.025Y-3.075
X5.125Y-2.975
X5.125Y-3.075
X5.225Y-2.975
X5.225Y-3.075
T4
X6.3997Y-3.6514
X6.3997Y-3.8286
X6.695Y-3.6258
X6.695Y-3.8542
T5
X6.5607Y-4.1878
X6.5607Y-5.172
T0
M30
