G04 #@! TF.GenerationSoftware,KiCad,Pcbnew,5.1.5+dfsg1-2build2*
G04 #@! TF.CreationDate,2021-07-19T22:25:01+01:00*
G04 #@! TF.ProjectId,TestSRAM,54657374-5352-4414-9d2e-6b696361645f,rev?*
G04 #@! TF.SameCoordinates,Original*
G04 #@! TF.FileFunction,Legend,Top*
G04 #@! TF.FilePolarity,Positive*
%FSLAX46Y46*%
G04 Gerber Fmt 4.6, Leading zero omitted, Abs format (unit mm)*
G04 Created by KiCad (PCBNEW 5.1.5+dfsg1-2build2) date 2021-07-19 22:25:01*
%MOMM*%
%LPD*%
G04 APERTURE LIST*
%ADD10C,0.050000*%
%ADD11C,0.158750*%
%ADD12C,0.203200*%
%ADD13C,0.190500*%
%ADD14C,0.300000*%
%ADD15C,0.120000*%
%ADD16C,0.150000*%
G04 APERTURE END LIST*
D10*
X178181000Y-100965000D02*
X178181000Y-155829000D01*
X79629000Y-100965000D02*
X178181000Y-100965000D01*
X79629000Y-155829000D02*
X79629000Y-100965000D01*
X178181000Y-155829000D02*
X79629000Y-155829000D01*
D11*
X85955187Y-144751425D02*
X86257568Y-144751425D01*
X86106377Y-145702261D02*
X86106377Y-145067261D01*
X86257568Y-144751425D02*
X86801854Y-144751425D01*
X86378520Y-145520833D02*
X86680901Y-145520833D01*
X86318044Y-145702261D02*
X86529711Y-145067261D01*
X86741377Y-145702261D01*
X86801854Y-144751425D02*
X87436854Y-144751425D01*
X87315901Y-145641785D02*
X87285663Y-145672023D01*
X87194949Y-145702261D01*
X87134473Y-145702261D01*
X87043758Y-145672023D01*
X86983282Y-145611547D01*
X86953044Y-145551071D01*
X86922806Y-145430119D01*
X86922806Y-145339404D01*
X86953044Y-145218452D01*
X86983282Y-145157976D01*
X87043758Y-145097500D01*
X87134473Y-145067261D01*
X87194949Y-145067261D01*
X87285663Y-145097500D01*
X87315901Y-145127738D01*
X87436854Y-144751425D02*
X88071854Y-144751425D01*
X87588044Y-145702261D02*
X87588044Y-145067261D01*
X87950901Y-145702261D02*
X87678758Y-145339404D01*
X87950901Y-145067261D02*
X87588044Y-145430119D01*
X88071854Y-144751425D02*
X88676616Y-144751425D01*
X88162568Y-145067261D02*
X88585901Y-145702261D01*
X88585901Y-145067261D02*
X88162568Y-145702261D01*
D12*
X168995634Y-109347000D02*
X168898872Y-109298619D01*
X168753729Y-109298619D01*
X168608586Y-109347000D01*
X168511824Y-109443761D01*
X168463443Y-109540523D01*
X168415062Y-109734047D01*
X168415062Y-109879190D01*
X168463443Y-110072714D01*
X168511824Y-110169476D01*
X168608586Y-110266238D01*
X168753729Y-110314619D01*
X168850491Y-110314619D01*
X168995634Y-110266238D01*
X169044015Y-110217857D01*
X169044015Y-109879190D01*
X168850491Y-109879190D01*
X169479443Y-110314619D02*
X169479443Y-109298619D01*
X170060015Y-110314619D01*
X170060015Y-109298619D01*
X170543824Y-110314619D02*
X170543824Y-109298619D01*
X170785729Y-109298619D01*
X170930872Y-109347000D01*
X171027634Y-109443761D01*
X171076015Y-109540523D01*
X171124396Y-109734047D01*
X171124396Y-109879190D01*
X171076015Y-110072714D01*
X171027634Y-110169476D01*
X170930872Y-110266238D01*
X170785729Y-110314619D01*
X170543824Y-110314619D01*
X170205158Y-106758619D02*
X169721348Y-106758619D01*
X169672967Y-107242428D01*
X169721348Y-107194047D01*
X169818110Y-107145666D01*
X170060015Y-107145666D01*
X170156777Y-107194047D01*
X170205158Y-107242428D01*
X170253539Y-107339190D01*
X170253539Y-107581095D01*
X170205158Y-107677857D01*
X170156777Y-107726238D01*
X170060015Y-107774619D01*
X169818110Y-107774619D01*
X169721348Y-107726238D01*
X169672967Y-107677857D01*
X170543824Y-106758619D02*
X170882491Y-107774619D01*
X171221158Y-106758619D01*
X99724270Y-106434466D02*
X99675889Y-106386085D01*
X99579127Y-106240942D01*
X99530746Y-106144180D01*
X99482365Y-105999038D01*
X99433984Y-105757133D01*
X99433984Y-105563609D01*
X99482365Y-105321704D01*
X99530746Y-105176561D01*
X99579127Y-105079800D01*
X99675889Y-104934657D01*
X99724270Y-104886276D01*
X100546746Y-105999038D02*
X100449984Y-106047419D01*
X100256460Y-106047419D01*
X100159699Y-105999038D01*
X100111318Y-105950657D01*
X100062937Y-105853895D01*
X100062937Y-105563609D01*
X100111318Y-105466847D01*
X100159699Y-105418466D01*
X100256460Y-105370085D01*
X100449984Y-105370085D01*
X100546746Y-105418466D01*
X100885413Y-106434466D02*
X100933794Y-106386085D01*
X101030556Y-106240942D01*
X101078937Y-106144180D01*
X101127318Y-105999038D01*
X101175699Y-105757133D01*
X101175699Y-105563609D01*
X101127318Y-105321704D01*
X101078937Y-105176561D01*
X101030556Y-105079800D01*
X100933794Y-104934657D01*
X100885413Y-104886276D01*
X102385222Y-105128180D02*
X102433603Y-105079800D01*
X102530365Y-105031419D01*
X102772270Y-105031419D01*
X102869032Y-105079800D01*
X102917413Y-105128180D01*
X102965794Y-105224942D01*
X102965794Y-105321704D01*
X102917413Y-105466847D01*
X102336841Y-106047419D01*
X102965794Y-106047419D01*
X103594746Y-105031419D02*
X103691508Y-105031419D01*
X103788270Y-105079800D01*
X103836651Y-105128180D01*
X103885032Y-105224942D01*
X103933413Y-105418466D01*
X103933413Y-105660371D01*
X103885032Y-105853895D01*
X103836651Y-105950657D01*
X103788270Y-105999038D01*
X103691508Y-106047419D01*
X103594746Y-106047419D01*
X103497984Y-105999038D01*
X103449603Y-105950657D01*
X103401222Y-105853895D01*
X103352841Y-105660371D01*
X103352841Y-105418466D01*
X103401222Y-105224942D01*
X103449603Y-105128180D01*
X103497984Y-105079800D01*
X103594746Y-105031419D01*
X104320460Y-105128180D02*
X104368841Y-105079800D01*
X104465603Y-105031419D01*
X104707508Y-105031419D01*
X104804270Y-105079800D01*
X104852651Y-105128180D01*
X104901032Y-105224942D01*
X104901032Y-105321704D01*
X104852651Y-105466847D01*
X104272080Y-106047419D01*
X104901032Y-106047419D01*
X105868651Y-106047419D02*
X105288080Y-106047419D01*
X105578365Y-106047419D02*
X105578365Y-105031419D01*
X105481603Y-105176561D01*
X105384841Y-105273323D01*
X105288080Y-105321704D01*
X106304080Y-105660371D02*
X107078175Y-105660371D01*
X107755508Y-105031419D02*
X107852270Y-105031419D01*
X107949032Y-105079800D01*
X107997413Y-105128180D01*
X108045794Y-105224942D01*
X108094175Y-105418466D01*
X108094175Y-105660371D01*
X108045794Y-105853895D01*
X107997413Y-105950657D01*
X107949032Y-105999038D01*
X107852270Y-106047419D01*
X107755508Y-106047419D01*
X107658746Y-105999038D01*
X107610365Y-105950657D01*
X107561984Y-105853895D01*
X107513603Y-105660371D01*
X107513603Y-105418466D01*
X107561984Y-105224942D01*
X107610365Y-105128180D01*
X107658746Y-105079800D01*
X107755508Y-105031419D01*
X108432841Y-105031419D02*
X109110175Y-105031419D01*
X108674746Y-106047419D01*
X109497222Y-105660371D02*
X110271318Y-105660371D01*
X111287318Y-106047419D02*
X110706746Y-106047419D01*
X110997032Y-106047419D02*
X110997032Y-105031419D01*
X110900270Y-105176561D01*
X110803508Y-105273323D01*
X110706746Y-105321704D01*
X112158175Y-105031419D02*
X111964651Y-105031419D01*
X111867889Y-105079800D01*
X111819508Y-105128180D01*
X111722746Y-105273323D01*
X111674365Y-105466847D01*
X111674365Y-105853895D01*
X111722746Y-105950657D01*
X111771127Y-105999038D01*
X111867889Y-106047419D01*
X112061413Y-106047419D01*
X112158175Y-105999038D01*
X112206556Y-105950657D01*
X112254937Y-105853895D01*
X112254937Y-105611990D01*
X112206556Y-105515228D01*
X112158175Y-105466847D01*
X112061413Y-105418466D01*
X111867889Y-105418466D01*
X111771127Y-105466847D01*
X111722746Y-105515228D01*
X111674365Y-105611990D01*
X99917794Y-107774619D02*
X99433984Y-107774619D01*
X99433984Y-106758619D01*
X100691889Y-107774619D02*
X100691889Y-107242428D01*
X100643508Y-107145666D01*
X100546746Y-107097285D01*
X100353222Y-107097285D01*
X100256460Y-107145666D01*
X100691889Y-107726238D02*
X100595127Y-107774619D01*
X100353222Y-107774619D01*
X100256460Y-107726238D01*
X100208080Y-107629476D01*
X100208080Y-107532714D01*
X100256460Y-107435952D01*
X100353222Y-107387571D01*
X100595127Y-107387571D01*
X100691889Y-107339190D01*
X101078937Y-107097285D02*
X101272460Y-107774619D01*
X101465984Y-107290809D01*
X101659508Y-107774619D01*
X101853032Y-107097285D01*
X102240080Y-107774619D02*
X102240080Y-107097285D01*
X102240080Y-107290809D02*
X102288460Y-107194047D01*
X102336841Y-107145666D01*
X102433603Y-107097285D01*
X102530365Y-107097285D01*
X103256080Y-107726238D02*
X103159318Y-107774619D01*
X102965794Y-107774619D01*
X102869032Y-107726238D01*
X102820651Y-107629476D01*
X102820651Y-107242428D01*
X102869032Y-107145666D01*
X102965794Y-107097285D01*
X103159318Y-107097285D01*
X103256080Y-107145666D01*
X103304460Y-107242428D01*
X103304460Y-107339190D01*
X102820651Y-107435952D01*
X103739889Y-107097285D02*
X103739889Y-107774619D01*
X103739889Y-107194047D02*
X103788270Y-107145666D01*
X103885032Y-107097285D01*
X104030175Y-107097285D01*
X104126937Y-107145666D01*
X104175318Y-107242428D01*
X104175318Y-107774619D01*
X105094556Y-107726238D02*
X104997794Y-107774619D01*
X104804270Y-107774619D01*
X104707508Y-107726238D01*
X104659127Y-107677857D01*
X104610746Y-107581095D01*
X104610746Y-107290809D01*
X104659127Y-107194047D01*
X104707508Y-107145666D01*
X104804270Y-107097285D01*
X104997794Y-107097285D01*
X105094556Y-107145666D01*
X105917032Y-107726238D02*
X105820270Y-107774619D01*
X105626746Y-107774619D01*
X105529984Y-107726238D01*
X105481603Y-107629476D01*
X105481603Y-107242428D01*
X105529984Y-107145666D01*
X105626746Y-107097285D01*
X105820270Y-107097285D01*
X105917032Y-107145666D01*
X105965413Y-107242428D01*
X105965413Y-107339190D01*
X105481603Y-107435952D01*
X107174937Y-107774619D02*
X107174937Y-106758619D01*
X107513603Y-107484333D01*
X107852270Y-106758619D01*
X107852270Y-107774619D01*
X108771508Y-107774619D02*
X108771508Y-107242428D01*
X108723127Y-107145666D01*
X108626365Y-107097285D01*
X108432841Y-107097285D01*
X108336080Y-107145666D01*
X108771508Y-107726238D02*
X108674746Y-107774619D01*
X108432841Y-107774619D01*
X108336080Y-107726238D01*
X108287699Y-107629476D01*
X108287699Y-107532714D01*
X108336080Y-107435952D01*
X108432841Y-107387571D01*
X108674746Y-107387571D01*
X108771508Y-107339190D01*
X109255318Y-107097285D02*
X109255318Y-107774619D01*
X109255318Y-107194047D02*
X109303699Y-107145666D01*
X109400460Y-107097285D01*
X109545603Y-107097285D01*
X109642365Y-107145666D01*
X109690746Y-107242428D01*
X109690746Y-107774619D01*
X110174556Y-107097285D02*
X110174556Y-107774619D01*
X110174556Y-107194047D02*
X110222937Y-107145666D01*
X110319699Y-107097285D01*
X110464841Y-107097285D01*
X110561603Y-107145666D01*
X110609984Y-107242428D01*
X110609984Y-107774619D01*
X111093794Y-107774619D02*
X111093794Y-107097285D01*
X111093794Y-106758619D02*
X111045413Y-106807000D01*
X111093794Y-106855380D01*
X111142175Y-106807000D01*
X111093794Y-106758619D01*
X111093794Y-106855380D01*
X111577603Y-107097285D02*
X111577603Y-107774619D01*
X111577603Y-107194047D02*
X111625984Y-107145666D01*
X111722746Y-107097285D01*
X111867889Y-107097285D01*
X111964651Y-107145666D01*
X112013032Y-107242428D01*
X112013032Y-107774619D01*
X112932270Y-107097285D02*
X112932270Y-107919761D01*
X112883889Y-108016523D01*
X112835508Y-108064904D01*
X112738746Y-108113285D01*
X112593603Y-108113285D01*
X112496841Y-108064904D01*
X112932270Y-107726238D02*
X112835508Y-107774619D01*
X112641984Y-107774619D01*
X112545222Y-107726238D01*
X112496841Y-107677857D01*
X112448460Y-107581095D01*
X112448460Y-107290809D01*
X112496841Y-107194047D01*
X112545222Y-107145666D01*
X112641984Y-107097285D01*
X112835508Y-107097285D01*
X112932270Y-107145666D01*
X99433984Y-109501819D02*
X99433984Y-108485819D01*
X99869413Y-109501819D02*
X99869413Y-108969628D01*
X99821032Y-108872866D01*
X99724270Y-108824485D01*
X99579127Y-108824485D01*
X99482365Y-108872866D01*
X99433984Y-108921247D01*
X100208080Y-108824485D02*
X100595127Y-108824485D01*
X100353222Y-108485819D02*
X100353222Y-109356676D01*
X100401603Y-109453438D01*
X100498365Y-109501819D01*
X100595127Y-109501819D01*
X100788651Y-108824485D02*
X101175699Y-108824485D01*
X100933794Y-108485819D02*
X100933794Y-109356676D01*
X100982175Y-109453438D01*
X101078937Y-109501819D01*
X101175699Y-109501819D01*
X101514365Y-108824485D02*
X101514365Y-109840485D01*
X101514365Y-108872866D02*
X101611127Y-108824485D01*
X101804651Y-108824485D01*
X101901413Y-108872866D01*
X101949794Y-108921247D01*
X101998175Y-109018009D01*
X101998175Y-109308295D01*
X101949794Y-109405057D01*
X101901413Y-109453438D01*
X101804651Y-109501819D01*
X101611127Y-109501819D01*
X101514365Y-109453438D01*
X102385222Y-109453438D02*
X102481984Y-109501819D01*
X102675508Y-109501819D01*
X102772270Y-109453438D01*
X102820651Y-109356676D01*
X102820651Y-109308295D01*
X102772270Y-109211533D01*
X102675508Y-109163152D01*
X102530365Y-109163152D01*
X102433603Y-109114771D01*
X102385222Y-109018009D01*
X102385222Y-108969628D01*
X102433603Y-108872866D01*
X102530365Y-108824485D01*
X102675508Y-108824485D01*
X102772270Y-108872866D01*
X103256080Y-109405057D02*
X103304460Y-109453438D01*
X103256080Y-109501819D01*
X103207699Y-109453438D01*
X103256080Y-109405057D01*
X103256080Y-109501819D01*
X103256080Y-108872866D02*
X103304460Y-108921247D01*
X103256080Y-108969628D01*
X103207699Y-108921247D01*
X103256080Y-108872866D01*
X103256080Y-108969628D01*
X104465603Y-108437438D02*
X103594746Y-109743723D01*
X105529984Y-108437438D02*
X104659127Y-109743723D01*
X105771889Y-108824485D02*
X105965413Y-109501819D01*
X106158937Y-109018009D01*
X106352460Y-109501819D01*
X106545984Y-108824485D01*
X106836270Y-108824485D02*
X107029794Y-109501819D01*
X107223318Y-109018009D01*
X107416841Y-109501819D01*
X107610365Y-108824485D01*
X107900651Y-108824485D02*
X108094175Y-109501819D01*
X108287699Y-109018009D01*
X108481222Y-109501819D01*
X108674746Y-108824485D01*
X109061794Y-109405057D02*
X109110175Y-109453438D01*
X109061794Y-109501819D01*
X109013413Y-109453438D01*
X109061794Y-109405057D01*
X109061794Y-109501819D01*
X109981032Y-109501819D02*
X109981032Y-108969628D01*
X109932651Y-108872866D01*
X109835889Y-108824485D01*
X109642365Y-108824485D01*
X109545603Y-108872866D01*
X109981032Y-109453438D02*
X109884270Y-109501819D01*
X109642365Y-109501819D01*
X109545603Y-109453438D01*
X109497222Y-109356676D01*
X109497222Y-109259914D01*
X109545603Y-109163152D01*
X109642365Y-109114771D01*
X109884270Y-109114771D01*
X109981032Y-109066390D01*
X110416460Y-109453438D02*
X110513222Y-109501819D01*
X110706746Y-109501819D01*
X110803508Y-109453438D01*
X110851889Y-109356676D01*
X110851889Y-109308295D01*
X110803508Y-109211533D01*
X110706746Y-109163152D01*
X110561603Y-109163152D01*
X110464841Y-109114771D01*
X110416460Y-109018009D01*
X110416460Y-108969628D01*
X110464841Y-108872866D01*
X110561603Y-108824485D01*
X110706746Y-108824485D01*
X110803508Y-108872866D01*
X111432460Y-109501819D02*
X111335699Y-109453438D01*
X111287318Y-109356676D01*
X111287318Y-108485819D01*
X112254937Y-109501819D02*
X112254937Y-108969628D01*
X112206556Y-108872866D01*
X112109794Y-108824485D01*
X111916270Y-108824485D01*
X111819508Y-108872866D01*
X112254937Y-109453438D02*
X112158175Y-109501819D01*
X111916270Y-109501819D01*
X111819508Y-109453438D01*
X111771127Y-109356676D01*
X111771127Y-109259914D01*
X111819508Y-109163152D01*
X111916270Y-109114771D01*
X112158175Y-109114771D01*
X112254937Y-109066390D01*
X112738746Y-109501819D02*
X112738746Y-108485819D01*
X112835508Y-109114771D02*
X113125794Y-109501819D01*
X113125794Y-108824485D02*
X112738746Y-109211533D01*
X113561222Y-109405057D02*
X113609603Y-109453438D01*
X113561222Y-109501819D01*
X113512841Y-109453438D01*
X113561222Y-109405057D01*
X113561222Y-109501819D01*
X114045032Y-108824485D02*
X114045032Y-109501819D01*
X114045032Y-108921247D02*
X114093413Y-108872866D01*
X114190175Y-108824485D01*
X114335318Y-108824485D01*
X114432080Y-108872866D01*
X114480460Y-108969628D01*
X114480460Y-109501819D01*
X115351318Y-109453438D02*
X115254556Y-109501819D01*
X115061032Y-109501819D01*
X114964270Y-109453438D01*
X114915889Y-109356676D01*
X114915889Y-108969628D01*
X114964270Y-108872866D01*
X115061032Y-108824485D01*
X115254556Y-108824485D01*
X115351318Y-108872866D01*
X115399699Y-108969628D01*
X115399699Y-109066390D01*
X114915889Y-109163152D01*
X115689984Y-108824485D02*
X116077032Y-108824485D01*
X115835127Y-108485819D02*
X115835127Y-109356676D01*
X115883508Y-109453438D01*
X115980270Y-109501819D01*
X116077032Y-109501819D01*
X99567032Y-103789238D02*
X99821032Y-101757238D01*
X100147603Y-103208666D01*
X100837032Y-101757238D01*
X100583032Y-103789238D01*
X101308746Y-103789238D02*
X101562746Y-101757238D01*
X102034460Y-103789238D02*
X102288460Y-101757238D01*
X102651318Y-101757238D01*
X102856937Y-101854000D01*
X102977889Y-102047523D01*
X103026270Y-102241047D01*
X103050460Y-102628095D01*
X103014175Y-102918380D01*
X102893222Y-103305428D01*
X102796460Y-103498952D01*
X102627127Y-103692476D01*
X102397318Y-103789238D01*
X102034460Y-103789238D01*
X103558460Y-103789238D02*
X103812460Y-101757238D01*
X104828460Y-101757238D02*
X104973603Y-101757238D01*
X105106651Y-101854000D01*
X105167127Y-101950761D01*
X105215508Y-102144285D01*
X105239699Y-102531333D01*
X105179222Y-103015142D01*
X105058270Y-103402190D01*
X104961508Y-103595714D01*
X104876841Y-103692476D01*
X104719603Y-103789238D01*
X104574460Y-103789238D01*
X104441413Y-103692476D01*
X104380937Y-103595714D01*
X104332556Y-103402190D01*
X104308365Y-103015142D01*
X104368841Y-102531333D01*
X104489794Y-102144285D01*
X104586556Y-101950761D01*
X104671222Y-101854000D01*
X104828460Y-101757238D01*
X105892841Y-101950761D02*
X105977508Y-101854000D01*
X106134746Y-101757238D01*
X106497603Y-101757238D01*
X106630651Y-101854000D01*
X106691127Y-101950761D01*
X106739508Y-102144285D01*
X106715318Y-102337809D01*
X106606460Y-102628095D01*
X105590460Y-103789238D01*
X106533889Y-103789238D01*
X107731318Y-101757238D02*
X107876460Y-101757238D01*
X108009508Y-101854000D01*
X108069984Y-101950761D01*
X108118365Y-102144285D01*
X108142556Y-102531333D01*
X108082080Y-103015142D01*
X107961127Y-103402190D01*
X107864365Y-103595714D01*
X107779699Y-103692476D01*
X107622460Y-103789238D01*
X107477318Y-103789238D01*
X107344270Y-103692476D01*
X107283794Y-103595714D01*
X107235413Y-103402190D01*
X107211222Y-103015142D01*
X107271699Y-102531333D01*
X107392651Y-102144285D01*
X107489413Y-101950761D01*
X107574080Y-101854000D01*
X107731318Y-101757238D01*
X109835889Y-101757238D02*
X110706746Y-101757238D01*
X110017318Y-103789238D02*
X110271318Y-101757238D01*
X111553413Y-103692476D02*
X111396175Y-103789238D01*
X111105889Y-103789238D01*
X110972841Y-103692476D01*
X110924460Y-103498952D01*
X111021222Y-102724857D01*
X111117984Y-102531333D01*
X111275222Y-102434571D01*
X111565508Y-102434571D01*
X111698556Y-102531333D01*
X111746937Y-102724857D01*
X111722746Y-102918380D01*
X110972841Y-103111904D01*
X112206556Y-103692476D02*
X112339603Y-103789238D01*
X112629889Y-103789238D01*
X112787127Y-103692476D01*
X112883889Y-103498952D01*
X112895984Y-103402190D01*
X112847603Y-103208666D01*
X112714556Y-103111904D01*
X112496841Y-103111904D01*
X112363794Y-103015142D01*
X112315413Y-102821619D01*
X112327508Y-102724857D01*
X112424270Y-102531333D01*
X112581508Y-102434571D01*
X112799222Y-102434571D01*
X112932270Y-102531333D01*
X113452365Y-102434571D02*
X114032937Y-102434571D01*
X113754746Y-101757238D02*
X113537032Y-103498952D01*
X113585413Y-103692476D01*
X113718460Y-103789238D01*
X113863603Y-103789238D01*
X115726270Y-101660476D02*
X114093413Y-104273047D01*
X115907699Y-103692476D02*
X116113318Y-103789238D01*
X116476175Y-103789238D01*
X116633413Y-103692476D01*
X116718080Y-103595714D01*
X116814841Y-103402190D01*
X116839032Y-103208666D01*
X116790651Y-103015142D01*
X116730175Y-102918380D01*
X116597127Y-102821619D01*
X116318937Y-102724857D01*
X116185889Y-102628095D01*
X116125413Y-102531333D01*
X116077032Y-102337809D01*
X116101222Y-102144285D01*
X116197984Y-101950761D01*
X116282651Y-101854000D01*
X116439889Y-101757238D01*
X116802746Y-101757238D01*
X117008365Y-101854000D01*
X118290460Y-103789238D02*
X117903413Y-102821619D01*
X117419603Y-103789238D02*
X117673603Y-101757238D01*
X118254175Y-101757238D01*
X118387222Y-101854000D01*
X118447699Y-101950761D01*
X118496080Y-102144285D01*
X118459794Y-102434571D01*
X118363032Y-102628095D01*
X118278365Y-102724857D01*
X118121127Y-102821619D01*
X117540556Y-102821619D01*
X118943603Y-103208666D02*
X119669318Y-103208666D01*
X118725889Y-103789238D02*
X119487889Y-101757238D01*
X119741889Y-103789238D01*
X120249889Y-103789238D02*
X120503889Y-101757238D01*
X120830460Y-103208666D01*
X121519889Y-101757238D01*
X121265889Y-103789238D01*
X123176937Y-102434571D02*
X123370460Y-103789238D01*
X123902651Y-102434571D01*
X124422746Y-101757238D02*
X125366175Y-101757238D01*
X124761413Y-102531333D01*
X124979127Y-102531333D01*
X125112175Y-102628095D01*
X125172651Y-102724857D01*
X125221032Y-102918380D01*
X125160556Y-103402190D01*
X125063794Y-103595714D01*
X124979127Y-103692476D01*
X124821889Y-103789238D01*
X124386460Y-103789238D01*
X124253413Y-103692476D01*
X124192937Y-103595714D01*
X86492080Y-106319320D02*
X87508080Y-106319320D01*
X86733984Y-107774619D02*
X86733984Y-106758619D01*
X86975889Y-106758619D01*
X87121032Y-106807000D01*
X87217794Y-106903761D01*
X87266175Y-107000523D01*
X87314556Y-107194047D01*
X87314556Y-107339190D01*
X87266175Y-107532714D01*
X87217794Y-107629476D01*
X87121032Y-107726238D01*
X86975889Y-107774619D01*
X86733984Y-107774619D01*
X87508080Y-106319320D02*
X88475699Y-106319320D01*
X87701603Y-107726238D02*
X87846746Y-107774619D01*
X88088651Y-107774619D01*
X88185413Y-107726238D01*
X88233794Y-107677857D01*
X88282175Y-107581095D01*
X88282175Y-107484333D01*
X88233794Y-107387571D01*
X88185413Y-107339190D01*
X88088651Y-107290809D01*
X87895127Y-107242428D01*
X87798365Y-107194047D01*
X87749984Y-107145666D01*
X87701603Y-107048904D01*
X87701603Y-106952142D01*
X87749984Y-106855380D01*
X87798365Y-106807000D01*
X87895127Y-106758619D01*
X88137032Y-106758619D01*
X88282175Y-106807000D01*
X86492080Y-108859320D02*
X87362937Y-108859320D01*
X86685603Y-110024333D02*
X87169413Y-110024333D01*
X86588841Y-110314619D02*
X86927508Y-109298619D01*
X87266175Y-110314619D01*
X87362937Y-108859320D02*
X88330556Y-108859320D01*
X87556460Y-110266238D02*
X87701603Y-110314619D01*
X87943508Y-110314619D01*
X88040270Y-110266238D01*
X88088651Y-110217857D01*
X88137032Y-110121095D01*
X88137032Y-110024333D01*
X88088651Y-109927571D01*
X88040270Y-109879190D01*
X87943508Y-109830809D01*
X87749984Y-109782428D01*
X87653222Y-109734047D01*
X87604841Y-109685666D01*
X87556460Y-109588904D01*
X87556460Y-109492142D01*
X87604841Y-109395380D01*
X87653222Y-109347000D01*
X87749984Y-109298619D01*
X87991889Y-109298619D01*
X88137032Y-109347000D01*
D13*
X86725729Y-112854619D02*
X86725729Y-111838619D01*
X87064396Y-112564333D01*
X87403063Y-111838619D01*
X87403063Y-112854619D01*
X87838491Y-112564333D02*
X88322301Y-112564333D01*
X87741729Y-112854619D02*
X88080396Y-111838619D01*
X88419063Y-112854619D01*
X88709348Y-112806238D02*
X88854491Y-112854619D01*
X89096396Y-112854619D01*
X89193158Y-112806238D01*
X89241539Y-112757857D01*
X89289920Y-112661095D01*
X89289920Y-112564333D01*
X89241539Y-112467571D01*
X89193158Y-112419190D01*
X89096396Y-112370809D01*
X88902872Y-112322428D01*
X88806110Y-112274047D01*
X88757729Y-112225666D01*
X88709348Y-112128904D01*
X88709348Y-112032142D01*
X88757729Y-111935380D01*
X88806110Y-111887000D01*
X88902872Y-111838619D01*
X89144777Y-111838619D01*
X89289920Y-111887000D01*
X89580205Y-111838619D02*
X90160777Y-111838619D01*
X89870491Y-112854619D02*
X89870491Y-111838619D01*
X90499444Y-112322428D02*
X90838110Y-112322428D01*
X90983253Y-112854619D02*
X90499444Y-112854619D01*
X90499444Y-111838619D01*
X90983253Y-111838619D01*
X91999253Y-112854619D02*
X91660586Y-112370809D01*
X91418682Y-112854619D02*
X91418682Y-111838619D01*
X91805729Y-111838619D01*
X91902491Y-111887000D01*
X91950872Y-111935380D01*
X91999253Y-112032142D01*
X91999253Y-112177285D01*
X91950872Y-112274047D01*
X91902491Y-112322428D01*
X91805729Y-112370809D01*
X91418682Y-112370809D01*
X93015253Y-112757857D02*
X92966872Y-112806238D01*
X92821729Y-112854619D01*
X92724967Y-112854619D01*
X92579825Y-112806238D01*
X92483063Y-112709476D01*
X92434682Y-112612714D01*
X92386301Y-112419190D01*
X92386301Y-112274047D01*
X92434682Y-112080523D01*
X92483063Y-111983761D01*
X92579825Y-111887000D01*
X92724967Y-111838619D01*
X92821729Y-111838619D01*
X92966872Y-111887000D01*
X93015253Y-111935380D01*
X93934491Y-112854619D02*
X93450682Y-112854619D01*
X93450682Y-111838619D01*
X94273158Y-112854619D02*
X94273158Y-111838619D01*
X94853729Y-112854619D02*
X94418301Y-112274047D01*
X94853729Y-111838619D02*
X94273158Y-112419190D01*
D12*
X86733984Y-115394619D02*
X86733984Y-114378619D01*
X87072651Y-115104333D01*
X87411318Y-114378619D01*
X87411318Y-115394619D01*
X87895127Y-115394619D02*
X87895127Y-114378619D01*
X88282175Y-114378619D01*
X88378937Y-114427000D01*
X88427318Y-114475380D01*
X88475699Y-114572142D01*
X88475699Y-114717285D01*
X88427318Y-114814047D01*
X88378937Y-114862428D01*
X88282175Y-114910809D01*
X87895127Y-114910809D01*
X88911127Y-114378619D02*
X88911127Y-115201095D01*
X88959508Y-115297857D01*
X89007889Y-115346238D01*
X89104651Y-115394619D01*
X89298175Y-115394619D01*
X89394937Y-115346238D01*
X89443318Y-115297857D01*
X89491699Y-115201095D01*
X89491699Y-114378619D01*
X90556080Y-115297857D02*
X90507699Y-115346238D01*
X90362556Y-115394619D01*
X90265794Y-115394619D01*
X90120651Y-115346238D01*
X90023889Y-115249476D01*
X89975508Y-115152714D01*
X89927127Y-114959190D01*
X89927127Y-114814047D01*
X89975508Y-114620523D01*
X90023889Y-114523761D01*
X90120651Y-114427000D01*
X90265794Y-114378619D01*
X90362556Y-114378619D01*
X90507699Y-114427000D01*
X90556080Y-114475380D01*
X91475318Y-115394619D02*
X90991508Y-115394619D01*
X90991508Y-114378619D01*
X91813984Y-115394619D02*
X91813984Y-114378619D01*
X92394556Y-115394619D02*
X91959127Y-114814047D01*
X92394556Y-114378619D02*
X91813984Y-114959190D01*
X86492080Y-116479320D02*
X87508080Y-116479320D01*
X87314556Y-117934619D02*
X86975889Y-117450809D01*
X86733984Y-117934619D02*
X86733984Y-116918619D01*
X87121032Y-116918619D01*
X87217794Y-116967000D01*
X87266175Y-117015380D01*
X87314556Y-117112142D01*
X87314556Y-117257285D01*
X87266175Y-117354047D01*
X87217794Y-117402428D01*
X87121032Y-117450809D01*
X86733984Y-117450809D01*
X87508080Y-116479320D02*
X88427318Y-116479320D01*
X87749984Y-117402428D02*
X88088651Y-117402428D01*
X88233794Y-117934619D02*
X87749984Y-117934619D01*
X87749984Y-116918619D01*
X88233794Y-116918619D01*
X88427318Y-116479320D02*
X89394937Y-116479320D01*
X88620841Y-117886238D02*
X88765984Y-117934619D01*
X89007889Y-117934619D01*
X89104651Y-117886238D01*
X89153032Y-117837857D01*
X89201413Y-117741095D01*
X89201413Y-117644333D01*
X89153032Y-117547571D01*
X89104651Y-117499190D01*
X89007889Y-117450809D01*
X88814365Y-117402428D01*
X88717603Y-117354047D01*
X88669222Y-117305666D01*
X88620841Y-117208904D01*
X88620841Y-117112142D01*
X88669222Y-117015380D01*
X88717603Y-116967000D01*
X88814365Y-116918619D01*
X89056270Y-116918619D01*
X89201413Y-116967000D01*
X89394937Y-116479320D02*
X90314175Y-116479320D01*
X89636841Y-117402428D02*
X89975508Y-117402428D01*
X90120651Y-117934619D02*
X89636841Y-117934619D01*
X89636841Y-116918619D01*
X90120651Y-116918619D01*
X90314175Y-116479320D02*
X91088270Y-116479320D01*
X90410937Y-116918619D02*
X90991508Y-116918619D01*
X90701222Y-117934619D02*
X90701222Y-116918619D01*
X86492080Y-119019320D02*
X86975889Y-119019320D01*
X86733984Y-120474619D02*
X86733984Y-119458619D01*
X86975889Y-119019320D02*
X88040270Y-119019320D01*
X87217794Y-120474619D02*
X87217794Y-119458619D01*
X87798365Y-120474619D01*
X87798365Y-119458619D01*
X88040270Y-119019320D02*
X88814365Y-119019320D01*
X88137032Y-119458619D02*
X88717603Y-119458619D01*
X88427318Y-120474619D02*
X88427318Y-119458619D01*
X86492080Y-121559320D02*
X87508080Y-121559320D01*
X87072651Y-122482428D02*
X87217794Y-122530809D01*
X87266175Y-122579190D01*
X87314556Y-122675952D01*
X87314556Y-122821095D01*
X87266175Y-122917857D01*
X87217794Y-122966238D01*
X87121032Y-123014619D01*
X86733984Y-123014619D01*
X86733984Y-121998619D01*
X87072651Y-121998619D01*
X87169413Y-122047000D01*
X87217794Y-122095380D01*
X87266175Y-122192142D01*
X87266175Y-122288904D01*
X87217794Y-122385666D01*
X87169413Y-122434047D01*
X87072651Y-122482428D01*
X86733984Y-122482428D01*
X87508080Y-121559320D02*
X88427318Y-121559320D01*
X87749984Y-122482428D02*
X88088651Y-122482428D01*
X88233794Y-123014619D02*
X87749984Y-123014619D01*
X87749984Y-121998619D01*
X88233794Y-121998619D01*
X88427318Y-121559320D02*
X89443318Y-121559320D01*
X89249794Y-123014619D02*
X88911127Y-122530809D01*
X88669222Y-123014619D02*
X88669222Y-121998619D01*
X89056270Y-121998619D01*
X89153032Y-122047000D01*
X89201413Y-122095380D01*
X89249794Y-122192142D01*
X89249794Y-122337285D01*
X89201413Y-122434047D01*
X89153032Y-122482428D01*
X89056270Y-122530809D01*
X88669222Y-122530809D01*
X89443318Y-121559320D02*
X90459318Y-121559320D01*
X90265794Y-123014619D02*
X89927127Y-122530809D01*
X89685222Y-123014619D02*
X89685222Y-121998619D01*
X90072270Y-121998619D01*
X90169032Y-122047000D01*
X90217413Y-122095380D01*
X90265794Y-122192142D01*
X90265794Y-122337285D01*
X90217413Y-122434047D01*
X90169032Y-122482428D01*
X90072270Y-122530809D01*
X89685222Y-122530809D01*
X86492080Y-124099320D02*
X87653222Y-124099320D01*
X86637222Y-124538619D02*
X86879127Y-125554619D01*
X87072651Y-124828904D01*
X87266175Y-125554619D01*
X87508080Y-124538619D01*
X87653222Y-124099320D02*
X88524080Y-124099320D01*
X87846746Y-125264333D02*
X88330556Y-125264333D01*
X87749984Y-125554619D02*
X88088651Y-124538619D01*
X88427318Y-125554619D01*
X88524080Y-124099320D02*
X89007889Y-124099320D01*
X88765984Y-125554619D02*
X88765984Y-124538619D01*
X89007889Y-124099320D02*
X89781984Y-124099320D01*
X89104651Y-124538619D02*
X89685222Y-124538619D01*
X89394937Y-125554619D02*
X89394937Y-124538619D01*
X86492080Y-126639320D02*
X87556460Y-126639320D01*
X86733984Y-127078619D02*
X86733984Y-127901095D01*
X86782365Y-127997857D01*
X86830746Y-128046238D01*
X86927508Y-128094619D01*
X87121032Y-128094619D01*
X87217794Y-128046238D01*
X87266175Y-127997857D01*
X87314556Y-127901095D01*
X87314556Y-127078619D01*
X87556460Y-126639320D02*
X88572460Y-126639320D01*
X88378937Y-127997857D02*
X88330556Y-128046238D01*
X88185413Y-128094619D01*
X88088651Y-128094619D01*
X87943508Y-128046238D01*
X87846746Y-127949476D01*
X87798365Y-127852714D01*
X87749984Y-127659190D01*
X87749984Y-127514047D01*
X87798365Y-127320523D01*
X87846746Y-127223761D01*
X87943508Y-127127000D01*
X88088651Y-127078619D01*
X88185413Y-127078619D01*
X88330556Y-127127000D01*
X88378937Y-127175380D01*
X88572460Y-126639320D02*
X89540080Y-126639320D01*
X88765984Y-128046238D02*
X88911127Y-128094619D01*
X89153032Y-128094619D01*
X89249794Y-128046238D01*
X89298175Y-127997857D01*
X89346556Y-127901095D01*
X89346556Y-127804333D01*
X89298175Y-127707571D01*
X89249794Y-127659190D01*
X89153032Y-127610809D01*
X88959508Y-127562428D01*
X88862746Y-127514047D01*
X88814365Y-127465666D01*
X88765984Y-127368904D01*
X88765984Y-127272142D01*
X88814365Y-127175380D01*
X88862746Y-127127000D01*
X88959508Y-127078619D01*
X89201413Y-127078619D01*
X89346556Y-127127000D01*
X86492080Y-129179320D02*
X87314556Y-129179320D01*
X87217794Y-130634619D02*
X86733984Y-130634619D01*
X86733984Y-129618619D01*
X87314556Y-129179320D02*
X88330556Y-129179320D01*
X88137032Y-130537857D02*
X88088651Y-130586238D01*
X87943508Y-130634619D01*
X87846746Y-130634619D01*
X87701603Y-130586238D01*
X87604841Y-130489476D01*
X87556460Y-130392714D01*
X87508080Y-130199190D01*
X87508080Y-130054047D01*
X87556460Y-129860523D01*
X87604841Y-129763761D01*
X87701603Y-129667000D01*
X87846746Y-129618619D01*
X87943508Y-129618619D01*
X88088651Y-129667000D01*
X88137032Y-129715380D01*
X88330556Y-129179320D02*
X89298175Y-129179320D01*
X88524080Y-130586238D02*
X88669222Y-130634619D01*
X88911127Y-130634619D01*
X89007889Y-130586238D01*
X89056270Y-130537857D01*
X89104651Y-130441095D01*
X89104651Y-130344333D01*
X89056270Y-130247571D01*
X89007889Y-130199190D01*
X88911127Y-130150809D01*
X88717603Y-130102428D01*
X88620841Y-130054047D01*
X88572460Y-130005666D01*
X88524080Y-129908904D01*
X88524080Y-129812142D01*
X88572460Y-129715380D01*
X88620841Y-129667000D01*
X88717603Y-129618619D01*
X88959508Y-129618619D01*
X89104651Y-129667000D01*
X86492080Y-131719320D02*
X87508080Y-131719320D01*
X87314556Y-133174619D02*
X86975889Y-132690809D01*
X86733984Y-133174619D02*
X86733984Y-132158619D01*
X87121032Y-132158619D01*
X87217794Y-132207000D01*
X87266175Y-132255380D01*
X87314556Y-132352142D01*
X87314556Y-132497285D01*
X87266175Y-132594047D01*
X87217794Y-132642428D01*
X87121032Y-132690809D01*
X86733984Y-132690809D01*
X87508080Y-131719320D02*
X88427318Y-131719320D01*
X87749984Y-132642428D02*
X88088651Y-132642428D01*
X88233794Y-133174619D02*
X87749984Y-133174619D01*
X87749984Y-132158619D01*
X88233794Y-132158619D01*
X88427318Y-131719320D02*
X89298175Y-131719320D01*
X88620841Y-132884333D02*
X89104651Y-132884333D01*
X88524080Y-133174619D02*
X88862746Y-132158619D01*
X89201413Y-133174619D01*
X89298175Y-131719320D02*
X90314175Y-131719320D01*
X89540080Y-133174619D02*
X89540080Y-132158619D01*
X89781984Y-132158619D01*
X89927127Y-132207000D01*
X90023889Y-132303761D01*
X90072270Y-132400523D01*
X90120651Y-132594047D01*
X90120651Y-132739190D01*
X90072270Y-132932714D01*
X90023889Y-133029476D01*
X89927127Y-133126238D01*
X89781984Y-133174619D01*
X89540080Y-133174619D01*
X86492080Y-134259320D02*
X87653222Y-134259320D01*
X86637222Y-134698619D02*
X86879127Y-135714619D01*
X87072651Y-134988904D01*
X87266175Y-135714619D01*
X87508080Y-134698619D01*
X87653222Y-134259320D02*
X88669222Y-134259320D01*
X88475699Y-135714619D02*
X88137032Y-135230809D01*
X87895127Y-135714619D02*
X87895127Y-134698619D01*
X88282175Y-134698619D01*
X88378937Y-134747000D01*
X88427318Y-134795380D01*
X88475699Y-134892142D01*
X88475699Y-135037285D01*
X88427318Y-135134047D01*
X88378937Y-135182428D01*
X88282175Y-135230809D01*
X87895127Y-135230809D01*
X88669222Y-134259320D02*
X89153032Y-134259320D01*
X88911127Y-135714619D02*
X88911127Y-134698619D01*
X89153032Y-134259320D02*
X89927127Y-134259320D01*
X89249794Y-134698619D02*
X89830365Y-134698619D01*
X89540080Y-135714619D02*
X89540080Y-134698619D01*
X89927127Y-134259320D02*
X90846365Y-134259320D01*
X90169032Y-135182428D02*
X90507699Y-135182428D01*
X90652841Y-135714619D02*
X90169032Y-135714619D01*
X90169032Y-134698619D01*
X90652841Y-134698619D01*
X87314556Y-138254619D02*
X86975889Y-137770809D01*
X86733984Y-138254619D02*
X86733984Y-137238619D01*
X87121032Y-137238619D01*
X87217794Y-137287000D01*
X87266175Y-137335380D01*
X87314556Y-137432142D01*
X87314556Y-137577285D01*
X87266175Y-137674047D01*
X87217794Y-137722428D01*
X87121032Y-137770809D01*
X86733984Y-137770809D01*
X87508080Y-136799320D02*
X88669222Y-136799320D01*
X87653222Y-137238619D02*
X87895127Y-138254619D01*
X88088651Y-137528904D01*
X88282175Y-138254619D01*
X88524080Y-137238619D01*
X86685603Y-140746238D02*
X86830746Y-140794619D01*
X87072651Y-140794619D01*
X87169413Y-140746238D01*
X87217794Y-140697857D01*
X87266175Y-140601095D01*
X87266175Y-140504333D01*
X87217794Y-140407571D01*
X87169413Y-140359190D01*
X87072651Y-140310809D01*
X86879127Y-140262428D01*
X86782365Y-140214047D01*
X86733984Y-140165666D01*
X86685603Y-140068904D01*
X86685603Y-139972142D01*
X86733984Y-139875380D01*
X86782365Y-139827000D01*
X86879127Y-139778619D01*
X87121032Y-139778619D01*
X87266175Y-139827000D01*
X88282175Y-140697857D02*
X88233794Y-140746238D01*
X88088651Y-140794619D01*
X87991889Y-140794619D01*
X87846746Y-140746238D01*
X87749984Y-140649476D01*
X87701603Y-140552714D01*
X87653222Y-140359190D01*
X87653222Y-140214047D01*
X87701603Y-140020523D01*
X87749984Y-139923761D01*
X87846746Y-139827000D01*
X87991889Y-139778619D01*
X88088651Y-139778619D01*
X88233794Y-139827000D01*
X88282175Y-139875380D01*
X89201413Y-140794619D02*
X88717603Y-140794619D01*
X88717603Y-139778619D01*
X86685603Y-143286238D02*
X86830746Y-143334619D01*
X87072651Y-143334619D01*
X87169413Y-143286238D01*
X87217794Y-143237857D01*
X87266175Y-143141095D01*
X87266175Y-143044333D01*
X87217794Y-142947571D01*
X87169413Y-142899190D01*
X87072651Y-142850809D01*
X86879127Y-142802428D01*
X86782365Y-142754047D01*
X86733984Y-142705666D01*
X86685603Y-142608904D01*
X86685603Y-142512142D01*
X86733984Y-142415380D01*
X86782365Y-142367000D01*
X86879127Y-142318619D01*
X87121032Y-142318619D01*
X87266175Y-142367000D01*
X87701603Y-143334619D02*
X87701603Y-142318619D01*
X87943508Y-142318619D01*
X88088651Y-142367000D01*
X88185413Y-142463761D01*
X88233794Y-142560523D01*
X88282175Y-142754047D01*
X88282175Y-142899190D01*
X88233794Y-143092714D01*
X88185413Y-143189476D01*
X88088651Y-143286238D01*
X87943508Y-143334619D01*
X87701603Y-143334619D01*
X88669222Y-143044333D02*
X89153032Y-143044333D01*
X88572460Y-143334619D02*
X88911127Y-142318619D01*
X89249794Y-143334619D01*
D14*
X158682857Y-128948571D02*
X157968571Y-128948571D01*
X157968571Y-127448571D01*
X159468571Y-127448571D02*
X159754285Y-127448571D01*
X159897142Y-127520000D01*
X160040000Y-127662857D01*
X160111428Y-127948571D01*
X160111428Y-128448571D01*
X160040000Y-128734285D01*
X159897142Y-128877142D01*
X159754285Y-128948571D01*
X159468571Y-128948571D01*
X159325714Y-128877142D01*
X159182857Y-128734285D01*
X159111428Y-128448571D01*
X159111428Y-127948571D01*
X159182857Y-127662857D01*
X159325714Y-127520000D01*
X159468571Y-127448571D01*
X160611428Y-127448571D02*
X160968571Y-128948571D01*
X161254285Y-127877142D01*
X161540000Y-128948571D01*
X161897142Y-127448571D01*
X162468571Y-128162857D02*
X162968571Y-128162857D01*
X163182857Y-128948571D02*
X162468571Y-128948571D01*
X162468571Y-127448571D01*
X163182857Y-127448571D01*
X164682857Y-128948571D02*
X164182857Y-128234285D01*
X163825714Y-128948571D02*
X163825714Y-127448571D01*
X164397142Y-127448571D01*
X164540000Y-127520000D01*
X164611428Y-127591428D01*
X164682857Y-127734285D01*
X164682857Y-127948571D01*
X164611428Y-128091428D01*
X164540000Y-128162857D01*
X164397142Y-128234285D01*
X163825714Y-128234285D01*
X143327857Y-127448571D02*
X143327857Y-128662857D01*
X143399285Y-128805714D01*
X143470714Y-128877142D01*
X143613571Y-128948571D01*
X143899285Y-128948571D01*
X144042142Y-128877142D01*
X144113571Y-128805714D01*
X144185000Y-128662857D01*
X144185000Y-127448571D01*
X144899285Y-128948571D02*
X144899285Y-127448571D01*
X145470714Y-127448571D01*
X145613571Y-127520000D01*
X145685000Y-127591428D01*
X145756428Y-127734285D01*
X145756428Y-127948571D01*
X145685000Y-128091428D01*
X145613571Y-128162857D01*
X145470714Y-128234285D01*
X144899285Y-128234285D01*
X146399285Y-128948571D02*
X146399285Y-127448571D01*
X146970714Y-127448571D01*
X147113571Y-127520000D01*
X147185000Y-127591428D01*
X147256428Y-127734285D01*
X147256428Y-127948571D01*
X147185000Y-128091428D01*
X147113571Y-128162857D01*
X146970714Y-128234285D01*
X146399285Y-128234285D01*
X147899285Y-128162857D02*
X148399285Y-128162857D01*
X148613571Y-128948571D02*
X147899285Y-128948571D01*
X147899285Y-127448571D01*
X148613571Y-127448571D01*
X150113571Y-128948571D02*
X149613571Y-128234285D01*
X149256428Y-128948571D02*
X149256428Y-127448571D01*
X149827857Y-127448571D01*
X149970714Y-127520000D01*
X150042142Y-127591428D01*
X150113571Y-127734285D01*
X150113571Y-127948571D01*
X150042142Y-128091428D01*
X149970714Y-128162857D01*
X149827857Y-128234285D01*
X149256428Y-128234285D01*
D12*
X150954619Y-134246015D02*
X149938619Y-134246015D01*
X149938619Y-134004110D01*
X149987000Y-133858967D01*
X150083761Y-133762205D01*
X150180523Y-133713824D01*
X150374047Y-133665443D01*
X150519190Y-133665443D01*
X150712714Y-133713824D01*
X150809476Y-133762205D01*
X150906238Y-133858967D01*
X150954619Y-134004110D01*
X150954619Y-134246015D01*
X149938619Y-133326777D02*
X149938619Y-132697824D01*
X150325666Y-133036491D01*
X150325666Y-132891348D01*
X150374047Y-132794586D01*
X150422428Y-132746205D01*
X150519190Y-132697824D01*
X150761095Y-132697824D01*
X150857857Y-132746205D01*
X150906238Y-132794586D01*
X150954619Y-132891348D01*
X150954619Y-133181634D01*
X150906238Y-133278396D01*
X150857857Y-133326777D01*
X150954619Y-131730205D02*
X150954619Y-132310777D01*
X150954619Y-132020491D02*
X149938619Y-132020491D01*
X150083761Y-132117253D01*
X150180523Y-132214015D01*
X150228904Y-132310777D01*
X153494619Y-134246015D02*
X152478619Y-134246015D01*
X152478619Y-134004110D01*
X152527000Y-133858967D01*
X152623761Y-133762205D01*
X152720523Y-133713824D01*
X152914047Y-133665443D01*
X153059190Y-133665443D01*
X153252714Y-133713824D01*
X153349476Y-133762205D01*
X153446238Y-133858967D01*
X153494619Y-134004110D01*
X153494619Y-134246015D01*
X152575380Y-133278396D02*
X152527000Y-133230015D01*
X152478619Y-133133253D01*
X152478619Y-132891348D01*
X152527000Y-132794586D01*
X152575380Y-132746205D01*
X152672142Y-132697824D01*
X152768904Y-132697824D01*
X152914047Y-132746205D01*
X153494619Y-133326777D01*
X153494619Y-132697824D01*
X153494619Y-132214015D02*
X153494619Y-132020491D01*
X153446238Y-131923729D01*
X153397857Y-131875348D01*
X153252714Y-131778586D01*
X153059190Y-131730205D01*
X152672142Y-131730205D01*
X152575380Y-131778586D01*
X152527000Y-131826967D01*
X152478619Y-131923729D01*
X152478619Y-132117253D01*
X152527000Y-132214015D01*
X152575380Y-132262396D01*
X152672142Y-132310777D01*
X152914047Y-132310777D01*
X153010809Y-132262396D01*
X153059190Y-132214015D01*
X153107571Y-132117253D01*
X153107571Y-131923729D01*
X153059190Y-131826967D01*
X153010809Y-131778586D01*
X152914047Y-131730205D01*
X156034619Y-134246015D02*
X155018619Y-134246015D01*
X155018619Y-134004110D01*
X155067000Y-133858967D01*
X155163761Y-133762205D01*
X155260523Y-133713824D01*
X155454047Y-133665443D01*
X155599190Y-133665443D01*
X155792714Y-133713824D01*
X155889476Y-133762205D01*
X155986238Y-133858967D01*
X156034619Y-134004110D01*
X156034619Y-134246015D01*
X155115380Y-133278396D02*
X155067000Y-133230015D01*
X155018619Y-133133253D01*
X155018619Y-132891348D01*
X155067000Y-132794586D01*
X155115380Y-132746205D01*
X155212142Y-132697824D01*
X155308904Y-132697824D01*
X155454047Y-132746205D01*
X156034619Y-133326777D01*
X156034619Y-132697824D01*
X155018619Y-132359158D02*
X155018619Y-131681824D01*
X156034619Y-132117253D01*
X158574619Y-134246015D02*
X157558619Y-134246015D01*
X157558619Y-134004110D01*
X157607000Y-133858967D01*
X157703761Y-133762205D01*
X157800523Y-133713824D01*
X157994047Y-133665443D01*
X158139190Y-133665443D01*
X158332714Y-133713824D01*
X158429476Y-133762205D01*
X158526238Y-133858967D01*
X158574619Y-134004110D01*
X158574619Y-134246015D01*
X157655380Y-133278396D02*
X157607000Y-133230015D01*
X157558619Y-133133253D01*
X157558619Y-132891348D01*
X157607000Y-132794586D01*
X157655380Y-132746205D01*
X157752142Y-132697824D01*
X157848904Y-132697824D01*
X157994047Y-132746205D01*
X158574619Y-133326777D01*
X158574619Y-132697824D01*
X157558619Y-131778586D02*
X157558619Y-132262396D01*
X158042428Y-132310777D01*
X157994047Y-132262396D01*
X157945666Y-132165634D01*
X157945666Y-131923729D01*
X157994047Y-131826967D01*
X158042428Y-131778586D01*
X158139190Y-131730205D01*
X158381095Y-131730205D01*
X158477857Y-131778586D01*
X158526238Y-131826967D01*
X158574619Y-131923729D01*
X158574619Y-132165634D01*
X158526238Y-132262396D01*
X158477857Y-132310777D01*
X161114619Y-134246015D02*
X160098619Y-134246015D01*
X160098619Y-134004110D01*
X160147000Y-133858967D01*
X160243761Y-133762205D01*
X160340523Y-133713824D01*
X160534047Y-133665443D01*
X160679190Y-133665443D01*
X160872714Y-133713824D01*
X160969476Y-133762205D01*
X161066238Y-133858967D01*
X161114619Y-134004110D01*
X161114619Y-134246015D01*
X160195380Y-133278396D02*
X160147000Y-133230015D01*
X160098619Y-133133253D01*
X160098619Y-132891348D01*
X160147000Y-132794586D01*
X160195380Y-132746205D01*
X160292142Y-132697824D01*
X160388904Y-132697824D01*
X160534047Y-132746205D01*
X161114619Y-133326777D01*
X161114619Y-132697824D01*
X160098619Y-132359158D02*
X160098619Y-131730205D01*
X160485666Y-132068872D01*
X160485666Y-131923729D01*
X160534047Y-131826967D01*
X160582428Y-131778586D01*
X160679190Y-131730205D01*
X160921095Y-131730205D01*
X161017857Y-131778586D01*
X161066238Y-131826967D01*
X161114619Y-131923729D01*
X161114619Y-132214015D01*
X161066238Y-132310777D01*
X161017857Y-132359158D01*
X163654619Y-134246015D02*
X162638619Y-134246015D01*
X162638619Y-134004110D01*
X162687000Y-133858967D01*
X162783761Y-133762205D01*
X162880523Y-133713824D01*
X163074047Y-133665443D01*
X163219190Y-133665443D01*
X163412714Y-133713824D01*
X163509476Y-133762205D01*
X163606238Y-133858967D01*
X163654619Y-134004110D01*
X163654619Y-134246015D01*
X162735380Y-133278396D02*
X162687000Y-133230015D01*
X162638619Y-133133253D01*
X162638619Y-132891348D01*
X162687000Y-132794586D01*
X162735380Y-132746205D01*
X162832142Y-132697824D01*
X162928904Y-132697824D01*
X163074047Y-132746205D01*
X163654619Y-133326777D01*
X163654619Y-132697824D01*
X163654619Y-131730205D02*
X163654619Y-132310777D01*
X163654619Y-132020491D02*
X162638619Y-132020491D01*
X162783761Y-132117253D01*
X162880523Y-132214015D01*
X162928904Y-132310777D01*
X166194619Y-134246015D02*
X165178619Y-134246015D01*
X165178619Y-134004110D01*
X165227000Y-133858967D01*
X165323761Y-133762205D01*
X165420523Y-133713824D01*
X165614047Y-133665443D01*
X165759190Y-133665443D01*
X165952714Y-133713824D01*
X166049476Y-133762205D01*
X166146238Y-133858967D01*
X166194619Y-134004110D01*
X166194619Y-134246015D01*
X166194619Y-132697824D02*
X166194619Y-133278396D01*
X166194619Y-132988110D02*
X165178619Y-132988110D01*
X165323761Y-133084872D01*
X165420523Y-133181634D01*
X165468904Y-133278396D01*
X166194619Y-132214015D02*
X166194619Y-132020491D01*
X166146238Y-131923729D01*
X166097857Y-131875348D01*
X165952714Y-131778586D01*
X165759190Y-131730205D01*
X165372142Y-131730205D01*
X165275380Y-131778586D01*
X165227000Y-131826967D01*
X165178619Y-131923729D01*
X165178619Y-132117253D01*
X165227000Y-132214015D01*
X165275380Y-132262396D01*
X165372142Y-132310777D01*
X165614047Y-132310777D01*
X165710809Y-132262396D01*
X165759190Y-132214015D01*
X165807571Y-132117253D01*
X165807571Y-131923729D01*
X165759190Y-131826967D01*
X165710809Y-131778586D01*
X165614047Y-131730205D01*
X168734619Y-134246015D02*
X167718619Y-134246015D01*
X167718619Y-134004110D01*
X167767000Y-133858967D01*
X167863761Y-133762205D01*
X167960523Y-133713824D01*
X168154047Y-133665443D01*
X168299190Y-133665443D01*
X168492714Y-133713824D01*
X168589476Y-133762205D01*
X168686238Y-133858967D01*
X168734619Y-134004110D01*
X168734619Y-134246015D01*
X168734619Y-132697824D02*
X168734619Y-133278396D01*
X168734619Y-132988110D02*
X167718619Y-132988110D01*
X167863761Y-133084872D01*
X167960523Y-133181634D01*
X168008904Y-133278396D01*
X167718619Y-132359158D02*
X167718619Y-131681824D01*
X168734619Y-132117253D01*
X168734619Y-143176413D02*
X167718619Y-143176413D01*
X167718619Y-142934508D01*
X167767000Y-142789365D01*
X167863761Y-142692603D01*
X167960523Y-142644222D01*
X168154047Y-142595841D01*
X168299190Y-142595841D01*
X168492714Y-142644222D01*
X168589476Y-142692603D01*
X168686238Y-142789365D01*
X168734619Y-142934508D01*
X168734619Y-143176413D01*
X168734619Y-141628222D02*
X168734619Y-142208794D01*
X168734619Y-141918508D02*
X167718619Y-141918508D01*
X167863761Y-142015270D01*
X167960523Y-142112032D01*
X168008904Y-142208794D01*
X167718619Y-140757365D02*
X167718619Y-140950889D01*
X167767000Y-141047651D01*
X167815380Y-141096032D01*
X167960523Y-141192794D01*
X168154047Y-141241175D01*
X168541095Y-141241175D01*
X168637857Y-141192794D01*
X168686238Y-141144413D01*
X168734619Y-141047651D01*
X168734619Y-140854127D01*
X168686238Y-140757365D01*
X168637857Y-140708984D01*
X168541095Y-140660603D01*
X168299190Y-140660603D01*
X168202428Y-140708984D01*
X168154047Y-140757365D01*
X168105666Y-140854127D01*
X168105666Y-141047651D01*
X168154047Y-141144413D01*
X168202428Y-141192794D01*
X168299190Y-141241175D01*
X166194619Y-143176413D02*
X165178619Y-143176413D01*
X165178619Y-142934508D01*
X165227000Y-142789365D01*
X165323761Y-142692603D01*
X165420523Y-142644222D01*
X165614047Y-142595841D01*
X165759190Y-142595841D01*
X165952714Y-142644222D01*
X166049476Y-142692603D01*
X166146238Y-142789365D01*
X166194619Y-142934508D01*
X166194619Y-143176413D01*
X166194619Y-141628222D02*
X166194619Y-142208794D01*
X166194619Y-141918508D02*
X165178619Y-141918508D01*
X165323761Y-142015270D01*
X165420523Y-142112032D01*
X165468904Y-142208794D01*
X165614047Y-141047651D02*
X165565666Y-141144413D01*
X165517285Y-141192794D01*
X165420523Y-141241175D01*
X165372142Y-141241175D01*
X165275380Y-141192794D01*
X165227000Y-141144413D01*
X165178619Y-141047651D01*
X165178619Y-140854127D01*
X165227000Y-140757365D01*
X165275380Y-140708984D01*
X165372142Y-140660603D01*
X165420523Y-140660603D01*
X165517285Y-140708984D01*
X165565666Y-140757365D01*
X165614047Y-140854127D01*
X165614047Y-141047651D01*
X165662428Y-141144413D01*
X165710809Y-141192794D01*
X165807571Y-141241175D01*
X166001095Y-141241175D01*
X166097857Y-141192794D01*
X166146238Y-141144413D01*
X166194619Y-141047651D01*
X166194619Y-140854127D01*
X166146238Y-140757365D01*
X166097857Y-140708984D01*
X166001095Y-140660603D01*
X165807571Y-140660603D01*
X165710809Y-140708984D01*
X165662428Y-140757365D01*
X165614047Y-140854127D01*
X163654619Y-143176413D02*
X162638619Y-143176413D01*
X162638619Y-142934508D01*
X162687000Y-142789365D01*
X162783761Y-142692603D01*
X162880523Y-142644222D01*
X163074047Y-142595841D01*
X163219190Y-142595841D01*
X163412714Y-142644222D01*
X163509476Y-142692603D01*
X163606238Y-142789365D01*
X163654619Y-142934508D01*
X163654619Y-143176413D01*
X162735380Y-142208794D02*
X162687000Y-142160413D01*
X162638619Y-142063651D01*
X162638619Y-141821746D01*
X162687000Y-141724984D01*
X162735380Y-141676603D01*
X162832142Y-141628222D01*
X162928904Y-141628222D01*
X163074047Y-141676603D01*
X163654619Y-142257175D01*
X163654619Y-141628222D01*
X162638619Y-140999270D02*
X162638619Y-140902508D01*
X162687000Y-140805746D01*
X162735380Y-140757365D01*
X162832142Y-140708984D01*
X163025666Y-140660603D01*
X163267571Y-140660603D01*
X163461095Y-140708984D01*
X163557857Y-140757365D01*
X163606238Y-140805746D01*
X163654619Y-140902508D01*
X163654619Y-140999270D01*
X163606238Y-141096032D01*
X163557857Y-141144413D01*
X163461095Y-141192794D01*
X163267571Y-141241175D01*
X163025666Y-141241175D01*
X162832142Y-141192794D01*
X162735380Y-141144413D01*
X162687000Y-141096032D01*
X162638619Y-140999270D01*
X161114619Y-143176413D02*
X160098619Y-143176413D01*
X160098619Y-142934508D01*
X160147000Y-142789365D01*
X160243761Y-142692603D01*
X160340523Y-142644222D01*
X160534047Y-142595841D01*
X160679190Y-142595841D01*
X160872714Y-142644222D01*
X160969476Y-142692603D01*
X161066238Y-142789365D01*
X161114619Y-142934508D01*
X161114619Y-143176413D01*
X160195380Y-142208794D02*
X160147000Y-142160413D01*
X160098619Y-142063651D01*
X160098619Y-141821746D01*
X160147000Y-141724984D01*
X160195380Y-141676603D01*
X160292142Y-141628222D01*
X160388904Y-141628222D01*
X160534047Y-141676603D01*
X161114619Y-142257175D01*
X161114619Y-141628222D01*
X160195380Y-141241175D02*
X160147000Y-141192794D01*
X160098619Y-141096032D01*
X160098619Y-140854127D01*
X160147000Y-140757365D01*
X160195380Y-140708984D01*
X160292142Y-140660603D01*
X160388904Y-140660603D01*
X160534047Y-140708984D01*
X161114619Y-141289556D01*
X161114619Y-140660603D01*
X158574619Y-143176413D02*
X157558619Y-143176413D01*
X157558619Y-142934508D01*
X157607000Y-142789365D01*
X157703761Y-142692603D01*
X157800523Y-142644222D01*
X157994047Y-142595841D01*
X158139190Y-142595841D01*
X158332714Y-142644222D01*
X158429476Y-142692603D01*
X158526238Y-142789365D01*
X158574619Y-142934508D01*
X158574619Y-143176413D01*
X157655380Y-142208794D02*
X157607000Y-142160413D01*
X157558619Y-142063651D01*
X157558619Y-141821746D01*
X157607000Y-141724984D01*
X157655380Y-141676603D01*
X157752142Y-141628222D01*
X157848904Y-141628222D01*
X157994047Y-141676603D01*
X158574619Y-142257175D01*
X158574619Y-141628222D01*
X157897285Y-140757365D02*
X158574619Y-140757365D01*
X157510238Y-140999270D02*
X158235952Y-141241175D01*
X158235952Y-140612222D01*
X156034619Y-143176413D02*
X155018619Y-143176413D01*
X155018619Y-142934508D01*
X155067000Y-142789365D01*
X155163761Y-142692603D01*
X155260523Y-142644222D01*
X155454047Y-142595841D01*
X155599190Y-142595841D01*
X155792714Y-142644222D01*
X155889476Y-142692603D01*
X155986238Y-142789365D01*
X156034619Y-142934508D01*
X156034619Y-143176413D01*
X155115380Y-142208794D02*
X155067000Y-142160413D01*
X155018619Y-142063651D01*
X155018619Y-141821746D01*
X155067000Y-141724984D01*
X155115380Y-141676603D01*
X155212142Y-141628222D01*
X155308904Y-141628222D01*
X155454047Y-141676603D01*
X156034619Y-142257175D01*
X156034619Y-141628222D01*
X155018619Y-140757365D02*
X155018619Y-140950889D01*
X155067000Y-141047651D01*
X155115380Y-141096032D01*
X155260523Y-141192794D01*
X155454047Y-141241175D01*
X155841095Y-141241175D01*
X155937857Y-141192794D01*
X155986238Y-141144413D01*
X156034619Y-141047651D01*
X156034619Y-140854127D01*
X155986238Y-140757365D01*
X155937857Y-140708984D01*
X155841095Y-140660603D01*
X155599190Y-140660603D01*
X155502428Y-140708984D01*
X155454047Y-140757365D01*
X155405666Y-140854127D01*
X155405666Y-141047651D01*
X155454047Y-141144413D01*
X155502428Y-141192794D01*
X155599190Y-141241175D01*
X153494619Y-143176413D02*
X152478619Y-143176413D01*
X152478619Y-142934508D01*
X152527000Y-142789365D01*
X152623761Y-142692603D01*
X152720523Y-142644222D01*
X152914047Y-142595841D01*
X153059190Y-142595841D01*
X153252714Y-142644222D01*
X153349476Y-142692603D01*
X153446238Y-142789365D01*
X153494619Y-142934508D01*
X153494619Y-143176413D01*
X152575380Y-142208794D02*
X152527000Y-142160413D01*
X152478619Y-142063651D01*
X152478619Y-141821746D01*
X152527000Y-141724984D01*
X152575380Y-141676603D01*
X152672142Y-141628222D01*
X152768904Y-141628222D01*
X152914047Y-141676603D01*
X153494619Y-142257175D01*
X153494619Y-141628222D01*
X152914047Y-141047651D02*
X152865666Y-141144413D01*
X152817285Y-141192794D01*
X152720523Y-141241175D01*
X152672142Y-141241175D01*
X152575380Y-141192794D01*
X152527000Y-141144413D01*
X152478619Y-141047651D01*
X152478619Y-140854127D01*
X152527000Y-140757365D01*
X152575380Y-140708984D01*
X152672142Y-140660603D01*
X152720523Y-140660603D01*
X152817285Y-140708984D01*
X152865666Y-140757365D01*
X152914047Y-140854127D01*
X152914047Y-141047651D01*
X152962428Y-141144413D01*
X153010809Y-141192794D01*
X153107571Y-141241175D01*
X153301095Y-141241175D01*
X153397857Y-141192794D01*
X153446238Y-141144413D01*
X153494619Y-141047651D01*
X153494619Y-140854127D01*
X153446238Y-140757365D01*
X153397857Y-140708984D01*
X153301095Y-140660603D01*
X153107571Y-140660603D01*
X153010809Y-140708984D01*
X152962428Y-140757365D01*
X152914047Y-140854127D01*
X150954619Y-143176413D02*
X149938619Y-143176413D01*
X149938619Y-142934508D01*
X149987000Y-142789365D01*
X150083761Y-142692603D01*
X150180523Y-142644222D01*
X150374047Y-142595841D01*
X150519190Y-142595841D01*
X150712714Y-142644222D01*
X150809476Y-142692603D01*
X150906238Y-142789365D01*
X150954619Y-142934508D01*
X150954619Y-143176413D01*
X149938619Y-142257175D02*
X149938619Y-141628222D01*
X150325666Y-141966889D01*
X150325666Y-141821746D01*
X150374047Y-141724984D01*
X150422428Y-141676603D01*
X150519190Y-141628222D01*
X150761095Y-141628222D01*
X150857857Y-141676603D01*
X150906238Y-141724984D01*
X150954619Y-141821746D01*
X150954619Y-142112032D01*
X150906238Y-142208794D01*
X150857857Y-142257175D01*
X149938619Y-140999270D02*
X149938619Y-140902508D01*
X149987000Y-140805746D01*
X150035380Y-140757365D01*
X150132142Y-140708984D01*
X150325666Y-140660603D01*
X150567571Y-140660603D01*
X150761095Y-140708984D01*
X150857857Y-140757365D01*
X150906238Y-140805746D01*
X150954619Y-140902508D01*
X150954619Y-140999270D01*
X150906238Y-141096032D01*
X150857857Y-141144413D01*
X150761095Y-141192794D01*
X150567571Y-141241175D01*
X150325666Y-141241175D01*
X150132142Y-141192794D01*
X150035380Y-141144413D01*
X149987000Y-141096032D01*
X149938619Y-140999270D01*
X140504333Y-142747032D02*
X140504333Y-142263222D01*
X140794619Y-142843794D02*
X139778619Y-142505127D01*
X140794619Y-142166460D01*
X139778619Y-141634270D02*
X139778619Y-141537508D01*
X139827000Y-141440746D01*
X139875380Y-141392365D01*
X139972142Y-141343984D01*
X140165666Y-141295603D01*
X140407571Y-141295603D01*
X140601095Y-141343984D01*
X140697857Y-141392365D01*
X140746238Y-141440746D01*
X140794619Y-141537508D01*
X140794619Y-141634270D01*
X140746238Y-141731032D01*
X140697857Y-141779413D01*
X140601095Y-141827794D01*
X140407571Y-141876175D01*
X140165666Y-141876175D01*
X139972142Y-141827794D01*
X139875380Y-141779413D01*
X139827000Y-141731032D01*
X139778619Y-141634270D01*
X137964333Y-142747032D02*
X137964333Y-142263222D01*
X138254619Y-142843794D02*
X137238619Y-142505127D01*
X138254619Y-142166460D01*
X137335380Y-141876175D02*
X137287000Y-141827794D01*
X137238619Y-141731032D01*
X137238619Y-141489127D01*
X137287000Y-141392365D01*
X137335380Y-141343984D01*
X137432142Y-141295603D01*
X137528904Y-141295603D01*
X137674047Y-141343984D01*
X138254619Y-141924556D01*
X138254619Y-141295603D01*
X135424333Y-142747032D02*
X135424333Y-142263222D01*
X135714619Y-142843794D02*
X134698619Y-142505127D01*
X135714619Y-142166460D01*
X135037285Y-141392365D02*
X135714619Y-141392365D01*
X134650238Y-141634270D02*
X135375952Y-141876175D01*
X135375952Y-141247222D01*
X132884333Y-142747032D02*
X132884333Y-142263222D01*
X133174619Y-142843794D02*
X132158619Y-142505127D01*
X133174619Y-142166460D01*
X132158619Y-141392365D02*
X132158619Y-141585889D01*
X132207000Y-141682651D01*
X132255380Y-141731032D01*
X132400523Y-141827794D01*
X132594047Y-141876175D01*
X132981095Y-141876175D01*
X133077857Y-141827794D01*
X133126238Y-141779413D01*
X133174619Y-141682651D01*
X133174619Y-141489127D01*
X133126238Y-141392365D01*
X133077857Y-141343984D01*
X132981095Y-141295603D01*
X132739190Y-141295603D01*
X132642428Y-141343984D01*
X132594047Y-141392365D01*
X132545666Y-141489127D01*
X132545666Y-141682651D01*
X132594047Y-141779413D01*
X132642428Y-141827794D01*
X132739190Y-141876175D01*
X130344333Y-142747032D02*
X130344333Y-142263222D01*
X130634619Y-142843794D02*
X129618619Y-142505127D01*
X130634619Y-142166460D01*
X130054047Y-141682651D02*
X130005666Y-141779413D01*
X129957285Y-141827794D01*
X129860523Y-141876175D01*
X129812142Y-141876175D01*
X129715380Y-141827794D01*
X129667000Y-141779413D01*
X129618619Y-141682651D01*
X129618619Y-141489127D01*
X129667000Y-141392365D01*
X129715380Y-141343984D01*
X129812142Y-141295603D01*
X129860523Y-141295603D01*
X129957285Y-141343984D01*
X130005666Y-141392365D01*
X130054047Y-141489127D01*
X130054047Y-141682651D01*
X130102428Y-141779413D01*
X130150809Y-141827794D01*
X130247571Y-141876175D01*
X130441095Y-141876175D01*
X130537857Y-141827794D01*
X130586238Y-141779413D01*
X130634619Y-141682651D01*
X130634619Y-141489127D01*
X130586238Y-141392365D01*
X130537857Y-141343984D01*
X130441095Y-141295603D01*
X130247571Y-141295603D01*
X130150809Y-141343984D01*
X130102428Y-141392365D01*
X130054047Y-141489127D01*
X127804333Y-143714651D02*
X127804333Y-143230841D01*
X128094619Y-143811413D02*
X127078619Y-143472746D01*
X128094619Y-143134080D01*
X128094619Y-142263222D02*
X128094619Y-142843794D01*
X128094619Y-142553508D02*
X127078619Y-142553508D01*
X127223761Y-142650270D01*
X127320523Y-142747032D01*
X127368904Y-142843794D01*
X127078619Y-141634270D02*
X127078619Y-141537508D01*
X127127000Y-141440746D01*
X127175380Y-141392365D01*
X127272142Y-141343984D01*
X127465666Y-141295603D01*
X127707571Y-141295603D01*
X127901095Y-141343984D01*
X127997857Y-141392365D01*
X128046238Y-141440746D01*
X128094619Y-141537508D01*
X128094619Y-141634270D01*
X128046238Y-141731032D01*
X127997857Y-141779413D01*
X127901095Y-141827794D01*
X127707571Y-141876175D01*
X127465666Y-141876175D01*
X127272142Y-141827794D01*
X127175380Y-141779413D01*
X127127000Y-141731032D01*
X127078619Y-141634270D01*
X125264333Y-143714651D02*
X125264333Y-143230841D01*
X125554619Y-143811413D02*
X124538619Y-143472746D01*
X125554619Y-143134080D01*
X125554619Y-142263222D02*
X125554619Y-142843794D01*
X125554619Y-142553508D02*
X124538619Y-142553508D01*
X124683761Y-142650270D01*
X124780523Y-142747032D01*
X124828904Y-142843794D01*
X124635380Y-141876175D02*
X124587000Y-141827794D01*
X124538619Y-141731032D01*
X124538619Y-141489127D01*
X124587000Y-141392365D01*
X124635380Y-141343984D01*
X124732142Y-141295603D01*
X124828904Y-141295603D01*
X124974047Y-141343984D01*
X125554619Y-141924556D01*
X125554619Y-141295603D01*
X122724333Y-143714651D02*
X122724333Y-143230841D01*
X123014619Y-143811413D02*
X121998619Y-143472746D01*
X123014619Y-143134080D01*
X123014619Y-142263222D02*
X123014619Y-142843794D01*
X123014619Y-142553508D02*
X121998619Y-142553508D01*
X122143761Y-142650270D01*
X122240523Y-142747032D01*
X122288904Y-142843794D01*
X122337285Y-141392365D02*
X123014619Y-141392365D01*
X121950238Y-141634270D02*
X122675952Y-141876175D01*
X122675952Y-141247222D01*
X120184333Y-143714651D02*
X120184333Y-143230841D01*
X120474619Y-143811413D02*
X119458619Y-143472746D01*
X120474619Y-143134080D01*
X120474619Y-142263222D02*
X120474619Y-142843794D01*
X120474619Y-142553508D02*
X119458619Y-142553508D01*
X119603761Y-142650270D01*
X119700523Y-142747032D01*
X119748904Y-142843794D01*
X119458619Y-141392365D02*
X119458619Y-141585889D01*
X119507000Y-141682651D01*
X119555380Y-141731032D01*
X119700523Y-141827794D01*
X119894047Y-141876175D01*
X120281095Y-141876175D01*
X120377857Y-141827794D01*
X120426238Y-141779413D01*
X120474619Y-141682651D01*
X120474619Y-141489127D01*
X120426238Y-141392365D01*
X120377857Y-141343984D01*
X120281095Y-141295603D01*
X120039190Y-141295603D01*
X119942428Y-141343984D01*
X119894047Y-141392365D01*
X119845666Y-141489127D01*
X119845666Y-141682651D01*
X119894047Y-141779413D01*
X119942428Y-141827794D01*
X120039190Y-141876175D01*
X117644333Y-143714651D02*
X117644333Y-143230841D01*
X117934619Y-143811413D02*
X116918619Y-143472746D01*
X117934619Y-143134080D01*
X117934619Y-142263222D02*
X117934619Y-142843794D01*
X117934619Y-142553508D02*
X116918619Y-142553508D01*
X117063761Y-142650270D01*
X117160523Y-142747032D01*
X117208904Y-142843794D01*
X117354047Y-141682651D02*
X117305666Y-141779413D01*
X117257285Y-141827794D01*
X117160523Y-141876175D01*
X117112142Y-141876175D01*
X117015380Y-141827794D01*
X116967000Y-141779413D01*
X116918619Y-141682651D01*
X116918619Y-141489127D01*
X116967000Y-141392365D01*
X117015380Y-141343984D01*
X117112142Y-141295603D01*
X117160523Y-141295603D01*
X117257285Y-141343984D01*
X117305666Y-141392365D01*
X117354047Y-141489127D01*
X117354047Y-141682651D01*
X117402428Y-141779413D01*
X117450809Y-141827794D01*
X117547571Y-141876175D01*
X117741095Y-141876175D01*
X117837857Y-141827794D01*
X117886238Y-141779413D01*
X117934619Y-141682651D01*
X117934619Y-141489127D01*
X117886238Y-141392365D01*
X117837857Y-141343984D01*
X117741095Y-141295603D01*
X117547571Y-141295603D01*
X117450809Y-141343984D01*
X117402428Y-141392365D01*
X117354047Y-141489127D01*
X115104333Y-143714651D02*
X115104333Y-143230841D01*
X115394619Y-143811413D02*
X114378619Y-143472746D01*
X115394619Y-143134080D01*
X114475380Y-142843794D02*
X114427000Y-142795413D01*
X114378619Y-142698651D01*
X114378619Y-142456746D01*
X114427000Y-142359984D01*
X114475380Y-142311603D01*
X114572142Y-142263222D01*
X114668904Y-142263222D01*
X114814047Y-142311603D01*
X115394619Y-142892175D01*
X115394619Y-142263222D01*
X114378619Y-141634270D02*
X114378619Y-141537508D01*
X114427000Y-141440746D01*
X114475380Y-141392365D01*
X114572142Y-141343984D01*
X114765666Y-141295603D01*
X115007571Y-141295603D01*
X115201095Y-141343984D01*
X115297857Y-141392365D01*
X115346238Y-141440746D01*
X115394619Y-141537508D01*
X115394619Y-141634270D01*
X115346238Y-141731032D01*
X115297857Y-141779413D01*
X115201095Y-141827794D01*
X115007571Y-141876175D01*
X114765666Y-141876175D01*
X114572142Y-141827794D01*
X114475380Y-141779413D01*
X114427000Y-141731032D01*
X114378619Y-141634270D01*
X112564333Y-143714651D02*
X112564333Y-143230841D01*
X112854619Y-143811413D02*
X111838619Y-143472746D01*
X112854619Y-143134080D01*
X111935380Y-142843794D02*
X111887000Y-142795413D01*
X111838619Y-142698651D01*
X111838619Y-142456746D01*
X111887000Y-142359984D01*
X111935380Y-142311603D01*
X112032142Y-142263222D01*
X112128904Y-142263222D01*
X112274047Y-142311603D01*
X112854619Y-142892175D01*
X112854619Y-142263222D01*
X111935380Y-141876175D02*
X111887000Y-141827794D01*
X111838619Y-141731032D01*
X111838619Y-141489127D01*
X111887000Y-141392365D01*
X111935380Y-141343984D01*
X112032142Y-141295603D01*
X112128904Y-141295603D01*
X112274047Y-141343984D01*
X112854619Y-141924556D01*
X112854619Y-141295603D01*
X140504333Y-134294396D02*
X140504333Y-133810586D01*
X140794619Y-134391158D02*
X139778619Y-134052491D01*
X140794619Y-133713824D01*
X140794619Y-132842967D02*
X140794619Y-133423539D01*
X140794619Y-133133253D02*
X139778619Y-133133253D01*
X139923761Y-133230015D01*
X140020523Y-133326777D01*
X140068904Y-133423539D01*
X137964333Y-134294396D02*
X137964333Y-133810586D01*
X138254619Y-134391158D02*
X137238619Y-134052491D01*
X138254619Y-133713824D01*
X137238619Y-133471920D02*
X137238619Y-132842967D01*
X137625666Y-133181634D01*
X137625666Y-133036491D01*
X137674047Y-132939729D01*
X137722428Y-132891348D01*
X137819190Y-132842967D01*
X138061095Y-132842967D01*
X138157857Y-132891348D01*
X138206238Y-132939729D01*
X138254619Y-133036491D01*
X138254619Y-133326777D01*
X138206238Y-133423539D01*
X138157857Y-133471920D01*
X135424333Y-134294396D02*
X135424333Y-133810586D01*
X135714619Y-134391158D02*
X134698619Y-134052491D01*
X135714619Y-133713824D01*
X134698619Y-132891348D02*
X134698619Y-133375158D01*
X135182428Y-133423539D01*
X135134047Y-133375158D01*
X135085666Y-133278396D01*
X135085666Y-133036491D01*
X135134047Y-132939729D01*
X135182428Y-132891348D01*
X135279190Y-132842967D01*
X135521095Y-132842967D01*
X135617857Y-132891348D01*
X135666238Y-132939729D01*
X135714619Y-133036491D01*
X135714619Y-133278396D01*
X135666238Y-133375158D01*
X135617857Y-133423539D01*
X132884333Y-134294396D02*
X132884333Y-133810586D01*
X133174619Y-134391158D02*
X132158619Y-134052491D01*
X133174619Y-133713824D01*
X132158619Y-133471920D02*
X132158619Y-132794586D01*
X133174619Y-133230015D01*
X130344333Y-134294396D02*
X130344333Y-133810586D01*
X130634619Y-134391158D02*
X129618619Y-134052491D01*
X130634619Y-133713824D01*
X130634619Y-133326777D02*
X130634619Y-133133253D01*
X130586238Y-133036491D01*
X130537857Y-132988110D01*
X130392714Y-132891348D01*
X130199190Y-132842967D01*
X129812142Y-132842967D01*
X129715380Y-132891348D01*
X129667000Y-132939729D01*
X129618619Y-133036491D01*
X129618619Y-133230015D01*
X129667000Y-133326777D01*
X129715380Y-133375158D01*
X129812142Y-133423539D01*
X130054047Y-133423539D01*
X130150809Y-133375158D01*
X130199190Y-133326777D01*
X130247571Y-133230015D01*
X130247571Y-133036491D01*
X130199190Y-132939729D01*
X130150809Y-132891348D01*
X130054047Y-132842967D01*
X127804333Y-134294396D02*
X127804333Y-133810586D01*
X128094619Y-134391158D02*
X127078619Y-134052491D01*
X128094619Y-133713824D01*
X128094619Y-132842967D02*
X128094619Y-133423539D01*
X128094619Y-133133253D02*
X127078619Y-133133253D01*
X127223761Y-133230015D01*
X127320523Y-133326777D01*
X127368904Y-133423539D01*
X128094619Y-131875348D02*
X128094619Y-132455920D01*
X128094619Y-132165634D02*
X127078619Y-132165634D01*
X127223761Y-132262396D01*
X127320523Y-132359158D01*
X127368904Y-132455920D01*
X125264333Y-134294396D02*
X125264333Y-133810586D01*
X125554619Y-134391158D02*
X124538619Y-134052491D01*
X125554619Y-133713824D01*
X125554619Y-132842967D02*
X125554619Y-133423539D01*
X125554619Y-133133253D02*
X124538619Y-133133253D01*
X124683761Y-133230015D01*
X124780523Y-133326777D01*
X124828904Y-133423539D01*
X124538619Y-132504300D02*
X124538619Y-131875348D01*
X124925666Y-132214015D01*
X124925666Y-132068872D01*
X124974047Y-131972110D01*
X125022428Y-131923729D01*
X125119190Y-131875348D01*
X125361095Y-131875348D01*
X125457857Y-131923729D01*
X125506238Y-131972110D01*
X125554619Y-132068872D01*
X125554619Y-132359158D01*
X125506238Y-132455920D01*
X125457857Y-132504300D01*
X122724333Y-134294396D02*
X122724333Y-133810586D01*
X123014619Y-134391158D02*
X121998619Y-134052491D01*
X123014619Y-133713824D01*
X123014619Y-132842967D02*
X123014619Y-133423539D01*
X123014619Y-133133253D02*
X121998619Y-133133253D01*
X122143761Y-133230015D01*
X122240523Y-133326777D01*
X122288904Y-133423539D01*
X121998619Y-131923729D02*
X121998619Y-132407539D01*
X122482428Y-132455920D01*
X122434047Y-132407539D01*
X122385666Y-132310777D01*
X122385666Y-132068872D01*
X122434047Y-131972110D01*
X122482428Y-131923729D01*
X122579190Y-131875348D01*
X122821095Y-131875348D01*
X122917857Y-131923729D01*
X122966238Y-131972110D01*
X123014619Y-132068872D01*
X123014619Y-132310777D01*
X122966238Y-132407539D01*
X122917857Y-132455920D01*
X120184333Y-134294396D02*
X120184333Y-133810586D01*
X120474619Y-134391158D02*
X119458619Y-134052491D01*
X120474619Y-133713824D01*
X120474619Y-132842967D02*
X120474619Y-133423539D01*
X120474619Y-133133253D02*
X119458619Y-133133253D01*
X119603761Y-133230015D01*
X119700523Y-133326777D01*
X119748904Y-133423539D01*
X119458619Y-132504300D02*
X119458619Y-131826967D01*
X120474619Y-132262396D01*
X117644333Y-134294396D02*
X117644333Y-133810586D01*
X117934619Y-134391158D02*
X116918619Y-134052491D01*
X117934619Y-133713824D01*
X117934619Y-132842967D02*
X117934619Y-133423539D01*
X117934619Y-133133253D02*
X116918619Y-133133253D01*
X117063761Y-133230015D01*
X117160523Y-133326777D01*
X117208904Y-133423539D01*
X117934619Y-132359158D02*
X117934619Y-132165634D01*
X117886238Y-132068872D01*
X117837857Y-132020491D01*
X117692714Y-131923729D01*
X117499190Y-131875348D01*
X117112142Y-131875348D01*
X117015380Y-131923729D01*
X116967000Y-131972110D01*
X116918619Y-132068872D01*
X116918619Y-132262396D01*
X116967000Y-132359158D01*
X117015380Y-132407539D01*
X117112142Y-132455920D01*
X117354047Y-132455920D01*
X117450809Y-132407539D01*
X117499190Y-132359158D01*
X117547571Y-132262396D01*
X117547571Y-132068872D01*
X117499190Y-131972110D01*
X117450809Y-131923729D01*
X117354047Y-131875348D01*
X115104333Y-134294396D02*
X115104333Y-133810586D01*
X115394619Y-134391158D02*
X114378619Y-134052491D01*
X115394619Y-133713824D01*
X114475380Y-133423539D02*
X114427000Y-133375158D01*
X114378619Y-133278396D01*
X114378619Y-133036491D01*
X114427000Y-132939729D01*
X114475380Y-132891348D01*
X114572142Y-132842967D01*
X114668904Y-132842967D01*
X114814047Y-132891348D01*
X115394619Y-133471920D01*
X115394619Y-132842967D01*
X115394619Y-131875348D02*
X115394619Y-132455920D01*
X115394619Y-132165634D02*
X114378619Y-132165634D01*
X114523761Y-132262396D01*
X114620523Y-132359158D01*
X114668904Y-132455920D01*
X112564333Y-134294396D02*
X112564333Y-133810586D01*
X112854619Y-134391158D02*
X111838619Y-134052491D01*
X112854619Y-133713824D01*
X111935380Y-133423539D02*
X111887000Y-133375158D01*
X111838619Y-133278396D01*
X111838619Y-133036491D01*
X111887000Y-132939729D01*
X111935380Y-132891348D01*
X112032142Y-132842967D01*
X112128904Y-132842967D01*
X112274047Y-132891348D01*
X112854619Y-133471920D01*
X112854619Y-132842967D01*
X111838619Y-132504300D02*
X111838619Y-131875348D01*
X112225666Y-132214015D01*
X112225666Y-132068872D01*
X112274047Y-131972110D01*
X112322428Y-131923729D01*
X112419190Y-131875348D01*
X112661095Y-131875348D01*
X112757857Y-131923729D01*
X112806238Y-131972110D01*
X112854619Y-132068872D01*
X112854619Y-132359158D01*
X112806238Y-132455920D01*
X112757857Y-132504300D01*
D15*
X169970000Y-150195000D02*
X169370000Y-150495000D01*
X169970000Y-150795000D02*
X169970000Y-150195000D01*
X169370000Y-150495000D02*
X169970000Y-150795000D01*
X88665000Y-151235000D02*
X87165000Y-151235000D01*
X91205000Y-151235000D02*
X90404000Y-151235000D01*
X93745000Y-151235000D02*
X92944000Y-151235000D01*
X96285000Y-151235000D02*
X95484000Y-151235000D01*
X98825000Y-151235000D02*
X98024000Y-151235000D01*
X101365000Y-151235000D02*
X100564000Y-151235000D01*
X103905000Y-151235000D02*
X103104000Y-151235000D01*
X106445000Y-151235000D02*
X105644000Y-151235000D01*
X108985000Y-151235000D02*
X108184000Y-151235000D01*
X111525000Y-151235000D02*
X110724000Y-151235000D01*
X114065000Y-151235000D02*
X113264000Y-151235000D01*
X116605000Y-151235000D02*
X115804000Y-151235000D01*
X119145000Y-151235000D02*
X118344000Y-151235000D01*
X121685000Y-151235000D02*
X120884000Y-151235000D01*
X124225000Y-151235000D02*
X123424000Y-151235000D01*
X126765000Y-151235000D02*
X125964000Y-151235000D01*
X129305000Y-151235000D02*
X128504000Y-151235000D01*
X131845000Y-151235000D02*
X131044000Y-151235000D01*
X134385000Y-151235000D02*
X133584000Y-151235000D01*
X136925000Y-151235000D02*
X136124000Y-151235000D01*
X139465000Y-151235000D02*
X138664000Y-151235000D01*
X142005000Y-151235000D02*
X141204000Y-151235000D01*
X144545000Y-151235000D02*
X143744000Y-151235000D01*
X147085000Y-151235000D02*
X146284000Y-151235000D01*
X149625000Y-151235000D02*
X148824000Y-151235000D01*
X152165000Y-151235000D02*
X151364000Y-151235000D01*
X154705000Y-151235000D02*
X153904000Y-151235000D01*
X157245000Y-151235000D02*
X156444000Y-151235000D01*
X159785000Y-151235000D02*
X158984000Y-151235000D01*
X162325000Y-151235000D02*
X161524000Y-151235000D01*
X164865000Y-151235000D02*
X164064000Y-151235000D01*
X167180000Y-151235000D02*
X166604000Y-151235000D01*
X170646000Y-151235000D02*
X169370000Y-151235000D01*
X87165000Y-150235000D02*
X87165000Y-151235000D01*
X81645000Y-150235000D02*
X87165000Y-150235000D01*
X81645000Y-155795000D02*
X81645000Y-150235000D01*
X170645000Y-150235000D02*
X170645000Y-151235000D01*
X176165000Y-150235000D02*
X170645000Y-150235000D01*
X176165000Y-155795000D02*
X176165000Y-150235000D01*
X174685000Y-111185000D02*
X173355000Y-111185000D01*
X174685000Y-109855000D02*
X174685000Y-111185000D01*
X174685000Y-108585000D02*
X172025000Y-108585000D01*
X172025000Y-108585000D02*
X172025000Y-105985000D01*
X174685000Y-108585000D02*
X174685000Y-105985000D01*
X174685000Y-105985000D02*
X172025000Y-105985000D01*
X141494000Y-103834000D02*
X141134000Y-103834000D01*
X141494000Y-103334000D02*
X141494000Y-103834000D01*
X146684000Y-103334000D02*
X141494000Y-103334000D01*
X151874000Y-103334000D02*
X151874000Y-103834000D01*
X146684000Y-103334000D02*
X151874000Y-103334000D01*
X141494000Y-127044000D02*
X141494000Y-126544000D01*
X146684000Y-127044000D02*
X141494000Y-127044000D01*
X151874000Y-127044000D02*
X151874000Y-126544000D01*
X146684000Y-127044000D02*
X151874000Y-127044000D01*
X104140000Y-118725000D02*
X100690000Y-118725000D01*
X104140000Y-118725000D02*
X106090000Y-118725000D01*
X104140000Y-123845000D02*
X102190000Y-123845000D01*
X104140000Y-123845000D02*
X106090000Y-123845000D01*
X156052000Y-103834000D02*
X155692000Y-103834000D01*
X156052000Y-103334000D02*
X156052000Y-103834000D01*
X161242000Y-103334000D02*
X156052000Y-103334000D01*
X166432000Y-103334000D02*
X166432000Y-103834000D01*
X161242000Y-103334000D02*
X166432000Y-103334000D01*
X156052000Y-127044000D02*
X156052000Y-126544000D01*
X161242000Y-127044000D02*
X156052000Y-127044000D01*
X166432000Y-127044000D02*
X166432000Y-126544000D01*
X161242000Y-127044000D02*
X166432000Y-127044000D01*
X141665000Y-135195000D02*
X141665000Y-136525000D01*
X140335000Y-135195000D02*
X141665000Y-135195000D01*
X141665000Y-137795000D02*
X141665000Y-140395000D01*
X139065000Y-137795000D02*
X141665000Y-137795000D01*
X139065000Y-135195000D02*
X139065000Y-137795000D01*
X141665000Y-140395000D02*
X111065000Y-140395000D01*
X139065000Y-135195000D02*
X111065000Y-135195000D01*
X111065000Y-135195000D02*
X111065000Y-140395000D01*
X169605000Y-135195000D02*
X169605000Y-136525000D01*
X168275000Y-135195000D02*
X169605000Y-135195000D01*
X169605000Y-137795000D02*
X169605000Y-140395000D01*
X167005000Y-137795000D02*
X169605000Y-137795000D01*
X167005000Y-135195000D02*
X167005000Y-137795000D01*
X169605000Y-140395000D02*
X149165000Y-140395000D01*
X167005000Y-135195000D02*
X149165000Y-135195000D01*
X149165000Y-135195000D02*
X149165000Y-140395000D01*
X93504936Y-110257000D02*
X94709064Y-110257000D01*
X93504936Y-108437000D02*
X94709064Y-108437000D01*
X83125000Y-105985000D02*
X84455000Y-105985000D01*
X83125000Y-107315000D02*
X83125000Y-105985000D01*
X83125000Y-108585000D02*
X85785000Y-108585000D01*
X85785000Y-108585000D02*
X85785000Y-146745000D01*
X83125000Y-108585000D02*
X83125000Y-146745000D01*
X83125000Y-146745000D02*
X85785000Y-146745000D01*
X96268000Y-103444000D02*
X92383000Y-103444000D01*
X96268000Y-106614000D02*
X96268000Y-103444000D01*
X92383000Y-106614000D02*
X96268000Y-106614000D01*
D16*
X173021666Y-148947380D02*
X173021666Y-149661666D01*
X172974047Y-149804523D01*
X172878809Y-149899761D01*
X172735952Y-149947380D01*
X172640714Y-149947380D01*
X174021666Y-149947380D02*
X173450238Y-149947380D01*
X173735952Y-149947380D02*
X173735952Y-148947380D01*
X173640714Y-149090238D01*
X173545476Y-149185476D01*
X173450238Y-149233095D01*
X173021666Y-111637380D02*
X173021666Y-112351666D01*
X172974047Y-112494523D01*
X172878809Y-112589761D01*
X172735952Y-112637380D01*
X172640714Y-112637380D01*
X173974047Y-111637380D02*
X173497857Y-111637380D01*
X173450238Y-112113571D01*
X173497857Y-112065952D01*
X173593095Y-112018333D01*
X173831190Y-112018333D01*
X173926428Y-112065952D01*
X173974047Y-112113571D01*
X174021666Y-112208809D01*
X174021666Y-112446904D01*
X173974047Y-112542142D01*
X173926428Y-112589761D01*
X173831190Y-112637380D01*
X173593095Y-112637380D01*
X173497857Y-112589761D01*
X173450238Y-112542142D01*
X145922095Y-101941380D02*
X145922095Y-102750904D01*
X145969714Y-102846142D01*
X146017333Y-102893761D01*
X146112571Y-102941380D01*
X146303047Y-102941380D01*
X146398285Y-102893761D01*
X146445904Y-102846142D01*
X146493523Y-102750904D01*
X146493523Y-101941380D01*
X147493523Y-102941380D02*
X146922095Y-102941380D01*
X147207809Y-102941380D02*
X147207809Y-101941380D01*
X147112571Y-102084238D01*
X147017333Y-102179476D01*
X146922095Y-102227095D01*
X103378095Y-117337380D02*
X103378095Y-118146904D01*
X103425714Y-118242142D01*
X103473333Y-118289761D01*
X103568571Y-118337380D01*
X103759047Y-118337380D01*
X103854285Y-118289761D01*
X103901904Y-118242142D01*
X103949523Y-118146904D01*
X103949523Y-117337380D01*
X104330476Y-117337380D02*
X104949523Y-117337380D01*
X104616190Y-117718333D01*
X104759047Y-117718333D01*
X104854285Y-117765952D01*
X104901904Y-117813571D01*
X104949523Y-117908809D01*
X104949523Y-118146904D01*
X104901904Y-118242142D01*
X104854285Y-118289761D01*
X104759047Y-118337380D01*
X104473333Y-118337380D01*
X104378095Y-118289761D01*
X104330476Y-118242142D01*
X160480095Y-101941380D02*
X160480095Y-102750904D01*
X160527714Y-102846142D01*
X160575333Y-102893761D01*
X160670571Y-102941380D01*
X160861047Y-102941380D01*
X160956285Y-102893761D01*
X161003904Y-102846142D01*
X161051523Y-102750904D01*
X161051523Y-101941380D01*
X161480095Y-102036619D02*
X161527714Y-101989000D01*
X161622952Y-101941380D01*
X161861047Y-101941380D01*
X161956285Y-101989000D01*
X162003904Y-102036619D01*
X162051523Y-102131857D01*
X162051523Y-102227095D01*
X162003904Y-102369952D01*
X161432476Y-102941380D01*
X162051523Y-102941380D01*
X142117380Y-138128333D02*
X142831666Y-138128333D01*
X142974523Y-138175952D01*
X143069761Y-138271190D01*
X143117380Y-138414047D01*
X143117380Y-138509285D01*
X142450714Y-137223571D02*
X143117380Y-137223571D01*
X142069761Y-137461666D02*
X142784047Y-137699761D01*
X142784047Y-137080714D01*
X170057380Y-138128333D02*
X170771666Y-138128333D01*
X170914523Y-138175952D01*
X171009761Y-138271190D01*
X171057380Y-138414047D01*
X171057380Y-138509285D01*
X170057380Y-137747380D02*
X170057380Y-137128333D01*
X170438333Y-137461666D01*
X170438333Y-137318809D01*
X170485952Y-137223571D01*
X170533571Y-137175952D01*
X170628809Y-137128333D01*
X170866904Y-137128333D01*
X170962142Y-137175952D01*
X171009761Y-137223571D01*
X171057380Y-137318809D01*
X171057380Y-137604523D01*
X171009761Y-137699761D01*
X170962142Y-137747380D01*
X97115333Y-109672380D02*
X96782000Y-109196190D01*
X96543904Y-109672380D02*
X96543904Y-108672380D01*
X96924857Y-108672380D01*
X97020095Y-108720000D01*
X97067714Y-108767619D01*
X97115333Y-108862857D01*
X97115333Y-109005714D01*
X97067714Y-109100952D01*
X97020095Y-109148571D01*
X96924857Y-109196190D01*
X96543904Y-109196190D01*
X98067714Y-109672380D02*
X97496285Y-109672380D01*
X97782000Y-109672380D02*
X97782000Y-108672380D01*
X97686761Y-108815238D01*
X97591523Y-108910476D01*
X97496285Y-108958095D01*
X84121666Y-104437380D02*
X84121666Y-105151666D01*
X84074047Y-105294523D01*
X83978809Y-105389761D01*
X83835952Y-105437380D01*
X83740714Y-105437380D01*
X84550238Y-104532619D02*
X84597857Y-104485000D01*
X84693095Y-104437380D01*
X84931190Y-104437380D01*
X85026428Y-104485000D01*
X85074047Y-104532619D01*
X85121666Y-104627857D01*
X85121666Y-104723095D01*
X85074047Y-104865952D01*
X84502619Y-105437380D01*
X85121666Y-105437380D01*
X93241904Y-103322380D02*
X93241904Y-102322380D01*
X93480000Y-102322380D01*
X93622857Y-102370000D01*
X93718095Y-102465238D01*
X93765714Y-102560476D01*
X93813333Y-102750952D01*
X93813333Y-102893809D01*
X93765714Y-103084285D01*
X93718095Y-103179523D01*
X93622857Y-103274761D01*
X93480000Y-103322380D01*
X93241904Y-103322380D01*
X94765714Y-103322380D02*
X94194285Y-103322380D01*
X94480000Y-103322380D02*
X94480000Y-102322380D01*
X94384761Y-102465238D01*
X94289523Y-102560476D01*
X94194285Y-102608095D01*
M02*
