G04 #@! TF.GenerationSoftware,KiCad,Pcbnew,5.1.5+dfsg1-2build2*
G04 #@! TF.CreationDate,2021-07-19T22:25:01+01:00*
G04 #@! TF.ProjectId,TestSRAM,54657374-5352-4414-9d2e-6b696361645f,rev?*
G04 #@! TF.SameCoordinates,Original*
G04 #@! TF.FileFunction,Soldermask,Top*
G04 #@! TF.FilePolarity,Negative*
%FSLAX46Y46*%
G04 Gerber Fmt 4.6, Leading zero omitted, Abs format (unit mm)*
G04 Created by KiCad (PCBNEW 5.1.5+dfsg1-2build2) date 2021-07-19 22:25:01*
%MOMM*%
%LPD*%
G04 APERTURE LIST*
%ADD10C,0.050000*%
%ADD11C,0.100000*%
G04 APERTURE END LIST*
D10*
X178181000Y-100965000D02*
X178181000Y-155829000D01*
X79629000Y-100965000D02*
X178181000Y-100965000D01*
X79629000Y-155829000D02*
X79629000Y-100965000D01*
X178181000Y-155829000D02*
X79629000Y-155829000D01*
D11*
G36*
X173785532Y-151615721D02*
G01*
X174054147Y-151726985D01*
X174295895Y-151888516D01*
X174501484Y-152094105D01*
X174663015Y-152335853D01*
X174774279Y-152604468D01*
X174831000Y-152889625D01*
X174831000Y-153180375D01*
X174774279Y-153465532D01*
X174663015Y-153734147D01*
X174501484Y-153975895D01*
X174295895Y-154181484D01*
X174054147Y-154343015D01*
X173785532Y-154454279D01*
X173500375Y-154511000D01*
X173209625Y-154511000D01*
X172924468Y-154454279D01*
X172655853Y-154343015D01*
X172414105Y-154181484D01*
X172208516Y-153975895D01*
X172046985Y-153734147D01*
X171935721Y-153465532D01*
X171879000Y-153180375D01*
X171879000Y-152889625D01*
X171935721Y-152604468D01*
X172046985Y-152335853D01*
X172208516Y-152094105D01*
X172414105Y-151888516D01*
X172655853Y-151726985D01*
X172924468Y-151615721D01*
X173209625Y-151559000D01*
X173500375Y-151559000D01*
X173785532Y-151615721D01*
G37*
G36*
X84885532Y-151615721D02*
G01*
X85154147Y-151726985D01*
X85395895Y-151888516D01*
X85601484Y-152094105D01*
X85763015Y-152335853D01*
X85874279Y-152604468D01*
X85931000Y-152889625D01*
X85931000Y-153180375D01*
X85874279Y-153465532D01*
X85763015Y-153734147D01*
X85601484Y-153975895D01*
X85395895Y-154181484D01*
X85154147Y-154343015D01*
X84885532Y-154454279D01*
X84600375Y-154511000D01*
X84309625Y-154511000D01*
X84024468Y-154454279D01*
X83755853Y-154343015D01*
X83514105Y-154181484D01*
X83308516Y-153975895D01*
X83146985Y-153734147D01*
X83035721Y-153465532D01*
X82979000Y-153180375D01*
X82979000Y-152889625D01*
X83035721Y-152604468D01*
X83146985Y-152335853D01*
X83308516Y-152094105D01*
X83514105Y-151888516D01*
X83755853Y-151726985D01*
X84024468Y-151615721D01*
X84309625Y-151559000D01*
X84600375Y-151559000D01*
X84885532Y-151615721D01*
G37*
G36*
X168954568Y-149673086D02*
G01*
X168988560Y-149683397D01*
X169019877Y-149700137D01*
X169047332Y-149722668D01*
X169069863Y-149750123D01*
X169086603Y-149781440D01*
X169096914Y-149815432D01*
X169101000Y-149856915D01*
X169101000Y-151133085D01*
X169096914Y-151174568D01*
X169086603Y-151208560D01*
X169069863Y-151239877D01*
X169047332Y-151267332D01*
X169019877Y-151289863D01*
X168988560Y-151306603D01*
X168954568Y-151316914D01*
X168913085Y-151321000D01*
X167636915Y-151321000D01*
X167595432Y-151316914D01*
X167561440Y-151306603D01*
X167530123Y-151289863D01*
X167502668Y-151267332D01*
X167480137Y-151239877D01*
X167463397Y-151208560D01*
X167453086Y-151174568D01*
X167449000Y-151133085D01*
X167449000Y-149856915D01*
X167453086Y-149815432D01*
X167463397Y-149781440D01*
X167480137Y-149750123D01*
X167502668Y-149722668D01*
X167530123Y-149700137D01*
X167561440Y-149683397D01*
X167595432Y-149673086D01*
X167636915Y-149669000D01*
X168913085Y-149669000D01*
X168954568Y-149673086D01*
G37*
G36*
X110095935Y-149700742D02*
G01*
X110246258Y-149763008D01*
X110381545Y-149853404D01*
X110496596Y-149968455D01*
X110586992Y-150103742D01*
X110649258Y-150254065D01*
X110681000Y-150413646D01*
X110681000Y-150576354D01*
X110649258Y-150735935D01*
X110586992Y-150886258D01*
X110496596Y-151021545D01*
X110381545Y-151136596D01*
X110246258Y-151226992D01*
X110095935Y-151289258D01*
X109936354Y-151321000D01*
X109773646Y-151321000D01*
X109614065Y-151289258D01*
X109463742Y-151226992D01*
X109328455Y-151136596D01*
X109213404Y-151021545D01*
X109123008Y-150886258D01*
X109060742Y-150735935D01*
X109029000Y-150576354D01*
X109029000Y-150413646D01*
X109060742Y-150254065D01*
X109123008Y-150103742D01*
X109213404Y-149968455D01*
X109328455Y-149853404D01*
X109463742Y-149763008D01*
X109614065Y-149700742D01*
X109773646Y-149669000D01*
X109936354Y-149669000D01*
X110095935Y-149700742D01*
G37*
G36*
X125335935Y-149700742D02*
G01*
X125486258Y-149763008D01*
X125621545Y-149853404D01*
X125736596Y-149968455D01*
X125826992Y-150103742D01*
X125889258Y-150254065D01*
X125921000Y-150413646D01*
X125921000Y-150576354D01*
X125889258Y-150735935D01*
X125826992Y-150886258D01*
X125736596Y-151021545D01*
X125621545Y-151136596D01*
X125486258Y-151226992D01*
X125335935Y-151289258D01*
X125176354Y-151321000D01*
X125013646Y-151321000D01*
X124854065Y-151289258D01*
X124703742Y-151226992D01*
X124568455Y-151136596D01*
X124453404Y-151021545D01*
X124363008Y-150886258D01*
X124300742Y-150735935D01*
X124269000Y-150576354D01*
X124269000Y-150413646D01*
X124300742Y-150254065D01*
X124363008Y-150103742D01*
X124453404Y-149968455D01*
X124568455Y-149853404D01*
X124703742Y-149763008D01*
X124854065Y-149700742D01*
X125013646Y-149669000D01*
X125176354Y-149669000D01*
X125335935Y-149700742D01*
G37*
G36*
X122795935Y-149700742D02*
G01*
X122946258Y-149763008D01*
X123081545Y-149853404D01*
X123196596Y-149968455D01*
X123286992Y-150103742D01*
X123349258Y-150254065D01*
X123381000Y-150413646D01*
X123381000Y-150576354D01*
X123349258Y-150735935D01*
X123286992Y-150886258D01*
X123196596Y-151021545D01*
X123081545Y-151136596D01*
X122946258Y-151226992D01*
X122795935Y-151289258D01*
X122636354Y-151321000D01*
X122473646Y-151321000D01*
X122314065Y-151289258D01*
X122163742Y-151226992D01*
X122028455Y-151136596D01*
X121913404Y-151021545D01*
X121823008Y-150886258D01*
X121760742Y-150735935D01*
X121729000Y-150576354D01*
X121729000Y-150413646D01*
X121760742Y-150254065D01*
X121823008Y-150103742D01*
X121913404Y-149968455D01*
X122028455Y-149853404D01*
X122163742Y-149763008D01*
X122314065Y-149700742D01*
X122473646Y-149669000D01*
X122636354Y-149669000D01*
X122795935Y-149700742D01*
G37*
G36*
X120255935Y-149700742D02*
G01*
X120406258Y-149763008D01*
X120541545Y-149853404D01*
X120656596Y-149968455D01*
X120746992Y-150103742D01*
X120809258Y-150254065D01*
X120841000Y-150413646D01*
X120841000Y-150576354D01*
X120809258Y-150735935D01*
X120746992Y-150886258D01*
X120656596Y-151021545D01*
X120541545Y-151136596D01*
X120406258Y-151226992D01*
X120255935Y-151289258D01*
X120096354Y-151321000D01*
X119933646Y-151321000D01*
X119774065Y-151289258D01*
X119623742Y-151226992D01*
X119488455Y-151136596D01*
X119373404Y-151021545D01*
X119283008Y-150886258D01*
X119220742Y-150735935D01*
X119189000Y-150576354D01*
X119189000Y-150413646D01*
X119220742Y-150254065D01*
X119283008Y-150103742D01*
X119373404Y-149968455D01*
X119488455Y-149853404D01*
X119623742Y-149763008D01*
X119774065Y-149700742D01*
X119933646Y-149669000D01*
X120096354Y-149669000D01*
X120255935Y-149700742D01*
G37*
G36*
X117715935Y-149700742D02*
G01*
X117866258Y-149763008D01*
X118001545Y-149853404D01*
X118116596Y-149968455D01*
X118206992Y-150103742D01*
X118269258Y-150254065D01*
X118301000Y-150413646D01*
X118301000Y-150576354D01*
X118269258Y-150735935D01*
X118206992Y-150886258D01*
X118116596Y-151021545D01*
X118001545Y-151136596D01*
X117866258Y-151226992D01*
X117715935Y-151289258D01*
X117556354Y-151321000D01*
X117393646Y-151321000D01*
X117234065Y-151289258D01*
X117083742Y-151226992D01*
X116948455Y-151136596D01*
X116833404Y-151021545D01*
X116743008Y-150886258D01*
X116680742Y-150735935D01*
X116649000Y-150576354D01*
X116649000Y-150413646D01*
X116680742Y-150254065D01*
X116743008Y-150103742D01*
X116833404Y-149968455D01*
X116948455Y-149853404D01*
X117083742Y-149763008D01*
X117234065Y-149700742D01*
X117393646Y-149669000D01*
X117556354Y-149669000D01*
X117715935Y-149700742D01*
G37*
G36*
X115175935Y-149700742D02*
G01*
X115326258Y-149763008D01*
X115461545Y-149853404D01*
X115576596Y-149968455D01*
X115666992Y-150103742D01*
X115729258Y-150254065D01*
X115761000Y-150413646D01*
X115761000Y-150576354D01*
X115729258Y-150735935D01*
X115666992Y-150886258D01*
X115576596Y-151021545D01*
X115461545Y-151136596D01*
X115326258Y-151226992D01*
X115175935Y-151289258D01*
X115016354Y-151321000D01*
X114853646Y-151321000D01*
X114694065Y-151289258D01*
X114543742Y-151226992D01*
X114408455Y-151136596D01*
X114293404Y-151021545D01*
X114203008Y-150886258D01*
X114140742Y-150735935D01*
X114109000Y-150576354D01*
X114109000Y-150413646D01*
X114140742Y-150254065D01*
X114203008Y-150103742D01*
X114293404Y-149968455D01*
X114408455Y-149853404D01*
X114543742Y-149763008D01*
X114694065Y-149700742D01*
X114853646Y-149669000D01*
X115016354Y-149669000D01*
X115175935Y-149700742D01*
G37*
G36*
X112635935Y-149700742D02*
G01*
X112786258Y-149763008D01*
X112921545Y-149853404D01*
X113036596Y-149968455D01*
X113126992Y-150103742D01*
X113189258Y-150254065D01*
X113221000Y-150413646D01*
X113221000Y-150576354D01*
X113189258Y-150735935D01*
X113126992Y-150886258D01*
X113036596Y-151021545D01*
X112921545Y-151136596D01*
X112786258Y-151226992D01*
X112635935Y-151289258D01*
X112476354Y-151321000D01*
X112313646Y-151321000D01*
X112154065Y-151289258D01*
X112003742Y-151226992D01*
X111868455Y-151136596D01*
X111753404Y-151021545D01*
X111663008Y-150886258D01*
X111600742Y-150735935D01*
X111569000Y-150576354D01*
X111569000Y-150413646D01*
X111600742Y-150254065D01*
X111663008Y-150103742D01*
X111753404Y-149968455D01*
X111868455Y-149853404D01*
X112003742Y-149763008D01*
X112154065Y-149700742D01*
X112313646Y-149669000D01*
X112476354Y-149669000D01*
X112635935Y-149700742D01*
G37*
G36*
X107555935Y-149700742D02*
G01*
X107706258Y-149763008D01*
X107841545Y-149853404D01*
X107956596Y-149968455D01*
X108046992Y-150103742D01*
X108109258Y-150254065D01*
X108141000Y-150413646D01*
X108141000Y-150576354D01*
X108109258Y-150735935D01*
X108046992Y-150886258D01*
X107956596Y-151021545D01*
X107841545Y-151136596D01*
X107706258Y-151226992D01*
X107555935Y-151289258D01*
X107396354Y-151321000D01*
X107233646Y-151321000D01*
X107074065Y-151289258D01*
X106923742Y-151226992D01*
X106788455Y-151136596D01*
X106673404Y-151021545D01*
X106583008Y-150886258D01*
X106520742Y-150735935D01*
X106489000Y-150576354D01*
X106489000Y-150413646D01*
X106520742Y-150254065D01*
X106583008Y-150103742D01*
X106673404Y-149968455D01*
X106788455Y-149853404D01*
X106923742Y-149763008D01*
X107074065Y-149700742D01*
X107233646Y-149669000D01*
X107396354Y-149669000D01*
X107555935Y-149700742D01*
G37*
G36*
X105015935Y-149700742D02*
G01*
X105166258Y-149763008D01*
X105301545Y-149853404D01*
X105416596Y-149968455D01*
X105506992Y-150103742D01*
X105569258Y-150254065D01*
X105601000Y-150413646D01*
X105601000Y-150576354D01*
X105569258Y-150735935D01*
X105506992Y-150886258D01*
X105416596Y-151021545D01*
X105301545Y-151136596D01*
X105166258Y-151226992D01*
X105015935Y-151289258D01*
X104856354Y-151321000D01*
X104693646Y-151321000D01*
X104534065Y-151289258D01*
X104383742Y-151226992D01*
X104248455Y-151136596D01*
X104133404Y-151021545D01*
X104043008Y-150886258D01*
X103980742Y-150735935D01*
X103949000Y-150576354D01*
X103949000Y-150413646D01*
X103980742Y-150254065D01*
X104043008Y-150103742D01*
X104133404Y-149968455D01*
X104248455Y-149853404D01*
X104383742Y-149763008D01*
X104534065Y-149700742D01*
X104693646Y-149669000D01*
X104856354Y-149669000D01*
X105015935Y-149700742D01*
G37*
G36*
X102475935Y-149700742D02*
G01*
X102626258Y-149763008D01*
X102761545Y-149853404D01*
X102876596Y-149968455D01*
X102966992Y-150103742D01*
X103029258Y-150254065D01*
X103061000Y-150413646D01*
X103061000Y-150576354D01*
X103029258Y-150735935D01*
X102966992Y-150886258D01*
X102876596Y-151021545D01*
X102761545Y-151136596D01*
X102626258Y-151226992D01*
X102475935Y-151289258D01*
X102316354Y-151321000D01*
X102153646Y-151321000D01*
X101994065Y-151289258D01*
X101843742Y-151226992D01*
X101708455Y-151136596D01*
X101593404Y-151021545D01*
X101503008Y-150886258D01*
X101440742Y-150735935D01*
X101409000Y-150576354D01*
X101409000Y-150413646D01*
X101440742Y-150254065D01*
X101503008Y-150103742D01*
X101593404Y-149968455D01*
X101708455Y-149853404D01*
X101843742Y-149763008D01*
X101994065Y-149700742D01*
X102153646Y-149669000D01*
X102316354Y-149669000D01*
X102475935Y-149700742D01*
G37*
G36*
X99935935Y-149700742D02*
G01*
X100086258Y-149763008D01*
X100221545Y-149853404D01*
X100336596Y-149968455D01*
X100426992Y-150103742D01*
X100489258Y-150254065D01*
X100521000Y-150413646D01*
X100521000Y-150576354D01*
X100489258Y-150735935D01*
X100426992Y-150886258D01*
X100336596Y-151021545D01*
X100221545Y-151136596D01*
X100086258Y-151226992D01*
X99935935Y-151289258D01*
X99776354Y-151321000D01*
X99613646Y-151321000D01*
X99454065Y-151289258D01*
X99303742Y-151226992D01*
X99168455Y-151136596D01*
X99053404Y-151021545D01*
X98963008Y-150886258D01*
X98900742Y-150735935D01*
X98869000Y-150576354D01*
X98869000Y-150413646D01*
X98900742Y-150254065D01*
X98963008Y-150103742D01*
X99053404Y-149968455D01*
X99168455Y-149853404D01*
X99303742Y-149763008D01*
X99454065Y-149700742D01*
X99613646Y-149669000D01*
X99776354Y-149669000D01*
X99935935Y-149700742D01*
G37*
G36*
X97395935Y-149700742D02*
G01*
X97546258Y-149763008D01*
X97681545Y-149853404D01*
X97796596Y-149968455D01*
X97886992Y-150103742D01*
X97949258Y-150254065D01*
X97981000Y-150413646D01*
X97981000Y-150576354D01*
X97949258Y-150735935D01*
X97886992Y-150886258D01*
X97796596Y-151021545D01*
X97681545Y-151136596D01*
X97546258Y-151226992D01*
X97395935Y-151289258D01*
X97236354Y-151321000D01*
X97073646Y-151321000D01*
X96914065Y-151289258D01*
X96763742Y-151226992D01*
X96628455Y-151136596D01*
X96513404Y-151021545D01*
X96423008Y-150886258D01*
X96360742Y-150735935D01*
X96329000Y-150576354D01*
X96329000Y-150413646D01*
X96360742Y-150254065D01*
X96423008Y-150103742D01*
X96513404Y-149968455D01*
X96628455Y-149853404D01*
X96763742Y-149763008D01*
X96914065Y-149700742D01*
X97073646Y-149669000D01*
X97236354Y-149669000D01*
X97395935Y-149700742D01*
G37*
G36*
X94855935Y-149700742D02*
G01*
X95006258Y-149763008D01*
X95141545Y-149853404D01*
X95256596Y-149968455D01*
X95346992Y-150103742D01*
X95409258Y-150254065D01*
X95441000Y-150413646D01*
X95441000Y-150576354D01*
X95409258Y-150735935D01*
X95346992Y-150886258D01*
X95256596Y-151021545D01*
X95141545Y-151136596D01*
X95006258Y-151226992D01*
X94855935Y-151289258D01*
X94696354Y-151321000D01*
X94533646Y-151321000D01*
X94374065Y-151289258D01*
X94223742Y-151226992D01*
X94088455Y-151136596D01*
X93973404Y-151021545D01*
X93883008Y-150886258D01*
X93820742Y-150735935D01*
X93789000Y-150576354D01*
X93789000Y-150413646D01*
X93820742Y-150254065D01*
X93883008Y-150103742D01*
X93973404Y-149968455D01*
X94088455Y-149853404D01*
X94223742Y-149763008D01*
X94374065Y-149700742D01*
X94533646Y-149669000D01*
X94696354Y-149669000D01*
X94855935Y-149700742D01*
G37*
G36*
X92315935Y-149700742D02*
G01*
X92466258Y-149763008D01*
X92601545Y-149853404D01*
X92716596Y-149968455D01*
X92806992Y-150103742D01*
X92869258Y-150254065D01*
X92901000Y-150413646D01*
X92901000Y-150576354D01*
X92869258Y-150735935D01*
X92806992Y-150886258D01*
X92716596Y-151021545D01*
X92601545Y-151136596D01*
X92466258Y-151226992D01*
X92315935Y-151289258D01*
X92156354Y-151321000D01*
X91993646Y-151321000D01*
X91834065Y-151289258D01*
X91683742Y-151226992D01*
X91548455Y-151136596D01*
X91433404Y-151021545D01*
X91343008Y-150886258D01*
X91280742Y-150735935D01*
X91249000Y-150576354D01*
X91249000Y-150413646D01*
X91280742Y-150254065D01*
X91343008Y-150103742D01*
X91433404Y-149968455D01*
X91548455Y-149853404D01*
X91683742Y-149763008D01*
X91834065Y-149700742D01*
X91993646Y-149669000D01*
X92156354Y-149669000D01*
X92315935Y-149700742D01*
G37*
G36*
X89775935Y-149700742D02*
G01*
X89926258Y-149763008D01*
X90061545Y-149853404D01*
X90176596Y-149968455D01*
X90266992Y-150103742D01*
X90329258Y-150254065D01*
X90361000Y-150413646D01*
X90361000Y-150576354D01*
X90329258Y-150735935D01*
X90266992Y-150886258D01*
X90176596Y-151021545D01*
X90061545Y-151136596D01*
X89926258Y-151226992D01*
X89775935Y-151289258D01*
X89616354Y-151321000D01*
X89453646Y-151321000D01*
X89294065Y-151289258D01*
X89143742Y-151226992D01*
X89008455Y-151136596D01*
X88893404Y-151021545D01*
X88803008Y-150886258D01*
X88740742Y-150735935D01*
X88709000Y-150576354D01*
X88709000Y-150413646D01*
X88740742Y-150254065D01*
X88803008Y-150103742D01*
X88893404Y-149968455D01*
X89008455Y-149853404D01*
X89143742Y-149763008D01*
X89294065Y-149700742D01*
X89453646Y-149669000D01*
X89616354Y-149669000D01*
X89775935Y-149700742D01*
G37*
G36*
X148195935Y-149700742D02*
G01*
X148346258Y-149763008D01*
X148481545Y-149853404D01*
X148596596Y-149968455D01*
X148686992Y-150103742D01*
X148749258Y-150254065D01*
X148781000Y-150413646D01*
X148781000Y-150576354D01*
X148749258Y-150735935D01*
X148686992Y-150886258D01*
X148596596Y-151021545D01*
X148481545Y-151136596D01*
X148346258Y-151226992D01*
X148195935Y-151289258D01*
X148036354Y-151321000D01*
X147873646Y-151321000D01*
X147714065Y-151289258D01*
X147563742Y-151226992D01*
X147428455Y-151136596D01*
X147313404Y-151021545D01*
X147223008Y-150886258D01*
X147160742Y-150735935D01*
X147129000Y-150576354D01*
X147129000Y-150413646D01*
X147160742Y-150254065D01*
X147223008Y-150103742D01*
X147313404Y-149968455D01*
X147428455Y-149853404D01*
X147563742Y-149763008D01*
X147714065Y-149700742D01*
X147873646Y-149669000D01*
X148036354Y-149669000D01*
X148195935Y-149700742D01*
G37*
G36*
X165975935Y-149700742D02*
G01*
X166126258Y-149763008D01*
X166261545Y-149853404D01*
X166376596Y-149968455D01*
X166466992Y-150103742D01*
X166529258Y-150254065D01*
X166561000Y-150413646D01*
X166561000Y-150576354D01*
X166529258Y-150735935D01*
X166466992Y-150886258D01*
X166376596Y-151021545D01*
X166261545Y-151136596D01*
X166126258Y-151226992D01*
X165975935Y-151289258D01*
X165816354Y-151321000D01*
X165653646Y-151321000D01*
X165494065Y-151289258D01*
X165343742Y-151226992D01*
X165208455Y-151136596D01*
X165093404Y-151021545D01*
X165003008Y-150886258D01*
X164940742Y-150735935D01*
X164909000Y-150576354D01*
X164909000Y-150413646D01*
X164940742Y-150254065D01*
X165003008Y-150103742D01*
X165093404Y-149968455D01*
X165208455Y-149853404D01*
X165343742Y-149763008D01*
X165494065Y-149700742D01*
X165653646Y-149669000D01*
X165816354Y-149669000D01*
X165975935Y-149700742D01*
G37*
G36*
X130415935Y-149700742D02*
G01*
X130566258Y-149763008D01*
X130701545Y-149853404D01*
X130816596Y-149968455D01*
X130906992Y-150103742D01*
X130969258Y-150254065D01*
X131001000Y-150413646D01*
X131001000Y-150576354D01*
X130969258Y-150735935D01*
X130906992Y-150886258D01*
X130816596Y-151021545D01*
X130701545Y-151136596D01*
X130566258Y-151226992D01*
X130415935Y-151289258D01*
X130256354Y-151321000D01*
X130093646Y-151321000D01*
X129934065Y-151289258D01*
X129783742Y-151226992D01*
X129648455Y-151136596D01*
X129533404Y-151021545D01*
X129443008Y-150886258D01*
X129380742Y-150735935D01*
X129349000Y-150576354D01*
X129349000Y-150413646D01*
X129380742Y-150254065D01*
X129443008Y-150103742D01*
X129533404Y-149968455D01*
X129648455Y-149853404D01*
X129783742Y-149763008D01*
X129934065Y-149700742D01*
X130093646Y-149669000D01*
X130256354Y-149669000D01*
X130415935Y-149700742D01*
G37*
G36*
X132955935Y-149700742D02*
G01*
X133106258Y-149763008D01*
X133241545Y-149853404D01*
X133356596Y-149968455D01*
X133446992Y-150103742D01*
X133509258Y-150254065D01*
X133541000Y-150413646D01*
X133541000Y-150576354D01*
X133509258Y-150735935D01*
X133446992Y-150886258D01*
X133356596Y-151021545D01*
X133241545Y-151136596D01*
X133106258Y-151226992D01*
X132955935Y-151289258D01*
X132796354Y-151321000D01*
X132633646Y-151321000D01*
X132474065Y-151289258D01*
X132323742Y-151226992D01*
X132188455Y-151136596D01*
X132073404Y-151021545D01*
X131983008Y-150886258D01*
X131920742Y-150735935D01*
X131889000Y-150576354D01*
X131889000Y-150413646D01*
X131920742Y-150254065D01*
X131983008Y-150103742D01*
X132073404Y-149968455D01*
X132188455Y-149853404D01*
X132323742Y-149763008D01*
X132474065Y-149700742D01*
X132633646Y-149669000D01*
X132796354Y-149669000D01*
X132955935Y-149700742D01*
G37*
G36*
X135495935Y-149700742D02*
G01*
X135646258Y-149763008D01*
X135781545Y-149853404D01*
X135896596Y-149968455D01*
X135986992Y-150103742D01*
X136049258Y-150254065D01*
X136081000Y-150413646D01*
X136081000Y-150576354D01*
X136049258Y-150735935D01*
X135986992Y-150886258D01*
X135896596Y-151021545D01*
X135781545Y-151136596D01*
X135646258Y-151226992D01*
X135495935Y-151289258D01*
X135336354Y-151321000D01*
X135173646Y-151321000D01*
X135014065Y-151289258D01*
X134863742Y-151226992D01*
X134728455Y-151136596D01*
X134613404Y-151021545D01*
X134523008Y-150886258D01*
X134460742Y-150735935D01*
X134429000Y-150576354D01*
X134429000Y-150413646D01*
X134460742Y-150254065D01*
X134523008Y-150103742D01*
X134613404Y-149968455D01*
X134728455Y-149853404D01*
X134863742Y-149763008D01*
X135014065Y-149700742D01*
X135173646Y-149669000D01*
X135336354Y-149669000D01*
X135495935Y-149700742D01*
G37*
G36*
X138035935Y-149700742D02*
G01*
X138186258Y-149763008D01*
X138321545Y-149853404D01*
X138436596Y-149968455D01*
X138526992Y-150103742D01*
X138589258Y-150254065D01*
X138621000Y-150413646D01*
X138621000Y-150576354D01*
X138589258Y-150735935D01*
X138526992Y-150886258D01*
X138436596Y-151021545D01*
X138321545Y-151136596D01*
X138186258Y-151226992D01*
X138035935Y-151289258D01*
X137876354Y-151321000D01*
X137713646Y-151321000D01*
X137554065Y-151289258D01*
X137403742Y-151226992D01*
X137268455Y-151136596D01*
X137153404Y-151021545D01*
X137063008Y-150886258D01*
X137000742Y-150735935D01*
X136969000Y-150576354D01*
X136969000Y-150413646D01*
X137000742Y-150254065D01*
X137063008Y-150103742D01*
X137153404Y-149968455D01*
X137268455Y-149853404D01*
X137403742Y-149763008D01*
X137554065Y-149700742D01*
X137713646Y-149669000D01*
X137876354Y-149669000D01*
X138035935Y-149700742D01*
G37*
G36*
X140575935Y-149700742D02*
G01*
X140726258Y-149763008D01*
X140861545Y-149853404D01*
X140976596Y-149968455D01*
X141066992Y-150103742D01*
X141129258Y-150254065D01*
X141161000Y-150413646D01*
X141161000Y-150576354D01*
X141129258Y-150735935D01*
X141066992Y-150886258D01*
X140976596Y-151021545D01*
X140861545Y-151136596D01*
X140726258Y-151226992D01*
X140575935Y-151289258D01*
X140416354Y-151321000D01*
X140253646Y-151321000D01*
X140094065Y-151289258D01*
X139943742Y-151226992D01*
X139808455Y-151136596D01*
X139693404Y-151021545D01*
X139603008Y-150886258D01*
X139540742Y-150735935D01*
X139509000Y-150576354D01*
X139509000Y-150413646D01*
X139540742Y-150254065D01*
X139603008Y-150103742D01*
X139693404Y-149968455D01*
X139808455Y-149853404D01*
X139943742Y-149763008D01*
X140094065Y-149700742D01*
X140253646Y-149669000D01*
X140416354Y-149669000D01*
X140575935Y-149700742D01*
G37*
G36*
X143115935Y-149700742D02*
G01*
X143266258Y-149763008D01*
X143401545Y-149853404D01*
X143516596Y-149968455D01*
X143606992Y-150103742D01*
X143669258Y-150254065D01*
X143701000Y-150413646D01*
X143701000Y-150576354D01*
X143669258Y-150735935D01*
X143606992Y-150886258D01*
X143516596Y-151021545D01*
X143401545Y-151136596D01*
X143266258Y-151226992D01*
X143115935Y-151289258D01*
X142956354Y-151321000D01*
X142793646Y-151321000D01*
X142634065Y-151289258D01*
X142483742Y-151226992D01*
X142348455Y-151136596D01*
X142233404Y-151021545D01*
X142143008Y-150886258D01*
X142080742Y-150735935D01*
X142049000Y-150576354D01*
X142049000Y-150413646D01*
X142080742Y-150254065D01*
X142143008Y-150103742D01*
X142233404Y-149968455D01*
X142348455Y-149853404D01*
X142483742Y-149763008D01*
X142634065Y-149700742D01*
X142793646Y-149669000D01*
X142956354Y-149669000D01*
X143115935Y-149700742D01*
G37*
G36*
X145655935Y-149700742D02*
G01*
X145806258Y-149763008D01*
X145941545Y-149853404D01*
X146056596Y-149968455D01*
X146146992Y-150103742D01*
X146209258Y-150254065D01*
X146241000Y-150413646D01*
X146241000Y-150576354D01*
X146209258Y-150735935D01*
X146146992Y-150886258D01*
X146056596Y-151021545D01*
X145941545Y-151136596D01*
X145806258Y-151226992D01*
X145655935Y-151289258D01*
X145496354Y-151321000D01*
X145333646Y-151321000D01*
X145174065Y-151289258D01*
X145023742Y-151226992D01*
X144888455Y-151136596D01*
X144773404Y-151021545D01*
X144683008Y-150886258D01*
X144620742Y-150735935D01*
X144589000Y-150576354D01*
X144589000Y-150413646D01*
X144620742Y-150254065D01*
X144683008Y-150103742D01*
X144773404Y-149968455D01*
X144888455Y-149853404D01*
X145023742Y-149763008D01*
X145174065Y-149700742D01*
X145333646Y-149669000D01*
X145496354Y-149669000D01*
X145655935Y-149700742D01*
G37*
G36*
X150735935Y-149700742D02*
G01*
X150886258Y-149763008D01*
X151021545Y-149853404D01*
X151136596Y-149968455D01*
X151226992Y-150103742D01*
X151289258Y-150254065D01*
X151321000Y-150413646D01*
X151321000Y-150576354D01*
X151289258Y-150735935D01*
X151226992Y-150886258D01*
X151136596Y-151021545D01*
X151021545Y-151136596D01*
X150886258Y-151226992D01*
X150735935Y-151289258D01*
X150576354Y-151321000D01*
X150413646Y-151321000D01*
X150254065Y-151289258D01*
X150103742Y-151226992D01*
X149968455Y-151136596D01*
X149853404Y-151021545D01*
X149763008Y-150886258D01*
X149700742Y-150735935D01*
X149669000Y-150576354D01*
X149669000Y-150413646D01*
X149700742Y-150254065D01*
X149763008Y-150103742D01*
X149853404Y-149968455D01*
X149968455Y-149853404D01*
X150103742Y-149763008D01*
X150254065Y-149700742D01*
X150413646Y-149669000D01*
X150576354Y-149669000D01*
X150735935Y-149700742D01*
G37*
G36*
X127875935Y-149700742D02*
G01*
X128026258Y-149763008D01*
X128161545Y-149853404D01*
X128276596Y-149968455D01*
X128366992Y-150103742D01*
X128429258Y-150254065D01*
X128461000Y-150413646D01*
X128461000Y-150576354D01*
X128429258Y-150735935D01*
X128366992Y-150886258D01*
X128276596Y-151021545D01*
X128161545Y-151136596D01*
X128026258Y-151226992D01*
X127875935Y-151289258D01*
X127716354Y-151321000D01*
X127553646Y-151321000D01*
X127394065Y-151289258D01*
X127243742Y-151226992D01*
X127108455Y-151136596D01*
X126993404Y-151021545D01*
X126903008Y-150886258D01*
X126840742Y-150735935D01*
X126809000Y-150576354D01*
X126809000Y-150413646D01*
X126840742Y-150254065D01*
X126903008Y-150103742D01*
X126993404Y-149968455D01*
X127108455Y-149853404D01*
X127243742Y-149763008D01*
X127394065Y-149700742D01*
X127553646Y-149669000D01*
X127716354Y-149669000D01*
X127875935Y-149700742D01*
G37*
G36*
X153275935Y-149700742D02*
G01*
X153426258Y-149763008D01*
X153561545Y-149853404D01*
X153676596Y-149968455D01*
X153766992Y-150103742D01*
X153829258Y-150254065D01*
X153861000Y-150413646D01*
X153861000Y-150576354D01*
X153829258Y-150735935D01*
X153766992Y-150886258D01*
X153676596Y-151021545D01*
X153561545Y-151136596D01*
X153426258Y-151226992D01*
X153275935Y-151289258D01*
X153116354Y-151321000D01*
X152953646Y-151321000D01*
X152794065Y-151289258D01*
X152643742Y-151226992D01*
X152508455Y-151136596D01*
X152393404Y-151021545D01*
X152303008Y-150886258D01*
X152240742Y-150735935D01*
X152209000Y-150576354D01*
X152209000Y-150413646D01*
X152240742Y-150254065D01*
X152303008Y-150103742D01*
X152393404Y-149968455D01*
X152508455Y-149853404D01*
X152643742Y-149763008D01*
X152794065Y-149700742D01*
X152953646Y-149669000D01*
X153116354Y-149669000D01*
X153275935Y-149700742D01*
G37*
G36*
X155815935Y-149700742D02*
G01*
X155966258Y-149763008D01*
X156101545Y-149853404D01*
X156216596Y-149968455D01*
X156306992Y-150103742D01*
X156369258Y-150254065D01*
X156401000Y-150413646D01*
X156401000Y-150576354D01*
X156369258Y-150735935D01*
X156306992Y-150886258D01*
X156216596Y-151021545D01*
X156101545Y-151136596D01*
X155966258Y-151226992D01*
X155815935Y-151289258D01*
X155656354Y-151321000D01*
X155493646Y-151321000D01*
X155334065Y-151289258D01*
X155183742Y-151226992D01*
X155048455Y-151136596D01*
X154933404Y-151021545D01*
X154843008Y-150886258D01*
X154780742Y-150735935D01*
X154749000Y-150576354D01*
X154749000Y-150413646D01*
X154780742Y-150254065D01*
X154843008Y-150103742D01*
X154933404Y-149968455D01*
X155048455Y-149853404D01*
X155183742Y-149763008D01*
X155334065Y-149700742D01*
X155493646Y-149669000D01*
X155656354Y-149669000D01*
X155815935Y-149700742D01*
G37*
G36*
X158355935Y-149700742D02*
G01*
X158506258Y-149763008D01*
X158641545Y-149853404D01*
X158756596Y-149968455D01*
X158846992Y-150103742D01*
X158909258Y-150254065D01*
X158941000Y-150413646D01*
X158941000Y-150576354D01*
X158909258Y-150735935D01*
X158846992Y-150886258D01*
X158756596Y-151021545D01*
X158641545Y-151136596D01*
X158506258Y-151226992D01*
X158355935Y-151289258D01*
X158196354Y-151321000D01*
X158033646Y-151321000D01*
X157874065Y-151289258D01*
X157723742Y-151226992D01*
X157588455Y-151136596D01*
X157473404Y-151021545D01*
X157383008Y-150886258D01*
X157320742Y-150735935D01*
X157289000Y-150576354D01*
X157289000Y-150413646D01*
X157320742Y-150254065D01*
X157383008Y-150103742D01*
X157473404Y-149968455D01*
X157588455Y-149853404D01*
X157723742Y-149763008D01*
X157874065Y-149700742D01*
X158033646Y-149669000D01*
X158196354Y-149669000D01*
X158355935Y-149700742D01*
G37*
G36*
X160895935Y-149700742D02*
G01*
X161046258Y-149763008D01*
X161181545Y-149853404D01*
X161296596Y-149968455D01*
X161386992Y-150103742D01*
X161449258Y-150254065D01*
X161481000Y-150413646D01*
X161481000Y-150576354D01*
X161449258Y-150735935D01*
X161386992Y-150886258D01*
X161296596Y-151021545D01*
X161181545Y-151136596D01*
X161046258Y-151226992D01*
X160895935Y-151289258D01*
X160736354Y-151321000D01*
X160573646Y-151321000D01*
X160414065Y-151289258D01*
X160263742Y-151226992D01*
X160128455Y-151136596D01*
X160013404Y-151021545D01*
X159923008Y-150886258D01*
X159860742Y-150735935D01*
X159829000Y-150576354D01*
X159829000Y-150413646D01*
X159860742Y-150254065D01*
X159923008Y-150103742D01*
X160013404Y-149968455D01*
X160128455Y-149853404D01*
X160263742Y-149763008D01*
X160414065Y-149700742D01*
X160573646Y-149669000D01*
X160736354Y-149669000D01*
X160895935Y-149700742D01*
G37*
G36*
X163435935Y-149700742D02*
G01*
X163586258Y-149763008D01*
X163721545Y-149853404D01*
X163836596Y-149968455D01*
X163926992Y-150103742D01*
X163989258Y-150254065D01*
X164021000Y-150413646D01*
X164021000Y-150576354D01*
X163989258Y-150735935D01*
X163926992Y-150886258D01*
X163836596Y-151021545D01*
X163721545Y-151136596D01*
X163586258Y-151226992D01*
X163435935Y-151289258D01*
X163276354Y-151321000D01*
X163113646Y-151321000D01*
X162954065Y-151289258D01*
X162803742Y-151226992D01*
X162668455Y-151136596D01*
X162553404Y-151021545D01*
X162463008Y-150886258D01*
X162400742Y-150735935D01*
X162369000Y-150576354D01*
X162369000Y-150413646D01*
X162400742Y-150254065D01*
X162463008Y-150103742D01*
X162553404Y-149968455D01*
X162668455Y-149853404D01*
X162803742Y-149763008D01*
X162954065Y-149700742D01*
X163113646Y-149669000D01*
X163276354Y-149669000D01*
X163435935Y-149700742D01*
G37*
G36*
X84568512Y-144518927D02*
G01*
X84717812Y-144548624D01*
X84881784Y-144616544D01*
X85029354Y-144715147D01*
X85154853Y-144840646D01*
X85253456Y-144988216D01*
X85321376Y-145152188D01*
X85356000Y-145326259D01*
X85356000Y-145503741D01*
X85321376Y-145677812D01*
X85253456Y-145841784D01*
X85154853Y-145989354D01*
X85029354Y-146114853D01*
X84881784Y-146213456D01*
X84717812Y-146281376D01*
X84568512Y-146311073D01*
X84543742Y-146316000D01*
X84366258Y-146316000D01*
X84341488Y-146311073D01*
X84192188Y-146281376D01*
X84028216Y-146213456D01*
X83880646Y-146114853D01*
X83755147Y-145989354D01*
X83656544Y-145841784D01*
X83588624Y-145677812D01*
X83554000Y-145503741D01*
X83554000Y-145326259D01*
X83588624Y-145152188D01*
X83656544Y-144988216D01*
X83755147Y-144840646D01*
X83880646Y-144715147D01*
X84028216Y-144616544D01*
X84192188Y-144548624D01*
X84341488Y-144518927D01*
X84366258Y-144514000D01*
X84543742Y-144514000D01*
X84568512Y-144518927D01*
G37*
G36*
X89775935Y-144620742D02*
G01*
X89926258Y-144683008D01*
X90061545Y-144773404D01*
X90176596Y-144888455D01*
X90266992Y-145023742D01*
X90329258Y-145174065D01*
X90361000Y-145333646D01*
X90361000Y-145496354D01*
X90329258Y-145655935D01*
X90266992Y-145806258D01*
X90176596Y-145941545D01*
X90061545Y-146056596D01*
X89926258Y-146146992D01*
X89775935Y-146209258D01*
X89616354Y-146241000D01*
X89453646Y-146241000D01*
X89294065Y-146209258D01*
X89143742Y-146146992D01*
X89008455Y-146056596D01*
X88893404Y-145941545D01*
X88803008Y-145806258D01*
X88740742Y-145655935D01*
X88709000Y-145496354D01*
X88709000Y-145333646D01*
X88740742Y-145174065D01*
X88803008Y-145023742D01*
X88893404Y-144888455D01*
X89008455Y-144773404D01*
X89143742Y-144683008D01*
X89294065Y-144620742D01*
X89453646Y-144589000D01*
X89616354Y-144589000D01*
X89775935Y-144620742D01*
G37*
G36*
X168515935Y-144620742D02*
G01*
X168666258Y-144683008D01*
X168801545Y-144773404D01*
X168916596Y-144888455D01*
X169006992Y-145023742D01*
X169069258Y-145174065D01*
X169101000Y-145333646D01*
X169101000Y-145496354D01*
X169069258Y-145655935D01*
X169006992Y-145806258D01*
X168916596Y-145941545D01*
X168801545Y-146056596D01*
X168666258Y-146146992D01*
X168515935Y-146209258D01*
X168356354Y-146241000D01*
X168193646Y-146241000D01*
X168034065Y-146209258D01*
X167883742Y-146146992D01*
X167748455Y-146056596D01*
X167633404Y-145941545D01*
X167543008Y-145806258D01*
X167480742Y-145655935D01*
X167449000Y-145496354D01*
X167449000Y-145333646D01*
X167480742Y-145174065D01*
X167543008Y-145023742D01*
X167633404Y-144888455D01*
X167748455Y-144773404D01*
X167883742Y-144683008D01*
X168034065Y-144620742D01*
X168193646Y-144589000D01*
X168356354Y-144589000D01*
X168515935Y-144620742D01*
G37*
G36*
X165975935Y-144620742D02*
G01*
X166126258Y-144683008D01*
X166261545Y-144773404D01*
X166376596Y-144888455D01*
X166466992Y-145023742D01*
X166529258Y-145174065D01*
X166561000Y-145333646D01*
X166561000Y-145496354D01*
X166529258Y-145655935D01*
X166466992Y-145806258D01*
X166376596Y-145941545D01*
X166261545Y-146056596D01*
X166126258Y-146146992D01*
X165975935Y-146209258D01*
X165816354Y-146241000D01*
X165653646Y-146241000D01*
X165494065Y-146209258D01*
X165343742Y-146146992D01*
X165208455Y-146056596D01*
X165093404Y-145941545D01*
X165003008Y-145806258D01*
X164940742Y-145655935D01*
X164909000Y-145496354D01*
X164909000Y-145333646D01*
X164940742Y-145174065D01*
X165003008Y-145023742D01*
X165093404Y-144888455D01*
X165208455Y-144773404D01*
X165343742Y-144683008D01*
X165494065Y-144620742D01*
X165653646Y-144589000D01*
X165816354Y-144589000D01*
X165975935Y-144620742D01*
G37*
G36*
X163435935Y-144620742D02*
G01*
X163586258Y-144683008D01*
X163721545Y-144773404D01*
X163836596Y-144888455D01*
X163926992Y-145023742D01*
X163989258Y-145174065D01*
X164021000Y-145333646D01*
X164021000Y-145496354D01*
X163989258Y-145655935D01*
X163926992Y-145806258D01*
X163836596Y-145941545D01*
X163721545Y-146056596D01*
X163586258Y-146146992D01*
X163435935Y-146209258D01*
X163276354Y-146241000D01*
X163113646Y-146241000D01*
X162954065Y-146209258D01*
X162803742Y-146146992D01*
X162668455Y-146056596D01*
X162553404Y-145941545D01*
X162463008Y-145806258D01*
X162400742Y-145655935D01*
X162369000Y-145496354D01*
X162369000Y-145333646D01*
X162400742Y-145174065D01*
X162463008Y-145023742D01*
X162553404Y-144888455D01*
X162668455Y-144773404D01*
X162803742Y-144683008D01*
X162954065Y-144620742D01*
X163113646Y-144589000D01*
X163276354Y-144589000D01*
X163435935Y-144620742D01*
G37*
G36*
X160895935Y-144620742D02*
G01*
X161046258Y-144683008D01*
X161181545Y-144773404D01*
X161296596Y-144888455D01*
X161386992Y-145023742D01*
X161449258Y-145174065D01*
X161481000Y-145333646D01*
X161481000Y-145496354D01*
X161449258Y-145655935D01*
X161386992Y-145806258D01*
X161296596Y-145941545D01*
X161181545Y-146056596D01*
X161046258Y-146146992D01*
X160895935Y-146209258D01*
X160736354Y-146241000D01*
X160573646Y-146241000D01*
X160414065Y-146209258D01*
X160263742Y-146146992D01*
X160128455Y-146056596D01*
X160013404Y-145941545D01*
X159923008Y-145806258D01*
X159860742Y-145655935D01*
X159829000Y-145496354D01*
X159829000Y-145333646D01*
X159860742Y-145174065D01*
X159923008Y-145023742D01*
X160013404Y-144888455D01*
X160128455Y-144773404D01*
X160263742Y-144683008D01*
X160414065Y-144620742D01*
X160573646Y-144589000D01*
X160736354Y-144589000D01*
X160895935Y-144620742D01*
G37*
G36*
X158355935Y-144620742D02*
G01*
X158506258Y-144683008D01*
X158641545Y-144773404D01*
X158756596Y-144888455D01*
X158846992Y-145023742D01*
X158909258Y-145174065D01*
X158941000Y-145333646D01*
X158941000Y-145496354D01*
X158909258Y-145655935D01*
X158846992Y-145806258D01*
X158756596Y-145941545D01*
X158641545Y-146056596D01*
X158506258Y-146146992D01*
X158355935Y-146209258D01*
X158196354Y-146241000D01*
X158033646Y-146241000D01*
X157874065Y-146209258D01*
X157723742Y-146146992D01*
X157588455Y-146056596D01*
X157473404Y-145941545D01*
X157383008Y-145806258D01*
X157320742Y-145655935D01*
X157289000Y-145496354D01*
X157289000Y-145333646D01*
X157320742Y-145174065D01*
X157383008Y-145023742D01*
X157473404Y-144888455D01*
X157588455Y-144773404D01*
X157723742Y-144683008D01*
X157874065Y-144620742D01*
X158033646Y-144589000D01*
X158196354Y-144589000D01*
X158355935Y-144620742D01*
G37*
G36*
X155815935Y-144620742D02*
G01*
X155966258Y-144683008D01*
X156101545Y-144773404D01*
X156216596Y-144888455D01*
X156306992Y-145023742D01*
X156369258Y-145174065D01*
X156401000Y-145333646D01*
X156401000Y-145496354D01*
X156369258Y-145655935D01*
X156306992Y-145806258D01*
X156216596Y-145941545D01*
X156101545Y-146056596D01*
X155966258Y-146146992D01*
X155815935Y-146209258D01*
X155656354Y-146241000D01*
X155493646Y-146241000D01*
X155334065Y-146209258D01*
X155183742Y-146146992D01*
X155048455Y-146056596D01*
X154933404Y-145941545D01*
X154843008Y-145806258D01*
X154780742Y-145655935D01*
X154749000Y-145496354D01*
X154749000Y-145333646D01*
X154780742Y-145174065D01*
X154843008Y-145023742D01*
X154933404Y-144888455D01*
X155048455Y-144773404D01*
X155183742Y-144683008D01*
X155334065Y-144620742D01*
X155493646Y-144589000D01*
X155656354Y-144589000D01*
X155815935Y-144620742D01*
G37*
G36*
X153275935Y-144620742D02*
G01*
X153426258Y-144683008D01*
X153561545Y-144773404D01*
X153676596Y-144888455D01*
X153766992Y-145023742D01*
X153829258Y-145174065D01*
X153861000Y-145333646D01*
X153861000Y-145496354D01*
X153829258Y-145655935D01*
X153766992Y-145806258D01*
X153676596Y-145941545D01*
X153561545Y-146056596D01*
X153426258Y-146146992D01*
X153275935Y-146209258D01*
X153116354Y-146241000D01*
X152953646Y-146241000D01*
X152794065Y-146209258D01*
X152643742Y-146146992D01*
X152508455Y-146056596D01*
X152393404Y-145941545D01*
X152303008Y-145806258D01*
X152240742Y-145655935D01*
X152209000Y-145496354D01*
X152209000Y-145333646D01*
X152240742Y-145174065D01*
X152303008Y-145023742D01*
X152393404Y-144888455D01*
X152508455Y-144773404D01*
X152643742Y-144683008D01*
X152794065Y-144620742D01*
X152953646Y-144589000D01*
X153116354Y-144589000D01*
X153275935Y-144620742D01*
G37*
G36*
X150735935Y-144620742D02*
G01*
X150886258Y-144683008D01*
X151021545Y-144773404D01*
X151136596Y-144888455D01*
X151226992Y-145023742D01*
X151289258Y-145174065D01*
X151321000Y-145333646D01*
X151321000Y-145496354D01*
X151289258Y-145655935D01*
X151226992Y-145806258D01*
X151136596Y-145941545D01*
X151021545Y-146056596D01*
X150886258Y-146146992D01*
X150735935Y-146209258D01*
X150576354Y-146241000D01*
X150413646Y-146241000D01*
X150254065Y-146209258D01*
X150103742Y-146146992D01*
X149968455Y-146056596D01*
X149853404Y-145941545D01*
X149763008Y-145806258D01*
X149700742Y-145655935D01*
X149669000Y-145496354D01*
X149669000Y-145333646D01*
X149700742Y-145174065D01*
X149763008Y-145023742D01*
X149853404Y-144888455D01*
X149968455Y-144773404D01*
X150103742Y-144683008D01*
X150254065Y-144620742D01*
X150413646Y-144589000D01*
X150576354Y-144589000D01*
X150735935Y-144620742D01*
G37*
G36*
X148195935Y-144620742D02*
G01*
X148346258Y-144683008D01*
X148481545Y-144773404D01*
X148596596Y-144888455D01*
X148686992Y-145023742D01*
X148749258Y-145174065D01*
X148781000Y-145333646D01*
X148781000Y-145496354D01*
X148749258Y-145655935D01*
X148686992Y-145806258D01*
X148596596Y-145941545D01*
X148481545Y-146056596D01*
X148346258Y-146146992D01*
X148195935Y-146209258D01*
X148036354Y-146241000D01*
X147873646Y-146241000D01*
X147714065Y-146209258D01*
X147563742Y-146146992D01*
X147428455Y-146056596D01*
X147313404Y-145941545D01*
X147223008Y-145806258D01*
X147160742Y-145655935D01*
X147129000Y-145496354D01*
X147129000Y-145333646D01*
X147160742Y-145174065D01*
X147223008Y-145023742D01*
X147313404Y-144888455D01*
X147428455Y-144773404D01*
X147563742Y-144683008D01*
X147714065Y-144620742D01*
X147873646Y-144589000D01*
X148036354Y-144589000D01*
X148195935Y-144620742D01*
G37*
G36*
X145655935Y-144620742D02*
G01*
X145806258Y-144683008D01*
X145941545Y-144773404D01*
X146056596Y-144888455D01*
X146146992Y-145023742D01*
X146209258Y-145174065D01*
X146241000Y-145333646D01*
X146241000Y-145496354D01*
X146209258Y-145655935D01*
X146146992Y-145806258D01*
X146056596Y-145941545D01*
X145941545Y-146056596D01*
X145806258Y-146146992D01*
X145655935Y-146209258D01*
X145496354Y-146241000D01*
X145333646Y-146241000D01*
X145174065Y-146209258D01*
X145023742Y-146146992D01*
X144888455Y-146056596D01*
X144773404Y-145941545D01*
X144683008Y-145806258D01*
X144620742Y-145655935D01*
X144589000Y-145496354D01*
X144589000Y-145333646D01*
X144620742Y-145174065D01*
X144683008Y-145023742D01*
X144773404Y-144888455D01*
X144888455Y-144773404D01*
X145023742Y-144683008D01*
X145174065Y-144620742D01*
X145333646Y-144589000D01*
X145496354Y-144589000D01*
X145655935Y-144620742D01*
G37*
G36*
X143115935Y-144620742D02*
G01*
X143266258Y-144683008D01*
X143401545Y-144773404D01*
X143516596Y-144888455D01*
X143606992Y-145023742D01*
X143669258Y-145174065D01*
X143701000Y-145333646D01*
X143701000Y-145496354D01*
X143669258Y-145655935D01*
X143606992Y-145806258D01*
X143516596Y-145941545D01*
X143401545Y-146056596D01*
X143266258Y-146146992D01*
X143115935Y-146209258D01*
X142956354Y-146241000D01*
X142793646Y-146241000D01*
X142634065Y-146209258D01*
X142483742Y-146146992D01*
X142348455Y-146056596D01*
X142233404Y-145941545D01*
X142143008Y-145806258D01*
X142080742Y-145655935D01*
X142049000Y-145496354D01*
X142049000Y-145333646D01*
X142080742Y-145174065D01*
X142143008Y-145023742D01*
X142233404Y-144888455D01*
X142348455Y-144773404D01*
X142483742Y-144683008D01*
X142634065Y-144620742D01*
X142793646Y-144589000D01*
X142956354Y-144589000D01*
X143115935Y-144620742D01*
G37*
G36*
X140575935Y-144620742D02*
G01*
X140726258Y-144683008D01*
X140861545Y-144773404D01*
X140976596Y-144888455D01*
X141066992Y-145023742D01*
X141129258Y-145174065D01*
X141161000Y-145333646D01*
X141161000Y-145496354D01*
X141129258Y-145655935D01*
X141066992Y-145806258D01*
X140976596Y-145941545D01*
X140861545Y-146056596D01*
X140726258Y-146146992D01*
X140575935Y-146209258D01*
X140416354Y-146241000D01*
X140253646Y-146241000D01*
X140094065Y-146209258D01*
X139943742Y-146146992D01*
X139808455Y-146056596D01*
X139693404Y-145941545D01*
X139603008Y-145806258D01*
X139540742Y-145655935D01*
X139509000Y-145496354D01*
X139509000Y-145333646D01*
X139540742Y-145174065D01*
X139603008Y-145023742D01*
X139693404Y-144888455D01*
X139808455Y-144773404D01*
X139943742Y-144683008D01*
X140094065Y-144620742D01*
X140253646Y-144589000D01*
X140416354Y-144589000D01*
X140575935Y-144620742D01*
G37*
G36*
X138035935Y-144620742D02*
G01*
X138186258Y-144683008D01*
X138321545Y-144773404D01*
X138436596Y-144888455D01*
X138526992Y-145023742D01*
X138589258Y-145174065D01*
X138621000Y-145333646D01*
X138621000Y-145496354D01*
X138589258Y-145655935D01*
X138526992Y-145806258D01*
X138436596Y-145941545D01*
X138321545Y-146056596D01*
X138186258Y-146146992D01*
X138035935Y-146209258D01*
X137876354Y-146241000D01*
X137713646Y-146241000D01*
X137554065Y-146209258D01*
X137403742Y-146146992D01*
X137268455Y-146056596D01*
X137153404Y-145941545D01*
X137063008Y-145806258D01*
X137000742Y-145655935D01*
X136969000Y-145496354D01*
X136969000Y-145333646D01*
X137000742Y-145174065D01*
X137063008Y-145023742D01*
X137153404Y-144888455D01*
X137268455Y-144773404D01*
X137403742Y-144683008D01*
X137554065Y-144620742D01*
X137713646Y-144589000D01*
X137876354Y-144589000D01*
X138035935Y-144620742D01*
G37*
G36*
X135495935Y-144620742D02*
G01*
X135646258Y-144683008D01*
X135781545Y-144773404D01*
X135896596Y-144888455D01*
X135986992Y-145023742D01*
X136049258Y-145174065D01*
X136081000Y-145333646D01*
X136081000Y-145496354D01*
X136049258Y-145655935D01*
X135986992Y-145806258D01*
X135896596Y-145941545D01*
X135781545Y-146056596D01*
X135646258Y-146146992D01*
X135495935Y-146209258D01*
X135336354Y-146241000D01*
X135173646Y-146241000D01*
X135014065Y-146209258D01*
X134863742Y-146146992D01*
X134728455Y-146056596D01*
X134613404Y-145941545D01*
X134523008Y-145806258D01*
X134460742Y-145655935D01*
X134429000Y-145496354D01*
X134429000Y-145333646D01*
X134460742Y-145174065D01*
X134523008Y-145023742D01*
X134613404Y-144888455D01*
X134728455Y-144773404D01*
X134863742Y-144683008D01*
X135014065Y-144620742D01*
X135173646Y-144589000D01*
X135336354Y-144589000D01*
X135495935Y-144620742D01*
G37*
G36*
X132955935Y-144620742D02*
G01*
X133106258Y-144683008D01*
X133241545Y-144773404D01*
X133356596Y-144888455D01*
X133446992Y-145023742D01*
X133509258Y-145174065D01*
X133541000Y-145333646D01*
X133541000Y-145496354D01*
X133509258Y-145655935D01*
X133446992Y-145806258D01*
X133356596Y-145941545D01*
X133241545Y-146056596D01*
X133106258Y-146146992D01*
X132955935Y-146209258D01*
X132796354Y-146241000D01*
X132633646Y-146241000D01*
X132474065Y-146209258D01*
X132323742Y-146146992D01*
X132188455Y-146056596D01*
X132073404Y-145941545D01*
X131983008Y-145806258D01*
X131920742Y-145655935D01*
X131889000Y-145496354D01*
X131889000Y-145333646D01*
X131920742Y-145174065D01*
X131983008Y-145023742D01*
X132073404Y-144888455D01*
X132188455Y-144773404D01*
X132323742Y-144683008D01*
X132474065Y-144620742D01*
X132633646Y-144589000D01*
X132796354Y-144589000D01*
X132955935Y-144620742D01*
G37*
G36*
X130415935Y-144620742D02*
G01*
X130566258Y-144683008D01*
X130701545Y-144773404D01*
X130816596Y-144888455D01*
X130906992Y-145023742D01*
X130969258Y-145174065D01*
X131001000Y-145333646D01*
X131001000Y-145496354D01*
X130969258Y-145655935D01*
X130906992Y-145806258D01*
X130816596Y-145941545D01*
X130701545Y-146056596D01*
X130566258Y-146146992D01*
X130415935Y-146209258D01*
X130256354Y-146241000D01*
X130093646Y-146241000D01*
X129934065Y-146209258D01*
X129783742Y-146146992D01*
X129648455Y-146056596D01*
X129533404Y-145941545D01*
X129443008Y-145806258D01*
X129380742Y-145655935D01*
X129349000Y-145496354D01*
X129349000Y-145333646D01*
X129380742Y-145174065D01*
X129443008Y-145023742D01*
X129533404Y-144888455D01*
X129648455Y-144773404D01*
X129783742Y-144683008D01*
X129934065Y-144620742D01*
X130093646Y-144589000D01*
X130256354Y-144589000D01*
X130415935Y-144620742D01*
G37*
G36*
X127875935Y-144620742D02*
G01*
X128026258Y-144683008D01*
X128161545Y-144773404D01*
X128276596Y-144888455D01*
X128366992Y-145023742D01*
X128429258Y-145174065D01*
X128461000Y-145333646D01*
X128461000Y-145496354D01*
X128429258Y-145655935D01*
X128366992Y-145806258D01*
X128276596Y-145941545D01*
X128161545Y-146056596D01*
X128026258Y-146146992D01*
X127875935Y-146209258D01*
X127716354Y-146241000D01*
X127553646Y-146241000D01*
X127394065Y-146209258D01*
X127243742Y-146146992D01*
X127108455Y-146056596D01*
X126993404Y-145941545D01*
X126903008Y-145806258D01*
X126840742Y-145655935D01*
X126809000Y-145496354D01*
X126809000Y-145333646D01*
X126840742Y-145174065D01*
X126903008Y-145023742D01*
X126993404Y-144888455D01*
X127108455Y-144773404D01*
X127243742Y-144683008D01*
X127394065Y-144620742D01*
X127553646Y-144589000D01*
X127716354Y-144589000D01*
X127875935Y-144620742D01*
G37*
G36*
X125335935Y-144620742D02*
G01*
X125486258Y-144683008D01*
X125621545Y-144773404D01*
X125736596Y-144888455D01*
X125826992Y-145023742D01*
X125889258Y-145174065D01*
X125921000Y-145333646D01*
X125921000Y-145496354D01*
X125889258Y-145655935D01*
X125826992Y-145806258D01*
X125736596Y-145941545D01*
X125621545Y-146056596D01*
X125486258Y-146146992D01*
X125335935Y-146209258D01*
X125176354Y-146241000D01*
X125013646Y-146241000D01*
X124854065Y-146209258D01*
X124703742Y-146146992D01*
X124568455Y-146056596D01*
X124453404Y-145941545D01*
X124363008Y-145806258D01*
X124300742Y-145655935D01*
X124269000Y-145496354D01*
X124269000Y-145333646D01*
X124300742Y-145174065D01*
X124363008Y-145023742D01*
X124453404Y-144888455D01*
X124568455Y-144773404D01*
X124703742Y-144683008D01*
X124854065Y-144620742D01*
X125013646Y-144589000D01*
X125176354Y-144589000D01*
X125335935Y-144620742D01*
G37*
G36*
X122795935Y-144620742D02*
G01*
X122946258Y-144683008D01*
X123081545Y-144773404D01*
X123196596Y-144888455D01*
X123286992Y-145023742D01*
X123349258Y-145174065D01*
X123381000Y-145333646D01*
X123381000Y-145496354D01*
X123349258Y-145655935D01*
X123286992Y-145806258D01*
X123196596Y-145941545D01*
X123081545Y-146056596D01*
X122946258Y-146146992D01*
X122795935Y-146209258D01*
X122636354Y-146241000D01*
X122473646Y-146241000D01*
X122314065Y-146209258D01*
X122163742Y-146146992D01*
X122028455Y-146056596D01*
X121913404Y-145941545D01*
X121823008Y-145806258D01*
X121760742Y-145655935D01*
X121729000Y-145496354D01*
X121729000Y-145333646D01*
X121760742Y-145174065D01*
X121823008Y-145023742D01*
X121913404Y-144888455D01*
X122028455Y-144773404D01*
X122163742Y-144683008D01*
X122314065Y-144620742D01*
X122473646Y-144589000D01*
X122636354Y-144589000D01*
X122795935Y-144620742D01*
G37*
G36*
X120255935Y-144620742D02*
G01*
X120406258Y-144683008D01*
X120541545Y-144773404D01*
X120656596Y-144888455D01*
X120746992Y-145023742D01*
X120809258Y-145174065D01*
X120841000Y-145333646D01*
X120841000Y-145496354D01*
X120809258Y-145655935D01*
X120746992Y-145806258D01*
X120656596Y-145941545D01*
X120541545Y-146056596D01*
X120406258Y-146146992D01*
X120255935Y-146209258D01*
X120096354Y-146241000D01*
X119933646Y-146241000D01*
X119774065Y-146209258D01*
X119623742Y-146146992D01*
X119488455Y-146056596D01*
X119373404Y-145941545D01*
X119283008Y-145806258D01*
X119220742Y-145655935D01*
X119189000Y-145496354D01*
X119189000Y-145333646D01*
X119220742Y-145174065D01*
X119283008Y-145023742D01*
X119373404Y-144888455D01*
X119488455Y-144773404D01*
X119623742Y-144683008D01*
X119774065Y-144620742D01*
X119933646Y-144589000D01*
X120096354Y-144589000D01*
X120255935Y-144620742D01*
G37*
G36*
X117715935Y-144620742D02*
G01*
X117866258Y-144683008D01*
X118001545Y-144773404D01*
X118116596Y-144888455D01*
X118206992Y-145023742D01*
X118269258Y-145174065D01*
X118301000Y-145333646D01*
X118301000Y-145496354D01*
X118269258Y-145655935D01*
X118206992Y-145806258D01*
X118116596Y-145941545D01*
X118001545Y-146056596D01*
X117866258Y-146146992D01*
X117715935Y-146209258D01*
X117556354Y-146241000D01*
X117393646Y-146241000D01*
X117234065Y-146209258D01*
X117083742Y-146146992D01*
X116948455Y-146056596D01*
X116833404Y-145941545D01*
X116743008Y-145806258D01*
X116680742Y-145655935D01*
X116649000Y-145496354D01*
X116649000Y-145333646D01*
X116680742Y-145174065D01*
X116743008Y-145023742D01*
X116833404Y-144888455D01*
X116948455Y-144773404D01*
X117083742Y-144683008D01*
X117234065Y-144620742D01*
X117393646Y-144589000D01*
X117556354Y-144589000D01*
X117715935Y-144620742D01*
G37*
G36*
X115175935Y-144620742D02*
G01*
X115326258Y-144683008D01*
X115461545Y-144773404D01*
X115576596Y-144888455D01*
X115666992Y-145023742D01*
X115729258Y-145174065D01*
X115761000Y-145333646D01*
X115761000Y-145496354D01*
X115729258Y-145655935D01*
X115666992Y-145806258D01*
X115576596Y-145941545D01*
X115461545Y-146056596D01*
X115326258Y-146146992D01*
X115175935Y-146209258D01*
X115016354Y-146241000D01*
X114853646Y-146241000D01*
X114694065Y-146209258D01*
X114543742Y-146146992D01*
X114408455Y-146056596D01*
X114293404Y-145941545D01*
X114203008Y-145806258D01*
X114140742Y-145655935D01*
X114109000Y-145496354D01*
X114109000Y-145333646D01*
X114140742Y-145174065D01*
X114203008Y-145023742D01*
X114293404Y-144888455D01*
X114408455Y-144773404D01*
X114543742Y-144683008D01*
X114694065Y-144620742D01*
X114853646Y-144589000D01*
X115016354Y-144589000D01*
X115175935Y-144620742D01*
G37*
G36*
X112635935Y-144620742D02*
G01*
X112786258Y-144683008D01*
X112921545Y-144773404D01*
X113036596Y-144888455D01*
X113126992Y-145023742D01*
X113189258Y-145174065D01*
X113221000Y-145333646D01*
X113221000Y-145496354D01*
X113189258Y-145655935D01*
X113126992Y-145806258D01*
X113036596Y-145941545D01*
X112921545Y-146056596D01*
X112786258Y-146146992D01*
X112635935Y-146209258D01*
X112476354Y-146241000D01*
X112313646Y-146241000D01*
X112154065Y-146209258D01*
X112003742Y-146146992D01*
X111868455Y-146056596D01*
X111753404Y-145941545D01*
X111663008Y-145806258D01*
X111600742Y-145655935D01*
X111569000Y-145496354D01*
X111569000Y-145333646D01*
X111600742Y-145174065D01*
X111663008Y-145023742D01*
X111753404Y-144888455D01*
X111868455Y-144773404D01*
X112003742Y-144683008D01*
X112154065Y-144620742D01*
X112313646Y-144589000D01*
X112476354Y-144589000D01*
X112635935Y-144620742D01*
G37*
G36*
X110095935Y-144620742D02*
G01*
X110246258Y-144683008D01*
X110381545Y-144773404D01*
X110496596Y-144888455D01*
X110586992Y-145023742D01*
X110649258Y-145174065D01*
X110681000Y-145333646D01*
X110681000Y-145496354D01*
X110649258Y-145655935D01*
X110586992Y-145806258D01*
X110496596Y-145941545D01*
X110381545Y-146056596D01*
X110246258Y-146146992D01*
X110095935Y-146209258D01*
X109936354Y-146241000D01*
X109773646Y-146241000D01*
X109614065Y-146209258D01*
X109463742Y-146146992D01*
X109328455Y-146056596D01*
X109213404Y-145941545D01*
X109123008Y-145806258D01*
X109060742Y-145655935D01*
X109029000Y-145496354D01*
X109029000Y-145333646D01*
X109060742Y-145174065D01*
X109123008Y-145023742D01*
X109213404Y-144888455D01*
X109328455Y-144773404D01*
X109463742Y-144683008D01*
X109614065Y-144620742D01*
X109773646Y-144589000D01*
X109936354Y-144589000D01*
X110095935Y-144620742D01*
G37*
G36*
X105015935Y-144620742D02*
G01*
X105166258Y-144683008D01*
X105301545Y-144773404D01*
X105416596Y-144888455D01*
X105506992Y-145023742D01*
X105569258Y-145174065D01*
X105601000Y-145333646D01*
X105601000Y-145496354D01*
X105569258Y-145655935D01*
X105506992Y-145806258D01*
X105416596Y-145941545D01*
X105301545Y-146056596D01*
X105166258Y-146146992D01*
X105015935Y-146209258D01*
X104856354Y-146241000D01*
X104693646Y-146241000D01*
X104534065Y-146209258D01*
X104383742Y-146146992D01*
X104248455Y-146056596D01*
X104133404Y-145941545D01*
X104043008Y-145806258D01*
X103980742Y-145655935D01*
X103949000Y-145496354D01*
X103949000Y-145333646D01*
X103980742Y-145174065D01*
X104043008Y-145023742D01*
X104133404Y-144888455D01*
X104248455Y-144773404D01*
X104383742Y-144683008D01*
X104534065Y-144620742D01*
X104693646Y-144589000D01*
X104856354Y-144589000D01*
X105015935Y-144620742D01*
G37*
G36*
X102475935Y-144620742D02*
G01*
X102626258Y-144683008D01*
X102761545Y-144773404D01*
X102876596Y-144888455D01*
X102966992Y-145023742D01*
X103029258Y-145174065D01*
X103061000Y-145333646D01*
X103061000Y-145496354D01*
X103029258Y-145655935D01*
X102966992Y-145806258D01*
X102876596Y-145941545D01*
X102761545Y-146056596D01*
X102626258Y-146146992D01*
X102475935Y-146209258D01*
X102316354Y-146241000D01*
X102153646Y-146241000D01*
X101994065Y-146209258D01*
X101843742Y-146146992D01*
X101708455Y-146056596D01*
X101593404Y-145941545D01*
X101503008Y-145806258D01*
X101440742Y-145655935D01*
X101409000Y-145496354D01*
X101409000Y-145333646D01*
X101440742Y-145174065D01*
X101503008Y-145023742D01*
X101593404Y-144888455D01*
X101708455Y-144773404D01*
X101843742Y-144683008D01*
X101994065Y-144620742D01*
X102153646Y-144589000D01*
X102316354Y-144589000D01*
X102475935Y-144620742D01*
G37*
G36*
X99935935Y-144620742D02*
G01*
X100086258Y-144683008D01*
X100221545Y-144773404D01*
X100336596Y-144888455D01*
X100426992Y-145023742D01*
X100489258Y-145174065D01*
X100521000Y-145333646D01*
X100521000Y-145496354D01*
X100489258Y-145655935D01*
X100426992Y-145806258D01*
X100336596Y-145941545D01*
X100221545Y-146056596D01*
X100086258Y-146146992D01*
X99935935Y-146209258D01*
X99776354Y-146241000D01*
X99613646Y-146241000D01*
X99454065Y-146209258D01*
X99303742Y-146146992D01*
X99168455Y-146056596D01*
X99053404Y-145941545D01*
X98963008Y-145806258D01*
X98900742Y-145655935D01*
X98869000Y-145496354D01*
X98869000Y-145333646D01*
X98900742Y-145174065D01*
X98963008Y-145023742D01*
X99053404Y-144888455D01*
X99168455Y-144773404D01*
X99303742Y-144683008D01*
X99454065Y-144620742D01*
X99613646Y-144589000D01*
X99776354Y-144589000D01*
X99935935Y-144620742D01*
G37*
G36*
X97395935Y-144620742D02*
G01*
X97546258Y-144683008D01*
X97681545Y-144773404D01*
X97796596Y-144888455D01*
X97886992Y-145023742D01*
X97949258Y-145174065D01*
X97981000Y-145333646D01*
X97981000Y-145496354D01*
X97949258Y-145655935D01*
X97886992Y-145806258D01*
X97796596Y-145941545D01*
X97681545Y-146056596D01*
X97546258Y-146146992D01*
X97395935Y-146209258D01*
X97236354Y-146241000D01*
X97073646Y-146241000D01*
X96914065Y-146209258D01*
X96763742Y-146146992D01*
X96628455Y-146056596D01*
X96513404Y-145941545D01*
X96423008Y-145806258D01*
X96360742Y-145655935D01*
X96329000Y-145496354D01*
X96329000Y-145333646D01*
X96360742Y-145174065D01*
X96423008Y-145023742D01*
X96513404Y-144888455D01*
X96628455Y-144773404D01*
X96763742Y-144683008D01*
X96914065Y-144620742D01*
X97073646Y-144589000D01*
X97236354Y-144589000D01*
X97395935Y-144620742D01*
G37*
G36*
X94855935Y-144620742D02*
G01*
X95006258Y-144683008D01*
X95141545Y-144773404D01*
X95256596Y-144888455D01*
X95346992Y-145023742D01*
X95409258Y-145174065D01*
X95441000Y-145333646D01*
X95441000Y-145496354D01*
X95409258Y-145655935D01*
X95346992Y-145806258D01*
X95256596Y-145941545D01*
X95141545Y-146056596D01*
X95006258Y-146146992D01*
X94855935Y-146209258D01*
X94696354Y-146241000D01*
X94533646Y-146241000D01*
X94374065Y-146209258D01*
X94223742Y-146146992D01*
X94088455Y-146056596D01*
X93973404Y-145941545D01*
X93883008Y-145806258D01*
X93820742Y-145655935D01*
X93789000Y-145496354D01*
X93789000Y-145333646D01*
X93820742Y-145174065D01*
X93883008Y-145023742D01*
X93973404Y-144888455D01*
X94088455Y-144773404D01*
X94223742Y-144683008D01*
X94374065Y-144620742D01*
X94533646Y-144589000D01*
X94696354Y-144589000D01*
X94855935Y-144620742D01*
G37*
G36*
X92315935Y-144620742D02*
G01*
X92466258Y-144683008D01*
X92601545Y-144773404D01*
X92716596Y-144888455D01*
X92806992Y-145023742D01*
X92869258Y-145174065D01*
X92901000Y-145333646D01*
X92901000Y-145496354D01*
X92869258Y-145655935D01*
X92806992Y-145806258D01*
X92716596Y-145941545D01*
X92601545Y-146056596D01*
X92466258Y-146146992D01*
X92315935Y-146209258D01*
X92156354Y-146241000D01*
X91993646Y-146241000D01*
X91834065Y-146209258D01*
X91683742Y-146146992D01*
X91548455Y-146056596D01*
X91433404Y-145941545D01*
X91343008Y-145806258D01*
X91280742Y-145655935D01*
X91249000Y-145496354D01*
X91249000Y-145333646D01*
X91280742Y-145174065D01*
X91343008Y-145023742D01*
X91433404Y-144888455D01*
X91548455Y-144773404D01*
X91683742Y-144683008D01*
X91834065Y-144620742D01*
X91993646Y-144589000D01*
X92156354Y-144589000D01*
X92315935Y-144620742D01*
G37*
G36*
X107555935Y-144620742D02*
G01*
X107706258Y-144683008D01*
X107841545Y-144773404D01*
X107956596Y-144888455D01*
X108046992Y-145023742D01*
X108109258Y-145174065D01*
X108141000Y-145333646D01*
X108141000Y-145496354D01*
X108109258Y-145655935D01*
X108046992Y-145806258D01*
X107956596Y-145941545D01*
X107841545Y-146056596D01*
X107706258Y-146146992D01*
X107555935Y-146209258D01*
X107396354Y-146241000D01*
X107233646Y-146241000D01*
X107074065Y-146209258D01*
X106923742Y-146146992D01*
X106788455Y-146056596D01*
X106673404Y-145941545D01*
X106583008Y-145806258D01*
X106520742Y-145655935D01*
X106489000Y-145496354D01*
X106489000Y-145333646D01*
X106520742Y-145174065D01*
X106583008Y-145023742D01*
X106673404Y-144888455D01*
X106788455Y-144773404D01*
X106923742Y-144683008D01*
X107074065Y-144620742D01*
X107233646Y-144589000D01*
X107396354Y-144589000D01*
X107555935Y-144620742D01*
G37*
G36*
X84568512Y-141978927D02*
G01*
X84717812Y-142008624D01*
X84881784Y-142076544D01*
X85029354Y-142175147D01*
X85154853Y-142300646D01*
X85253456Y-142448216D01*
X85321376Y-142612188D01*
X85356000Y-142786259D01*
X85356000Y-142963741D01*
X85321376Y-143137812D01*
X85253456Y-143301784D01*
X85154853Y-143449354D01*
X85029354Y-143574853D01*
X84881784Y-143673456D01*
X84717812Y-143741376D01*
X84568512Y-143771073D01*
X84543742Y-143776000D01*
X84366258Y-143776000D01*
X84341488Y-143771073D01*
X84192188Y-143741376D01*
X84028216Y-143673456D01*
X83880646Y-143574853D01*
X83755147Y-143449354D01*
X83656544Y-143301784D01*
X83588624Y-143137812D01*
X83554000Y-142963741D01*
X83554000Y-142786259D01*
X83588624Y-142612188D01*
X83656544Y-142448216D01*
X83755147Y-142300646D01*
X83880646Y-142175147D01*
X84028216Y-142076544D01*
X84192188Y-142008624D01*
X84341488Y-141978927D01*
X84366258Y-141974000D01*
X84543742Y-141974000D01*
X84568512Y-141978927D01*
G37*
G36*
X84568512Y-139438927D02*
G01*
X84717812Y-139468624D01*
X84881784Y-139536544D01*
X85029354Y-139635147D01*
X85154853Y-139760646D01*
X85253456Y-139908216D01*
X85321376Y-140072188D01*
X85356000Y-140246259D01*
X85356000Y-140423741D01*
X85321376Y-140597812D01*
X85253456Y-140761784D01*
X85154853Y-140909354D01*
X85029354Y-141034853D01*
X84881784Y-141133456D01*
X84717812Y-141201376D01*
X84568512Y-141231073D01*
X84543742Y-141236000D01*
X84366258Y-141236000D01*
X84341488Y-141231073D01*
X84192188Y-141201376D01*
X84028216Y-141133456D01*
X83880646Y-141034853D01*
X83755147Y-140909354D01*
X83656544Y-140761784D01*
X83588624Y-140597812D01*
X83554000Y-140423741D01*
X83554000Y-140246259D01*
X83588624Y-140072188D01*
X83656544Y-139908216D01*
X83755147Y-139760646D01*
X83880646Y-139635147D01*
X84028216Y-139536544D01*
X84192188Y-139468624D01*
X84341488Y-139438927D01*
X84366258Y-139434000D01*
X84543742Y-139434000D01*
X84568512Y-139438927D01*
G37*
G36*
X155688512Y-138168927D02*
G01*
X155837812Y-138198624D01*
X156001784Y-138266544D01*
X156149354Y-138365147D01*
X156274853Y-138490646D01*
X156373456Y-138638216D01*
X156441376Y-138802188D01*
X156476000Y-138976259D01*
X156476000Y-139153741D01*
X156441376Y-139327812D01*
X156373456Y-139491784D01*
X156274853Y-139639354D01*
X156149354Y-139764853D01*
X156001784Y-139863456D01*
X155837812Y-139931376D01*
X155688512Y-139961073D01*
X155663742Y-139966000D01*
X155486258Y-139966000D01*
X155461488Y-139961073D01*
X155312188Y-139931376D01*
X155148216Y-139863456D01*
X155000646Y-139764853D01*
X154875147Y-139639354D01*
X154776544Y-139491784D01*
X154708624Y-139327812D01*
X154674000Y-139153741D01*
X154674000Y-138976259D01*
X154708624Y-138802188D01*
X154776544Y-138638216D01*
X154875147Y-138490646D01*
X155000646Y-138365147D01*
X155148216Y-138266544D01*
X155312188Y-138198624D01*
X155461488Y-138168927D01*
X155486258Y-138164000D01*
X155663742Y-138164000D01*
X155688512Y-138168927D01*
G37*
G36*
X130288512Y-138168927D02*
G01*
X130437812Y-138198624D01*
X130601784Y-138266544D01*
X130749354Y-138365147D01*
X130874853Y-138490646D01*
X130973456Y-138638216D01*
X131041376Y-138802188D01*
X131076000Y-138976259D01*
X131076000Y-139153741D01*
X131041376Y-139327812D01*
X130973456Y-139491784D01*
X130874853Y-139639354D01*
X130749354Y-139764853D01*
X130601784Y-139863456D01*
X130437812Y-139931376D01*
X130288512Y-139961073D01*
X130263742Y-139966000D01*
X130086258Y-139966000D01*
X130061488Y-139961073D01*
X129912188Y-139931376D01*
X129748216Y-139863456D01*
X129600646Y-139764853D01*
X129475147Y-139639354D01*
X129376544Y-139491784D01*
X129308624Y-139327812D01*
X129274000Y-139153741D01*
X129274000Y-138976259D01*
X129308624Y-138802188D01*
X129376544Y-138638216D01*
X129475147Y-138490646D01*
X129600646Y-138365147D01*
X129748216Y-138266544D01*
X129912188Y-138198624D01*
X130061488Y-138168927D01*
X130086258Y-138164000D01*
X130263742Y-138164000D01*
X130288512Y-138168927D01*
G37*
G36*
X125208512Y-138168927D02*
G01*
X125357812Y-138198624D01*
X125521784Y-138266544D01*
X125669354Y-138365147D01*
X125794853Y-138490646D01*
X125893456Y-138638216D01*
X125961376Y-138802188D01*
X125996000Y-138976259D01*
X125996000Y-139153741D01*
X125961376Y-139327812D01*
X125893456Y-139491784D01*
X125794853Y-139639354D01*
X125669354Y-139764853D01*
X125521784Y-139863456D01*
X125357812Y-139931376D01*
X125208512Y-139961073D01*
X125183742Y-139966000D01*
X125006258Y-139966000D01*
X124981488Y-139961073D01*
X124832188Y-139931376D01*
X124668216Y-139863456D01*
X124520646Y-139764853D01*
X124395147Y-139639354D01*
X124296544Y-139491784D01*
X124228624Y-139327812D01*
X124194000Y-139153741D01*
X124194000Y-138976259D01*
X124228624Y-138802188D01*
X124296544Y-138638216D01*
X124395147Y-138490646D01*
X124520646Y-138365147D01*
X124668216Y-138266544D01*
X124832188Y-138198624D01*
X124981488Y-138168927D01*
X125006258Y-138164000D01*
X125183742Y-138164000D01*
X125208512Y-138168927D01*
G37*
G36*
X158228512Y-138168927D02*
G01*
X158377812Y-138198624D01*
X158541784Y-138266544D01*
X158689354Y-138365147D01*
X158814853Y-138490646D01*
X158913456Y-138638216D01*
X158981376Y-138802188D01*
X159016000Y-138976259D01*
X159016000Y-139153741D01*
X158981376Y-139327812D01*
X158913456Y-139491784D01*
X158814853Y-139639354D01*
X158689354Y-139764853D01*
X158541784Y-139863456D01*
X158377812Y-139931376D01*
X158228512Y-139961073D01*
X158203742Y-139966000D01*
X158026258Y-139966000D01*
X158001488Y-139961073D01*
X157852188Y-139931376D01*
X157688216Y-139863456D01*
X157540646Y-139764853D01*
X157415147Y-139639354D01*
X157316544Y-139491784D01*
X157248624Y-139327812D01*
X157214000Y-139153741D01*
X157214000Y-138976259D01*
X157248624Y-138802188D01*
X157316544Y-138638216D01*
X157415147Y-138490646D01*
X157540646Y-138365147D01*
X157688216Y-138266544D01*
X157852188Y-138198624D01*
X158001488Y-138168927D01*
X158026258Y-138164000D01*
X158203742Y-138164000D01*
X158228512Y-138168927D01*
G37*
G36*
X140448512Y-138168927D02*
G01*
X140597812Y-138198624D01*
X140761784Y-138266544D01*
X140909354Y-138365147D01*
X141034853Y-138490646D01*
X141133456Y-138638216D01*
X141201376Y-138802188D01*
X141236000Y-138976259D01*
X141236000Y-139153741D01*
X141201376Y-139327812D01*
X141133456Y-139491784D01*
X141034853Y-139639354D01*
X140909354Y-139764853D01*
X140761784Y-139863456D01*
X140597812Y-139931376D01*
X140448512Y-139961073D01*
X140423742Y-139966000D01*
X140246258Y-139966000D01*
X140221488Y-139961073D01*
X140072188Y-139931376D01*
X139908216Y-139863456D01*
X139760646Y-139764853D01*
X139635147Y-139639354D01*
X139536544Y-139491784D01*
X139468624Y-139327812D01*
X139434000Y-139153741D01*
X139434000Y-138976259D01*
X139468624Y-138802188D01*
X139536544Y-138638216D01*
X139635147Y-138490646D01*
X139760646Y-138365147D01*
X139908216Y-138266544D01*
X140072188Y-138198624D01*
X140221488Y-138168927D01*
X140246258Y-138164000D01*
X140423742Y-138164000D01*
X140448512Y-138168927D01*
G37*
G36*
X160768512Y-138168927D02*
G01*
X160917812Y-138198624D01*
X161081784Y-138266544D01*
X161229354Y-138365147D01*
X161354853Y-138490646D01*
X161453456Y-138638216D01*
X161521376Y-138802188D01*
X161556000Y-138976259D01*
X161556000Y-139153741D01*
X161521376Y-139327812D01*
X161453456Y-139491784D01*
X161354853Y-139639354D01*
X161229354Y-139764853D01*
X161081784Y-139863456D01*
X160917812Y-139931376D01*
X160768512Y-139961073D01*
X160743742Y-139966000D01*
X160566258Y-139966000D01*
X160541488Y-139961073D01*
X160392188Y-139931376D01*
X160228216Y-139863456D01*
X160080646Y-139764853D01*
X159955147Y-139639354D01*
X159856544Y-139491784D01*
X159788624Y-139327812D01*
X159754000Y-139153741D01*
X159754000Y-138976259D01*
X159788624Y-138802188D01*
X159856544Y-138638216D01*
X159955147Y-138490646D01*
X160080646Y-138365147D01*
X160228216Y-138266544D01*
X160392188Y-138198624D01*
X160541488Y-138168927D01*
X160566258Y-138164000D01*
X160743742Y-138164000D01*
X160768512Y-138168927D01*
G37*
G36*
X120128512Y-138168927D02*
G01*
X120277812Y-138198624D01*
X120441784Y-138266544D01*
X120589354Y-138365147D01*
X120714853Y-138490646D01*
X120813456Y-138638216D01*
X120881376Y-138802188D01*
X120916000Y-138976259D01*
X120916000Y-139153741D01*
X120881376Y-139327812D01*
X120813456Y-139491784D01*
X120714853Y-139639354D01*
X120589354Y-139764853D01*
X120441784Y-139863456D01*
X120277812Y-139931376D01*
X120128512Y-139961073D01*
X120103742Y-139966000D01*
X119926258Y-139966000D01*
X119901488Y-139961073D01*
X119752188Y-139931376D01*
X119588216Y-139863456D01*
X119440646Y-139764853D01*
X119315147Y-139639354D01*
X119216544Y-139491784D01*
X119148624Y-139327812D01*
X119114000Y-139153741D01*
X119114000Y-138976259D01*
X119148624Y-138802188D01*
X119216544Y-138638216D01*
X119315147Y-138490646D01*
X119440646Y-138365147D01*
X119588216Y-138266544D01*
X119752188Y-138198624D01*
X119901488Y-138168927D01*
X119926258Y-138164000D01*
X120103742Y-138164000D01*
X120128512Y-138168927D01*
G37*
G36*
X117588512Y-138168927D02*
G01*
X117737812Y-138198624D01*
X117901784Y-138266544D01*
X118049354Y-138365147D01*
X118174853Y-138490646D01*
X118273456Y-138638216D01*
X118341376Y-138802188D01*
X118376000Y-138976259D01*
X118376000Y-139153741D01*
X118341376Y-139327812D01*
X118273456Y-139491784D01*
X118174853Y-139639354D01*
X118049354Y-139764853D01*
X117901784Y-139863456D01*
X117737812Y-139931376D01*
X117588512Y-139961073D01*
X117563742Y-139966000D01*
X117386258Y-139966000D01*
X117361488Y-139961073D01*
X117212188Y-139931376D01*
X117048216Y-139863456D01*
X116900646Y-139764853D01*
X116775147Y-139639354D01*
X116676544Y-139491784D01*
X116608624Y-139327812D01*
X116574000Y-139153741D01*
X116574000Y-138976259D01*
X116608624Y-138802188D01*
X116676544Y-138638216D01*
X116775147Y-138490646D01*
X116900646Y-138365147D01*
X117048216Y-138266544D01*
X117212188Y-138198624D01*
X117361488Y-138168927D01*
X117386258Y-138164000D01*
X117563742Y-138164000D01*
X117588512Y-138168927D01*
G37*
G36*
X135368512Y-138168927D02*
G01*
X135517812Y-138198624D01*
X135681784Y-138266544D01*
X135829354Y-138365147D01*
X135954853Y-138490646D01*
X136053456Y-138638216D01*
X136121376Y-138802188D01*
X136156000Y-138976259D01*
X136156000Y-139153741D01*
X136121376Y-139327812D01*
X136053456Y-139491784D01*
X135954853Y-139639354D01*
X135829354Y-139764853D01*
X135681784Y-139863456D01*
X135517812Y-139931376D01*
X135368512Y-139961073D01*
X135343742Y-139966000D01*
X135166258Y-139966000D01*
X135141488Y-139961073D01*
X134992188Y-139931376D01*
X134828216Y-139863456D01*
X134680646Y-139764853D01*
X134555147Y-139639354D01*
X134456544Y-139491784D01*
X134388624Y-139327812D01*
X134354000Y-139153741D01*
X134354000Y-138976259D01*
X134388624Y-138802188D01*
X134456544Y-138638216D01*
X134555147Y-138490646D01*
X134680646Y-138365147D01*
X134828216Y-138266544D01*
X134992188Y-138198624D01*
X135141488Y-138168927D01*
X135166258Y-138164000D01*
X135343742Y-138164000D01*
X135368512Y-138168927D01*
G37*
G36*
X137908512Y-138168927D02*
G01*
X138057812Y-138198624D01*
X138221784Y-138266544D01*
X138369354Y-138365147D01*
X138494853Y-138490646D01*
X138593456Y-138638216D01*
X138661376Y-138802188D01*
X138696000Y-138976259D01*
X138696000Y-139153741D01*
X138661376Y-139327812D01*
X138593456Y-139491784D01*
X138494853Y-139639354D01*
X138369354Y-139764853D01*
X138221784Y-139863456D01*
X138057812Y-139931376D01*
X137908512Y-139961073D01*
X137883742Y-139966000D01*
X137706258Y-139966000D01*
X137681488Y-139961073D01*
X137532188Y-139931376D01*
X137368216Y-139863456D01*
X137220646Y-139764853D01*
X137095147Y-139639354D01*
X136996544Y-139491784D01*
X136928624Y-139327812D01*
X136894000Y-139153741D01*
X136894000Y-138976259D01*
X136928624Y-138802188D01*
X136996544Y-138638216D01*
X137095147Y-138490646D01*
X137220646Y-138365147D01*
X137368216Y-138266544D01*
X137532188Y-138198624D01*
X137681488Y-138168927D01*
X137706258Y-138164000D01*
X137883742Y-138164000D01*
X137908512Y-138168927D01*
G37*
G36*
X127748512Y-138168927D02*
G01*
X127897812Y-138198624D01*
X128061784Y-138266544D01*
X128209354Y-138365147D01*
X128334853Y-138490646D01*
X128433456Y-138638216D01*
X128501376Y-138802188D01*
X128536000Y-138976259D01*
X128536000Y-139153741D01*
X128501376Y-139327812D01*
X128433456Y-139491784D01*
X128334853Y-139639354D01*
X128209354Y-139764853D01*
X128061784Y-139863456D01*
X127897812Y-139931376D01*
X127748512Y-139961073D01*
X127723742Y-139966000D01*
X127546258Y-139966000D01*
X127521488Y-139961073D01*
X127372188Y-139931376D01*
X127208216Y-139863456D01*
X127060646Y-139764853D01*
X126935147Y-139639354D01*
X126836544Y-139491784D01*
X126768624Y-139327812D01*
X126734000Y-139153741D01*
X126734000Y-138976259D01*
X126768624Y-138802188D01*
X126836544Y-138638216D01*
X126935147Y-138490646D01*
X127060646Y-138365147D01*
X127208216Y-138266544D01*
X127372188Y-138198624D01*
X127521488Y-138168927D01*
X127546258Y-138164000D01*
X127723742Y-138164000D01*
X127748512Y-138168927D01*
G37*
G36*
X153148512Y-138168927D02*
G01*
X153297812Y-138198624D01*
X153461784Y-138266544D01*
X153609354Y-138365147D01*
X153734853Y-138490646D01*
X153833456Y-138638216D01*
X153901376Y-138802188D01*
X153936000Y-138976259D01*
X153936000Y-139153741D01*
X153901376Y-139327812D01*
X153833456Y-139491784D01*
X153734853Y-139639354D01*
X153609354Y-139764853D01*
X153461784Y-139863456D01*
X153297812Y-139931376D01*
X153148512Y-139961073D01*
X153123742Y-139966000D01*
X152946258Y-139966000D01*
X152921488Y-139961073D01*
X152772188Y-139931376D01*
X152608216Y-139863456D01*
X152460646Y-139764853D01*
X152335147Y-139639354D01*
X152236544Y-139491784D01*
X152168624Y-139327812D01*
X152134000Y-139153741D01*
X152134000Y-138976259D01*
X152168624Y-138802188D01*
X152236544Y-138638216D01*
X152335147Y-138490646D01*
X152460646Y-138365147D01*
X152608216Y-138266544D01*
X152772188Y-138198624D01*
X152921488Y-138168927D01*
X152946258Y-138164000D01*
X153123742Y-138164000D01*
X153148512Y-138168927D01*
G37*
G36*
X150608512Y-138168927D02*
G01*
X150757812Y-138198624D01*
X150921784Y-138266544D01*
X151069354Y-138365147D01*
X151194853Y-138490646D01*
X151293456Y-138638216D01*
X151361376Y-138802188D01*
X151396000Y-138976259D01*
X151396000Y-139153741D01*
X151361376Y-139327812D01*
X151293456Y-139491784D01*
X151194853Y-139639354D01*
X151069354Y-139764853D01*
X150921784Y-139863456D01*
X150757812Y-139931376D01*
X150608512Y-139961073D01*
X150583742Y-139966000D01*
X150406258Y-139966000D01*
X150381488Y-139961073D01*
X150232188Y-139931376D01*
X150068216Y-139863456D01*
X149920646Y-139764853D01*
X149795147Y-139639354D01*
X149696544Y-139491784D01*
X149628624Y-139327812D01*
X149594000Y-139153741D01*
X149594000Y-138976259D01*
X149628624Y-138802188D01*
X149696544Y-138638216D01*
X149795147Y-138490646D01*
X149920646Y-138365147D01*
X150068216Y-138266544D01*
X150232188Y-138198624D01*
X150381488Y-138168927D01*
X150406258Y-138164000D01*
X150583742Y-138164000D01*
X150608512Y-138168927D01*
G37*
G36*
X132828512Y-138168927D02*
G01*
X132977812Y-138198624D01*
X133141784Y-138266544D01*
X133289354Y-138365147D01*
X133414853Y-138490646D01*
X133513456Y-138638216D01*
X133581376Y-138802188D01*
X133616000Y-138976259D01*
X133616000Y-139153741D01*
X133581376Y-139327812D01*
X133513456Y-139491784D01*
X133414853Y-139639354D01*
X133289354Y-139764853D01*
X133141784Y-139863456D01*
X132977812Y-139931376D01*
X132828512Y-139961073D01*
X132803742Y-139966000D01*
X132626258Y-139966000D01*
X132601488Y-139961073D01*
X132452188Y-139931376D01*
X132288216Y-139863456D01*
X132140646Y-139764853D01*
X132015147Y-139639354D01*
X131916544Y-139491784D01*
X131848624Y-139327812D01*
X131814000Y-139153741D01*
X131814000Y-138976259D01*
X131848624Y-138802188D01*
X131916544Y-138638216D01*
X132015147Y-138490646D01*
X132140646Y-138365147D01*
X132288216Y-138266544D01*
X132452188Y-138198624D01*
X132601488Y-138168927D01*
X132626258Y-138164000D01*
X132803742Y-138164000D01*
X132828512Y-138168927D01*
G37*
G36*
X122668512Y-138168927D02*
G01*
X122817812Y-138198624D01*
X122981784Y-138266544D01*
X123129354Y-138365147D01*
X123254853Y-138490646D01*
X123353456Y-138638216D01*
X123421376Y-138802188D01*
X123456000Y-138976259D01*
X123456000Y-139153741D01*
X123421376Y-139327812D01*
X123353456Y-139491784D01*
X123254853Y-139639354D01*
X123129354Y-139764853D01*
X122981784Y-139863456D01*
X122817812Y-139931376D01*
X122668512Y-139961073D01*
X122643742Y-139966000D01*
X122466258Y-139966000D01*
X122441488Y-139961073D01*
X122292188Y-139931376D01*
X122128216Y-139863456D01*
X121980646Y-139764853D01*
X121855147Y-139639354D01*
X121756544Y-139491784D01*
X121688624Y-139327812D01*
X121654000Y-139153741D01*
X121654000Y-138976259D01*
X121688624Y-138802188D01*
X121756544Y-138638216D01*
X121855147Y-138490646D01*
X121980646Y-138365147D01*
X122128216Y-138266544D01*
X122292188Y-138198624D01*
X122441488Y-138168927D01*
X122466258Y-138164000D01*
X122643742Y-138164000D01*
X122668512Y-138168927D01*
G37*
G36*
X165848512Y-138168927D02*
G01*
X165997812Y-138198624D01*
X166161784Y-138266544D01*
X166309354Y-138365147D01*
X166434853Y-138490646D01*
X166533456Y-138638216D01*
X166601376Y-138802188D01*
X166636000Y-138976259D01*
X166636000Y-139153741D01*
X166601376Y-139327812D01*
X166533456Y-139491784D01*
X166434853Y-139639354D01*
X166309354Y-139764853D01*
X166161784Y-139863456D01*
X165997812Y-139931376D01*
X165848512Y-139961073D01*
X165823742Y-139966000D01*
X165646258Y-139966000D01*
X165621488Y-139961073D01*
X165472188Y-139931376D01*
X165308216Y-139863456D01*
X165160646Y-139764853D01*
X165035147Y-139639354D01*
X164936544Y-139491784D01*
X164868624Y-139327812D01*
X164834000Y-139153741D01*
X164834000Y-138976259D01*
X164868624Y-138802188D01*
X164936544Y-138638216D01*
X165035147Y-138490646D01*
X165160646Y-138365147D01*
X165308216Y-138266544D01*
X165472188Y-138198624D01*
X165621488Y-138168927D01*
X165646258Y-138164000D01*
X165823742Y-138164000D01*
X165848512Y-138168927D01*
G37*
G36*
X115048512Y-138168927D02*
G01*
X115197812Y-138198624D01*
X115361784Y-138266544D01*
X115509354Y-138365147D01*
X115634853Y-138490646D01*
X115733456Y-138638216D01*
X115801376Y-138802188D01*
X115836000Y-138976259D01*
X115836000Y-139153741D01*
X115801376Y-139327812D01*
X115733456Y-139491784D01*
X115634853Y-139639354D01*
X115509354Y-139764853D01*
X115361784Y-139863456D01*
X115197812Y-139931376D01*
X115048512Y-139961073D01*
X115023742Y-139966000D01*
X114846258Y-139966000D01*
X114821488Y-139961073D01*
X114672188Y-139931376D01*
X114508216Y-139863456D01*
X114360646Y-139764853D01*
X114235147Y-139639354D01*
X114136544Y-139491784D01*
X114068624Y-139327812D01*
X114034000Y-139153741D01*
X114034000Y-138976259D01*
X114068624Y-138802188D01*
X114136544Y-138638216D01*
X114235147Y-138490646D01*
X114360646Y-138365147D01*
X114508216Y-138266544D01*
X114672188Y-138198624D01*
X114821488Y-138168927D01*
X114846258Y-138164000D01*
X115023742Y-138164000D01*
X115048512Y-138168927D01*
G37*
G36*
X168388512Y-138168927D02*
G01*
X168537812Y-138198624D01*
X168701784Y-138266544D01*
X168849354Y-138365147D01*
X168974853Y-138490646D01*
X169073456Y-138638216D01*
X169141376Y-138802188D01*
X169176000Y-138976259D01*
X169176000Y-139153741D01*
X169141376Y-139327812D01*
X169073456Y-139491784D01*
X168974853Y-139639354D01*
X168849354Y-139764853D01*
X168701784Y-139863456D01*
X168537812Y-139931376D01*
X168388512Y-139961073D01*
X168363742Y-139966000D01*
X168186258Y-139966000D01*
X168161488Y-139961073D01*
X168012188Y-139931376D01*
X167848216Y-139863456D01*
X167700646Y-139764853D01*
X167575147Y-139639354D01*
X167476544Y-139491784D01*
X167408624Y-139327812D01*
X167374000Y-139153741D01*
X167374000Y-138976259D01*
X167408624Y-138802188D01*
X167476544Y-138638216D01*
X167575147Y-138490646D01*
X167700646Y-138365147D01*
X167848216Y-138266544D01*
X168012188Y-138198624D01*
X168161488Y-138168927D01*
X168186258Y-138164000D01*
X168363742Y-138164000D01*
X168388512Y-138168927D01*
G37*
G36*
X112508512Y-138168927D02*
G01*
X112657812Y-138198624D01*
X112821784Y-138266544D01*
X112969354Y-138365147D01*
X113094853Y-138490646D01*
X113193456Y-138638216D01*
X113261376Y-138802188D01*
X113296000Y-138976259D01*
X113296000Y-139153741D01*
X113261376Y-139327812D01*
X113193456Y-139491784D01*
X113094853Y-139639354D01*
X112969354Y-139764853D01*
X112821784Y-139863456D01*
X112657812Y-139931376D01*
X112508512Y-139961073D01*
X112483742Y-139966000D01*
X112306258Y-139966000D01*
X112281488Y-139961073D01*
X112132188Y-139931376D01*
X111968216Y-139863456D01*
X111820646Y-139764853D01*
X111695147Y-139639354D01*
X111596544Y-139491784D01*
X111528624Y-139327812D01*
X111494000Y-139153741D01*
X111494000Y-138976259D01*
X111528624Y-138802188D01*
X111596544Y-138638216D01*
X111695147Y-138490646D01*
X111820646Y-138365147D01*
X111968216Y-138266544D01*
X112132188Y-138198624D01*
X112281488Y-138168927D01*
X112306258Y-138164000D01*
X112483742Y-138164000D01*
X112508512Y-138168927D01*
G37*
G36*
X163308512Y-138168927D02*
G01*
X163457812Y-138198624D01*
X163621784Y-138266544D01*
X163769354Y-138365147D01*
X163894853Y-138490646D01*
X163993456Y-138638216D01*
X164061376Y-138802188D01*
X164096000Y-138976259D01*
X164096000Y-139153741D01*
X164061376Y-139327812D01*
X163993456Y-139491784D01*
X163894853Y-139639354D01*
X163769354Y-139764853D01*
X163621784Y-139863456D01*
X163457812Y-139931376D01*
X163308512Y-139961073D01*
X163283742Y-139966000D01*
X163106258Y-139966000D01*
X163081488Y-139961073D01*
X162932188Y-139931376D01*
X162768216Y-139863456D01*
X162620646Y-139764853D01*
X162495147Y-139639354D01*
X162396544Y-139491784D01*
X162328624Y-139327812D01*
X162294000Y-139153741D01*
X162294000Y-138976259D01*
X162328624Y-138802188D01*
X162396544Y-138638216D01*
X162495147Y-138490646D01*
X162620646Y-138365147D01*
X162768216Y-138266544D01*
X162932188Y-138198624D01*
X163081488Y-138168927D01*
X163106258Y-138164000D01*
X163283742Y-138164000D01*
X163308512Y-138168927D01*
G37*
G36*
X84568512Y-136898927D02*
G01*
X84717812Y-136928624D01*
X84881784Y-136996544D01*
X85029354Y-137095147D01*
X85154853Y-137220646D01*
X85253456Y-137368216D01*
X85321376Y-137532188D01*
X85356000Y-137706259D01*
X85356000Y-137883741D01*
X85321376Y-138057812D01*
X85253456Y-138221784D01*
X85154853Y-138369354D01*
X85029354Y-138494853D01*
X84881784Y-138593456D01*
X84717812Y-138661376D01*
X84568512Y-138691073D01*
X84543742Y-138696000D01*
X84366258Y-138696000D01*
X84341488Y-138691073D01*
X84192188Y-138661376D01*
X84028216Y-138593456D01*
X83880646Y-138494853D01*
X83755147Y-138369354D01*
X83656544Y-138221784D01*
X83588624Y-138057812D01*
X83554000Y-137883741D01*
X83554000Y-137706259D01*
X83588624Y-137532188D01*
X83656544Y-137368216D01*
X83755147Y-137220646D01*
X83880646Y-137095147D01*
X84028216Y-136996544D01*
X84192188Y-136928624D01*
X84341488Y-136898927D01*
X84366258Y-136894000D01*
X84543742Y-136894000D01*
X84568512Y-136898927D01*
G37*
G36*
X137908512Y-135628927D02*
G01*
X138057812Y-135658624D01*
X138221784Y-135726544D01*
X138369354Y-135825147D01*
X138494853Y-135950646D01*
X138593456Y-136098216D01*
X138661376Y-136262188D01*
X138696000Y-136436259D01*
X138696000Y-136613741D01*
X138661376Y-136787812D01*
X138593456Y-136951784D01*
X138494853Y-137099354D01*
X138369354Y-137224853D01*
X138221784Y-137323456D01*
X138057812Y-137391376D01*
X137908512Y-137421073D01*
X137883742Y-137426000D01*
X137706258Y-137426000D01*
X137681488Y-137421073D01*
X137532188Y-137391376D01*
X137368216Y-137323456D01*
X137220646Y-137224853D01*
X137095147Y-137099354D01*
X136996544Y-136951784D01*
X136928624Y-136787812D01*
X136894000Y-136613741D01*
X136894000Y-136436259D01*
X136928624Y-136262188D01*
X136996544Y-136098216D01*
X137095147Y-135950646D01*
X137220646Y-135825147D01*
X137368216Y-135726544D01*
X137532188Y-135658624D01*
X137681488Y-135628927D01*
X137706258Y-135624000D01*
X137883742Y-135624000D01*
X137908512Y-135628927D01*
G37*
G36*
X135368512Y-135628927D02*
G01*
X135517812Y-135658624D01*
X135681784Y-135726544D01*
X135829354Y-135825147D01*
X135954853Y-135950646D01*
X136053456Y-136098216D01*
X136121376Y-136262188D01*
X136156000Y-136436259D01*
X136156000Y-136613741D01*
X136121376Y-136787812D01*
X136053456Y-136951784D01*
X135954853Y-137099354D01*
X135829354Y-137224853D01*
X135681784Y-137323456D01*
X135517812Y-137391376D01*
X135368512Y-137421073D01*
X135343742Y-137426000D01*
X135166258Y-137426000D01*
X135141488Y-137421073D01*
X134992188Y-137391376D01*
X134828216Y-137323456D01*
X134680646Y-137224853D01*
X134555147Y-137099354D01*
X134456544Y-136951784D01*
X134388624Y-136787812D01*
X134354000Y-136613741D01*
X134354000Y-136436259D01*
X134388624Y-136262188D01*
X134456544Y-136098216D01*
X134555147Y-135950646D01*
X134680646Y-135825147D01*
X134828216Y-135726544D01*
X134992188Y-135658624D01*
X135141488Y-135628927D01*
X135166258Y-135624000D01*
X135343742Y-135624000D01*
X135368512Y-135628927D01*
G37*
G36*
X132828512Y-135628927D02*
G01*
X132977812Y-135658624D01*
X133141784Y-135726544D01*
X133289354Y-135825147D01*
X133414853Y-135950646D01*
X133513456Y-136098216D01*
X133581376Y-136262188D01*
X133616000Y-136436259D01*
X133616000Y-136613741D01*
X133581376Y-136787812D01*
X133513456Y-136951784D01*
X133414853Y-137099354D01*
X133289354Y-137224853D01*
X133141784Y-137323456D01*
X132977812Y-137391376D01*
X132828512Y-137421073D01*
X132803742Y-137426000D01*
X132626258Y-137426000D01*
X132601488Y-137421073D01*
X132452188Y-137391376D01*
X132288216Y-137323456D01*
X132140646Y-137224853D01*
X132015147Y-137099354D01*
X131916544Y-136951784D01*
X131848624Y-136787812D01*
X131814000Y-136613741D01*
X131814000Y-136436259D01*
X131848624Y-136262188D01*
X131916544Y-136098216D01*
X132015147Y-135950646D01*
X132140646Y-135825147D01*
X132288216Y-135726544D01*
X132452188Y-135658624D01*
X132601488Y-135628927D01*
X132626258Y-135624000D01*
X132803742Y-135624000D01*
X132828512Y-135628927D01*
G37*
G36*
X112508512Y-135628927D02*
G01*
X112657812Y-135658624D01*
X112821784Y-135726544D01*
X112969354Y-135825147D01*
X113094853Y-135950646D01*
X113193456Y-136098216D01*
X113261376Y-136262188D01*
X113296000Y-136436259D01*
X113296000Y-136613741D01*
X113261376Y-136787812D01*
X113193456Y-136951784D01*
X113094853Y-137099354D01*
X112969354Y-137224853D01*
X112821784Y-137323456D01*
X112657812Y-137391376D01*
X112508512Y-137421073D01*
X112483742Y-137426000D01*
X112306258Y-137426000D01*
X112281488Y-137421073D01*
X112132188Y-137391376D01*
X111968216Y-137323456D01*
X111820646Y-137224853D01*
X111695147Y-137099354D01*
X111596544Y-136951784D01*
X111528624Y-136787812D01*
X111494000Y-136613741D01*
X111494000Y-136436259D01*
X111528624Y-136262188D01*
X111596544Y-136098216D01*
X111695147Y-135950646D01*
X111820646Y-135825147D01*
X111968216Y-135726544D01*
X112132188Y-135658624D01*
X112281488Y-135628927D01*
X112306258Y-135624000D01*
X112483742Y-135624000D01*
X112508512Y-135628927D01*
G37*
G36*
X125208512Y-135628927D02*
G01*
X125357812Y-135658624D01*
X125521784Y-135726544D01*
X125669354Y-135825147D01*
X125794853Y-135950646D01*
X125893456Y-136098216D01*
X125961376Y-136262188D01*
X125996000Y-136436259D01*
X125996000Y-136613741D01*
X125961376Y-136787812D01*
X125893456Y-136951784D01*
X125794853Y-137099354D01*
X125669354Y-137224853D01*
X125521784Y-137323456D01*
X125357812Y-137391376D01*
X125208512Y-137421073D01*
X125183742Y-137426000D01*
X125006258Y-137426000D01*
X124981488Y-137421073D01*
X124832188Y-137391376D01*
X124668216Y-137323456D01*
X124520646Y-137224853D01*
X124395147Y-137099354D01*
X124296544Y-136951784D01*
X124228624Y-136787812D01*
X124194000Y-136613741D01*
X124194000Y-136436259D01*
X124228624Y-136262188D01*
X124296544Y-136098216D01*
X124395147Y-135950646D01*
X124520646Y-135825147D01*
X124668216Y-135726544D01*
X124832188Y-135658624D01*
X124981488Y-135628927D01*
X125006258Y-135624000D01*
X125183742Y-135624000D01*
X125208512Y-135628927D01*
G37*
G36*
X122668512Y-135628927D02*
G01*
X122817812Y-135658624D01*
X122981784Y-135726544D01*
X123129354Y-135825147D01*
X123254853Y-135950646D01*
X123353456Y-136098216D01*
X123421376Y-136262188D01*
X123456000Y-136436259D01*
X123456000Y-136613741D01*
X123421376Y-136787812D01*
X123353456Y-136951784D01*
X123254853Y-137099354D01*
X123129354Y-137224853D01*
X122981784Y-137323456D01*
X122817812Y-137391376D01*
X122668512Y-137421073D01*
X122643742Y-137426000D01*
X122466258Y-137426000D01*
X122441488Y-137421073D01*
X122292188Y-137391376D01*
X122128216Y-137323456D01*
X121980646Y-137224853D01*
X121855147Y-137099354D01*
X121756544Y-136951784D01*
X121688624Y-136787812D01*
X121654000Y-136613741D01*
X121654000Y-136436259D01*
X121688624Y-136262188D01*
X121756544Y-136098216D01*
X121855147Y-135950646D01*
X121980646Y-135825147D01*
X122128216Y-135726544D01*
X122292188Y-135658624D01*
X122441488Y-135628927D01*
X122466258Y-135624000D01*
X122643742Y-135624000D01*
X122668512Y-135628927D01*
G37*
G36*
X120128512Y-135628927D02*
G01*
X120277812Y-135658624D01*
X120441784Y-135726544D01*
X120589354Y-135825147D01*
X120714853Y-135950646D01*
X120813456Y-136098216D01*
X120881376Y-136262188D01*
X120916000Y-136436259D01*
X120916000Y-136613741D01*
X120881376Y-136787812D01*
X120813456Y-136951784D01*
X120714853Y-137099354D01*
X120589354Y-137224853D01*
X120441784Y-137323456D01*
X120277812Y-137391376D01*
X120128512Y-137421073D01*
X120103742Y-137426000D01*
X119926258Y-137426000D01*
X119901488Y-137421073D01*
X119752188Y-137391376D01*
X119588216Y-137323456D01*
X119440646Y-137224853D01*
X119315147Y-137099354D01*
X119216544Y-136951784D01*
X119148624Y-136787812D01*
X119114000Y-136613741D01*
X119114000Y-136436259D01*
X119148624Y-136262188D01*
X119216544Y-136098216D01*
X119315147Y-135950646D01*
X119440646Y-135825147D01*
X119588216Y-135726544D01*
X119752188Y-135658624D01*
X119901488Y-135628927D01*
X119926258Y-135624000D01*
X120103742Y-135624000D01*
X120128512Y-135628927D01*
G37*
G36*
X117588512Y-135628927D02*
G01*
X117737812Y-135658624D01*
X117901784Y-135726544D01*
X118049354Y-135825147D01*
X118174853Y-135950646D01*
X118273456Y-136098216D01*
X118341376Y-136262188D01*
X118376000Y-136436259D01*
X118376000Y-136613741D01*
X118341376Y-136787812D01*
X118273456Y-136951784D01*
X118174853Y-137099354D01*
X118049354Y-137224853D01*
X117901784Y-137323456D01*
X117737812Y-137391376D01*
X117588512Y-137421073D01*
X117563742Y-137426000D01*
X117386258Y-137426000D01*
X117361488Y-137421073D01*
X117212188Y-137391376D01*
X117048216Y-137323456D01*
X116900646Y-137224853D01*
X116775147Y-137099354D01*
X116676544Y-136951784D01*
X116608624Y-136787812D01*
X116574000Y-136613741D01*
X116574000Y-136436259D01*
X116608624Y-136262188D01*
X116676544Y-136098216D01*
X116775147Y-135950646D01*
X116900646Y-135825147D01*
X117048216Y-135726544D01*
X117212188Y-135658624D01*
X117361488Y-135628927D01*
X117386258Y-135624000D01*
X117563742Y-135624000D01*
X117588512Y-135628927D01*
G37*
G36*
X115048512Y-135628927D02*
G01*
X115197812Y-135658624D01*
X115361784Y-135726544D01*
X115509354Y-135825147D01*
X115634853Y-135950646D01*
X115733456Y-136098216D01*
X115801376Y-136262188D01*
X115836000Y-136436259D01*
X115836000Y-136613741D01*
X115801376Y-136787812D01*
X115733456Y-136951784D01*
X115634853Y-137099354D01*
X115509354Y-137224853D01*
X115361784Y-137323456D01*
X115197812Y-137391376D01*
X115048512Y-137421073D01*
X115023742Y-137426000D01*
X114846258Y-137426000D01*
X114821488Y-137421073D01*
X114672188Y-137391376D01*
X114508216Y-137323456D01*
X114360646Y-137224853D01*
X114235147Y-137099354D01*
X114136544Y-136951784D01*
X114068624Y-136787812D01*
X114034000Y-136613741D01*
X114034000Y-136436259D01*
X114068624Y-136262188D01*
X114136544Y-136098216D01*
X114235147Y-135950646D01*
X114360646Y-135825147D01*
X114508216Y-135726544D01*
X114672188Y-135658624D01*
X114821488Y-135628927D01*
X114846258Y-135624000D01*
X115023742Y-135624000D01*
X115048512Y-135628927D01*
G37*
G36*
X130288512Y-135628927D02*
G01*
X130437812Y-135658624D01*
X130601784Y-135726544D01*
X130749354Y-135825147D01*
X130874853Y-135950646D01*
X130973456Y-136098216D01*
X131041376Y-136262188D01*
X131076000Y-136436259D01*
X131076000Y-136613741D01*
X131041376Y-136787812D01*
X130973456Y-136951784D01*
X130874853Y-137099354D01*
X130749354Y-137224853D01*
X130601784Y-137323456D01*
X130437812Y-137391376D01*
X130288512Y-137421073D01*
X130263742Y-137426000D01*
X130086258Y-137426000D01*
X130061488Y-137421073D01*
X129912188Y-137391376D01*
X129748216Y-137323456D01*
X129600646Y-137224853D01*
X129475147Y-137099354D01*
X129376544Y-136951784D01*
X129308624Y-136787812D01*
X129274000Y-136613741D01*
X129274000Y-136436259D01*
X129308624Y-136262188D01*
X129376544Y-136098216D01*
X129475147Y-135950646D01*
X129600646Y-135825147D01*
X129748216Y-135726544D01*
X129912188Y-135658624D01*
X130061488Y-135628927D01*
X130086258Y-135624000D01*
X130263742Y-135624000D01*
X130288512Y-135628927D01*
G37*
G36*
X169176000Y-137426000D02*
G01*
X167374000Y-137426000D01*
X167374000Y-135624000D01*
X169176000Y-135624000D01*
X169176000Y-137426000D01*
G37*
G36*
X127748512Y-135628927D02*
G01*
X127897812Y-135658624D01*
X128061784Y-135726544D01*
X128209354Y-135825147D01*
X128334853Y-135950646D01*
X128433456Y-136098216D01*
X128501376Y-136262188D01*
X128536000Y-136436259D01*
X128536000Y-136613741D01*
X128501376Y-136787812D01*
X128433456Y-136951784D01*
X128334853Y-137099354D01*
X128209354Y-137224853D01*
X128061784Y-137323456D01*
X127897812Y-137391376D01*
X127748512Y-137421073D01*
X127723742Y-137426000D01*
X127546258Y-137426000D01*
X127521488Y-137421073D01*
X127372188Y-137391376D01*
X127208216Y-137323456D01*
X127060646Y-137224853D01*
X126935147Y-137099354D01*
X126836544Y-136951784D01*
X126768624Y-136787812D01*
X126734000Y-136613741D01*
X126734000Y-136436259D01*
X126768624Y-136262188D01*
X126836544Y-136098216D01*
X126935147Y-135950646D01*
X127060646Y-135825147D01*
X127208216Y-135726544D01*
X127372188Y-135658624D01*
X127521488Y-135628927D01*
X127546258Y-135624000D01*
X127723742Y-135624000D01*
X127748512Y-135628927D01*
G37*
G36*
X158228512Y-135628927D02*
G01*
X158377812Y-135658624D01*
X158541784Y-135726544D01*
X158689354Y-135825147D01*
X158814853Y-135950646D01*
X158913456Y-136098216D01*
X158981376Y-136262188D01*
X159016000Y-136436259D01*
X159016000Y-136613741D01*
X158981376Y-136787812D01*
X158913456Y-136951784D01*
X158814853Y-137099354D01*
X158689354Y-137224853D01*
X158541784Y-137323456D01*
X158377812Y-137391376D01*
X158228512Y-137421073D01*
X158203742Y-137426000D01*
X158026258Y-137426000D01*
X158001488Y-137421073D01*
X157852188Y-137391376D01*
X157688216Y-137323456D01*
X157540646Y-137224853D01*
X157415147Y-137099354D01*
X157316544Y-136951784D01*
X157248624Y-136787812D01*
X157214000Y-136613741D01*
X157214000Y-136436259D01*
X157248624Y-136262188D01*
X157316544Y-136098216D01*
X157415147Y-135950646D01*
X157540646Y-135825147D01*
X157688216Y-135726544D01*
X157852188Y-135658624D01*
X158001488Y-135628927D01*
X158026258Y-135624000D01*
X158203742Y-135624000D01*
X158228512Y-135628927D01*
G37*
G36*
X141236000Y-137426000D02*
G01*
X139434000Y-137426000D01*
X139434000Y-135624000D01*
X141236000Y-135624000D01*
X141236000Y-137426000D01*
G37*
G36*
X150608512Y-135628927D02*
G01*
X150757812Y-135658624D01*
X150921784Y-135726544D01*
X151069354Y-135825147D01*
X151194853Y-135950646D01*
X151293456Y-136098216D01*
X151361376Y-136262188D01*
X151396000Y-136436259D01*
X151396000Y-136613741D01*
X151361376Y-136787812D01*
X151293456Y-136951784D01*
X151194853Y-137099354D01*
X151069354Y-137224853D01*
X150921784Y-137323456D01*
X150757812Y-137391376D01*
X150608512Y-137421073D01*
X150583742Y-137426000D01*
X150406258Y-137426000D01*
X150381488Y-137421073D01*
X150232188Y-137391376D01*
X150068216Y-137323456D01*
X149920646Y-137224853D01*
X149795147Y-137099354D01*
X149696544Y-136951784D01*
X149628624Y-136787812D01*
X149594000Y-136613741D01*
X149594000Y-136436259D01*
X149628624Y-136262188D01*
X149696544Y-136098216D01*
X149795147Y-135950646D01*
X149920646Y-135825147D01*
X150068216Y-135726544D01*
X150232188Y-135658624D01*
X150381488Y-135628927D01*
X150406258Y-135624000D01*
X150583742Y-135624000D01*
X150608512Y-135628927D01*
G37*
G36*
X153148512Y-135628927D02*
G01*
X153297812Y-135658624D01*
X153461784Y-135726544D01*
X153609354Y-135825147D01*
X153734853Y-135950646D01*
X153833456Y-136098216D01*
X153901376Y-136262188D01*
X153936000Y-136436259D01*
X153936000Y-136613741D01*
X153901376Y-136787812D01*
X153833456Y-136951784D01*
X153734853Y-137099354D01*
X153609354Y-137224853D01*
X153461784Y-137323456D01*
X153297812Y-137391376D01*
X153148512Y-137421073D01*
X153123742Y-137426000D01*
X152946258Y-137426000D01*
X152921488Y-137421073D01*
X152772188Y-137391376D01*
X152608216Y-137323456D01*
X152460646Y-137224853D01*
X152335147Y-137099354D01*
X152236544Y-136951784D01*
X152168624Y-136787812D01*
X152134000Y-136613741D01*
X152134000Y-136436259D01*
X152168624Y-136262188D01*
X152236544Y-136098216D01*
X152335147Y-135950646D01*
X152460646Y-135825147D01*
X152608216Y-135726544D01*
X152772188Y-135658624D01*
X152921488Y-135628927D01*
X152946258Y-135624000D01*
X153123742Y-135624000D01*
X153148512Y-135628927D01*
G37*
G36*
X160768512Y-135628927D02*
G01*
X160917812Y-135658624D01*
X161081784Y-135726544D01*
X161229354Y-135825147D01*
X161354853Y-135950646D01*
X161453456Y-136098216D01*
X161521376Y-136262188D01*
X161556000Y-136436259D01*
X161556000Y-136613741D01*
X161521376Y-136787812D01*
X161453456Y-136951784D01*
X161354853Y-137099354D01*
X161229354Y-137224853D01*
X161081784Y-137323456D01*
X160917812Y-137391376D01*
X160768512Y-137421073D01*
X160743742Y-137426000D01*
X160566258Y-137426000D01*
X160541488Y-137421073D01*
X160392188Y-137391376D01*
X160228216Y-137323456D01*
X160080646Y-137224853D01*
X159955147Y-137099354D01*
X159856544Y-136951784D01*
X159788624Y-136787812D01*
X159754000Y-136613741D01*
X159754000Y-136436259D01*
X159788624Y-136262188D01*
X159856544Y-136098216D01*
X159955147Y-135950646D01*
X160080646Y-135825147D01*
X160228216Y-135726544D01*
X160392188Y-135658624D01*
X160541488Y-135628927D01*
X160566258Y-135624000D01*
X160743742Y-135624000D01*
X160768512Y-135628927D01*
G37*
G36*
X163308512Y-135628927D02*
G01*
X163457812Y-135658624D01*
X163621784Y-135726544D01*
X163769354Y-135825147D01*
X163894853Y-135950646D01*
X163993456Y-136098216D01*
X164061376Y-136262188D01*
X164096000Y-136436259D01*
X164096000Y-136613741D01*
X164061376Y-136787812D01*
X163993456Y-136951784D01*
X163894853Y-137099354D01*
X163769354Y-137224853D01*
X163621784Y-137323456D01*
X163457812Y-137391376D01*
X163308512Y-137421073D01*
X163283742Y-137426000D01*
X163106258Y-137426000D01*
X163081488Y-137421073D01*
X162932188Y-137391376D01*
X162768216Y-137323456D01*
X162620646Y-137224853D01*
X162495147Y-137099354D01*
X162396544Y-136951784D01*
X162328624Y-136787812D01*
X162294000Y-136613741D01*
X162294000Y-136436259D01*
X162328624Y-136262188D01*
X162396544Y-136098216D01*
X162495147Y-135950646D01*
X162620646Y-135825147D01*
X162768216Y-135726544D01*
X162932188Y-135658624D01*
X163081488Y-135628927D01*
X163106258Y-135624000D01*
X163283742Y-135624000D01*
X163308512Y-135628927D01*
G37*
G36*
X165848512Y-135628927D02*
G01*
X165997812Y-135658624D01*
X166161784Y-135726544D01*
X166309354Y-135825147D01*
X166434853Y-135950646D01*
X166533456Y-136098216D01*
X166601376Y-136262188D01*
X166636000Y-136436259D01*
X166636000Y-136613741D01*
X166601376Y-136787812D01*
X166533456Y-136951784D01*
X166434853Y-137099354D01*
X166309354Y-137224853D01*
X166161784Y-137323456D01*
X165997812Y-137391376D01*
X165848512Y-137421073D01*
X165823742Y-137426000D01*
X165646258Y-137426000D01*
X165621488Y-137421073D01*
X165472188Y-137391376D01*
X165308216Y-137323456D01*
X165160646Y-137224853D01*
X165035147Y-137099354D01*
X164936544Y-136951784D01*
X164868624Y-136787812D01*
X164834000Y-136613741D01*
X164834000Y-136436259D01*
X164868624Y-136262188D01*
X164936544Y-136098216D01*
X165035147Y-135950646D01*
X165160646Y-135825147D01*
X165308216Y-135726544D01*
X165472188Y-135658624D01*
X165621488Y-135628927D01*
X165646258Y-135624000D01*
X165823742Y-135624000D01*
X165848512Y-135628927D01*
G37*
G36*
X155688512Y-135628927D02*
G01*
X155837812Y-135658624D01*
X156001784Y-135726544D01*
X156149354Y-135825147D01*
X156274853Y-135950646D01*
X156373456Y-136098216D01*
X156441376Y-136262188D01*
X156476000Y-136436259D01*
X156476000Y-136613741D01*
X156441376Y-136787812D01*
X156373456Y-136951784D01*
X156274853Y-137099354D01*
X156149354Y-137224853D01*
X156001784Y-137323456D01*
X155837812Y-137391376D01*
X155688512Y-137421073D01*
X155663742Y-137426000D01*
X155486258Y-137426000D01*
X155461488Y-137421073D01*
X155312188Y-137391376D01*
X155148216Y-137323456D01*
X155000646Y-137224853D01*
X154875147Y-137099354D01*
X154776544Y-136951784D01*
X154708624Y-136787812D01*
X154674000Y-136613741D01*
X154674000Y-136436259D01*
X154708624Y-136262188D01*
X154776544Y-136098216D01*
X154875147Y-135950646D01*
X155000646Y-135825147D01*
X155148216Y-135726544D01*
X155312188Y-135658624D01*
X155461488Y-135628927D01*
X155486258Y-135624000D01*
X155663742Y-135624000D01*
X155688512Y-135628927D01*
G37*
G36*
X84568512Y-134358927D02*
G01*
X84717812Y-134388624D01*
X84881784Y-134456544D01*
X85029354Y-134555147D01*
X85154853Y-134680646D01*
X85253456Y-134828216D01*
X85321376Y-134992188D01*
X85356000Y-135166259D01*
X85356000Y-135343741D01*
X85321376Y-135517812D01*
X85253456Y-135681784D01*
X85154853Y-135829354D01*
X85029354Y-135954853D01*
X84881784Y-136053456D01*
X84717812Y-136121376D01*
X84568512Y-136151073D01*
X84543742Y-136156000D01*
X84366258Y-136156000D01*
X84341488Y-136151073D01*
X84192188Y-136121376D01*
X84028216Y-136053456D01*
X83880646Y-135954853D01*
X83755147Y-135829354D01*
X83656544Y-135681784D01*
X83588624Y-135517812D01*
X83554000Y-135343741D01*
X83554000Y-135166259D01*
X83588624Y-134992188D01*
X83656544Y-134828216D01*
X83755147Y-134680646D01*
X83880646Y-134555147D01*
X84028216Y-134456544D01*
X84192188Y-134388624D01*
X84341488Y-134358927D01*
X84366258Y-134354000D01*
X84543742Y-134354000D01*
X84568512Y-134358927D01*
G37*
G36*
X84568512Y-131818927D02*
G01*
X84717812Y-131848624D01*
X84881784Y-131916544D01*
X85029354Y-132015147D01*
X85154853Y-132140646D01*
X85253456Y-132288216D01*
X85321376Y-132452188D01*
X85356000Y-132626259D01*
X85356000Y-132803741D01*
X85321376Y-132977812D01*
X85253456Y-133141784D01*
X85154853Y-133289354D01*
X85029354Y-133414853D01*
X84881784Y-133513456D01*
X84717812Y-133581376D01*
X84568512Y-133611073D01*
X84543742Y-133616000D01*
X84366258Y-133616000D01*
X84341488Y-133611073D01*
X84192188Y-133581376D01*
X84028216Y-133513456D01*
X83880646Y-133414853D01*
X83755147Y-133289354D01*
X83656544Y-133141784D01*
X83588624Y-132977812D01*
X83554000Y-132803741D01*
X83554000Y-132626259D01*
X83588624Y-132452188D01*
X83656544Y-132288216D01*
X83755147Y-132140646D01*
X83880646Y-132015147D01*
X84028216Y-131916544D01*
X84192188Y-131848624D01*
X84341488Y-131818927D01*
X84366258Y-131814000D01*
X84543742Y-131814000D01*
X84568512Y-131818927D01*
G37*
G36*
X84568512Y-129278927D02*
G01*
X84717812Y-129308624D01*
X84881784Y-129376544D01*
X85029354Y-129475147D01*
X85154853Y-129600646D01*
X85253456Y-129748216D01*
X85321376Y-129912188D01*
X85356000Y-130086259D01*
X85356000Y-130263741D01*
X85321376Y-130437812D01*
X85253456Y-130601784D01*
X85154853Y-130749354D01*
X85029354Y-130874853D01*
X84881784Y-130973456D01*
X84717812Y-131041376D01*
X84568512Y-131071073D01*
X84543742Y-131076000D01*
X84366258Y-131076000D01*
X84341488Y-131071073D01*
X84192188Y-131041376D01*
X84028216Y-130973456D01*
X83880646Y-130874853D01*
X83755147Y-130749354D01*
X83656544Y-130601784D01*
X83588624Y-130437812D01*
X83554000Y-130263741D01*
X83554000Y-130086259D01*
X83588624Y-129912188D01*
X83656544Y-129748216D01*
X83755147Y-129600646D01*
X83880646Y-129475147D01*
X84028216Y-129376544D01*
X84192188Y-129308624D01*
X84341488Y-129278927D01*
X84366258Y-129274000D01*
X84543742Y-129274000D01*
X84568512Y-129278927D01*
G37*
G36*
X84568512Y-126738927D02*
G01*
X84717812Y-126768624D01*
X84881784Y-126836544D01*
X85029354Y-126935147D01*
X85154853Y-127060646D01*
X85253456Y-127208216D01*
X85321376Y-127372188D01*
X85356000Y-127546259D01*
X85356000Y-127723741D01*
X85321376Y-127897812D01*
X85253456Y-128061784D01*
X85154853Y-128209354D01*
X85029354Y-128334853D01*
X84881784Y-128433456D01*
X84717812Y-128501376D01*
X84568512Y-128531073D01*
X84543742Y-128536000D01*
X84366258Y-128536000D01*
X84341488Y-128531073D01*
X84192188Y-128501376D01*
X84028216Y-128433456D01*
X83880646Y-128334853D01*
X83755147Y-128209354D01*
X83656544Y-128061784D01*
X83588624Y-127897812D01*
X83554000Y-127723741D01*
X83554000Y-127546259D01*
X83588624Y-127372188D01*
X83656544Y-127208216D01*
X83755147Y-127060646D01*
X83880646Y-126935147D01*
X84028216Y-126836544D01*
X84192188Y-126768624D01*
X84341488Y-126738927D01*
X84366258Y-126734000D01*
X84543742Y-126734000D01*
X84568512Y-126738927D01*
G37*
G36*
X152193928Y-125635764D02*
G01*
X152215009Y-125642160D01*
X152234445Y-125652548D01*
X152251476Y-125666524D01*
X152265452Y-125683555D01*
X152275840Y-125702991D01*
X152282236Y-125724072D01*
X152285000Y-125752140D01*
X152285000Y-126215860D01*
X152282236Y-126243928D01*
X152275840Y-126265009D01*
X152265452Y-126284445D01*
X152251476Y-126301476D01*
X152234445Y-126315452D01*
X152215009Y-126325840D01*
X152193928Y-126332236D01*
X152165860Y-126335000D01*
X150602140Y-126335000D01*
X150574072Y-126332236D01*
X150552991Y-126325840D01*
X150533555Y-126315452D01*
X150516524Y-126301476D01*
X150502548Y-126284445D01*
X150492160Y-126265009D01*
X150485764Y-126243928D01*
X150483000Y-126215860D01*
X150483000Y-125752140D01*
X150485764Y-125724072D01*
X150492160Y-125702991D01*
X150502548Y-125683555D01*
X150516524Y-125666524D01*
X150533555Y-125652548D01*
X150552991Y-125642160D01*
X150574072Y-125635764D01*
X150602140Y-125633000D01*
X152165860Y-125633000D01*
X152193928Y-125635764D01*
G37*
G36*
X142793928Y-125635764D02*
G01*
X142815009Y-125642160D01*
X142834445Y-125652548D01*
X142851476Y-125666524D01*
X142865452Y-125683555D01*
X142875840Y-125702991D01*
X142882236Y-125724072D01*
X142885000Y-125752140D01*
X142885000Y-126215860D01*
X142882236Y-126243928D01*
X142875840Y-126265009D01*
X142865452Y-126284445D01*
X142851476Y-126301476D01*
X142834445Y-126315452D01*
X142815009Y-126325840D01*
X142793928Y-126332236D01*
X142765860Y-126335000D01*
X141202140Y-126335000D01*
X141174072Y-126332236D01*
X141152991Y-126325840D01*
X141133555Y-126315452D01*
X141116524Y-126301476D01*
X141102548Y-126284445D01*
X141092160Y-126265009D01*
X141085764Y-126243928D01*
X141083000Y-126215860D01*
X141083000Y-125752140D01*
X141085764Y-125724072D01*
X141092160Y-125702991D01*
X141102548Y-125683555D01*
X141116524Y-125666524D01*
X141133555Y-125652548D01*
X141152991Y-125642160D01*
X141174072Y-125635764D01*
X141202140Y-125633000D01*
X142765860Y-125633000D01*
X142793928Y-125635764D01*
G37*
G36*
X166751928Y-125635764D02*
G01*
X166773009Y-125642160D01*
X166792445Y-125652548D01*
X166809476Y-125666524D01*
X166823452Y-125683555D01*
X166833840Y-125702991D01*
X166840236Y-125724072D01*
X166843000Y-125752140D01*
X166843000Y-126215860D01*
X166840236Y-126243928D01*
X166833840Y-126265009D01*
X166823452Y-126284445D01*
X166809476Y-126301476D01*
X166792445Y-126315452D01*
X166773009Y-126325840D01*
X166751928Y-126332236D01*
X166723860Y-126335000D01*
X165160140Y-126335000D01*
X165132072Y-126332236D01*
X165110991Y-126325840D01*
X165091555Y-126315452D01*
X165074524Y-126301476D01*
X165060548Y-126284445D01*
X165050160Y-126265009D01*
X165043764Y-126243928D01*
X165041000Y-126215860D01*
X165041000Y-125752140D01*
X165043764Y-125724072D01*
X165050160Y-125702991D01*
X165060548Y-125683555D01*
X165074524Y-125666524D01*
X165091555Y-125652548D01*
X165110991Y-125642160D01*
X165132072Y-125635764D01*
X165160140Y-125633000D01*
X166723860Y-125633000D01*
X166751928Y-125635764D01*
G37*
G36*
X157351928Y-125635764D02*
G01*
X157373009Y-125642160D01*
X157392445Y-125652548D01*
X157409476Y-125666524D01*
X157423452Y-125683555D01*
X157433840Y-125702991D01*
X157440236Y-125724072D01*
X157443000Y-125752140D01*
X157443000Y-126215860D01*
X157440236Y-126243928D01*
X157433840Y-126265009D01*
X157423452Y-126284445D01*
X157409476Y-126301476D01*
X157392445Y-126315452D01*
X157373009Y-126325840D01*
X157351928Y-126332236D01*
X157323860Y-126335000D01*
X155760140Y-126335000D01*
X155732072Y-126332236D01*
X155710991Y-126325840D01*
X155691555Y-126315452D01*
X155674524Y-126301476D01*
X155660548Y-126284445D01*
X155650160Y-126265009D01*
X155643764Y-126243928D01*
X155641000Y-126215860D01*
X155641000Y-125752140D01*
X155643764Y-125724072D01*
X155650160Y-125702991D01*
X155660548Y-125683555D01*
X155674524Y-125666524D01*
X155691555Y-125652548D01*
X155710991Y-125642160D01*
X155732072Y-125635764D01*
X155760140Y-125633000D01*
X157323860Y-125633000D01*
X157351928Y-125635764D01*
G37*
G36*
X84568512Y-124198927D02*
G01*
X84717812Y-124228624D01*
X84881784Y-124296544D01*
X85029354Y-124395147D01*
X85154853Y-124520646D01*
X85253456Y-124668216D01*
X85321376Y-124832188D01*
X85356000Y-125006259D01*
X85356000Y-125183741D01*
X85321376Y-125357812D01*
X85253456Y-125521784D01*
X85154853Y-125669354D01*
X85029354Y-125794853D01*
X84881784Y-125893456D01*
X84717812Y-125961376D01*
X84568512Y-125991073D01*
X84543742Y-125996000D01*
X84366258Y-125996000D01*
X84341488Y-125991073D01*
X84192188Y-125961376D01*
X84028216Y-125893456D01*
X83880646Y-125794853D01*
X83755147Y-125669354D01*
X83656544Y-125521784D01*
X83588624Y-125357812D01*
X83554000Y-125183741D01*
X83554000Y-125006259D01*
X83588624Y-124832188D01*
X83656544Y-124668216D01*
X83755147Y-124520646D01*
X83880646Y-124395147D01*
X84028216Y-124296544D01*
X84192188Y-124228624D01*
X84341488Y-124198927D01*
X84366258Y-124194000D01*
X84543742Y-124194000D01*
X84568512Y-124198927D01*
G37*
G36*
X152193928Y-124365764D02*
G01*
X152215009Y-124372160D01*
X152234445Y-124382548D01*
X152251476Y-124396524D01*
X152265452Y-124413555D01*
X152275840Y-124432991D01*
X152282236Y-124454072D01*
X152285000Y-124482140D01*
X152285000Y-124945860D01*
X152282236Y-124973928D01*
X152275840Y-124995009D01*
X152265452Y-125014445D01*
X152251476Y-125031476D01*
X152234445Y-125045452D01*
X152215009Y-125055840D01*
X152193928Y-125062236D01*
X152165860Y-125065000D01*
X150602140Y-125065000D01*
X150574072Y-125062236D01*
X150552991Y-125055840D01*
X150533555Y-125045452D01*
X150516524Y-125031476D01*
X150502548Y-125014445D01*
X150492160Y-124995009D01*
X150485764Y-124973928D01*
X150483000Y-124945860D01*
X150483000Y-124482140D01*
X150485764Y-124454072D01*
X150492160Y-124432991D01*
X150502548Y-124413555D01*
X150516524Y-124396524D01*
X150533555Y-124382548D01*
X150552991Y-124372160D01*
X150574072Y-124365764D01*
X150602140Y-124363000D01*
X152165860Y-124363000D01*
X152193928Y-124365764D01*
G37*
G36*
X157351928Y-124365764D02*
G01*
X157373009Y-124372160D01*
X157392445Y-124382548D01*
X157409476Y-124396524D01*
X157423452Y-124413555D01*
X157433840Y-124432991D01*
X157440236Y-124454072D01*
X157443000Y-124482140D01*
X157443000Y-124945860D01*
X157440236Y-124973928D01*
X157433840Y-124995009D01*
X157423452Y-125014445D01*
X157409476Y-125031476D01*
X157392445Y-125045452D01*
X157373009Y-125055840D01*
X157351928Y-125062236D01*
X157323860Y-125065000D01*
X155760140Y-125065000D01*
X155732072Y-125062236D01*
X155710991Y-125055840D01*
X155691555Y-125045452D01*
X155674524Y-125031476D01*
X155660548Y-125014445D01*
X155650160Y-124995009D01*
X155643764Y-124973928D01*
X155641000Y-124945860D01*
X155641000Y-124482140D01*
X155643764Y-124454072D01*
X155650160Y-124432991D01*
X155660548Y-124413555D01*
X155674524Y-124396524D01*
X155691555Y-124382548D01*
X155710991Y-124372160D01*
X155732072Y-124365764D01*
X155760140Y-124363000D01*
X157323860Y-124363000D01*
X157351928Y-124365764D01*
G37*
G36*
X166751928Y-124365764D02*
G01*
X166773009Y-124372160D01*
X166792445Y-124382548D01*
X166809476Y-124396524D01*
X166823452Y-124413555D01*
X166833840Y-124432991D01*
X166840236Y-124454072D01*
X166843000Y-124482140D01*
X166843000Y-124945860D01*
X166840236Y-124973928D01*
X166833840Y-124995009D01*
X166823452Y-125014445D01*
X166809476Y-125031476D01*
X166792445Y-125045452D01*
X166773009Y-125055840D01*
X166751928Y-125062236D01*
X166723860Y-125065000D01*
X165160140Y-125065000D01*
X165132072Y-125062236D01*
X165110991Y-125055840D01*
X165091555Y-125045452D01*
X165074524Y-125031476D01*
X165060548Y-125014445D01*
X165050160Y-124995009D01*
X165043764Y-124973928D01*
X165041000Y-124945860D01*
X165041000Y-124482140D01*
X165043764Y-124454072D01*
X165050160Y-124432991D01*
X165060548Y-124413555D01*
X165074524Y-124396524D01*
X165091555Y-124382548D01*
X165110991Y-124372160D01*
X165132072Y-124365764D01*
X165160140Y-124363000D01*
X166723860Y-124363000D01*
X166751928Y-124365764D01*
G37*
G36*
X142793928Y-124365764D02*
G01*
X142815009Y-124372160D01*
X142834445Y-124382548D01*
X142851476Y-124396524D01*
X142865452Y-124413555D01*
X142875840Y-124432991D01*
X142882236Y-124454072D01*
X142885000Y-124482140D01*
X142885000Y-124945860D01*
X142882236Y-124973928D01*
X142875840Y-124995009D01*
X142865452Y-125014445D01*
X142851476Y-125031476D01*
X142834445Y-125045452D01*
X142815009Y-125055840D01*
X142793928Y-125062236D01*
X142765860Y-125065000D01*
X141202140Y-125065000D01*
X141174072Y-125062236D01*
X141152991Y-125055840D01*
X141133555Y-125045452D01*
X141116524Y-125031476D01*
X141102548Y-125014445D01*
X141092160Y-124995009D01*
X141085764Y-124973928D01*
X141083000Y-124945860D01*
X141083000Y-124482140D01*
X141085764Y-124454072D01*
X141092160Y-124432991D01*
X141102548Y-124413555D01*
X141116524Y-124396524D01*
X141133555Y-124382548D01*
X141152991Y-124372160D01*
X141174072Y-124365764D01*
X141202140Y-124363000D01*
X142765860Y-124363000D01*
X142793928Y-124365764D01*
G37*
G36*
X157351928Y-123095764D02*
G01*
X157373009Y-123102160D01*
X157392445Y-123112548D01*
X157409476Y-123126524D01*
X157423452Y-123143555D01*
X157433840Y-123162991D01*
X157440236Y-123184072D01*
X157443000Y-123212140D01*
X157443000Y-123675860D01*
X157440236Y-123703928D01*
X157433840Y-123725009D01*
X157423452Y-123744445D01*
X157409476Y-123761476D01*
X157392445Y-123775452D01*
X157373009Y-123785840D01*
X157351928Y-123792236D01*
X157323860Y-123795000D01*
X155760140Y-123795000D01*
X155732072Y-123792236D01*
X155710991Y-123785840D01*
X155691555Y-123775452D01*
X155674524Y-123761476D01*
X155660548Y-123744445D01*
X155650160Y-123725009D01*
X155643764Y-123703928D01*
X155641000Y-123675860D01*
X155641000Y-123212140D01*
X155643764Y-123184072D01*
X155650160Y-123162991D01*
X155660548Y-123143555D01*
X155674524Y-123126524D01*
X155691555Y-123112548D01*
X155710991Y-123102160D01*
X155732072Y-123095764D01*
X155760140Y-123093000D01*
X157323860Y-123093000D01*
X157351928Y-123095764D01*
G37*
G36*
X166751928Y-123095764D02*
G01*
X166773009Y-123102160D01*
X166792445Y-123112548D01*
X166809476Y-123126524D01*
X166823452Y-123143555D01*
X166833840Y-123162991D01*
X166840236Y-123184072D01*
X166843000Y-123212140D01*
X166843000Y-123675860D01*
X166840236Y-123703928D01*
X166833840Y-123725009D01*
X166823452Y-123744445D01*
X166809476Y-123761476D01*
X166792445Y-123775452D01*
X166773009Y-123785840D01*
X166751928Y-123792236D01*
X166723860Y-123795000D01*
X165160140Y-123795000D01*
X165132072Y-123792236D01*
X165110991Y-123785840D01*
X165091555Y-123775452D01*
X165074524Y-123761476D01*
X165060548Y-123744445D01*
X165050160Y-123725009D01*
X165043764Y-123703928D01*
X165041000Y-123675860D01*
X165041000Y-123212140D01*
X165043764Y-123184072D01*
X165050160Y-123162991D01*
X165060548Y-123143555D01*
X165074524Y-123126524D01*
X165091555Y-123112548D01*
X165110991Y-123102160D01*
X165132072Y-123095764D01*
X165160140Y-123093000D01*
X166723860Y-123093000D01*
X166751928Y-123095764D01*
G37*
G36*
X142793928Y-123095764D02*
G01*
X142815009Y-123102160D01*
X142834445Y-123112548D01*
X142851476Y-123126524D01*
X142865452Y-123143555D01*
X142875840Y-123162991D01*
X142882236Y-123184072D01*
X142885000Y-123212140D01*
X142885000Y-123675860D01*
X142882236Y-123703928D01*
X142875840Y-123725009D01*
X142865452Y-123744445D01*
X142851476Y-123761476D01*
X142834445Y-123775452D01*
X142815009Y-123785840D01*
X142793928Y-123792236D01*
X142765860Y-123795000D01*
X141202140Y-123795000D01*
X141174072Y-123792236D01*
X141152991Y-123785840D01*
X141133555Y-123775452D01*
X141116524Y-123761476D01*
X141102548Y-123744445D01*
X141092160Y-123725009D01*
X141085764Y-123703928D01*
X141083000Y-123675860D01*
X141083000Y-123212140D01*
X141085764Y-123184072D01*
X141092160Y-123162991D01*
X141102548Y-123143555D01*
X141116524Y-123126524D01*
X141133555Y-123112548D01*
X141152991Y-123102160D01*
X141174072Y-123095764D01*
X141202140Y-123093000D01*
X142765860Y-123093000D01*
X142793928Y-123095764D01*
G37*
G36*
X152193928Y-123095764D02*
G01*
X152215009Y-123102160D01*
X152234445Y-123112548D01*
X152251476Y-123126524D01*
X152265452Y-123143555D01*
X152275840Y-123162991D01*
X152282236Y-123184072D01*
X152285000Y-123212140D01*
X152285000Y-123675860D01*
X152282236Y-123703928D01*
X152275840Y-123725009D01*
X152265452Y-123744445D01*
X152251476Y-123761476D01*
X152234445Y-123775452D01*
X152215009Y-123785840D01*
X152193928Y-123792236D01*
X152165860Y-123795000D01*
X150602140Y-123795000D01*
X150574072Y-123792236D01*
X150552991Y-123785840D01*
X150533555Y-123775452D01*
X150516524Y-123761476D01*
X150502548Y-123744445D01*
X150492160Y-123725009D01*
X150485764Y-123703928D01*
X150483000Y-123675860D01*
X150483000Y-123212140D01*
X150485764Y-123184072D01*
X150492160Y-123162991D01*
X150502548Y-123143555D01*
X150516524Y-123126524D01*
X150533555Y-123112548D01*
X150552991Y-123102160D01*
X150574072Y-123095764D01*
X150602140Y-123093000D01*
X152165860Y-123093000D01*
X152193928Y-123095764D01*
G37*
G36*
X102599928Y-122841764D02*
G01*
X102621009Y-122848160D01*
X102640445Y-122858548D01*
X102657476Y-122872524D01*
X102671452Y-122889555D01*
X102681840Y-122908991D01*
X102688236Y-122930072D01*
X102691000Y-122958140D01*
X102691000Y-123421860D01*
X102688236Y-123449928D01*
X102681840Y-123471009D01*
X102671452Y-123490445D01*
X102657476Y-123507476D01*
X102640445Y-123521452D01*
X102621009Y-123531840D01*
X102599928Y-123538236D01*
X102571860Y-123541000D01*
X100758140Y-123541000D01*
X100730072Y-123538236D01*
X100708991Y-123531840D01*
X100689555Y-123521452D01*
X100672524Y-123507476D01*
X100658548Y-123490445D01*
X100648160Y-123471009D01*
X100641764Y-123449928D01*
X100639000Y-123421860D01*
X100639000Y-122958140D01*
X100641764Y-122930072D01*
X100648160Y-122908991D01*
X100658548Y-122889555D01*
X100672524Y-122872524D01*
X100689555Y-122858548D01*
X100708991Y-122848160D01*
X100730072Y-122841764D01*
X100758140Y-122839000D01*
X102571860Y-122839000D01*
X102599928Y-122841764D01*
G37*
G36*
X107549928Y-122841764D02*
G01*
X107571009Y-122848160D01*
X107590445Y-122858548D01*
X107607476Y-122872524D01*
X107621452Y-122889555D01*
X107631840Y-122908991D01*
X107638236Y-122930072D01*
X107641000Y-122958140D01*
X107641000Y-123421860D01*
X107638236Y-123449928D01*
X107631840Y-123471009D01*
X107621452Y-123490445D01*
X107607476Y-123507476D01*
X107590445Y-123521452D01*
X107571009Y-123531840D01*
X107549928Y-123538236D01*
X107521860Y-123541000D01*
X105708140Y-123541000D01*
X105680072Y-123538236D01*
X105658991Y-123531840D01*
X105639555Y-123521452D01*
X105622524Y-123507476D01*
X105608548Y-123490445D01*
X105598160Y-123471009D01*
X105591764Y-123449928D01*
X105589000Y-123421860D01*
X105589000Y-122958140D01*
X105591764Y-122930072D01*
X105598160Y-122908991D01*
X105608548Y-122889555D01*
X105622524Y-122872524D01*
X105639555Y-122858548D01*
X105658991Y-122848160D01*
X105680072Y-122841764D01*
X105708140Y-122839000D01*
X107521860Y-122839000D01*
X107549928Y-122841764D01*
G37*
G36*
X84568512Y-121658927D02*
G01*
X84717812Y-121688624D01*
X84881784Y-121756544D01*
X85029354Y-121855147D01*
X85154853Y-121980646D01*
X85253456Y-122128216D01*
X85321376Y-122292188D01*
X85356000Y-122466259D01*
X85356000Y-122643741D01*
X85321376Y-122817812D01*
X85253456Y-122981784D01*
X85154853Y-123129354D01*
X85029354Y-123254853D01*
X84881784Y-123353456D01*
X84717812Y-123421376D01*
X84574268Y-123449928D01*
X84543742Y-123456000D01*
X84366258Y-123456000D01*
X84335732Y-123449928D01*
X84192188Y-123421376D01*
X84028216Y-123353456D01*
X83880646Y-123254853D01*
X83755147Y-123129354D01*
X83656544Y-122981784D01*
X83588624Y-122817812D01*
X83554000Y-122643741D01*
X83554000Y-122466259D01*
X83588624Y-122292188D01*
X83656544Y-122128216D01*
X83755147Y-121980646D01*
X83880646Y-121855147D01*
X84028216Y-121756544D01*
X84192188Y-121688624D01*
X84341488Y-121658927D01*
X84366258Y-121654000D01*
X84543742Y-121654000D01*
X84568512Y-121658927D01*
G37*
G36*
X157351928Y-121825764D02*
G01*
X157373009Y-121832160D01*
X157392445Y-121842548D01*
X157409476Y-121856524D01*
X157423452Y-121873555D01*
X157433840Y-121892991D01*
X157440236Y-121914072D01*
X157443000Y-121942140D01*
X157443000Y-122405860D01*
X157440236Y-122433928D01*
X157433840Y-122455009D01*
X157423452Y-122474445D01*
X157409476Y-122491476D01*
X157392445Y-122505452D01*
X157373009Y-122515840D01*
X157351928Y-122522236D01*
X157323860Y-122525000D01*
X155760140Y-122525000D01*
X155732072Y-122522236D01*
X155710991Y-122515840D01*
X155691555Y-122505452D01*
X155674524Y-122491476D01*
X155660548Y-122474445D01*
X155650160Y-122455009D01*
X155643764Y-122433928D01*
X155641000Y-122405860D01*
X155641000Y-121942140D01*
X155643764Y-121914072D01*
X155650160Y-121892991D01*
X155660548Y-121873555D01*
X155674524Y-121856524D01*
X155691555Y-121842548D01*
X155710991Y-121832160D01*
X155732072Y-121825764D01*
X155760140Y-121823000D01*
X157323860Y-121823000D01*
X157351928Y-121825764D01*
G37*
G36*
X166751928Y-121825764D02*
G01*
X166773009Y-121832160D01*
X166792445Y-121842548D01*
X166809476Y-121856524D01*
X166823452Y-121873555D01*
X166833840Y-121892991D01*
X166840236Y-121914072D01*
X166843000Y-121942140D01*
X166843000Y-122405860D01*
X166840236Y-122433928D01*
X166833840Y-122455009D01*
X166823452Y-122474445D01*
X166809476Y-122491476D01*
X166792445Y-122505452D01*
X166773009Y-122515840D01*
X166751928Y-122522236D01*
X166723860Y-122525000D01*
X165160140Y-122525000D01*
X165132072Y-122522236D01*
X165110991Y-122515840D01*
X165091555Y-122505452D01*
X165074524Y-122491476D01*
X165060548Y-122474445D01*
X165050160Y-122455009D01*
X165043764Y-122433928D01*
X165041000Y-122405860D01*
X165041000Y-121942140D01*
X165043764Y-121914072D01*
X165050160Y-121892991D01*
X165060548Y-121873555D01*
X165074524Y-121856524D01*
X165091555Y-121842548D01*
X165110991Y-121832160D01*
X165132072Y-121825764D01*
X165160140Y-121823000D01*
X166723860Y-121823000D01*
X166751928Y-121825764D01*
G37*
G36*
X142793928Y-121825764D02*
G01*
X142815009Y-121832160D01*
X142834445Y-121842548D01*
X142851476Y-121856524D01*
X142865452Y-121873555D01*
X142875840Y-121892991D01*
X142882236Y-121914072D01*
X142885000Y-121942140D01*
X142885000Y-122405860D01*
X142882236Y-122433928D01*
X142875840Y-122455009D01*
X142865452Y-122474445D01*
X142851476Y-122491476D01*
X142834445Y-122505452D01*
X142815009Y-122515840D01*
X142793928Y-122522236D01*
X142765860Y-122525000D01*
X141202140Y-122525000D01*
X141174072Y-122522236D01*
X141152991Y-122515840D01*
X141133555Y-122505452D01*
X141116524Y-122491476D01*
X141102548Y-122474445D01*
X141092160Y-122455009D01*
X141085764Y-122433928D01*
X141083000Y-122405860D01*
X141083000Y-121942140D01*
X141085764Y-121914072D01*
X141092160Y-121892991D01*
X141102548Y-121873555D01*
X141116524Y-121856524D01*
X141133555Y-121842548D01*
X141152991Y-121832160D01*
X141174072Y-121825764D01*
X141202140Y-121823000D01*
X142765860Y-121823000D01*
X142793928Y-121825764D01*
G37*
G36*
X152193928Y-121825764D02*
G01*
X152215009Y-121832160D01*
X152234445Y-121842548D01*
X152251476Y-121856524D01*
X152265452Y-121873555D01*
X152275840Y-121892991D01*
X152282236Y-121914072D01*
X152285000Y-121942140D01*
X152285000Y-122405860D01*
X152282236Y-122433928D01*
X152275840Y-122455009D01*
X152265452Y-122474445D01*
X152251476Y-122491476D01*
X152234445Y-122505452D01*
X152215009Y-122515840D01*
X152193928Y-122522236D01*
X152165860Y-122525000D01*
X150602140Y-122525000D01*
X150574072Y-122522236D01*
X150552991Y-122515840D01*
X150533555Y-122505452D01*
X150516524Y-122491476D01*
X150502548Y-122474445D01*
X150492160Y-122455009D01*
X150485764Y-122433928D01*
X150483000Y-122405860D01*
X150483000Y-121942140D01*
X150485764Y-121914072D01*
X150492160Y-121892991D01*
X150502548Y-121873555D01*
X150516524Y-121856524D01*
X150533555Y-121842548D01*
X150552991Y-121832160D01*
X150574072Y-121825764D01*
X150602140Y-121823000D01*
X152165860Y-121823000D01*
X152193928Y-121825764D01*
G37*
G36*
X102599928Y-121571764D02*
G01*
X102621009Y-121578160D01*
X102640445Y-121588548D01*
X102657476Y-121602524D01*
X102671452Y-121619555D01*
X102681840Y-121638991D01*
X102688236Y-121660072D01*
X102691000Y-121688140D01*
X102691000Y-122151860D01*
X102688236Y-122179928D01*
X102681840Y-122201009D01*
X102671452Y-122220445D01*
X102657476Y-122237476D01*
X102640445Y-122251452D01*
X102621009Y-122261840D01*
X102599928Y-122268236D01*
X102571860Y-122271000D01*
X100758140Y-122271000D01*
X100730072Y-122268236D01*
X100708991Y-122261840D01*
X100689555Y-122251452D01*
X100672524Y-122237476D01*
X100658548Y-122220445D01*
X100648160Y-122201009D01*
X100641764Y-122179928D01*
X100639000Y-122151860D01*
X100639000Y-121688140D01*
X100641764Y-121660072D01*
X100648160Y-121638991D01*
X100658548Y-121619555D01*
X100672524Y-121602524D01*
X100689555Y-121588548D01*
X100708991Y-121578160D01*
X100730072Y-121571764D01*
X100758140Y-121569000D01*
X102571860Y-121569000D01*
X102599928Y-121571764D01*
G37*
G36*
X107549928Y-121571764D02*
G01*
X107571009Y-121578160D01*
X107590445Y-121588548D01*
X107607476Y-121602524D01*
X107621452Y-121619555D01*
X107631840Y-121638991D01*
X107638236Y-121660072D01*
X107641000Y-121688140D01*
X107641000Y-122151860D01*
X107638236Y-122179928D01*
X107631840Y-122201009D01*
X107621452Y-122220445D01*
X107607476Y-122237476D01*
X107590445Y-122251452D01*
X107571009Y-122261840D01*
X107549928Y-122268236D01*
X107521860Y-122271000D01*
X105708140Y-122271000D01*
X105680072Y-122268236D01*
X105658991Y-122261840D01*
X105639555Y-122251452D01*
X105622524Y-122237476D01*
X105608548Y-122220445D01*
X105598160Y-122201009D01*
X105591764Y-122179928D01*
X105589000Y-122151860D01*
X105589000Y-121688140D01*
X105591764Y-121660072D01*
X105598160Y-121638991D01*
X105608548Y-121619555D01*
X105622524Y-121602524D01*
X105639555Y-121588548D01*
X105658991Y-121578160D01*
X105680072Y-121571764D01*
X105708140Y-121569000D01*
X107521860Y-121569000D01*
X107549928Y-121571764D01*
G37*
G36*
X142793928Y-120555764D02*
G01*
X142815009Y-120562160D01*
X142834445Y-120572548D01*
X142851476Y-120586524D01*
X142865452Y-120603555D01*
X142875840Y-120622991D01*
X142882236Y-120644072D01*
X142885000Y-120672140D01*
X142885000Y-121135860D01*
X142882236Y-121163928D01*
X142875840Y-121185009D01*
X142865452Y-121204445D01*
X142851476Y-121221476D01*
X142834445Y-121235452D01*
X142815009Y-121245840D01*
X142793928Y-121252236D01*
X142765860Y-121255000D01*
X141202140Y-121255000D01*
X141174072Y-121252236D01*
X141152991Y-121245840D01*
X141133555Y-121235452D01*
X141116524Y-121221476D01*
X141102548Y-121204445D01*
X141092160Y-121185009D01*
X141085764Y-121163928D01*
X141083000Y-121135860D01*
X141083000Y-120672140D01*
X141085764Y-120644072D01*
X141092160Y-120622991D01*
X141102548Y-120603555D01*
X141116524Y-120586524D01*
X141133555Y-120572548D01*
X141152991Y-120562160D01*
X141174072Y-120555764D01*
X141202140Y-120553000D01*
X142765860Y-120553000D01*
X142793928Y-120555764D01*
G37*
G36*
X152193928Y-120555764D02*
G01*
X152215009Y-120562160D01*
X152234445Y-120572548D01*
X152251476Y-120586524D01*
X152265452Y-120603555D01*
X152275840Y-120622991D01*
X152282236Y-120644072D01*
X152285000Y-120672140D01*
X152285000Y-121135860D01*
X152282236Y-121163928D01*
X152275840Y-121185009D01*
X152265452Y-121204445D01*
X152251476Y-121221476D01*
X152234445Y-121235452D01*
X152215009Y-121245840D01*
X152193928Y-121252236D01*
X152165860Y-121255000D01*
X150602140Y-121255000D01*
X150574072Y-121252236D01*
X150552991Y-121245840D01*
X150533555Y-121235452D01*
X150516524Y-121221476D01*
X150502548Y-121204445D01*
X150492160Y-121185009D01*
X150485764Y-121163928D01*
X150483000Y-121135860D01*
X150483000Y-120672140D01*
X150485764Y-120644072D01*
X150492160Y-120622991D01*
X150502548Y-120603555D01*
X150516524Y-120586524D01*
X150533555Y-120572548D01*
X150552991Y-120562160D01*
X150574072Y-120555764D01*
X150602140Y-120553000D01*
X152165860Y-120553000D01*
X152193928Y-120555764D01*
G37*
G36*
X166751928Y-120555764D02*
G01*
X166773009Y-120562160D01*
X166792445Y-120572548D01*
X166809476Y-120586524D01*
X166823452Y-120603555D01*
X166833840Y-120622991D01*
X166840236Y-120644072D01*
X166843000Y-120672140D01*
X166843000Y-121135860D01*
X166840236Y-121163928D01*
X166833840Y-121185009D01*
X166823452Y-121204445D01*
X166809476Y-121221476D01*
X166792445Y-121235452D01*
X166773009Y-121245840D01*
X166751928Y-121252236D01*
X166723860Y-121255000D01*
X165160140Y-121255000D01*
X165132072Y-121252236D01*
X165110991Y-121245840D01*
X165091555Y-121235452D01*
X165074524Y-121221476D01*
X165060548Y-121204445D01*
X165050160Y-121185009D01*
X165043764Y-121163928D01*
X165041000Y-121135860D01*
X165041000Y-120672140D01*
X165043764Y-120644072D01*
X165050160Y-120622991D01*
X165060548Y-120603555D01*
X165074524Y-120586524D01*
X165091555Y-120572548D01*
X165110991Y-120562160D01*
X165132072Y-120555764D01*
X165160140Y-120553000D01*
X166723860Y-120553000D01*
X166751928Y-120555764D01*
G37*
G36*
X157351928Y-120555764D02*
G01*
X157373009Y-120562160D01*
X157392445Y-120572548D01*
X157409476Y-120586524D01*
X157423452Y-120603555D01*
X157433840Y-120622991D01*
X157440236Y-120644072D01*
X157443000Y-120672140D01*
X157443000Y-121135860D01*
X157440236Y-121163928D01*
X157433840Y-121185009D01*
X157423452Y-121204445D01*
X157409476Y-121221476D01*
X157392445Y-121235452D01*
X157373009Y-121245840D01*
X157351928Y-121252236D01*
X157323860Y-121255000D01*
X155760140Y-121255000D01*
X155732072Y-121252236D01*
X155710991Y-121245840D01*
X155691555Y-121235452D01*
X155674524Y-121221476D01*
X155660548Y-121204445D01*
X155650160Y-121185009D01*
X155643764Y-121163928D01*
X155641000Y-121135860D01*
X155641000Y-120672140D01*
X155643764Y-120644072D01*
X155650160Y-120622991D01*
X155660548Y-120603555D01*
X155674524Y-120586524D01*
X155691555Y-120572548D01*
X155710991Y-120562160D01*
X155732072Y-120555764D01*
X155760140Y-120553000D01*
X157323860Y-120553000D01*
X157351928Y-120555764D01*
G37*
G36*
X107549928Y-120301764D02*
G01*
X107571009Y-120308160D01*
X107590445Y-120318548D01*
X107607476Y-120332524D01*
X107621452Y-120349555D01*
X107631840Y-120368991D01*
X107638236Y-120390072D01*
X107641000Y-120418140D01*
X107641000Y-120881860D01*
X107638236Y-120909928D01*
X107631840Y-120931009D01*
X107621452Y-120950445D01*
X107607476Y-120967476D01*
X107590445Y-120981452D01*
X107571009Y-120991840D01*
X107549928Y-120998236D01*
X107521860Y-121001000D01*
X105708140Y-121001000D01*
X105680072Y-120998236D01*
X105658991Y-120991840D01*
X105639555Y-120981452D01*
X105622524Y-120967476D01*
X105608548Y-120950445D01*
X105598160Y-120931009D01*
X105591764Y-120909928D01*
X105589000Y-120881860D01*
X105589000Y-120418140D01*
X105591764Y-120390072D01*
X105598160Y-120368991D01*
X105608548Y-120349555D01*
X105622524Y-120332524D01*
X105639555Y-120318548D01*
X105658991Y-120308160D01*
X105680072Y-120301764D01*
X105708140Y-120299000D01*
X107521860Y-120299000D01*
X107549928Y-120301764D01*
G37*
G36*
X102599928Y-120301764D02*
G01*
X102621009Y-120308160D01*
X102640445Y-120318548D01*
X102657476Y-120332524D01*
X102671452Y-120349555D01*
X102681840Y-120368991D01*
X102688236Y-120390072D01*
X102691000Y-120418140D01*
X102691000Y-120881860D01*
X102688236Y-120909928D01*
X102681840Y-120931009D01*
X102671452Y-120950445D01*
X102657476Y-120967476D01*
X102640445Y-120981452D01*
X102621009Y-120991840D01*
X102599928Y-120998236D01*
X102571860Y-121001000D01*
X100758140Y-121001000D01*
X100730072Y-120998236D01*
X100708991Y-120991840D01*
X100689555Y-120981452D01*
X100672524Y-120967476D01*
X100658548Y-120950445D01*
X100648160Y-120931009D01*
X100641764Y-120909928D01*
X100639000Y-120881860D01*
X100639000Y-120418140D01*
X100641764Y-120390072D01*
X100648160Y-120368991D01*
X100658548Y-120349555D01*
X100672524Y-120332524D01*
X100689555Y-120318548D01*
X100708991Y-120308160D01*
X100730072Y-120301764D01*
X100758140Y-120299000D01*
X102571860Y-120299000D01*
X102599928Y-120301764D01*
G37*
G36*
X84568512Y-119118927D02*
G01*
X84717812Y-119148624D01*
X84881784Y-119216544D01*
X85029354Y-119315147D01*
X85154853Y-119440646D01*
X85253456Y-119588216D01*
X85321376Y-119752188D01*
X85356000Y-119926259D01*
X85356000Y-120103741D01*
X85321376Y-120277812D01*
X85253456Y-120441784D01*
X85154853Y-120589354D01*
X85029354Y-120714853D01*
X84881784Y-120813456D01*
X84717812Y-120881376D01*
X84574268Y-120909928D01*
X84543742Y-120916000D01*
X84366258Y-120916000D01*
X84335732Y-120909928D01*
X84192188Y-120881376D01*
X84028216Y-120813456D01*
X83880646Y-120714853D01*
X83755147Y-120589354D01*
X83656544Y-120441784D01*
X83588624Y-120277812D01*
X83554000Y-120103741D01*
X83554000Y-119926259D01*
X83588624Y-119752188D01*
X83656544Y-119588216D01*
X83755147Y-119440646D01*
X83880646Y-119315147D01*
X84028216Y-119216544D01*
X84192188Y-119148624D01*
X84341488Y-119118927D01*
X84366258Y-119114000D01*
X84543742Y-119114000D01*
X84568512Y-119118927D01*
G37*
G36*
X142793928Y-119285764D02*
G01*
X142815009Y-119292160D01*
X142834445Y-119302548D01*
X142851476Y-119316524D01*
X142865452Y-119333555D01*
X142875840Y-119352991D01*
X142882236Y-119374072D01*
X142885000Y-119402140D01*
X142885000Y-119865860D01*
X142882236Y-119893928D01*
X142875840Y-119915009D01*
X142865452Y-119934445D01*
X142851476Y-119951476D01*
X142834445Y-119965452D01*
X142815009Y-119975840D01*
X142793928Y-119982236D01*
X142765860Y-119985000D01*
X141202140Y-119985000D01*
X141174072Y-119982236D01*
X141152991Y-119975840D01*
X141133555Y-119965452D01*
X141116524Y-119951476D01*
X141102548Y-119934445D01*
X141092160Y-119915009D01*
X141085764Y-119893928D01*
X141083000Y-119865860D01*
X141083000Y-119402140D01*
X141085764Y-119374072D01*
X141092160Y-119352991D01*
X141102548Y-119333555D01*
X141116524Y-119316524D01*
X141133555Y-119302548D01*
X141152991Y-119292160D01*
X141174072Y-119285764D01*
X141202140Y-119283000D01*
X142765860Y-119283000D01*
X142793928Y-119285764D01*
G37*
G36*
X152193928Y-119285764D02*
G01*
X152215009Y-119292160D01*
X152234445Y-119302548D01*
X152251476Y-119316524D01*
X152265452Y-119333555D01*
X152275840Y-119352991D01*
X152282236Y-119374072D01*
X152285000Y-119402140D01*
X152285000Y-119865860D01*
X152282236Y-119893928D01*
X152275840Y-119915009D01*
X152265452Y-119934445D01*
X152251476Y-119951476D01*
X152234445Y-119965452D01*
X152215009Y-119975840D01*
X152193928Y-119982236D01*
X152165860Y-119985000D01*
X150602140Y-119985000D01*
X150574072Y-119982236D01*
X150552991Y-119975840D01*
X150533555Y-119965452D01*
X150516524Y-119951476D01*
X150502548Y-119934445D01*
X150492160Y-119915009D01*
X150485764Y-119893928D01*
X150483000Y-119865860D01*
X150483000Y-119402140D01*
X150485764Y-119374072D01*
X150492160Y-119352991D01*
X150502548Y-119333555D01*
X150516524Y-119316524D01*
X150533555Y-119302548D01*
X150552991Y-119292160D01*
X150574072Y-119285764D01*
X150602140Y-119283000D01*
X152165860Y-119283000D01*
X152193928Y-119285764D01*
G37*
G36*
X157351928Y-119285764D02*
G01*
X157373009Y-119292160D01*
X157392445Y-119302548D01*
X157409476Y-119316524D01*
X157423452Y-119333555D01*
X157433840Y-119352991D01*
X157440236Y-119374072D01*
X157443000Y-119402140D01*
X157443000Y-119865860D01*
X157440236Y-119893928D01*
X157433840Y-119915009D01*
X157423452Y-119934445D01*
X157409476Y-119951476D01*
X157392445Y-119965452D01*
X157373009Y-119975840D01*
X157351928Y-119982236D01*
X157323860Y-119985000D01*
X155760140Y-119985000D01*
X155732072Y-119982236D01*
X155710991Y-119975840D01*
X155691555Y-119965452D01*
X155674524Y-119951476D01*
X155660548Y-119934445D01*
X155650160Y-119915009D01*
X155643764Y-119893928D01*
X155641000Y-119865860D01*
X155641000Y-119402140D01*
X155643764Y-119374072D01*
X155650160Y-119352991D01*
X155660548Y-119333555D01*
X155674524Y-119316524D01*
X155691555Y-119302548D01*
X155710991Y-119292160D01*
X155732072Y-119285764D01*
X155760140Y-119283000D01*
X157323860Y-119283000D01*
X157351928Y-119285764D01*
G37*
G36*
X166751928Y-119285764D02*
G01*
X166773009Y-119292160D01*
X166792445Y-119302548D01*
X166809476Y-119316524D01*
X166823452Y-119333555D01*
X166833840Y-119352991D01*
X166840236Y-119374072D01*
X166843000Y-119402140D01*
X166843000Y-119865860D01*
X166840236Y-119893928D01*
X166833840Y-119915009D01*
X166823452Y-119934445D01*
X166809476Y-119951476D01*
X166792445Y-119965452D01*
X166773009Y-119975840D01*
X166751928Y-119982236D01*
X166723860Y-119985000D01*
X165160140Y-119985000D01*
X165132072Y-119982236D01*
X165110991Y-119975840D01*
X165091555Y-119965452D01*
X165074524Y-119951476D01*
X165060548Y-119934445D01*
X165050160Y-119915009D01*
X165043764Y-119893928D01*
X165041000Y-119865860D01*
X165041000Y-119402140D01*
X165043764Y-119374072D01*
X165050160Y-119352991D01*
X165060548Y-119333555D01*
X165074524Y-119316524D01*
X165091555Y-119302548D01*
X165110991Y-119292160D01*
X165132072Y-119285764D01*
X165160140Y-119283000D01*
X166723860Y-119283000D01*
X166751928Y-119285764D01*
G37*
G36*
X102599928Y-119031764D02*
G01*
X102621009Y-119038160D01*
X102640445Y-119048548D01*
X102657476Y-119062524D01*
X102671452Y-119079555D01*
X102681840Y-119098991D01*
X102688236Y-119120072D01*
X102691000Y-119148140D01*
X102691000Y-119611860D01*
X102688236Y-119639928D01*
X102681840Y-119661009D01*
X102671452Y-119680445D01*
X102657476Y-119697476D01*
X102640445Y-119711452D01*
X102621009Y-119721840D01*
X102599928Y-119728236D01*
X102571860Y-119731000D01*
X100758140Y-119731000D01*
X100730072Y-119728236D01*
X100708991Y-119721840D01*
X100689555Y-119711452D01*
X100672524Y-119697476D01*
X100658548Y-119680445D01*
X100648160Y-119661009D01*
X100641764Y-119639928D01*
X100639000Y-119611860D01*
X100639000Y-119148140D01*
X100641764Y-119120072D01*
X100648160Y-119098991D01*
X100658548Y-119079555D01*
X100672524Y-119062524D01*
X100689555Y-119048548D01*
X100708991Y-119038160D01*
X100730072Y-119031764D01*
X100758140Y-119029000D01*
X102571860Y-119029000D01*
X102599928Y-119031764D01*
G37*
G36*
X107549928Y-119031764D02*
G01*
X107571009Y-119038160D01*
X107590445Y-119048548D01*
X107607476Y-119062524D01*
X107621452Y-119079555D01*
X107631840Y-119098991D01*
X107638236Y-119120072D01*
X107641000Y-119148140D01*
X107641000Y-119611860D01*
X107638236Y-119639928D01*
X107631840Y-119661009D01*
X107621452Y-119680445D01*
X107607476Y-119697476D01*
X107590445Y-119711452D01*
X107571009Y-119721840D01*
X107549928Y-119728236D01*
X107521860Y-119731000D01*
X105708140Y-119731000D01*
X105680072Y-119728236D01*
X105658991Y-119721840D01*
X105639555Y-119711452D01*
X105622524Y-119697476D01*
X105608548Y-119680445D01*
X105598160Y-119661009D01*
X105591764Y-119639928D01*
X105589000Y-119611860D01*
X105589000Y-119148140D01*
X105591764Y-119120072D01*
X105598160Y-119098991D01*
X105608548Y-119079555D01*
X105622524Y-119062524D01*
X105639555Y-119048548D01*
X105658991Y-119038160D01*
X105680072Y-119031764D01*
X105708140Y-119029000D01*
X107521860Y-119029000D01*
X107549928Y-119031764D01*
G37*
G36*
X152193928Y-118015764D02*
G01*
X152215009Y-118022160D01*
X152234445Y-118032548D01*
X152251476Y-118046524D01*
X152265452Y-118063555D01*
X152275840Y-118082991D01*
X152282236Y-118104072D01*
X152285000Y-118132140D01*
X152285000Y-118595860D01*
X152282236Y-118623928D01*
X152275840Y-118645009D01*
X152265452Y-118664445D01*
X152251476Y-118681476D01*
X152234445Y-118695452D01*
X152215009Y-118705840D01*
X152193928Y-118712236D01*
X152165860Y-118715000D01*
X150602140Y-118715000D01*
X150574072Y-118712236D01*
X150552991Y-118705840D01*
X150533555Y-118695452D01*
X150516524Y-118681476D01*
X150502548Y-118664445D01*
X150492160Y-118645009D01*
X150485764Y-118623928D01*
X150483000Y-118595860D01*
X150483000Y-118132140D01*
X150485764Y-118104072D01*
X150492160Y-118082991D01*
X150502548Y-118063555D01*
X150516524Y-118046524D01*
X150533555Y-118032548D01*
X150552991Y-118022160D01*
X150574072Y-118015764D01*
X150602140Y-118013000D01*
X152165860Y-118013000D01*
X152193928Y-118015764D01*
G37*
G36*
X166751928Y-118015764D02*
G01*
X166773009Y-118022160D01*
X166792445Y-118032548D01*
X166809476Y-118046524D01*
X166823452Y-118063555D01*
X166833840Y-118082991D01*
X166840236Y-118104072D01*
X166843000Y-118132140D01*
X166843000Y-118595860D01*
X166840236Y-118623928D01*
X166833840Y-118645009D01*
X166823452Y-118664445D01*
X166809476Y-118681476D01*
X166792445Y-118695452D01*
X166773009Y-118705840D01*
X166751928Y-118712236D01*
X166723860Y-118715000D01*
X165160140Y-118715000D01*
X165132072Y-118712236D01*
X165110991Y-118705840D01*
X165091555Y-118695452D01*
X165074524Y-118681476D01*
X165060548Y-118664445D01*
X165050160Y-118645009D01*
X165043764Y-118623928D01*
X165041000Y-118595860D01*
X165041000Y-118132140D01*
X165043764Y-118104072D01*
X165050160Y-118082991D01*
X165060548Y-118063555D01*
X165074524Y-118046524D01*
X165091555Y-118032548D01*
X165110991Y-118022160D01*
X165132072Y-118015764D01*
X165160140Y-118013000D01*
X166723860Y-118013000D01*
X166751928Y-118015764D01*
G37*
G36*
X142793928Y-118015764D02*
G01*
X142815009Y-118022160D01*
X142834445Y-118032548D01*
X142851476Y-118046524D01*
X142865452Y-118063555D01*
X142875840Y-118082991D01*
X142882236Y-118104072D01*
X142885000Y-118132140D01*
X142885000Y-118595860D01*
X142882236Y-118623928D01*
X142875840Y-118645009D01*
X142865452Y-118664445D01*
X142851476Y-118681476D01*
X142834445Y-118695452D01*
X142815009Y-118705840D01*
X142793928Y-118712236D01*
X142765860Y-118715000D01*
X141202140Y-118715000D01*
X141174072Y-118712236D01*
X141152991Y-118705840D01*
X141133555Y-118695452D01*
X141116524Y-118681476D01*
X141102548Y-118664445D01*
X141092160Y-118645009D01*
X141085764Y-118623928D01*
X141083000Y-118595860D01*
X141083000Y-118132140D01*
X141085764Y-118104072D01*
X141092160Y-118082991D01*
X141102548Y-118063555D01*
X141116524Y-118046524D01*
X141133555Y-118032548D01*
X141152991Y-118022160D01*
X141174072Y-118015764D01*
X141202140Y-118013000D01*
X142765860Y-118013000D01*
X142793928Y-118015764D01*
G37*
G36*
X157351928Y-118015764D02*
G01*
X157373009Y-118022160D01*
X157392445Y-118032548D01*
X157409476Y-118046524D01*
X157423452Y-118063555D01*
X157433840Y-118082991D01*
X157440236Y-118104072D01*
X157443000Y-118132140D01*
X157443000Y-118595860D01*
X157440236Y-118623928D01*
X157433840Y-118645009D01*
X157423452Y-118664445D01*
X157409476Y-118681476D01*
X157392445Y-118695452D01*
X157373009Y-118705840D01*
X157351928Y-118712236D01*
X157323860Y-118715000D01*
X155760140Y-118715000D01*
X155732072Y-118712236D01*
X155710991Y-118705840D01*
X155691555Y-118695452D01*
X155674524Y-118681476D01*
X155660548Y-118664445D01*
X155650160Y-118645009D01*
X155643764Y-118623928D01*
X155641000Y-118595860D01*
X155641000Y-118132140D01*
X155643764Y-118104072D01*
X155650160Y-118082991D01*
X155660548Y-118063555D01*
X155674524Y-118046524D01*
X155691555Y-118032548D01*
X155710991Y-118022160D01*
X155732072Y-118015764D01*
X155760140Y-118013000D01*
X157323860Y-118013000D01*
X157351928Y-118015764D01*
G37*
G36*
X84568512Y-116578927D02*
G01*
X84717812Y-116608624D01*
X84881784Y-116676544D01*
X85029354Y-116775147D01*
X85154853Y-116900646D01*
X85253456Y-117048216D01*
X85321376Y-117212188D01*
X85356000Y-117386259D01*
X85356000Y-117563741D01*
X85321376Y-117737812D01*
X85253456Y-117901784D01*
X85154853Y-118049354D01*
X85029354Y-118174853D01*
X84881784Y-118273456D01*
X84717812Y-118341376D01*
X84568512Y-118371073D01*
X84543742Y-118376000D01*
X84366258Y-118376000D01*
X84341488Y-118371073D01*
X84192188Y-118341376D01*
X84028216Y-118273456D01*
X83880646Y-118174853D01*
X83755147Y-118049354D01*
X83656544Y-117901784D01*
X83588624Y-117737812D01*
X83554000Y-117563741D01*
X83554000Y-117386259D01*
X83588624Y-117212188D01*
X83656544Y-117048216D01*
X83755147Y-116900646D01*
X83880646Y-116775147D01*
X84028216Y-116676544D01*
X84192188Y-116608624D01*
X84341488Y-116578927D01*
X84366258Y-116574000D01*
X84543742Y-116574000D01*
X84568512Y-116578927D01*
G37*
G36*
X166751928Y-116745764D02*
G01*
X166773009Y-116752160D01*
X166792445Y-116762548D01*
X166809476Y-116776524D01*
X166823452Y-116793555D01*
X166833840Y-116812991D01*
X166840236Y-116834072D01*
X166843000Y-116862140D01*
X166843000Y-117325860D01*
X166840236Y-117353928D01*
X166833840Y-117375009D01*
X166823452Y-117394445D01*
X166809476Y-117411476D01*
X166792445Y-117425452D01*
X166773009Y-117435840D01*
X166751928Y-117442236D01*
X166723860Y-117445000D01*
X165160140Y-117445000D01*
X165132072Y-117442236D01*
X165110991Y-117435840D01*
X165091555Y-117425452D01*
X165074524Y-117411476D01*
X165060548Y-117394445D01*
X165050160Y-117375009D01*
X165043764Y-117353928D01*
X165041000Y-117325860D01*
X165041000Y-116862140D01*
X165043764Y-116834072D01*
X165050160Y-116812991D01*
X165060548Y-116793555D01*
X165074524Y-116776524D01*
X165091555Y-116762548D01*
X165110991Y-116752160D01*
X165132072Y-116745764D01*
X165160140Y-116743000D01*
X166723860Y-116743000D01*
X166751928Y-116745764D01*
G37*
G36*
X157351928Y-116745764D02*
G01*
X157373009Y-116752160D01*
X157392445Y-116762548D01*
X157409476Y-116776524D01*
X157423452Y-116793555D01*
X157433840Y-116812991D01*
X157440236Y-116834072D01*
X157443000Y-116862140D01*
X157443000Y-117325860D01*
X157440236Y-117353928D01*
X157433840Y-117375009D01*
X157423452Y-117394445D01*
X157409476Y-117411476D01*
X157392445Y-117425452D01*
X157373009Y-117435840D01*
X157351928Y-117442236D01*
X157323860Y-117445000D01*
X155760140Y-117445000D01*
X155732072Y-117442236D01*
X155710991Y-117435840D01*
X155691555Y-117425452D01*
X155674524Y-117411476D01*
X155660548Y-117394445D01*
X155650160Y-117375009D01*
X155643764Y-117353928D01*
X155641000Y-117325860D01*
X155641000Y-116862140D01*
X155643764Y-116834072D01*
X155650160Y-116812991D01*
X155660548Y-116793555D01*
X155674524Y-116776524D01*
X155691555Y-116762548D01*
X155710991Y-116752160D01*
X155732072Y-116745764D01*
X155760140Y-116743000D01*
X157323860Y-116743000D01*
X157351928Y-116745764D01*
G37*
G36*
X142793928Y-116745764D02*
G01*
X142815009Y-116752160D01*
X142834445Y-116762548D01*
X142851476Y-116776524D01*
X142865452Y-116793555D01*
X142875840Y-116812991D01*
X142882236Y-116834072D01*
X142885000Y-116862140D01*
X142885000Y-117325860D01*
X142882236Y-117353928D01*
X142875840Y-117375009D01*
X142865452Y-117394445D01*
X142851476Y-117411476D01*
X142834445Y-117425452D01*
X142815009Y-117435840D01*
X142793928Y-117442236D01*
X142765860Y-117445000D01*
X141202140Y-117445000D01*
X141174072Y-117442236D01*
X141152991Y-117435840D01*
X141133555Y-117425452D01*
X141116524Y-117411476D01*
X141102548Y-117394445D01*
X141092160Y-117375009D01*
X141085764Y-117353928D01*
X141083000Y-117325860D01*
X141083000Y-116862140D01*
X141085764Y-116834072D01*
X141092160Y-116812991D01*
X141102548Y-116793555D01*
X141116524Y-116776524D01*
X141133555Y-116762548D01*
X141152991Y-116752160D01*
X141174072Y-116745764D01*
X141202140Y-116743000D01*
X142765860Y-116743000D01*
X142793928Y-116745764D01*
G37*
G36*
X152193928Y-116745764D02*
G01*
X152215009Y-116752160D01*
X152234445Y-116762548D01*
X152251476Y-116776524D01*
X152265452Y-116793555D01*
X152275840Y-116812991D01*
X152282236Y-116834072D01*
X152285000Y-116862140D01*
X152285000Y-117325860D01*
X152282236Y-117353928D01*
X152275840Y-117375009D01*
X152265452Y-117394445D01*
X152251476Y-117411476D01*
X152234445Y-117425452D01*
X152215009Y-117435840D01*
X152193928Y-117442236D01*
X152165860Y-117445000D01*
X150602140Y-117445000D01*
X150574072Y-117442236D01*
X150552991Y-117435840D01*
X150533555Y-117425452D01*
X150516524Y-117411476D01*
X150502548Y-117394445D01*
X150492160Y-117375009D01*
X150485764Y-117353928D01*
X150483000Y-117325860D01*
X150483000Y-116862140D01*
X150485764Y-116834072D01*
X150492160Y-116812991D01*
X150502548Y-116793555D01*
X150516524Y-116776524D01*
X150533555Y-116762548D01*
X150552991Y-116752160D01*
X150574072Y-116745764D01*
X150602140Y-116743000D01*
X152165860Y-116743000D01*
X152193928Y-116745764D01*
G37*
G36*
X166751928Y-115475764D02*
G01*
X166773009Y-115482160D01*
X166792445Y-115492548D01*
X166809476Y-115506524D01*
X166823452Y-115523555D01*
X166833840Y-115542991D01*
X166840236Y-115564072D01*
X166843000Y-115592140D01*
X166843000Y-116055860D01*
X166840236Y-116083928D01*
X166833840Y-116105009D01*
X166823452Y-116124445D01*
X166809476Y-116141476D01*
X166792445Y-116155452D01*
X166773009Y-116165840D01*
X166751928Y-116172236D01*
X166723860Y-116175000D01*
X165160140Y-116175000D01*
X165132072Y-116172236D01*
X165110991Y-116165840D01*
X165091555Y-116155452D01*
X165074524Y-116141476D01*
X165060548Y-116124445D01*
X165050160Y-116105009D01*
X165043764Y-116083928D01*
X165041000Y-116055860D01*
X165041000Y-115592140D01*
X165043764Y-115564072D01*
X165050160Y-115542991D01*
X165060548Y-115523555D01*
X165074524Y-115506524D01*
X165091555Y-115492548D01*
X165110991Y-115482160D01*
X165132072Y-115475764D01*
X165160140Y-115473000D01*
X166723860Y-115473000D01*
X166751928Y-115475764D01*
G37*
G36*
X157351928Y-115475764D02*
G01*
X157373009Y-115482160D01*
X157392445Y-115492548D01*
X157409476Y-115506524D01*
X157423452Y-115523555D01*
X157433840Y-115542991D01*
X157440236Y-115564072D01*
X157443000Y-115592140D01*
X157443000Y-116055860D01*
X157440236Y-116083928D01*
X157433840Y-116105009D01*
X157423452Y-116124445D01*
X157409476Y-116141476D01*
X157392445Y-116155452D01*
X157373009Y-116165840D01*
X157351928Y-116172236D01*
X157323860Y-116175000D01*
X155760140Y-116175000D01*
X155732072Y-116172236D01*
X155710991Y-116165840D01*
X155691555Y-116155452D01*
X155674524Y-116141476D01*
X155660548Y-116124445D01*
X155650160Y-116105009D01*
X155643764Y-116083928D01*
X155641000Y-116055860D01*
X155641000Y-115592140D01*
X155643764Y-115564072D01*
X155650160Y-115542991D01*
X155660548Y-115523555D01*
X155674524Y-115506524D01*
X155691555Y-115492548D01*
X155710991Y-115482160D01*
X155732072Y-115475764D01*
X155760140Y-115473000D01*
X157323860Y-115473000D01*
X157351928Y-115475764D01*
G37*
G36*
X142793928Y-115475764D02*
G01*
X142815009Y-115482160D01*
X142834445Y-115492548D01*
X142851476Y-115506524D01*
X142865452Y-115523555D01*
X142875840Y-115542991D01*
X142882236Y-115564072D01*
X142885000Y-115592140D01*
X142885000Y-116055860D01*
X142882236Y-116083928D01*
X142875840Y-116105009D01*
X142865452Y-116124445D01*
X142851476Y-116141476D01*
X142834445Y-116155452D01*
X142815009Y-116165840D01*
X142793928Y-116172236D01*
X142765860Y-116175000D01*
X141202140Y-116175000D01*
X141174072Y-116172236D01*
X141152991Y-116165840D01*
X141133555Y-116155452D01*
X141116524Y-116141476D01*
X141102548Y-116124445D01*
X141092160Y-116105009D01*
X141085764Y-116083928D01*
X141083000Y-116055860D01*
X141083000Y-115592140D01*
X141085764Y-115564072D01*
X141092160Y-115542991D01*
X141102548Y-115523555D01*
X141116524Y-115506524D01*
X141133555Y-115492548D01*
X141152991Y-115482160D01*
X141174072Y-115475764D01*
X141202140Y-115473000D01*
X142765860Y-115473000D01*
X142793928Y-115475764D01*
G37*
G36*
X152193928Y-115475764D02*
G01*
X152215009Y-115482160D01*
X152234445Y-115492548D01*
X152251476Y-115506524D01*
X152265452Y-115523555D01*
X152275840Y-115542991D01*
X152282236Y-115564072D01*
X152285000Y-115592140D01*
X152285000Y-116055860D01*
X152282236Y-116083928D01*
X152275840Y-116105009D01*
X152265452Y-116124445D01*
X152251476Y-116141476D01*
X152234445Y-116155452D01*
X152215009Y-116165840D01*
X152193928Y-116172236D01*
X152165860Y-116175000D01*
X150602140Y-116175000D01*
X150574072Y-116172236D01*
X150552991Y-116165840D01*
X150533555Y-116155452D01*
X150516524Y-116141476D01*
X150502548Y-116124445D01*
X150492160Y-116105009D01*
X150485764Y-116083928D01*
X150483000Y-116055860D01*
X150483000Y-115592140D01*
X150485764Y-115564072D01*
X150492160Y-115542991D01*
X150502548Y-115523555D01*
X150516524Y-115506524D01*
X150533555Y-115492548D01*
X150552991Y-115482160D01*
X150574072Y-115475764D01*
X150602140Y-115473000D01*
X152165860Y-115473000D01*
X152193928Y-115475764D01*
G37*
G36*
X84568512Y-114038927D02*
G01*
X84717812Y-114068624D01*
X84881784Y-114136544D01*
X85029354Y-114235147D01*
X85154853Y-114360646D01*
X85253456Y-114508216D01*
X85321376Y-114672188D01*
X85356000Y-114846259D01*
X85356000Y-115023741D01*
X85321376Y-115197812D01*
X85253456Y-115361784D01*
X85154853Y-115509354D01*
X85029354Y-115634853D01*
X84881784Y-115733456D01*
X84717812Y-115801376D01*
X84568512Y-115831073D01*
X84543742Y-115836000D01*
X84366258Y-115836000D01*
X84341488Y-115831073D01*
X84192188Y-115801376D01*
X84028216Y-115733456D01*
X83880646Y-115634853D01*
X83755147Y-115509354D01*
X83656544Y-115361784D01*
X83588624Y-115197812D01*
X83554000Y-115023741D01*
X83554000Y-114846259D01*
X83588624Y-114672188D01*
X83656544Y-114508216D01*
X83755147Y-114360646D01*
X83880646Y-114235147D01*
X84028216Y-114136544D01*
X84192188Y-114068624D01*
X84341488Y-114038927D01*
X84366258Y-114034000D01*
X84543742Y-114034000D01*
X84568512Y-114038927D01*
G37*
G36*
X152193928Y-114205764D02*
G01*
X152215009Y-114212160D01*
X152234445Y-114222548D01*
X152251476Y-114236524D01*
X152265452Y-114253555D01*
X152275840Y-114272991D01*
X152282236Y-114294072D01*
X152285000Y-114322140D01*
X152285000Y-114785860D01*
X152282236Y-114813928D01*
X152275840Y-114835009D01*
X152265452Y-114854445D01*
X152251476Y-114871476D01*
X152234445Y-114885452D01*
X152215009Y-114895840D01*
X152193928Y-114902236D01*
X152165860Y-114905000D01*
X150602140Y-114905000D01*
X150574072Y-114902236D01*
X150552991Y-114895840D01*
X150533555Y-114885452D01*
X150516524Y-114871476D01*
X150502548Y-114854445D01*
X150492160Y-114835009D01*
X150485764Y-114813928D01*
X150483000Y-114785860D01*
X150483000Y-114322140D01*
X150485764Y-114294072D01*
X150492160Y-114272991D01*
X150502548Y-114253555D01*
X150516524Y-114236524D01*
X150533555Y-114222548D01*
X150552991Y-114212160D01*
X150574072Y-114205764D01*
X150602140Y-114203000D01*
X152165860Y-114203000D01*
X152193928Y-114205764D01*
G37*
G36*
X166751928Y-114205764D02*
G01*
X166773009Y-114212160D01*
X166792445Y-114222548D01*
X166809476Y-114236524D01*
X166823452Y-114253555D01*
X166833840Y-114272991D01*
X166840236Y-114294072D01*
X166843000Y-114322140D01*
X166843000Y-114785860D01*
X166840236Y-114813928D01*
X166833840Y-114835009D01*
X166823452Y-114854445D01*
X166809476Y-114871476D01*
X166792445Y-114885452D01*
X166773009Y-114895840D01*
X166751928Y-114902236D01*
X166723860Y-114905000D01*
X165160140Y-114905000D01*
X165132072Y-114902236D01*
X165110991Y-114895840D01*
X165091555Y-114885452D01*
X165074524Y-114871476D01*
X165060548Y-114854445D01*
X165050160Y-114835009D01*
X165043764Y-114813928D01*
X165041000Y-114785860D01*
X165041000Y-114322140D01*
X165043764Y-114294072D01*
X165050160Y-114272991D01*
X165060548Y-114253555D01*
X165074524Y-114236524D01*
X165091555Y-114222548D01*
X165110991Y-114212160D01*
X165132072Y-114205764D01*
X165160140Y-114203000D01*
X166723860Y-114203000D01*
X166751928Y-114205764D01*
G37*
G36*
X157351928Y-114205764D02*
G01*
X157373009Y-114212160D01*
X157392445Y-114222548D01*
X157409476Y-114236524D01*
X157423452Y-114253555D01*
X157433840Y-114272991D01*
X157440236Y-114294072D01*
X157443000Y-114322140D01*
X157443000Y-114785860D01*
X157440236Y-114813928D01*
X157433840Y-114835009D01*
X157423452Y-114854445D01*
X157409476Y-114871476D01*
X157392445Y-114885452D01*
X157373009Y-114895840D01*
X157351928Y-114902236D01*
X157323860Y-114905000D01*
X155760140Y-114905000D01*
X155732072Y-114902236D01*
X155710991Y-114895840D01*
X155691555Y-114885452D01*
X155674524Y-114871476D01*
X155660548Y-114854445D01*
X155650160Y-114835009D01*
X155643764Y-114813928D01*
X155641000Y-114785860D01*
X155641000Y-114322140D01*
X155643764Y-114294072D01*
X155650160Y-114272991D01*
X155660548Y-114253555D01*
X155674524Y-114236524D01*
X155691555Y-114222548D01*
X155710991Y-114212160D01*
X155732072Y-114205764D01*
X155760140Y-114203000D01*
X157323860Y-114203000D01*
X157351928Y-114205764D01*
G37*
G36*
X142793928Y-114205764D02*
G01*
X142815009Y-114212160D01*
X142834445Y-114222548D01*
X142851476Y-114236524D01*
X142865452Y-114253555D01*
X142875840Y-114272991D01*
X142882236Y-114294072D01*
X142885000Y-114322140D01*
X142885000Y-114785860D01*
X142882236Y-114813928D01*
X142875840Y-114835009D01*
X142865452Y-114854445D01*
X142851476Y-114871476D01*
X142834445Y-114885452D01*
X142815009Y-114895840D01*
X142793928Y-114902236D01*
X142765860Y-114905000D01*
X141202140Y-114905000D01*
X141174072Y-114902236D01*
X141152991Y-114895840D01*
X141133555Y-114885452D01*
X141116524Y-114871476D01*
X141102548Y-114854445D01*
X141092160Y-114835009D01*
X141085764Y-114813928D01*
X141083000Y-114785860D01*
X141083000Y-114322140D01*
X141085764Y-114294072D01*
X141092160Y-114272991D01*
X141102548Y-114253555D01*
X141116524Y-114236524D01*
X141133555Y-114222548D01*
X141152991Y-114212160D01*
X141174072Y-114205764D01*
X141202140Y-114203000D01*
X142765860Y-114203000D01*
X142793928Y-114205764D01*
G37*
G36*
X166751928Y-112935764D02*
G01*
X166773009Y-112942160D01*
X166792445Y-112952548D01*
X166809476Y-112966524D01*
X166823452Y-112983555D01*
X166833840Y-113002991D01*
X166840236Y-113024072D01*
X166843000Y-113052140D01*
X166843000Y-113515860D01*
X166840236Y-113543928D01*
X166833840Y-113565009D01*
X166823452Y-113584445D01*
X166809476Y-113601476D01*
X166792445Y-113615452D01*
X166773009Y-113625840D01*
X166751928Y-113632236D01*
X166723860Y-113635000D01*
X165160140Y-113635000D01*
X165132072Y-113632236D01*
X165110991Y-113625840D01*
X165091555Y-113615452D01*
X165074524Y-113601476D01*
X165060548Y-113584445D01*
X165050160Y-113565009D01*
X165043764Y-113543928D01*
X165041000Y-113515860D01*
X165041000Y-113052140D01*
X165043764Y-113024072D01*
X165050160Y-113002991D01*
X165060548Y-112983555D01*
X165074524Y-112966524D01*
X165091555Y-112952548D01*
X165110991Y-112942160D01*
X165132072Y-112935764D01*
X165160140Y-112933000D01*
X166723860Y-112933000D01*
X166751928Y-112935764D01*
G37*
G36*
X157351928Y-112935764D02*
G01*
X157373009Y-112942160D01*
X157392445Y-112952548D01*
X157409476Y-112966524D01*
X157423452Y-112983555D01*
X157433840Y-113002991D01*
X157440236Y-113024072D01*
X157443000Y-113052140D01*
X157443000Y-113515860D01*
X157440236Y-113543928D01*
X157433840Y-113565009D01*
X157423452Y-113584445D01*
X157409476Y-113601476D01*
X157392445Y-113615452D01*
X157373009Y-113625840D01*
X157351928Y-113632236D01*
X157323860Y-113635000D01*
X155760140Y-113635000D01*
X155732072Y-113632236D01*
X155710991Y-113625840D01*
X155691555Y-113615452D01*
X155674524Y-113601476D01*
X155660548Y-113584445D01*
X155650160Y-113565009D01*
X155643764Y-113543928D01*
X155641000Y-113515860D01*
X155641000Y-113052140D01*
X155643764Y-113024072D01*
X155650160Y-113002991D01*
X155660548Y-112983555D01*
X155674524Y-112966524D01*
X155691555Y-112952548D01*
X155710991Y-112942160D01*
X155732072Y-112935764D01*
X155760140Y-112933000D01*
X157323860Y-112933000D01*
X157351928Y-112935764D01*
G37*
G36*
X142793928Y-112935764D02*
G01*
X142815009Y-112942160D01*
X142834445Y-112952548D01*
X142851476Y-112966524D01*
X142865452Y-112983555D01*
X142875840Y-113002991D01*
X142882236Y-113024072D01*
X142885000Y-113052140D01*
X142885000Y-113515860D01*
X142882236Y-113543928D01*
X142875840Y-113565009D01*
X142865452Y-113584445D01*
X142851476Y-113601476D01*
X142834445Y-113615452D01*
X142815009Y-113625840D01*
X142793928Y-113632236D01*
X142765860Y-113635000D01*
X141202140Y-113635000D01*
X141174072Y-113632236D01*
X141152991Y-113625840D01*
X141133555Y-113615452D01*
X141116524Y-113601476D01*
X141102548Y-113584445D01*
X141092160Y-113565009D01*
X141085764Y-113543928D01*
X141083000Y-113515860D01*
X141083000Y-113052140D01*
X141085764Y-113024072D01*
X141092160Y-113002991D01*
X141102548Y-112983555D01*
X141116524Y-112966524D01*
X141133555Y-112952548D01*
X141152991Y-112942160D01*
X141174072Y-112935764D01*
X141202140Y-112933000D01*
X142765860Y-112933000D01*
X142793928Y-112935764D01*
G37*
G36*
X152193928Y-112935764D02*
G01*
X152215009Y-112942160D01*
X152234445Y-112952548D01*
X152251476Y-112966524D01*
X152265452Y-112983555D01*
X152275840Y-113002991D01*
X152282236Y-113024072D01*
X152285000Y-113052140D01*
X152285000Y-113515860D01*
X152282236Y-113543928D01*
X152275840Y-113565009D01*
X152265452Y-113584445D01*
X152251476Y-113601476D01*
X152234445Y-113615452D01*
X152215009Y-113625840D01*
X152193928Y-113632236D01*
X152165860Y-113635000D01*
X150602140Y-113635000D01*
X150574072Y-113632236D01*
X150552991Y-113625840D01*
X150533555Y-113615452D01*
X150516524Y-113601476D01*
X150502548Y-113584445D01*
X150492160Y-113565009D01*
X150485764Y-113543928D01*
X150483000Y-113515860D01*
X150483000Y-113052140D01*
X150485764Y-113024072D01*
X150492160Y-113002991D01*
X150502548Y-112983555D01*
X150516524Y-112966524D01*
X150533555Y-112952548D01*
X150552991Y-112942160D01*
X150574072Y-112935764D01*
X150602140Y-112933000D01*
X152165860Y-112933000D01*
X152193928Y-112935764D01*
G37*
G36*
X84568512Y-111498927D02*
G01*
X84717812Y-111528624D01*
X84881784Y-111596544D01*
X85029354Y-111695147D01*
X85154853Y-111820646D01*
X85253456Y-111968216D01*
X85321376Y-112132188D01*
X85356000Y-112306259D01*
X85356000Y-112483741D01*
X85321376Y-112657812D01*
X85253456Y-112821784D01*
X85154853Y-112969354D01*
X85029354Y-113094853D01*
X84881784Y-113193456D01*
X84717812Y-113261376D01*
X84568512Y-113291073D01*
X84543742Y-113296000D01*
X84366258Y-113296000D01*
X84341488Y-113291073D01*
X84192188Y-113261376D01*
X84028216Y-113193456D01*
X83880646Y-113094853D01*
X83755147Y-112969354D01*
X83656544Y-112821784D01*
X83588624Y-112657812D01*
X83554000Y-112483741D01*
X83554000Y-112306259D01*
X83588624Y-112132188D01*
X83656544Y-111968216D01*
X83755147Y-111820646D01*
X83880646Y-111695147D01*
X84028216Y-111596544D01*
X84192188Y-111528624D01*
X84341488Y-111498927D01*
X84366258Y-111494000D01*
X84543742Y-111494000D01*
X84568512Y-111498927D01*
G37*
G36*
X166751928Y-111665764D02*
G01*
X166773009Y-111672160D01*
X166792445Y-111682548D01*
X166809476Y-111696524D01*
X166823452Y-111713555D01*
X166833840Y-111732991D01*
X166840236Y-111754072D01*
X166843000Y-111782140D01*
X166843000Y-112245860D01*
X166840236Y-112273928D01*
X166833840Y-112295009D01*
X166823452Y-112314445D01*
X166809476Y-112331476D01*
X166792445Y-112345452D01*
X166773009Y-112355840D01*
X166751928Y-112362236D01*
X166723860Y-112365000D01*
X165160140Y-112365000D01*
X165132072Y-112362236D01*
X165110991Y-112355840D01*
X165091555Y-112345452D01*
X165074524Y-112331476D01*
X165060548Y-112314445D01*
X165050160Y-112295009D01*
X165043764Y-112273928D01*
X165041000Y-112245860D01*
X165041000Y-111782140D01*
X165043764Y-111754072D01*
X165050160Y-111732991D01*
X165060548Y-111713555D01*
X165074524Y-111696524D01*
X165091555Y-111682548D01*
X165110991Y-111672160D01*
X165132072Y-111665764D01*
X165160140Y-111663000D01*
X166723860Y-111663000D01*
X166751928Y-111665764D01*
G37*
G36*
X142793928Y-111665764D02*
G01*
X142815009Y-111672160D01*
X142834445Y-111682548D01*
X142851476Y-111696524D01*
X142865452Y-111713555D01*
X142875840Y-111732991D01*
X142882236Y-111754072D01*
X142885000Y-111782140D01*
X142885000Y-112245860D01*
X142882236Y-112273928D01*
X142875840Y-112295009D01*
X142865452Y-112314445D01*
X142851476Y-112331476D01*
X142834445Y-112345452D01*
X142815009Y-112355840D01*
X142793928Y-112362236D01*
X142765860Y-112365000D01*
X141202140Y-112365000D01*
X141174072Y-112362236D01*
X141152991Y-112355840D01*
X141133555Y-112345452D01*
X141116524Y-112331476D01*
X141102548Y-112314445D01*
X141092160Y-112295009D01*
X141085764Y-112273928D01*
X141083000Y-112245860D01*
X141083000Y-111782140D01*
X141085764Y-111754072D01*
X141092160Y-111732991D01*
X141102548Y-111713555D01*
X141116524Y-111696524D01*
X141133555Y-111682548D01*
X141152991Y-111672160D01*
X141174072Y-111665764D01*
X141202140Y-111663000D01*
X142765860Y-111663000D01*
X142793928Y-111665764D01*
G37*
G36*
X152193928Y-111665764D02*
G01*
X152215009Y-111672160D01*
X152234445Y-111682548D01*
X152251476Y-111696524D01*
X152265452Y-111713555D01*
X152275840Y-111732991D01*
X152282236Y-111754072D01*
X152285000Y-111782140D01*
X152285000Y-112245860D01*
X152282236Y-112273928D01*
X152275840Y-112295009D01*
X152265452Y-112314445D01*
X152251476Y-112331476D01*
X152234445Y-112345452D01*
X152215009Y-112355840D01*
X152193928Y-112362236D01*
X152165860Y-112365000D01*
X150602140Y-112365000D01*
X150574072Y-112362236D01*
X150552991Y-112355840D01*
X150533555Y-112345452D01*
X150516524Y-112331476D01*
X150502548Y-112314445D01*
X150492160Y-112295009D01*
X150485764Y-112273928D01*
X150483000Y-112245860D01*
X150483000Y-111782140D01*
X150485764Y-111754072D01*
X150492160Y-111732991D01*
X150502548Y-111713555D01*
X150516524Y-111696524D01*
X150533555Y-111682548D01*
X150552991Y-111672160D01*
X150574072Y-111665764D01*
X150602140Y-111663000D01*
X152165860Y-111663000D01*
X152193928Y-111665764D01*
G37*
G36*
X157351928Y-111665764D02*
G01*
X157373009Y-111672160D01*
X157392445Y-111682548D01*
X157409476Y-111696524D01*
X157423452Y-111713555D01*
X157433840Y-111732991D01*
X157440236Y-111754072D01*
X157443000Y-111782140D01*
X157443000Y-112245860D01*
X157440236Y-112273928D01*
X157433840Y-112295009D01*
X157423452Y-112314445D01*
X157409476Y-112331476D01*
X157392445Y-112345452D01*
X157373009Y-112355840D01*
X157351928Y-112362236D01*
X157323860Y-112365000D01*
X155760140Y-112365000D01*
X155732072Y-112362236D01*
X155710991Y-112355840D01*
X155691555Y-112345452D01*
X155674524Y-112331476D01*
X155660548Y-112314445D01*
X155650160Y-112295009D01*
X155643764Y-112273928D01*
X155641000Y-112245860D01*
X155641000Y-111782140D01*
X155643764Y-111754072D01*
X155650160Y-111732991D01*
X155660548Y-111713555D01*
X155674524Y-111696524D01*
X155691555Y-111682548D01*
X155710991Y-111672160D01*
X155732072Y-111665764D01*
X155760140Y-111663000D01*
X157323860Y-111663000D01*
X157351928Y-111665764D01*
G37*
G36*
X157351928Y-110395764D02*
G01*
X157373009Y-110402160D01*
X157392445Y-110412548D01*
X157409476Y-110426524D01*
X157423452Y-110443555D01*
X157433840Y-110462991D01*
X157440236Y-110484072D01*
X157443000Y-110512140D01*
X157443000Y-110975860D01*
X157440236Y-111003928D01*
X157433840Y-111025009D01*
X157423452Y-111044445D01*
X157409476Y-111061476D01*
X157392445Y-111075452D01*
X157373009Y-111085840D01*
X157351928Y-111092236D01*
X157323860Y-111095000D01*
X155760140Y-111095000D01*
X155732072Y-111092236D01*
X155710991Y-111085840D01*
X155691555Y-111075452D01*
X155674524Y-111061476D01*
X155660548Y-111044445D01*
X155650160Y-111025009D01*
X155643764Y-111003928D01*
X155641000Y-110975860D01*
X155641000Y-110512140D01*
X155643764Y-110484072D01*
X155650160Y-110462991D01*
X155660548Y-110443555D01*
X155674524Y-110426524D01*
X155691555Y-110412548D01*
X155710991Y-110402160D01*
X155732072Y-110395764D01*
X155760140Y-110393000D01*
X157323860Y-110393000D01*
X157351928Y-110395764D01*
G37*
G36*
X142793928Y-110395764D02*
G01*
X142815009Y-110402160D01*
X142834445Y-110412548D01*
X142851476Y-110426524D01*
X142865452Y-110443555D01*
X142875840Y-110462991D01*
X142882236Y-110484072D01*
X142885000Y-110512140D01*
X142885000Y-110975860D01*
X142882236Y-111003928D01*
X142875840Y-111025009D01*
X142865452Y-111044445D01*
X142851476Y-111061476D01*
X142834445Y-111075452D01*
X142815009Y-111085840D01*
X142793928Y-111092236D01*
X142765860Y-111095000D01*
X141202140Y-111095000D01*
X141174072Y-111092236D01*
X141152991Y-111085840D01*
X141133555Y-111075452D01*
X141116524Y-111061476D01*
X141102548Y-111044445D01*
X141092160Y-111025009D01*
X141085764Y-111003928D01*
X141083000Y-110975860D01*
X141083000Y-110512140D01*
X141085764Y-110484072D01*
X141092160Y-110462991D01*
X141102548Y-110443555D01*
X141116524Y-110426524D01*
X141133555Y-110412548D01*
X141152991Y-110402160D01*
X141174072Y-110395764D01*
X141202140Y-110393000D01*
X142765860Y-110393000D01*
X142793928Y-110395764D01*
G37*
G36*
X152193928Y-110395764D02*
G01*
X152215009Y-110402160D01*
X152234445Y-110412548D01*
X152251476Y-110426524D01*
X152265452Y-110443555D01*
X152275840Y-110462991D01*
X152282236Y-110484072D01*
X152285000Y-110512140D01*
X152285000Y-110975860D01*
X152282236Y-111003928D01*
X152275840Y-111025009D01*
X152265452Y-111044445D01*
X152251476Y-111061476D01*
X152234445Y-111075452D01*
X152215009Y-111085840D01*
X152193928Y-111092236D01*
X152165860Y-111095000D01*
X150602140Y-111095000D01*
X150574072Y-111092236D01*
X150552991Y-111085840D01*
X150533555Y-111075452D01*
X150516524Y-111061476D01*
X150502548Y-111044445D01*
X150492160Y-111025009D01*
X150485764Y-111003928D01*
X150483000Y-110975860D01*
X150483000Y-110512140D01*
X150485764Y-110484072D01*
X150492160Y-110462991D01*
X150502548Y-110443555D01*
X150516524Y-110426524D01*
X150533555Y-110412548D01*
X150552991Y-110402160D01*
X150574072Y-110395764D01*
X150602140Y-110393000D01*
X152165860Y-110393000D01*
X152193928Y-110395764D01*
G37*
G36*
X166751928Y-110395764D02*
G01*
X166773009Y-110402160D01*
X166792445Y-110412548D01*
X166809476Y-110426524D01*
X166823452Y-110443555D01*
X166833840Y-110462991D01*
X166840236Y-110484072D01*
X166843000Y-110512140D01*
X166843000Y-110975860D01*
X166840236Y-111003928D01*
X166833840Y-111025009D01*
X166823452Y-111044445D01*
X166809476Y-111061476D01*
X166792445Y-111075452D01*
X166773009Y-111085840D01*
X166751928Y-111092236D01*
X166723860Y-111095000D01*
X165160140Y-111095000D01*
X165132072Y-111092236D01*
X165110991Y-111085840D01*
X165091555Y-111075452D01*
X165074524Y-111061476D01*
X165060548Y-111044445D01*
X165050160Y-111025009D01*
X165043764Y-111003928D01*
X165041000Y-110975860D01*
X165041000Y-110512140D01*
X165043764Y-110484072D01*
X165050160Y-110462991D01*
X165060548Y-110443555D01*
X165074524Y-110426524D01*
X165091555Y-110412548D01*
X165110991Y-110402160D01*
X165132072Y-110395764D01*
X165160140Y-110393000D01*
X166723860Y-110393000D01*
X166751928Y-110395764D01*
G37*
G36*
X84568512Y-108958927D02*
G01*
X84717812Y-108988624D01*
X84881784Y-109056544D01*
X85029354Y-109155147D01*
X85154853Y-109280646D01*
X85253456Y-109428216D01*
X85321376Y-109592188D01*
X85356000Y-109766259D01*
X85356000Y-109943741D01*
X85321376Y-110117812D01*
X85253456Y-110281784D01*
X85154853Y-110429354D01*
X85029354Y-110554853D01*
X84881784Y-110653456D01*
X84717812Y-110721376D01*
X84568512Y-110751073D01*
X84543742Y-110756000D01*
X84366258Y-110756000D01*
X84341488Y-110751073D01*
X84192188Y-110721376D01*
X84028216Y-110653456D01*
X83880646Y-110554853D01*
X83755147Y-110429354D01*
X83656544Y-110281784D01*
X83588624Y-110117812D01*
X83554000Y-109943741D01*
X83554000Y-109766259D01*
X83588624Y-109592188D01*
X83656544Y-109428216D01*
X83755147Y-109280646D01*
X83880646Y-109155147D01*
X84028216Y-109056544D01*
X84192188Y-108988624D01*
X84341488Y-108958927D01*
X84366258Y-108954000D01*
X84543742Y-108954000D01*
X84568512Y-108958927D01*
G37*
G36*
X174256000Y-110756000D02*
G01*
X172454000Y-110756000D01*
X172454000Y-108954000D01*
X174256000Y-108954000D01*
X174256000Y-110756000D01*
G37*
G36*
X93225604Y-108425347D02*
G01*
X93262144Y-108436432D01*
X93295821Y-108454433D01*
X93325341Y-108478659D01*
X93349567Y-108508179D01*
X93367568Y-108541856D01*
X93378653Y-108578396D01*
X93383000Y-108622538D01*
X93383000Y-110071462D01*
X93378653Y-110115604D01*
X93367568Y-110152144D01*
X93349567Y-110185821D01*
X93325341Y-110215341D01*
X93295821Y-110239567D01*
X93262144Y-110257568D01*
X93225604Y-110268653D01*
X93181462Y-110273000D01*
X92232538Y-110273000D01*
X92188396Y-110268653D01*
X92151856Y-110257568D01*
X92118179Y-110239567D01*
X92088659Y-110215341D01*
X92064433Y-110185821D01*
X92046432Y-110152144D01*
X92035347Y-110115604D01*
X92031000Y-110071462D01*
X92031000Y-108622538D01*
X92035347Y-108578396D01*
X92046432Y-108541856D01*
X92064433Y-108508179D01*
X92088659Y-108478659D01*
X92118179Y-108454433D01*
X92151856Y-108436432D01*
X92188396Y-108425347D01*
X92232538Y-108421000D01*
X93181462Y-108421000D01*
X93225604Y-108425347D01*
G37*
G36*
X96025604Y-108425347D02*
G01*
X96062144Y-108436432D01*
X96095821Y-108454433D01*
X96125341Y-108478659D01*
X96149567Y-108508179D01*
X96167568Y-108541856D01*
X96178653Y-108578396D01*
X96183000Y-108622538D01*
X96183000Y-110071462D01*
X96178653Y-110115604D01*
X96167568Y-110152144D01*
X96149567Y-110185821D01*
X96125341Y-110215341D01*
X96095821Y-110239567D01*
X96062144Y-110257568D01*
X96025604Y-110268653D01*
X95981462Y-110273000D01*
X95032538Y-110273000D01*
X94988396Y-110268653D01*
X94951856Y-110257568D01*
X94918179Y-110239567D01*
X94888659Y-110215341D01*
X94864433Y-110185821D01*
X94846432Y-110152144D01*
X94835347Y-110115604D01*
X94831000Y-110071462D01*
X94831000Y-108622538D01*
X94835347Y-108578396D01*
X94846432Y-108541856D01*
X94864433Y-108508179D01*
X94888659Y-108478659D01*
X94918179Y-108454433D01*
X94951856Y-108436432D01*
X94988396Y-108425347D01*
X95032538Y-108421000D01*
X95981462Y-108421000D01*
X96025604Y-108425347D01*
G37*
G36*
X142793928Y-109125764D02*
G01*
X142815009Y-109132160D01*
X142834445Y-109142548D01*
X142851476Y-109156524D01*
X142865452Y-109173555D01*
X142875840Y-109192991D01*
X142882236Y-109214072D01*
X142885000Y-109242140D01*
X142885000Y-109705860D01*
X142882236Y-109733928D01*
X142875840Y-109755009D01*
X142865452Y-109774445D01*
X142851476Y-109791476D01*
X142834445Y-109805452D01*
X142815009Y-109815840D01*
X142793928Y-109822236D01*
X142765860Y-109825000D01*
X141202140Y-109825000D01*
X141174072Y-109822236D01*
X141152991Y-109815840D01*
X141133555Y-109805452D01*
X141116524Y-109791476D01*
X141102548Y-109774445D01*
X141092160Y-109755009D01*
X141085764Y-109733928D01*
X141083000Y-109705860D01*
X141083000Y-109242140D01*
X141085764Y-109214072D01*
X141092160Y-109192991D01*
X141102548Y-109173555D01*
X141116524Y-109156524D01*
X141133555Y-109142548D01*
X141152991Y-109132160D01*
X141174072Y-109125764D01*
X141202140Y-109123000D01*
X142765860Y-109123000D01*
X142793928Y-109125764D01*
G37*
G36*
X152193928Y-109125764D02*
G01*
X152215009Y-109132160D01*
X152234445Y-109142548D01*
X152251476Y-109156524D01*
X152265452Y-109173555D01*
X152275840Y-109192991D01*
X152282236Y-109214072D01*
X152285000Y-109242140D01*
X152285000Y-109705860D01*
X152282236Y-109733928D01*
X152275840Y-109755009D01*
X152265452Y-109774445D01*
X152251476Y-109791476D01*
X152234445Y-109805452D01*
X152215009Y-109815840D01*
X152193928Y-109822236D01*
X152165860Y-109825000D01*
X150602140Y-109825000D01*
X150574072Y-109822236D01*
X150552991Y-109815840D01*
X150533555Y-109805452D01*
X150516524Y-109791476D01*
X150502548Y-109774445D01*
X150492160Y-109755009D01*
X150485764Y-109733928D01*
X150483000Y-109705860D01*
X150483000Y-109242140D01*
X150485764Y-109214072D01*
X150492160Y-109192991D01*
X150502548Y-109173555D01*
X150516524Y-109156524D01*
X150533555Y-109142548D01*
X150552991Y-109132160D01*
X150574072Y-109125764D01*
X150602140Y-109123000D01*
X152165860Y-109123000D01*
X152193928Y-109125764D01*
G37*
G36*
X157351928Y-109125764D02*
G01*
X157373009Y-109132160D01*
X157392445Y-109142548D01*
X157409476Y-109156524D01*
X157423452Y-109173555D01*
X157433840Y-109192991D01*
X157440236Y-109214072D01*
X157443000Y-109242140D01*
X157443000Y-109705860D01*
X157440236Y-109733928D01*
X157433840Y-109755009D01*
X157423452Y-109774445D01*
X157409476Y-109791476D01*
X157392445Y-109805452D01*
X157373009Y-109815840D01*
X157351928Y-109822236D01*
X157323860Y-109825000D01*
X155760140Y-109825000D01*
X155732072Y-109822236D01*
X155710991Y-109815840D01*
X155691555Y-109805452D01*
X155674524Y-109791476D01*
X155660548Y-109774445D01*
X155650160Y-109755009D01*
X155643764Y-109733928D01*
X155641000Y-109705860D01*
X155641000Y-109242140D01*
X155643764Y-109214072D01*
X155650160Y-109192991D01*
X155660548Y-109173555D01*
X155674524Y-109156524D01*
X155691555Y-109142548D01*
X155710991Y-109132160D01*
X155732072Y-109125764D01*
X155760140Y-109123000D01*
X157323860Y-109123000D01*
X157351928Y-109125764D01*
G37*
G36*
X166751928Y-109125764D02*
G01*
X166773009Y-109132160D01*
X166792445Y-109142548D01*
X166809476Y-109156524D01*
X166823452Y-109173555D01*
X166833840Y-109192991D01*
X166840236Y-109214072D01*
X166843000Y-109242140D01*
X166843000Y-109705860D01*
X166840236Y-109733928D01*
X166833840Y-109755009D01*
X166823452Y-109774445D01*
X166809476Y-109791476D01*
X166792445Y-109805452D01*
X166773009Y-109815840D01*
X166751928Y-109822236D01*
X166723860Y-109825000D01*
X165160140Y-109825000D01*
X165132072Y-109822236D01*
X165110991Y-109815840D01*
X165091555Y-109805452D01*
X165074524Y-109791476D01*
X165060548Y-109774445D01*
X165050160Y-109755009D01*
X165043764Y-109733928D01*
X165041000Y-109705860D01*
X165041000Y-109242140D01*
X165043764Y-109214072D01*
X165050160Y-109192991D01*
X165060548Y-109173555D01*
X165074524Y-109156524D01*
X165091555Y-109142548D01*
X165110991Y-109132160D01*
X165132072Y-109125764D01*
X165160140Y-109123000D01*
X166723860Y-109123000D01*
X166751928Y-109125764D01*
G37*
G36*
X142793928Y-107855764D02*
G01*
X142815009Y-107862160D01*
X142834445Y-107872548D01*
X142851476Y-107886524D01*
X142865452Y-107903555D01*
X142875840Y-107922991D01*
X142882236Y-107944072D01*
X142885000Y-107972140D01*
X142885000Y-108435860D01*
X142882236Y-108463928D01*
X142875840Y-108485009D01*
X142865452Y-108504445D01*
X142851476Y-108521476D01*
X142834445Y-108535452D01*
X142815009Y-108545840D01*
X142793928Y-108552236D01*
X142765860Y-108555000D01*
X141202140Y-108555000D01*
X141174072Y-108552236D01*
X141152991Y-108545840D01*
X141133555Y-108535452D01*
X141116524Y-108521476D01*
X141102548Y-108504445D01*
X141092160Y-108485009D01*
X141085764Y-108463928D01*
X141083000Y-108435860D01*
X141083000Y-107972140D01*
X141085764Y-107944072D01*
X141092160Y-107922991D01*
X141102548Y-107903555D01*
X141116524Y-107886524D01*
X141133555Y-107872548D01*
X141152991Y-107862160D01*
X141174072Y-107855764D01*
X141202140Y-107853000D01*
X142765860Y-107853000D01*
X142793928Y-107855764D01*
G37*
G36*
X157351928Y-107855764D02*
G01*
X157373009Y-107862160D01*
X157392445Y-107872548D01*
X157409476Y-107886524D01*
X157423452Y-107903555D01*
X157433840Y-107922991D01*
X157440236Y-107944072D01*
X157443000Y-107972140D01*
X157443000Y-108435860D01*
X157440236Y-108463928D01*
X157433840Y-108485009D01*
X157423452Y-108504445D01*
X157409476Y-108521476D01*
X157392445Y-108535452D01*
X157373009Y-108545840D01*
X157351928Y-108552236D01*
X157323860Y-108555000D01*
X155760140Y-108555000D01*
X155732072Y-108552236D01*
X155710991Y-108545840D01*
X155691555Y-108535452D01*
X155674524Y-108521476D01*
X155660548Y-108504445D01*
X155650160Y-108485009D01*
X155643764Y-108463928D01*
X155641000Y-108435860D01*
X155641000Y-107972140D01*
X155643764Y-107944072D01*
X155650160Y-107922991D01*
X155660548Y-107903555D01*
X155674524Y-107886524D01*
X155691555Y-107872548D01*
X155710991Y-107862160D01*
X155732072Y-107855764D01*
X155760140Y-107853000D01*
X157323860Y-107853000D01*
X157351928Y-107855764D01*
G37*
G36*
X152193928Y-107855764D02*
G01*
X152215009Y-107862160D01*
X152234445Y-107872548D01*
X152251476Y-107886524D01*
X152265452Y-107903555D01*
X152275840Y-107922991D01*
X152282236Y-107944072D01*
X152285000Y-107972140D01*
X152285000Y-108435860D01*
X152282236Y-108463928D01*
X152275840Y-108485009D01*
X152265452Y-108504445D01*
X152251476Y-108521476D01*
X152234445Y-108535452D01*
X152215009Y-108545840D01*
X152193928Y-108552236D01*
X152165860Y-108555000D01*
X150602140Y-108555000D01*
X150574072Y-108552236D01*
X150552991Y-108545840D01*
X150533555Y-108535452D01*
X150516524Y-108521476D01*
X150502548Y-108504445D01*
X150492160Y-108485009D01*
X150485764Y-108463928D01*
X150483000Y-108435860D01*
X150483000Y-107972140D01*
X150485764Y-107944072D01*
X150492160Y-107922991D01*
X150502548Y-107903555D01*
X150516524Y-107886524D01*
X150533555Y-107872548D01*
X150552991Y-107862160D01*
X150574072Y-107855764D01*
X150602140Y-107853000D01*
X152165860Y-107853000D01*
X152193928Y-107855764D01*
G37*
G36*
X166751928Y-107855764D02*
G01*
X166773009Y-107862160D01*
X166792445Y-107872548D01*
X166809476Y-107886524D01*
X166823452Y-107903555D01*
X166833840Y-107922991D01*
X166840236Y-107944072D01*
X166843000Y-107972140D01*
X166843000Y-108435860D01*
X166840236Y-108463928D01*
X166833840Y-108485009D01*
X166823452Y-108504445D01*
X166809476Y-108521476D01*
X166792445Y-108535452D01*
X166773009Y-108545840D01*
X166751928Y-108552236D01*
X166723860Y-108555000D01*
X165160140Y-108555000D01*
X165132072Y-108552236D01*
X165110991Y-108545840D01*
X165091555Y-108535452D01*
X165074524Y-108521476D01*
X165060548Y-108504445D01*
X165050160Y-108485009D01*
X165043764Y-108463928D01*
X165041000Y-108435860D01*
X165041000Y-107972140D01*
X165043764Y-107944072D01*
X165050160Y-107922991D01*
X165060548Y-107903555D01*
X165074524Y-107886524D01*
X165091555Y-107872548D01*
X165110991Y-107862160D01*
X165132072Y-107855764D01*
X165160140Y-107853000D01*
X166723860Y-107853000D01*
X166751928Y-107855764D01*
G37*
G36*
X173468512Y-106418927D02*
G01*
X173617812Y-106448624D01*
X173781784Y-106516544D01*
X173929354Y-106615147D01*
X174054853Y-106740646D01*
X174153456Y-106888216D01*
X174221376Y-107052188D01*
X174256000Y-107226259D01*
X174256000Y-107403741D01*
X174221376Y-107577812D01*
X174153456Y-107741784D01*
X174054853Y-107889354D01*
X173929354Y-108014853D01*
X173781784Y-108113456D01*
X173617812Y-108181376D01*
X173468512Y-108211073D01*
X173443742Y-108216000D01*
X173266258Y-108216000D01*
X173241488Y-108211073D01*
X173092188Y-108181376D01*
X172928216Y-108113456D01*
X172780646Y-108014853D01*
X172655147Y-107889354D01*
X172556544Y-107741784D01*
X172488624Y-107577812D01*
X172454000Y-107403741D01*
X172454000Y-107226259D01*
X172488624Y-107052188D01*
X172556544Y-106888216D01*
X172655147Y-106740646D01*
X172780646Y-106615147D01*
X172928216Y-106516544D01*
X173092188Y-106448624D01*
X173241488Y-106418927D01*
X173266258Y-106414000D01*
X173443742Y-106414000D01*
X173468512Y-106418927D01*
G37*
G36*
X85356000Y-108216000D02*
G01*
X83554000Y-108216000D01*
X83554000Y-106414000D01*
X85356000Y-106414000D01*
X85356000Y-108216000D01*
G37*
G36*
X152193928Y-106585764D02*
G01*
X152215009Y-106592160D01*
X152234445Y-106602548D01*
X152251476Y-106616524D01*
X152265452Y-106633555D01*
X152275840Y-106652991D01*
X152282236Y-106674072D01*
X152285000Y-106702140D01*
X152285000Y-107165860D01*
X152282236Y-107193928D01*
X152275840Y-107215009D01*
X152265452Y-107234445D01*
X152251476Y-107251476D01*
X152234445Y-107265452D01*
X152215009Y-107275840D01*
X152193928Y-107282236D01*
X152165860Y-107285000D01*
X150602140Y-107285000D01*
X150574072Y-107282236D01*
X150552991Y-107275840D01*
X150533555Y-107265452D01*
X150516524Y-107251476D01*
X150502548Y-107234445D01*
X150492160Y-107215009D01*
X150485764Y-107193928D01*
X150483000Y-107165860D01*
X150483000Y-106702140D01*
X150485764Y-106674072D01*
X150492160Y-106652991D01*
X150502548Y-106633555D01*
X150516524Y-106616524D01*
X150533555Y-106602548D01*
X150552991Y-106592160D01*
X150574072Y-106585764D01*
X150602140Y-106583000D01*
X152165860Y-106583000D01*
X152193928Y-106585764D01*
G37*
G36*
X166751928Y-106585764D02*
G01*
X166773009Y-106592160D01*
X166792445Y-106602548D01*
X166809476Y-106616524D01*
X166823452Y-106633555D01*
X166833840Y-106652991D01*
X166840236Y-106674072D01*
X166843000Y-106702140D01*
X166843000Y-107165860D01*
X166840236Y-107193928D01*
X166833840Y-107215009D01*
X166823452Y-107234445D01*
X166809476Y-107251476D01*
X166792445Y-107265452D01*
X166773009Y-107275840D01*
X166751928Y-107282236D01*
X166723860Y-107285000D01*
X165160140Y-107285000D01*
X165132072Y-107282236D01*
X165110991Y-107275840D01*
X165091555Y-107265452D01*
X165074524Y-107251476D01*
X165060548Y-107234445D01*
X165050160Y-107215009D01*
X165043764Y-107193928D01*
X165041000Y-107165860D01*
X165041000Y-106702140D01*
X165043764Y-106674072D01*
X165050160Y-106652991D01*
X165060548Y-106633555D01*
X165074524Y-106616524D01*
X165091555Y-106602548D01*
X165110991Y-106592160D01*
X165132072Y-106585764D01*
X165160140Y-106583000D01*
X166723860Y-106583000D01*
X166751928Y-106585764D01*
G37*
G36*
X142793928Y-106585764D02*
G01*
X142815009Y-106592160D01*
X142834445Y-106602548D01*
X142851476Y-106616524D01*
X142865452Y-106633555D01*
X142875840Y-106652991D01*
X142882236Y-106674072D01*
X142885000Y-106702140D01*
X142885000Y-107165860D01*
X142882236Y-107193928D01*
X142875840Y-107215009D01*
X142865452Y-107234445D01*
X142851476Y-107251476D01*
X142834445Y-107265452D01*
X142815009Y-107275840D01*
X142793928Y-107282236D01*
X142765860Y-107285000D01*
X141202140Y-107285000D01*
X141174072Y-107282236D01*
X141152991Y-107275840D01*
X141133555Y-107265452D01*
X141116524Y-107251476D01*
X141102548Y-107234445D01*
X141092160Y-107215009D01*
X141085764Y-107193928D01*
X141083000Y-107165860D01*
X141083000Y-106702140D01*
X141085764Y-106674072D01*
X141092160Y-106652991D01*
X141102548Y-106633555D01*
X141116524Y-106616524D01*
X141133555Y-106602548D01*
X141152991Y-106592160D01*
X141174072Y-106585764D01*
X141202140Y-106583000D01*
X142765860Y-106583000D01*
X142793928Y-106585764D01*
G37*
G36*
X157351928Y-106585764D02*
G01*
X157373009Y-106592160D01*
X157392445Y-106602548D01*
X157409476Y-106616524D01*
X157423452Y-106633555D01*
X157433840Y-106652991D01*
X157440236Y-106674072D01*
X157443000Y-106702140D01*
X157443000Y-107165860D01*
X157440236Y-107193928D01*
X157433840Y-107215009D01*
X157423452Y-107234445D01*
X157409476Y-107251476D01*
X157392445Y-107265452D01*
X157373009Y-107275840D01*
X157351928Y-107282236D01*
X157323860Y-107285000D01*
X155760140Y-107285000D01*
X155732072Y-107282236D01*
X155710991Y-107275840D01*
X155691555Y-107265452D01*
X155674524Y-107251476D01*
X155660548Y-107234445D01*
X155650160Y-107215009D01*
X155643764Y-107193928D01*
X155641000Y-107165860D01*
X155641000Y-106702140D01*
X155643764Y-106674072D01*
X155650160Y-106652991D01*
X155660548Y-106633555D01*
X155674524Y-106616524D01*
X155691555Y-106602548D01*
X155710991Y-106592160D01*
X155732072Y-106585764D01*
X155760140Y-106583000D01*
X157323860Y-106583000D01*
X157351928Y-106585764D01*
G37*
G36*
X93101604Y-103657347D02*
G01*
X93138144Y-103668432D01*
X93171821Y-103686433D01*
X93201341Y-103710659D01*
X93225567Y-103740179D01*
X93243568Y-103773856D01*
X93254653Y-103810396D01*
X93259000Y-103854538D01*
X93259000Y-106203462D01*
X93254653Y-106247604D01*
X93243568Y-106284144D01*
X93225567Y-106317821D01*
X93201341Y-106347341D01*
X93171821Y-106371567D01*
X93138144Y-106389568D01*
X93101604Y-106400653D01*
X93057462Y-106405000D01*
X92108538Y-106405000D01*
X92064396Y-106400653D01*
X92027856Y-106389568D01*
X91994179Y-106371567D01*
X91964659Y-106347341D01*
X91940433Y-106317821D01*
X91922432Y-106284144D01*
X91911347Y-106247604D01*
X91907000Y-106203462D01*
X91907000Y-103854538D01*
X91911347Y-103810396D01*
X91922432Y-103773856D01*
X91940433Y-103740179D01*
X91964659Y-103710659D01*
X91994179Y-103686433D01*
X92027856Y-103668432D01*
X92064396Y-103657347D01*
X92108538Y-103653000D01*
X93057462Y-103653000D01*
X93101604Y-103657347D01*
G37*
G36*
X95901604Y-103657347D02*
G01*
X95938144Y-103668432D01*
X95971821Y-103686433D01*
X96001341Y-103710659D01*
X96025567Y-103740179D01*
X96043568Y-103773856D01*
X96054653Y-103810396D01*
X96059000Y-103854538D01*
X96059000Y-106203462D01*
X96054653Y-106247604D01*
X96043568Y-106284144D01*
X96025567Y-106317821D01*
X96001341Y-106347341D01*
X95971821Y-106371567D01*
X95938144Y-106389568D01*
X95901604Y-106400653D01*
X95857462Y-106405000D01*
X94908538Y-106405000D01*
X94864396Y-106400653D01*
X94827856Y-106389568D01*
X94794179Y-106371567D01*
X94764659Y-106347341D01*
X94740433Y-106317821D01*
X94722432Y-106284144D01*
X94711347Y-106247604D01*
X94707000Y-106203462D01*
X94707000Y-103854538D01*
X94711347Y-103810396D01*
X94722432Y-103773856D01*
X94740433Y-103740179D01*
X94764659Y-103710659D01*
X94794179Y-103686433D01*
X94827856Y-103668432D01*
X94864396Y-103657347D01*
X94908538Y-103653000D01*
X95857462Y-103653000D01*
X95901604Y-103657347D01*
G37*
G36*
X166751928Y-105315764D02*
G01*
X166773009Y-105322160D01*
X166792445Y-105332548D01*
X166809476Y-105346524D01*
X166823452Y-105363555D01*
X166833840Y-105382991D01*
X166840236Y-105404072D01*
X166843000Y-105432140D01*
X166843000Y-105895860D01*
X166840236Y-105923928D01*
X166833840Y-105945009D01*
X166823452Y-105964445D01*
X166809476Y-105981476D01*
X166792445Y-105995452D01*
X166773009Y-106005840D01*
X166751928Y-106012236D01*
X166723860Y-106015000D01*
X165160140Y-106015000D01*
X165132072Y-106012236D01*
X165110991Y-106005840D01*
X165091555Y-105995452D01*
X165074524Y-105981476D01*
X165060548Y-105964445D01*
X165050160Y-105945009D01*
X165043764Y-105923928D01*
X165041000Y-105895860D01*
X165041000Y-105432140D01*
X165043764Y-105404072D01*
X165050160Y-105382991D01*
X165060548Y-105363555D01*
X165074524Y-105346524D01*
X165091555Y-105332548D01*
X165110991Y-105322160D01*
X165132072Y-105315764D01*
X165160140Y-105313000D01*
X166723860Y-105313000D01*
X166751928Y-105315764D01*
G37*
G36*
X157351928Y-105315764D02*
G01*
X157373009Y-105322160D01*
X157392445Y-105332548D01*
X157409476Y-105346524D01*
X157423452Y-105363555D01*
X157433840Y-105382991D01*
X157440236Y-105404072D01*
X157443000Y-105432140D01*
X157443000Y-105895860D01*
X157440236Y-105923928D01*
X157433840Y-105945009D01*
X157423452Y-105964445D01*
X157409476Y-105981476D01*
X157392445Y-105995452D01*
X157373009Y-106005840D01*
X157351928Y-106012236D01*
X157323860Y-106015000D01*
X155760140Y-106015000D01*
X155732072Y-106012236D01*
X155710991Y-106005840D01*
X155691555Y-105995452D01*
X155674524Y-105981476D01*
X155660548Y-105964445D01*
X155650160Y-105945009D01*
X155643764Y-105923928D01*
X155641000Y-105895860D01*
X155641000Y-105432140D01*
X155643764Y-105404072D01*
X155650160Y-105382991D01*
X155660548Y-105363555D01*
X155674524Y-105346524D01*
X155691555Y-105332548D01*
X155710991Y-105322160D01*
X155732072Y-105315764D01*
X155760140Y-105313000D01*
X157323860Y-105313000D01*
X157351928Y-105315764D01*
G37*
G36*
X152193928Y-105315764D02*
G01*
X152215009Y-105322160D01*
X152234445Y-105332548D01*
X152251476Y-105346524D01*
X152265452Y-105363555D01*
X152275840Y-105382991D01*
X152282236Y-105404072D01*
X152285000Y-105432140D01*
X152285000Y-105895860D01*
X152282236Y-105923928D01*
X152275840Y-105945009D01*
X152265452Y-105964445D01*
X152251476Y-105981476D01*
X152234445Y-105995452D01*
X152215009Y-106005840D01*
X152193928Y-106012236D01*
X152165860Y-106015000D01*
X150602140Y-106015000D01*
X150574072Y-106012236D01*
X150552991Y-106005840D01*
X150533555Y-105995452D01*
X150516524Y-105981476D01*
X150502548Y-105964445D01*
X150492160Y-105945009D01*
X150485764Y-105923928D01*
X150483000Y-105895860D01*
X150483000Y-105432140D01*
X150485764Y-105404072D01*
X150492160Y-105382991D01*
X150502548Y-105363555D01*
X150516524Y-105346524D01*
X150533555Y-105332548D01*
X150552991Y-105322160D01*
X150574072Y-105315764D01*
X150602140Y-105313000D01*
X152165860Y-105313000D01*
X152193928Y-105315764D01*
G37*
G36*
X142793928Y-105315764D02*
G01*
X142815009Y-105322160D01*
X142834445Y-105332548D01*
X142851476Y-105346524D01*
X142865452Y-105363555D01*
X142875840Y-105382991D01*
X142882236Y-105404072D01*
X142885000Y-105432140D01*
X142885000Y-105895860D01*
X142882236Y-105923928D01*
X142875840Y-105945009D01*
X142865452Y-105964445D01*
X142851476Y-105981476D01*
X142834445Y-105995452D01*
X142815009Y-106005840D01*
X142793928Y-106012236D01*
X142765860Y-106015000D01*
X141202140Y-106015000D01*
X141174072Y-106012236D01*
X141152991Y-106005840D01*
X141133555Y-105995452D01*
X141116524Y-105981476D01*
X141102548Y-105964445D01*
X141092160Y-105945009D01*
X141085764Y-105923928D01*
X141083000Y-105895860D01*
X141083000Y-105432140D01*
X141085764Y-105404072D01*
X141092160Y-105382991D01*
X141102548Y-105363555D01*
X141116524Y-105346524D01*
X141133555Y-105332548D01*
X141152991Y-105322160D01*
X141174072Y-105315764D01*
X141202140Y-105313000D01*
X142765860Y-105313000D01*
X142793928Y-105315764D01*
G37*
G36*
X157351928Y-104045764D02*
G01*
X157373009Y-104052160D01*
X157392445Y-104062548D01*
X157409476Y-104076524D01*
X157423452Y-104093555D01*
X157433840Y-104112991D01*
X157440236Y-104134072D01*
X157443000Y-104162140D01*
X157443000Y-104625860D01*
X157440236Y-104653928D01*
X157433840Y-104675009D01*
X157423452Y-104694445D01*
X157409476Y-104711476D01*
X157392445Y-104725452D01*
X157373009Y-104735840D01*
X157351928Y-104742236D01*
X157323860Y-104745000D01*
X155760140Y-104745000D01*
X155732072Y-104742236D01*
X155710991Y-104735840D01*
X155691555Y-104725452D01*
X155674524Y-104711476D01*
X155660548Y-104694445D01*
X155650160Y-104675009D01*
X155643764Y-104653928D01*
X155641000Y-104625860D01*
X155641000Y-104162140D01*
X155643764Y-104134072D01*
X155650160Y-104112991D01*
X155660548Y-104093555D01*
X155674524Y-104076524D01*
X155691555Y-104062548D01*
X155710991Y-104052160D01*
X155732072Y-104045764D01*
X155760140Y-104043000D01*
X157323860Y-104043000D01*
X157351928Y-104045764D01*
G37*
G36*
X166751928Y-104045764D02*
G01*
X166773009Y-104052160D01*
X166792445Y-104062548D01*
X166809476Y-104076524D01*
X166823452Y-104093555D01*
X166833840Y-104112991D01*
X166840236Y-104134072D01*
X166843000Y-104162140D01*
X166843000Y-104625860D01*
X166840236Y-104653928D01*
X166833840Y-104675009D01*
X166823452Y-104694445D01*
X166809476Y-104711476D01*
X166792445Y-104725452D01*
X166773009Y-104735840D01*
X166751928Y-104742236D01*
X166723860Y-104745000D01*
X165160140Y-104745000D01*
X165132072Y-104742236D01*
X165110991Y-104735840D01*
X165091555Y-104725452D01*
X165074524Y-104711476D01*
X165060548Y-104694445D01*
X165050160Y-104675009D01*
X165043764Y-104653928D01*
X165041000Y-104625860D01*
X165041000Y-104162140D01*
X165043764Y-104134072D01*
X165050160Y-104112991D01*
X165060548Y-104093555D01*
X165074524Y-104076524D01*
X165091555Y-104062548D01*
X165110991Y-104052160D01*
X165132072Y-104045764D01*
X165160140Y-104043000D01*
X166723860Y-104043000D01*
X166751928Y-104045764D01*
G37*
G36*
X142793928Y-104045764D02*
G01*
X142815009Y-104052160D01*
X142834445Y-104062548D01*
X142851476Y-104076524D01*
X142865452Y-104093555D01*
X142875840Y-104112991D01*
X142882236Y-104134072D01*
X142885000Y-104162140D01*
X142885000Y-104625860D01*
X142882236Y-104653928D01*
X142875840Y-104675009D01*
X142865452Y-104694445D01*
X142851476Y-104711476D01*
X142834445Y-104725452D01*
X142815009Y-104735840D01*
X142793928Y-104742236D01*
X142765860Y-104745000D01*
X141202140Y-104745000D01*
X141174072Y-104742236D01*
X141152991Y-104735840D01*
X141133555Y-104725452D01*
X141116524Y-104711476D01*
X141102548Y-104694445D01*
X141092160Y-104675009D01*
X141085764Y-104653928D01*
X141083000Y-104625860D01*
X141083000Y-104162140D01*
X141085764Y-104134072D01*
X141092160Y-104112991D01*
X141102548Y-104093555D01*
X141116524Y-104076524D01*
X141133555Y-104062548D01*
X141152991Y-104052160D01*
X141174072Y-104045764D01*
X141202140Y-104043000D01*
X142765860Y-104043000D01*
X142793928Y-104045764D01*
G37*
G36*
X152193928Y-104045764D02*
G01*
X152215009Y-104052160D01*
X152234445Y-104062548D01*
X152251476Y-104076524D01*
X152265452Y-104093555D01*
X152275840Y-104112991D01*
X152282236Y-104134072D01*
X152285000Y-104162140D01*
X152285000Y-104625860D01*
X152282236Y-104653928D01*
X152275840Y-104675009D01*
X152265452Y-104694445D01*
X152251476Y-104711476D01*
X152234445Y-104725452D01*
X152215009Y-104735840D01*
X152193928Y-104742236D01*
X152165860Y-104745000D01*
X150602140Y-104745000D01*
X150574072Y-104742236D01*
X150552991Y-104735840D01*
X150533555Y-104725452D01*
X150516524Y-104711476D01*
X150502548Y-104694445D01*
X150492160Y-104675009D01*
X150485764Y-104653928D01*
X150483000Y-104625860D01*
X150483000Y-104162140D01*
X150485764Y-104134072D01*
X150492160Y-104112991D01*
X150502548Y-104093555D01*
X150516524Y-104076524D01*
X150533555Y-104062548D01*
X150552991Y-104052160D01*
X150574072Y-104045764D01*
X150602140Y-104043000D01*
X152165860Y-104043000D01*
X152193928Y-104045764D01*
G37*
M02*
