G04 #@! TF.GenerationSoftware,KiCad,Pcbnew,5.1.5+dfsg1-2build2*
G04 #@! TF.CreationDate,2021-07-19T22:25:01+01:00*
G04 #@! TF.ProjectId,TestSRAM,54657374-5352-4414-9d2e-6b696361645f,rev?*
G04 #@! TF.SameCoordinates,Original*
G04 #@! TF.FileFunction,Legend,Bot*
G04 #@! TF.FilePolarity,Positive*
%FSLAX46Y46*%
G04 Gerber Fmt 4.6, Leading zero omitted, Abs format (unit mm)*
G04 Created by KiCad (PCBNEW 5.1.5+dfsg1-2build2) date 2021-07-19 22:25:01*
%MOMM*%
%LPD*%
G04 APERTURE LIST*
%ADD10C,0.050000*%
%ADD11C,0.120000*%
%ADD12C,0.150000*%
G04 APERTURE END LIST*
D10*
X178181000Y-100965000D02*
X178181000Y-155829000D01*
X79629000Y-100965000D02*
X178181000Y-100965000D01*
X79629000Y-155829000D02*
X79629000Y-100965000D01*
X178181000Y-155829000D02*
X79629000Y-155829000D01*
D11*
X102510000Y-119669936D02*
X102510000Y-120874064D01*
X100690000Y-119669936D02*
X100690000Y-120874064D01*
X107590000Y-119669936D02*
X107590000Y-120874064D01*
X105770000Y-119669936D02*
X105770000Y-120874064D01*
X105050000Y-120682936D02*
X105050000Y-121887064D01*
X103230000Y-120682936D02*
X103230000Y-121887064D01*
X160811936Y-107040000D02*
X162016064Y-107040000D01*
X160811936Y-108860000D02*
X162016064Y-108860000D01*
X146333936Y-107040000D02*
X147538064Y-107040000D01*
X146333936Y-108860000D02*
X147538064Y-108860000D01*
D12*
X101766666Y-117800380D02*
X102100000Y-117324190D01*
X102338095Y-117800380D02*
X102338095Y-116800380D01*
X101957142Y-116800380D01*
X101861904Y-116848000D01*
X101814285Y-116895619D01*
X101766666Y-116990857D01*
X101766666Y-117133714D01*
X101814285Y-117228952D01*
X101861904Y-117276571D01*
X101957142Y-117324190D01*
X102338095Y-117324190D01*
X101385714Y-116895619D02*
X101338095Y-116848000D01*
X101242857Y-116800380D01*
X101004761Y-116800380D01*
X100909523Y-116848000D01*
X100861904Y-116895619D01*
X100814285Y-116990857D01*
X100814285Y-117086095D01*
X100861904Y-117228952D01*
X101433333Y-117800380D01*
X100814285Y-117800380D01*
X106846666Y-117927380D02*
X107180000Y-117451190D01*
X107418095Y-117927380D02*
X107418095Y-116927380D01*
X107037142Y-116927380D01*
X106941904Y-116975000D01*
X106894285Y-117022619D01*
X106846666Y-117117857D01*
X106846666Y-117260714D01*
X106894285Y-117355952D01*
X106941904Y-117403571D01*
X107037142Y-117451190D01*
X107418095Y-117451190D01*
X106513333Y-116927380D02*
X105894285Y-116927380D01*
X106227619Y-117308333D01*
X106084761Y-117308333D01*
X105989523Y-117355952D01*
X105941904Y-117403571D01*
X105894285Y-117498809D01*
X105894285Y-117736904D01*
X105941904Y-117832142D01*
X105989523Y-117879761D01*
X106084761Y-117927380D01*
X106370476Y-117927380D01*
X106465714Y-117879761D01*
X106513333Y-117832142D01*
X104179666Y-124944142D02*
X104227285Y-124991761D01*
X104370142Y-125039380D01*
X104465380Y-125039380D01*
X104608238Y-124991761D01*
X104703476Y-124896523D01*
X104751095Y-124801285D01*
X104798714Y-124610809D01*
X104798714Y-124467952D01*
X104751095Y-124277476D01*
X104703476Y-124182238D01*
X104608238Y-124087000D01*
X104465380Y-124039380D01*
X104370142Y-124039380D01*
X104227285Y-124087000D01*
X104179666Y-124134619D01*
X103846333Y-124039380D02*
X103227285Y-124039380D01*
X103560619Y-124420333D01*
X103417761Y-124420333D01*
X103322523Y-124467952D01*
X103274904Y-124515571D01*
X103227285Y-124610809D01*
X103227285Y-124848904D01*
X103274904Y-124944142D01*
X103322523Y-124991761D01*
X103417761Y-125039380D01*
X103703476Y-125039380D01*
X103798714Y-124991761D01*
X103846333Y-124944142D01*
X161580666Y-110127142D02*
X161628285Y-110174761D01*
X161771142Y-110222380D01*
X161866380Y-110222380D01*
X162009238Y-110174761D01*
X162104476Y-110079523D01*
X162152095Y-109984285D01*
X162199714Y-109793809D01*
X162199714Y-109650952D01*
X162152095Y-109460476D01*
X162104476Y-109365238D01*
X162009238Y-109270000D01*
X161866380Y-109222380D01*
X161771142Y-109222380D01*
X161628285Y-109270000D01*
X161580666Y-109317619D01*
X161199714Y-109317619D02*
X161152095Y-109270000D01*
X161056857Y-109222380D01*
X160818761Y-109222380D01*
X160723523Y-109270000D01*
X160675904Y-109317619D01*
X160628285Y-109412857D01*
X160628285Y-109508095D01*
X160675904Y-109650952D01*
X161247333Y-110222380D01*
X160628285Y-110222380D01*
X147102666Y-110127142D02*
X147150285Y-110174761D01*
X147293142Y-110222380D01*
X147388380Y-110222380D01*
X147531238Y-110174761D01*
X147626476Y-110079523D01*
X147674095Y-109984285D01*
X147721714Y-109793809D01*
X147721714Y-109650952D01*
X147674095Y-109460476D01*
X147626476Y-109365238D01*
X147531238Y-109270000D01*
X147388380Y-109222380D01*
X147293142Y-109222380D01*
X147150285Y-109270000D01*
X147102666Y-109317619D01*
X146150285Y-110222380D02*
X146721714Y-110222380D01*
X146436000Y-110222380D02*
X146436000Y-109222380D01*
X146531238Y-109365238D01*
X146626476Y-109460476D01*
X146721714Y-109508095D01*
M02*
