M48
; DRILL file {KiCad 5.1.5+dfsg1-2build2} date Mon 19 Jul 2021 22:25:07 BST
; FORMAT={-:-/ absolute / inch / decimal}
; #@! TF.CreationDate,2021-07-19T22:25:07+01:00
; #@! TF.GenerationSoftware,Kicad,Pcbnew,5.1.5+dfsg1-2build2
; #@! TF.FileFunction,Plated,1,2,PTH
FMAT,2
INCH
T1C0.0160
T2C0.0394
%
G90
G05
T1
X3.27Y-4.37
X3.39Y-5.2175
X3.455Y-4.375
X3.545Y-4.135
X3.735Y-4.4
X3.91Y-4.645
X4.1Y-4.65
X4.1Y-4.9
X4.195Y-4.925
X4.25Y-4.79
X4.305Y-4.79
X4.625Y-4.185
X4.675Y-4.235
X4.725Y-4.28
X4.775Y-4.335
X4.825Y-4.785
X4.875Y-4.785
X4.925Y-4.84
X4.975Y-4.885
X5.025Y-4.94
X5.075Y-4.97
X5.125Y-4.91
X5.175Y-4.86
X5.23Y-4.81
X5.275Y-4.76
X5.325Y-4.309
X5.375Y-4.26
X5.425Y-4.2098
X5.475Y-4.16
X5.505Y-4.11
X5.535Y-4.51
X5.645Y-4.56
X5.73Y-4.365
X5.785Y-4.365
X5.795Y-4.43
X5.81Y-4.515
X5.81Y-4.565
X5.81Y-4.61
X5.81Y-4.655
X5.855Y-4.43
X6.045Y-4.515
X6.045Y-4.565
X6.055Y-4.385
X6.24Y-4.5225
X6.24Y-4.61
X6.26Y-4.46
X6.32Y-4.655
X6.3325Y-4.96
X6.3325Y-5.035
X6.415Y-4.66
X6.43Y-5.235
X6.4775Y-4.525
T2
X3.325Y-4.225
X3.325Y-4.325
X3.325Y-4.425
X3.325Y-4.525
X3.325Y-4.625
X3.325Y-4.725
X3.325Y-4.825
X3.325Y-4.925
X3.325Y-5.025
X3.325Y-5.125
X3.325Y-5.225
X3.325Y-5.325
X3.325Y-5.425
X3.325Y-5.525
X3.325Y-5.625
X3.325Y-5.725
X4.425Y-5.375
X4.425Y-5.475
X4.525Y-5.375
X4.525Y-5.475
X4.625Y-5.375
X4.625Y-5.475
X4.725Y-5.375
X4.725Y-5.475
X4.825Y-5.375
X4.825Y-5.475
X4.925Y-5.375
X4.925Y-5.475
X5.025Y-5.375
X5.025Y-5.475
X5.125Y-5.375
X5.125Y-5.475
X5.225Y-5.375
X5.225Y-5.475
X5.325Y-5.375
X5.325Y-5.475
X5.425Y-5.375
X5.425Y-5.475
X5.525Y-5.375
X5.525Y-5.475
X6.825Y-4.225
X6.825Y-4.325
X5.925Y-5.375
X5.925Y-5.475
X6.025Y-5.375
X6.025Y-5.475
X6.125Y-5.375
X6.125Y-5.475
X6.225Y-5.375
X6.225Y-5.475
X6.325Y-5.375
X6.325Y-5.475
X6.425Y-5.375
X6.425Y-5.475
X6.525Y-5.375
X6.525Y-5.475
X6.625Y-5.375
X6.625Y-5.475
X3.525Y-5.725
X3.525Y-5.925
X3.625Y-5.725
X3.625Y-5.925
X3.725Y-5.725
X3.725Y-5.925
X3.825Y-5.725
X3.825Y-5.925
X3.925Y-5.725
X3.925Y-5.925
X4.025Y-5.725
X4.025Y-5.925
X4.125Y-5.725
X4.125Y-5.925
X4.225Y-5.725
X4.225Y-5.925
X4.325Y-5.725
X4.325Y-5.925
X4.425Y-5.725
X4.425Y-5.925
X4.525Y-5.725
X4.525Y-5.925
X4.625Y-5.725
X4.625Y-5.925
X4.725Y-5.725
X4.725Y-5.925
X4.825Y-5.725
X4.825Y-5.925
X4.925Y-5.725
X4.925Y-5.925
X5.025Y-5.725
X5.025Y-5.925
X5.125Y-5.725
X5.125Y-5.925
X5.225Y-5.725
X5.225Y-5.925
X5.325Y-5.725
X5.325Y-5.925
X5.425Y-5.725
X5.425Y-5.925
X5.525Y-5.725
X5.525Y-5.925
X5.625Y-5.725
X5.625Y-5.925
X5.725Y-5.725
X5.725Y-5.925
X5.825Y-5.725
X5.825Y-5.925
X5.925Y-5.725
X5.925Y-5.925
X6.025Y-5.725
X6.025Y-5.925
X6.125Y-5.725
X6.125Y-5.925
X6.225Y-5.725
X6.225Y-5.925
X6.325Y-5.725
X6.325Y-5.925
X6.425Y-5.725
X6.425Y-5.925
X6.525Y-5.725
X6.525Y-5.925
X6.625Y-5.725
X6.625Y-5.925
T0
M30
