G04 #@! TF.GenerationSoftware,KiCad,Pcbnew,5.1.5+dfsg1-2build2*
G04 #@! TF.CreationDate,2021-11-04T14:18:05+00:00*
G04 #@! TF.ProjectId,MAXI030,4d415849-3033-4302-9e6b-696361645f70,rev?*
G04 #@! TF.SameCoordinates,Original*
G04 #@! TF.FileFunction,Legend,Top*
G04 #@! TF.FilePolarity,Positive*
%FSLAX46Y46*%
G04 Gerber Fmt 4.6, Leading zero omitted, Abs format (unit mm)*
G04 Created by KiCad (PCBNEW 5.1.5+dfsg1-2build2) date 2021-11-04 14:18:05*
%MOMM*%
%LPD*%
G04 APERTURE LIST*
%ADD10C,0.203200*%
%ADD11C,0.254000*%
%ADD12C,0.317500*%
%ADD13C,0.300000*%
%ADD14C,0.120000*%
%ADD15C,0.381000*%
%ADD16C,0.100000*%
%ADD17C,0.127000*%
%ADD18C,0.050800*%
%ADD19C,0.150000*%
%ADD20C,0.101600*%
%ADD21C,0.152400*%
G04 APERTURE END LIST*
D10*
X15826619Y202422880D02*
X15826619Y203438880D01*
X16213666Y203438880D01*
X16310428Y203390500D01*
X16358809Y203342119D01*
X16407190Y203245357D01*
X16407190Y203100214D01*
X16358809Y203003452D01*
X16310428Y202955071D01*
X16213666Y202906690D01*
X15826619Y202906690D01*
X17036142Y203438880D02*
X17229666Y203438880D01*
X17326428Y203390500D01*
X17423190Y203293738D01*
X17471571Y203100214D01*
X17471571Y202761547D01*
X17423190Y202568023D01*
X17326428Y202471261D01*
X17229666Y202422880D01*
X17036142Y202422880D01*
X16939380Y202471261D01*
X16842619Y202568023D01*
X16794238Y202761547D01*
X16794238Y203100214D01*
X16842619Y203293738D01*
X16939380Y203390500D01*
X17036142Y203438880D01*
X18487571Y202422880D02*
X18148904Y202906690D01*
X17907000Y202422880D02*
X17907000Y203438880D01*
X18294047Y203438880D01*
X18390809Y203390500D01*
X18439190Y203342119D01*
X18487571Y203245357D01*
X18487571Y203100214D01*
X18439190Y203003452D01*
X18390809Y202955071D01*
X18294047Y202906690D01*
X17907000Y202906690D01*
X18777857Y203438880D02*
X19358428Y203438880D01*
X19068142Y202422880D02*
X19068142Y203438880D01*
X20809857Y202955071D02*
X20955000Y202906690D01*
X21003380Y202858309D01*
X21051761Y202761547D01*
X21051761Y202616404D01*
X21003380Y202519642D01*
X20955000Y202471261D01*
X20858238Y202422880D01*
X20471190Y202422880D01*
X20471190Y203438880D01*
X20809857Y203438880D01*
X20906619Y203390500D01*
X20955000Y203342119D01*
X21003380Y203245357D01*
X21003380Y203148595D01*
X20955000Y203051833D01*
X20906619Y203003452D01*
X20809857Y202955071D01*
X20471190Y202955071D01*
X4596190Y202422880D02*
X4596190Y203438880D01*
X4983238Y203438880D01*
X5080000Y203390500D01*
X5128380Y203342119D01*
X5176761Y203245357D01*
X5176761Y203100214D01*
X5128380Y203003452D01*
X5080000Y202955071D01*
X4983238Y202906690D01*
X4596190Y202906690D01*
X5805714Y203438880D02*
X5999238Y203438880D01*
X6096000Y203390500D01*
X6192761Y203293738D01*
X6241142Y203100214D01*
X6241142Y202761547D01*
X6192761Y202568023D01*
X6096000Y202471261D01*
X5999238Y202422880D01*
X5805714Y202422880D01*
X5708952Y202471261D01*
X5612190Y202568023D01*
X5563809Y202761547D01*
X5563809Y203100214D01*
X5612190Y203293738D01*
X5708952Y203390500D01*
X5805714Y203438880D01*
X7257142Y202422880D02*
X6918476Y202906690D01*
X6676571Y202422880D02*
X6676571Y203438880D01*
X7063619Y203438880D01*
X7160380Y203390500D01*
X7208761Y203342119D01*
X7257142Y203245357D01*
X7257142Y203100214D01*
X7208761Y203003452D01*
X7160380Y202955071D01*
X7063619Y202906690D01*
X6676571Y202906690D01*
X7547428Y203438880D02*
X8128000Y203438880D01*
X7837714Y202422880D02*
X7837714Y203438880D01*
X9192380Y202713166D02*
X9676190Y202713166D01*
X9095619Y202422880D02*
X9434285Y203438880D01*
X9772952Y202422880D01*
D11*
X139952790Y62589833D02*
X139904409Y62638214D01*
X139807647Y62783357D01*
X139759266Y62880119D01*
X139710885Y63025261D01*
X139662504Y63267166D01*
X139662504Y63460690D01*
X139710885Y63702595D01*
X139759266Y63847738D01*
X139807647Y63944500D01*
X139904409Y64089642D01*
X139952790Y64138023D01*
X140775266Y63025261D02*
X140678504Y62976880D01*
X140484980Y62976880D01*
X140388219Y63025261D01*
X140339838Y63073642D01*
X140291457Y63170404D01*
X140291457Y63460690D01*
X140339838Y63557452D01*
X140388219Y63605833D01*
X140484980Y63654214D01*
X140678504Y63654214D01*
X140775266Y63605833D01*
X141113933Y62589833D02*
X141162314Y62638214D01*
X141259076Y62783357D01*
X141307457Y62880119D01*
X141355838Y63025261D01*
X141404219Y63267166D01*
X141404219Y63460690D01*
X141355838Y63702595D01*
X141307457Y63847738D01*
X141259076Y63944500D01*
X141162314Y64089642D01*
X141113933Y64138023D01*
X142613742Y63896119D02*
X142662123Y63944500D01*
X142758885Y63992880D01*
X143000790Y63992880D01*
X143097552Y63944500D01*
X143145933Y63896119D01*
X143194314Y63799357D01*
X143194314Y63702595D01*
X143145933Y63557452D01*
X142565361Y62976880D01*
X143194314Y62976880D01*
X143823266Y63992880D02*
X143920028Y63992880D01*
X144016790Y63944500D01*
X144065171Y63896119D01*
X144113552Y63799357D01*
X144161933Y63605833D01*
X144161933Y63363928D01*
X144113552Y63170404D01*
X144065171Y63073642D01*
X144016790Y63025261D01*
X143920028Y62976880D01*
X143823266Y62976880D01*
X143726504Y63025261D01*
X143678123Y63073642D01*
X143629742Y63170404D01*
X143581361Y63363928D01*
X143581361Y63605833D01*
X143629742Y63799357D01*
X143678123Y63896119D01*
X143726504Y63944500D01*
X143823266Y63992880D01*
X144548980Y63896119D02*
X144597361Y63944500D01*
X144694123Y63992880D01*
X144936028Y63992880D01*
X145032790Y63944500D01*
X145081171Y63896119D01*
X145129552Y63799357D01*
X145129552Y63702595D01*
X145081171Y63557452D01*
X144500600Y62976880D01*
X145129552Y62976880D01*
X146097171Y62976880D02*
X145516600Y62976880D01*
X145806885Y62976880D02*
X145806885Y63992880D01*
X145710123Y63847738D01*
X145613361Y63750976D01*
X145516600Y63702595D01*
X146532600Y63363928D02*
X147306695Y63363928D01*
X148322695Y62976880D02*
X147742123Y62976880D01*
X148032409Y62976880D02*
X148032409Y63992880D01*
X147935647Y63847738D01*
X147838885Y63750976D01*
X147742123Y63702595D01*
X149290314Y62976880D02*
X148709742Y62976880D01*
X149000028Y62976880D02*
X149000028Y63992880D01*
X148903266Y63847738D01*
X148806504Y63750976D01*
X148709742Y63702595D01*
X149725742Y63363928D02*
X150499838Y63363928D01*
X151177171Y63992880D02*
X151273933Y63992880D01*
X151370695Y63944500D01*
X151419076Y63896119D01*
X151467457Y63799357D01*
X151515838Y63605833D01*
X151515838Y63363928D01*
X151467457Y63170404D01*
X151419076Y63073642D01*
X151370695Y63025261D01*
X151273933Y62976880D01*
X151177171Y62976880D01*
X151080409Y63025261D01*
X151032028Y63073642D01*
X150983647Y63170404D01*
X150935266Y63363928D01*
X150935266Y63605833D01*
X150983647Y63799357D01*
X151032028Y63896119D01*
X151080409Y63944500D01*
X151177171Y63992880D01*
X152386695Y63654214D02*
X152386695Y62976880D01*
X152144790Y64041261D02*
X151902885Y63315547D01*
X152531838Y63315547D01*
X140146314Y61198880D02*
X139662504Y61198880D01*
X139662504Y62214880D01*
X140920409Y61198880D02*
X140920409Y61731071D01*
X140872028Y61827833D01*
X140775266Y61876214D01*
X140581742Y61876214D01*
X140484980Y61827833D01*
X140920409Y61247261D02*
X140823647Y61198880D01*
X140581742Y61198880D01*
X140484980Y61247261D01*
X140436600Y61344023D01*
X140436600Y61440785D01*
X140484980Y61537547D01*
X140581742Y61585928D01*
X140823647Y61585928D01*
X140920409Y61634309D01*
X141307457Y61876214D02*
X141500980Y61198880D01*
X141694504Y61682690D01*
X141888028Y61198880D01*
X142081552Y61876214D01*
X142468600Y61198880D02*
X142468600Y61876214D01*
X142468600Y61682690D02*
X142516980Y61779452D01*
X142565361Y61827833D01*
X142662123Y61876214D01*
X142758885Y61876214D01*
X143484600Y61247261D02*
X143387838Y61198880D01*
X143194314Y61198880D01*
X143097552Y61247261D01*
X143049171Y61344023D01*
X143049171Y61731071D01*
X143097552Y61827833D01*
X143194314Y61876214D01*
X143387838Y61876214D01*
X143484600Y61827833D01*
X143532980Y61731071D01*
X143532980Y61634309D01*
X143049171Y61537547D01*
X143968409Y61876214D02*
X143968409Y61198880D01*
X143968409Y61779452D02*
X144016790Y61827833D01*
X144113552Y61876214D01*
X144258695Y61876214D01*
X144355457Y61827833D01*
X144403838Y61731071D01*
X144403838Y61198880D01*
X145323076Y61247261D02*
X145226314Y61198880D01*
X145032790Y61198880D01*
X144936028Y61247261D01*
X144887647Y61295642D01*
X144839266Y61392404D01*
X144839266Y61682690D01*
X144887647Y61779452D01*
X144936028Y61827833D01*
X145032790Y61876214D01*
X145226314Y61876214D01*
X145323076Y61827833D01*
X146145552Y61247261D02*
X146048790Y61198880D01*
X145855266Y61198880D01*
X145758504Y61247261D01*
X145710123Y61344023D01*
X145710123Y61731071D01*
X145758504Y61827833D01*
X145855266Y61876214D01*
X146048790Y61876214D01*
X146145552Y61827833D01*
X146193933Y61731071D01*
X146193933Y61634309D01*
X145710123Y61537547D01*
X147403457Y61198880D02*
X147403457Y62214880D01*
X147742123Y61489166D01*
X148080790Y62214880D01*
X148080790Y61198880D01*
X149000028Y61198880D02*
X149000028Y61731071D01*
X148951647Y61827833D01*
X148854885Y61876214D01*
X148661361Y61876214D01*
X148564600Y61827833D01*
X149000028Y61247261D02*
X148903266Y61198880D01*
X148661361Y61198880D01*
X148564600Y61247261D01*
X148516219Y61344023D01*
X148516219Y61440785D01*
X148564600Y61537547D01*
X148661361Y61585928D01*
X148903266Y61585928D01*
X149000028Y61634309D01*
X149483838Y61876214D02*
X149483838Y61198880D01*
X149483838Y61779452D02*
X149532219Y61827833D01*
X149628980Y61876214D01*
X149774123Y61876214D01*
X149870885Y61827833D01*
X149919266Y61731071D01*
X149919266Y61198880D01*
X150403076Y61876214D02*
X150403076Y61198880D01*
X150403076Y61779452D02*
X150451457Y61827833D01*
X150548219Y61876214D01*
X150693361Y61876214D01*
X150790123Y61827833D01*
X150838504Y61731071D01*
X150838504Y61198880D01*
X151322314Y61198880D02*
X151322314Y61876214D01*
X151322314Y62214880D02*
X151273933Y62166500D01*
X151322314Y62118119D01*
X151370695Y62166500D01*
X151322314Y62214880D01*
X151322314Y62118119D01*
X151806123Y61876214D02*
X151806123Y61198880D01*
X151806123Y61779452D02*
X151854504Y61827833D01*
X151951266Y61876214D01*
X152096409Y61876214D01*
X152193171Y61827833D01*
X152241552Y61731071D01*
X152241552Y61198880D01*
X153160790Y61876214D02*
X153160790Y61053738D01*
X153112409Y60956976D01*
X153064028Y60908595D01*
X152967266Y60860214D01*
X152822123Y60860214D01*
X152725361Y60908595D01*
X153160790Y61247261D02*
X153064028Y61198880D01*
X152870504Y61198880D01*
X152773742Y61247261D01*
X152725361Y61295642D01*
X152676980Y61392404D01*
X152676980Y61682690D01*
X152725361Y61779452D01*
X152773742Y61827833D01*
X152870504Y61876214D01*
X153064028Y61876214D01*
X153160790Y61827833D01*
X139662504Y59420880D02*
X139662504Y60436880D01*
X140097933Y59420880D02*
X140097933Y59953071D01*
X140049552Y60049833D01*
X139952790Y60098214D01*
X139807647Y60098214D01*
X139710885Y60049833D01*
X139662504Y60001452D01*
X140436600Y60098214D02*
X140823647Y60098214D01*
X140581742Y60436880D02*
X140581742Y59566023D01*
X140630123Y59469261D01*
X140726885Y59420880D01*
X140823647Y59420880D01*
X141017171Y60098214D02*
X141404219Y60098214D01*
X141162314Y60436880D02*
X141162314Y59566023D01*
X141210695Y59469261D01*
X141307457Y59420880D01*
X141404219Y59420880D01*
X141742885Y60098214D02*
X141742885Y59082214D01*
X141742885Y60049833D02*
X141839647Y60098214D01*
X142033171Y60098214D01*
X142129933Y60049833D01*
X142178314Y60001452D01*
X142226695Y59904690D01*
X142226695Y59614404D01*
X142178314Y59517642D01*
X142129933Y59469261D01*
X142033171Y59420880D01*
X141839647Y59420880D01*
X141742885Y59469261D01*
X142613742Y59469261D02*
X142710504Y59420880D01*
X142904028Y59420880D01*
X143000790Y59469261D01*
X143049171Y59566023D01*
X143049171Y59614404D01*
X143000790Y59711166D01*
X142904028Y59759547D01*
X142758885Y59759547D01*
X142662123Y59807928D01*
X142613742Y59904690D01*
X142613742Y59953071D01*
X142662123Y60049833D01*
X142758885Y60098214D01*
X142904028Y60098214D01*
X143000790Y60049833D01*
X143484600Y59517642D02*
X143532980Y59469261D01*
X143484600Y59420880D01*
X143436219Y59469261D01*
X143484600Y59517642D01*
X143484600Y59420880D01*
X143484600Y60049833D02*
X143532980Y60001452D01*
X143484600Y59953071D01*
X143436219Y60001452D01*
X143484600Y60049833D01*
X143484600Y59953071D01*
X144694123Y60485261D02*
X143823266Y59178976D01*
X145758504Y60485261D02*
X144887647Y59178976D01*
X146000409Y60098214D02*
X146193933Y59420880D01*
X146387457Y59904690D01*
X146580980Y59420880D01*
X146774504Y60098214D01*
X147064790Y60098214D02*
X147258314Y59420880D01*
X147451838Y59904690D01*
X147645361Y59420880D01*
X147838885Y60098214D01*
X148129171Y60098214D02*
X148322695Y59420880D01*
X148516219Y59904690D01*
X148709742Y59420880D01*
X148903266Y60098214D01*
X149290314Y59517642D02*
X149338695Y59469261D01*
X149290314Y59420880D01*
X149241933Y59469261D01*
X149290314Y59517642D01*
X149290314Y59420880D01*
X150209552Y59420880D02*
X150209552Y59953071D01*
X150161171Y60049833D01*
X150064409Y60098214D01*
X149870885Y60098214D01*
X149774123Y60049833D01*
X150209552Y59469261D02*
X150112790Y59420880D01*
X149870885Y59420880D01*
X149774123Y59469261D01*
X149725742Y59566023D01*
X149725742Y59662785D01*
X149774123Y59759547D01*
X149870885Y59807928D01*
X150112790Y59807928D01*
X150209552Y59856309D01*
X150644980Y59469261D02*
X150741742Y59420880D01*
X150935266Y59420880D01*
X151032028Y59469261D01*
X151080409Y59566023D01*
X151080409Y59614404D01*
X151032028Y59711166D01*
X150935266Y59759547D01*
X150790123Y59759547D01*
X150693361Y59807928D01*
X150644980Y59904690D01*
X150644980Y59953071D01*
X150693361Y60049833D01*
X150790123Y60098214D01*
X150935266Y60098214D01*
X151032028Y60049833D01*
X151660980Y59420880D02*
X151564219Y59469261D01*
X151515838Y59566023D01*
X151515838Y60436880D01*
X152483457Y59420880D02*
X152483457Y59953071D01*
X152435076Y60049833D01*
X152338314Y60098214D01*
X152144790Y60098214D01*
X152048028Y60049833D01*
X152483457Y59469261D02*
X152386695Y59420880D01*
X152144790Y59420880D01*
X152048028Y59469261D01*
X151999647Y59566023D01*
X151999647Y59662785D01*
X152048028Y59759547D01*
X152144790Y59807928D01*
X152386695Y59807928D01*
X152483457Y59856309D01*
X152967266Y59420880D02*
X152967266Y60436880D01*
X153064028Y59807928D02*
X153354314Y59420880D01*
X153354314Y60098214D02*
X152967266Y59711166D01*
X153789742Y59517642D02*
X153838123Y59469261D01*
X153789742Y59420880D01*
X153741361Y59469261D01*
X153789742Y59517642D01*
X153789742Y59420880D01*
X154273552Y60098214D02*
X154273552Y59420880D01*
X154273552Y60001452D02*
X154321933Y60049833D01*
X154418695Y60098214D01*
X154563838Y60098214D01*
X154660600Y60049833D01*
X154708980Y59953071D01*
X154708980Y59420880D01*
X155579838Y59469261D02*
X155483076Y59420880D01*
X155289552Y59420880D01*
X155192790Y59469261D01*
X155144409Y59566023D01*
X155144409Y59953071D01*
X155192790Y60049833D01*
X155289552Y60098214D01*
X155483076Y60098214D01*
X155579838Y60049833D01*
X155628219Y59953071D01*
X155628219Y59856309D01*
X155144409Y59759547D01*
X155918504Y60098214D02*
X156305552Y60098214D01*
X156063647Y60436880D02*
X156063647Y59566023D01*
X156112028Y59469261D01*
X156208790Y59420880D01*
X156305552Y59420880D01*
D12*
X139582827Y64724642D02*
X139963827Y67772642D01*
X140369017Y65595500D01*
X141318494Y67772642D01*
X140937494Y64724642D01*
X141917208Y65595500D02*
X142884827Y65595500D01*
X141614827Y64724642D02*
X142673160Y67772642D01*
X142969494Y64724642D01*
X143834303Y67772642D02*
X144807970Y64724642D01*
X145188970Y67772642D02*
X143453303Y64724642D01*
X145582065Y64724642D02*
X145963065Y67772642D01*
X147317732Y67772642D02*
X147511255Y67772642D01*
X147686636Y67627500D01*
X147765255Y67482357D01*
X147825732Y67192071D01*
X147849922Y66611500D01*
X147759208Y65885785D01*
X147589875Y65305214D01*
X147456827Y65014928D01*
X147341922Y64869785D01*
X147130255Y64724642D01*
X146936732Y64724642D01*
X146761351Y64869785D01*
X146682732Y65014928D01*
X146622255Y65305214D01*
X146598065Y65885785D01*
X146688779Y66611500D01*
X146858113Y67192071D01*
X146991160Y67482357D01*
X147106065Y67627500D01*
X147317732Y67772642D01*
X148672398Y67772642D02*
X149930303Y67772642D01*
X149107827Y66611500D01*
X149398113Y66611500D01*
X149573494Y66466357D01*
X149652113Y66321214D01*
X149712589Y66030928D01*
X149621875Y65305214D01*
X149488827Y65014928D01*
X149373922Y64869785D01*
X149162255Y64724642D01*
X148581684Y64724642D01*
X148406303Y64869785D01*
X148327684Y65014928D01*
X151188208Y67772642D02*
X151381732Y67772642D01*
X151557113Y67627500D01*
X151635732Y67482357D01*
X151696208Y67192071D01*
X151720398Y66611500D01*
X151629684Y65885785D01*
X151460351Y65305214D01*
X151327303Y65014928D01*
X151212398Y64869785D01*
X151000732Y64724642D01*
X150807208Y64724642D01*
X150631827Y64869785D01*
X150553208Y65014928D01*
X150492732Y65305214D01*
X150468541Y65885785D01*
X150559255Y66611500D01*
X150728589Y67192071D01*
X150861636Y67482357D01*
X150976541Y67627500D01*
X151188208Y67772642D01*
D11*
X-30173385Y96719571D02*
X-30899100Y96719571D01*
X-30899100Y98243571D01*
X-29375100Y98243571D02*
X-29084814Y98243571D01*
X-28939671Y98171000D01*
X-28794528Y98025857D01*
X-28721957Y97735571D01*
X-28721957Y97227571D01*
X-28794528Y96937285D01*
X-28939671Y96792142D01*
X-29084814Y96719571D01*
X-29375100Y96719571D01*
X-29520242Y96792142D01*
X-29665385Y96937285D01*
X-29737957Y97227571D01*
X-29737957Y97735571D01*
X-29665385Y98025857D01*
X-29520242Y98171000D01*
X-29375100Y98243571D01*
X-28213957Y98243571D02*
X-27851100Y96719571D01*
X-27560814Y97808142D01*
X-27270528Y96719571D01*
X-26907671Y98243571D01*
X-26327100Y97517857D02*
X-25819100Y97517857D01*
X-25601385Y96719571D02*
X-26327100Y96719571D01*
X-26327100Y98243571D01*
X-25601385Y98243571D01*
X-24077385Y96719571D02*
X-24585385Y97445285D01*
X-24948242Y96719571D02*
X-24948242Y98243571D01*
X-24367671Y98243571D01*
X-24222528Y98171000D01*
X-24149957Y98098428D01*
X-24077385Y97953285D01*
X-24077385Y97735571D01*
X-24149957Y97590428D01*
X-24222528Y97517857D01*
X-24367671Y97445285D01*
X-24948242Y97445285D01*
X-30971671Y146948071D02*
X-30971671Y145714357D01*
X-30899100Y145569214D01*
X-30826528Y145496642D01*
X-30681385Y145424071D01*
X-30391100Y145424071D01*
X-30245957Y145496642D01*
X-30173385Y145569214D01*
X-30100814Y145714357D01*
X-30100814Y146948071D01*
X-29375100Y145424071D02*
X-29375100Y146948071D01*
X-28794528Y146948071D01*
X-28649385Y146875500D01*
X-28576814Y146802928D01*
X-28504242Y146657785D01*
X-28504242Y146440071D01*
X-28576814Y146294928D01*
X-28649385Y146222357D01*
X-28794528Y146149785D01*
X-29375100Y146149785D01*
X-27851100Y145424071D02*
X-27851100Y146948071D01*
X-27270528Y146948071D01*
X-27125385Y146875500D01*
X-27052814Y146802928D01*
X-26980242Y146657785D01*
X-26980242Y146440071D01*
X-27052814Y146294928D01*
X-27125385Y146222357D01*
X-27270528Y146149785D01*
X-27851100Y146149785D01*
X-26327100Y146222357D02*
X-25819100Y146222357D01*
X-25601385Y145424071D02*
X-26327100Y145424071D01*
X-26327100Y146948071D01*
X-25601385Y146948071D01*
X-24077385Y145424071D02*
X-24585385Y146149785D01*
X-24948242Y145424071D02*
X-24948242Y146948071D01*
X-24367671Y146948071D01*
X-24222528Y146875500D01*
X-24149957Y146802928D01*
X-24077385Y146657785D01*
X-24077385Y146440071D01*
X-24149957Y146294928D01*
X-24222528Y146222357D01*
X-24367671Y146149785D01*
X-24948242Y146149785D01*
D10*
X-13589000Y143781175D02*
X-13637380Y143684413D01*
X-13637380Y143539270D01*
X-13589000Y143394127D01*
X-13492238Y143297365D01*
X-13395476Y143248984D01*
X-13201952Y143200603D01*
X-13056809Y143200603D01*
X-12863285Y143248984D01*
X-12766523Y143297365D01*
X-12669761Y143394127D01*
X-12621380Y143539270D01*
X-12621380Y143636032D01*
X-12669761Y143781175D01*
X-12718142Y143829556D01*
X-13056809Y143829556D01*
X-13056809Y143636032D01*
X-12621380Y144264984D02*
X-13637380Y144264984D01*
X-12621380Y144845556D01*
X-13637380Y144845556D01*
X-12621380Y145329365D02*
X-13637380Y145329365D01*
X-13637380Y145571270D01*
X-13589000Y145716413D01*
X-13492238Y145813175D01*
X-13395476Y145861556D01*
X-13201952Y145909937D01*
X-13056809Y145909937D01*
X-12863285Y145861556D01*
X-12766523Y145813175D01*
X-12669761Y145716413D01*
X-12621380Y145571270D01*
X-12621380Y145329365D01*
X-1064380Y143375984D02*
X-241904Y143375984D01*
X-145142Y143424365D01*
X-96761Y143472746D01*
X-48380Y143569508D01*
X-48380Y143763032D01*
X-96761Y143859794D01*
X-145142Y143908175D01*
X-241904Y143956556D01*
X-1064380Y143956556D01*
X-96761Y144391984D02*
X-48380Y144537127D01*
X-48380Y144779032D01*
X-96761Y144875794D01*
X-145142Y144924175D01*
X-241904Y144972556D01*
X-338666Y144972556D01*
X-435428Y144924175D01*
X-483809Y144875794D01*
X-532190Y144779032D01*
X-580571Y144585508D01*
X-628952Y144488746D01*
X-677333Y144440365D01*
X-774095Y144391984D01*
X-870857Y144391984D01*
X-967619Y144440365D01*
X-1015999Y144488746D01*
X-1064380Y144585508D01*
X-1064380Y144827413D01*
X-1015999Y144972556D01*
X-580571Y145407984D02*
X-580571Y145746651D01*
X-48380Y145891794D02*
X-48380Y145407984D01*
X-1064380Y145407984D01*
X-1064380Y145891794D01*
X-48380Y146907794D02*
X-532190Y146569127D01*
X-48380Y146327222D02*
X-1064380Y146327222D01*
X-1064380Y146714270D01*
X-1015999Y146811032D01*
X-967619Y146859413D01*
X-870857Y146907794D01*
X-725714Y146907794D01*
X-628952Y146859413D01*
X-580571Y146811032D01*
X-532190Y146714270D01*
X-532190Y146327222D01*
X-1064380Y147536746D02*
X-1064380Y147633508D01*
X-1015999Y147730270D01*
X-967619Y147778651D01*
X-870857Y147827032D01*
X-677333Y147875413D01*
X-435428Y147875413D01*
X-241904Y147827032D01*
X-145142Y147778651D01*
X-96761Y147730270D01*
X-48380Y147633508D01*
X-48380Y147536746D01*
X-96761Y147439984D01*
X-145142Y147391603D01*
X-241904Y147343222D01*
X-435428Y147294841D01*
X-677333Y147294841D01*
X-870857Y147343222D01*
X-967619Y147391603D01*
X-1015999Y147439984D01*
X-1064380Y147536746D01*
X-3604380Y143375984D02*
X-2781904Y143375984D01*
X-2685142Y143424365D01*
X-2636761Y143472746D01*
X-2588380Y143569508D01*
X-2588380Y143763032D01*
X-2636761Y143859794D01*
X-2685142Y143908175D01*
X-2781904Y143956556D01*
X-3604380Y143956556D01*
X-2636761Y144391984D02*
X-2588380Y144537127D01*
X-2588380Y144779032D01*
X-2636761Y144875794D01*
X-2685142Y144924175D01*
X-2781904Y144972556D01*
X-2878666Y144972556D01*
X-2975428Y144924175D01*
X-3023809Y144875794D01*
X-3072190Y144779032D01*
X-3120571Y144585508D01*
X-3168952Y144488746D01*
X-3217333Y144440365D01*
X-3314095Y144391984D01*
X-3410857Y144391984D01*
X-3507619Y144440365D01*
X-3556000Y144488746D01*
X-3604380Y144585508D01*
X-3604380Y144827413D01*
X-3556000Y144972556D01*
X-3120571Y145407984D02*
X-3120571Y145746651D01*
X-2588380Y145891794D02*
X-2588380Y145407984D01*
X-3604380Y145407984D01*
X-3604380Y145891794D01*
X-2588380Y146907794D02*
X-3072190Y146569127D01*
X-2588380Y146327222D02*
X-3604380Y146327222D01*
X-3604380Y146714270D01*
X-3556000Y146811032D01*
X-3507619Y146859413D01*
X-3410857Y146907794D01*
X-3265714Y146907794D01*
X-3168952Y146859413D01*
X-3120571Y146811032D01*
X-3072190Y146714270D01*
X-3072190Y146327222D01*
X-2588380Y147875413D02*
X-2588380Y147294841D01*
X-2588380Y147585127D02*
X-3604380Y147585127D01*
X-3459238Y147488365D01*
X-3362476Y147391603D01*
X-3314095Y147294841D01*
X-6017380Y143375984D02*
X-5194904Y143375984D01*
X-5098142Y143424365D01*
X-5049761Y143472746D01*
X-5001380Y143569508D01*
X-5001380Y143763032D01*
X-5049761Y143859794D01*
X-5098142Y143908175D01*
X-5194904Y143956556D01*
X-6017380Y143956556D01*
X-5049761Y144391984D02*
X-5001380Y144537127D01*
X-5001380Y144779032D01*
X-5049761Y144875794D01*
X-5098142Y144924175D01*
X-5194904Y144972556D01*
X-5291666Y144972556D01*
X-5388428Y144924175D01*
X-5436809Y144875794D01*
X-5485190Y144779032D01*
X-5533571Y144585508D01*
X-5581952Y144488746D01*
X-5630333Y144440365D01*
X-5727095Y144391984D01*
X-5823857Y144391984D01*
X-5920619Y144440365D01*
X-5969000Y144488746D01*
X-6017380Y144585508D01*
X-6017380Y144827413D01*
X-5969000Y144972556D01*
X-5533571Y145407984D02*
X-5533571Y145746651D01*
X-5001380Y145891794D02*
X-5001380Y145407984D01*
X-6017380Y145407984D01*
X-6017380Y145891794D01*
X-5001380Y146907794D02*
X-5485190Y146569127D01*
X-5001380Y146327222D02*
X-6017380Y146327222D01*
X-6017380Y146714270D01*
X-5969000Y146811032D01*
X-5920619Y146859413D01*
X-5823857Y146907794D01*
X-5678714Y146907794D01*
X-5581952Y146859413D01*
X-5533571Y146811032D01*
X-5485190Y146714270D01*
X-5485190Y146327222D01*
X-5920619Y147294841D02*
X-5969000Y147343222D01*
X-6017380Y147439984D01*
X-6017380Y147681889D01*
X-5969000Y147778651D01*
X-5920619Y147827032D01*
X-5823857Y147875413D01*
X-5727095Y147875413D01*
X-5581952Y147827032D01*
X-5001380Y147246460D01*
X-5001380Y147875413D01*
X-8557380Y143375984D02*
X-7734904Y143375984D01*
X-7638142Y143424365D01*
X-7589761Y143472746D01*
X-7541380Y143569508D01*
X-7541380Y143763032D01*
X-7589761Y143859794D01*
X-7638142Y143908175D01*
X-7734904Y143956556D01*
X-8557380Y143956556D01*
X-7589761Y144391984D02*
X-7541380Y144537127D01*
X-7541380Y144779032D01*
X-7589761Y144875794D01*
X-7638142Y144924175D01*
X-7734904Y144972556D01*
X-7831666Y144972556D01*
X-7928428Y144924175D01*
X-7976809Y144875794D01*
X-8025190Y144779032D01*
X-8073571Y144585508D01*
X-8121952Y144488746D01*
X-8170333Y144440365D01*
X-8267095Y144391984D01*
X-8363857Y144391984D01*
X-8460619Y144440365D01*
X-8509000Y144488746D01*
X-8557380Y144585508D01*
X-8557380Y144827413D01*
X-8509000Y144972556D01*
X-8073571Y145407984D02*
X-8073571Y145746651D01*
X-7541380Y145891794D02*
X-7541380Y145407984D01*
X-8557380Y145407984D01*
X-8557380Y145891794D01*
X-7541380Y146907794D02*
X-8025190Y146569127D01*
X-7541380Y146327222D02*
X-8557380Y146327222D01*
X-8557380Y146714270D01*
X-8509000Y146811032D01*
X-8460619Y146859413D01*
X-8363857Y146907794D01*
X-8218714Y146907794D01*
X-8121952Y146859413D01*
X-8073571Y146811032D01*
X-8025190Y146714270D01*
X-8025190Y146327222D01*
X-8557380Y147246460D02*
X-8557380Y147875413D01*
X-8170333Y147536746D01*
X-8170333Y147681889D01*
X-8121952Y147778651D01*
X-8073571Y147827032D01*
X-7976809Y147875413D01*
X-7734904Y147875413D01*
X-7638142Y147827032D01*
X-7589761Y147778651D01*
X-7541380Y147681889D01*
X-7541380Y147391603D01*
X-7589761Y147294841D01*
X-7638142Y147246460D01*
X-11224380Y143375984D02*
X-10401904Y143375984D01*
X-10305142Y143424365D01*
X-10256761Y143472746D01*
X-10208380Y143569508D01*
X-10208380Y143763032D01*
X-10256761Y143859794D01*
X-10305142Y143908175D01*
X-10401904Y143956556D01*
X-11224380Y143956556D01*
X-10256761Y144391984D02*
X-10208380Y144537127D01*
X-10208380Y144779032D01*
X-10256761Y144875794D01*
X-10305142Y144924175D01*
X-10401904Y144972556D01*
X-10498666Y144972556D01*
X-10595428Y144924175D01*
X-10643809Y144875794D01*
X-10692190Y144779032D01*
X-10740571Y144585508D01*
X-10788952Y144488746D01*
X-10837333Y144440365D01*
X-10934095Y144391984D01*
X-11030857Y144391984D01*
X-11127619Y144440365D01*
X-11176000Y144488746D01*
X-11224380Y144585508D01*
X-11224380Y144827413D01*
X-11176000Y144972556D01*
X-10740571Y145407984D02*
X-10740571Y145746651D01*
X-10208380Y145891794D02*
X-10208380Y145407984D01*
X-11224380Y145407984D01*
X-11224380Y145891794D01*
X-10208380Y146907794D02*
X-10692190Y146569127D01*
X-10208380Y146327222D02*
X-11224380Y146327222D01*
X-11224380Y146714270D01*
X-11176000Y146811032D01*
X-11127619Y146859413D01*
X-11030857Y146907794D01*
X-10885714Y146907794D01*
X-10788952Y146859413D01*
X-10740571Y146811032D01*
X-10692190Y146714270D01*
X-10692190Y146327222D01*
X-10885714Y147778651D02*
X-10208380Y147778651D01*
X-11272761Y147536746D02*
X-10547047Y147294841D01*
X-10547047Y147923794D01*
X64207571Y67571015D02*
X64207571Y67232348D01*
X63675380Y67087205D02*
X63675380Y67571015D01*
X64691380Y67571015D01*
X64691380Y67087205D01*
X63675380Y66651777D02*
X64691380Y66651777D01*
X63675380Y66071205D01*
X64691380Y66071205D01*
X61135380Y67571015D02*
X62151380Y67571015D01*
X61425666Y67232348D01*
X62151380Y66893681D01*
X61135380Y66893681D01*
X61135380Y66409872D02*
X62151380Y66409872D01*
X61425666Y66071205D01*
X62151380Y65732539D01*
X61135380Y65732539D01*
X62151380Y65248729D02*
X61328904Y65248729D01*
X61232142Y65200348D01*
X61183761Y65151967D01*
X61135380Y65055205D01*
X61135380Y64861681D01*
X61183761Y64764920D01*
X61232142Y64716539D01*
X61328904Y64668158D01*
X62151380Y64668158D01*
X58595380Y67511015D02*
X59611380Y67511015D01*
X59611380Y67269110D01*
X59563000Y67123967D01*
X59466238Y67027205D01*
X59369476Y66978824D01*
X59175952Y66930443D01*
X59030809Y66930443D01*
X58837285Y66978824D01*
X58740523Y67027205D01*
X58643761Y67123967D01*
X58595380Y67269110D01*
X58595380Y67511015D01*
X58595380Y66495015D02*
X59611380Y66495015D01*
X58643761Y66059586D02*
X58595380Y65914443D01*
X58595380Y65672539D01*
X58643761Y65575777D01*
X58692142Y65527396D01*
X58788904Y65479015D01*
X58885666Y65479015D01*
X58982428Y65527396D01*
X59030809Y65575777D01*
X59079190Y65672539D01*
X59127571Y65866062D01*
X59175952Y65962824D01*
X59224333Y66011205D01*
X59321095Y66059586D01*
X59417857Y66059586D01*
X59514619Y66011205D01*
X59563000Y65962824D01*
X59611380Y65866062D01*
X59611380Y65624158D01*
X59563000Y65479015D01*
X64207571Y77438794D02*
X64207571Y77100127D01*
X63675380Y76954984D02*
X63675380Y77438794D01*
X64691380Y77438794D01*
X64691380Y76954984D01*
X63675380Y76519556D02*
X64691380Y76519556D01*
X63675380Y75938984D01*
X64691380Y75938984D01*
X61232142Y79761080D02*
X61183761Y79809460D01*
X61135380Y79954603D01*
X61135380Y80051365D01*
X61183761Y80196508D01*
X61280523Y80293270D01*
X61377285Y80341651D01*
X61570809Y80390032D01*
X61715952Y80390032D01*
X61909476Y80341651D01*
X62006238Y80293270D01*
X62103000Y80196508D01*
X62151380Y80051365D01*
X62151380Y79954603D01*
X62103000Y79809460D01*
X62054619Y79761080D01*
X61425666Y79374032D02*
X61425666Y78890222D01*
X61135380Y79470794D02*
X62151380Y79132127D01*
X61135380Y78793460D01*
X61232142Y77874222D02*
X61183761Y77922603D01*
X61135380Y78067746D01*
X61135380Y78164508D01*
X61183761Y78309651D01*
X61280523Y78406413D01*
X61377285Y78454794D01*
X61570809Y78503175D01*
X61715952Y78503175D01*
X61909476Y78454794D01*
X62006238Y78406413D01*
X62103000Y78309651D01*
X62151380Y78164508D01*
X62151380Y78067746D01*
X62103000Y77922603D01*
X62054619Y77874222D01*
X61135380Y77438794D02*
X62151380Y77438794D01*
X61667571Y77438794D02*
X61667571Y76858222D01*
X61135380Y76858222D02*
X62151380Y76858222D01*
X61667571Y76374413D02*
X61667571Y76035746D01*
X61135380Y75890603D02*
X61135380Y76374413D01*
X62151380Y76374413D01*
X62151380Y75890603D01*
X58595380Y77922603D02*
X59611380Y77922603D01*
X59611380Y77680699D01*
X59563000Y77535556D01*
X59466238Y77438794D01*
X59369476Y77390413D01*
X59175952Y77342032D01*
X59030809Y77342032D01*
X58837285Y77390413D01*
X58740523Y77438794D01*
X58643761Y77535556D01*
X58595380Y77680699D01*
X58595380Y77922603D01*
X58595380Y76906603D02*
X59611380Y76906603D01*
X58643761Y76471175D02*
X58595380Y76326032D01*
X58595380Y76084127D01*
X58643761Y75987365D01*
X58692142Y75938984D01*
X58788904Y75890603D01*
X58885666Y75890603D01*
X58982428Y75938984D01*
X59030809Y75987365D01*
X59079190Y76084127D01*
X59127571Y76277651D01*
X59175952Y76374413D01*
X59224333Y76422794D01*
X59321095Y76471175D01*
X59417857Y76471175D01*
X59514619Y76422794D01*
X59563000Y76374413D01*
X59611380Y76277651D01*
X59611380Y76035746D01*
X59563000Y75890603D01*
X9796175Y177038000D02*
X9699413Y177086380D01*
X9554270Y177086380D01*
X9409127Y177038000D01*
X9312365Y176941238D01*
X9263984Y176844476D01*
X9215603Y176650952D01*
X9215603Y176505809D01*
X9263984Y176312285D01*
X9312365Y176215523D01*
X9409127Y176118761D01*
X9554270Y176070380D01*
X9651032Y176070380D01*
X9796175Y176118761D01*
X9844556Y176167142D01*
X9844556Y176505809D01*
X9651032Y176505809D01*
X10279984Y176070380D02*
X10279984Y177086380D01*
X10860556Y176070380D01*
X10860556Y177086380D01*
X11344365Y176070380D02*
X11344365Y177086380D01*
X11586270Y177086380D01*
X11731413Y177038000D01*
X11828175Y176941238D01*
X11876556Y176844476D01*
X11924937Y176650952D01*
X11924937Y176505809D01*
X11876556Y176312285D01*
X11828175Y176215523D01*
X11731413Y176118761D01*
X11586270Y176070380D01*
X11344365Y176070380D01*
X9844556Y178610380D02*
X9505889Y179094190D01*
X9263984Y178610380D02*
X9263984Y179626380D01*
X9651032Y179626380D01*
X9747794Y179578000D01*
X9796175Y179529619D01*
X9844556Y179432857D01*
X9844556Y179287714D01*
X9796175Y179190952D01*
X9747794Y179142571D01*
X9651032Y179094190D01*
X9263984Y179094190D01*
X10183222Y179626380D02*
X10860556Y178610380D01*
X10860556Y179626380D02*
X10183222Y178610380D01*
X9118841Y182166380D02*
X9699413Y182166380D01*
X9409127Y181150380D02*
X9409127Y182166380D01*
X9941318Y182166380D02*
X10618651Y181150380D01*
X10618651Y182166380D02*
X9941318Y181150380D01*
D13*
X143006428Y124551357D02*
X143220714Y124479928D01*
X143577857Y124479928D01*
X143720714Y124551357D01*
X143792142Y124622785D01*
X143863571Y124765642D01*
X143863571Y124908500D01*
X143792142Y125051357D01*
X143720714Y125122785D01*
X143577857Y125194214D01*
X143292142Y125265642D01*
X143149285Y125337071D01*
X143077857Y125408500D01*
X143006428Y125551357D01*
X143006428Y125694214D01*
X143077857Y125837071D01*
X143149285Y125908500D01*
X143292142Y125979928D01*
X143649285Y125979928D01*
X143863571Y125908500D01*
X145220714Y124479928D02*
X144506428Y124479928D01*
X144506428Y125979928D01*
X146006428Y125979928D02*
X146292142Y125979928D01*
X146435000Y125908500D01*
X146577857Y125765642D01*
X146649285Y125479928D01*
X146649285Y124979928D01*
X146577857Y124694214D01*
X146435000Y124551357D01*
X146292142Y124479928D01*
X146006428Y124479928D01*
X145863571Y124551357D01*
X145720714Y124694214D01*
X145649285Y124979928D01*
X145649285Y125479928D01*
X145720714Y125765642D01*
X145863571Y125908500D01*
X146006428Y125979928D01*
X147077857Y125979928D02*
X147935000Y125979928D01*
X147506428Y124479928D02*
X147506428Y125979928D01*
X149435000Y125979928D02*
X150363571Y125979928D01*
X149863571Y125408500D01*
X150077857Y125408500D01*
X150220714Y125337071D01*
X150292142Y125265642D01*
X150363571Y125122785D01*
X150363571Y124765642D01*
X150292142Y124622785D01*
X150220714Y124551357D01*
X150077857Y124479928D01*
X149649285Y124479928D01*
X149506428Y124551357D01*
X149435000Y124622785D01*
X117225428Y124551357D02*
X117439714Y124479928D01*
X117796857Y124479928D01*
X117939714Y124551357D01*
X118011142Y124622785D01*
X118082571Y124765642D01*
X118082571Y124908500D01*
X118011142Y125051357D01*
X117939714Y125122785D01*
X117796857Y125194214D01*
X117511142Y125265642D01*
X117368285Y125337071D01*
X117296857Y125408500D01*
X117225428Y125551357D01*
X117225428Y125694214D01*
X117296857Y125837071D01*
X117368285Y125908500D01*
X117511142Y125979928D01*
X117868285Y125979928D01*
X118082571Y125908500D01*
X119439714Y124479928D02*
X118725428Y124479928D01*
X118725428Y125979928D01*
X120225428Y125979928D02*
X120511142Y125979928D01*
X120654000Y125908500D01*
X120796857Y125765642D01*
X120868285Y125479928D01*
X120868285Y124979928D01*
X120796857Y124694214D01*
X120654000Y124551357D01*
X120511142Y124479928D01*
X120225428Y124479928D01*
X120082571Y124551357D01*
X119939714Y124694214D01*
X119868285Y124979928D01*
X119868285Y125479928D01*
X119939714Y125765642D01*
X120082571Y125908500D01*
X120225428Y125979928D01*
X121296857Y125979928D02*
X122154000Y125979928D01*
X121725428Y124479928D02*
X121725428Y125979928D01*
X123725428Y125837071D02*
X123796857Y125908500D01*
X123939714Y125979928D01*
X124296857Y125979928D01*
X124439714Y125908500D01*
X124511142Y125837071D01*
X124582571Y125694214D01*
X124582571Y125551357D01*
X124511142Y125337071D01*
X123654000Y124479928D01*
X124582571Y124479928D01*
X91888928Y124551357D02*
X92103214Y124479928D01*
X92460357Y124479928D01*
X92603214Y124551357D01*
X92674642Y124622785D01*
X92746071Y124765642D01*
X92746071Y124908500D01*
X92674642Y125051357D01*
X92603214Y125122785D01*
X92460357Y125194214D01*
X92174642Y125265642D01*
X92031785Y125337071D01*
X91960357Y125408500D01*
X91888928Y125551357D01*
X91888928Y125694214D01*
X91960357Y125837071D01*
X92031785Y125908500D01*
X92174642Y125979928D01*
X92531785Y125979928D01*
X92746071Y125908500D01*
X94103214Y124479928D02*
X93388928Y124479928D01*
X93388928Y125979928D01*
X94888928Y125979928D02*
X95174642Y125979928D01*
X95317500Y125908500D01*
X95460357Y125765642D01*
X95531785Y125479928D01*
X95531785Y124979928D01*
X95460357Y124694214D01*
X95317500Y124551357D01*
X95174642Y124479928D01*
X94888928Y124479928D01*
X94746071Y124551357D01*
X94603214Y124694214D01*
X94531785Y124979928D01*
X94531785Y125479928D01*
X94603214Y125765642D01*
X94746071Y125908500D01*
X94888928Y125979928D01*
X95960357Y125979928D02*
X96817500Y125979928D01*
X96388928Y124479928D02*
X96388928Y125979928D01*
X99246071Y124479928D02*
X98388928Y124479928D01*
X98817500Y124479928D02*
X98817500Y125979928D01*
X98674642Y125765642D01*
X98531785Y125622785D01*
X98388928Y125551357D01*
X66488928Y124551357D02*
X66703214Y124479928D01*
X67060357Y124479928D01*
X67203214Y124551357D01*
X67274642Y124622785D01*
X67346071Y124765642D01*
X67346071Y124908500D01*
X67274642Y125051357D01*
X67203214Y125122785D01*
X67060357Y125194214D01*
X66774642Y125265642D01*
X66631785Y125337071D01*
X66560357Y125408500D01*
X66488928Y125551357D01*
X66488928Y125694214D01*
X66560357Y125837071D01*
X66631785Y125908500D01*
X66774642Y125979928D01*
X67131785Y125979928D01*
X67346071Y125908500D01*
X68703214Y124479928D02*
X67988928Y124479928D01*
X67988928Y125979928D01*
X69488928Y125979928D02*
X69774642Y125979928D01*
X69917500Y125908500D01*
X70060357Y125765642D01*
X70131785Y125479928D01*
X70131785Y124979928D01*
X70060357Y124694214D01*
X69917500Y124551357D01*
X69774642Y124479928D01*
X69488928Y124479928D01*
X69346071Y124551357D01*
X69203214Y124694214D01*
X69131785Y124979928D01*
X69131785Y125479928D01*
X69203214Y125765642D01*
X69346071Y125908500D01*
X69488928Y125979928D01*
X70560357Y125979928D02*
X71417500Y125979928D01*
X70988928Y124479928D02*
X70988928Y125979928D01*
X73346071Y125979928D02*
X73488928Y125979928D01*
X73631785Y125908500D01*
X73703214Y125837071D01*
X73774642Y125694214D01*
X73846071Y125408500D01*
X73846071Y125051357D01*
X73774642Y124765642D01*
X73703214Y124622785D01*
X73631785Y124551357D01*
X73488928Y124479928D01*
X73346071Y124479928D01*
X73203214Y124551357D01*
X73131785Y124622785D01*
X73060357Y124765642D01*
X72988928Y125051357D01*
X72988928Y125408500D01*
X73060357Y125694214D01*
X73131785Y125837071D01*
X73203214Y125908500D01*
X73346071Y125979928D01*
D14*
X49831500Y83925000D02*
X49831500Y83675000D01*
X50371500Y83925000D02*
X49831500Y83925000D01*
X47401500Y87525000D02*
X47831500Y87525000D01*
X47401500Y83925000D02*
X47401500Y87525000D01*
X47831500Y83925000D02*
X47401500Y83925000D01*
X47831500Y83675000D02*
X47831500Y83925000D01*
X49831500Y87525000D02*
X50371500Y87525000D01*
X52801500Y83925000D02*
X52371500Y83925000D01*
X52801500Y87525000D02*
X52801500Y83925000D01*
X52371500Y87525000D02*
X52801500Y87525000D01*
X69244936Y59034000D02*
X70449064Y59034000D01*
X69244936Y60854000D02*
X70449064Y60854000D01*
X156783000Y103060500D02*
G75*
G03X156783000Y103060500I-700000J0D01*
G01*
X154497000Y103060500D02*
G75*
G03X154497000Y103060500I-700000J0D01*
G01*
X61533000Y85598000D02*
G75*
G03X61533000Y85598000I-700000J0D01*
G01*
X44261000Y116268500D02*
G75*
G03X44261000Y116268500I-700000J0D01*
G01*
X-21080500Y164401500D02*
G75*
G03X-21080500Y164401500I-700000J0D01*
G01*
X1335000Y138557000D02*
G75*
G03X1335000Y138557000I-700000J0D01*
G01*
X-21969500Y104648000D02*
G75*
G03X-21969500Y104648000I-700000J0D01*
G01*
X121985000Y123253500D02*
G75*
G03X121985000Y123253500I-700000J0D01*
G01*
X135574000Y127508000D02*
G75*
G03X135574000Y127508000I-700000J0D01*
G01*
X53913000Y182689500D02*
G75*
G03X53913000Y182689500I-700000J0D01*
G01*
X1970000Y123380500D02*
G75*
G03X1970000Y123380500I-700000J0D01*
G01*
X-30796000Y79946500D02*
G75*
G03X-30796000Y79946500I-700000J0D01*
G01*
X-9523500Y80327500D02*
G75*
G03X-9523500Y80327500I-700000J0D01*
G01*
X-15556000Y79883000D02*
G75*
G03X-15556000Y79883000I-700000J0D01*
G01*
X46293000Y158115000D02*
G75*
G03X46293000Y158115000I-700000J0D01*
G01*
X49277500Y91567000D02*
G75*
G03X49277500Y91567000I-700000J0D01*
G01*
D15*
X55880000Y70485000D02*
X-62230000Y70485000D01*
X-62230000Y70485000D02*
X-62230000Y78740000D01*
X-62230000Y78740000D02*
X55880000Y78740000D01*
X55880000Y78740000D02*
X55880000Y70485000D01*
D14*
X-59740000Y194865000D02*
X-62740000Y194865000D01*
X-59740000Y207465000D02*
X-59740000Y194865000D01*
X-62740000Y207465000D02*
X-59740000Y207465000D01*
X-72340000Y207465000D02*
X-69340000Y207465000D01*
X-72340000Y194865000D02*
X-72340000Y207465000D01*
X-69340000Y194865000D02*
X-72340000Y194865000D01*
X-57510000Y191037936D02*
X-57510000Y192242064D01*
X-59330000Y191037936D02*
X-59330000Y192242064D01*
X-50890000Y201132064D02*
X-50890000Y199927936D01*
X-48170000Y201132064D02*
X-48170000Y199927936D01*
X-8509000Y208415000D02*
X-8509000Y206885000D01*
X-7746000Y215435000D02*
X-7746000Y206415000D01*
D16*
X-7746000Y215365000D02*
X-7746000Y215435000D01*
D14*
X-7746000Y224415000D02*
X-7746000Y217635000D01*
X-18914000Y224415000D02*
X-7746000Y224415000D01*
D16*
X-18914000Y224405000D02*
X-18914000Y224415000D01*
D14*
X-18914000Y224415000D02*
X-18914000Y217635000D01*
D16*
X-18914000Y224295000D02*
X-18914000Y224415000D01*
D14*
X-18914000Y206415000D02*
X-18914000Y215435000D01*
X-7746000Y206415000D02*
X-18914000Y206415000D01*
X7335000Y141525000D02*
X5795000Y141525000D01*
X7335000Y142525000D02*
X7335000Y141525000D01*
X8335000Y142525000D02*
X7335000Y142525000D01*
X39655000Y142525000D02*
X39655000Y141525000D01*
X38655000Y142525000D02*
X39655000Y142525000D01*
X7335000Y110205000D02*
X7335000Y111205000D01*
X8335000Y110205000D02*
X7335000Y110205000D01*
X39655000Y110205000D02*
X39655000Y111205000D01*
X38655000Y110205000D02*
X39655000Y110205000D01*
X-1302936Y200300000D02*
X-2507064Y200300000D01*
X-1302936Y198480000D02*
X-2507064Y198480000D01*
X29062000Y201960564D02*
X29062000Y200756436D01*
X30882000Y201960564D02*
X30882000Y200756436D01*
X26776000Y201960564D02*
X26776000Y200756436D01*
X28596000Y201960564D02*
X28596000Y200756436D01*
X26310000Y200756436D02*
X26310000Y201960564D01*
X24490000Y200756436D02*
X24490000Y201960564D01*
X24024000Y200756436D02*
X24024000Y201960564D01*
X22204000Y200756436D02*
X22204000Y201960564D01*
D16*
X41825000Y196935000D02*
X41825000Y195285000D01*
X43475000Y196935000D02*
X41825000Y196935000D01*
X52155000Y196935000D02*
X52155000Y195285000D01*
X50505000Y196935000D02*
X52155000Y196935000D01*
X41825000Y186605000D02*
X41825000Y188255000D01*
X43475000Y186605000D02*
X41825000Y186605000D01*
X52155000Y187755000D02*
X52155000Y188255000D01*
X51005000Y186605000D02*
X52155000Y187755000D01*
X50505000Y186605000D02*
X51005000Y186605000D01*
D14*
X-58190000Y167640000D02*
G75*
G03X-58190000Y167640000I-1500000J0D01*
G01*
X-65449750Y178922750D02*
X-66237250Y178922750D01*
X-65843500Y179316500D02*
X-65843500Y178529000D01*
X-70036563Y178289000D02*
X-71101000Y177224563D01*
X-65345437Y178289000D02*
X-64281000Y177224563D01*
X-65345437Y178289000D02*
X-66631000Y178289000D01*
X-70036563Y178289000D02*
X-68751000Y178289000D01*
X-71101000Y177224563D02*
X-71101000Y171469000D01*
X-64281000Y177224563D02*
X-64281000Y171469000D01*
X-64281000Y171469000D02*
X-66631000Y171469000D01*
X-71101000Y171469000D02*
X-68751000Y171469000D01*
X-58073500Y178191500D02*
X-58698500Y178191500D01*
X-58386000Y178504000D02*
X-58386000Y177879000D01*
X-61766563Y177639000D02*
X-62831000Y176574563D01*
X-58375437Y177639000D02*
X-57311000Y176574563D01*
X-58375437Y177639000D02*
X-59011000Y177639000D01*
X-61766563Y177639000D02*
X-61131000Y177639000D01*
X-62831000Y176574563D02*
X-62831000Y172119000D01*
X-57311000Y176574563D02*
X-57311000Y172119000D01*
X-57311000Y172119000D02*
X-59011000Y172119000D01*
X-62831000Y172119000D02*
X-61131000Y172119000D01*
X-14411000Y140084500D02*
X-14411000Y141414500D01*
X-13081000Y140084500D02*
X-14411000Y140084500D01*
X-11811000Y140084500D02*
X-11811000Y142744500D01*
X-11811000Y142744500D02*
X949000Y142744500D01*
X-11811000Y140084500D02*
X949000Y140084500D01*
X949000Y140084500D02*
X949000Y142744500D01*
X66235000Y131490000D02*
X66235000Y216491000D01*
X71735000Y131490000D02*
X66235000Y131490000D01*
X71735000Y132490000D02*
X71735000Y131490000D01*
X74735000Y132490000D02*
X71735000Y132490000D01*
X74735000Y215491000D02*
X74735000Y132490000D01*
X71735000Y215491000D02*
X74735000Y215491000D01*
X71735000Y216491000D02*
X71735000Y215491000D01*
X66235000Y216491000D02*
X71735000Y216491000D01*
X64205000Y213060000D02*
X64885000Y213360000D01*
X64205000Y213660000D02*
X64205000Y213060000D01*
X64885000Y213360000D02*
X64205000Y213660000D01*
X65075000Y126380000D02*
X65075000Y221600000D01*
X75895000Y126380000D02*
X65075000Y126380000D01*
X75895000Y221600000D02*
X75895000Y126380000D01*
X65075000Y221600000D02*
X75895000Y221600000D01*
D15*
X55880000Y68580000D02*
X55880000Y60325000D01*
X-62230000Y68580000D02*
X55880000Y68580000D01*
X-62230000Y60325000D02*
X-62230000Y68580000D01*
X55880000Y60325000D02*
X-62230000Y60325000D01*
D14*
X142435000Y131490000D02*
X142435000Y216491000D01*
X147935000Y131490000D02*
X142435000Y131490000D01*
X147935000Y132490000D02*
X147935000Y131490000D01*
X150935000Y132490000D02*
X147935000Y132490000D01*
X150935000Y215491000D02*
X150935000Y132490000D01*
X147935000Y215491000D02*
X150935000Y215491000D01*
X147935000Y216491000D02*
X147935000Y215491000D01*
X142435000Y216491000D02*
X147935000Y216491000D01*
X140405000Y213060000D02*
X141085000Y213360000D01*
X140405000Y213660000D02*
X140405000Y213060000D01*
X141085000Y213360000D02*
X140405000Y213660000D01*
X141275000Y126380000D02*
X141275000Y221600000D01*
X152095000Y126380000D02*
X141275000Y126380000D01*
X152095000Y221600000D02*
X152095000Y126380000D01*
X141275000Y221600000D02*
X152095000Y221600000D01*
D16*
X-14945000Y195665000D02*
X-15445000Y195665000D01*
X-15445000Y195665000D02*
X-16595000Y194515000D01*
X-16595000Y194515000D02*
X-16595000Y194015000D01*
X2245000Y195665000D02*
X3895000Y195665000D01*
X3895000Y195665000D02*
X3895000Y194015000D01*
X-14945000Y175175000D02*
X-16595000Y175175000D01*
X-16595000Y175175000D02*
X-16595000Y176825000D01*
X2245000Y175175000D02*
X3895000Y175175000D01*
X3895000Y175175000D02*
X3895000Y176825000D01*
D14*
X-28855000Y208700000D02*
X-28855000Y202420000D01*
X-28855000Y202420000D02*
X-44805000Y202420000D01*
X-44805000Y202420000D02*
X-44805000Y208700000D01*
X-44805000Y211900000D02*
X-44805000Y224340000D01*
X-44805000Y224340000D02*
X-28855000Y224340000D01*
X-28855000Y224340000D02*
X-28855000Y211900000D01*
X-28655000Y206010000D02*
X-28655000Y208010000D01*
X105533000Y75771500D02*
X105533000Y62146500D01*
X105533000Y62146500D02*
X106533000Y61146500D01*
X106533000Y61146500D02*
X136783000Y61146500D01*
X136783000Y61146500D02*
X136783000Y92396500D01*
X136783000Y92396500D02*
X105533000Y92396500D01*
X105533000Y92396500D02*
X105533000Y77771500D01*
X-55880000Y135830000D02*
X-53230000Y135830000D01*
X-55880000Y135830000D02*
X-58530000Y135830000D01*
X-55880000Y148650000D02*
X-53230000Y148650000D01*
X-55880000Y148650000D02*
X-60330000Y148650000D01*
X15825000Y195505000D02*
X14010000Y195505000D01*
X15825000Y195770000D02*
X15825000Y195505000D01*
X19685000Y195770000D02*
X15825000Y195770000D01*
X23545000Y195770000D02*
X23545000Y195505000D01*
X19685000Y195770000D02*
X23545000Y195770000D01*
X15825000Y180150000D02*
X15825000Y180415000D01*
X19685000Y180150000D02*
X15825000Y180150000D01*
X23545000Y180150000D02*
X23545000Y180415000D01*
X19685000Y180150000D02*
X23545000Y180150000D01*
X13565000Y176865000D02*
X17475000Y176865000D01*
X13565000Y178735000D02*
X13565000Y176865000D01*
X17475000Y178735000D02*
X13565000Y178735000D01*
X81975000Y116840000D02*
X81975000Y119490000D01*
X81975000Y116840000D02*
X81975000Y114190000D01*
X69155000Y116840000D02*
X69155000Y119490000D01*
X69155000Y116840000D02*
X69155000Y112390000D01*
X151130000Y96540000D02*
X149180000Y96540000D01*
X151130000Y96540000D02*
X153080000Y96540000D01*
X151130000Y91420000D02*
X149180000Y91420000D01*
X151130000Y91420000D02*
X154580000Y91420000D01*
X-53003750Y205973750D02*
X-53791250Y205973750D01*
X-53397500Y206367500D02*
X-53397500Y205580000D01*
X-57590563Y205340000D02*
X-58655000Y204275563D01*
X-52899437Y205340000D02*
X-51835000Y204275563D01*
X-52899437Y205340000D02*
X-54185000Y205340000D01*
X-57590563Y205340000D02*
X-56305000Y205340000D01*
X-58655000Y204275563D02*
X-58655000Y198520000D01*
X-51835000Y204275563D02*
X-51835000Y198520000D01*
X-51835000Y198520000D02*
X-54185000Y198520000D01*
X-58655000Y198520000D02*
X-56305000Y198520000D01*
D15*
X66548000Y97091500D02*
X66548000Y64071500D01*
X102108000Y97091500D02*
X66548000Y97091500D01*
X102108000Y61531500D02*
X102108000Y97091500D01*
X69088000Y61531500D02*
X102108000Y61531500D01*
X66548000Y64071500D02*
X69088000Y61531500D01*
D14*
X2545000Y155340000D02*
X2545000Y156600000D01*
X2545000Y162160000D02*
X2545000Y160900000D01*
X-1215000Y155340000D02*
X2545000Y155340000D01*
X-3465000Y162160000D02*
X2545000Y162160000D01*
X-10155000Y155340000D02*
X-10155000Y156600000D01*
X-10155000Y162160000D02*
X-10155000Y160900000D01*
X-13915000Y155340000D02*
X-10155000Y155340000D01*
X-16165000Y162160000D02*
X-10155000Y162160000D01*
X2135000Y151130000D02*
G75*
G03X2135000Y151130000I-1500000J0D01*
G01*
X-11200000Y151130000D02*
G75*
G03X-11200000Y151130000I-1500000J0D01*
G01*
X-26385000Y198110000D02*
X-13785000Y198110000D01*
X-26385000Y203210000D02*
X-26385000Y198110000D01*
X-13785000Y203210000D02*
X-26385000Y203210000D01*
X145150000Y85660000D02*
X146950000Y85660000D01*
X147000000Y87060000D02*
X147000000Y88160000D01*
X145100000Y87060000D02*
X145100000Y88160000D01*
X5705000Y197454000D02*
X5705000Y184854000D01*
X10805000Y197454000D02*
X5705000Y197454000D01*
X10805000Y184854000D02*
X10805000Y197454000D01*
D16*
X37424000Y186595000D02*
X37924000Y186595000D01*
X37924000Y186595000D02*
X39074000Y187745000D01*
X39074000Y187745000D02*
X39074000Y188245000D01*
X30394000Y186595000D02*
X28744000Y186595000D01*
X28744000Y186595000D02*
X28744000Y188245000D01*
X37424000Y196925000D02*
X39074000Y196925000D01*
X39074000Y196925000D02*
X39074000Y195275000D01*
X30394000Y196925000D02*
X28744000Y196925000D01*
X28744000Y196925000D02*
X28744000Y195275000D01*
D17*
X-47465000Y193900000D02*
X-47040000Y194325000D01*
X-47040000Y194325000D02*
X-46465000Y194325000D01*
X-46465000Y194325000D02*
X-28215000Y194325000D01*
X-28215000Y194325000D02*
X-27890000Y194325000D01*
X-27890000Y194325000D02*
X-27465000Y193900000D01*
X-27465000Y193900000D02*
X-27465000Y193575000D01*
X-27465000Y193575000D02*
X-27465000Y181075000D01*
X-27465000Y181075000D02*
X-27465000Y180750000D01*
X-27465000Y180750000D02*
X-27890000Y180325000D01*
X-27890000Y180325000D02*
X-28215000Y180325000D01*
X-28215000Y180325000D02*
X-46715000Y180325000D01*
X-46715000Y180325000D02*
X-47040000Y180325000D01*
X-47040000Y180325000D02*
X-47465000Y180750000D01*
X-47465000Y180750000D02*
X-47465000Y181075000D01*
X-47465000Y181075000D02*
X-47465000Y193575000D01*
X-47465000Y193575000D02*
X-47465000Y193900000D01*
D18*
X-46965000Y193575000D02*
X-46715000Y193825000D01*
X-46715000Y193825000D02*
X-46465000Y193825000D01*
X-46465000Y193825000D02*
X-28215000Y193825000D01*
X-28215000Y193825000D02*
X-27965000Y193575000D01*
X-27965000Y193575000D02*
X-27965000Y181075000D01*
X-27965000Y181075000D02*
X-28215000Y180825000D01*
X-28215000Y180825000D02*
X-46715000Y180825000D01*
X-46715000Y180825000D02*
X-46965000Y181075000D01*
X-46965000Y181075000D02*
X-46965000Y193575000D01*
X-28215000Y194325000D02*
X-28215000Y193825000D01*
X-27465000Y193575000D02*
X-27965000Y193575000D01*
X-27465000Y181075000D02*
X-27965000Y181075000D01*
X-28215000Y180825000D02*
X-28215000Y180325000D01*
X-46715000Y180325000D02*
X-46715000Y180825000D01*
X-47465000Y181075000D02*
X-46965000Y181075000D01*
X-47465000Y193575000D02*
X-46965000Y193575000D01*
X-46465000Y194325000D02*
X-46465000Y193825000D01*
D17*
X-43105000Y183225000D02*
G75*
G03X-43105000Y183225000I-1500000J0D01*
G01*
D14*
X59055000Y192415000D02*
X61005000Y192415000D01*
X59055000Y192415000D02*
X57105000Y192415000D01*
X59055000Y201285000D02*
X61005000Y201285000D01*
X59055000Y201285000D02*
X55605000Y201285000D01*
X59055000Y165040000D02*
X61705000Y165040000D01*
X59055000Y165040000D02*
X56405000Y165040000D01*
X59055000Y177860000D02*
X61705000Y177860000D01*
X59055000Y177860000D02*
X54605000Y177860000D01*
X59055000Y149800000D02*
X61705000Y149800000D01*
X59055000Y149800000D02*
X56405000Y149800000D01*
X59055000Y162620000D02*
X61705000Y162620000D01*
X59055000Y162620000D02*
X54605000Y162620000D01*
X59055000Y134560000D02*
X61705000Y134560000D01*
X59055000Y134560000D02*
X56405000Y134560000D01*
X59055000Y147380000D02*
X61705000Y147380000D01*
X59055000Y147380000D02*
X54605000Y147380000D01*
X95945000Y116840000D02*
X95945000Y119490000D01*
X95945000Y116840000D02*
X95945000Y114190000D01*
X83125000Y116840000D02*
X83125000Y119490000D01*
X83125000Y116840000D02*
X83125000Y112390000D01*
X116265000Y116840000D02*
X116265000Y119490000D01*
X116265000Y116840000D02*
X116265000Y114190000D01*
X103445000Y116840000D02*
X103445000Y119490000D01*
X103445000Y116840000D02*
X103445000Y112390000D01*
X132140000Y116840000D02*
X132140000Y119490000D01*
X132140000Y116840000D02*
X132140000Y114190000D01*
X119320000Y116840000D02*
X119320000Y119490000D01*
X119320000Y116840000D02*
X119320000Y112390000D01*
X146110000Y116840000D02*
X146110000Y119490000D01*
X146110000Y116840000D02*
X146110000Y114190000D01*
X133290000Y116840000D02*
X133290000Y119490000D01*
X133290000Y116840000D02*
X133290000Y112390000D01*
X-72150000Y192841000D02*
X-72150000Y191601000D01*
X-70910000Y192841000D02*
X-72150000Y192841000D01*
X-63290000Y180880000D02*
X-71910000Y180880000D01*
X-63290000Y192601000D02*
X-71910000Y192601000D01*
X-71910000Y192601000D02*
X-71910000Y180880000D01*
X-63290000Y192601000D02*
X-63290000Y180880000D01*
X-23895000Y145020000D02*
X-32020000Y145020000D01*
X-23895000Y124220000D02*
X-23895000Y145020000D01*
X-42145000Y124220000D02*
X-23895000Y124220000D01*
X-42145000Y144020000D02*
X-42145000Y124220000D01*
X-41145000Y145020000D02*
X-42145000Y144020000D01*
X-34020000Y145020000D02*
X-41145000Y145020000D01*
X-23895000Y119620000D02*
X-32020000Y119620000D01*
X-23895000Y98820000D02*
X-23895000Y119620000D01*
X-42145000Y98820000D02*
X-23895000Y98820000D01*
X-42145000Y118620000D02*
X-42145000Y98820000D01*
X-41145000Y119620000D02*
X-42145000Y118620000D01*
X-34020000Y119620000D02*
X-41145000Y119620000D01*
X151130000Y90190000D02*
X147680000Y90190000D01*
X151130000Y90190000D02*
X153080000Y90190000D01*
X151130000Y85070000D02*
X149180000Y85070000D01*
X151130000Y85070000D02*
X153080000Y85070000D01*
D19*
X155890000Y187050000D02*
X160340000Y187050000D01*
X154365000Y193950000D02*
X160340000Y193950000D01*
D14*
X-45780000Y85725000D02*
X-45780000Y81275000D01*
X-45780000Y85725000D02*
X-45780000Y88375000D01*
X-32960000Y85725000D02*
X-32960000Y83075000D01*
X-32960000Y85725000D02*
X-32960000Y88375000D01*
X32960000Y85725000D02*
X32960000Y81275000D01*
X32960000Y85725000D02*
X32960000Y88375000D01*
X45780000Y85725000D02*
X45780000Y83075000D01*
X45780000Y85725000D02*
X45780000Y88375000D01*
X-31810000Y85725000D02*
X-31810000Y81275000D01*
X-31810000Y85725000D02*
X-31810000Y88375000D01*
X-18990000Y85725000D02*
X-18990000Y83075000D01*
X-18990000Y85725000D02*
X-18990000Y88375000D01*
X8830000Y85725000D02*
X8830000Y81275000D01*
X8830000Y85725000D02*
X8830000Y88375000D01*
X21650000Y85725000D02*
X21650000Y83075000D01*
X21650000Y85725000D02*
X21650000Y88375000D01*
X-55880000Y121860000D02*
X-53230000Y121860000D01*
X-55880000Y121860000D02*
X-58530000Y121860000D01*
X-55880000Y134680000D02*
X-53230000Y134680000D01*
X-55880000Y134680000D02*
X-60330000Y134680000D01*
X59055000Y180985000D02*
X61005000Y180985000D01*
X59055000Y180985000D02*
X57105000Y180985000D01*
X59055000Y189855000D02*
X61005000Y189855000D01*
X59055000Y189855000D02*
X55605000Y189855000D01*
X41430500Y183699000D02*
X41430500Y181299000D01*
X41430500Y185709000D02*
X41430500Y185299000D01*
X47850500Y185709000D02*
X41430500Y185709000D01*
X47850500Y185299000D02*
X47850500Y185709000D01*
X47850500Y181299000D02*
X47850500Y183699000D01*
X47850500Y179289000D02*
X47850500Y179569000D01*
X41430500Y179289000D02*
X47850500Y179289000D01*
X41430500Y179699000D02*
X41430500Y179289000D01*
X-59085000Y86360000D02*
G75*
G03X-59085000Y86360000I-7600000J0D01*
G01*
X55755000Y206840000D02*
X55755000Y204640000D01*
X62355000Y206840000D02*
X62355000Y204640000D01*
X74805000Y125560000D02*
X74805000Y123360000D01*
X81405000Y125560000D02*
X81405000Y123360000D01*
X82425000Y125560000D02*
X82425000Y123360000D01*
X89025000Y125560000D02*
X89025000Y123360000D01*
X106555000Y125560000D02*
X106555000Y123360000D01*
X113155000Y125560000D02*
X113155000Y123360000D01*
X127510000Y125560000D02*
X127510000Y123360000D01*
X134110000Y125560000D02*
X134110000Y123360000D01*
X135130000Y125560000D02*
X135130000Y123360000D01*
X141730000Y125560000D02*
X141730000Y123360000D01*
X157945000Y164590000D02*
X155745000Y164590000D01*
X157945000Y157990000D02*
X155745000Y157990000D01*
X157945000Y174750000D02*
X155745000Y174750000D01*
X157945000Y168150000D02*
X155745000Y168150000D01*
X157945000Y184910000D02*
X155745000Y184910000D01*
X157945000Y178310000D02*
X155745000Y178310000D01*
X157945000Y202690000D02*
X155745000Y202690000D01*
X157945000Y196090000D02*
X155745000Y196090000D01*
X157945000Y212850000D02*
X155745000Y212850000D01*
X157945000Y206250000D02*
X155745000Y206250000D01*
X86358000Y58780500D02*
X86358000Y60980500D01*
X79758000Y58780500D02*
X79758000Y60980500D01*
X29970000Y83355000D02*
X29970000Y85555000D01*
X23370000Y83355000D02*
X23370000Y85555000D01*
X-10670000Y83355000D02*
X-10670000Y85555000D01*
X-17270000Y83355000D02*
X-17270000Y85555000D01*
X7110000Y83355000D02*
X7110000Y85555000D01*
X510000Y83355000D02*
X510000Y85555000D01*
X-32987064Y199115000D02*
X-31782936Y199115000D01*
X-32987064Y200935000D02*
X-31782936Y200935000D01*
X-42707936Y200935000D02*
X-43912064Y200935000D01*
X-42707936Y199115000D02*
X-43912064Y199115000D01*
X-69490000Y212692064D02*
X-69490000Y211487936D01*
X-67670000Y212692064D02*
X-67670000Y211487936D01*
X158082064Y91080000D02*
X156877936Y91080000D01*
X158082064Y89260000D02*
X156877936Y89260000D01*
X158082064Y86000000D02*
X156877936Y86000000D01*
X158082064Y84180000D02*
X156877936Y84180000D01*
X158082064Y88540000D02*
X156877936Y88540000D01*
X158082064Y86720000D02*
X156877936Y86720000D01*
X-60600000Y112492064D02*
X-60600000Y111287936D01*
X-58780000Y112492064D02*
X-58780000Y111287936D01*
X31480000Y209145000D02*
X52340000Y209145000D01*
X52340000Y209145000D02*
X52340000Y199795000D01*
X52340000Y199795000D02*
X31480000Y199795000D01*
X31480000Y199795000D02*
X31480000Y209145000D01*
X31230000Y199545000D02*
X33770000Y199545000D01*
X31230000Y199545000D02*
X31230000Y202085000D01*
X-62635000Y153940000D02*
X-62635000Y94980000D01*
X-62635000Y94980000D02*
X-71985000Y94980000D01*
X-71985000Y94980000D02*
X-71985000Y153940000D01*
X-71985000Y153940000D02*
X-62635000Y153940000D01*
X-72235000Y154190000D02*
X-72235000Y151650000D01*
X-72235000Y154190000D02*
X-69695000Y154190000D01*
X8315000Y175200000D02*
X6985000Y175200000D01*
X8315000Y176530000D02*
X8315000Y175200000D01*
X8315000Y177800000D02*
X5655000Y177800000D01*
X5655000Y177800000D02*
X5655000Y182940000D01*
X8315000Y177800000D02*
X8315000Y182940000D01*
X8315000Y182940000D02*
X5655000Y182940000D01*
X117035000Y131490000D02*
X117035000Y216491000D01*
X122535000Y131490000D02*
X117035000Y131490000D01*
X122535000Y132490000D02*
X122535000Y131490000D01*
X125535000Y132490000D02*
X122535000Y132490000D01*
X125535000Y215491000D02*
X125535000Y132490000D01*
X122535000Y215491000D02*
X125535000Y215491000D01*
X122535000Y216491000D02*
X122535000Y215491000D01*
X117035000Y216491000D02*
X122535000Y216491000D01*
X115005000Y213060000D02*
X115685000Y213360000D01*
X115005000Y213660000D02*
X115005000Y213060000D01*
X115685000Y213360000D02*
X115005000Y213660000D01*
X115875000Y126380000D02*
X115875000Y221600000D01*
X126695000Y126380000D02*
X115875000Y126380000D01*
X126695000Y221600000D02*
X126695000Y126380000D01*
X115875000Y221600000D02*
X126695000Y221600000D01*
X91635000Y131490000D02*
X91635000Y216491000D01*
X97135000Y131490000D02*
X91635000Y131490000D01*
X97135000Y132490000D02*
X97135000Y131490000D01*
X100135000Y132490000D02*
X97135000Y132490000D01*
X100135000Y215491000D02*
X100135000Y132490000D01*
X97135000Y215491000D02*
X100135000Y215491000D01*
X97135000Y216491000D02*
X97135000Y215491000D01*
X91635000Y216491000D02*
X97135000Y216491000D01*
X89605000Y213060000D02*
X90285000Y213360000D01*
X89605000Y213660000D02*
X89605000Y213060000D01*
X90285000Y213360000D02*
X89605000Y213660000D01*
X90475000Y126380000D02*
X90475000Y221600000D01*
X101295000Y126380000D02*
X90475000Y126380000D01*
X101295000Y221600000D02*
X101295000Y126380000D01*
X90475000Y221600000D02*
X101295000Y221600000D01*
X33810000Y211500000D02*
X33810000Y224500000D01*
X50010000Y211500000D02*
X50010000Y224500000D01*
X50010000Y211500000D02*
X33810000Y211500000D01*
X50010000Y224500000D02*
X33810000Y224500000D01*
X57725000Y72965000D02*
X57725000Y74295000D01*
X59055000Y72965000D02*
X57725000Y72965000D01*
X60325000Y72965000D02*
X60325000Y75625000D01*
X60325000Y75625000D02*
X65465000Y75625000D01*
X60325000Y72965000D02*
X65465000Y72965000D01*
X65465000Y72965000D02*
X65465000Y75625000D01*
X57725000Y67885000D02*
X57725000Y69215000D01*
X59055000Y67885000D02*
X57725000Y67885000D01*
X60325000Y67885000D02*
X60325000Y70545000D01*
X60325000Y70545000D02*
X65465000Y70545000D01*
X60325000Y67885000D02*
X65465000Y67885000D01*
X65465000Y67885000D02*
X65465000Y70545000D01*
D19*
X-3175000Y203835000D02*
X29845000Y203835000D01*
X-3175000Y224790000D02*
X29845000Y224790000D01*
X-3175000Y203835000D02*
X-3175000Y224790000D01*
X29845000Y203835000D02*
X29845000Y224790000D01*
D14*
X-47310000Y205169500D02*
X-47310000Y209054500D01*
X-50480000Y205169500D02*
X-47310000Y205169500D01*
X-50480000Y209054500D02*
X-50480000Y205169500D01*
X-73340000Y214375000D02*
X-73340000Y210490000D01*
X-70170000Y214375000D02*
X-73340000Y214375000D01*
X-70170000Y210490000D02*
X-70170000Y214375000D01*
X-57535000Y101915000D02*
X-61420000Y101915000D01*
X-57535000Y98745000D02*
X-57535000Y101915000D01*
X-61420000Y98745000D02*
X-57535000Y98745000D01*
X-55565000Y84763000D02*
X-55565000Y88648000D01*
X-55565000Y88648000D02*
X-58735000Y88648000D01*
X-58735000Y88648000D02*
X-58735000Y84763000D01*
X-55090000Y209920000D02*
X-57690000Y209920000D01*
X-55090000Y224620000D02*
X-55090000Y209920000D01*
X-64290000Y209920000D02*
X-64290000Y211820000D01*
X-61590000Y209920000D02*
X-64290000Y209920000D01*
X-64290000Y224620000D02*
X-55090000Y224620000D01*
X-64290000Y215820000D02*
X-64290000Y224620000D01*
X-54890000Y210770000D02*
X-54890000Y209720000D01*
X-55940000Y209720000D02*
X-54890000Y209720000D01*
X25805000Y172385000D02*
X21895000Y172385000D01*
X25805000Y170515000D02*
X25805000Y172385000D01*
X21895000Y170515000D02*
X25805000Y170515000D01*
X21895000Y173690000D02*
X25805000Y173690000D01*
X25805000Y173690000D02*
X25805000Y175560000D01*
X25805000Y175560000D02*
X21895000Y175560000D01*
X21185000Y176865000D02*
X25095000Y176865000D01*
X21185000Y178735000D02*
X21185000Y176865000D01*
X25095000Y178735000D02*
X21185000Y178735000D01*
X159150000Y78380000D02*
X159150000Y76930000D01*
X156550000Y80980000D02*
X159150000Y78380000D01*
X156550000Y81780000D02*
X156550000Y80980000D01*
X148250000Y81780000D02*
X156550000Y81780000D01*
X148250000Y80980000D02*
X148250000Y81780000D01*
X145650000Y78380000D02*
X148250000Y80980000D01*
X145650000Y76930000D02*
X145650000Y78380000D01*
X145650000Y72930000D02*
X145650000Y70830000D01*
X159150000Y72930000D02*
X159150000Y70830000D01*
X145650000Y70880000D02*
G75*
G03X147100000Y69330000I1500000J-50000D01*
G01*
X159150000Y70880000D02*
G75*
G02X157700000Y69330000I-1500000J-50000D01*
G01*
X146985385Y69345840D02*
G75*
G03X147900000Y69730000I124615J984160D01*
G01*
X157814615Y69345840D02*
G75*
G02X156900000Y69730000I-124615J984160D01*
G01*
D16*
X-50151500Y75565000D02*
G75*
G03X-50151500Y75565000I-648500J0D01*
G01*
X-48881500Y73025000D02*
G75*
G03X-48881500Y73025000I-648500J0D01*
G01*
X-47611500Y75565000D02*
G75*
G03X-47611500Y75565000I-648500J0D01*
G01*
X-46341500Y73025000D02*
G75*
G03X-46341500Y73025000I-648500J0D01*
G01*
X-45071500Y75565000D02*
G75*
G03X-45071500Y75565000I-648500J0D01*
G01*
X-43801500Y73025000D02*
G75*
G03X-43801500Y73025000I-648500J0D01*
G01*
X-42531500Y75565000D02*
G75*
G03X-42531500Y75565000I-648500J0D01*
G01*
X-41261500Y73025000D02*
G75*
G03X-41261500Y73025000I-648500J0D01*
G01*
X-39991500Y75565000D02*
G75*
G03X-39991500Y75565000I-648500J0D01*
G01*
X-38721500Y73025000D02*
G75*
G03X-38721500Y73025000I-648500J0D01*
G01*
X-37451500Y75565000D02*
G75*
G03X-37451500Y75565000I-648500J0D01*
G01*
X-36181500Y73025000D02*
G75*
G03X-36181500Y73025000I-648500J0D01*
G01*
X-34911500Y75565000D02*
G75*
G03X-34911500Y75565000I-648500J0D01*
G01*
X-33641500Y73025000D02*
G75*
G03X-33641500Y73025000I-648500J0D01*
G01*
X-32371500Y75565000D02*
G75*
G03X-32371500Y75565000I-648500J0D01*
G01*
X-31101500Y73025000D02*
G75*
G03X-31101500Y73025000I-648500J0D01*
G01*
X-29831500Y75565000D02*
G75*
G03X-29831500Y75565000I-648500J0D01*
G01*
X-28561500Y73025000D02*
G75*
G03X-28561500Y73025000I-648500J0D01*
G01*
X-27291500Y75565000D02*
G75*
G03X-27291500Y75565000I-648500J0D01*
G01*
X-26021500Y73025000D02*
G75*
G03X-26021500Y73025000I-648500J0D01*
G01*
X-24751500Y75565000D02*
G75*
G03X-24751500Y75565000I-648500J0D01*
G01*
X-23481500Y73025000D02*
G75*
G03X-23481500Y73025000I-648500J0D01*
G01*
X-22211500Y75565000D02*
G75*
G03X-22211500Y75565000I-648500J0D01*
G01*
X-20941500Y73025000D02*
G75*
G03X-20941500Y73025000I-648500J0D01*
G01*
X-19671500Y75565000D02*
G75*
G03X-19671500Y75565000I-648500J0D01*
G01*
X5728500Y75565000D02*
G75*
G03X5728500Y75565000I-648500J0D01*
G01*
X6998500Y73025000D02*
G75*
G03X6998500Y73025000I-648500J0D01*
G01*
X37478500Y73025000D02*
G75*
G03X37478500Y73025000I-648500J0D01*
G01*
X-5701500Y73025000D02*
G75*
G03X-5701500Y73025000I-648500J0D01*
G01*
X648500Y75565000D02*
G75*
G03X648500Y75565000I-648500J0D01*
G01*
X1918500Y73025000D02*
G75*
G03X1918500Y73025000I-648500J0D01*
G01*
X26048500Y75565000D02*
G75*
G03X26048500Y75565000I-648500J0D01*
G01*
X34938500Y73025000D02*
G75*
G03X34938500Y73025000I-648500J0D01*
G01*
X53823400Y74295000D02*
G75*
G03X53823400Y74295000I-1118400J0D01*
G01*
X43801500Y73673500D02*
X43801500Y72376500D01*
X45098500Y72376500D01*
X45098500Y73673500D01*
X43801500Y73673500D01*
X43828500Y75565000D02*
G75*
G03X43828500Y75565000I-648500J0D01*
G01*
X42558500Y73025000D02*
G75*
G03X42558500Y73025000I-648500J0D01*
G01*
X41288500Y75565000D02*
G75*
G03X41288500Y75565000I-648500J0D01*
G01*
X38748500Y75565000D02*
G75*
G03X38748500Y75565000I-648500J0D01*
G01*
X-18401500Y73025000D02*
G75*
G03X-18401500Y73025000I-648500J0D01*
G01*
X-17131500Y75565000D02*
G75*
G03X-17131500Y75565000I-648500J0D01*
G01*
X-15861500Y73025000D02*
G75*
G03X-15861500Y73025000I-648500J0D01*
G01*
X-14591500Y75565000D02*
G75*
G03X-14591500Y75565000I-648500J0D01*
G01*
X-13321500Y73025000D02*
G75*
G03X-13321500Y73025000I-648500J0D01*
G01*
X-12051500Y75565000D02*
G75*
G03X-12051500Y75565000I-648500J0D01*
G01*
X-10781500Y73025000D02*
G75*
G03X-10781500Y73025000I-648500J0D01*
G01*
X-9511500Y75565000D02*
G75*
G03X-9511500Y75565000I-648500J0D01*
G01*
X-8241500Y73025000D02*
G75*
G03X-8241500Y73025000I-648500J0D01*
G01*
X-6971500Y75565000D02*
G75*
G03X-6971500Y75565000I-648500J0D01*
G01*
X-1828000Y74295000D02*
G75*
G03X-1828000Y74295000I-1347000J0D01*
G01*
X-57708000Y74295000D02*
G75*
G03X-57708000Y74295000I-1347000J0D01*
G01*
X10808500Y75565000D02*
G75*
G03X10808500Y75565000I-648500J0D01*
G01*
X12078500Y73025000D02*
G75*
G03X12078500Y73025000I-648500J0D01*
G01*
X27318500Y73025000D02*
G75*
G03X27318500Y73025000I-648500J0D01*
G01*
X33668500Y75565000D02*
G75*
G03X33668500Y75565000I-648500J0D01*
G01*
X32398500Y73025000D02*
G75*
G03X32398500Y73025000I-648500J0D01*
G01*
X20968500Y75565000D02*
G75*
G03X20968500Y75565000I-648500J0D01*
G01*
X22238500Y73025000D02*
G75*
G03X22238500Y73025000I-648500J0D01*
G01*
X31128500Y75565000D02*
G75*
G03X31128500Y75565000I-648500J0D01*
G01*
X18428500Y75565000D02*
G75*
G03X18428500Y75565000I-648500J0D01*
G01*
X19698500Y73025000D02*
G75*
G03X19698500Y73025000I-648500J0D01*
G01*
X29858500Y73025000D02*
G75*
G03X29858500Y73025000I-648500J0D01*
G01*
X15888500Y75565000D02*
G75*
G03X15888500Y75565000I-648500J0D01*
G01*
X17158500Y73025000D02*
G75*
G03X17158500Y73025000I-648500J0D01*
G01*
X28588500Y75565000D02*
G75*
G03X28588500Y75565000I-648500J0D01*
G01*
X13348500Y75565000D02*
G75*
G03X13348500Y75565000I-648500J0D01*
G01*
X14618500Y73025000D02*
G75*
G03X14618500Y73025000I-648500J0D01*
G01*
X8268500Y75565000D02*
G75*
G03X8268500Y75565000I-648500J0D01*
G01*
X9538500Y73025000D02*
G75*
G03X9538500Y73025000I-648500J0D01*
G01*
X23508500Y75565000D02*
G75*
G03X23508500Y75565000I-648500J0D01*
G01*
X24778500Y73025000D02*
G75*
G03X24778500Y73025000I-648500J0D01*
G01*
X3188500Y75565000D02*
G75*
G03X3188500Y75565000I-648500J0D01*
G01*
X4458500Y73025000D02*
G75*
G03X4458500Y73025000I-648500J0D01*
G01*
X36208500Y75565000D02*
G75*
G03X36208500Y75565000I-648500J0D01*
G01*
X40018500Y73025000D02*
G75*
G03X40018500Y73025000I-648500J0D01*
G01*
X40018500Y62865000D02*
G75*
G03X40018500Y62865000I-648500J0D01*
G01*
X36208500Y65405000D02*
G75*
G03X36208500Y65405000I-648500J0D01*
G01*
X4458500Y62865000D02*
G75*
G03X4458500Y62865000I-648500J0D01*
G01*
X3188500Y65405000D02*
G75*
G03X3188500Y65405000I-648500J0D01*
G01*
X24778500Y62865000D02*
G75*
G03X24778500Y62865000I-648500J0D01*
G01*
X23508500Y65405000D02*
G75*
G03X23508500Y65405000I-648500J0D01*
G01*
X9538500Y62865000D02*
G75*
G03X9538500Y62865000I-648500J0D01*
G01*
X8268500Y65405000D02*
G75*
G03X8268500Y65405000I-648500J0D01*
G01*
X14618500Y62865000D02*
G75*
G03X14618500Y62865000I-648500J0D01*
G01*
X13348500Y65405000D02*
G75*
G03X13348500Y65405000I-648500J0D01*
G01*
X28588500Y65405000D02*
G75*
G03X28588500Y65405000I-648500J0D01*
G01*
X17158500Y62865000D02*
G75*
G03X17158500Y62865000I-648500J0D01*
G01*
X15888500Y65405000D02*
G75*
G03X15888500Y65405000I-648500J0D01*
G01*
X29858500Y62865000D02*
G75*
G03X29858500Y62865000I-648500J0D01*
G01*
X19698500Y62865000D02*
G75*
G03X19698500Y62865000I-648500J0D01*
G01*
X18428500Y65405000D02*
G75*
G03X18428500Y65405000I-648500J0D01*
G01*
X31128500Y65405000D02*
G75*
G03X31128500Y65405000I-648500J0D01*
G01*
X22238500Y62865000D02*
G75*
G03X22238500Y62865000I-648500J0D01*
G01*
X20968500Y65405000D02*
G75*
G03X20968500Y65405000I-648500J0D01*
G01*
X32398500Y62865000D02*
G75*
G03X32398500Y62865000I-648500J0D01*
G01*
X33668500Y65405000D02*
G75*
G03X33668500Y65405000I-648500J0D01*
G01*
X27318500Y62865000D02*
G75*
G03X27318500Y62865000I-648500J0D01*
G01*
X12078500Y62865000D02*
G75*
G03X12078500Y62865000I-648500J0D01*
G01*
X10808500Y65405000D02*
G75*
G03X10808500Y65405000I-648500J0D01*
G01*
X-57708000Y64135000D02*
G75*
G03X-57708000Y64135000I-1347000J0D01*
G01*
X-1828000Y64135000D02*
G75*
G03X-1828000Y64135000I-1347000J0D01*
G01*
X-6971500Y65405000D02*
G75*
G03X-6971500Y65405000I-648500J0D01*
G01*
X-8241500Y62865000D02*
G75*
G03X-8241500Y62865000I-648500J0D01*
G01*
X-9511500Y65405000D02*
G75*
G03X-9511500Y65405000I-648500J0D01*
G01*
X-10781500Y62865000D02*
G75*
G03X-10781500Y62865000I-648500J0D01*
G01*
X-12051500Y65405000D02*
G75*
G03X-12051500Y65405000I-648500J0D01*
G01*
X-13321500Y62865000D02*
G75*
G03X-13321500Y62865000I-648500J0D01*
G01*
X-14591500Y65405000D02*
G75*
G03X-14591500Y65405000I-648500J0D01*
G01*
X-15861500Y62865000D02*
G75*
G03X-15861500Y62865000I-648500J0D01*
G01*
X-17131500Y65405000D02*
G75*
G03X-17131500Y65405000I-648500J0D01*
G01*
X-18401500Y62865000D02*
G75*
G03X-18401500Y62865000I-648500J0D01*
G01*
X38748500Y65405000D02*
G75*
G03X38748500Y65405000I-648500J0D01*
G01*
X41288500Y65405000D02*
G75*
G03X41288500Y65405000I-648500J0D01*
G01*
X42558500Y62865000D02*
G75*
G03X42558500Y62865000I-648500J0D01*
G01*
X43828500Y65405000D02*
G75*
G03X43828500Y65405000I-648500J0D01*
G01*
X43801500Y63513500D02*
X43801500Y62216500D01*
X45098500Y62216500D01*
X45098500Y63513500D01*
X43801500Y63513500D01*
X53823400Y64135000D02*
G75*
G03X53823400Y64135000I-1118400J0D01*
G01*
X34938500Y62865000D02*
G75*
G03X34938500Y62865000I-648500J0D01*
G01*
X26048500Y65405000D02*
G75*
G03X26048500Y65405000I-648500J0D01*
G01*
X1918500Y62865000D02*
G75*
G03X1918500Y62865000I-648500J0D01*
G01*
X648500Y65405000D02*
G75*
G03X648500Y65405000I-648500J0D01*
G01*
X-5701500Y62865000D02*
G75*
G03X-5701500Y62865000I-648500J0D01*
G01*
X37478500Y62865000D02*
G75*
G03X37478500Y62865000I-648500J0D01*
G01*
X6998500Y62865000D02*
G75*
G03X6998500Y62865000I-648500J0D01*
G01*
X5728500Y65405000D02*
G75*
G03X5728500Y65405000I-648500J0D01*
G01*
X-19671500Y65405000D02*
G75*
G03X-19671500Y65405000I-648500J0D01*
G01*
X-20941500Y62865000D02*
G75*
G03X-20941500Y62865000I-648500J0D01*
G01*
X-22211500Y65405000D02*
G75*
G03X-22211500Y65405000I-648500J0D01*
G01*
X-23481500Y62865000D02*
G75*
G03X-23481500Y62865000I-648500J0D01*
G01*
X-24751500Y65405000D02*
G75*
G03X-24751500Y65405000I-648500J0D01*
G01*
X-26021500Y62865000D02*
G75*
G03X-26021500Y62865000I-648500J0D01*
G01*
X-27291500Y65405000D02*
G75*
G03X-27291500Y65405000I-648500J0D01*
G01*
X-28561500Y62865000D02*
G75*
G03X-28561500Y62865000I-648500J0D01*
G01*
X-29831500Y65405000D02*
G75*
G03X-29831500Y65405000I-648500J0D01*
G01*
X-31101500Y62865000D02*
G75*
G03X-31101500Y62865000I-648500J0D01*
G01*
X-32371500Y65405000D02*
G75*
G03X-32371500Y65405000I-648500J0D01*
G01*
X-33641500Y62865000D02*
G75*
G03X-33641500Y62865000I-648500J0D01*
G01*
X-34911500Y65405000D02*
G75*
G03X-34911500Y65405000I-648500J0D01*
G01*
X-36181500Y62865000D02*
G75*
G03X-36181500Y62865000I-648500J0D01*
G01*
X-37451500Y65405000D02*
G75*
G03X-37451500Y65405000I-648500J0D01*
G01*
X-38721500Y62865000D02*
G75*
G03X-38721500Y62865000I-648500J0D01*
G01*
X-39991500Y65405000D02*
G75*
G03X-39991500Y65405000I-648500J0D01*
G01*
X-41261500Y62865000D02*
G75*
G03X-41261500Y62865000I-648500J0D01*
G01*
X-42531500Y65405000D02*
G75*
G03X-42531500Y65405000I-648500J0D01*
G01*
X-43801500Y62865000D02*
G75*
G03X-43801500Y62865000I-648500J0D01*
G01*
X-45071500Y65405000D02*
G75*
G03X-45071500Y65405000I-648500J0D01*
G01*
X-46341500Y62865000D02*
G75*
G03X-46341500Y62865000I-648500J0D01*
G01*
X-47611500Y65405000D02*
G75*
G03X-47611500Y65405000I-648500J0D01*
G01*
X-48881500Y62865000D02*
G75*
G03X-48881500Y62865000I-648500J0D01*
G01*
X-50151500Y65405000D02*
G75*
G03X-50151500Y65405000I-648500J0D01*
G01*
X82436500Y86931500D02*
G75*
G03X82436500Y86931500I-648500J0D01*
G01*
X82436500Y71691500D02*
G75*
G03X82436500Y71691500I-648500J0D01*
G01*
X92596500Y74231500D02*
G75*
G03X92596500Y74231500I-648500J0D01*
G01*
X77356500Y74231500D02*
G75*
G03X77356500Y74231500I-648500J0D01*
G01*
X92596500Y71691500D02*
G75*
G03X92596500Y71691500I-648500J0D01*
G01*
X77356500Y71691500D02*
G75*
G03X77356500Y71691500I-648500J0D01*
G01*
X77356500Y86931500D02*
G75*
G03X77356500Y86931500I-648500J0D01*
G01*
X92596500Y86931500D02*
G75*
G03X92596500Y86931500I-648500J0D01*
G01*
X77356500Y94551500D02*
G75*
G03X77356500Y94551500I-648500J0D01*
G01*
X77356500Y92011500D02*
G75*
G03X77356500Y92011500I-648500J0D01*
G01*
X77356500Y89471500D02*
G75*
G03X77356500Y89471500I-648500J0D01*
G01*
X79896500Y94551500D02*
G75*
G03X79896500Y94551500I-648500J0D01*
G01*
X79896500Y92011500D02*
G75*
G03X79896500Y92011500I-648500J0D01*
G01*
X79896500Y89471500D02*
G75*
G03X79896500Y89471500I-648500J0D01*
G01*
X82436500Y94551500D02*
G75*
G03X82436500Y94551500I-648500J0D01*
G01*
X82436500Y92011500D02*
G75*
G03X82436500Y92011500I-648500J0D01*
G01*
X82436500Y89471500D02*
G75*
G03X82436500Y89471500I-648500J0D01*
G01*
X84976500Y94551500D02*
G75*
G03X84976500Y94551500I-648500J0D01*
G01*
X84976500Y92011500D02*
G75*
G03X84976500Y92011500I-648500J0D01*
G01*
X84976500Y89471500D02*
G75*
G03X84976500Y89471500I-648500J0D01*
G01*
X87516500Y94551500D02*
G75*
G03X87516500Y94551500I-648500J0D01*
G01*
X87516500Y92011500D02*
G75*
G03X87516500Y92011500I-648500J0D01*
G01*
X87516500Y89471500D02*
G75*
G03X87516500Y89471500I-648500J0D01*
G01*
X90056500Y94551500D02*
G75*
G03X90056500Y94551500I-648500J0D01*
G01*
X90056500Y92011500D02*
G75*
G03X90056500Y92011500I-648500J0D01*
G01*
X90056500Y89471500D02*
G75*
G03X90056500Y89471500I-648500J0D01*
G01*
X92596500Y94551500D02*
G75*
G03X92596500Y94551500I-648500J0D01*
G01*
X92596500Y92011500D02*
G75*
G03X92596500Y92011500I-648500J0D01*
G01*
X92596500Y89471500D02*
G75*
G03X92596500Y89471500I-648500J0D01*
G01*
X95136500Y94551500D02*
G75*
G03X95136500Y94551500I-648500J0D01*
G01*
X95136500Y92011500D02*
G75*
G03X95136500Y92011500I-648500J0D01*
G01*
X95136500Y89471500D02*
G75*
G03X95136500Y89471500I-648500J0D01*
G01*
X95136500Y86931500D02*
G75*
G03X95136500Y86931500I-648500J0D01*
G01*
X95136500Y84391500D02*
G75*
G03X95136500Y84391500I-648500J0D01*
G01*
X95136500Y81851500D02*
G75*
G03X95136500Y81851500I-648500J0D01*
G01*
X95136500Y79311500D02*
G75*
G03X95136500Y79311500I-648500J0D01*
G01*
X95136500Y76771500D02*
G75*
G03X95136500Y76771500I-648500J0D01*
G01*
X95136500Y74231500D02*
G75*
G03X95136500Y74231500I-648500J0D01*
G01*
X95136500Y71691500D02*
G75*
G03X95136500Y71691500I-648500J0D01*
G01*
X97676500Y94551500D02*
G75*
G03X97676500Y94551500I-648500J0D01*
G01*
X97676500Y92011500D02*
G75*
G03X97676500Y92011500I-648500J0D01*
G01*
X97676500Y89471500D02*
G75*
G03X97676500Y89471500I-648500J0D01*
G01*
X97676500Y86931500D02*
G75*
G03X97676500Y86931500I-648500J0D01*
G01*
X97676500Y84391500D02*
G75*
G03X97676500Y84391500I-648500J0D01*
G01*
X97676500Y81851500D02*
G75*
G03X97676500Y81851500I-648500J0D01*
G01*
X97676500Y79311500D02*
G75*
G03X97676500Y79311500I-648500J0D01*
G01*
X97676500Y76771500D02*
G75*
G03X97676500Y76771500I-648500J0D01*
G01*
X97676500Y74231500D02*
G75*
G03X97676500Y74231500I-648500J0D01*
G01*
X97676500Y71691500D02*
G75*
G03X97676500Y71691500I-648500J0D01*
G01*
X100216500Y94551500D02*
G75*
G03X100216500Y94551500I-648500J0D01*
G01*
X100216500Y92011500D02*
G75*
G03X100216500Y92011500I-648500J0D01*
G01*
X100216500Y89471500D02*
G75*
G03X100216500Y89471500I-648500J0D01*
G01*
X100216500Y86931500D02*
G75*
G03X100216500Y86931500I-648500J0D01*
G01*
X100216500Y84391500D02*
G75*
G03X100216500Y84391500I-648500J0D01*
G01*
X100216500Y81851500D02*
G75*
G03X100216500Y81851500I-648500J0D01*
G01*
X100216500Y79311500D02*
G75*
G03X100216500Y79311500I-648500J0D01*
G01*
X100216500Y76771500D02*
G75*
G03X100216500Y76771500I-648500J0D01*
G01*
X100216500Y74231500D02*
G75*
G03X100216500Y74231500I-648500J0D01*
G01*
X100216500Y71691500D02*
G75*
G03X100216500Y71691500I-648500J0D01*
G01*
X69736500Y94551500D02*
G75*
G03X69736500Y94551500I-648500J0D01*
G01*
X69736500Y92011500D02*
G75*
G03X69736500Y92011500I-648500J0D01*
G01*
X69736500Y89471500D02*
G75*
G03X69736500Y89471500I-648500J0D01*
G01*
X69736500Y86931500D02*
G75*
G03X69736500Y86931500I-648500J0D01*
G01*
X69736500Y84391500D02*
G75*
G03X69736500Y84391500I-648500J0D01*
G01*
X69736500Y81851500D02*
G75*
G03X69736500Y81851500I-648500J0D01*
G01*
X69736500Y79311500D02*
G75*
G03X69736500Y79311500I-648500J0D01*
G01*
X69736500Y76771500D02*
G75*
G03X69736500Y76771500I-648500J0D01*
G01*
X69736500Y74231500D02*
G75*
G03X69736500Y74231500I-648500J0D01*
G01*
X69736500Y71691500D02*
G75*
G03X69736500Y71691500I-648500J0D01*
G01*
X69736500Y69151500D02*
G75*
G03X69736500Y69151500I-648500J0D01*
G01*
X69736500Y66611500D02*
G75*
G03X69736500Y66611500I-648500J0D01*
G01*
X68439500Y64720000D02*
X68439500Y63423000D01*
X69736500Y63423000D01*
X69736500Y64720000D01*
X68439500Y64720000D01*
X72276500Y94551500D02*
G75*
G03X72276500Y94551500I-648500J0D01*
G01*
X72276500Y92011500D02*
G75*
G03X72276500Y92011500I-648500J0D01*
G01*
X72276500Y89471500D02*
G75*
G03X72276500Y89471500I-648500J0D01*
G01*
X72276500Y86931500D02*
G75*
G03X72276500Y86931500I-648500J0D01*
G01*
X72276500Y84391500D02*
G75*
G03X72276500Y84391500I-648500J0D01*
G01*
X72276500Y81851500D02*
G75*
G03X72276500Y81851500I-648500J0D01*
G01*
X72276500Y79311500D02*
G75*
G03X72276500Y79311500I-648500J0D01*
G01*
X72276500Y76771500D02*
G75*
G03X72276500Y76771500I-648500J0D01*
G01*
X72276500Y74231500D02*
G75*
G03X72276500Y74231500I-648500J0D01*
G01*
X72276500Y71691500D02*
G75*
G03X72276500Y71691500I-648500J0D01*
G01*
X72276500Y69151500D02*
G75*
G03X72276500Y69151500I-648500J0D01*
G01*
X72276500Y66611500D02*
G75*
G03X72276500Y66611500I-648500J0D01*
G01*
X72276500Y64071500D02*
G75*
G03X72276500Y64071500I-648500J0D01*
G01*
X74816500Y94551500D02*
G75*
G03X74816500Y94551500I-648500J0D01*
G01*
X74816500Y92011500D02*
G75*
G03X74816500Y92011500I-648500J0D01*
G01*
X74816500Y89471500D02*
G75*
G03X74816500Y89471500I-648500J0D01*
G01*
X74816500Y86931500D02*
G75*
G03X74816500Y86931500I-648500J0D01*
G01*
X74816500Y84391500D02*
G75*
G03X74816500Y84391500I-648500J0D01*
G01*
X74816500Y81851500D02*
G75*
G03X74816500Y81851500I-648500J0D01*
G01*
X74816500Y79311500D02*
G75*
G03X74816500Y79311500I-648500J0D01*
G01*
X74816500Y76771500D02*
G75*
G03X74816500Y76771500I-648500J0D01*
G01*
X74816500Y74231500D02*
G75*
G03X74816500Y74231500I-648500J0D01*
G01*
X74816500Y71691500D02*
G75*
G03X74816500Y71691500I-648500J0D01*
G01*
X74816500Y69151500D02*
G75*
G03X74816500Y69151500I-648500J0D01*
G01*
X74816500Y66611500D02*
G75*
G03X74816500Y66611500I-648500J0D01*
G01*
X74816500Y64071500D02*
G75*
G03X74816500Y64071500I-648500J0D01*
G01*
X77356500Y69151500D02*
G75*
G03X77356500Y69151500I-648500J0D01*
G01*
X77356500Y66611500D02*
G75*
G03X77356500Y66611500I-648500J0D01*
G01*
X77356500Y64071500D02*
G75*
G03X77356500Y64071500I-648500J0D01*
G01*
X79896500Y69151500D02*
G75*
G03X79896500Y69151500I-648500J0D01*
G01*
X79896500Y66611500D02*
G75*
G03X79896500Y66611500I-648500J0D01*
G01*
X79896500Y64071500D02*
G75*
G03X79896500Y64071500I-648500J0D01*
G01*
X82436500Y69151500D02*
G75*
G03X82436500Y69151500I-648500J0D01*
G01*
X82436500Y66611500D02*
G75*
G03X82436500Y66611500I-648500J0D01*
G01*
X82436500Y64071500D02*
G75*
G03X82436500Y64071500I-648500J0D01*
G01*
X84976500Y69151500D02*
G75*
G03X84976500Y69151500I-648500J0D01*
G01*
X84976500Y66611500D02*
G75*
G03X84976500Y66611500I-648500J0D01*
G01*
X84976500Y64071500D02*
G75*
G03X84976500Y64071500I-648500J0D01*
G01*
X87516500Y69151500D02*
G75*
G03X87516500Y69151500I-648500J0D01*
G01*
X87516500Y66611500D02*
G75*
G03X87516500Y66611500I-648500J0D01*
G01*
X87516500Y64071500D02*
G75*
G03X87516500Y64071500I-648500J0D01*
G01*
X90056500Y69151500D02*
G75*
G03X90056500Y69151500I-648500J0D01*
G01*
X90056500Y66611500D02*
G75*
G03X90056500Y66611500I-648500J0D01*
G01*
X90056500Y64071500D02*
G75*
G03X90056500Y64071500I-648500J0D01*
G01*
X92596500Y69151500D02*
G75*
G03X92596500Y69151500I-648500J0D01*
G01*
X92596500Y66611500D02*
G75*
G03X92596500Y66611500I-648500J0D01*
G01*
X92596500Y64071500D02*
G75*
G03X92596500Y64071500I-648500J0D01*
G01*
X95136500Y69151500D02*
G75*
G03X95136500Y69151500I-648500J0D01*
G01*
X95136500Y66611500D02*
G75*
G03X95136500Y66611500I-648500J0D01*
G01*
X95136500Y64071500D02*
G75*
G03X95136500Y64071500I-648500J0D01*
G01*
X97676500Y69151500D02*
G75*
G03X97676500Y69151500I-648500J0D01*
G01*
X97676500Y66611500D02*
G75*
G03X97676500Y66611500I-648500J0D01*
G01*
X97676500Y64071500D02*
G75*
G03X97676500Y64071500I-648500J0D01*
G01*
X100216500Y69151500D02*
G75*
G03X100216500Y69151500I-648500J0D01*
G01*
X100216500Y66611500D02*
G75*
G03X100216500Y66611500I-648500J0D01*
G01*
X100216500Y64071500D02*
G75*
G03X100216500Y64071500I-648500J0D01*
G01*
X-595000Y219200000D02*
G75*
G03X-595000Y219200000I-1450000J0D01*
G01*
X2605570Y205740000D02*
G75*
G03X2605570Y205740000I-700570J0D01*
G01*
X3875570Y208280000D02*
G75*
G03X3875570Y208280000I-700570J0D01*
G01*
X5145570Y205740000D02*
G75*
G03X5145570Y205740000I-700570J0D01*
G01*
X6415570Y208280000D02*
G75*
G03X6415570Y208280000I-700570J0D01*
G01*
X7685570Y205740000D02*
G75*
G03X7685570Y205740000I-700570J0D01*
G01*
X8955570Y208280000D02*
G75*
G03X8955570Y208280000I-700570J0D01*
G01*
X10225570Y205740000D02*
G75*
G03X10225570Y205740000I-700570J0D01*
G01*
X10094430Y208980570D02*
X10094430Y207579430D01*
X11495570Y207579430D01*
X11495570Y208980570D01*
X10094430Y208980570D01*
X2450000Y214630000D02*
G75*
G03X2450000Y214630000I-1800000J0D01*
G01*
X27820000Y214630000D02*
G75*
G03X27820000Y214630000I-1800000J0D01*
G01*
X24064430Y208980570D02*
X24064430Y207579430D01*
X25465570Y207579430D01*
X25465570Y208980570D01*
X24064430Y208980570D01*
X24195570Y205740000D02*
G75*
G03X24195570Y205740000I-700570J0D01*
G01*
X22925570Y208280000D02*
G75*
G03X22925570Y208280000I-700570J0D01*
G01*
X21655570Y205740000D02*
G75*
G03X21655570Y205740000I-700570J0D01*
G01*
X20385570Y208280000D02*
G75*
G03X20385570Y208280000I-700570J0D01*
G01*
X19115570Y205740000D02*
G75*
G03X19115570Y205740000I-700570J0D01*
G01*
X17845570Y208280000D02*
G75*
G03X17845570Y208280000I-700570J0D01*
G01*
X16575570Y205740000D02*
G75*
G03X16575570Y205740000I-700570J0D01*
G01*
X30165000Y219200000D02*
G75*
G03X30165000Y219200000I-1450000J0D01*
G01*
D19*
X49291976Y89122619D02*
X49958642Y88122619D01*
X49958642Y89122619D02*
X49291976Y88122619D01*
X50863404Y88122619D02*
X50291976Y88122619D01*
X50577690Y88122619D02*
X50577690Y89122619D01*
X50482452Y88979761D01*
X50387214Y88884523D01*
X50291976Y88836904D01*
X72826642Y59428119D02*
X72493309Y59904309D01*
X72255214Y59428119D02*
X72255214Y60428119D01*
X72636166Y60428119D01*
X72731404Y60380500D01*
X72779023Y60332880D01*
X72826642Y60237642D01*
X72826642Y60094785D01*
X72779023Y59999547D01*
X72731404Y59951928D01*
X72636166Y59904309D01*
X72255214Y59904309D01*
X73159976Y60428119D02*
X73779023Y60428119D01*
X73445690Y60047166D01*
X73588547Y60047166D01*
X73683785Y59999547D01*
X73731404Y59951928D01*
X73779023Y59856690D01*
X73779023Y59618595D01*
X73731404Y59523357D01*
X73683785Y59475738D01*
X73588547Y59428119D01*
X73302833Y59428119D01*
X73207595Y59475738D01*
X73159976Y59523357D01*
X74683785Y60428119D02*
X74207595Y60428119D01*
X74159976Y59951928D01*
X74207595Y59999547D01*
X74302833Y60047166D01*
X74540928Y60047166D01*
X74636166Y59999547D01*
X74683785Y59951928D01*
X74731404Y59856690D01*
X74731404Y59618595D01*
X74683785Y59523357D01*
X74636166Y59475738D01*
X74540928Y59428119D01*
X74302833Y59428119D01*
X74207595Y59475738D01*
X74159976Y59523357D01*
D20*
X155466142Y101304880D02*
X155538714Y101280690D01*
X155659666Y101280690D01*
X155708047Y101304880D01*
X155732238Y101329071D01*
X155756428Y101377452D01*
X155756428Y101425833D01*
X155732238Y101474214D01*
X155708047Y101498404D01*
X155659666Y101522595D01*
X155562904Y101546785D01*
X155514523Y101570976D01*
X155490333Y101595166D01*
X155466142Y101643547D01*
X155466142Y101691928D01*
X155490333Y101740309D01*
X155514523Y101764500D01*
X155562904Y101788690D01*
X155683857Y101788690D01*
X155756428Y101764500D01*
X155974142Y101280690D02*
X155974142Y101788690D01*
X156095095Y101788690D01*
X156167666Y101764500D01*
X156216047Y101716119D01*
X156240238Y101667738D01*
X156264428Y101570976D01*
X156264428Y101498404D01*
X156240238Y101401642D01*
X156216047Y101353261D01*
X156167666Y101304880D01*
X156095095Y101280690D01*
X155974142Y101280690D01*
X156457952Y101425833D02*
X156699857Y101425833D01*
X156409571Y101280690D02*
X156578904Y101788690D01*
X156748238Y101280690D01*
X153192238Y101304880D02*
X153264809Y101280690D01*
X153385761Y101280690D01*
X153434142Y101304880D01*
X153458333Y101329071D01*
X153482523Y101377452D01*
X153482523Y101425833D01*
X153458333Y101474214D01*
X153434142Y101498404D01*
X153385761Y101522595D01*
X153289000Y101546785D01*
X153240619Y101570976D01*
X153216428Y101595166D01*
X153192238Y101643547D01*
X153192238Y101691928D01*
X153216428Y101740309D01*
X153240619Y101764500D01*
X153289000Y101788690D01*
X153409952Y101788690D01*
X153482523Y101764500D01*
X153990523Y101329071D02*
X153966333Y101304880D01*
X153893761Y101280690D01*
X153845380Y101280690D01*
X153772809Y101304880D01*
X153724428Y101353261D01*
X153700238Y101401642D01*
X153676047Y101498404D01*
X153676047Y101570976D01*
X153700238Y101667738D01*
X153724428Y101716119D01*
X153772809Y101764500D01*
X153845380Y101788690D01*
X153893761Y101788690D01*
X153966333Y101764500D01*
X153990523Y101740309D01*
X154450142Y101280690D02*
X154208238Y101280690D01*
X154208238Y101788690D01*
X59841190Y87374841D02*
X60349190Y87374841D01*
X60131476Y86913286D02*
X60204047Y86889096D01*
X60228238Y86864905D01*
X60252428Y86816524D01*
X60252428Y86743953D01*
X60228238Y86695572D01*
X60204047Y86671381D01*
X60155666Y86647191D01*
X59962142Y86647191D01*
X59962142Y87155191D01*
X60131476Y87155191D01*
X60179857Y87131001D01*
X60204047Y87106810D01*
X60228238Y87058429D01*
X60228238Y87010048D01*
X60204047Y86961667D01*
X60179857Y86937477D01*
X60131476Y86913286D01*
X59962142Y86913286D01*
X60349190Y87374841D02*
X60808809Y87374841D01*
X60470142Y86913286D02*
X60639476Y86913286D01*
X60712047Y86647191D02*
X60470142Y86647191D01*
X60470142Y87155191D01*
X60712047Y87155191D01*
X60808809Y87374841D02*
X61316809Y87374841D01*
X61220047Y86647191D02*
X61050714Y86889096D01*
X60929761Y86647191D02*
X60929761Y87155191D01*
X61123285Y87155191D01*
X61171666Y87131001D01*
X61195857Y87106810D01*
X61220047Y87058429D01*
X61220047Y86985858D01*
X61195857Y86937477D01*
X61171666Y86913286D01*
X61123285Y86889096D01*
X60929761Y86889096D01*
X61316809Y87374841D02*
X61824809Y87374841D01*
X61728047Y86647191D02*
X61558714Y86889096D01*
X61437761Y86647191D02*
X61437761Y87155191D01*
X61631285Y87155191D01*
X61679666Y87131001D01*
X61703857Y87106810D01*
X61728047Y87058429D01*
X61728047Y86985858D01*
X61703857Y86937477D01*
X61679666Y86913286D01*
X61631285Y86889096D01*
X61437761Y86889096D01*
X42599546Y118174341D02*
X43131737Y118174341D01*
X42720499Y117446691D02*
X42720499Y117954691D01*
X42720499Y117712786D02*
X43010784Y117712786D01*
X43010784Y117446691D02*
X43010784Y117954691D01*
X43131737Y118174341D02*
X43567165Y118174341D01*
X43228499Y117591834D02*
X43470403Y117591834D01*
X43180118Y117446691D02*
X43349451Y117954691D01*
X43518784Y117446691D01*
X43567165Y118174341D02*
X43978403Y118174341D01*
X43930022Y117446691D02*
X43688118Y117446691D01*
X43688118Y117954691D01*
X43978403Y118174341D02*
X44365451Y118174341D01*
X44026784Y117954691D02*
X44317070Y117954691D01*
X44171927Y117446691D02*
X44171927Y117954691D01*
X-22965833Y163349340D02*
X-22506214Y163349340D01*
X-22844880Y162887785D02*
X-22675547Y162887785D01*
X-22602976Y162621690D02*
X-22844880Y162621690D01*
X-22844880Y163129690D01*
X-22602976Y163129690D01*
X-22506214Y163349340D02*
X-22119166Y163349340D01*
X-22457833Y163129690D02*
X-22167547Y163129690D01*
X-22312690Y162621690D02*
X-22312690Y163129690D01*
X-22119166Y163349340D02*
X-21586976Y163349340D01*
X-21998214Y162621690D02*
X-21998214Y163129690D01*
X-21998214Y162887785D02*
X-21707928Y162887785D01*
X-21707928Y162621690D02*
X-21707928Y163129690D01*
X-21586976Y163349340D02*
X-21078976Y163349340D01*
X-21175738Y162670071D02*
X-21199928Y162645880D01*
X-21272500Y162621690D01*
X-21320880Y162621690D01*
X-21393452Y162645880D01*
X-21441833Y162694261D01*
X-21466023Y162742642D01*
X-21490214Y162839404D01*
X-21490214Y162911976D01*
X-21466023Y163008738D01*
X-21441833Y163057119D01*
X-21393452Y163105500D01*
X-21320880Y163129690D01*
X-21272500Y163129690D01*
X-21199928Y163105500D01*
X-21175738Y163081309D01*
X-21078976Y163349340D02*
X-20595166Y163349340D01*
X-20982214Y162645880D02*
X-20909642Y162621690D01*
X-20788690Y162621690D01*
X-20740309Y162645880D01*
X-20716119Y162670071D01*
X-20691928Y162718452D01*
X-20691928Y162766833D01*
X-20716119Y162815214D01*
X-20740309Y162839404D01*
X-20788690Y162863595D01*
X-20885452Y162887785D01*
X-20933833Y162911976D01*
X-20958023Y162936166D01*
X-20982214Y162984547D01*
X-20982214Y163032928D01*
X-20958023Y163081309D01*
X-20933833Y163105500D01*
X-20885452Y163129690D01*
X-20764500Y163129690D01*
X-20691928Y163105500D01*
X-2536976Y139118340D02*
X-2004785Y139118340D01*
X-2416023Y138898690D02*
X-2416023Y138487452D01*
X-2391833Y138439071D01*
X-2367642Y138414880D01*
X-2319261Y138390690D01*
X-2222500Y138390690D01*
X-2174119Y138414880D01*
X-2149928Y138439071D01*
X-2125738Y138487452D01*
X-2125738Y138898690D01*
X-2004785Y139118340D02*
X-1496785Y139118340D01*
X-1593547Y138390690D02*
X-1762880Y138632595D01*
X-1883833Y138390690D02*
X-1883833Y138898690D01*
X-1690309Y138898690D01*
X-1641928Y138874500D01*
X-1617738Y138850309D01*
X-1593547Y138801928D01*
X-1593547Y138729357D01*
X-1617738Y138680976D01*
X-1641928Y138656785D01*
X-1690309Y138632595D01*
X-1883833Y138632595D01*
X-1496785Y139118340D02*
X-964595Y139118340D01*
X-1279071Y138898690D02*
X-1182309Y138898690D01*
X-1133928Y138874500D01*
X-1085547Y138826119D01*
X-1061357Y138729357D01*
X-1061357Y138560023D01*
X-1085547Y138463261D01*
X-1133928Y138414880D01*
X-1182309Y138390690D01*
X-1279071Y138390690D01*
X-1327452Y138414880D01*
X-1375833Y138463261D01*
X-1400023Y138560023D01*
X-1400023Y138729357D01*
X-1375833Y138826119D01*
X-1327452Y138874500D01*
X-1279071Y138898690D01*
X-964595Y139118340D02*
X-384023Y139118340D01*
X-843642Y138390690D02*
X-843642Y138898690D01*
X-674309Y138535833D01*
X-504976Y138898690D01*
X-504976Y138390690D01*
X-21717000Y105844340D02*
X-21305761Y105844340D01*
X-21354142Y105116690D02*
X-21596047Y105116690D01*
X-21596047Y105624690D01*
X-21305761Y105844340D02*
X-20797761Y105844340D01*
X-20894523Y105116690D02*
X-21063857Y105358595D01*
X-21184809Y105116690D02*
X-21184809Y105624690D01*
X-20991285Y105624690D01*
X-20942904Y105600500D01*
X-20918714Y105576309D01*
X-20894523Y105527928D01*
X-20894523Y105455357D01*
X-20918714Y105406976D01*
X-20942904Y105382785D01*
X-20991285Y105358595D01*
X-21184809Y105358595D01*
X-20797761Y105844340D02*
X-20265571Y105844340D01*
X-20580047Y105624690D02*
X-20483285Y105624690D01*
X-20434904Y105600500D01*
X-20386523Y105552119D01*
X-20362333Y105455357D01*
X-20362333Y105286023D01*
X-20386523Y105189261D01*
X-20434904Y105140880D01*
X-20483285Y105116690D01*
X-20580047Y105116690D01*
X-20628428Y105140880D01*
X-20676809Y105189261D01*
X-20701000Y105286023D01*
X-20701000Y105455357D01*
X-20676809Y105552119D01*
X-20628428Y105600500D01*
X-20580047Y105624690D01*
X-20265571Y105844340D02*
X-19685000Y105844340D01*
X-20144619Y105116690D02*
X-20144619Y105624690D01*
X-19975285Y105261833D01*
X-19805952Y105624690D01*
X-19805952Y105116690D01*
X122071190Y124195840D02*
X122603380Y124195840D01*
X122192142Y123976190D02*
X122192142Y123564952D01*
X122216333Y123516571D01*
X122240523Y123492380D01*
X122288904Y123468190D01*
X122385666Y123468190D01*
X122434047Y123492380D01*
X122458238Y123516571D01*
X122482428Y123564952D01*
X122482428Y123976190D01*
X122603380Y124195840D02*
X123063000Y124195840D01*
X122724333Y123734285D02*
X122893666Y123734285D01*
X122966238Y123468190D02*
X122724333Y123468190D01*
X122724333Y123976190D01*
X122966238Y123976190D01*
X123063000Y124195840D02*
X123546809Y124195840D01*
X123135571Y123976190D02*
X123474238Y123468190D01*
X123474238Y123976190D02*
X123135571Y123468190D01*
X123546809Y124195840D02*
X124054809Y124195840D01*
X123667761Y123468190D02*
X123667761Y123976190D01*
X123861285Y123976190D01*
X123909666Y123952000D01*
X123933857Y123927809D01*
X123958047Y123879428D01*
X123958047Y123806857D01*
X123933857Y123758476D01*
X123909666Y123734285D01*
X123861285Y123710095D01*
X123667761Y123710095D01*
X133879166Y129148840D02*
X134290404Y129148840D01*
X134242023Y128421190D02*
X134000119Y128421190D01*
X134000119Y128929190D01*
X134290404Y129148840D02*
X134750023Y129148840D01*
X134411357Y128687285D02*
X134580690Y128687285D01*
X134653261Y128421190D02*
X134411357Y128421190D01*
X134411357Y128929190D01*
X134653261Y128929190D01*
X134750023Y129148840D02*
X135233833Y129148840D01*
X134822595Y128929190D02*
X135161261Y128421190D01*
X135161261Y128929190D02*
X134822595Y128421190D01*
X135233833Y129148840D02*
X135741833Y129148840D01*
X135354785Y128421190D02*
X135354785Y128929190D01*
X135548309Y128929190D01*
X135596690Y128905000D01*
X135620880Y128880809D01*
X135645071Y128832428D01*
X135645071Y128759857D01*
X135620880Y128711476D01*
X135596690Y128687285D01*
X135548309Y128663095D01*
X135354785Y128663095D01*
X51563094Y183955381D02*
X51635665Y183931191D01*
X51756618Y183931191D01*
X51804999Y183955381D01*
X51829189Y183979572D01*
X51853379Y184027953D01*
X51853379Y184076334D01*
X51829189Y184124715D01*
X51804999Y184148905D01*
X51756618Y184173096D01*
X51659856Y184197286D01*
X51611475Y184221477D01*
X51587284Y184245667D01*
X51563094Y184294048D01*
X51563094Y184342429D01*
X51587284Y184390810D01*
X51611475Y184415001D01*
X51659856Y184439191D01*
X51780808Y184439191D01*
X51853379Y184415001D01*
X52167856Y184173096D02*
X52167856Y183931191D01*
X51998522Y184439191D02*
X52167856Y184173096D01*
X52337189Y184439191D01*
X52482332Y183955381D02*
X52554903Y183931191D01*
X52675856Y183931191D01*
X52724237Y183955381D01*
X52748427Y183979572D01*
X52772618Y184027953D01*
X52772618Y184076334D01*
X52748427Y184124715D01*
X52724237Y184148905D01*
X52675856Y184173096D01*
X52579094Y184197286D01*
X52530713Y184221477D01*
X52506522Y184245667D01*
X52482332Y184294048D01*
X52482332Y184342429D01*
X52506522Y184390810D01*
X52530713Y184415001D01*
X52579094Y184439191D01*
X52700046Y184439191D01*
X52772618Y184415001D01*
X53280618Y183979572D02*
X53256427Y183955381D01*
X53183856Y183931191D01*
X53135475Y183931191D01*
X53062903Y183955381D01*
X53014522Y184003762D01*
X52990332Y184052143D01*
X52966141Y184148905D01*
X52966141Y184221477D01*
X52990332Y184318239D01*
X53014522Y184366620D01*
X53062903Y184415001D01*
X53135475Y184439191D01*
X53183856Y184439191D01*
X53256427Y184415001D01*
X53280618Y184390810D01*
X53740237Y183931191D02*
X53498332Y183931191D01*
X53498332Y184439191D01*
X53909570Y184197286D02*
X54078903Y184197286D01*
X54151475Y183931191D02*
X53909570Y183931191D01*
X53909570Y184439191D01*
X54151475Y184439191D01*
X54344999Y184076334D02*
X54586903Y184076334D01*
X54296618Y183931191D02*
X54465951Y184439191D01*
X54635284Y183931191D01*
X55094903Y183931191D02*
X54925570Y184173096D01*
X54804618Y183931191D02*
X54804618Y184439191D01*
X54998141Y184439191D01*
X55046522Y184415001D01*
X55070713Y184390810D01*
X55094903Y184342429D01*
X55094903Y184269858D01*
X55070713Y184221477D01*
X55046522Y184197286D01*
X54998141Y184173096D01*
X54804618Y184173096D01*
X2231571Y123370340D02*
X2715380Y123370340D01*
X2328333Y122666880D02*
X2400904Y122642690D01*
X2521857Y122642690D01*
X2570238Y122666880D01*
X2594428Y122691071D01*
X2618619Y122739452D01*
X2618619Y122787833D01*
X2594428Y122836214D01*
X2570238Y122860404D01*
X2521857Y122884595D01*
X2425095Y122908785D01*
X2376714Y122932976D01*
X2352523Y122957166D01*
X2328333Y123005547D01*
X2328333Y123053928D01*
X2352523Y123102309D01*
X2376714Y123126500D01*
X2425095Y123150690D01*
X2546047Y123150690D01*
X2618619Y123126500D01*
X2715380Y123370340D02*
X2957285Y123370340D01*
X2836333Y122642690D02*
X2836333Y123150690D01*
X2957285Y123370340D02*
X3537857Y123370340D01*
X3078238Y122642690D02*
X3078238Y123150690D01*
X3247571Y122787833D01*
X3416904Y123150690D01*
X3416904Y122642690D01*
X3537857Y123370340D02*
X4118428Y123370340D01*
X3658809Y122642690D02*
X3658809Y123150690D01*
X3828142Y122787833D01*
X3997476Y123150690D01*
X3997476Y122642690D01*
X-35182023Y80634840D02*
X-34698214Y80634840D01*
X-35085261Y79931380D02*
X-35012690Y79907190D01*
X-34891738Y79907190D01*
X-34843357Y79931380D01*
X-34819166Y79955571D01*
X-34794976Y80003952D01*
X-34794976Y80052333D01*
X-34819166Y80100714D01*
X-34843357Y80124904D01*
X-34891738Y80149095D01*
X-34988500Y80173285D01*
X-35036880Y80197476D01*
X-35061071Y80221666D01*
X-35085261Y80270047D01*
X-35085261Y80318428D01*
X-35061071Y80366809D01*
X-35036880Y80391000D01*
X-34988500Y80415190D01*
X-34867547Y80415190D01*
X-34794976Y80391000D01*
X-34698214Y80634840D02*
X-34456309Y80634840D01*
X-34577261Y79907190D02*
X-34577261Y80415190D01*
X-34456309Y80634840D02*
X-33875738Y80634840D01*
X-34335357Y79907190D02*
X-34335357Y80415190D01*
X-34166023Y80052333D01*
X-33996690Y80415190D01*
X-33996690Y79907190D01*
X-33875738Y80634840D02*
X-33295166Y80634840D01*
X-33754785Y79907190D02*
X-33754785Y80415190D01*
X-33585452Y80052333D01*
X-33416119Y80415190D01*
X-33416119Y79907190D01*
X-33295166Y80634840D02*
X-32714595Y80634840D01*
X-33222595Y80415190D02*
X-33101642Y79907190D01*
X-33004880Y80270047D01*
X-32908119Y79907190D01*
X-32787166Y80415190D01*
X-32714595Y80634840D02*
X-32254976Y80634840D01*
X-32593642Y80173285D02*
X-32424309Y80173285D01*
X-32351738Y79907190D02*
X-32593642Y79907190D01*
X-32593642Y80415190D01*
X-32351738Y80415190D01*
X-11179023Y82169841D02*
X-10671023Y82169841D01*
X-10767785Y81490572D02*
X-10791976Y81466381D01*
X-10864547Y81442191D01*
X-10912928Y81442191D01*
X-10985500Y81466381D01*
X-11033880Y81514762D01*
X-11058071Y81563143D01*
X-11082261Y81659905D01*
X-11082261Y81732477D01*
X-11058071Y81829239D01*
X-11033880Y81877620D01*
X-10985500Y81926001D01*
X-10912928Y81950191D01*
X-10864547Y81950191D01*
X-10791976Y81926001D01*
X-10767785Y81901810D01*
X-10671023Y82169841D02*
X-10235595Y82169841D01*
X-10574261Y81587334D02*
X-10332357Y81587334D01*
X-10622642Y81442191D02*
X-10453309Y81950191D01*
X-10283976Y81442191D01*
X-10235595Y82169841D02*
X-9751785Y82169841D01*
X-10138833Y81466381D02*
X-10066261Y81442191D01*
X-9945309Y81442191D01*
X-9896928Y81466381D01*
X-9872738Y81490572D01*
X-9848547Y81538953D01*
X-9848547Y81587334D01*
X-9872738Y81635715D01*
X-9896928Y81659905D01*
X-9945309Y81684096D01*
X-10042071Y81708286D01*
X-10090452Y81732477D01*
X-10114642Y81756667D01*
X-10138833Y81805048D01*
X-10138833Y81853429D01*
X-10114642Y81901810D01*
X-10090452Y81926001D01*
X-10042071Y81950191D01*
X-9921119Y81950191D01*
X-9848547Y81926001D01*
X-9751785Y82169841D02*
X-9267976Y82169841D01*
X-9534071Y81950191D02*
X-9485690Y81950191D01*
X-9437309Y81926001D01*
X-9413119Y81901810D01*
X-9388928Y81853429D01*
X-9364738Y81756667D01*
X-9364738Y81635715D01*
X-9388928Y81538953D01*
X-9413119Y81490572D01*
X-9437309Y81466381D01*
X-9485690Y81442191D01*
X-9534071Y81442191D01*
X-9582452Y81466381D01*
X-9606642Y81490572D01*
X-9630833Y81538953D01*
X-9655023Y81635715D01*
X-9655023Y81756667D01*
X-9630833Y81853429D01*
X-9606642Y81901810D01*
X-9582452Y81926001D01*
X-9534071Y81950191D01*
X-17438239Y81723341D02*
X-16930239Y81723341D01*
X-17027001Y80995691D02*
X-17196334Y81237596D01*
X-17317286Y80995691D02*
X-17317286Y81503691D01*
X-17123762Y81503691D01*
X-17075381Y81479501D01*
X-17051191Y81455310D01*
X-17027001Y81406929D01*
X-17027001Y81334358D01*
X-17051191Y81285977D01*
X-17075381Y81261786D01*
X-17123762Y81237596D01*
X-17317286Y81237596D01*
X-16930239Y81723341D02*
X-16494810Y81723341D01*
X-16833477Y81140834D02*
X-16591572Y81140834D01*
X-16881858Y80995691D02*
X-16712524Y81503691D01*
X-16543191Y80995691D01*
X-16494810Y81723341D02*
X-16011001Y81723341D01*
X-16398048Y81019881D02*
X-16325477Y80995691D01*
X-16204524Y80995691D01*
X-16156143Y81019881D01*
X-16131953Y81044072D01*
X-16107762Y81092453D01*
X-16107762Y81140834D01*
X-16131953Y81189215D01*
X-16156143Y81213405D01*
X-16204524Y81237596D01*
X-16301286Y81261786D01*
X-16349667Y81285977D01*
X-16373858Y81310167D01*
X-16398048Y81358548D01*
X-16398048Y81406929D01*
X-16373858Y81455310D01*
X-16349667Y81479501D01*
X-16301286Y81503691D01*
X-16180334Y81503691D01*
X-16107762Y81479501D01*
X-16011001Y81723341D02*
X-15575572Y81723341D01*
X-15914239Y81140834D02*
X-15672334Y81140834D01*
X-15962620Y80995691D02*
X-15793286Y81503691D01*
X-15623953Y80995691D01*
X-15575572Y81723341D02*
X-15091762Y81723341D01*
X-15357858Y81503691D02*
X-15309477Y81503691D01*
X-15261096Y81479501D01*
X-15236905Y81455310D01*
X-15212715Y81406929D01*
X-15188524Y81310167D01*
X-15188524Y81189215D01*
X-15212715Y81092453D01*
X-15236905Y81044072D01*
X-15261096Y81019881D01*
X-15309477Y80995691D01*
X-15357858Y80995691D01*
X-15406239Y81019881D01*
X-15430429Y81044072D01*
X-15454620Y81092453D01*
X-15478810Y81189215D01*
X-15478810Y81310167D01*
X-15454620Y81406929D01*
X-15430429Y81455310D01*
X-15406239Y81479501D01*
X-15357858Y81503691D01*
X44380452Y159946340D02*
X44888452Y159946340D01*
X44791690Y159218690D02*
X44622357Y159460595D01*
X44501404Y159218690D02*
X44501404Y159726690D01*
X44694928Y159726690D01*
X44743309Y159702500D01*
X44767500Y159678309D01*
X44791690Y159629928D01*
X44791690Y159557357D01*
X44767500Y159508976D01*
X44743309Y159484785D01*
X44694928Y159460595D01*
X44501404Y159460595D01*
X44888452Y159946340D02*
X45348071Y159946340D01*
X45009404Y159484785D02*
X45178738Y159484785D01*
X45251309Y159218690D02*
X45009404Y159218690D01*
X45009404Y159726690D01*
X45251309Y159726690D01*
X45348071Y159946340D02*
X45831880Y159946340D01*
X45444833Y159242880D02*
X45517404Y159218690D01*
X45638357Y159218690D01*
X45686738Y159242880D01*
X45710928Y159267071D01*
X45735119Y159315452D01*
X45735119Y159363833D01*
X45710928Y159412214D01*
X45686738Y159436404D01*
X45638357Y159460595D01*
X45541595Y159484785D01*
X45493214Y159508976D01*
X45469023Y159533166D01*
X45444833Y159581547D01*
X45444833Y159629928D01*
X45469023Y159678309D01*
X45493214Y159702500D01*
X45541595Y159726690D01*
X45662547Y159726690D01*
X45735119Y159702500D01*
X45831880Y159946340D02*
X46291500Y159946340D01*
X45952833Y159484785D02*
X46122166Y159484785D01*
X46194738Y159218690D02*
X45952833Y159218690D01*
X45952833Y159726690D01*
X46194738Y159726690D01*
X46291500Y159946340D02*
X46678547Y159946340D01*
X46339880Y159726690D02*
X46630166Y159726690D01*
X46485023Y159218690D02*
X46485023Y159726690D01*
X46983952Y92797690D02*
X46983952Y93305690D01*
X47153285Y92942833D01*
X47322619Y93305690D01*
X47322619Y92797690D01*
X47564523Y92797690D02*
X47564523Y93305690D01*
X47758047Y93305690D01*
X47806428Y93281500D01*
X47830619Y93257309D01*
X47854809Y93208928D01*
X47854809Y93136357D01*
X47830619Y93087976D01*
X47806428Y93063785D01*
X47758047Y93039595D01*
X47564523Y93039595D01*
X48072523Y93305690D02*
X48072523Y92894452D01*
X48096714Y92846071D01*
X48120904Y92821880D01*
X48169285Y92797690D01*
X48266047Y92797690D01*
X48314428Y92821880D01*
X48338619Y92846071D01*
X48362809Y92894452D01*
X48362809Y93305690D01*
X48895000Y92846071D02*
X48870809Y92821880D01*
X48798238Y92797690D01*
X48749857Y92797690D01*
X48677285Y92821880D01*
X48628904Y92870261D01*
X48604714Y92918642D01*
X48580523Y93015404D01*
X48580523Y93087976D01*
X48604714Y93184738D01*
X48628904Y93233119D01*
X48677285Y93281500D01*
X48749857Y93305690D01*
X48798238Y93305690D01*
X48870809Y93281500D01*
X48895000Y93257309D01*
X49354619Y92797690D02*
X49112714Y92797690D01*
X49112714Y93305690D01*
X49523952Y92797690D02*
X49523952Y93305690D01*
X49814238Y92797690D02*
X49596523Y93087976D01*
X49814238Y93305690D02*
X49523952Y93015404D01*
D19*
X-4063904Y80240119D02*
X-4063904Y79430595D01*
X-4016285Y79335357D01*
X-3968666Y79287738D01*
X-3873428Y79240119D01*
X-3682952Y79240119D01*
X-3587714Y79287738D01*
X-3540095Y79335357D01*
X-3492476Y79430595D01*
X-3492476Y80240119D01*
X-2968666Y79240119D02*
X-2778190Y79240119D01*
X-2682952Y79287738D01*
X-2635333Y79335357D01*
X-2540095Y79478214D01*
X-2492476Y79668690D01*
X-2492476Y80049642D01*
X-2540095Y80144880D01*
X-2587714Y80192500D01*
X-2682952Y80240119D01*
X-2873428Y80240119D01*
X-2968666Y80192500D01*
X-3016285Y80144880D01*
X-3063904Y80049642D01*
X-3063904Y79811547D01*
X-3016285Y79716309D01*
X-2968666Y79668690D01*
X-2873428Y79621071D01*
X-2682952Y79621071D01*
X-2587714Y79668690D01*
X-2540095Y79716309D01*
X-2492476Y79811547D01*
D11*
X47425428Y71216761D02*
X46554571Y71216761D01*
X46990000Y71216761D02*
X46990000Y73248761D01*
X46844857Y72958476D01*
X46699714Y72764952D01*
X46554571Y72668190D01*
D19*
X-56697619Y200998333D02*
X-56697619Y200522142D01*
X-57697619Y200522142D01*
X-56697619Y201855476D02*
X-56697619Y201284047D01*
X-56697619Y201569761D02*
X-57697619Y201569761D01*
X-57554761Y201474523D01*
X-57459523Y201379285D01*
X-57411904Y201284047D01*
X-59062857Y188237857D02*
X-59110476Y188190238D01*
X-59253333Y188142619D01*
X-59348571Y188142619D01*
X-59491428Y188190238D01*
X-59586666Y188285476D01*
X-59634285Y188380714D01*
X-59681904Y188571190D01*
X-59681904Y188714047D01*
X-59634285Y188904523D01*
X-59586666Y188999761D01*
X-59491428Y189095000D01*
X-59348571Y189142619D01*
X-59253333Y189142619D01*
X-59110476Y189095000D01*
X-59062857Y189047380D01*
X-58491428Y188714047D02*
X-58586666Y188761666D01*
X-58634285Y188809285D01*
X-58681904Y188904523D01*
X-58681904Y188952142D01*
X-58634285Y189047380D01*
X-58586666Y189095000D01*
X-58491428Y189142619D01*
X-58300952Y189142619D01*
X-58205714Y189095000D01*
X-58158095Y189047380D01*
X-58110476Y188952142D01*
X-58110476Y188904523D01*
X-58158095Y188809285D01*
X-58205714Y188761666D01*
X-58300952Y188714047D01*
X-58491428Y188714047D01*
X-58586666Y188666428D01*
X-58634285Y188618809D01*
X-58681904Y188523571D01*
X-58681904Y188333095D01*
X-58634285Y188237857D01*
X-58586666Y188190238D01*
X-58491428Y188142619D01*
X-58300952Y188142619D01*
X-58205714Y188190238D01*
X-58158095Y188237857D01*
X-58110476Y188333095D01*
X-58110476Y188523571D01*
X-58158095Y188618809D01*
X-58205714Y188666428D01*
X-58300952Y188714047D01*
X-57491428Y189142619D02*
X-57396190Y189142619D01*
X-57300952Y189095000D01*
X-57253333Y189047380D01*
X-57205714Y188952142D01*
X-57158095Y188761666D01*
X-57158095Y188523571D01*
X-57205714Y188333095D01*
X-57253333Y188237857D01*
X-57300952Y188190238D01*
X-57396190Y188142619D01*
X-57491428Y188142619D01*
X-57586666Y188190238D01*
X-57634285Y188237857D01*
X-57681904Y188333095D01*
X-57729523Y188523571D01*
X-57729523Y188761666D01*
X-57681904Y188952142D01*
X-57634285Y189047380D01*
X-57586666Y189095000D01*
X-57491428Y189142619D01*
X-50172857Y197127857D02*
X-50220476Y197080238D01*
X-50363333Y197032619D01*
X-50458571Y197032619D01*
X-50601428Y197080238D01*
X-50696666Y197175476D01*
X-50744285Y197270714D01*
X-50791904Y197461190D01*
X-50791904Y197604047D01*
X-50744285Y197794523D01*
X-50696666Y197889761D01*
X-50601428Y197985000D01*
X-50458571Y198032619D01*
X-50363333Y198032619D01*
X-50220476Y197985000D01*
X-50172857Y197937380D01*
X-49839523Y198032619D02*
X-49172857Y198032619D01*
X-49601428Y197032619D01*
X-48744285Y197032619D02*
X-48553809Y197032619D01*
X-48458571Y197080238D01*
X-48410952Y197127857D01*
X-48315714Y197270714D01*
X-48268095Y197461190D01*
X-48268095Y197842142D01*
X-48315714Y197937380D01*
X-48363333Y197985000D01*
X-48458571Y198032619D01*
X-48649047Y198032619D01*
X-48744285Y197985000D01*
X-48791904Y197937380D01*
X-48839523Y197842142D01*
X-48839523Y197604047D01*
X-48791904Y197508809D01*
X-48744285Y197461190D01*
X-48649047Y197413571D01*
X-48458571Y197413571D01*
X-48363333Y197461190D01*
X-48315714Y197508809D01*
X-48268095Y197604047D01*
X-8823333Y206032619D02*
X-8823333Y205318333D01*
X-8870952Y205175476D01*
X-8966190Y205080238D01*
X-9109047Y205032619D01*
X-9204285Y205032619D01*
X-7823333Y205032619D02*
X-8394761Y205032619D01*
X-8109047Y205032619D02*
X-8109047Y206032619D01*
X-8204285Y205889761D01*
X-8299523Y205794523D01*
X-8394761Y205746904D01*
X38766904Y109767619D02*
X38766904Y108958095D01*
X38814523Y108862857D01*
X38862142Y108815238D01*
X38957380Y108767619D01*
X39147857Y108767619D01*
X39243095Y108815238D01*
X39290714Y108862857D01*
X39338333Y108958095D01*
X39338333Y109767619D01*
X39719285Y109767619D02*
X40338333Y109767619D01*
X40005000Y109386666D01*
X40147857Y109386666D01*
X40243095Y109339047D01*
X40290714Y109291428D01*
X40338333Y109196190D01*
X40338333Y108958095D01*
X40290714Y108862857D01*
X40243095Y108815238D01*
X40147857Y108767619D01*
X39862142Y108767619D01*
X39766904Y108815238D01*
X39719285Y108862857D01*
X41243095Y109767619D02*
X40766904Y109767619D01*
X40719285Y109291428D01*
X40766904Y109339047D01*
X40862142Y109386666D01*
X41100238Y109386666D01*
X41195476Y109339047D01*
X41243095Y109291428D01*
X41290714Y109196190D01*
X41290714Y108958095D01*
X41243095Y108862857D01*
X41195476Y108815238D01*
X41100238Y108767619D01*
X40862142Y108767619D01*
X40766904Y108815238D01*
X40719285Y108862857D01*
X-2547857Y200842619D02*
X-2881190Y201318809D01*
X-3119285Y200842619D02*
X-3119285Y201842619D01*
X-2738333Y201842619D01*
X-2643095Y201795000D01*
X-2595476Y201747380D01*
X-2547857Y201652142D01*
X-2547857Y201509285D01*
X-2595476Y201414047D01*
X-2643095Y201366428D01*
X-2738333Y201318809D01*
X-3119285Y201318809D01*
X-2214523Y201842619D02*
X-1595476Y201842619D01*
X-1928809Y201461666D01*
X-1785952Y201461666D01*
X-1690714Y201414047D01*
X-1643095Y201366428D01*
X-1595476Y201271190D01*
X-1595476Y201033095D01*
X-1643095Y200937857D01*
X-1690714Y200890238D01*
X-1785952Y200842619D01*
X-2071666Y200842619D01*
X-2166904Y200890238D01*
X-2214523Y200937857D01*
X-738333Y201509285D02*
X-738333Y200842619D01*
X-976428Y201890238D02*
X-1214523Y201175952D01*
X-595476Y201175952D01*
X29799642Y198156285D02*
X29545642Y198519142D01*
X29364214Y198156285D02*
X29364214Y198918285D01*
X29654500Y198918285D01*
X29727071Y198882000D01*
X29763357Y198845714D01*
X29799642Y198773142D01*
X29799642Y198664285D01*
X29763357Y198591714D01*
X29727071Y198555428D01*
X29654500Y198519142D01*
X29364214Y198519142D01*
X30053642Y198918285D02*
X30525357Y198918285D01*
X30271357Y198628000D01*
X30380214Y198628000D01*
X30452785Y198591714D01*
X30489071Y198555428D01*
X30525357Y198482857D01*
X30525357Y198301428D01*
X30489071Y198228857D01*
X30452785Y198192571D01*
X30380214Y198156285D01*
X30162500Y198156285D01*
X30089928Y198192571D01*
X30053642Y198228857D01*
X30779357Y198918285D02*
X31251071Y198918285D01*
X30997071Y198628000D01*
X31105928Y198628000D01*
X31178500Y198591714D01*
X31214785Y198555428D01*
X31251071Y198482857D01*
X31251071Y198301428D01*
X31214785Y198228857D01*
X31178500Y198192571D01*
X31105928Y198156285D01*
X30888214Y198156285D01*
X30815642Y198192571D01*
X30779357Y198228857D01*
X27259642Y198156285D02*
X27005642Y198519142D01*
X26824214Y198156285D02*
X26824214Y198918285D01*
X27114500Y198918285D01*
X27187071Y198882000D01*
X27223357Y198845714D01*
X27259642Y198773142D01*
X27259642Y198664285D01*
X27223357Y198591714D01*
X27187071Y198555428D01*
X27114500Y198519142D01*
X26824214Y198519142D01*
X27513642Y198918285D02*
X27985357Y198918285D01*
X27731357Y198628000D01*
X27840214Y198628000D01*
X27912785Y198591714D01*
X27949071Y198555428D01*
X27985357Y198482857D01*
X27985357Y198301428D01*
X27949071Y198228857D01*
X27912785Y198192571D01*
X27840214Y198156285D01*
X27622500Y198156285D01*
X27549928Y198192571D01*
X27513642Y198228857D01*
X28275642Y198845714D02*
X28311928Y198882000D01*
X28384500Y198918285D01*
X28565928Y198918285D01*
X28638500Y198882000D01*
X28674785Y198845714D01*
X28711071Y198773142D01*
X28711071Y198700571D01*
X28674785Y198591714D01*
X28239357Y198156285D01*
X28711071Y198156285D01*
X24846642Y198156285D02*
X24592642Y198519142D01*
X24411214Y198156285D02*
X24411214Y198918285D01*
X24701500Y198918285D01*
X24774071Y198882000D01*
X24810357Y198845714D01*
X24846642Y198773142D01*
X24846642Y198664285D01*
X24810357Y198591714D01*
X24774071Y198555428D01*
X24701500Y198519142D01*
X24411214Y198519142D01*
X25100642Y198918285D02*
X25572357Y198918285D01*
X25318357Y198628000D01*
X25427214Y198628000D01*
X25499785Y198591714D01*
X25536071Y198555428D01*
X25572357Y198482857D01*
X25572357Y198301428D01*
X25536071Y198228857D01*
X25499785Y198192571D01*
X25427214Y198156285D01*
X25209500Y198156285D01*
X25136928Y198192571D01*
X25100642Y198228857D01*
X26298071Y198156285D02*
X25862642Y198156285D01*
X26080357Y198156285D02*
X26080357Y198918285D01*
X26007785Y198809428D01*
X25935214Y198736857D01*
X25862642Y198700571D01*
X22433642Y198156285D02*
X22179642Y198519142D01*
X21998214Y198156285D02*
X21998214Y198918285D01*
X22288500Y198918285D01*
X22361071Y198882000D01*
X22397357Y198845714D01*
X22433642Y198773142D01*
X22433642Y198664285D01*
X22397357Y198591714D01*
X22361071Y198555428D01*
X22288500Y198519142D01*
X21998214Y198519142D01*
X22687642Y198918285D02*
X23159357Y198918285D01*
X22905357Y198628000D01*
X23014214Y198628000D01*
X23086785Y198591714D01*
X23123071Y198555428D01*
X23159357Y198482857D01*
X23159357Y198301428D01*
X23123071Y198228857D01*
X23086785Y198192571D01*
X23014214Y198156285D01*
X22796500Y198156285D01*
X22723928Y198192571D01*
X22687642Y198228857D01*
X23631071Y198918285D02*
X23703642Y198918285D01*
X23776214Y198882000D01*
X23812500Y198845714D01*
X23848785Y198773142D01*
X23885071Y198628000D01*
X23885071Y198446571D01*
X23848785Y198301428D01*
X23812500Y198228857D01*
X23776214Y198192571D01*
X23703642Y198156285D01*
X23631071Y198156285D01*
X23558500Y198192571D01*
X23522214Y198228857D01*
X23485928Y198301428D01*
X23449642Y198446571D01*
X23449642Y198628000D01*
X23485928Y198773142D01*
X23522214Y198845714D01*
X23558500Y198882000D01*
X23631071Y198918285D01*
X50419095Y185967619D02*
X50419095Y185158095D01*
X50466714Y185062857D01*
X50514333Y185015238D01*
X50609571Y184967619D01*
X50800047Y184967619D01*
X50895285Y185015238D01*
X50942904Y185062857D01*
X50990523Y185158095D01*
X50990523Y185967619D01*
X51990523Y184967619D02*
X51419095Y184967619D01*
X51704809Y184967619D02*
X51704809Y185967619D01*
X51609571Y185824761D01*
X51514333Y185729523D01*
X51419095Y185681904D01*
X-59880476Y165647619D02*
X-60356666Y165647619D01*
X-60404285Y165171428D01*
X-60356666Y165219047D01*
X-60261428Y165266666D01*
X-60023333Y165266666D01*
X-59928095Y165219047D01*
X-59880476Y165171428D01*
X-59832857Y165076190D01*
X-59832857Y164838095D01*
X-59880476Y164742857D01*
X-59928095Y164695238D01*
X-60023333Y164647619D01*
X-60261428Y164647619D01*
X-60356666Y164695238D01*
X-60404285Y164742857D01*
X-59547142Y165647619D02*
X-59213809Y164647619D01*
X-58880476Y165647619D01*
X-65666857Y170203857D02*
X-65714476Y170156238D01*
X-65857333Y170108619D01*
X-65952571Y170108619D01*
X-66095428Y170156238D01*
X-66190666Y170251476D01*
X-66238285Y170346714D01*
X-66285904Y170537190D01*
X-66285904Y170680047D01*
X-66238285Y170870523D01*
X-66190666Y170965761D01*
X-66095428Y171061000D01*
X-65952571Y171108619D01*
X-65857333Y171108619D01*
X-65714476Y171061000D01*
X-65666857Y171013380D01*
X-64809714Y170775285D02*
X-64809714Y170108619D01*
X-65047809Y171156238D02*
X-65285904Y170441952D01*
X-64666857Y170441952D01*
X-63762095Y170108619D02*
X-64333523Y170108619D01*
X-64047809Y170108619D02*
X-64047809Y171108619D01*
X-64143047Y170965761D01*
X-64238285Y170870523D01*
X-64333523Y170822904D01*
X-58110357Y170838857D02*
X-58157976Y170791238D01*
X-58300833Y170743619D01*
X-58396071Y170743619D01*
X-58538928Y170791238D01*
X-58634166Y170886476D01*
X-58681785Y170981714D01*
X-58729404Y171172190D01*
X-58729404Y171315047D01*
X-58681785Y171505523D01*
X-58634166Y171600761D01*
X-58538928Y171696000D01*
X-58396071Y171743619D01*
X-58300833Y171743619D01*
X-58157976Y171696000D01*
X-58110357Y171648380D01*
X-57253214Y171410285D02*
X-57253214Y170743619D01*
X-57491309Y171791238D02*
X-57729404Y171076952D01*
X-57110357Y171076952D01*
X-56777023Y171648380D02*
X-56729404Y171696000D01*
X-56634166Y171743619D01*
X-56396071Y171743619D01*
X-56300833Y171696000D01*
X-56253214Y171648380D01*
X-56205595Y171553142D01*
X-56205595Y171457904D01*
X-56253214Y171315047D01*
X-56824642Y170743619D01*
X-56205595Y170743619D01*
X-16557523Y141835119D02*
X-16557523Y141120833D01*
X-16605142Y140977976D01*
X-16700380Y140882738D01*
X-16843238Y140835119D01*
X-16938476Y140835119D01*
X-15557523Y140835119D02*
X-16128952Y140835119D01*
X-15843238Y140835119D02*
X-15843238Y141835119D01*
X-15938476Y141692261D01*
X-16033714Y141597023D01*
X-16128952Y141549404D01*
X-15176571Y141739880D02*
X-15128952Y141787500D01*
X-15033714Y141835119D01*
X-14795619Y141835119D01*
X-14700380Y141787500D01*
X-14652761Y141739880D01*
X-14605142Y141644642D01*
X-14605142Y141549404D01*
X-14652761Y141406547D01*
X-15224190Y140835119D01*
X-14605142Y140835119D01*
X70151666Y223037619D02*
X70151666Y222323333D01*
X70104047Y222180476D01*
X70008809Y222085238D01*
X69865952Y222037619D01*
X69770714Y222037619D01*
X70532619Y223037619D02*
X71199285Y223037619D01*
X70770714Y222037619D01*
X-4159095Y59983619D02*
X-4159095Y59174095D01*
X-4111476Y59078857D01*
X-4063857Y59031238D01*
X-3968619Y58983619D01*
X-3778142Y58983619D01*
X-3682904Y59031238D01*
X-3635285Y59078857D01*
X-3587666Y59174095D01*
X-3587666Y59983619D01*
X-2587666Y58983619D02*
X-3159095Y58983619D01*
X-2873380Y58983619D02*
X-2873380Y59983619D01*
X-2968619Y59840761D01*
X-3063857Y59745523D01*
X-3159095Y59697904D01*
X-1968619Y59983619D02*
X-1873380Y59983619D01*
X-1778142Y59936000D01*
X-1730523Y59888380D01*
X-1682904Y59793142D01*
X-1635285Y59602666D01*
X-1635285Y59364571D01*
X-1682904Y59174095D01*
X-1730523Y59078857D01*
X-1778142Y59031238D01*
X-1873380Y58983619D01*
X-1968619Y58983619D01*
X-2063857Y59031238D01*
X-2111476Y59078857D01*
X-2159095Y59174095D01*
X-2206714Y59364571D01*
X-2206714Y59602666D01*
X-2159095Y59793142D01*
X-2111476Y59888380D01*
X-2063857Y59936000D01*
X-1968619Y59983619D01*
D11*
X47425428Y61056761D02*
X46554571Y61056761D01*
X46990000Y61056761D02*
X46990000Y63088761D01*
X46844857Y62798476D01*
X46699714Y62604952D01*
X46554571Y62508190D01*
D19*
X145875476Y223037619D02*
X145875476Y222323333D01*
X145827857Y222180476D01*
X145732619Y222085238D01*
X145589761Y222037619D01*
X145494523Y222037619D01*
X146875476Y222037619D02*
X146304047Y222037619D01*
X146589761Y222037619D02*
X146589761Y223037619D01*
X146494523Y222894761D01*
X146399285Y222799523D01*
X146304047Y222751904D01*
X147494523Y223037619D02*
X147589761Y223037619D01*
X147685000Y222990000D01*
X147732619Y222942380D01*
X147780238Y222847142D01*
X147827857Y222656666D01*
X147827857Y222418571D01*
X147780238Y222228095D01*
X147732619Y222132857D01*
X147685000Y222085238D01*
X147589761Y222037619D01*
X147494523Y222037619D01*
X147399285Y222085238D01*
X147351666Y222132857D01*
X147304047Y222228095D01*
X147256428Y222418571D01*
X147256428Y222656666D01*
X147304047Y222847142D01*
X147351666Y222942380D01*
X147399285Y222990000D01*
X147494523Y223037619D01*
X2286095Y197270619D02*
X2286095Y196461095D01*
X2333714Y196365857D01*
X2381333Y196318238D01*
X2476571Y196270619D01*
X2667047Y196270619D01*
X2762285Y196318238D01*
X2809904Y196365857D01*
X2857523Y196461095D01*
X2857523Y197270619D01*
X3286095Y197175380D02*
X3333714Y197223000D01*
X3428952Y197270619D01*
X3667047Y197270619D01*
X3762285Y197223000D01*
X3809904Y197175380D01*
X3857523Y197080142D01*
X3857523Y196984904D01*
X3809904Y196842047D01*
X3238476Y196270619D01*
X3857523Y196270619D01*
X-28051023Y207367119D02*
X-28051023Y206652833D01*
X-28098642Y206509976D01*
X-28193880Y206414738D01*
X-28336738Y206367119D01*
X-28431976Y206367119D01*
X-27051023Y206367119D02*
X-27622452Y206367119D01*
X-27336738Y206367119D02*
X-27336738Y207367119D01*
X-27431976Y207224261D01*
X-27527214Y207129023D01*
X-27622452Y207081404D01*
X-26098642Y206367119D02*
X-26670071Y206367119D01*
X-26384357Y206367119D02*
X-26384357Y207367119D01*
X-26479595Y207224261D01*
X-26574833Y207129023D01*
X-26670071Y207081404D01*
X134683595Y94019619D02*
X134683595Y93210095D01*
X134731214Y93114857D01*
X134778833Y93067238D01*
X134874071Y93019619D01*
X135064547Y93019619D01*
X135159785Y93067238D01*
X135207404Y93114857D01*
X135255023Y93210095D01*
X135255023Y94019619D01*
X136207404Y94019619D02*
X135731214Y94019619D01*
X135683595Y93543428D01*
X135731214Y93591047D01*
X135826452Y93638666D01*
X136064547Y93638666D01*
X136159785Y93591047D01*
X136207404Y93543428D01*
X136255023Y93448190D01*
X136255023Y93210095D01*
X136207404Y93114857D01*
X136159785Y93067238D01*
X136064547Y93019619D01*
X135826452Y93019619D01*
X135731214Y93067238D01*
X135683595Y93114857D01*
X-53085904Y150037619D02*
X-53085904Y149228095D01*
X-53038285Y149132857D01*
X-52990666Y149085238D01*
X-52895428Y149037619D01*
X-52704952Y149037619D01*
X-52609714Y149085238D01*
X-52562095Y149132857D01*
X-52514476Y149228095D01*
X-52514476Y150037619D01*
X-51895428Y149609047D02*
X-51990666Y149656666D01*
X-52038285Y149704285D01*
X-52085904Y149799523D01*
X-52085904Y149847142D01*
X-52038285Y149942380D01*
X-51990666Y149990000D01*
X-51895428Y150037619D01*
X-51704952Y150037619D01*
X-51609714Y149990000D01*
X-51562095Y149942380D01*
X-51514476Y149847142D01*
X-51514476Y149799523D01*
X-51562095Y149704285D01*
X-51609714Y149656666D01*
X-51704952Y149609047D01*
X-51895428Y149609047D01*
X-51990666Y149561428D01*
X-52038285Y149513809D01*
X-52085904Y149418571D01*
X-52085904Y149228095D01*
X-52038285Y149132857D01*
X-51990666Y149085238D01*
X-51895428Y149037619D01*
X-51704952Y149037619D01*
X-51609714Y149085238D01*
X-51562095Y149132857D01*
X-51514476Y149228095D01*
X-51514476Y149418571D01*
X-51562095Y149513809D01*
X-51609714Y149561428D01*
X-51704952Y149609047D01*
X18923095Y197157619D02*
X18923095Y196348095D01*
X18970714Y196252857D01*
X19018333Y196205238D01*
X19113571Y196157619D01*
X19304047Y196157619D01*
X19399285Y196205238D01*
X19446904Y196252857D01*
X19494523Y196348095D01*
X19494523Y197157619D01*
X19875476Y197157619D02*
X20494523Y197157619D01*
X20161190Y196776666D01*
X20304047Y196776666D01*
X20399285Y196729047D01*
X20446904Y196681428D01*
X20494523Y196586190D01*
X20494523Y196348095D01*
X20446904Y196252857D01*
X20399285Y196205238D01*
X20304047Y196157619D01*
X20018333Y196157619D01*
X19923095Y196205238D01*
X19875476Y196252857D01*
X15105142Y175537857D02*
X15057523Y175490238D01*
X14914666Y175442619D01*
X14819428Y175442619D01*
X14676571Y175490238D01*
X14581333Y175585476D01*
X14533714Y175680714D01*
X14486095Y175871190D01*
X14486095Y176014047D01*
X14533714Y176204523D01*
X14581333Y176299761D01*
X14676571Y176395000D01*
X14819428Y176442619D01*
X14914666Y176442619D01*
X15057523Y176395000D01*
X15105142Y176347380D01*
X16057523Y175442619D02*
X15486095Y175442619D01*
X15771809Y175442619D02*
X15771809Y176442619D01*
X15676571Y176299761D01*
X15581333Y176204523D01*
X15486095Y176156904D01*
X17009904Y175442619D02*
X16438476Y175442619D01*
X16724190Y175442619D02*
X16724190Y176442619D01*
X16628952Y176299761D01*
X16533714Y176204523D01*
X16438476Y176156904D01*
X79724404Y122848619D02*
X79724404Y122039095D01*
X79772023Y121943857D01*
X79819642Y121896238D01*
X79914880Y121848619D01*
X80105357Y121848619D01*
X80200595Y121896238D01*
X80248214Y121943857D01*
X80295833Y122039095D01*
X80295833Y122848619D01*
X80724404Y122753380D02*
X80772023Y122801000D01*
X80867261Y122848619D01*
X81105357Y122848619D01*
X81200595Y122801000D01*
X81248214Y122753380D01*
X81295833Y122658142D01*
X81295833Y122562904D01*
X81248214Y122420047D01*
X80676785Y121848619D01*
X81295833Y121848619D01*
X81867261Y122420047D02*
X81772023Y122467666D01*
X81724404Y122515285D01*
X81676785Y122610523D01*
X81676785Y122658142D01*
X81724404Y122753380D01*
X81772023Y122801000D01*
X81867261Y122848619D01*
X82057738Y122848619D01*
X82152976Y122801000D01*
X82200595Y122753380D01*
X82248214Y122658142D01*
X82248214Y122610523D01*
X82200595Y122515285D01*
X82152976Y122467666D01*
X82057738Y122420047D01*
X81867261Y122420047D01*
X81772023Y122372428D01*
X81724404Y122324809D01*
X81676785Y122229571D01*
X81676785Y122039095D01*
X81724404Y121943857D01*
X81772023Y121896238D01*
X81867261Y121848619D01*
X82057738Y121848619D01*
X82152976Y121896238D01*
X82200595Y121943857D01*
X82248214Y122039095D01*
X82248214Y122229571D01*
X82200595Y122324809D01*
X82152976Y122372428D01*
X82057738Y122420047D01*
X147478904Y84621619D02*
X147478904Y83812095D01*
X147526523Y83716857D01*
X147574142Y83669238D01*
X147669380Y83621619D01*
X147859857Y83621619D01*
X147955095Y83669238D01*
X148002714Y83716857D01*
X148050333Y83812095D01*
X148050333Y84621619D01*
X149050333Y83621619D02*
X148478904Y83621619D01*
X148764619Y83621619D02*
X148764619Y84621619D01*
X148669380Y84478761D01*
X148574142Y84383523D01*
X148478904Y84335904D01*
X149907476Y84621619D02*
X149717000Y84621619D01*
X149621761Y84574000D01*
X149574142Y84526380D01*
X149478904Y84383523D01*
X149431285Y84193047D01*
X149431285Y83812095D01*
X149478904Y83716857D01*
X149526523Y83669238D01*
X149621761Y83621619D01*
X149812238Y83621619D01*
X149907476Y83669238D01*
X149955095Y83716857D01*
X150002714Y83812095D01*
X150002714Y84050190D01*
X149955095Y84145428D01*
X149907476Y84193047D01*
X149812238Y84240666D01*
X149621761Y84240666D01*
X149526523Y84193047D01*
X149478904Y84145428D01*
X149431285Y84050190D01*
X-55887857Y195857857D02*
X-55935476Y195810238D01*
X-56078333Y195762619D01*
X-56173571Y195762619D01*
X-56316428Y195810238D01*
X-56411666Y195905476D01*
X-56459285Y196000714D01*
X-56506904Y196191190D01*
X-56506904Y196334047D01*
X-56459285Y196524523D01*
X-56411666Y196619761D01*
X-56316428Y196715000D01*
X-56173571Y196762619D01*
X-56078333Y196762619D01*
X-55935476Y196715000D01*
X-55887857Y196667380D01*
X-55030714Y196429285D02*
X-55030714Y195762619D01*
X-55268809Y196810238D02*
X-55506904Y196095952D01*
X-54887857Y196095952D01*
X-54316428Y196762619D02*
X-54221190Y196762619D01*
X-54125952Y196715000D01*
X-54078333Y196667380D01*
X-54030714Y196572142D01*
X-53983095Y196381666D01*
X-53983095Y196143571D01*
X-54030714Y195953095D01*
X-54078333Y195857857D01*
X-54125952Y195810238D01*
X-54221190Y195762619D01*
X-54316428Y195762619D01*
X-54411666Y195810238D01*
X-54459285Y195857857D01*
X-54506904Y195953095D01*
X-54554523Y196143571D01*
X-54554523Y196381666D01*
X-54506904Y196572142D01*
X-54459285Y196667380D01*
X-54411666Y196715000D01*
X-54316428Y196762619D01*
D11*
X98908809Y100260452D02*
X98908809Y98204261D01*
X99005571Y97962357D01*
X99102333Y97841404D01*
X99295857Y97720452D01*
X99682904Y97720452D01*
X99876428Y97841404D01*
X99973190Y97962357D01*
X100069952Y98204261D01*
X100069952Y100260452D01*
X101908428Y99413785D02*
X101908428Y97720452D01*
X101424619Y100381404D02*
X100940809Y98567119D01*
X102198714Y98567119D01*
D19*
X-984095Y163552119D02*
X-984095Y162742595D01*
X-936476Y162647357D01*
X-888857Y162599738D01*
X-793619Y162552119D01*
X-603142Y162552119D01*
X-507904Y162599738D01*
X-460285Y162647357D01*
X-412666Y162742595D01*
X-412666Y163552119D01*
X15904Y163456880D02*
X63523Y163504500D01*
X158761Y163552119D01*
X396857Y163552119D01*
X492095Y163504500D01*
X539714Y163456880D01*
X587333Y163361642D01*
X587333Y163266404D01*
X539714Y163123547D01*
X-31714Y162552119D01*
X587333Y162552119D01*
X968285Y163456880D02*
X1015904Y163504500D01*
X1111142Y163552119D01*
X1349238Y163552119D01*
X1444476Y163504500D01*
X1492095Y163456880D01*
X1539714Y163361642D01*
X1539714Y163266404D01*
X1492095Y163123547D01*
X920666Y162552119D01*
X1539714Y162552119D01*
X-13747595Y163552119D02*
X-13747595Y162742595D01*
X-13699976Y162647357D01*
X-13652357Y162599738D01*
X-13557119Y162552119D01*
X-13366642Y162552119D01*
X-13271404Y162599738D01*
X-13223785Y162647357D01*
X-13176166Y162742595D01*
X-13176166Y163552119D01*
X-12747595Y163456880D02*
X-12699976Y163504500D01*
X-12604738Y163552119D01*
X-12366642Y163552119D01*
X-12271404Y163504500D01*
X-12223785Y163456880D01*
X-12176166Y163361642D01*
X-12176166Y163266404D01*
X-12223785Y163123547D01*
X-12795214Y162552119D01*
X-12176166Y162552119D01*
X-11223785Y162552119D02*
X-11795214Y162552119D01*
X-11509500Y162552119D02*
X-11509500Y163552119D01*
X-11604738Y163409261D01*
X-11699976Y163314023D01*
X-11795214Y163266404D01*
X2619523Y152534880D02*
X2667142Y152582500D01*
X2762380Y152630119D01*
X3000476Y152630119D01*
X3095714Y152582500D01*
X3143333Y152534880D01*
X3190952Y152439642D01*
X3190952Y152344404D01*
X3143333Y152201547D01*
X2571904Y151630119D01*
X3190952Y151630119D01*
X3476666Y152630119D02*
X3810000Y151630119D01*
X4143333Y152630119D01*
X4952857Y152630119D02*
X4476666Y152630119D01*
X4429047Y152153928D01*
X4476666Y152201547D01*
X4571904Y152249166D01*
X4810000Y152249166D01*
X4905238Y152201547D01*
X4952857Y152153928D01*
X5000476Y152058690D01*
X5000476Y151820595D01*
X4952857Y151725357D01*
X4905238Y151677738D01*
X4810000Y151630119D01*
X4571904Y151630119D01*
X4476666Y151677738D01*
X4429047Y151725357D01*
X-10890095Y152630119D02*
X-10271047Y152630119D01*
X-10604380Y152249166D01*
X-10461523Y152249166D01*
X-10366285Y152201547D01*
X-10318666Y152153928D01*
X-10271047Y152058690D01*
X-10271047Y151820595D01*
X-10318666Y151725357D01*
X-10366285Y151677738D01*
X-10461523Y151630119D01*
X-10747238Y151630119D01*
X-10842476Y151677738D01*
X-10890095Y151725357D01*
X-9985333Y152630119D02*
X-9652000Y151630119D01*
X-9318666Y152630119D01*
X-9080571Y152630119D02*
X-8461523Y152630119D01*
X-8794857Y152249166D01*
X-8652000Y152249166D01*
X-8556761Y152201547D01*
X-8509142Y152153928D01*
X-8461523Y152058690D01*
X-8461523Y151820595D01*
X-8509142Y151725357D01*
X-8556761Y151677738D01*
X-8652000Y151630119D01*
X-8937714Y151630119D01*
X-9032952Y151677738D01*
X-9080571Y151725357D01*
X-15017690Y197191309D02*
X-15017690Y196715119D01*
X-15351023Y197715119D02*
X-15017690Y197191309D01*
X-14684357Y197715119D01*
X-14446261Y197715119D02*
X-13827214Y197715119D01*
X-14160547Y197334166D01*
X-14017690Y197334166D01*
X-13922452Y197286547D01*
X-13874833Y197238928D01*
X-13827214Y197143690D01*
X-13827214Y196905595D01*
X-13874833Y196810357D01*
X-13922452Y196762738D01*
X-14017690Y196715119D01*
X-14303404Y196715119D01*
X-14398642Y196762738D01*
X-14446261Y196810357D01*
X145383309Y90320809D02*
X145383309Y89844619D01*
X145049976Y90844619D02*
X145383309Y90320809D01*
X145716642Y90844619D01*
X146002357Y90749380D02*
X146049976Y90797000D01*
X146145214Y90844619D01*
X146383309Y90844619D01*
X146478547Y90797000D01*
X146526166Y90749380D01*
X146573785Y90654142D01*
X146573785Y90558904D01*
X146526166Y90416047D01*
X145954738Y89844619D01*
X146573785Y89844619D01*
X5683309Y198270809D02*
X5683309Y197794619D01*
X5349976Y198794619D02*
X5683309Y198270809D01*
X6016642Y198794619D01*
X6873785Y197794619D02*
X6302357Y197794619D01*
X6588071Y197794619D02*
X6588071Y198794619D01*
X6492833Y198651761D01*
X6397595Y198556523D01*
X6302357Y198508904D01*
X36226904Y185967619D02*
X36226904Y185158095D01*
X36274523Y185062857D01*
X36322142Y185015238D01*
X36417380Y184967619D01*
X36607857Y184967619D01*
X36703095Y185015238D01*
X36750714Y185062857D01*
X36798333Y185158095D01*
X36798333Y185967619D01*
X37179285Y185967619D02*
X37798333Y185967619D01*
X37465000Y185586666D01*
X37607857Y185586666D01*
X37703095Y185539047D01*
X37750714Y185491428D01*
X37798333Y185396190D01*
X37798333Y185158095D01*
X37750714Y185062857D01*
X37703095Y185015238D01*
X37607857Y184967619D01*
X37322142Y184967619D01*
X37226904Y185015238D01*
X37179285Y185062857D01*
X38655476Y185634285D02*
X38655476Y184967619D01*
X38417380Y186015238D02*
X38179285Y185300952D01*
X38798333Y185300952D01*
D21*
X-32213333Y176661666D02*
X-32213333Y175528333D01*
X-32146666Y175395000D01*
X-32080000Y175328333D01*
X-31946666Y175261666D01*
X-31680000Y175261666D01*
X-31546666Y175328333D01*
X-31480000Y175395000D01*
X-31413333Y175528333D01*
X-31413333Y176661666D01*
X-30880000Y176661666D02*
X-30013333Y176661666D01*
X-30480000Y176128333D01*
X-30280000Y176128333D01*
X-30146666Y176061666D01*
X-30080000Y175995000D01*
X-30013333Y175861666D01*
X-30013333Y175528333D01*
X-30080000Y175395000D01*
X-30146666Y175328333D01*
X-30280000Y175261666D01*
X-30680000Y175261666D01*
X-30813333Y175328333D01*
X-30880000Y175395000D01*
X-29546666Y176661666D02*
X-28680000Y176661666D01*
X-29146666Y176128333D01*
X-28946666Y176128333D01*
X-28813333Y176061666D01*
X-28746666Y175995000D01*
X-28680000Y175861666D01*
X-28680000Y175528333D01*
X-28746666Y175395000D01*
X-28813333Y175328333D01*
X-28946666Y175261666D01*
X-29346666Y175261666D01*
X-29480000Y175328333D01*
X-29546666Y175395000D01*
D19*
X55403904Y202677619D02*
X55403904Y201868095D01*
X55451523Y201772857D01*
X55499142Y201725238D01*
X55594380Y201677619D01*
X55784857Y201677619D01*
X55880095Y201725238D01*
X55927714Y201772857D01*
X55975333Y201868095D01*
X55975333Y202677619D01*
X56356285Y202677619D02*
X56975333Y202677619D01*
X56642000Y202296666D01*
X56784857Y202296666D01*
X56880095Y202249047D01*
X56927714Y202201428D01*
X56975333Y202106190D01*
X56975333Y201868095D01*
X56927714Y201772857D01*
X56880095Y201725238D01*
X56784857Y201677619D01*
X56499142Y201677619D01*
X56403904Y201725238D01*
X56356285Y201772857D01*
X57356285Y202582380D02*
X57403904Y202630000D01*
X57499142Y202677619D01*
X57737238Y202677619D01*
X57832476Y202630000D01*
X57880095Y202582380D01*
X57927714Y202487142D01*
X57927714Y202391904D01*
X57880095Y202249047D01*
X57308666Y201677619D01*
X57927714Y201677619D01*
X54387904Y179236619D02*
X54387904Y178427095D01*
X54435523Y178331857D01*
X54483142Y178284238D01*
X54578380Y178236619D01*
X54768857Y178236619D01*
X54864095Y178284238D01*
X54911714Y178331857D01*
X54959333Y178427095D01*
X54959333Y179236619D01*
X55340285Y179236619D02*
X55959333Y179236619D01*
X55626000Y178855666D01*
X55768857Y178855666D01*
X55864095Y178808047D01*
X55911714Y178760428D01*
X55959333Y178665190D01*
X55959333Y178427095D01*
X55911714Y178331857D01*
X55864095Y178284238D01*
X55768857Y178236619D01*
X55483142Y178236619D01*
X55387904Y178284238D01*
X55340285Y178331857D01*
X56911714Y178236619D02*
X56340285Y178236619D01*
X56626000Y178236619D02*
X56626000Y179236619D01*
X56530761Y179093761D01*
X56435523Y178998523D01*
X56340285Y178950904D01*
X54578404Y163933119D02*
X54578404Y163123595D01*
X54626023Y163028357D01*
X54673642Y162980738D01*
X54768880Y162933119D01*
X54959357Y162933119D01*
X55054595Y162980738D01*
X55102214Y163028357D01*
X55149833Y163123595D01*
X55149833Y163933119D01*
X55530785Y163933119D02*
X56149833Y163933119D01*
X55816500Y163552166D01*
X55959357Y163552166D01*
X56054595Y163504547D01*
X56102214Y163456928D01*
X56149833Y163361690D01*
X56149833Y163123595D01*
X56102214Y163028357D01*
X56054595Y162980738D01*
X55959357Y162933119D01*
X55673642Y162933119D01*
X55578404Y162980738D01*
X55530785Y163028357D01*
X56768880Y163933119D02*
X56864119Y163933119D01*
X56959357Y163885500D01*
X57006976Y163837880D01*
X57054595Y163742642D01*
X57102214Y163552166D01*
X57102214Y163314071D01*
X57054595Y163123595D01*
X57006976Y163028357D01*
X56959357Y162980738D01*
X56864119Y162933119D01*
X56768880Y162933119D01*
X56673642Y162980738D01*
X56626023Y163028357D01*
X56578404Y163123595D01*
X56530785Y163314071D01*
X56530785Y163552166D01*
X56578404Y163742642D01*
X56626023Y163837880D01*
X56673642Y163885500D01*
X56768880Y163933119D01*
X54641904Y148693119D02*
X54641904Y147883595D01*
X54689523Y147788357D01*
X54737142Y147740738D01*
X54832380Y147693119D01*
X55022857Y147693119D01*
X55118095Y147740738D01*
X55165714Y147788357D01*
X55213333Y147883595D01*
X55213333Y148693119D01*
X55641904Y148597880D02*
X55689523Y148645500D01*
X55784761Y148693119D01*
X56022857Y148693119D01*
X56118095Y148645500D01*
X56165714Y148597880D01*
X56213333Y148502642D01*
X56213333Y148407404D01*
X56165714Y148264547D01*
X55594285Y147693119D01*
X56213333Y147693119D01*
X56689523Y147693119D02*
X56880000Y147693119D01*
X56975238Y147740738D01*
X57022857Y147788357D01*
X57118095Y147931214D01*
X57165714Y148121690D01*
X57165714Y148502642D01*
X57118095Y148597880D01*
X57070476Y148645500D01*
X56975238Y148693119D01*
X56784761Y148693119D01*
X56689523Y148645500D01*
X56641904Y148597880D01*
X56594285Y148502642D01*
X56594285Y148264547D01*
X56641904Y148169309D01*
X56689523Y148121690D01*
X56784761Y148074071D01*
X56975238Y148074071D01*
X57070476Y148121690D01*
X57118095Y148169309D01*
X57165714Y148264547D01*
X93567404Y122848619D02*
X93567404Y122039095D01*
X93615023Y121943857D01*
X93662642Y121896238D01*
X93757880Y121848619D01*
X93948357Y121848619D01*
X94043595Y121896238D01*
X94091214Y121943857D01*
X94138833Y122039095D01*
X94138833Y122848619D01*
X94567404Y122753380D02*
X94615023Y122801000D01*
X94710261Y122848619D01*
X94948357Y122848619D01*
X95043595Y122801000D01*
X95091214Y122753380D01*
X95138833Y122658142D01*
X95138833Y122562904D01*
X95091214Y122420047D01*
X94519785Y121848619D01*
X95138833Y121848619D01*
X95472166Y122848619D02*
X96138833Y122848619D01*
X95710261Y121848619D01*
X113823904Y122785119D02*
X113823904Y121975595D01*
X113871523Y121880357D01*
X113919142Y121832738D01*
X114014380Y121785119D01*
X114204857Y121785119D01*
X114300095Y121832738D01*
X114347714Y121880357D01*
X114395333Y121975595D01*
X114395333Y122785119D01*
X114823904Y122689880D02*
X114871523Y122737500D01*
X114966761Y122785119D01*
X115204857Y122785119D01*
X115300095Y122737500D01*
X115347714Y122689880D01*
X115395333Y122594642D01*
X115395333Y122499404D01*
X115347714Y122356547D01*
X114776285Y121785119D01*
X115395333Y121785119D01*
X116252476Y122785119D02*
X116062000Y122785119D01*
X115966761Y122737500D01*
X115919142Y122689880D01*
X115823904Y122547023D01*
X115776285Y122356547D01*
X115776285Y121975595D01*
X115823904Y121880357D01*
X115871523Y121832738D01*
X115966761Y121785119D01*
X116157238Y121785119D01*
X116252476Y121832738D01*
X116300095Y121880357D01*
X116347714Y121975595D01*
X116347714Y122213690D01*
X116300095Y122308928D01*
X116252476Y122356547D01*
X116157238Y122404166D01*
X115966761Y122404166D01*
X115871523Y122356547D01*
X115823904Y122308928D01*
X115776285Y122213690D01*
X129825904Y122785119D02*
X129825904Y121975595D01*
X129873523Y121880357D01*
X129921142Y121832738D01*
X130016380Y121785119D01*
X130206857Y121785119D01*
X130302095Y121832738D01*
X130349714Y121880357D01*
X130397333Y121975595D01*
X130397333Y122785119D01*
X130825904Y122689880D02*
X130873523Y122737500D01*
X130968761Y122785119D01*
X131206857Y122785119D01*
X131302095Y122737500D01*
X131349714Y122689880D01*
X131397333Y122594642D01*
X131397333Y122499404D01*
X131349714Y122356547D01*
X130778285Y121785119D01*
X131397333Y121785119D01*
X132302095Y122785119D02*
X131825904Y122785119D01*
X131778285Y122308928D01*
X131825904Y122356547D01*
X131921142Y122404166D01*
X132159238Y122404166D01*
X132254476Y122356547D01*
X132302095Y122308928D01*
X132349714Y122213690D01*
X132349714Y121975595D01*
X132302095Y121880357D01*
X132254476Y121832738D01*
X132159238Y121785119D01*
X131921142Y121785119D01*
X131825904Y121832738D01*
X131778285Y121880357D01*
X143541904Y122785119D02*
X143541904Y121975595D01*
X143589523Y121880357D01*
X143637142Y121832738D01*
X143732380Y121785119D01*
X143922857Y121785119D01*
X144018095Y121832738D01*
X144065714Y121880357D01*
X144113333Y121975595D01*
X144113333Y122785119D01*
X144541904Y122689880D02*
X144589523Y122737500D01*
X144684761Y122785119D01*
X144922857Y122785119D01*
X145018095Y122737500D01*
X145065714Y122689880D01*
X145113333Y122594642D01*
X145113333Y122499404D01*
X145065714Y122356547D01*
X144494285Y121785119D01*
X145113333Y121785119D01*
X145970476Y122451785D02*
X145970476Y121785119D01*
X145732380Y122832738D02*
X145494285Y122118452D01*
X146113333Y122118452D01*
X-62833095Y181903619D02*
X-62833095Y181094095D01*
X-62785476Y180998857D01*
X-62737857Y180951238D01*
X-62642619Y180903619D01*
X-62452142Y180903619D01*
X-62356904Y180951238D01*
X-62309285Y180998857D01*
X-62261666Y181094095D01*
X-62261666Y181903619D01*
X-61833095Y181808380D02*
X-61785476Y181856000D01*
X-61690238Y181903619D01*
X-61452142Y181903619D01*
X-61356904Y181856000D01*
X-61309285Y181808380D01*
X-61261666Y181713142D01*
X-61261666Y181617904D01*
X-61309285Y181475047D01*
X-61880714Y180903619D01*
X-61261666Y180903619D01*
X-60928333Y181903619D02*
X-60309285Y181903619D01*
X-60642619Y181522666D01*
X-60499761Y181522666D01*
X-60404523Y181475047D01*
X-60356904Y181427428D01*
X-60309285Y181332190D01*
X-60309285Y181094095D01*
X-60356904Y180998857D01*
X-60404523Y180951238D01*
X-60499761Y180903619D01*
X-60785476Y180903619D01*
X-60880714Y180951238D01*
X-60928333Y180998857D01*
D10*
X-41961404Y146796880D02*
X-41961404Y145974404D01*
X-41913023Y145877642D01*
X-41864642Y145829261D01*
X-41767880Y145780880D01*
X-41574357Y145780880D01*
X-41477595Y145829261D01*
X-41429214Y145877642D01*
X-41380833Y145974404D01*
X-41380833Y146796880D01*
X-40945404Y146700119D02*
X-40897023Y146748500D01*
X-40800261Y146796880D01*
X-40558357Y146796880D01*
X-40461595Y146748500D01*
X-40413214Y146700119D01*
X-40364833Y146603357D01*
X-40364833Y146506595D01*
X-40413214Y146361452D01*
X-40993785Y145780880D01*
X-40364833Y145780880D01*
X-39735880Y146796880D02*
X-39639119Y146796880D01*
X-39542357Y146748500D01*
X-39493976Y146700119D01*
X-39445595Y146603357D01*
X-39397214Y146409833D01*
X-39397214Y146167928D01*
X-39445595Y145974404D01*
X-39493976Y145877642D01*
X-39542357Y145829261D01*
X-39639119Y145780880D01*
X-39735880Y145780880D01*
X-39832642Y145829261D01*
X-39881023Y145877642D01*
X-39929404Y145974404D01*
X-39977785Y146167928D01*
X-39977785Y146409833D01*
X-39929404Y146603357D01*
X-39881023Y146700119D01*
X-39832642Y146748500D01*
X-39735880Y146796880D01*
X-41707404Y121460380D02*
X-41707404Y120637904D01*
X-41659023Y120541142D01*
X-41610642Y120492761D01*
X-41513880Y120444380D01*
X-41320357Y120444380D01*
X-41223595Y120492761D01*
X-41175214Y120541142D01*
X-41126833Y120637904D01*
X-41126833Y121460380D01*
X-40110833Y120444380D02*
X-40691404Y120444380D01*
X-40401119Y120444380D02*
X-40401119Y121460380D01*
X-40497880Y121315238D01*
X-40594642Y121218476D01*
X-40691404Y121170095D01*
X-39627023Y120444380D02*
X-39433500Y120444380D01*
X-39336738Y120492761D01*
X-39288357Y120541142D01*
X-39191595Y120686285D01*
X-39143214Y120879809D01*
X-39143214Y121266857D01*
X-39191595Y121363619D01*
X-39239976Y121412000D01*
X-39336738Y121460380D01*
X-39530261Y121460380D01*
X-39627023Y121412000D01*
X-39675404Y121363619D01*
X-39723785Y121266857D01*
X-39723785Y121024952D01*
X-39675404Y120928190D01*
X-39627023Y120879809D01*
X-39530261Y120831428D01*
X-39336738Y120831428D01*
X-39239976Y120879809D01*
X-39191595Y120928190D01*
X-39143214Y121024952D01*
D19*
X151923904Y97956619D02*
X151923904Y97147095D01*
X151971523Y97051857D01*
X152019142Y97004238D01*
X152114380Y96956619D01*
X152304857Y96956619D01*
X152400095Y97004238D01*
X152447714Y97051857D01*
X152495333Y97147095D01*
X152495333Y97956619D01*
X153495333Y96956619D02*
X152923904Y96956619D01*
X153209619Y96956619D02*
X153209619Y97956619D01*
X153114380Y97813761D01*
X153019142Y97718523D01*
X152923904Y97670904D01*
X154066761Y97528047D02*
X153971523Y97575666D01*
X153923904Y97623285D01*
X153876285Y97718523D01*
X153876285Y97766142D01*
X153923904Y97861380D01*
X153971523Y97909000D01*
X154066761Y97956619D01*
X154257238Y97956619D01*
X154352476Y97909000D01*
X154400095Y97861380D01*
X154447714Y97766142D01*
X154447714Y97718523D01*
X154400095Y97623285D01*
X154352476Y97575666D01*
X154257238Y97528047D01*
X154066761Y97528047D01*
X153971523Y97480428D01*
X153923904Y97432809D01*
X153876285Y97337571D01*
X153876285Y97147095D01*
X153923904Y97051857D01*
X153971523Y97004238D01*
X154066761Y96956619D01*
X154257238Y96956619D01*
X154352476Y97004238D01*
X154400095Y97051857D01*
X154447714Y97147095D01*
X154447714Y97337571D01*
X154400095Y97432809D01*
X154352476Y97480428D01*
X154257238Y97528047D01*
X156876904Y195347619D02*
X156876904Y194538095D01*
X156924523Y194442857D01*
X156972142Y194395238D01*
X157067380Y194347619D01*
X157257857Y194347619D01*
X157353095Y194395238D01*
X157400714Y194442857D01*
X157448333Y194538095D01*
X157448333Y195347619D01*
X158448333Y194347619D02*
X157876904Y194347619D01*
X158162619Y194347619D02*
X158162619Y195347619D01*
X158067380Y195204761D01*
X157972142Y195109523D01*
X157876904Y195061904D01*
X158781666Y195347619D02*
X159448333Y195347619D01*
X159019761Y194347619D01*
X-45751595Y91797119D02*
X-45751595Y90987595D01*
X-45703976Y90892357D01*
X-45656357Y90844738D01*
X-45561119Y90797119D01*
X-45370642Y90797119D01*
X-45275404Y90844738D01*
X-45227785Y90892357D01*
X-45180166Y90987595D01*
X-45180166Y91797119D01*
X-44180166Y90797119D02*
X-44751595Y90797119D01*
X-44465880Y90797119D02*
X-44465880Y91797119D01*
X-44561119Y91654261D01*
X-44656357Y91559023D01*
X-44751595Y91511404D01*
X-43323023Y91463785D02*
X-43323023Y90797119D01*
X-43561119Y91844738D02*
X-43799214Y91130452D01*
X-43180166Y91130452D01*
X33051904Y91987619D02*
X33051904Y91178095D01*
X33099523Y91082857D01*
X33147142Y91035238D01*
X33242380Y90987619D01*
X33432857Y90987619D01*
X33528095Y91035238D01*
X33575714Y91082857D01*
X33623333Y91178095D01*
X33623333Y91987619D01*
X34623333Y90987619D02*
X34051904Y90987619D01*
X34337619Y90987619D02*
X34337619Y91987619D01*
X34242380Y91844761D01*
X34147142Y91749523D01*
X34051904Y91701904D01*
X34956666Y91987619D02*
X35575714Y91987619D01*
X35242380Y91606666D01*
X35385238Y91606666D01*
X35480476Y91559047D01*
X35528095Y91511428D01*
X35575714Y91416190D01*
X35575714Y91178095D01*
X35528095Y91082857D01*
X35480476Y91035238D01*
X35385238Y90987619D01*
X35099523Y90987619D01*
X35004285Y91035238D01*
X34956666Y91082857D01*
X-31908595Y91670119D02*
X-31908595Y90860595D01*
X-31860976Y90765357D01*
X-31813357Y90717738D01*
X-31718119Y90670119D01*
X-31527642Y90670119D01*
X-31432404Y90717738D01*
X-31384785Y90765357D01*
X-31337166Y90860595D01*
X-31337166Y91670119D01*
X-30337166Y90670119D02*
X-30908595Y90670119D01*
X-30622880Y90670119D02*
X-30622880Y91670119D01*
X-30718119Y91527261D01*
X-30813357Y91432023D01*
X-30908595Y91384404D01*
X-29956214Y91574880D02*
X-29908595Y91622500D01*
X-29813357Y91670119D01*
X-29575261Y91670119D01*
X-29480023Y91622500D01*
X-29432404Y91574880D01*
X-29384785Y91479642D01*
X-29384785Y91384404D01*
X-29432404Y91241547D01*
X-30003833Y90670119D01*
X-29384785Y90670119D01*
X8921904Y91987619D02*
X8921904Y91178095D01*
X8969523Y91082857D01*
X9017142Y91035238D01*
X9112380Y90987619D01*
X9302857Y90987619D01*
X9398095Y91035238D01*
X9445714Y91082857D01*
X9493333Y91178095D01*
X9493333Y91987619D01*
X10493333Y90987619D02*
X9921904Y90987619D01*
X10207619Y90987619D02*
X10207619Y91987619D01*
X10112380Y91844761D01*
X10017142Y91749523D01*
X9921904Y91701904D01*
X11445714Y90987619D02*
X10874285Y90987619D01*
X11160000Y90987619D02*
X11160000Y91987619D01*
X11064761Y91844761D01*
X10969523Y91749523D01*
X10874285Y91701904D01*
X-52577904Y121451619D02*
X-52577904Y120642095D01*
X-52530285Y120546857D01*
X-52482666Y120499238D01*
X-52387428Y120451619D01*
X-52196952Y120451619D01*
X-52101714Y120499238D01*
X-52054095Y120546857D01*
X-52006476Y120642095D01*
X-52006476Y121451619D01*
X-51625523Y121451619D02*
X-50958857Y121451619D01*
X-51387428Y120451619D01*
X55499095Y191174619D02*
X55499095Y190365095D01*
X55546714Y190269857D01*
X55594333Y190222238D01*
X55689571Y190174619D01*
X55880047Y190174619D01*
X55975285Y190222238D01*
X56022904Y190269857D01*
X56070523Y190365095D01*
X56070523Y191174619D01*
X56975285Y191174619D02*
X56784809Y191174619D01*
X56689571Y191127000D01*
X56641952Y191079380D01*
X56546714Y190936523D01*
X56499095Y190746047D01*
X56499095Y190365095D01*
X56546714Y190269857D01*
X56594333Y190222238D01*
X56689571Y190174619D01*
X56880047Y190174619D01*
X56975285Y190222238D01*
X57022904Y190269857D01*
X57070523Y190365095D01*
X57070523Y190603190D01*
X57022904Y190698428D01*
X56975285Y190746047D01*
X56880047Y190793666D01*
X56689571Y190793666D01*
X56594333Y190746047D01*
X56546714Y190698428D01*
X56499095Y190603190D01*
X43307166Y177854238D02*
X43450023Y177806619D01*
X43688119Y177806619D01*
X43783357Y177854238D01*
X43830976Y177901857D01*
X43878595Y177997095D01*
X43878595Y178092333D01*
X43830976Y178187571D01*
X43783357Y178235190D01*
X43688119Y178282809D01*
X43497642Y178330428D01*
X43402404Y178378047D01*
X43354785Y178425666D01*
X43307166Y178520904D01*
X43307166Y178616142D01*
X43354785Y178711380D01*
X43402404Y178759000D01*
X43497642Y178806619D01*
X43735738Y178806619D01*
X43878595Y178759000D01*
X44211928Y178806619D02*
X44450023Y177806619D01*
X44640500Y178520904D01*
X44830976Y177806619D01*
X45069071Y178806619D01*
X45973833Y177806619D02*
X45402404Y177806619D01*
X45688119Y177806619D02*
X45688119Y178806619D01*
X45592880Y178663761D01*
X45497642Y178568523D01*
X45402404Y178520904D01*
X-62221904Y93003738D02*
X-62079047Y92956119D01*
X-61840952Y92956119D01*
X-61745714Y93003738D01*
X-61698095Y93051357D01*
X-61650476Y93146595D01*
X-61650476Y93241833D01*
X-61698095Y93337071D01*
X-61745714Y93384690D01*
X-61840952Y93432309D01*
X-62031428Y93479928D01*
X-62126666Y93527547D01*
X-62174285Y93575166D01*
X-62221904Y93670404D01*
X-62221904Y93765642D01*
X-62174285Y93860880D01*
X-62126666Y93908500D01*
X-62031428Y93956119D01*
X-61793333Y93956119D01*
X-61650476Y93908500D01*
X-61221904Y92956119D02*
X-61221904Y93956119D01*
X-60840952Y93956119D01*
X-60745714Y93908500D01*
X-60698095Y93860880D01*
X-60650476Y93765642D01*
X-60650476Y93622785D01*
X-60698095Y93527547D01*
X-60745714Y93479928D01*
X-60840952Y93432309D01*
X-61221904Y93432309D01*
X-59698095Y92956119D02*
X-60269523Y92956119D01*
X-59983809Y92956119D02*
X-59983809Y93956119D01*
X-60079047Y93813261D01*
X-60174285Y93718023D01*
X-60269523Y93670404D01*
X-70875952Y88828571D02*
X-70114047Y88828571D01*
X-70495000Y88447619D02*
X-70495000Y89209523D01*
X59412333Y207319619D02*
X59079000Y207795809D01*
X58840904Y207319619D02*
X58840904Y208319619D01*
X59221857Y208319619D01*
X59317095Y208272000D01*
X59364714Y208224380D01*
X59412333Y208129142D01*
X59412333Y207986285D01*
X59364714Y207891047D01*
X59317095Y207843428D01*
X59221857Y207795809D01*
X58840904Y207795809D01*
X59840904Y207319619D02*
X59840904Y208319619D01*
X60412333Y207319619D01*
X60412333Y208319619D01*
X61412333Y207319619D02*
X60840904Y207319619D01*
X61126619Y207319619D02*
X61126619Y208319619D01*
X61031380Y208176761D01*
X60936142Y208081523D01*
X60840904Y208033904D01*
X62317095Y208319619D02*
X61840904Y208319619D01*
X61793285Y207843428D01*
X61840904Y207891047D01*
X61936142Y207938666D01*
X62174238Y207938666D01*
X62269476Y207891047D01*
X62317095Y207843428D01*
X62364714Y207748190D01*
X62364714Y207510095D01*
X62317095Y207414857D01*
X62269476Y207367238D01*
X62174238Y207319619D01*
X61936142Y207319619D01*
X61840904Y207367238D01*
X61793285Y207414857D01*
X77255833Y126293619D02*
X76922500Y126769809D01*
X76684404Y126293619D02*
X76684404Y127293619D01*
X77065357Y127293619D01*
X77160595Y127246000D01*
X77208214Y127198380D01*
X77255833Y127103142D01*
X77255833Y126960285D01*
X77208214Y126865047D01*
X77160595Y126817428D01*
X77065357Y126769809D01*
X76684404Y126769809D01*
X77684404Y126293619D02*
X77684404Y127293619D01*
X78255833Y126293619D01*
X78255833Y127293619D01*
X79255833Y126293619D02*
X78684404Y126293619D01*
X78970119Y126293619D02*
X78970119Y127293619D01*
X78874880Y127150761D01*
X78779642Y127055523D01*
X78684404Y127007904D01*
X80112976Y126960285D02*
X80112976Y126293619D01*
X79874880Y127341238D02*
X79636785Y126626952D01*
X80255833Y126626952D01*
X84240833Y126293619D02*
X83907500Y126769809D01*
X83669404Y126293619D02*
X83669404Y127293619D01*
X84050357Y127293619D01*
X84145595Y127246000D01*
X84193214Y127198380D01*
X84240833Y127103142D01*
X84240833Y126960285D01*
X84193214Y126865047D01*
X84145595Y126817428D01*
X84050357Y126769809D01*
X83669404Y126769809D01*
X84669404Y126293619D02*
X84669404Y127293619D01*
X85240833Y126293619D01*
X85240833Y127293619D01*
X86240833Y126293619D02*
X85669404Y126293619D01*
X85955119Y126293619D02*
X85955119Y127293619D01*
X85859880Y127150761D01*
X85764642Y127055523D01*
X85669404Y127007904D01*
X86574166Y127293619D02*
X87193214Y127293619D01*
X86859880Y126912666D01*
X87002738Y126912666D01*
X87097976Y126865047D01*
X87145595Y126817428D01*
X87193214Y126722190D01*
X87193214Y126484095D01*
X87145595Y126388857D01*
X87097976Y126341238D01*
X87002738Y126293619D01*
X86717023Y126293619D01*
X86621785Y126341238D01*
X86574166Y126388857D01*
X108434333Y126230119D02*
X108101000Y126706309D01*
X107862904Y126230119D02*
X107862904Y127230119D01*
X108243857Y127230119D01*
X108339095Y127182500D01*
X108386714Y127134880D01*
X108434333Y127039642D01*
X108434333Y126896785D01*
X108386714Y126801547D01*
X108339095Y126753928D01*
X108243857Y126706309D01*
X107862904Y126706309D01*
X108862904Y126230119D02*
X108862904Y127230119D01*
X109434333Y126230119D01*
X109434333Y127230119D01*
X110434333Y126230119D02*
X109862904Y126230119D01*
X110148619Y126230119D02*
X110148619Y127230119D01*
X110053380Y127087261D01*
X109958142Y126992023D01*
X109862904Y126944404D01*
X110815285Y127134880D02*
X110862904Y127182500D01*
X110958142Y127230119D01*
X111196238Y127230119D01*
X111291476Y127182500D01*
X111339095Y127134880D01*
X111386714Y127039642D01*
X111386714Y126944404D01*
X111339095Y126801547D01*
X110767666Y126230119D01*
X111386714Y126230119D01*
X129389333Y126230119D02*
X129056000Y126706309D01*
X128817904Y126230119D02*
X128817904Y127230119D01*
X129198857Y127230119D01*
X129294095Y127182500D01*
X129341714Y127134880D01*
X129389333Y127039642D01*
X129389333Y126896785D01*
X129341714Y126801547D01*
X129294095Y126753928D01*
X129198857Y126706309D01*
X128817904Y126706309D01*
X129817904Y126230119D02*
X129817904Y127230119D01*
X130389333Y126230119D01*
X130389333Y127230119D01*
X131389333Y126230119D02*
X130817904Y126230119D01*
X131103619Y126230119D02*
X131103619Y127230119D01*
X131008380Y127087261D01*
X130913142Y126992023D01*
X130817904Y126944404D01*
X132341714Y126230119D02*
X131770285Y126230119D01*
X132056000Y126230119D02*
X132056000Y127230119D01*
X131960761Y127087261D01*
X131865523Y126992023D01*
X131770285Y126944404D01*
X137580833Y126230119D02*
X137247500Y126706309D01*
X137009404Y126230119D02*
X137009404Y127230119D01*
X137390357Y127230119D01*
X137485595Y127182500D01*
X137533214Y127134880D01*
X137580833Y127039642D01*
X137580833Y126896785D01*
X137533214Y126801547D01*
X137485595Y126753928D01*
X137390357Y126706309D01*
X137009404Y126706309D01*
X138009404Y126230119D02*
X138009404Y127230119D01*
X138580833Y126230119D01*
X138580833Y127230119D01*
X139580833Y126230119D02*
X139009404Y126230119D01*
X139295119Y126230119D02*
X139295119Y127230119D01*
X139199880Y127087261D01*
X139104642Y126992023D01*
X139009404Y126944404D01*
X140199880Y127230119D02*
X140295119Y127230119D01*
X140390357Y127182500D01*
X140437976Y127134880D01*
X140485595Y127039642D01*
X140533214Y126849166D01*
X140533214Y126611071D01*
X140485595Y126420595D01*
X140437976Y126325357D01*
X140390357Y126277738D01*
X140295119Y126230119D01*
X140199880Y126230119D01*
X140104642Y126277738D01*
X140057023Y126325357D01*
X140009404Y126420595D01*
X139961785Y126611071D01*
X139961785Y126849166D01*
X140009404Y127039642D01*
X140057023Y127134880D01*
X140104642Y127182500D01*
X140199880Y127230119D01*
X156084523Y165057619D02*
X155751190Y165533809D01*
X155513095Y165057619D02*
X155513095Y166057619D01*
X155894047Y166057619D01*
X155989285Y166010000D01*
X156036904Y165962380D01*
X156084523Y165867142D01*
X156084523Y165724285D01*
X156036904Y165629047D01*
X155989285Y165581428D01*
X155894047Y165533809D01*
X155513095Y165533809D01*
X156513095Y165057619D02*
X156513095Y166057619D01*
X157084523Y165057619D01*
X157084523Y166057619D01*
X157608333Y165057619D02*
X157798809Y165057619D01*
X157894047Y165105238D01*
X157941666Y165152857D01*
X158036904Y165295714D01*
X158084523Y165486190D01*
X158084523Y165867142D01*
X158036904Y165962380D01*
X157989285Y166010000D01*
X157894047Y166057619D01*
X157703571Y166057619D01*
X157608333Y166010000D01*
X157560714Y165962380D01*
X157513095Y165867142D01*
X157513095Y165629047D01*
X157560714Y165533809D01*
X157608333Y165486190D01*
X157703571Y165438571D01*
X157894047Y165438571D01*
X157989285Y165486190D01*
X158036904Y165533809D01*
X158084523Y165629047D01*
X156084523Y175217619D02*
X155751190Y175693809D01*
X155513095Y175217619D02*
X155513095Y176217619D01*
X155894047Y176217619D01*
X155989285Y176170000D01*
X156036904Y176122380D01*
X156084523Y176027142D01*
X156084523Y175884285D01*
X156036904Y175789047D01*
X155989285Y175741428D01*
X155894047Y175693809D01*
X155513095Y175693809D01*
X156513095Y175217619D02*
X156513095Y176217619D01*
X157084523Y175217619D01*
X157084523Y176217619D01*
X157703571Y175789047D02*
X157608333Y175836666D01*
X157560714Y175884285D01*
X157513095Y175979523D01*
X157513095Y176027142D01*
X157560714Y176122380D01*
X157608333Y176170000D01*
X157703571Y176217619D01*
X157894047Y176217619D01*
X157989285Y176170000D01*
X158036904Y176122380D01*
X158084523Y176027142D01*
X158084523Y175979523D01*
X158036904Y175884285D01*
X157989285Y175836666D01*
X157894047Y175789047D01*
X157703571Y175789047D01*
X157608333Y175741428D01*
X157560714Y175693809D01*
X157513095Y175598571D01*
X157513095Y175408095D01*
X157560714Y175312857D01*
X157608333Y175265238D01*
X157703571Y175217619D01*
X157894047Y175217619D01*
X157989285Y175265238D01*
X158036904Y175312857D01*
X158084523Y175408095D01*
X158084523Y175598571D01*
X158036904Y175693809D01*
X157989285Y175741428D01*
X157894047Y175789047D01*
X156084523Y185377619D02*
X155751190Y185853809D01*
X155513095Y185377619D02*
X155513095Y186377619D01*
X155894047Y186377619D01*
X155989285Y186330000D01*
X156036904Y186282380D01*
X156084523Y186187142D01*
X156084523Y186044285D01*
X156036904Y185949047D01*
X155989285Y185901428D01*
X155894047Y185853809D01*
X155513095Y185853809D01*
X156513095Y185377619D02*
X156513095Y186377619D01*
X157084523Y185377619D01*
X157084523Y186377619D01*
X157465476Y186377619D02*
X158132142Y186377619D01*
X157703571Y185377619D01*
X156084523Y203157619D02*
X155751190Y203633809D01*
X155513095Y203157619D02*
X155513095Y204157619D01*
X155894047Y204157619D01*
X155989285Y204110000D01*
X156036904Y204062380D01*
X156084523Y203967142D01*
X156084523Y203824285D01*
X156036904Y203729047D01*
X155989285Y203681428D01*
X155894047Y203633809D01*
X155513095Y203633809D01*
X156513095Y203157619D02*
X156513095Y204157619D01*
X157084523Y203157619D01*
X157084523Y204157619D01*
X157989285Y204157619D02*
X157798809Y204157619D01*
X157703571Y204110000D01*
X157655952Y204062380D01*
X157560714Y203919523D01*
X157513095Y203729047D01*
X157513095Y203348095D01*
X157560714Y203252857D01*
X157608333Y203205238D01*
X157703571Y203157619D01*
X157894047Y203157619D01*
X157989285Y203205238D01*
X158036904Y203252857D01*
X158084523Y203348095D01*
X158084523Y203586190D01*
X158036904Y203681428D01*
X157989285Y203729047D01*
X157894047Y203776666D01*
X157703571Y203776666D01*
X157608333Y203729047D01*
X157560714Y203681428D01*
X157513095Y203586190D01*
X156084523Y213317619D02*
X155751190Y213793809D01*
X155513095Y213317619D02*
X155513095Y214317619D01*
X155894047Y214317619D01*
X155989285Y214270000D01*
X156036904Y214222380D01*
X156084523Y214127142D01*
X156084523Y213984285D01*
X156036904Y213889047D01*
X155989285Y213841428D01*
X155894047Y213793809D01*
X155513095Y213793809D01*
X156513095Y213317619D02*
X156513095Y214317619D01*
X157084523Y213317619D01*
X157084523Y214317619D01*
X158036904Y214317619D02*
X157560714Y214317619D01*
X157513095Y213841428D01*
X157560714Y213889047D01*
X157655952Y213936666D01*
X157894047Y213936666D01*
X157989285Y213889047D01*
X158036904Y213841428D01*
X158084523Y213746190D01*
X158084523Y213508095D01*
X158036904Y213412857D01*
X157989285Y213365238D01*
X157894047Y213317619D01*
X157655952Y213317619D01*
X157560714Y213365238D01*
X157513095Y213412857D01*
X87384023Y59555119D02*
X87050690Y60031309D01*
X86812595Y59555119D02*
X86812595Y60555119D01*
X87193547Y60555119D01*
X87288785Y60507500D01*
X87336404Y60459880D01*
X87384023Y60364642D01*
X87384023Y60221785D01*
X87336404Y60126547D01*
X87288785Y60078928D01*
X87193547Y60031309D01*
X86812595Y60031309D01*
X87812595Y59555119D02*
X87812595Y60555119D01*
X88384023Y59555119D01*
X88384023Y60555119D01*
X89288785Y60221785D02*
X89288785Y59555119D01*
X89050690Y60602738D02*
X88812595Y59888452D01*
X89431642Y59888452D01*
X24074523Y86542619D02*
X23741190Y87018809D01*
X23503095Y86542619D02*
X23503095Y87542619D01*
X23884047Y87542619D01*
X23979285Y87495000D01*
X24026904Y87447380D01*
X24074523Y87352142D01*
X24074523Y87209285D01*
X24026904Y87114047D01*
X23979285Y87066428D01*
X23884047Y87018809D01*
X23503095Y87018809D01*
X24503095Y86542619D02*
X24503095Y87542619D01*
X25074523Y86542619D01*
X25074523Y87542619D01*
X25455476Y87542619D02*
X26074523Y87542619D01*
X25741190Y87161666D01*
X25884047Y87161666D01*
X25979285Y87114047D01*
X26026904Y87066428D01*
X26074523Y86971190D01*
X26074523Y86733095D01*
X26026904Y86637857D01*
X25979285Y86590238D01*
X25884047Y86542619D01*
X25598333Y86542619D01*
X25503095Y86590238D01*
X25455476Y86637857D01*
X-16755976Y86098119D02*
X-17089309Y86574309D01*
X-17327404Y86098119D02*
X-17327404Y87098119D01*
X-16946452Y87098119D01*
X-16851214Y87050500D01*
X-16803595Y87002880D01*
X-16755976Y86907642D01*
X-16755976Y86764785D01*
X-16803595Y86669547D01*
X-16851214Y86621928D01*
X-16946452Y86574309D01*
X-17327404Y86574309D01*
X-16327404Y86098119D02*
X-16327404Y87098119D01*
X-15755976Y86098119D01*
X-15755976Y87098119D01*
X-15327404Y87002880D02*
X-15279785Y87050500D01*
X-15184547Y87098119D01*
X-14946452Y87098119D01*
X-14851214Y87050500D01*
X-14803595Y87002880D01*
X-14755976Y86907642D01*
X-14755976Y86812404D01*
X-14803595Y86669547D01*
X-15375023Y86098119D01*
X-14755976Y86098119D01*
X897023Y86288619D02*
X563690Y86764809D01*
X325595Y86288619D02*
X325595Y87288619D01*
X706547Y87288619D01*
X801785Y87241000D01*
X849404Y87193380D01*
X897023Y87098142D01*
X897023Y86955285D01*
X849404Y86860047D01*
X801785Y86812428D01*
X706547Y86764809D01*
X325595Y86764809D01*
X1325595Y86288619D02*
X1325595Y87288619D01*
X1897023Y86288619D01*
X1897023Y87288619D01*
X2897023Y86288619D02*
X2325595Y86288619D01*
X2611309Y86288619D02*
X2611309Y87288619D01*
X2516071Y87145761D01*
X2420833Y87050523D01*
X2325595Y87002904D01*
X-29344857Y199572619D02*
X-29678190Y200048809D01*
X-29916285Y199572619D02*
X-29916285Y200572619D01*
X-29535333Y200572619D01*
X-29440095Y200525000D01*
X-29392476Y200477380D01*
X-29344857Y200382142D01*
X-29344857Y200239285D01*
X-29392476Y200144047D01*
X-29440095Y200096428D01*
X-29535333Y200048809D01*
X-29916285Y200048809D01*
X-28963904Y200477380D02*
X-28916285Y200525000D01*
X-28821047Y200572619D01*
X-28582952Y200572619D01*
X-28487714Y200525000D01*
X-28440095Y200477380D01*
X-28392476Y200382142D01*
X-28392476Y200286904D01*
X-28440095Y200144047D01*
X-29011523Y199572619D01*
X-28392476Y199572619D01*
X-27440095Y199572619D02*
X-28011523Y199572619D01*
X-27725809Y199572619D02*
X-27725809Y200572619D01*
X-27821047Y200429761D01*
X-27916285Y200334523D01*
X-28011523Y200286904D01*
X-40012857Y199572619D02*
X-40346190Y200048809D01*
X-40584285Y199572619D02*
X-40584285Y200572619D01*
X-40203333Y200572619D01*
X-40108095Y200525000D01*
X-40060476Y200477380D01*
X-40012857Y200382142D01*
X-40012857Y200239285D01*
X-40060476Y200144047D01*
X-40108095Y200096428D01*
X-40203333Y200048809D01*
X-40584285Y200048809D01*
X-39060476Y199572619D02*
X-39631904Y199572619D01*
X-39346190Y199572619D02*
X-39346190Y200572619D01*
X-39441428Y200429761D01*
X-39536666Y200334523D01*
X-39631904Y200286904D01*
X-38584285Y199572619D02*
X-38393809Y199572619D01*
X-38298571Y199620238D01*
X-38250952Y199667857D01*
X-38155714Y199810714D01*
X-38108095Y200001190D01*
X-38108095Y200382142D01*
X-38155714Y200477380D01*
X-38203333Y200525000D01*
X-38298571Y200572619D01*
X-38489047Y200572619D01*
X-38584285Y200525000D01*
X-38631904Y200477380D01*
X-38679523Y200382142D01*
X-38679523Y200144047D01*
X-38631904Y200048809D01*
X-38584285Y200001190D01*
X-38489047Y199953571D01*
X-38298571Y199953571D01*
X-38203333Y200001190D01*
X-38155714Y200048809D01*
X-38108095Y200144047D01*
X-69286357Y214622119D02*
X-69619690Y215098309D01*
X-69857785Y214622119D02*
X-69857785Y215622119D01*
X-69476833Y215622119D01*
X-69381595Y215574500D01*
X-69333976Y215526880D01*
X-69286357Y215431642D01*
X-69286357Y215288785D01*
X-69333976Y215193547D01*
X-69381595Y215145928D01*
X-69476833Y215098309D01*
X-69857785Y215098309D01*
X-68333976Y214622119D02*
X-68905404Y214622119D01*
X-68619690Y214622119D02*
X-68619690Y215622119D01*
X-68714928Y215479261D01*
X-68810166Y215384023D01*
X-68905404Y215336404D01*
X-67953023Y215526880D02*
X-67905404Y215574500D01*
X-67810166Y215622119D01*
X-67572071Y215622119D01*
X-67476833Y215574500D01*
X-67429214Y215526880D01*
X-67381595Y215431642D01*
X-67381595Y215336404D01*
X-67429214Y215193547D01*
X-68000642Y214622119D01*
X-67381595Y214622119D01*
X160520142Y89717619D02*
X160186809Y90193809D01*
X159948714Y89717619D02*
X159948714Y90717619D01*
X160329666Y90717619D01*
X160424904Y90670000D01*
X160472523Y90622380D01*
X160520142Y90527142D01*
X160520142Y90384285D01*
X160472523Y90289047D01*
X160424904Y90241428D01*
X160329666Y90193809D01*
X159948714Y90193809D01*
X161472523Y89717619D02*
X160901095Y89717619D01*
X161186809Y89717619D02*
X161186809Y90717619D01*
X161091571Y90574761D01*
X160996333Y90479523D01*
X160901095Y90431904D01*
X162424904Y89717619D02*
X161853476Y89717619D01*
X162139190Y89717619D02*
X162139190Y90717619D01*
X162043952Y90574761D01*
X161948714Y90479523D01*
X161853476Y90431904D01*
X160647142Y84510619D02*
X160313809Y84986809D01*
X160075714Y84510619D02*
X160075714Y85510619D01*
X160456666Y85510619D01*
X160551904Y85463000D01*
X160599523Y85415380D01*
X160647142Y85320142D01*
X160647142Y85177285D01*
X160599523Y85082047D01*
X160551904Y85034428D01*
X160456666Y84986809D01*
X160075714Y84986809D01*
X161599523Y84510619D02*
X161028095Y84510619D01*
X161313809Y84510619D02*
X161313809Y85510619D01*
X161218571Y85367761D01*
X161123333Y85272523D01*
X161028095Y85224904D01*
X162218571Y85510619D02*
X162313809Y85510619D01*
X162409047Y85463000D01*
X162456666Y85415380D01*
X162504285Y85320142D01*
X162551904Y85129666D01*
X162551904Y84891571D01*
X162504285Y84701095D01*
X162456666Y84605857D01*
X162409047Y84558238D01*
X162313809Y84510619D01*
X162218571Y84510619D01*
X162123333Y84558238D01*
X162075714Y84605857D01*
X162028095Y84701095D01*
X161980476Y84891571D01*
X161980476Y85129666D01*
X162028095Y85320142D01*
X162075714Y85415380D01*
X162123333Y85463000D01*
X162218571Y85510619D01*
X160615333Y87114119D02*
X160282000Y87590309D01*
X160043904Y87114119D02*
X160043904Y88114119D01*
X160424857Y88114119D01*
X160520095Y88066500D01*
X160567714Y88018880D01*
X160615333Y87923642D01*
X160615333Y87780785D01*
X160567714Y87685547D01*
X160520095Y87637928D01*
X160424857Y87590309D01*
X160043904Y87590309D01*
X161091523Y87114119D02*
X161282000Y87114119D01*
X161377238Y87161738D01*
X161424857Y87209357D01*
X161520095Y87352214D01*
X161567714Y87542690D01*
X161567714Y87923642D01*
X161520095Y88018880D01*
X161472476Y88066500D01*
X161377238Y88114119D01*
X161186761Y88114119D01*
X161091523Y88066500D01*
X161043904Y88018880D01*
X160996285Y87923642D01*
X160996285Y87685547D01*
X161043904Y87590309D01*
X161091523Y87542690D01*
X161186761Y87495071D01*
X161377238Y87495071D01*
X161472476Y87542690D01*
X161520095Y87590309D01*
X161567714Y87685547D01*
X-57824666Y111307619D02*
X-58158000Y111783809D01*
X-58396095Y111307619D02*
X-58396095Y112307619D01*
X-58015142Y112307619D01*
X-57919904Y112260000D01*
X-57872285Y112212380D01*
X-57824666Y112117142D01*
X-57824666Y111974285D01*
X-57872285Y111879047D01*
X-57919904Y111831428D01*
X-58015142Y111783809D01*
X-58396095Y111783809D01*
X-56967523Y112307619D02*
X-57158000Y112307619D01*
X-57253238Y112260000D01*
X-57300857Y112212380D01*
X-57396095Y112069523D01*
X-57443714Y111879047D01*
X-57443714Y111498095D01*
X-57396095Y111402857D01*
X-57348476Y111355238D01*
X-57253238Y111307619D01*
X-57062761Y111307619D01*
X-56967523Y111355238D01*
X-56919904Y111402857D01*
X-56872285Y111498095D01*
X-56872285Y111736190D01*
X-56919904Y111831428D01*
X-56967523Y111879047D01*
X-57062761Y111926666D01*
X-57253238Y111926666D01*
X-57348476Y111879047D01*
X-57396095Y111831428D01*
X-57443714Y111736190D01*
X50569904Y198493119D02*
X50569904Y199493119D01*
X50950857Y199493119D01*
X51046095Y199445500D01*
X51093714Y199397880D01*
X51141333Y199302642D01*
X51141333Y199159785D01*
X51093714Y199064547D01*
X51046095Y199016928D01*
X50950857Y198969309D01*
X50569904Y198969309D01*
X51474666Y199493119D02*
X52093714Y199493119D01*
X51760380Y199112166D01*
X51903238Y199112166D01*
X51998476Y199064547D01*
X52046095Y199016928D01*
X52093714Y198921690D01*
X52093714Y198683595D01*
X52046095Y198588357D01*
X51998476Y198540738D01*
X51903238Y198493119D01*
X51617523Y198493119D01*
X51522285Y198540738D01*
X51474666Y198588357D01*
X-68048095Y154741619D02*
X-68048095Y155741619D01*
X-67667142Y155741619D01*
X-67571904Y155694000D01*
X-67524285Y155646380D01*
X-67476666Y155551142D01*
X-67476666Y155408285D01*
X-67524285Y155313047D01*
X-67571904Y155265428D01*
X-67667142Y155217809D01*
X-68048095Y155217809D01*
X-67095714Y155646380D02*
X-67048095Y155694000D01*
X-66952857Y155741619D01*
X-66714761Y155741619D01*
X-66619523Y155694000D01*
X-66571904Y155646380D01*
X-66524285Y155551142D01*
X-66524285Y155455904D01*
X-66571904Y155313047D01*
X-67143333Y154741619D01*
X-66524285Y154741619D01*
X6246904Y173747619D02*
X6246904Y174747619D01*
X6627857Y174747619D01*
X6723095Y174700000D01*
X6770714Y174652380D01*
X6818333Y174557142D01*
X6818333Y174414285D01*
X6770714Y174319047D01*
X6723095Y174271428D01*
X6627857Y174223809D01*
X6246904Y174223809D01*
X7770714Y173747619D02*
X7199285Y173747619D01*
X7485000Y173747619D02*
X7485000Y174747619D01*
X7389761Y174604761D01*
X7294523Y174509523D01*
X7199285Y174461904D01*
X120951666Y223037619D02*
X120951666Y222323333D01*
X120904047Y222180476D01*
X120808809Y222085238D01*
X120665952Y222037619D01*
X120570714Y222037619D01*
X121475476Y222037619D02*
X121665952Y222037619D01*
X121761190Y222085238D01*
X121808809Y222132857D01*
X121904047Y222275714D01*
X121951666Y222466190D01*
X121951666Y222847142D01*
X121904047Y222942380D01*
X121856428Y222990000D01*
X121761190Y223037619D01*
X121570714Y223037619D01*
X121475476Y222990000D01*
X121427857Y222942380D01*
X121380238Y222847142D01*
X121380238Y222609047D01*
X121427857Y222513809D01*
X121475476Y222466190D01*
X121570714Y222418571D01*
X121761190Y222418571D01*
X121856428Y222466190D01*
X121904047Y222513809D01*
X121951666Y222609047D01*
X95551666Y223037619D02*
X95551666Y222323333D01*
X95504047Y222180476D01*
X95408809Y222085238D01*
X95265952Y222037619D01*
X95170714Y222037619D01*
X96170714Y222609047D02*
X96075476Y222656666D01*
X96027857Y222704285D01*
X95980238Y222799523D01*
X95980238Y222847142D01*
X96027857Y222942380D01*
X96075476Y222990000D01*
X96170714Y223037619D01*
X96361190Y223037619D01*
X96456428Y222990000D01*
X96504047Y222942380D01*
X96551666Y222847142D01*
X96551666Y222799523D01*
X96504047Y222704285D01*
X96456428Y222656666D01*
X96361190Y222609047D01*
X96170714Y222609047D01*
X96075476Y222561428D01*
X96027857Y222513809D01*
X95980238Y222418571D01*
X95980238Y222228095D01*
X96027857Y222132857D01*
X96075476Y222085238D01*
X96170714Y222037619D01*
X96361190Y222037619D01*
X96456428Y222085238D01*
X96504047Y222132857D01*
X96551666Y222228095D01*
X96551666Y222418571D01*
X96504047Y222513809D01*
X96456428Y222561428D01*
X96361190Y222609047D01*
X50974666Y222353119D02*
X50974666Y221638833D01*
X50927047Y221495976D01*
X50831809Y221400738D01*
X50688952Y221353119D01*
X50593714Y221353119D01*
X51879428Y222353119D02*
X51688952Y222353119D01*
X51593714Y222305500D01*
X51546095Y222257880D01*
X51450857Y222115023D01*
X51403238Y221924547D01*
X51403238Y221543595D01*
X51450857Y221448357D01*
X51498476Y221400738D01*
X51593714Y221353119D01*
X51784190Y221353119D01*
X51879428Y221400738D01*
X51927047Y221448357D01*
X51974666Y221543595D01*
X51974666Y221781690D01*
X51927047Y221876928D01*
X51879428Y221924547D01*
X51784190Y221972166D01*
X51593714Y221972166D01*
X51498476Y221924547D01*
X51450857Y221876928D01*
X51403238Y221781690D01*
X56880166Y76620619D02*
X56880166Y75906333D01*
X56832547Y75763476D01*
X56737309Y75668238D01*
X56594452Y75620619D01*
X56499214Y75620619D01*
X57784928Y76287285D02*
X57784928Y75620619D01*
X57546833Y76668238D02*
X57308738Y75953952D01*
X57927785Y75953952D01*
X56880166Y71477119D02*
X56880166Y70762833D01*
X56832547Y70619976D01*
X56737309Y70524738D01*
X56594452Y70477119D01*
X56499214Y70477119D01*
X57261119Y71477119D02*
X57880166Y71477119D01*
X57546833Y71096166D01*
X57689690Y71096166D01*
X57784928Y71048547D01*
X57832547Y71000928D01*
X57880166Y70905690D01*
X57880166Y70667595D01*
X57832547Y70572357D01*
X57784928Y70524738D01*
X57689690Y70477119D01*
X57403976Y70477119D01*
X57308738Y70524738D01*
X57261119Y70572357D01*
X30464166Y217019119D02*
X30464166Y216304833D01*
X30416547Y216161976D01*
X30321309Y216066738D01*
X30178452Y216019119D01*
X30083214Y216019119D01*
X30892738Y216923880D02*
X30940357Y216971500D01*
X31035595Y217019119D01*
X31273690Y217019119D01*
X31368928Y216971500D01*
X31416547Y216923880D01*
X31464166Y216828642D01*
X31464166Y216733404D01*
X31416547Y216590547D01*
X30845119Y216019119D01*
X31464166Y216019119D01*
X-49569595Y203827119D02*
X-49569595Y204827119D01*
X-49331500Y204827119D01*
X-49188642Y204779500D01*
X-49093404Y204684261D01*
X-49045785Y204589023D01*
X-48998166Y204398547D01*
X-48998166Y204255690D01*
X-49045785Y204065214D01*
X-49093404Y203969976D01*
X-49188642Y203874738D01*
X-49331500Y203827119D01*
X-49569595Y203827119D01*
X-48141023Y204493785D02*
X-48141023Y203827119D01*
X-48379119Y204874738D02*
X-48617214Y204160452D01*
X-47998166Y204160452D01*
X-72493095Y214622119D02*
X-72493095Y215622119D01*
X-72255000Y215622119D01*
X-72112142Y215574500D01*
X-72016904Y215479261D01*
X-71969285Y215384023D01*
X-71921666Y215193547D01*
X-71921666Y215050690D01*
X-71969285Y214860214D01*
X-72016904Y214764976D01*
X-72112142Y214669738D01*
X-72255000Y214622119D01*
X-72493095Y214622119D01*
X-71588333Y215622119D02*
X-70969285Y215622119D01*
X-71302619Y215241166D01*
X-71159761Y215241166D01*
X-71064523Y215193547D01*
X-71016904Y215145928D01*
X-70969285Y215050690D01*
X-70969285Y214812595D01*
X-71016904Y214717357D01*
X-71064523Y214669738D01*
X-71159761Y214622119D01*
X-71445476Y214622119D01*
X-71540714Y214669738D01*
X-71588333Y214717357D01*
X-57256095Y99814119D02*
X-57256095Y100814119D01*
X-57018000Y100814119D01*
X-56875142Y100766500D01*
X-56779904Y100671261D01*
X-56732285Y100576023D01*
X-56684666Y100385547D01*
X-56684666Y100242690D01*
X-56732285Y100052214D01*
X-56779904Y99956976D01*
X-56875142Y99861738D01*
X-57018000Y99814119D01*
X-57256095Y99814119D01*
X-56303714Y100718880D02*
X-56256095Y100766500D01*
X-56160857Y100814119D01*
X-55922761Y100814119D01*
X-55827523Y100766500D01*
X-55779904Y100718880D01*
X-55732285Y100623642D01*
X-55732285Y100528404D01*
X-55779904Y100385547D01*
X-56351333Y99814119D01*
X-55732285Y99814119D01*
X-58015095Y89082619D02*
X-58015095Y90082619D01*
X-57777000Y90082619D01*
X-57634142Y90035000D01*
X-57538904Y89939761D01*
X-57491285Y89844523D01*
X-57443666Y89654047D01*
X-57443666Y89511190D01*
X-57491285Y89320714D01*
X-57538904Y89225476D01*
X-57634142Y89130238D01*
X-57777000Y89082619D01*
X-58015095Y89082619D01*
X-56491285Y89082619D02*
X-57062714Y89082619D01*
X-56777000Y89082619D02*
X-56777000Y90082619D01*
X-56872238Y89939761D01*
X-56967476Y89844523D01*
X-57062714Y89796904D01*
X-56586285Y208525357D02*
X-56633904Y208477738D01*
X-56776761Y208430119D01*
X-56872000Y208430119D01*
X-57014857Y208477738D01*
X-57110095Y208572976D01*
X-57157714Y208668214D01*
X-57205333Y208858690D01*
X-57205333Y209001547D01*
X-57157714Y209192023D01*
X-57110095Y209287261D01*
X-57014857Y209382500D01*
X-56872000Y209430119D01*
X-56776761Y209430119D01*
X-56633904Y209382500D01*
X-56586285Y209334880D01*
X-55967238Y209430119D02*
X-55776761Y209430119D01*
X-55681523Y209382500D01*
X-55586285Y209287261D01*
X-55538666Y209096785D01*
X-55538666Y208763452D01*
X-55586285Y208572976D01*
X-55681523Y208477738D01*
X-55776761Y208430119D01*
X-55967238Y208430119D01*
X-56062476Y208477738D01*
X-56157714Y208572976D01*
X-56205333Y208763452D01*
X-56205333Y209096785D01*
X-56157714Y209287261D01*
X-56062476Y209382500D01*
X-55967238Y209430119D01*
X-55110095Y208430119D02*
X-55110095Y209430119D01*
X-54538666Y208430119D01*
X-54538666Y209430119D01*
X-53538666Y208430119D02*
X-54110095Y208430119D01*
X-53824380Y208430119D02*
X-53824380Y209430119D01*
X-53919619Y209287261D01*
X-54014857Y209192023D01*
X-54110095Y209144404D01*
X26725642Y171156357D02*
X26678023Y171108738D01*
X26535166Y171061119D01*
X26439928Y171061119D01*
X26297071Y171108738D01*
X26201833Y171203976D01*
X26154214Y171299214D01*
X26106595Y171489690D01*
X26106595Y171632547D01*
X26154214Y171823023D01*
X26201833Y171918261D01*
X26297071Y172013500D01*
X26439928Y172061119D01*
X26535166Y172061119D01*
X26678023Y172013500D01*
X26725642Y171965880D01*
X27678023Y171061119D02*
X27106595Y171061119D01*
X27392309Y171061119D02*
X27392309Y172061119D01*
X27297071Y171918261D01*
X27201833Y171823023D01*
X27106595Y171775404D01*
X28535166Y171727785D02*
X28535166Y171061119D01*
X28297071Y172108738D02*
X28058976Y171394452D01*
X28678023Y171394452D01*
X26725642Y174140857D02*
X26678023Y174093238D01*
X26535166Y174045619D01*
X26439928Y174045619D01*
X26297071Y174093238D01*
X26201833Y174188476D01*
X26154214Y174283714D01*
X26106595Y174474190D01*
X26106595Y174617047D01*
X26154214Y174807523D01*
X26201833Y174902761D01*
X26297071Y174998000D01*
X26439928Y175045619D01*
X26535166Y175045619D01*
X26678023Y174998000D01*
X26725642Y174950380D01*
X27678023Y174045619D02*
X27106595Y174045619D01*
X27392309Y174045619D02*
X27392309Y175045619D01*
X27297071Y174902761D01*
X27201833Y174807523D01*
X27106595Y174759904D01*
X28011357Y175045619D02*
X28630404Y175045619D01*
X28297071Y174664666D01*
X28439928Y174664666D01*
X28535166Y174617047D01*
X28582785Y174569428D01*
X28630404Y174474190D01*
X28630404Y174236095D01*
X28582785Y174140857D01*
X28535166Y174093238D01*
X28439928Y174045619D01*
X28154214Y174045619D01*
X28058976Y174093238D01*
X28011357Y174140857D01*
X26662142Y177506357D02*
X26614523Y177458738D01*
X26471666Y177411119D01*
X26376428Y177411119D01*
X26233571Y177458738D01*
X26138333Y177553976D01*
X26090714Y177649214D01*
X26043095Y177839690D01*
X26043095Y177982547D01*
X26090714Y178173023D01*
X26138333Y178268261D01*
X26233571Y178363500D01*
X26376428Y178411119D01*
X26471666Y178411119D01*
X26614523Y178363500D01*
X26662142Y178315880D01*
X27614523Y177411119D02*
X27043095Y177411119D01*
X27328809Y177411119D02*
X27328809Y178411119D01*
X27233571Y178268261D01*
X27138333Y178173023D01*
X27043095Y178125404D01*
X27995476Y178315880D02*
X28043095Y178363500D01*
X28138333Y178411119D01*
X28376428Y178411119D01*
X28471666Y178363500D01*
X28519285Y178315880D01*
X28566904Y178220642D01*
X28566904Y178125404D01*
X28519285Y177982547D01*
X27947857Y177411119D01*
X28566904Y177411119D01*
X151614285Y83001428D02*
X151757142Y82953809D01*
X151804761Y82906190D01*
X151852380Y82810952D01*
X151852380Y82668095D01*
X151804761Y82572857D01*
X151757142Y82525238D01*
X151661904Y82477619D01*
X151280952Y82477619D01*
X151280952Y83477619D01*
X151614285Y83477619D01*
X151709523Y83430000D01*
X151757142Y83382380D01*
X151804761Y83287142D01*
X151804761Y83191904D01*
X151757142Y83096666D01*
X151709523Y83049047D01*
X151614285Y83001428D01*
X151280952Y83001428D01*
X152138095Y83477619D02*
X152709523Y83477619D01*
X152423809Y82477619D02*
X152423809Y83477619D01*
X153566666Y82477619D02*
X152995238Y82477619D01*
X153280952Y82477619D02*
X153280952Y83477619D01*
X153185714Y83334761D01*
X153090476Y83239523D01*
X152995238Y83191904D01*
M02*
