M48
; DRILL file {KiCad 5.1.5+dfsg1-2build2} date Thu 04 Nov 2021 14:18:09 GMT
; FORMAT={-:-/ absolute / inch / decimal}
; #@! TF.CreationDate,2021-11-04T14:18:09+00:00
; #@! TF.GenerationSoftware,Kicad,Pcbnew,5.1.5+dfsg1-2build2
; #@! TF.FileFunction,Plated,1,4,PTH
FMAT,2
INCH
T1C0.0080
T2C0.0180
T3C0.0299
T4C0.0310
T5C0.0315
T6C0.0350
T7C0.0354
T8C0.0354
T9C0.0360
T10C0.0394
T11C0.0400
T12C0.0630
T13C0.0669
T14C0.0800
T15C0.0960
T16C0.1260
T17C0.1260
%
G90
G05
T1
X-2.825Y8.25
X-2.7Y8.25
X-2.625Y3.4
X-2.45Y3.95
X-2.35Y3.95
X-2.25Y3.5225
X-2.25Y3.4
X-2.1625Y3.345
X-2.0375Y7.465
X-2.0375Y7.39
X-2.0375Y7.3375
X-2.0375Y7.285
X-2.0225Y7.4375
X-2.0225Y7.3625
X-2.0225Y7.31
X-2.0225Y7.2575
X-2.0125Y5.725
X-2.0125Y5.675
X-2.0125Y5.625
X-2.0125Y5.375
X-2.01Y5.575
X-2.01Y5.525
X-2.01Y5.475
X-2.01Y5.425
X-2.01Y5.175
X-2.01Y5.125
X-2.01Y5.075
X-2.01Y5.025
X-2.01Y4.975
X-2.01Y4.925
X-2.01Y4.875
X-2.01Y4.825
X-1.935Y3.945
X-1.9325Y5.23
X-1.9325Y5.1525
X-1.925Y8.6
X-1.925Y8.285
X-1.925Y8.1575
X-1.9Y3.925
X-1.8675Y7.235
X-1.855Y5.5975
X-1.8Y7.2925
X-1.775Y3.3
X-1.7675Y7.095
X-1.7425Y6.8175
X-1.7275Y3.1725
X-1.725Y3.445
X-1.695Y7.205
X-1.6925Y6.7975
X-1.675Y3.605
X-1.6675Y6.7775
X-1.65Y3.0925
X-1.64Y6.7575
X-1.6275Y3.1525
X-1.625Y6.0275
X-1.625Y3.605
X-1.615Y6.7375
X-1.6075Y5.2475
X-1.6Y5.0025
X-1.596Y5.55
X-1.5925Y4.77
X-1.5875Y5.4375
X-1.585Y4.26
X-1.575Y3.605
X-1.5725Y4.79
X-1.55Y5.0075
X-1.55Y3.0725
X-1.5475Y4.81
X-1.5375Y5.69
X-1.525Y4.83
X-1.525Y3.605
X-1.525Y3.1325
X-1.52Y5.46
X-1.5175Y4.8875
X-1.5175Y4.8575
X-1.495Y5.485
X-1.4875Y7.875
X-1.4775Y3.6037
X-1.475Y7.12
X-1.4625Y7.8
X-1.45Y8.425
X-1.45Y3.0525
X-1.4375Y7.655
X-1.425Y3.6025
X-1.4225Y3.9575
X-1.4Y5.2625
X-1.3975Y5.43
X-1.3775Y3.1125
X-1.375Y3.6
X-1.36Y5.15
X-1.3225Y5.0625
X-1.3225Y3.6025
X-1.305Y3.9725
X-1.2875Y5.035
X-1.26Y3.0325
X-1.225Y3.3
X-1.2025Y3.1725
X-1.2Y4.9475
X-1.175Y3.445
X-1.175Y3.0925
X-1.145Y4.9275
X-1.1375Y5.55
X-1.125Y3.58
X-1.115Y7.515
X-1.1125Y5.0275
X-1.11Y5.17
X-1.1Y3.1525
X-1.095Y7.145
X-1.095Y4.9125
X-1.0925Y7.4125
X-1.0925Y7.3625
X-1.0925Y7.31
X-1.0925Y7.26
X-1.09Y5.1275
X-1.085Y7.4875
X-1.08Y7.44
X-1.08Y5.2325
X-1.0775Y7.3875
X-1.0775Y7.3375
X-1.0775Y7.285
X-1.075Y3.58
X-1.0725Y3.0725
X-1.025Y3.58
X-1.0075Y4.255
X-1.0025Y3.135
X-0.995Y4.1675
X-0.9925Y5.2
X-0.975Y8.6
X-0.975Y3.58
X-0.975Y3.0525
X-0.9725Y5.3925
X-0.9675Y4.1875
X-0.9625Y5.225
X-0.95Y5.4275
X-0.9475Y5.46
X-0.9375Y6.9275
X-0.9325Y7.9625
X-0.9325Y7.21
X-0.9325Y7.1825
X-0.9325Y4.23
X-0.93Y5.1825
X-0.925Y3.58
X-0.9075Y6.9275
X-0.9075Y4.355
X-0.9Y3.1125
X-0.89Y6.81
X-0.8775Y3.58
X-0.875Y3.0325
X-0.8575Y5.3975
X-0.8575Y5.37
X-0.8325Y5.36
X-0.825Y3.58
X-0.8075Y5.3475
X-0.8025Y4.32
X-0.785Y4.2475
X-0.7825Y5.335
X-0.78Y4.28
X-0.7775Y3.5775
X-0.775Y7.9
X-0.775Y4.5275
X-0.755Y5.3225
X-0.7475Y4.54
X-0.7275Y5.31
X-0.72Y4.4
X-0.7Y5.2975
X-0.675Y5.285
X-0.65Y5.2725
X-0.645Y4.39
X-0.625Y7.9575
X-0.625Y5.26
X-0.6175Y4.6375
X-0.6Y5.245
X-0.595Y4.4275
X-0.575Y5.2325
X-0.5725Y4.54
X-0.5625Y4.455
X-0.5575Y7.6
X-0.55Y6.7
X-0.55Y5.2225
X-0.5475Y7.05
X-0.5275Y4.525
X-0.525Y5.21
X-0.52Y4.56
X-0.5Y5.1975
X-0.49Y4.6
X-0.475Y5.185
X-0.4625Y7.2125
X-0.45Y6.75
X-0.445Y7.09
X-0.365Y7.235
X-0.35Y6.725
X-0.35Y5.1075
X-0.27Y4.285
X-0.27Y4.145
X-0.2675Y7.205
X-0.25Y6.775
X-0.125Y6.6775
X-0.1Y7.5775
X-0.075Y7.85
X-0.05Y7.5775
X-0.0399Y4.6699
X-0.0075Y4.69
X0.0Y7.5775
X0.005Y4.7325
X0.01Y4.8275
X0.01Y4.7875
X0.025Y6.81
X0.0275Y7.5775
X0.0275Y5.4525
X0.0325Y4.8075
X0.0325Y4.7675
X0.0325Y4.71
X0.0475Y7.5425
X0.06Y5.505
X0.08Y5.525
X0.19Y6.9375
X0.265Y7.2825
X0.325Y7.8
X0.325Y7.5125
X0.3425Y5.72
X0.3625Y5.7375
X0.375Y3.3
X0.3825Y5.755
X0.4Y5.5175
X0.4225Y5.755
X0.424Y5.546
X0.425Y3.445
X0.425Y3.1725
X0.43Y7.24
X0.4375Y4.49
X0.4475Y5.58
X0.45Y7.6
X0.45Y7.2125
X0.45Y6.75
X0.45Y3.0925
X0.47Y7.19
X0.475Y3.7175
X0.5075Y4.5925
X0.525Y7.5
X0.525Y3.7175
X0.525Y3.1525
X0.5525Y3.0725
X0.575Y3.7175
X0.5775Y5.52
X0.615Y6.2175
X0.6225Y3.7175
X0.625Y3.1325
X0.645Y6.195
X0.645Y6.165
X0.645Y6.1375
X0.65Y7.375
X0.65Y6.0475
X0.65Y6.02
X0.65Y5.9925
X0.65Y5.965
X0.65Y5.935
X0.65Y5.9075
X0.65Y5.88
X0.65Y5.8525
X0.65Y5.825
X0.65Y5.7975
X0.65Y3.0525
X0.675Y7.275
X0.675Y3.7175
X0.6825Y5.8025
X0.6975Y5.6975
X0.7075Y6.245
X0.7175Y5.725
X0.725Y3.7175
X0.725Y3.1125
X0.7375Y5.6975
X0.7375Y5.555
X0.75Y3.0325
X0.7575Y5.7225
X0.7675Y5.5575
X0.775Y3.7175
X0.7775Y5.6975
X0.7975Y5.7225
X0.8Y7.625
X0.825Y3.7175
X0.8375Y5.7225
X0.8575Y5.6975
X0.9075Y7.375
X0.915Y3.2675
X0.9275Y6.875
X0.9275Y6.75
X0.955Y3.7125
X0.9742Y5.7017
X0.9939Y5.7239
X1.015Y5.705
X1.0525Y5.705
X1.0725Y5.725
X1.0925Y5.7075
X1.1125Y6.2725
X1.1125Y5.73
X1.115Y4.898
X1.115Y4.8675
X1.1325Y5.7075
X1.14Y6.2725
X1.1525Y5.7275
X1.16Y6.625
X1.1625Y7.4125
X1.1675Y6.2725
X1.1725Y5.7075
X1.1725Y4.14
X1.18Y6.65
X1.1825Y7.6875
X1.195Y6.2725
X1.1975Y4.1525
X1.2Y6.675
X1.21Y5.7275
X1.225Y4.15
X1.23Y5.71
X1.25Y5.7275
X1.25Y4.14
X1.2695Y4.16
X1.27Y5.71
X1.272Y7.794
X1.29Y5.7275
X1.29Y4.1325
X1.31Y4.16
X1.3125Y5.7125
X1.315Y8.4
X1.325Y3.3
X1.3275Y7.3275
X1.3275Y4.6425
X1.3325Y4.1825
X1.344Y7.794
X1.3525Y4.2175
X1.365Y7.445
X1.375Y3.445
X1.3775Y4.5475
X1.3875Y5.71
X1.4Y3.1725
X1.425Y3.0925
X1.435Y6.1325
X1.445Y7.6525
X1.445Y6.725
X1.4475Y5.71
X1.46Y6.125
X1.4625Y7.2825
X1.4625Y6.675
X1.48Y5.5925
X1.4825Y6.6275
X1.485Y6.115
X1.4925Y7.41
X1.5Y5.57
X1.5Y3.1525
X1.5075Y6.575
X1.515Y6.115
X1.525Y3.0725
X1.5275Y6.7475
X1.5275Y6.1575
X1.5475Y6.7725
X1.5475Y6.1825
X1.5675Y6.825
X1.5675Y6.2025
X1.5775Y5.9425
X1.585Y6.875
X1.5875Y6.23
X1.6Y3.1325
X1.605Y5.92
X1.6175Y6.27
X1.625Y7.865
X1.625Y3.0525
X1.6375Y6.325
X1.6375Y4.5525
X1.64Y5.2425
X1.64Y5.2025
X1.64Y5.1225
X1.64Y5.0825
X1.64Y5.025
X1.64Y4.985
X1.64Y4.925
X1.64Y4.885
X1.6425Y5.3975
X1.6425Y5.34
X1.645Y5.4725
X1.65Y5.365
X1.6525Y7.35
X1.6525Y5.315
X1.6525Y4.3925
X1.655Y5.2875
X1.66Y5.4175
X1.66Y5.2225
X1.66Y5.1825
X1.66Y5.1025
X1.66Y4.85
X1.6625Y5.4525
X1.6625Y5.2625
X1.6625Y5.045
X1.6625Y5.005
X1.6625Y4.945
X1.6625Y4.905
X1.665Y5.5375
X1.7Y3.1125
X1.725Y3.0325
X1.75Y7.335
X1.7588Y7.1063
X1.7625Y6.605
X1.78Y4.8525
X1.78Y4.4825
X1.8Y6.175
X1.8025Y4.5025
X1.825Y4.5225
X1.8475Y4.5375
X1.855Y6.3475
X1.8575Y3.2675
X1.87Y4.555
X1.875Y6.37
X1.8975Y6.3925
X1.9Y7.445
X1.95Y7.65
X1.95Y7.31
X1.9525Y7.45
X1.965Y7.1425
X1.975Y4.425
X1.9775Y3.965
X1.98Y8.4
X1.9975Y4.4075
X2.0Y7.71
X2.0025Y3.9525
X2.0225Y4.395
X2.0375Y3.94
X2.05Y8.1
X2.0825Y6.7
X2.095Y7.375
X2.1025Y5.9225
X2.1025Y5.895
X2.1025Y5.865
X2.1025Y5.8375
X2.12Y5.375
X2.1225Y6.725
X2.1225Y6.675
X2.1225Y6.6275
X2.1225Y6.575
X2.1225Y6.325
X2.1225Y6.2725
X2.1225Y6.175
X2.1225Y6.125
X2.1225Y6.075
X2.1225Y6.025
X2.1225Y5.775
X2.1225Y5.725
X2.1225Y5.675
X2.1225Y5.625
X2.1225Y5.575
X2.1225Y5.525
X2.1225Y5.475
X2.1225Y5.425
X2.1425Y2.635
X2.16Y5.2925
X2.165Y2.665
X2.165Y2.6
X2.1725Y7.45
X2.1725Y7.35
X2.1875Y8.13
X2.19Y5.2925
X2.1925Y4.4475
X2.1975Y2.565
X2.215Y8.0325
X2.22Y5.2925
X2.22Y2.7925
X2.2275Y7.275
X2.2325Y3.005
X2.235Y2.6425
X2.2475Y8.0325
X2.2475Y6.975
X2.2475Y5.2925
X2.25Y6.375
X2.2525Y2.825
X2.26Y2.6975
X2.2675Y3.555
X2.27Y3.9625
X2.2775Y8.0325
X2.285Y7.315
X2.2875Y2.565
X2.2925Y3.5475
X2.305Y3.965
X2.3075Y8.0325
X2.32Y3.2775
X2.3225Y7.5025
X2.3375Y4.4625
X2.34Y3.965
X2.3425Y8.035
X2.3675Y3.4975
X2.3675Y3.4625
X2.3725Y8.035
X2.375Y3.255
X2.4Y6.9225
X2.4Y6.875
X2.4Y6.825
X2.4Y6.7725
X2.4Y6.325
X2.405Y8.035
X2.405Y6.725
X2.405Y3.8025
X2.41Y5.725
X2.4175Y3.005
X2.4225Y7.2225
X2.4375Y8.035
X2.4575Y4.395
X2.465Y8.13
X2.4675Y4.9
X2.49Y4.88
X2.5Y4.855
X2.5125Y4.3925
X2.5175Y6.025
X2.52Y4.875
X2.5225Y5.625
X2.5325Y3.965
X2.5325Y3.8625
X2.5325Y3.835
X2.535Y5.6775
X2.535Y4.4075
X2.54Y5.975
X2.54Y4.8525
X2.5425Y4.4325
X2.5525Y4.4575
X2.56Y4.87
X2.5625Y3.9525
X2.565Y5.575
X2.565Y5.5475
X2.5675Y4.48
X2.58Y8.6775
X2.58Y4.8525
X2.58Y4.505
X2.5875Y5.495
X2.5925Y5.1975
X2.595Y7.4525
X2.595Y5.52
X2.6Y8.705
X2.6025Y4.87
X2.62Y7.55
X2.625Y4.8525
X2.6375Y4.525
X2.6475Y4.87
X2.67Y4.8525
X2.69Y4.87
X2.75Y4.52
X2.75Y2.36
X2.775Y4.535
X2.8Y4.86
X2.825Y4.545
X2.875Y4.555
X2.875Y2.3325
X2.925Y4.565
X2.965Y6.2
X2.975Y4.575
X2.9875Y3.1675
X2.995Y6.15
X3.025Y4.585
X3.0275Y6.3
X3.0525Y2.475
X3.06Y6.25
X3.075Y4.595
X3.08Y3.4825
X3.09Y6.4
X3.115Y3.1675
X3.1225Y6.35
X3.125Y4.605
X3.13Y2.775
X3.1325Y2.34
X3.1525Y6.5
X3.185Y6.45
X3.205Y8.56
X3.205Y5.65
X3.2275Y5.7425
X3.23Y8.4825
X3.265Y6.6
X3.29Y3.105
X3.2975Y6.55
X3.3Y4.52
X3.3157Y2.4318
X3.325Y4.535
X3.3275Y6.7
X3.35Y3.4475
X3.35Y3.16
X3.36Y6.65
X3.36Y4.6525
X3.375Y4.545
X3.3825Y2.97
X3.3925Y6.8
X3.4075Y2.34
X3.4125Y3.9225
X3.4225Y6.75
X3.425Y4.555
X3.4425Y3.5625
X3.445Y3.965
X3.455Y6.9
X3.455Y3.8875
X3.4625Y3.9425
X3.4625Y3.8625
X3.475Y4.565
X3.485Y6.85
X3.5125Y3.2775
X3.524Y2.396
X3.525Y4.575
X3.56Y2.7775
X3.56Y2.396
X3.57Y2.4475
X3.575Y4.585
X3.625Y4.595
X3.6525Y8.6925
X3.66Y4.0
X3.67Y2.4575
X3.675Y4.605
X3.6775Y3.96
X3.68Y3.365
X3.6875Y3.2725
X3.695Y4.01
X3.7225Y4.0375
X3.745Y3.0675
X3.775Y2.9825
X3.785Y5.1825
X3.7975Y3.0825
X3.8175Y4.0375
X3.8375Y8.7125
X3.857Y3.183
X3.86Y4.0375
X3.8675Y2.885
X3.9925Y3.6
X4.0025Y2.49
X4.04Y3.62
X4.04Y2.4075
X4.06Y3.87
X4.0625Y2.36
X4.075Y2.8925
X4.09Y3.8825
X4.1Y4.525
X4.12Y3.895
X4.125Y4.535
X4.1325Y3.83
X4.145Y8.54
X4.145Y5.65
X4.15Y4.8525
X4.165Y8.4825
X4.165Y5.75
X4.17Y2.6225
X4.175Y4.545
X4.21Y3.9575
X4.21Y3.6925
X4.215Y7.0
X4.225Y4.555
X4.245Y6.95
X4.275Y4.565
X4.2775Y7.1
X4.29Y3.9075
X4.29Y3.6575
X4.31Y7.05
X4.3225Y4.0825
X4.3225Y3.7225
X4.325Y4.575
X4.34Y7.2
X4.37Y4.0625
X4.3725Y7.15
X4.375Y4.585
X4.405Y7.3
X4.4175Y3.5325
X4.425Y4.595
X4.435Y7.25
X4.465Y4.055
X4.465Y4.0225
X4.475Y4.605
X4.52Y2.54
X4.5325Y4.0025
X4.55Y2.925
X4.5675Y3.985
X4.6225Y3.965
X4.665Y5.005
X4.67Y3.9425
X4.725Y4.405
X4.775Y3.9775
X4.7775Y4.975
X4.8Y5.1725
X4.8125Y3.2225
X4.8225Y3.99
X4.83Y3.26
X4.8525Y3.1225
X4.8575Y8.7475
X4.875Y4.0
X4.9075Y3.78
X4.91Y2.385
X4.9125Y8.7475
X4.925Y4.015
X4.93Y3.6825
X4.9625Y3.805
X4.9775Y4.0275
X4.99Y3.105
X5.0125Y2.925
X5.025Y4.04
X5.025Y2.3125
X5.04Y7.95
X5.07Y3.16
X5.0725Y8.0
X5.075Y4.0525
X5.0925Y3.1825
X5.0925Y3.0275
X5.1025Y7.85
X5.105Y3.0925
X5.1125Y2.6975
X5.125Y4.065
X5.13Y3.065
X5.1325Y2.58
X5.135Y7.9
X5.1625Y7.75
X5.1975Y7.8
X5.1975Y3.0675
X5.2125Y2.9775
X5.2125Y2.7825
X5.2125Y2.36
X5.2275Y2.57
X5.23Y7.65
X5.26Y7.7
X5.275Y4.405
X5.28Y8.5625
X5.28Y5.65
X5.2975Y2.45
X5.3Y8.5225
X5.3Y5.75
X5.31Y4.9575
X5.325Y4.0775
X5.33Y2.66
X5.34Y8.35
X5.35Y2.8725
X5.35Y2.8375
X5.3575Y3.02
X5.365Y3.5025
X5.37Y8.4
X5.375Y2.965
X5.38Y4.09
X5.4Y2.9225
X5.405Y8.25
X5.4175Y3.3625
X5.4225Y3.53
X5.4275Y4.1025
X5.435Y8.3
X5.435Y2.7225
X5.455Y3.85
X5.465Y8.15
X5.475Y3.48
X5.4775Y4.115
X5.4975Y8.2
X5.525Y4.1275
X5.5275Y3.58
X5.53Y8.05
X5.56Y8.1
X5.575Y4.14
X5.575Y3.3825
X5.625Y4.1525
X5.625Y3.5475
X5.675Y4.1725
X5.675Y3.2775
X6.0375Y7.41
X6.06Y7.59
X6.06Y7.5375
X6.06Y7.4375
X6.12Y3.83
X6.13Y4.9625
X6.145Y4.94
X6.145Y3.605
X6.1475Y7.515
X6.155Y7.4625
X6.16Y4.9175
X6.17Y7.4875
X6.205Y8.395
X6.205Y8.105
X6.205Y7.995
X6.205Y7.705
X6.205Y7.295
X6.205Y7.005
X6.205Y6.895
X6.205Y6.605
X6.205Y6.495
X6.205Y6.205
X6.2525Y3.4
X6.255Y3.6075
X6.255Y3.29
X6.2551Y3.4999
X6.29Y7.56
X6.29Y7.4625
X6.2975Y7.385
X6.305Y3.55
X6.385Y7.435
X6.3875Y7.59
X6.405Y7.4125
T2
X-2.575Y6.975
X-2.5713Y6.7787
X-2.475Y6.975
X-2.4713Y6.7787
X-2.45Y7.35
X-2.35Y7.75
X-2.35Y7.65
X-2.275Y4.825
X-2.2625Y5.375
X-2.25Y7.35
X-2.25Y7.175
X-2.25Y7.025
X-2.25Y6.875
X-2.2375Y5.2525
X-2.235Y5.8325
X-2.125Y7.55
X-2.075Y7.875
X-1.8725Y7.4125
X-1.87Y7.5675
X-1.75Y3.375
X-1.7175Y7.09
X-1.5925Y4.5525
X-1.54Y7.6075
X-1.5125Y7.12
X-1.4375Y7.175
X-1.4Y7.0925
X-1.35Y3.375
X-1.32Y7.5925
X-1.2Y3.375
X-1.175Y7.0925
X-1.1325Y7.4825
X-0.8Y3.375
X-0.695Y7.3
X-0.675Y6.35
X-0.675Y6.15
X-0.5051Y7.4325
X-0.37Y6.05
X-0.355Y6.39
X-0.35Y6.125
X-0.3Y7.56
X-0.25Y7.7425
X-0.25Y6.375
X-0.2Y7.03
X-0.1875Y6.1275
X-0.075Y6.0975
X0.0125Y6.34
X0.15Y6.38
X0.195Y7.3025
X0.31Y4.944
X0.314Y4.828
X0.318Y5.26
X0.318Y4.544
X0.32Y4.405
X0.3225Y4.4725
X0.33Y5.442
X0.364Y4.752
X0.3675Y5.586
X0.372Y5.41
X0.4Y3.375
X0.46Y4.706
X0.478Y5.558
X0.5075Y5.1325
X0.5075Y4.365
X0.546Y5.264
X0.5825Y4.51
X0.62Y5.424
X0.64Y5.125
X0.68Y5.55
X0.685Y7.3275
X0.685Y7.22
X0.6925Y4.365
X0.8025Y3.3725
X0.815Y4.365
X0.816Y5.55
X0.8375Y4.51
X0.935Y4.3575
X1.0Y4.3625
X1.052Y5.548
X1.08Y4.49
X1.1925Y4.3625
X1.23Y5.548
X1.245Y7.495
X1.3425Y4.365
X1.346Y5.552
X1.35Y3.375
X1.365Y7.6525
X1.3975Y4.9025
X1.4Y7.5
X1.4Y5.135
X1.4075Y5.26
X1.408Y5.426
X1.4125Y4.5425
X1.4825Y4.645
X1.4875Y4.755
X1.49Y4.865
X1.515Y5.4825
X1.515Y5.2575
X1.52Y5.1325
X1.5333Y4.4533
X1.7475Y3.375
X1.7825Y7.5
X1.8625Y3.375
X1.9175Y7.6
X1.9675Y3.375
X2.025Y3.2825
X2.11Y6.525
X2.275Y5.325
X2.3225Y7.625
X2.3225Y6.325
X2.3225Y5.9725
X2.3275Y7.18
X2.365Y5.74
X2.4225Y7.4925
X2.4425Y7.9575
X2.46Y7.02
X3.115Y2.8475
X3.17Y4.615
X3.2Y4.525
X3.5075Y2.95
X3.75Y4.63
X3.75Y4.525
X4.5075Y4.6225
X4.55Y4.525
X4.6125Y2.75
X4.825Y4.6
X4.83Y2.75
X5.075Y4.6
X5.375Y4.6
X5.625Y4.6
X5.8075Y3.1425
X5.8475Y3.34
X5.8975Y3.64
X5.9875Y3.7775
X6.055Y3.5625
X6.19Y3.14
X6.225Y7.615
X6.225Y7.385
T3
X-0.6Y8.175
X-0.55Y8.275
X-0.5Y8.175
X-0.45Y8.275
T4
X2.72Y3.7225
X2.72Y3.6225
X2.72Y3.5225
X2.72Y3.4225
X2.72Y3.3225
X2.72Y3.2225
X2.72Y3.1225
X2.72Y3.0225
X2.72Y2.9225
X2.72Y2.8225
X2.72Y2.7225
X2.72Y2.6225
X2.72Y2.5225
X2.82Y3.7225
X2.82Y3.6225
X2.82Y3.5225
X2.82Y3.4225
X2.82Y3.3225
X2.82Y3.2225
X2.82Y3.1225
X2.82Y3.0225
X2.82Y2.9225
X2.82Y2.8225
X2.82Y2.7225
X2.82Y2.6225
X2.82Y2.5225
X2.92Y3.7225
X2.92Y3.6225
X2.92Y3.5225
X2.92Y3.4225
X2.92Y3.3225
X2.92Y3.2225
X2.92Y3.1225
X2.92Y3.0225
X2.92Y2.9225
X2.92Y2.8225
X2.92Y2.7225
X2.92Y2.6225
X2.92Y2.5225
X3.02Y3.7225
X3.02Y3.6225
X3.02Y3.5225
X3.02Y3.4225
X3.02Y2.9225
X3.02Y2.8225
X3.02Y2.7225
X3.02Y2.6225
X3.02Y2.5225
X3.12Y3.7225
X3.12Y3.6225
X3.12Y3.5225
X3.12Y2.7225
X3.12Y2.6225
X3.12Y2.5225
X3.22Y3.7225
X3.22Y3.6225
X3.22Y3.5225
X3.22Y3.4225
X3.22Y2.8225
X3.22Y2.7225
X3.22Y2.6225
X3.22Y2.5225
X3.32Y3.7225
X3.32Y3.6225
X3.32Y3.5225
X3.32Y2.7225
X3.32Y2.6225
X3.32Y2.5225
X3.42Y3.7225
X3.42Y3.6225
X3.42Y3.5225
X3.42Y2.7225
X3.42Y2.6225
X3.42Y2.5225
X3.52Y3.7225
X3.52Y3.6225
X3.52Y3.5225
X3.52Y2.7225
X3.52Y2.6225
X3.52Y2.5225
X3.62Y3.7225
X3.62Y3.6225
X3.62Y3.5225
X3.62Y3.4225
X3.62Y2.9225
X3.62Y2.8225
X3.62Y2.7225
X3.62Y2.6225
X3.62Y2.5225
X3.72Y3.7225
X3.72Y3.6225
X3.72Y3.5225
X3.72Y3.4225
X3.72Y3.3225
X3.72Y3.2225
X3.72Y3.1225
X3.72Y3.0225
X3.72Y2.9225
X3.72Y2.8225
X3.72Y2.7225
X3.72Y2.6225
X3.72Y2.5225
X3.82Y3.7225
X3.82Y3.6225
X3.82Y3.5225
X3.82Y3.4225
X3.82Y3.3225
X3.82Y3.2225
X3.82Y3.1225
X3.82Y3.0225
X3.82Y2.9225
X3.82Y2.8225
X3.82Y2.7225
X3.82Y2.6225
X3.82Y2.5225
X3.92Y3.7225
X3.92Y3.6225
X3.92Y3.5225
X3.92Y3.4225
X3.92Y3.3225
X3.92Y3.2225
X3.92Y3.1225
X3.92Y3.0225
X3.92Y2.9225
X3.92Y2.8225
X3.92Y2.7225
X3.92Y2.6225
X3.92Y2.5225
T5
X-1.55Y5.5
X-1.55Y5.4
X-1.55Y5.3
X-1.55Y5.2
X-1.55Y5.1
X-1.45Y5.6
X-1.45Y5.5
X-1.45Y5.4
X-1.45Y5.3
X-1.45Y5.2
X-1.45Y5.1
X-1.45Y5.0
X-1.35Y5.6
X-1.35Y5.5
X-1.35Y5.1
X-1.35Y5.0
X-1.25Y5.6
X-1.25Y5.5
X-1.25Y5.1
X-1.25Y5.0
X-1.15Y5.6
X-1.15Y5.5
X-1.15Y5.4
X-1.15Y5.3
X-1.15Y5.2
X-1.15Y5.1
X-1.15Y5.0
X-1.05Y5.5
X-1.05Y5.4
X-1.05Y5.3
X-1.05Y5.2
X-1.05Y5.1
X-1.55Y4.5
X-1.55Y4.4
X-1.55Y4.3
X-1.55Y4.2
X-1.55Y4.1
X-1.45Y4.6
X-1.45Y4.5
X-1.45Y4.4
X-1.45Y4.3
X-1.45Y4.2
X-1.45Y4.1
X-1.45Y4.0
X-1.35Y4.6
X-1.35Y4.5
X-1.35Y4.1
X-1.35Y4.0
X-1.25Y4.6
X-1.25Y4.5
X-1.25Y4.1
X-1.25Y4.0
X-1.15Y4.6
X-1.15Y4.5
X-1.15Y4.4
X-1.15Y4.3
X-1.15Y4.2
X-1.15Y4.1
X-1.15Y4.0
X-1.05Y4.5
X-1.05Y4.4
X-1.05Y4.3
X-1.05Y4.2
X-1.05Y4.1
X4.27Y3.4225
X4.27Y3.3225
X4.27Y3.2225
X4.27Y3.1225
X4.27Y3.0225
X4.27Y2.9225
X4.27Y2.8225
X4.27Y2.7225
X4.27Y2.6225
X4.37Y3.5225
X4.37Y3.4225
X4.37Y3.3225
X4.37Y3.2225
X4.37Y3.1225
X4.37Y3.0225
X4.37Y2.9225
X4.37Y2.8225
X4.37Y2.7225
X4.37Y2.6225
X4.37Y2.5225
X4.47Y3.5225
X4.47Y3.4225
X4.47Y2.6225
X4.47Y2.5225
X4.57Y3.5225
X4.57Y3.4225
X4.57Y2.6225
X4.57Y2.5225
X4.67Y3.5225
X4.67Y3.4225
X4.67Y2.6225
X4.67Y2.5225
X4.77Y3.5225
X4.77Y3.4225
X4.77Y2.6225
X4.77Y2.5225
X4.87Y3.5225
X4.87Y3.4225
X4.87Y2.6225
X4.87Y2.5225
X4.97Y3.5225
X4.97Y3.4225
X4.97Y2.6225
X4.97Y2.5225
X5.07Y3.5225
X5.07Y3.4225
X5.07Y2.6225
X5.07Y2.5225
X5.17Y3.5225
X5.17Y3.4225
X5.17Y3.3225
X5.17Y3.2225
X5.17Y3.1225
X5.17Y3.0225
X5.17Y2.9225
X5.17Y2.8225
X5.17Y2.7225
X5.17Y2.6225
X5.17Y2.5225
X5.27Y3.4225
X5.27Y3.3225
X5.27Y3.2225
X5.27Y3.1225
X5.27Y3.0225
X5.27Y2.9225
X5.27Y2.8225
X5.27Y2.7225
X5.27Y2.6225
X1.5161Y8.5
X1.5161Y8.3898
X1.5988Y8.5
X1.7012Y8.5
X1.7839Y8.5
X1.7839Y8.3898
T6
X-1.699Y8.5327
X-1.599Y8.5925
X-1.301Y8.5327
X-1.201Y8.5925
T7
X0.075Y8.1
X0.125Y8.2
X0.175Y8.1
X0.225Y8.2
X0.275Y8.1
X0.325Y8.2
X0.375Y8.1
X0.425Y8.2
X0.625Y8.1
X0.675Y8.2
X0.725Y8.1
X0.775Y8.2
X0.825Y8.1
X0.875Y8.2
X0.925Y8.1
X0.975Y8.2
T8
X-1.625Y8.05
X-1.575Y8.15
X-1.525Y8.05
X-1.475Y8.15
X-1.425Y8.05
X-1.375Y8.15
X-1.325Y8.05
X-1.275Y8.15
T9
X-2.0Y2.975
X-1.95Y2.875
X-1.9Y2.975
X-1.85Y2.875
X-1.8Y2.975
X-1.75Y2.875
X-1.7Y2.975
X-1.65Y2.875
X-1.6Y2.975
X-1.55Y2.875
X-1.5Y2.975
X-1.45Y2.875
X-1.4Y2.975
X-1.35Y2.875
X-1.3Y2.975
X-1.25Y2.875
X-1.2Y2.975
X-1.15Y2.875
X-1.1Y2.975
X-1.05Y2.875
X-1.0Y2.975
X-0.95Y2.875
X-0.9Y2.975
X-0.85Y2.875
X-0.8Y2.975
X-0.75Y2.875
X-0.7Y2.975
X-0.65Y2.875
X-0.6Y2.975
X-0.55Y2.875
X-0.5Y2.975
X-0.45Y2.875
X-0.4Y2.975
X-0.35Y2.875
X-0.3Y2.975
X-0.25Y2.875
X0.0Y2.975
X0.05Y2.875
X0.1Y2.975
X0.15Y2.875
X0.2Y2.975
X0.25Y2.875
X0.3Y2.975
X0.35Y2.875
X0.4Y2.975
X0.45Y2.875
X0.5Y2.975
X0.55Y2.875
X0.6Y2.975
X0.65Y2.875
X0.7Y2.975
X0.75Y2.875
X0.8Y2.975
X0.85Y2.875
X0.9Y2.975
X0.95Y2.875
X1.0Y2.975
X1.05Y2.875
X1.1Y2.975
X1.15Y2.875
X1.2Y2.975
X1.25Y2.875
X1.3Y2.975
X1.35Y2.875
X1.4Y2.975
X1.45Y2.875
X1.5Y2.975
X1.55Y2.875
X1.6Y2.975
X1.65Y2.875
X1.7Y2.975
X1.75Y2.875
X-2.0Y2.575
X-1.95Y2.475
X-1.9Y2.575
X-1.85Y2.475
X-1.8Y2.575
X-1.75Y2.475
X-1.7Y2.575
X-1.65Y2.475
X-1.6Y2.575
X-1.55Y2.475
X-1.5Y2.575
X-1.45Y2.475
X-1.4Y2.575
X-1.35Y2.475
X-1.3Y2.575
X-1.25Y2.475
X-1.2Y2.575
X-1.15Y2.475
X-1.1Y2.575
X-1.05Y2.475
X-1.0Y2.575
X-0.95Y2.475
X-0.9Y2.575
X-0.85Y2.475
X-0.8Y2.575
X-0.75Y2.475
X-0.7Y2.575
X-0.65Y2.475
X-0.6Y2.575
X-0.55Y2.475
X-0.5Y2.575
X-0.45Y2.475
X-0.4Y2.575
X-0.35Y2.475
X-0.3Y2.575
X-0.25Y2.475
X0.0Y2.575
X0.05Y2.475
X0.1Y2.575
X0.15Y2.475
X0.2Y2.575
X0.25Y2.475
X0.3Y2.575
X0.35Y2.475
X0.4Y2.575
X0.45Y2.475
X0.5Y2.575
X0.55Y2.475
X0.6Y2.575
X0.65Y2.475
X0.7Y2.575
X0.75Y2.475
X0.8Y2.575
X0.85Y2.475
X0.9Y2.575
X0.95Y2.475
X1.0Y2.575
X1.05Y2.475
X1.1Y2.575
X1.15Y2.475
X1.2Y2.575
X1.25Y2.475
X1.3Y2.575
X1.35Y2.475
X1.4Y2.575
X1.45Y2.475
X1.5Y2.575
X1.55Y2.475
X1.6Y2.575
X1.65Y2.475
X1.7Y2.575
X1.75Y2.475
T10
X-2.35Y6.6
X2.675Y8.4
X2.675Y8.3
X2.675Y8.2
X2.675Y8.1
X2.675Y8.0
X2.675Y7.9
X2.675Y7.8
X2.675Y7.7
X2.675Y7.6
X2.675Y7.5
X2.675Y7.4
X2.675Y7.3
X2.675Y7.2
X2.675Y7.1
X2.675Y7.0
X2.675Y6.9
X2.675Y6.8
X2.675Y6.7
X2.675Y6.6
X2.675Y6.5
X2.675Y6.4
X2.675Y6.3
X2.675Y6.2
X2.675Y6.1
X2.675Y6.0
X2.675Y5.9
X2.675Y5.8
X2.675Y5.7
X2.675Y5.6
X2.675Y5.5
X2.675Y5.4
X2.675Y5.3
X2.875Y8.4
X2.875Y8.3
X2.875Y8.2
X2.875Y8.1
X2.875Y8.0
X2.875Y7.9
X2.875Y7.8
X2.875Y7.7
X2.875Y7.6
X2.875Y7.5
X2.875Y7.4
X2.875Y7.3
X2.875Y7.2
X2.875Y7.1
X2.875Y7.0
X2.875Y6.9
X2.875Y6.8
X2.875Y6.7
X2.875Y6.6
X2.875Y6.5
X2.875Y6.4
X2.875Y6.3
X2.875Y6.2
X2.875Y6.1
X2.875Y6.0
X2.875Y5.9
X2.875Y5.8
X2.875Y5.7
X2.875Y5.6
X2.875Y5.5
X2.875Y5.4
X2.875Y5.3
X-2.775Y3.4
X-2.4758Y3.4
X0.025Y5.95
X0.275Y7.15
X0.275Y7.05
X0.275Y6.95
X-0.515Y5.5675
X-0.415Y5.5675
X-0.315Y5.5675
X-0.215Y5.5675
X-0.115Y5.5675
X-0.015Y5.5675
X-2.75Y7.45
X-2.75Y7.35
X-2.75Y7.25
X5.675Y8.4
X5.675Y8.3
X5.675Y8.2
X5.675Y8.1
X5.675Y8.0
X5.675Y7.9
X5.675Y7.8
X5.675Y7.7
X5.675Y7.6
X5.675Y7.5
X5.675Y7.4
X5.675Y7.3
X5.675Y7.2
X5.675Y7.1
X5.675Y7.0
X5.675Y6.9
X5.675Y6.8
X5.675Y6.7
X5.675Y6.6
X5.675Y6.5
X5.675Y6.4
X5.675Y6.3
X5.675Y6.2
X5.675Y6.1
X5.675Y6.0
X5.675Y5.9
X5.675Y5.8
X5.675Y5.7
X5.675Y5.6
X5.675Y5.5
X5.675Y5.4
X5.675Y5.3
X5.875Y8.4
X5.875Y8.3
X5.875Y8.2
X5.875Y8.1
X5.875Y8.0
X5.875Y7.9
X5.875Y7.8
X5.875Y7.7
X5.875Y7.6
X5.875Y7.5
X5.875Y7.4
X5.875Y7.3
X5.875Y7.2
X5.875Y7.1
X5.875Y7.0
X5.875Y6.9
X5.875Y6.8
X5.875Y6.7
X5.875Y6.6
X5.875Y6.5
X5.875Y6.4
X5.875Y6.3
X5.875Y6.2
X5.875Y6.1
X5.875Y6.0
X5.875Y5.9
X5.875Y5.8
X5.875Y5.7
X5.875Y5.6
X5.875Y5.5
X5.875Y5.4
X5.875Y5.3
X4.675Y8.4
X4.675Y8.3
X4.675Y8.2
X4.675Y8.1
X4.675Y8.0
X4.675Y7.9
X4.675Y7.8
X4.675Y7.7
X4.675Y7.6
X4.675Y7.5
X4.675Y7.4
X4.675Y7.3
X4.675Y7.2
X4.675Y7.1
X4.675Y7.0
X4.675Y6.9
X4.675Y6.8
X4.675Y6.7
X4.675Y6.6
X4.675Y6.5
X4.675Y6.4
X4.675Y6.3
X4.675Y6.2
X4.675Y6.1
X4.675Y6.0
X4.675Y5.9
X4.675Y5.8
X4.675Y5.7
X4.675Y5.6
X4.675Y5.5
X4.675Y5.4
X4.675Y5.3
X4.875Y8.4
X4.875Y8.3
X4.875Y8.2
X4.875Y8.1
X4.875Y8.0
X4.875Y7.9
X4.875Y7.8
X4.875Y7.7
X4.875Y7.6
X4.875Y7.5
X4.875Y7.4
X4.875Y7.3
X4.875Y7.2
X4.875Y7.1
X4.875Y7.0
X4.875Y6.9
X4.875Y6.8
X4.875Y6.7
X4.875Y6.6
X4.875Y6.5
X4.875Y6.4
X4.875Y6.3
X4.875Y6.2
X4.875Y6.1
X4.875Y6.0
X4.875Y5.9
X4.875Y5.8
X4.875Y5.7
X4.875Y5.6
X4.875Y5.5
X4.875Y5.4
X4.875Y5.3
X-0.5Y5.95
X2.325Y2.725
X2.425Y2.725
X2.525Y2.725
X3.675Y8.4
X3.675Y8.3
X3.675Y8.2
X3.675Y8.1
X3.675Y8.0
X3.675Y7.9
X3.675Y7.8
X3.675Y7.7
X3.675Y7.6
X3.675Y7.5
X3.675Y7.4
X3.675Y7.3
X3.675Y7.2
X3.675Y7.1
X3.675Y7.0
X3.675Y6.9
X3.675Y6.8
X3.675Y6.7
X3.675Y6.6
X3.675Y6.5
X3.675Y6.4
X3.675Y6.3
X3.675Y6.2
X3.675Y6.1
X3.675Y6.0
X3.675Y5.9
X3.675Y5.8
X3.675Y5.7
X3.675Y5.6
X3.675Y5.5
X3.675Y5.4
X3.675Y5.3
X3.875Y8.4
X3.875Y8.3
X3.875Y8.2
X3.875Y8.1
X3.875Y8.0
X3.875Y7.9
X3.875Y7.8
X3.875Y7.7
X3.875Y7.6
X3.875Y7.5
X3.875Y7.4
X3.875Y7.3
X3.875Y7.2
X3.875Y7.1
X3.875Y7.0
X3.875Y6.9
X3.875Y6.8
X3.875Y6.7
X3.875Y6.6
X3.875Y6.5
X3.875Y6.4
X3.875Y6.3
X3.875Y6.2
X3.875Y6.1
X3.875Y6.0
X3.875Y5.9
X3.875Y5.8
X3.875Y5.7
X3.875Y5.6
X3.875Y5.5
X3.875Y5.4
X3.875Y5.3
X2.325Y2.925
X2.425Y2.925
X2.525Y2.925
T11
X-2.7Y5.85
X-2.7Y5.75
X-2.7Y5.65
X-2.7Y5.55
X-2.7Y5.45
X-2.7Y5.35
X-2.7Y5.25
X-2.7Y5.15
X-2.7Y5.05
X-2.7Y4.95
X-2.7Y4.85
X-2.7Y4.75
X-2.7Y4.65
X-2.7Y4.55
X-2.7Y4.45
X-2.7Y4.35
X-2.7Y4.25
X-2.7Y4.15
X-2.7Y4.05
X-2.7Y3.95
X-2.6Y5.85
X-2.6Y5.75
X-2.6Y5.65
X-2.6Y5.55
X-2.6Y5.45
X-2.6Y5.35
X-2.6Y5.25
X-2.6Y5.15
X-2.6Y5.05
X-2.6Y4.95
X-2.6Y4.85
X-2.6Y4.75
X-2.6Y4.65
X-2.6Y4.55
X-2.6Y4.45
X-2.6Y4.35
X-2.6Y4.25
X-2.6Y4.15
X-2.6Y4.05
X-2.6Y3.95
X1.45Y8.1
X1.45Y8.0
X1.55Y8.1
X1.55Y8.0
X1.65Y8.1
X1.65Y8.0
X1.75Y8.1
X1.75Y8.0
X1.85Y8.1
X1.85Y8.0
T12
X-1.7561Y8.2795
X-1.1439Y8.2795
T13
X-0.0805Y8.6299
X1.1305Y8.6299
T14
X2.075Y2.925
X2.075Y2.525
T15
X-2.325Y2.925
X-0.125Y2.925
X-2.325Y2.525
X-0.125Y2.525
T16
X-2.8Y8.65
X6.325Y8.65
X2.25Y8.65
X2.5Y2.425
X-2.8Y6.3
X6.325Y2.425
X6.325Y5.7
X-2.8Y2.425
T17
X0.825Y6.425
T10
G00X1.3803Y8.5827
M15
G01X1.3803Y8.6417
M16
G05
G00X1.6894Y8.6437
M15
G01X1.6106Y8.6437
M16
G05
G00X1.9197Y8.5827
M15
G01X1.9197Y8.6417
M16
G05
G00X-2.535Y8.4575
M15
G01X-2.535Y8.3787
M16
G05
G00X-2.3106Y8.5362
M15
G01X-2.3894Y8.5362
M16
G05
G00X-2.3106Y8.3
M15
G01X-2.3894Y8.3
M16
G05
T0
M30
