G04 #@! TF.GenerationSoftware,KiCad,Pcbnew,5.1.5+dfsg1-2build2*
G04 #@! TF.CreationDate,2021-11-04T14:18:05+00:00*
G04 #@! TF.ProjectId,MAXI030,4d415849-3033-4302-9e6b-696361645f70,rev?*
G04 #@! TF.SameCoordinates,Original*
G04 #@! TF.FileFunction,Legend,Bot*
G04 #@! TF.FilePolarity,Positive*
%FSLAX46Y46*%
G04 Gerber Fmt 4.6, Leading zero omitted, Abs format (unit mm)*
G04 Created by KiCad (PCBNEW 5.1.5+dfsg1-2build2) date 2021-11-04 14:18:05*
%MOMM*%
%LPD*%
G04 APERTURE LIST*
%ADD10C,0.120000*%
%ADD11C,0.100000*%
%ADD12C,0.150000*%
G04 APERTURE END LIST*
D10*
X78707064Y81005000D02*
X77502936Y81005000D01*
X78707064Y82825000D02*
X77502936Y82825000D01*
X91038000Y77569436D02*
X91038000Y78773564D01*
X92858000Y77569436D02*
X92858000Y78773564D01*
X79534936Y75078000D02*
X80739064Y75078000D01*
X79534936Y73258000D02*
X80739064Y73258000D01*
X46080000Y191167936D02*
X46080000Y192372064D01*
X47900000Y191167936D02*
X47900000Y192372064D01*
X135932500Y66069936D02*
X135932500Y67274064D01*
X137752500Y66069936D02*
X137752500Y67274064D01*
X86203064Y85196000D02*
X84998936Y85196000D01*
X86203064Y87016000D02*
X84998936Y87016000D01*
X77935500Y77372936D02*
X77935500Y78577064D01*
X76115500Y77372936D02*
X76115500Y78577064D01*
X104923000Y86457064D02*
X104923000Y85252936D01*
X103103000Y86457064D02*
X103103000Y85252936D01*
X119225436Y70760000D02*
X120429564Y70760000D01*
X119225436Y68940000D02*
X120429564Y68940000D01*
X88673564Y71670500D02*
X87469436Y71670500D01*
X88673564Y73490500D02*
X87469436Y73490500D01*
X10246736Y134514000D02*
X11450864Y134514000D01*
X10246736Y132694000D02*
X11450864Y132694000D01*
X13426064Y136961200D02*
X12221936Y136961200D01*
X13426064Y138781200D02*
X12221936Y138781200D01*
X8488000Y123581536D02*
X8488000Y124785664D01*
X10308000Y123581536D02*
X10308000Y124785664D01*
X12329536Y131262800D02*
X13533664Y131262800D01*
X12329536Y129442800D02*
X13533664Y129442800D01*
X8488000Y113675536D02*
X8488000Y114879664D01*
X10308000Y113675536D02*
X10308000Y114879664D01*
X10774000Y119009536D02*
X10774000Y120213664D01*
X12594000Y119009536D02*
X12594000Y120213664D01*
X34459500Y124995564D02*
X34459500Y123791436D01*
X36279500Y124995564D02*
X36279500Y123791436D01*
X34767436Y113178000D02*
X35971564Y113178000D01*
X34767436Y111358000D02*
X35971564Y111358000D01*
X35240336Y131212000D02*
X36444464Y131212000D01*
X35240336Y129392000D02*
X36444464Y129392000D01*
X38629000Y121255064D02*
X38629000Y120050936D01*
X36809000Y121255064D02*
X36809000Y120050936D01*
X23337436Y115464000D02*
X24541564Y115464000D01*
X23337436Y113644000D02*
X24541564Y113644000D01*
X24449664Y140009200D02*
X23245536Y140009200D01*
X24449664Y141829200D02*
X23245536Y141829200D01*
X28229936Y113178000D02*
X29434064Y113178000D01*
X28229936Y111358000D02*
X29434064Y111358000D01*
X82656000Y78261936D02*
X82656000Y79466064D01*
X84476000Y78261936D02*
X84476000Y79466064D01*
X90521064Y59034000D02*
X89316936Y59034000D01*
X90521064Y60854000D02*
X89316936Y60854000D01*
X105177000Y65813564D02*
X105177000Y64609436D01*
X103357000Y65813564D02*
X103357000Y64609436D01*
X-46693500Y190472436D02*
X-46693500Y191676564D01*
X-44873500Y190472436D02*
X-44873500Y191676564D01*
X-37114564Y194013500D02*
X-35910436Y194013500D01*
X-37114564Y192193500D02*
X-35910436Y192193500D01*
X35397064Y211180000D02*
X34192936Y211180000D01*
X35397064Y213000000D02*
X34192936Y213000000D01*
X36413064Y134450500D02*
X35208936Y134450500D01*
X36413064Y132630500D02*
X35208936Y132630500D01*
X36279500Y115161436D02*
X36279500Y116365564D01*
X34459500Y115161436D02*
X34459500Y116365564D01*
X18514436Y111358000D02*
X19718564Y111358000D01*
X18514436Y113178000D02*
X19718564Y113178000D01*
X32018864Y141880000D02*
X30814736Y141880000D01*
X32018864Y140060000D02*
X30814736Y140060000D01*
X35189536Y136910400D02*
X36393664Y136910400D01*
X35189536Y138730400D02*
X36393664Y138730400D01*
X15331064Y141880000D02*
X14126936Y141880000D01*
X15331064Y140060000D02*
X14126936Y140060000D01*
X15267564Y113644000D02*
X14063436Y113644000D01*
X15267564Y115464000D02*
X14063436Y115464000D01*
X2210000Y158415000D02*
X6120000Y158415000D01*
X6120000Y158415000D02*
X6120000Y156545000D01*
X6120000Y156545000D02*
X2210000Y156545000D01*
X4412064Y160930000D02*
X3207936Y160930000D01*
X4412064Y159110000D02*
X3207936Y159110000D01*
X-9220000Y158415000D02*
X-5310000Y158415000D01*
X-5310000Y158415000D02*
X-5310000Y156545000D01*
X-5310000Y156545000D02*
X-9220000Y156545000D01*
X-970000Y160350000D02*
X-970000Y156440000D01*
X-970000Y156440000D02*
X-2840000Y156440000D01*
X-2840000Y156440000D02*
X-2840000Y160350000D01*
X-7017936Y160930000D02*
X-8222064Y160930000D01*
X-7017936Y159110000D02*
X-8222064Y159110000D01*
X-10440000Y162400000D02*
X-10440000Y154340000D01*
X-10440000Y154340000D02*
X-14960000Y154340000D01*
X-14960000Y154340000D02*
X-14960000Y162400000D01*
X18775000Y184182936D02*
X18775000Y185387064D01*
X20595000Y184182936D02*
X20595000Y185387064D01*
X32999000Y191167936D02*
X32999000Y192372064D01*
X34819000Y191167936D02*
X34819000Y192372064D01*
X-56875000Y142842064D02*
X-56875000Y141637936D01*
X-58695000Y142842064D02*
X-58695000Y141637936D01*
X-56875000Y129002064D02*
X-56875000Y127797936D01*
X-58695000Y129002064D02*
X-58695000Y127797936D01*
X35397064Y213720000D02*
X34192936Y213720000D01*
X35397064Y215540000D02*
X34192936Y215540000D01*
X48292936Y215540000D02*
X49497064Y215540000D01*
X48292936Y213720000D02*
X49497064Y213720000D01*
X51710000Y205072064D02*
X51710000Y203867936D01*
X49890000Y205072064D02*
X49890000Y203867936D01*
X54250000Y205072064D02*
X54250000Y203867936D01*
X52430000Y205072064D02*
X52430000Y203867936D01*
X32110000Y203867936D02*
X32110000Y205072064D01*
X33930000Y203867936D02*
X33930000Y205072064D01*
X-49805000Y217837936D02*
X-49805000Y219042064D01*
X-47985000Y217837936D02*
X-47985000Y219042064D01*
X-25675000Y217837936D02*
X-25675000Y219042064D01*
X-23855000Y217837936D02*
X-23855000Y219042064D01*
X-43847936Y180700000D02*
X-45052064Y180700000D01*
X-43847936Y182520000D02*
X-45052064Y182520000D01*
X-49805000Y206722436D02*
X-49805000Y207926564D01*
X-47985000Y206722436D02*
X-47985000Y207926564D01*
X-18952936Y195940000D02*
X-20157064Y195940000D01*
X-18952936Y197760000D02*
X-20157064Y197760000D01*
X-44810000Y185892064D02*
X-44810000Y184687936D01*
X-46630000Y185892064D02*
X-46630000Y184687936D01*
X-59217936Y99420000D02*
X-60422064Y99420000D01*
X-59217936Y101240000D02*
X-60422064Y101240000D01*
X58452936Y182520000D02*
X59657064Y182520000D01*
X58452936Y180700000D02*
X59657064Y180700000D01*
X116172064Y73385000D02*
X114967936Y73385000D01*
X116172064Y75205000D02*
X114967936Y75205000D01*
X48292936Y213000000D02*
X49497064Y213000000D01*
X48292936Y211180000D02*
X49497064Y211180000D01*
X-58060000Y85754936D02*
X-58060000Y86959064D01*
X-56240000Y85754936D02*
X-56240000Y86959064D01*
X-66072936Y85450000D02*
X-67277064Y85450000D01*
X-66072936Y87270000D02*
X-67277064Y87270000D01*
X59965000Y191102064D02*
X59965000Y189897936D01*
X58145000Y191102064D02*
X58145000Y189897936D01*
X-40280000Y211617936D02*
X-40280000Y212822064D01*
X-38460000Y211617936D02*
X-38460000Y212822064D01*
X-35200000Y211487936D02*
X-35200000Y212692064D01*
X-33380000Y211487936D02*
X-33380000Y212692064D01*
X-17747064Y201570000D02*
X-16542936Y201570000D01*
X-17747064Y199750000D02*
X-16542936Y199750000D01*
X-21622936Y199750000D02*
X-22827064Y199750000D01*
X-21622936Y201570000D02*
X-22827064Y201570000D01*
X-31717064Y183155000D02*
X-30512936Y183155000D01*
X-31717064Y181335000D02*
X-30512936Y181335000D01*
X59965000Y141572064D02*
X59965000Y140367936D01*
X58145000Y141572064D02*
X58145000Y140367936D01*
X59965000Y197452064D02*
X59965000Y196247936D01*
X58145000Y197452064D02*
X58145000Y196247936D01*
X59965000Y156812064D02*
X59965000Y155607936D01*
X58145000Y156812064D02*
X58145000Y155607936D01*
X57247064Y162856500D02*
X56042936Y162856500D01*
X57247064Y164676500D02*
X56042936Y164676500D01*
X125127936Y117750000D02*
X126332064Y117750000D01*
X125127936Y115930000D02*
X126332064Y115930000D01*
X82190000Y115537064D02*
X82190000Y114332936D01*
X80370000Y115537064D02*
X80370000Y114332936D01*
X116480000Y115537064D02*
X116480000Y114332936D01*
X114660000Y115537064D02*
X114660000Y114332936D01*
X49499436Y84815000D02*
X50703564Y84815000D01*
X49499436Y86635000D02*
X50703564Y86635000D01*
X138967936Y117750000D02*
X140172064Y117750000D01*
X138967936Y115930000D02*
X140172064Y115930000D01*
X96160000Y115537064D02*
X96160000Y114332936D01*
X94340000Y115537064D02*
X94340000Y114332936D01*
X-42714500Y131412064D02*
X-42714500Y130207936D01*
X-44534500Y131412064D02*
X-44534500Y130207936D01*
X-42651000Y109571064D02*
X-42651000Y108366936D01*
X-44471000Y109571064D02*
X-44471000Y108366936D01*
X159025000Y191102064D02*
X159025000Y189897936D01*
X157205000Y191102064D02*
X157205000Y189897936D01*
X152040000Y88362064D02*
X152040000Y87157936D01*
X150220000Y88362064D02*
X150220000Y87157936D01*
X150527936Y94890000D02*
X151732064Y94890000D01*
X150527936Y93070000D02*
X151732064Y93070000D01*
X38767936Y86635000D02*
X39972064Y86635000D01*
X38767936Y84815000D02*
X39972064Y84815000D01*
X-26002064Y86635000D02*
X-24797936Y86635000D01*
X-26002064Y84815000D02*
X-24797936Y84815000D01*
X-39972064Y86635000D02*
X-38767936Y86635000D01*
X-39972064Y84815000D02*
X-38767936Y84815000D01*
X14637936Y86635000D02*
X15842064Y86635000D01*
X14637936Y84815000D02*
X15842064Y84815000D01*
X78707064Y83545000D02*
X77502936Y83545000D01*
X78707064Y85365000D02*
X77502936Y85365000D01*
X92858000Y83723564D02*
X92858000Y82519436D01*
X91038000Y83723564D02*
X91038000Y82519436D01*
X59965000Y186022064D02*
X59965000Y184817936D01*
X58145000Y186022064D02*
X58145000Y184817936D01*
X137520000Y86327064D02*
X137520000Y85122936D01*
X139340000Y86327064D02*
X139340000Y85122936D01*
X121762436Y85365000D02*
X122966564Y85365000D01*
X121762436Y83545000D02*
X122966564Y83545000D01*
X-10827936Y189590000D02*
X-12032064Y189590000D01*
X-10827936Y191410000D02*
X-12032064Y191410000D01*
X7345000Y187611936D02*
X7345000Y188816064D01*
X9165000Y187611936D02*
X9165000Y188816064D01*
X9165000Y194026064D02*
X9165000Y192821936D01*
X7345000Y194026064D02*
X7345000Y192821936D01*
D11*
X2450000Y214630000D02*
G75*
G03X2450000Y214630000I-1800000J0D01*
G01*
X27820000Y214630000D02*
G75*
G03X27820000Y214630000I-1800000J0D01*
G01*
D12*
X82557857Y81462619D02*
X82891190Y81938809D01*
X83129285Y81462619D02*
X83129285Y82462619D01*
X82748333Y82462619D01*
X82653095Y82415000D01*
X82605476Y82367380D01*
X82557857Y82272142D01*
X82557857Y82129285D01*
X82605476Y82034047D01*
X82653095Y81986428D01*
X82748333Y81938809D01*
X83129285Y81938809D01*
X82224523Y82462619D02*
X81605476Y82462619D01*
X81938809Y82081666D01*
X81795952Y82081666D01*
X81700714Y82034047D01*
X81653095Y81986428D01*
X81605476Y81891190D01*
X81605476Y81653095D01*
X81653095Y81557857D01*
X81700714Y81510238D01*
X81795952Y81462619D01*
X82081666Y81462619D01*
X82176904Y81510238D01*
X82224523Y81557857D01*
X80748333Y82462619D02*
X80938809Y82462619D01*
X81034047Y82415000D01*
X81081666Y82367380D01*
X81176904Y82224523D01*
X81224523Y82034047D01*
X81224523Y81653095D01*
X81176904Y81557857D01*
X81129285Y81510238D01*
X81034047Y81462619D01*
X80843571Y81462619D01*
X80748333Y81510238D01*
X80700714Y81557857D01*
X80653095Y81653095D01*
X80653095Y81891190D01*
X80700714Y81986428D01*
X80748333Y82034047D01*
X80843571Y82081666D01*
X81034047Y82081666D01*
X81129285Y82034047D01*
X81176904Y81986428D01*
X81224523Y81891190D01*
X90114357Y77747857D02*
X90161976Y77700238D01*
X90304833Y77652619D01*
X90400071Y77652619D01*
X90542928Y77700238D01*
X90638166Y77795476D01*
X90685785Y77890714D01*
X90733404Y78081190D01*
X90733404Y78224047D01*
X90685785Y78414523D01*
X90638166Y78509761D01*
X90542928Y78605000D01*
X90400071Y78652619D01*
X90304833Y78652619D01*
X90161976Y78605000D01*
X90114357Y78557380D01*
X89542928Y78224047D02*
X89638166Y78271666D01*
X89685785Y78319285D01*
X89733404Y78414523D01*
X89733404Y78462142D01*
X89685785Y78557380D01*
X89638166Y78605000D01*
X89542928Y78652619D01*
X89352452Y78652619D01*
X89257214Y78605000D01*
X89209595Y78557380D01*
X89161976Y78462142D01*
X89161976Y78414523D01*
X89209595Y78319285D01*
X89257214Y78271666D01*
X89352452Y78224047D01*
X89542928Y78224047D01*
X89638166Y78176428D01*
X89685785Y78128809D01*
X89733404Y78033571D01*
X89733404Y77843095D01*
X89685785Y77747857D01*
X89638166Y77700238D01*
X89542928Y77652619D01*
X89352452Y77652619D01*
X89257214Y77700238D01*
X89209595Y77747857D01*
X89161976Y77843095D01*
X89161976Y78033571D01*
X89209595Y78128809D01*
X89257214Y78176428D01*
X89352452Y78224047D01*
X88781023Y78557380D02*
X88733404Y78605000D01*
X88638166Y78652619D01*
X88400071Y78652619D01*
X88304833Y78605000D01*
X88257214Y78557380D01*
X88209595Y78462142D01*
X88209595Y78366904D01*
X88257214Y78224047D01*
X88828642Y77652619D01*
X88209595Y77652619D01*
X80779857Y75588857D02*
X80827476Y75541238D01*
X80970333Y75493619D01*
X81065571Y75493619D01*
X81208428Y75541238D01*
X81303666Y75636476D01*
X81351285Y75731714D01*
X81398904Y75922190D01*
X81398904Y76065047D01*
X81351285Y76255523D01*
X81303666Y76350761D01*
X81208428Y76446000D01*
X81065571Y76493619D01*
X80970333Y76493619D01*
X80827476Y76446000D01*
X80779857Y76398380D01*
X80208428Y76065047D02*
X80303666Y76112666D01*
X80351285Y76160285D01*
X80398904Y76255523D01*
X80398904Y76303142D01*
X80351285Y76398380D01*
X80303666Y76446000D01*
X80208428Y76493619D01*
X80017952Y76493619D01*
X79922714Y76446000D01*
X79875095Y76398380D01*
X79827476Y76303142D01*
X79827476Y76255523D01*
X79875095Y76160285D01*
X79922714Y76112666D01*
X80017952Y76065047D01*
X80208428Y76065047D01*
X80303666Y76017428D01*
X80351285Y75969809D01*
X80398904Y75874571D01*
X80398904Y75684095D01*
X80351285Y75588857D01*
X80303666Y75541238D01*
X80208428Y75493619D01*
X80017952Y75493619D01*
X79922714Y75541238D01*
X79875095Y75588857D01*
X79827476Y75684095D01*
X79827476Y75874571D01*
X79875095Y75969809D01*
X79922714Y76017428D01*
X80017952Y76065047D01*
X78875095Y75493619D02*
X79446523Y75493619D01*
X79160809Y75493619D02*
X79160809Y76493619D01*
X79256047Y76350761D01*
X79351285Y76255523D01*
X79446523Y76207904D01*
X49167142Y192412857D02*
X49214761Y192460476D01*
X49262380Y192603333D01*
X49262380Y192698571D01*
X49214761Y192841428D01*
X49119523Y192936666D01*
X49024285Y192984285D01*
X48833809Y193031904D01*
X48690952Y193031904D01*
X48500476Y192984285D01*
X48405238Y192936666D01*
X48310000Y192841428D01*
X48262380Y192698571D01*
X48262380Y192603333D01*
X48310000Y192460476D01*
X48357619Y192412857D01*
X48262380Y192079523D02*
X48262380Y191412857D01*
X49262380Y191841428D01*
X48690952Y190889047D02*
X48643333Y190984285D01*
X48595714Y191031904D01*
X48500476Y191079523D01*
X48452857Y191079523D01*
X48357619Y191031904D01*
X48310000Y190984285D01*
X48262380Y190889047D01*
X48262380Y190698571D01*
X48310000Y190603333D01*
X48357619Y190555714D01*
X48452857Y190508095D01*
X48500476Y190508095D01*
X48595714Y190555714D01*
X48643333Y190603333D01*
X48690952Y190698571D01*
X48690952Y190889047D01*
X48738571Y190984285D01*
X48786190Y191031904D01*
X48881428Y191079523D01*
X49071904Y191079523D01*
X49167142Y191031904D01*
X49214761Y190984285D01*
X49262380Y190889047D01*
X49262380Y190698571D01*
X49214761Y190603333D01*
X49167142Y190555714D01*
X49071904Y190508095D01*
X48881428Y190508095D01*
X48786190Y190555714D01*
X48738571Y190603333D01*
X48690952Y190698571D01*
X137548857Y63269857D02*
X137596476Y63222238D01*
X137739333Y63174619D01*
X137834571Y63174619D01*
X137977428Y63222238D01*
X138072666Y63317476D01*
X138120285Y63412714D01*
X138167904Y63603190D01*
X138167904Y63746047D01*
X138120285Y63936523D01*
X138072666Y64031761D01*
X137977428Y64127000D01*
X137834571Y64174619D01*
X137739333Y64174619D01*
X137596476Y64127000D01*
X137548857Y64079380D01*
X137215523Y64174619D02*
X136548857Y64174619D01*
X136977428Y63174619D01*
X136263142Y64174619D02*
X135596476Y64174619D01*
X136025047Y63174619D01*
X86243857Y87568857D02*
X86291476Y87521238D01*
X86434333Y87473619D01*
X86529571Y87473619D01*
X86672428Y87521238D01*
X86767666Y87616476D01*
X86815285Y87711714D01*
X86862904Y87902190D01*
X86862904Y88045047D01*
X86815285Y88235523D01*
X86767666Y88330761D01*
X86672428Y88426000D01*
X86529571Y88473619D01*
X86434333Y88473619D01*
X86291476Y88426000D01*
X86243857Y88378380D01*
X85910523Y88473619D02*
X85243857Y88473619D01*
X85672428Y87473619D01*
X84434333Y88473619D02*
X84624809Y88473619D01*
X84720047Y88426000D01*
X84767666Y88378380D01*
X84862904Y88235523D01*
X84910523Y88045047D01*
X84910523Y87664095D01*
X84862904Y87568857D01*
X84815285Y87521238D01*
X84720047Y87473619D01*
X84529571Y87473619D01*
X84434333Y87521238D01*
X84386714Y87568857D01*
X84339095Y87664095D01*
X84339095Y87902190D01*
X84386714Y87997428D01*
X84434333Y88045047D01*
X84529571Y88092666D01*
X84720047Y88092666D01*
X84815285Y88045047D01*
X84862904Y87997428D01*
X84910523Y87902190D01*
X80208357Y77557357D02*
X80255976Y77509738D01*
X80398833Y77462119D01*
X80494071Y77462119D01*
X80636928Y77509738D01*
X80732166Y77604976D01*
X80779785Y77700214D01*
X80827404Y77890690D01*
X80827404Y78033547D01*
X80779785Y78224023D01*
X80732166Y78319261D01*
X80636928Y78414500D01*
X80494071Y78462119D01*
X80398833Y78462119D01*
X80255976Y78414500D01*
X80208357Y78366880D01*
X79875023Y78462119D02*
X79208357Y78462119D01*
X79636928Y77462119D01*
X78351214Y78462119D02*
X78827404Y78462119D01*
X78875023Y77985928D01*
X78827404Y78033547D01*
X78732166Y78081166D01*
X78494071Y78081166D01*
X78398833Y78033547D01*
X78351214Y77985928D01*
X78303595Y77890690D01*
X78303595Y77652595D01*
X78351214Y77557357D01*
X78398833Y77509738D01*
X78494071Y77462119D01*
X78732166Y77462119D01*
X78827404Y77509738D01*
X78875023Y77557357D01*
X104592357Y82637357D02*
X104639976Y82589738D01*
X104782833Y82542119D01*
X104878071Y82542119D01*
X105020928Y82589738D01*
X105116166Y82684976D01*
X105163785Y82780214D01*
X105211404Y82970690D01*
X105211404Y83113547D01*
X105163785Y83304023D01*
X105116166Y83399261D01*
X105020928Y83494500D01*
X104878071Y83542119D01*
X104782833Y83542119D01*
X104639976Y83494500D01*
X104592357Y83446880D01*
X104259023Y83542119D02*
X103592357Y83542119D01*
X104020928Y82542119D01*
X102782833Y83208785D02*
X102782833Y82542119D01*
X103020928Y83589738D02*
X103259023Y82875452D01*
X102639976Y82875452D01*
X120470357Y67672857D02*
X120517976Y67625238D01*
X120660833Y67577619D01*
X120756071Y67577619D01*
X120898928Y67625238D01*
X120994166Y67720476D01*
X121041785Y67815714D01*
X121089404Y68006190D01*
X121089404Y68149047D01*
X121041785Y68339523D01*
X120994166Y68434761D01*
X120898928Y68530000D01*
X120756071Y68577619D01*
X120660833Y68577619D01*
X120517976Y68530000D01*
X120470357Y68482380D01*
X120137023Y68577619D02*
X119470357Y68577619D01*
X119898928Y67577619D01*
X119184642Y68577619D02*
X118565595Y68577619D01*
X118898928Y68196666D01*
X118756071Y68196666D01*
X118660833Y68149047D01*
X118613214Y68101428D01*
X118565595Y68006190D01*
X118565595Y67768095D01*
X118613214Y67672857D01*
X118660833Y67625238D01*
X118756071Y67577619D01*
X119041785Y67577619D01*
X119137023Y67625238D01*
X119184642Y67672857D01*
X88714357Y74043357D02*
X88761976Y73995738D01*
X88904833Y73948119D01*
X89000071Y73948119D01*
X89142928Y73995738D01*
X89238166Y74090976D01*
X89285785Y74186214D01*
X89333404Y74376690D01*
X89333404Y74519547D01*
X89285785Y74710023D01*
X89238166Y74805261D01*
X89142928Y74900500D01*
X89000071Y74948119D01*
X88904833Y74948119D01*
X88761976Y74900500D01*
X88714357Y74852880D01*
X88381023Y74948119D02*
X87714357Y74948119D01*
X88142928Y73948119D01*
X87381023Y74852880D02*
X87333404Y74900500D01*
X87238166Y74948119D01*
X87000071Y74948119D01*
X86904833Y74900500D01*
X86857214Y74852880D01*
X86809595Y74757642D01*
X86809595Y74662404D01*
X86857214Y74519547D01*
X87428642Y73948119D01*
X86809595Y73948119D01*
X15374857Y133310357D02*
X15422476Y133262738D01*
X15565333Y133215119D01*
X15660571Y133215119D01*
X15803428Y133262738D01*
X15898666Y133357976D01*
X15946285Y133453214D01*
X15993904Y133643690D01*
X15993904Y133786547D01*
X15946285Y133977023D01*
X15898666Y134072261D01*
X15803428Y134167500D01*
X15660571Y134215119D01*
X15565333Y134215119D01*
X15422476Y134167500D01*
X15374857Y134119880D01*
X15041523Y134215119D02*
X14374857Y134215119D01*
X14803428Y133215119D01*
X13470095Y133215119D02*
X14041523Y133215119D01*
X13755809Y133215119D02*
X13755809Y134215119D01*
X13851047Y134072261D01*
X13946285Y133977023D01*
X14041523Y133929404D01*
X17152857Y137501357D02*
X17200476Y137453738D01*
X17343333Y137406119D01*
X17438571Y137406119D01*
X17581428Y137453738D01*
X17676666Y137548976D01*
X17724285Y137644214D01*
X17771904Y137834690D01*
X17771904Y137977547D01*
X17724285Y138168023D01*
X17676666Y138263261D01*
X17581428Y138358500D01*
X17438571Y138406119D01*
X17343333Y138406119D01*
X17200476Y138358500D01*
X17152857Y138310880D01*
X16819523Y138406119D02*
X16152857Y138406119D01*
X16581428Y137406119D01*
X15581428Y138406119D02*
X15486190Y138406119D01*
X15390952Y138358500D01*
X15343333Y138310880D01*
X15295714Y138215642D01*
X15248095Y138025166D01*
X15248095Y137787071D01*
X15295714Y137596595D01*
X15343333Y137501357D01*
X15390952Y137453738D01*
X15486190Y137406119D01*
X15581428Y137406119D01*
X15676666Y137453738D01*
X15724285Y137501357D01*
X15771904Y137596595D01*
X15819523Y137787071D01*
X15819523Y138025166D01*
X15771904Y138215642D01*
X15724285Y138310880D01*
X15676666Y138358500D01*
X15581428Y138406119D01*
X7310357Y123912357D02*
X7357976Y123864738D01*
X7500833Y123817119D01*
X7596071Y123817119D01*
X7738928Y123864738D01*
X7834166Y123959976D01*
X7881785Y124055214D01*
X7929404Y124245690D01*
X7929404Y124388547D01*
X7881785Y124579023D01*
X7834166Y124674261D01*
X7738928Y124769500D01*
X7596071Y124817119D01*
X7500833Y124817119D01*
X7357976Y124769500D01*
X7310357Y124721880D01*
X6453214Y124817119D02*
X6643690Y124817119D01*
X6738928Y124769500D01*
X6786547Y124721880D01*
X6881785Y124579023D01*
X6929404Y124388547D01*
X6929404Y124007595D01*
X6881785Y123912357D01*
X6834166Y123864738D01*
X6738928Y123817119D01*
X6548452Y123817119D01*
X6453214Y123864738D01*
X6405595Y123912357D01*
X6357976Y124007595D01*
X6357976Y124245690D01*
X6405595Y124340928D01*
X6453214Y124388547D01*
X6548452Y124436166D01*
X6738928Y124436166D01*
X6834166Y124388547D01*
X6881785Y124340928D01*
X6929404Y124245690D01*
X5881785Y123817119D02*
X5691309Y123817119D01*
X5596071Y123864738D01*
X5548452Y123912357D01*
X5453214Y124055214D01*
X5405595Y124245690D01*
X5405595Y124626642D01*
X5453214Y124721880D01*
X5500833Y124769500D01*
X5596071Y124817119D01*
X5786547Y124817119D01*
X5881785Y124769500D01*
X5929404Y124721880D01*
X5977023Y124626642D01*
X5977023Y124388547D01*
X5929404Y124293309D01*
X5881785Y124245690D01*
X5786547Y124198071D01*
X5596071Y124198071D01*
X5500833Y124245690D01*
X5453214Y124293309D01*
X5405595Y124388547D01*
X17216357Y129754357D02*
X17263976Y129706738D01*
X17406833Y129659119D01*
X17502071Y129659119D01*
X17644928Y129706738D01*
X17740166Y129801976D01*
X17787785Y129897214D01*
X17835404Y130087690D01*
X17835404Y130230547D01*
X17787785Y130421023D01*
X17740166Y130516261D01*
X17644928Y130611500D01*
X17502071Y130659119D01*
X17406833Y130659119D01*
X17263976Y130611500D01*
X17216357Y130563880D01*
X16359214Y130659119D02*
X16549690Y130659119D01*
X16644928Y130611500D01*
X16692547Y130563880D01*
X16787785Y130421023D01*
X16835404Y130230547D01*
X16835404Y129849595D01*
X16787785Y129754357D01*
X16740166Y129706738D01*
X16644928Y129659119D01*
X16454452Y129659119D01*
X16359214Y129706738D01*
X16311595Y129754357D01*
X16263976Y129849595D01*
X16263976Y130087690D01*
X16311595Y130182928D01*
X16359214Y130230547D01*
X16454452Y130278166D01*
X16644928Y130278166D01*
X16740166Y130230547D01*
X16787785Y130182928D01*
X16835404Y130087690D01*
X15692547Y130230547D02*
X15787785Y130278166D01*
X15835404Y130325785D01*
X15883023Y130421023D01*
X15883023Y130468642D01*
X15835404Y130563880D01*
X15787785Y130611500D01*
X15692547Y130659119D01*
X15502071Y130659119D01*
X15406833Y130611500D01*
X15359214Y130563880D01*
X15311595Y130468642D01*
X15311595Y130421023D01*
X15359214Y130325785D01*
X15406833Y130278166D01*
X15502071Y130230547D01*
X15692547Y130230547D01*
X15787785Y130182928D01*
X15835404Y130135309D01*
X15883023Y130040071D01*
X15883023Y129849595D01*
X15835404Y129754357D01*
X15787785Y129706738D01*
X15692547Y129659119D01*
X15502071Y129659119D01*
X15406833Y129706738D01*
X15359214Y129754357D01*
X15311595Y129849595D01*
X15311595Y130040071D01*
X15359214Y130135309D01*
X15406833Y130182928D01*
X15502071Y130230547D01*
X7246857Y114006357D02*
X7294476Y113958738D01*
X7437333Y113911119D01*
X7532571Y113911119D01*
X7675428Y113958738D01*
X7770666Y114053976D01*
X7818285Y114149214D01*
X7865904Y114339690D01*
X7865904Y114482547D01*
X7818285Y114673023D01*
X7770666Y114768261D01*
X7675428Y114863500D01*
X7532571Y114911119D01*
X7437333Y114911119D01*
X7294476Y114863500D01*
X7246857Y114815880D01*
X6389714Y114911119D02*
X6580190Y114911119D01*
X6675428Y114863500D01*
X6723047Y114815880D01*
X6818285Y114673023D01*
X6865904Y114482547D01*
X6865904Y114101595D01*
X6818285Y114006357D01*
X6770666Y113958738D01*
X6675428Y113911119D01*
X6484952Y113911119D01*
X6389714Y113958738D01*
X6342095Y114006357D01*
X6294476Y114101595D01*
X6294476Y114339690D01*
X6342095Y114434928D01*
X6389714Y114482547D01*
X6484952Y114530166D01*
X6675428Y114530166D01*
X6770666Y114482547D01*
X6818285Y114434928D01*
X6865904Y114339690D01*
X5961142Y114911119D02*
X5294476Y114911119D01*
X5723047Y113911119D01*
X9723357Y118324357D02*
X9770976Y118276738D01*
X9913833Y118229119D01*
X10009071Y118229119D01*
X10151928Y118276738D01*
X10247166Y118371976D01*
X10294785Y118467214D01*
X10342404Y118657690D01*
X10342404Y118800547D01*
X10294785Y118991023D01*
X10247166Y119086261D01*
X10151928Y119181500D01*
X10009071Y119229119D01*
X9913833Y119229119D01*
X9770976Y119181500D01*
X9723357Y119133880D01*
X8866214Y119229119D02*
X9056690Y119229119D01*
X9151928Y119181500D01*
X9199547Y119133880D01*
X9294785Y118991023D01*
X9342404Y118800547D01*
X9342404Y118419595D01*
X9294785Y118324357D01*
X9247166Y118276738D01*
X9151928Y118229119D01*
X8961452Y118229119D01*
X8866214Y118276738D01*
X8818595Y118324357D01*
X8770976Y118419595D01*
X8770976Y118657690D01*
X8818595Y118752928D01*
X8866214Y118800547D01*
X8961452Y118848166D01*
X9151928Y118848166D01*
X9247166Y118800547D01*
X9294785Y118752928D01*
X9342404Y118657690D01*
X7913833Y119229119D02*
X8104309Y119229119D01*
X8199547Y119181500D01*
X8247166Y119133880D01*
X8342404Y118991023D01*
X8390023Y118800547D01*
X8390023Y118419595D01*
X8342404Y118324357D01*
X8294785Y118276738D01*
X8199547Y118229119D01*
X8009071Y118229119D01*
X7913833Y118276738D01*
X7866214Y118324357D01*
X7818595Y118419595D01*
X7818595Y118657690D01*
X7866214Y118752928D01*
X7913833Y118800547D01*
X8009071Y118848166D01*
X8199547Y118848166D01*
X8294785Y118800547D01*
X8342404Y118752928D01*
X8390023Y118657690D01*
X33440666Y123912357D02*
X33488285Y123864738D01*
X33631142Y123817119D01*
X33726380Y123817119D01*
X33869238Y123864738D01*
X33964476Y123959976D01*
X34012095Y124055214D01*
X34059714Y124245690D01*
X34059714Y124388547D01*
X34012095Y124579023D01*
X33964476Y124674261D01*
X33869238Y124769500D01*
X33726380Y124817119D01*
X33631142Y124817119D01*
X33488285Y124769500D01*
X33440666Y124721880D01*
X32535904Y124817119D02*
X33012095Y124817119D01*
X33059714Y124340928D01*
X33012095Y124388547D01*
X32916857Y124436166D01*
X32678761Y124436166D01*
X32583523Y124388547D01*
X32535904Y124340928D01*
X32488285Y124245690D01*
X32488285Y124007595D01*
X32535904Y123912357D01*
X32583523Y123864738D01*
X32678761Y123817119D01*
X32916857Y123817119D01*
X33012095Y123864738D01*
X33059714Y123912357D01*
X36012357Y110090857D02*
X36059976Y110043238D01*
X36202833Y109995619D01*
X36298071Y109995619D01*
X36440928Y110043238D01*
X36536166Y110138476D01*
X36583785Y110233714D01*
X36631404Y110424190D01*
X36631404Y110567047D01*
X36583785Y110757523D01*
X36536166Y110852761D01*
X36440928Y110948000D01*
X36298071Y110995619D01*
X36202833Y110995619D01*
X36059976Y110948000D01*
X36012357Y110900380D01*
X35155214Y110995619D02*
X35345690Y110995619D01*
X35440928Y110948000D01*
X35488547Y110900380D01*
X35583785Y110757523D01*
X35631404Y110567047D01*
X35631404Y110186095D01*
X35583785Y110090857D01*
X35536166Y110043238D01*
X35440928Y109995619D01*
X35250452Y109995619D01*
X35155214Y110043238D01*
X35107595Y110090857D01*
X35059976Y110186095D01*
X35059976Y110424190D01*
X35107595Y110519428D01*
X35155214Y110567047D01*
X35250452Y110614666D01*
X35440928Y110614666D01*
X35536166Y110567047D01*
X35583785Y110519428D01*
X35631404Y110424190D01*
X34155214Y110995619D02*
X34631404Y110995619D01*
X34679023Y110519428D01*
X34631404Y110567047D01*
X34536166Y110614666D01*
X34298071Y110614666D01*
X34202833Y110567047D01*
X34155214Y110519428D01*
X34107595Y110424190D01*
X34107595Y110186095D01*
X34155214Y110090857D01*
X34202833Y110043238D01*
X34298071Y109995619D01*
X34536166Y109995619D01*
X34631404Y110043238D01*
X34679023Y110090857D01*
X32773857Y129881357D02*
X32821476Y129833738D01*
X32964333Y129786119D01*
X33059571Y129786119D01*
X33202428Y129833738D01*
X33297666Y129928976D01*
X33345285Y130024214D01*
X33392904Y130214690D01*
X33392904Y130357547D01*
X33345285Y130548023D01*
X33297666Y130643261D01*
X33202428Y130738500D01*
X33059571Y130786119D01*
X32964333Y130786119D01*
X32821476Y130738500D01*
X32773857Y130690880D01*
X31916714Y130786119D02*
X32107190Y130786119D01*
X32202428Y130738500D01*
X32250047Y130690880D01*
X32345285Y130548023D01*
X32392904Y130357547D01*
X32392904Y129976595D01*
X32345285Y129881357D01*
X32297666Y129833738D01*
X32202428Y129786119D01*
X32011952Y129786119D01*
X31916714Y129833738D01*
X31869095Y129881357D01*
X31821476Y129976595D01*
X31821476Y130214690D01*
X31869095Y130309928D01*
X31916714Y130357547D01*
X32011952Y130405166D01*
X32202428Y130405166D01*
X32297666Y130357547D01*
X32345285Y130309928D01*
X32392904Y130214690D01*
X30964333Y130452785D02*
X30964333Y129786119D01*
X31202428Y130833738D02*
X31440523Y130119452D01*
X30821476Y130119452D01*
X35821857Y120165857D02*
X35869476Y120118238D01*
X36012333Y120070619D01*
X36107571Y120070619D01*
X36250428Y120118238D01*
X36345666Y120213476D01*
X36393285Y120308714D01*
X36440904Y120499190D01*
X36440904Y120642047D01*
X36393285Y120832523D01*
X36345666Y120927761D01*
X36250428Y121023000D01*
X36107571Y121070619D01*
X36012333Y121070619D01*
X35869476Y121023000D01*
X35821857Y120975380D01*
X34964714Y121070619D02*
X35155190Y121070619D01*
X35250428Y121023000D01*
X35298047Y120975380D01*
X35393285Y120832523D01*
X35440904Y120642047D01*
X35440904Y120261095D01*
X35393285Y120165857D01*
X35345666Y120118238D01*
X35250428Y120070619D01*
X35059952Y120070619D01*
X34964714Y120118238D01*
X34917095Y120165857D01*
X34869476Y120261095D01*
X34869476Y120499190D01*
X34917095Y120594428D01*
X34964714Y120642047D01*
X35059952Y120689666D01*
X35250428Y120689666D01*
X35345666Y120642047D01*
X35393285Y120594428D01*
X35440904Y120499190D01*
X34536142Y121070619D02*
X33917095Y121070619D01*
X34250428Y120689666D01*
X34107571Y120689666D01*
X34012333Y120642047D01*
X33964714Y120594428D01*
X33917095Y120499190D01*
X33917095Y120261095D01*
X33964714Y120165857D01*
X34012333Y120118238D01*
X34107571Y120070619D01*
X34393285Y120070619D01*
X34488523Y120118238D01*
X34536142Y120165857D01*
X24582357Y112376857D02*
X24629976Y112329238D01*
X24772833Y112281619D01*
X24868071Y112281619D01*
X25010928Y112329238D01*
X25106166Y112424476D01*
X25153785Y112519714D01*
X25201404Y112710190D01*
X25201404Y112853047D01*
X25153785Y113043523D01*
X25106166Y113138761D01*
X25010928Y113234000D01*
X24868071Y113281619D01*
X24772833Y113281619D01*
X24629976Y113234000D01*
X24582357Y113186380D01*
X23725214Y113281619D02*
X23915690Y113281619D01*
X24010928Y113234000D01*
X24058547Y113186380D01*
X24153785Y113043523D01*
X24201404Y112853047D01*
X24201404Y112472095D01*
X24153785Y112376857D01*
X24106166Y112329238D01*
X24010928Y112281619D01*
X23820452Y112281619D01*
X23725214Y112329238D01*
X23677595Y112376857D01*
X23629976Y112472095D01*
X23629976Y112710190D01*
X23677595Y112805428D01*
X23725214Y112853047D01*
X23820452Y112900666D01*
X24010928Y112900666D01*
X24106166Y112853047D01*
X24153785Y112805428D01*
X24201404Y112710190D01*
X23249023Y113186380D02*
X23201404Y113234000D01*
X23106166Y113281619D01*
X22868071Y113281619D01*
X22772833Y113234000D01*
X22725214Y113186380D01*
X22677595Y113091142D01*
X22677595Y112995904D01*
X22725214Y112853047D01*
X23296642Y112281619D01*
X22677595Y112281619D01*
X24490457Y142382057D02*
X24538076Y142334438D01*
X24680933Y142286819D01*
X24776171Y142286819D01*
X24919028Y142334438D01*
X25014266Y142429676D01*
X25061885Y142524914D01*
X25109504Y142715390D01*
X25109504Y142858247D01*
X25061885Y143048723D01*
X25014266Y143143961D01*
X24919028Y143239200D01*
X24776171Y143286819D01*
X24680933Y143286819D01*
X24538076Y143239200D01*
X24490457Y143191580D01*
X23585695Y143286819D02*
X24061885Y143286819D01*
X24109504Y142810628D01*
X24061885Y142858247D01*
X23966647Y142905866D01*
X23728552Y142905866D01*
X23633314Y142858247D01*
X23585695Y142810628D01*
X23538076Y142715390D01*
X23538076Y142477295D01*
X23585695Y142382057D01*
X23633314Y142334438D01*
X23728552Y142286819D01*
X23966647Y142286819D01*
X24061885Y142334438D01*
X24109504Y142382057D01*
X22680933Y142953485D02*
X22680933Y142286819D01*
X22919028Y143334438D02*
X23157123Y142620152D01*
X22538076Y142620152D01*
X29474857Y110090857D02*
X29522476Y110043238D01*
X29665333Y109995619D01*
X29760571Y109995619D01*
X29903428Y110043238D01*
X29998666Y110138476D01*
X30046285Y110233714D01*
X30093904Y110424190D01*
X30093904Y110567047D01*
X30046285Y110757523D01*
X29998666Y110852761D01*
X29903428Y110948000D01*
X29760571Y110995619D01*
X29665333Y110995619D01*
X29522476Y110948000D01*
X29474857Y110900380D01*
X28570095Y110995619D02*
X29046285Y110995619D01*
X29093904Y110519428D01*
X29046285Y110567047D01*
X28951047Y110614666D01*
X28712952Y110614666D01*
X28617714Y110567047D01*
X28570095Y110519428D01*
X28522476Y110424190D01*
X28522476Y110186095D01*
X28570095Y110090857D01*
X28617714Y110043238D01*
X28712952Y109995619D01*
X28951047Y109995619D01*
X29046285Y110043238D01*
X29093904Y110090857D01*
X28189142Y110995619D02*
X27570095Y110995619D01*
X27903428Y110614666D01*
X27760571Y110614666D01*
X27665333Y110567047D01*
X27617714Y110519428D01*
X27570095Y110424190D01*
X27570095Y110186095D01*
X27617714Y110090857D01*
X27665333Y110043238D01*
X27760571Y109995619D01*
X28046285Y109995619D01*
X28141523Y110043238D01*
X28189142Y110090857D01*
X86685357Y78414619D02*
X87018690Y78890809D01*
X87256785Y78414619D02*
X87256785Y79414619D01*
X86875833Y79414619D01*
X86780595Y79367000D01*
X86732976Y79319380D01*
X86685357Y79224142D01*
X86685357Y79081285D01*
X86732976Y78986047D01*
X86780595Y78938428D01*
X86875833Y78890809D01*
X87256785Y78890809D01*
X86304404Y79319380D02*
X86256785Y79367000D01*
X86161547Y79414619D01*
X85923452Y79414619D01*
X85828214Y79367000D01*
X85780595Y79319380D01*
X85732976Y79224142D01*
X85732976Y79128904D01*
X85780595Y78986047D01*
X86352023Y78414619D01*
X85732976Y78414619D01*
X85256785Y78414619D02*
X85066309Y78414619D01*
X84971071Y78462238D01*
X84923452Y78509857D01*
X84828214Y78652714D01*
X84780595Y78843190D01*
X84780595Y79224142D01*
X84828214Y79319380D01*
X84875833Y79367000D01*
X84971071Y79414619D01*
X85161547Y79414619D01*
X85256785Y79367000D01*
X85304404Y79319380D01*
X85352023Y79224142D01*
X85352023Y78986047D01*
X85304404Y78890809D01*
X85256785Y78843190D01*
X85161547Y78795571D01*
X84971071Y78795571D01*
X84875833Y78843190D01*
X84828214Y78890809D01*
X84780595Y78986047D01*
X90561857Y61311619D02*
X90895190Y61787809D01*
X91133285Y61311619D02*
X91133285Y62311619D01*
X90752333Y62311619D01*
X90657095Y62264000D01*
X90609476Y62216380D01*
X90561857Y62121142D01*
X90561857Y61978285D01*
X90609476Y61883047D01*
X90657095Y61835428D01*
X90752333Y61787809D01*
X91133285Y61787809D01*
X90180904Y62216380D02*
X90133285Y62264000D01*
X90038047Y62311619D01*
X89799952Y62311619D01*
X89704714Y62264000D01*
X89657095Y62216380D01*
X89609476Y62121142D01*
X89609476Y62025904D01*
X89657095Y61883047D01*
X90228523Y61311619D01*
X89609476Y61311619D01*
X89038047Y61883047D02*
X89133285Y61930666D01*
X89180904Y61978285D01*
X89228523Y62073523D01*
X89228523Y62121142D01*
X89180904Y62216380D01*
X89133285Y62264000D01*
X89038047Y62311619D01*
X88847571Y62311619D01*
X88752333Y62264000D01*
X88704714Y62216380D01*
X88657095Y62121142D01*
X88657095Y62073523D01*
X88704714Y61978285D01*
X88752333Y61930666D01*
X88847571Y61883047D01*
X89038047Y61883047D01*
X89133285Y61835428D01*
X89180904Y61787809D01*
X89228523Y61692571D01*
X89228523Y61502095D01*
X89180904Y61406857D01*
X89133285Y61359238D01*
X89038047Y61311619D01*
X88847571Y61311619D01*
X88752333Y61359238D01*
X88704714Y61406857D01*
X88657095Y61502095D01*
X88657095Y61692571D01*
X88704714Y61787809D01*
X88752333Y61835428D01*
X88847571Y61883047D01*
X106465666Y63047619D02*
X106799000Y63523809D01*
X107037095Y63047619D02*
X107037095Y64047619D01*
X106656142Y64047619D01*
X106560904Y64000000D01*
X106513285Y63952380D01*
X106465666Y63857142D01*
X106465666Y63714285D01*
X106513285Y63619047D01*
X106560904Y63571428D01*
X106656142Y63523809D01*
X107037095Y63523809D01*
X105894238Y63619047D02*
X105989476Y63666666D01*
X106037095Y63714285D01*
X106084714Y63809523D01*
X106084714Y63857142D01*
X106037095Y63952380D01*
X105989476Y64000000D01*
X105894238Y64047619D01*
X105703761Y64047619D01*
X105608523Y64000000D01*
X105560904Y63952380D01*
X105513285Y63857142D01*
X105513285Y63809523D01*
X105560904Y63714285D01*
X105608523Y63666666D01*
X105703761Y63619047D01*
X105894238Y63619047D01*
X105989476Y63571428D01*
X106037095Y63523809D01*
X106084714Y63428571D01*
X106084714Y63238095D01*
X106037095Y63142857D01*
X105989476Y63095238D01*
X105894238Y63047619D01*
X105703761Y63047619D01*
X105608523Y63095238D01*
X105560904Y63142857D01*
X105513285Y63238095D01*
X105513285Y63428571D01*
X105560904Y63523809D01*
X105608523Y63571428D01*
X105703761Y63619047D01*
X-45077142Y193698857D02*
X-45029523Y193651238D01*
X-44886666Y193603619D01*
X-44791428Y193603619D01*
X-44648571Y193651238D01*
X-44553333Y193746476D01*
X-44505714Y193841714D01*
X-44458095Y194032190D01*
X-44458095Y194175047D01*
X-44505714Y194365523D01*
X-44553333Y194460761D01*
X-44648571Y194556000D01*
X-44791428Y194603619D01*
X-44886666Y194603619D01*
X-45029523Y194556000D01*
X-45077142Y194508380D01*
X-45981904Y194603619D02*
X-45505714Y194603619D01*
X-45458095Y194127428D01*
X-45505714Y194175047D01*
X-45600952Y194222666D01*
X-45839047Y194222666D01*
X-45934285Y194175047D01*
X-45981904Y194127428D01*
X-46029523Y194032190D01*
X-46029523Y193794095D01*
X-45981904Y193698857D01*
X-45934285Y193651238D01*
X-45839047Y193603619D01*
X-45600952Y193603619D01*
X-45505714Y193651238D01*
X-45458095Y193698857D01*
X-46934285Y194603619D02*
X-46458095Y194603619D01*
X-46410476Y194127428D01*
X-46458095Y194175047D01*
X-46553333Y194222666D01*
X-46791428Y194222666D01*
X-46886666Y194175047D01*
X-46934285Y194127428D01*
X-46981904Y194032190D01*
X-46981904Y193794095D01*
X-46934285Y193698857D01*
X-46886666Y193651238D01*
X-46791428Y193603619D01*
X-46553333Y193603619D01*
X-46458095Y193651238D01*
X-46410476Y193698857D01*
X-35869642Y190926357D02*
X-35822023Y190878738D01*
X-35679166Y190831119D01*
X-35583928Y190831119D01*
X-35441071Y190878738D01*
X-35345833Y190973976D01*
X-35298214Y191069214D01*
X-35250595Y191259690D01*
X-35250595Y191402547D01*
X-35298214Y191593023D01*
X-35345833Y191688261D01*
X-35441071Y191783500D01*
X-35583928Y191831119D01*
X-35679166Y191831119D01*
X-35822023Y191783500D01*
X-35869642Y191735880D01*
X-36202976Y191831119D02*
X-36822023Y191831119D01*
X-36488690Y191450166D01*
X-36631547Y191450166D01*
X-36726785Y191402547D01*
X-36774404Y191354928D01*
X-36822023Y191259690D01*
X-36822023Y191021595D01*
X-36774404Y190926357D01*
X-36726785Y190878738D01*
X-36631547Y190831119D01*
X-36345833Y190831119D01*
X-36250595Y190878738D01*
X-36202976Y190926357D01*
X-37774404Y190831119D02*
X-37202976Y190831119D01*
X-37488690Y190831119D02*
X-37488690Y191831119D01*
X-37393452Y191688261D01*
X-37298214Y191593023D01*
X-37202976Y191545404D01*
X31630857Y211383619D02*
X31964190Y211859809D01*
X32202285Y211383619D02*
X32202285Y212383619D01*
X31821333Y212383619D01*
X31726095Y212336000D01*
X31678476Y212288380D01*
X31630857Y212193142D01*
X31630857Y212050285D01*
X31678476Y211955047D01*
X31726095Y211907428D01*
X31821333Y211859809D01*
X32202285Y211859809D01*
X30678476Y211383619D02*
X31249904Y211383619D01*
X30964190Y211383619D02*
X30964190Y212383619D01*
X31059428Y212240761D01*
X31154666Y212145523D01*
X31249904Y212097904D01*
X29773714Y212383619D02*
X30249904Y212383619D01*
X30297523Y211907428D01*
X30249904Y211955047D01*
X30154666Y212002666D01*
X29916571Y212002666D01*
X29821333Y211955047D01*
X29773714Y211907428D01*
X29726095Y211812190D01*
X29726095Y211574095D01*
X29773714Y211478857D01*
X29821333Y211431238D01*
X29916571Y211383619D01*
X30154666Y211383619D01*
X30249904Y211431238D01*
X30297523Y211478857D01*
X32742166Y133183357D02*
X32789785Y133135738D01*
X32932642Y133088119D01*
X33027880Y133088119D01*
X33170738Y133135738D01*
X33265976Y133230976D01*
X33313595Y133326214D01*
X33361214Y133516690D01*
X33361214Y133659547D01*
X33313595Y133850023D01*
X33265976Y133945261D01*
X33170738Y134040500D01*
X33027880Y134088119D01*
X32932642Y134088119D01*
X32789785Y134040500D01*
X32742166Y133992880D01*
X32170738Y133659547D02*
X32265976Y133707166D01*
X32313595Y133754785D01*
X32361214Y133850023D01*
X32361214Y133897642D01*
X32313595Y133992880D01*
X32265976Y134040500D01*
X32170738Y134088119D01*
X31980261Y134088119D01*
X31885023Y134040500D01*
X31837404Y133992880D01*
X31789785Y133897642D01*
X31789785Y133850023D01*
X31837404Y133754785D01*
X31885023Y133707166D01*
X31980261Y133659547D01*
X32170738Y133659547D01*
X32265976Y133611928D01*
X32313595Y133564309D01*
X32361214Y133469071D01*
X32361214Y133278595D01*
X32313595Y133183357D01*
X32265976Y133135738D01*
X32170738Y133088119D01*
X31980261Y133088119D01*
X31885023Y133135738D01*
X31837404Y133183357D01*
X31789785Y133278595D01*
X31789785Y133469071D01*
X31837404Y133564309D01*
X31885023Y133611928D01*
X31980261Y133659547D01*
X33377166Y115149357D02*
X33424785Y115101738D01*
X33567642Y115054119D01*
X33662880Y115054119D01*
X33805738Y115101738D01*
X33900976Y115196976D01*
X33948595Y115292214D01*
X33996214Y115482690D01*
X33996214Y115625547D01*
X33948595Y115816023D01*
X33900976Y115911261D01*
X33805738Y116006500D01*
X33662880Y116054119D01*
X33567642Y116054119D01*
X33424785Y116006500D01*
X33377166Y115958880D01*
X33043833Y116054119D02*
X32377166Y116054119D01*
X32805738Y115054119D01*
X19283166Y110090857D02*
X19330785Y110043238D01*
X19473642Y109995619D01*
X19568880Y109995619D01*
X19711738Y110043238D01*
X19806976Y110138476D01*
X19854595Y110233714D01*
X19902214Y110424190D01*
X19902214Y110567047D01*
X19854595Y110757523D01*
X19806976Y110852761D01*
X19711738Y110948000D01*
X19568880Y110995619D01*
X19473642Y110995619D01*
X19330785Y110948000D01*
X19283166Y110900380D01*
X18426023Y110995619D02*
X18616500Y110995619D01*
X18711738Y110948000D01*
X18759357Y110900380D01*
X18854595Y110757523D01*
X18902214Y110567047D01*
X18902214Y110186095D01*
X18854595Y110090857D01*
X18806976Y110043238D01*
X18711738Y109995619D01*
X18521261Y109995619D01*
X18426023Y110043238D01*
X18378404Y110090857D01*
X18330785Y110186095D01*
X18330785Y110424190D01*
X18378404Y110519428D01*
X18426023Y110567047D01*
X18521261Y110614666D01*
X18711738Y110614666D01*
X18806976Y110567047D01*
X18854595Y110519428D01*
X18902214Y110424190D01*
X31583466Y142432857D02*
X31631085Y142385238D01*
X31773942Y142337619D01*
X31869180Y142337619D01*
X32012038Y142385238D01*
X32107276Y142480476D01*
X32154895Y142575714D01*
X32202514Y142766190D01*
X32202514Y142909047D01*
X32154895Y143099523D01*
X32107276Y143194761D01*
X32012038Y143290000D01*
X31869180Y143337619D01*
X31773942Y143337619D01*
X31631085Y143290000D01*
X31583466Y143242380D01*
X30726323Y143004285D02*
X30726323Y142337619D01*
X30964419Y143385238D02*
X31202514Y142670952D01*
X30583466Y142670952D01*
X32678666Y137437857D02*
X32726285Y137390238D01*
X32869142Y137342619D01*
X32964380Y137342619D01*
X33107238Y137390238D01*
X33202476Y137485476D01*
X33250095Y137580714D01*
X33297714Y137771190D01*
X33297714Y137914047D01*
X33250095Y138104523D01*
X33202476Y138199761D01*
X33107238Y138295000D01*
X32964380Y138342619D01*
X32869142Y138342619D01*
X32726285Y138295000D01*
X32678666Y138247380D01*
X32345333Y138342619D02*
X31726285Y138342619D01*
X32059619Y137961666D01*
X31916761Y137961666D01*
X31821523Y137914047D01*
X31773904Y137866428D01*
X31726285Y137771190D01*
X31726285Y137533095D01*
X31773904Y137437857D01*
X31821523Y137390238D01*
X31916761Y137342619D01*
X32202476Y137342619D01*
X32297714Y137390238D01*
X32345333Y137437857D01*
X14895666Y142432857D02*
X14943285Y142385238D01*
X15086142Y142337619D01*
X15181380Y142337619D01*
X15324238Y142385238D01*
X15419476Y142480476D01*
X15467095Y142575714D01*
X15514714Y142766190D01*
X15514714Y142909047D01*
X15467095Y143099523D01*
X15419476Y143194761D01*
X15324238Y143290000D01*
X15181380Y143337619D01*
X15086142Y143337619D01*
X14943285Y143290000D01*
X14895666Y143242380D01*
X14514714Y143242380D02*
X14467095Y143290000D01*
X14371857Y143337619D01*
X14133761Y143337619D01*
X14038523Y143290000D01*
X13990904Y143242380D01*
X13943285Y143147142D01*
X13943285Y143051904D01*
X13990904Y142909047D01*
X14562333Y142337619D01*
X13943285Y142337619D01*
X14832166Y116016857D02*
X14879785Y115969238D01*
X15022642Y115921619D01*
X15117880Y115921619D01*
X15260738Y115969238D01*
X15355976Y116064476D01*
X15403595Y116159714D01*
X15451214Y116350190D01*
X15451214Y116493047D01*
X15403595Y116683523D01*
X15355976Y116778761D01*
X15260738Y116874000D01*
X15117880Y116921619D01*
X15022642Y116921619D01*
X14879785Y116874000D01*
X14832166Y116826380D01*
X13879785Y115921619D02*
X14451214Y115921619D01*
X14165500Y115921619D02*
X14165500Y116921619D01*
X14260738Y116778761D01*
X14355976Y116683523D01*
X14451214Y116635904D01*
X4262357Y155281357D02*
X4309976Y155233738D01*
X4452833Y155186119D01*
X4548071Y155186119D01*
X4690928Y155233738D01*
X4786166Y155328976D01*
X4833785Y155424214D01*
X4881404Y155614690D01*
X4881404Y155757547D01*
X4833785Y155948023D01*
X4786166Y156043261D01*
X4690928Y156138500D01*
X4548071Y156186119D01*
X4452833Y156186119D01*
X4309976Y156138500D01*
X4262357Y156090880D01*
X3929023Y156186119D02*
X3309976Y156186119D01*
X3643309Y155805166D01*
X3500452Y155805166D01*
X3405214Y155757547D01*
X3357595Y155709928D01*
X3309976Y155614690D01*
X3309976Y155376595D01*
X3357595Y155281357D01*
X3405214Y155233738D01*
X3500452Y155186119D01*
X3786166Y155186119D01*
X3881404Y155233738D01*
X3929023Y155281357D01*
X2833785Y155186119D02*
X2643309Y155186119D01*
X2548071Y155233738D01*
X2500452Y155281357D01*
X2405214Y155424214D01*
X2357595Y155614690D01*
X2357595Y155995642D01*
X2405214Y156090880D01*
X2452833Y156138500D01*
X2548071Y156186119D01*
X2738547Y156186119D01*
X2833785Y156138500D01*
X2881404Y156090880D01*
X2929023Y155995642D01*
X2929023Y155757547D01*
X2881404Y155662309D01*
X2833785Y155614690D01*
X2738547Y155567071D01*
X2548071Y155567071D01*
X2452833Y155614690D01*
X2405214Y155662309D01*
X2357595Y155757547D01*
X4452857Y161482857D02*
X4500476Y161435238D01*
X4643333Y161387619D01*
X4738571Y161387619D01*
X4881428Y161435238D01*
X4976666Y161530476D01*
X5024285Y161625714D01*
X5071904Y161816190D01*
X5071904Y161959047D01*
X5024285Y162149523D01*
X4976666Y162244761D01*
X4881428Y162340000D01*
X4738571Y162387619D01*
X4643333Y162387619D01*
X4500476Y162340000D01*
X4452857Y162292380D01*
X4119523Y162387619D02*
X3500476Y162387619D01*
X3833809Y162006666D01*
X3690952Y162006666D01*
X3595714Y161959047D01*
X3548095Y161911428D01*
X3500476Y161816190D01*
X3500476Y161578095D01*
X3548095Y161482857D01*
X3595714Y161435238D01*
X3690952Y161387619D01*
X3976666Y161387619D01*
X4071904Y161435238D01*
X4119523Y161482857D01*
X2929047Y161959047D02*
X3024285Y162006666D01*
X3071904Y162054285D01*
X3119523Y162149523D01*
X3119523Y162197142D01*
X3071904Y162292380D01*
X3024285Y162340000D01*
X2929047Y162387619D01*
X2738571Y162387619D01*
X2643333Y162340000D01*
X2595714Y162292380D01*
X2548095Y162197142D01*
X2548095Y162149523D01*
X2595714Y162054285D01*
X2643333Y162006666D01*
X2738571Y161959047D01*
X2929047Y161959047D01*
X3024285Y161911428D01*
X3071904Y161863809D01*
X3119523Y161768571D01*
X3119523Y161578095D01*
X3071904Y161482857D01*
X3024285Y161435238D01*
X2929047Y161387619D01*
X2738571Y161387619D01*
X2643333Y161435238D01*
X2595714Y161482857D01*
X2548095Y161578095D01*
X2548095Y161768571D01*
X2595714Y161863809D01*
X2643333Y161911428D01*
X2738571Y161959047D01*
X-6786642Y155281357D02*
X-6739023Y155233738D01*
X-6596166Y155186119D01*
X-6500928Y155186119D01*
X-6358071Y155233738D01*
X-6262833Y155328976D01*
X-6215214Y155424214D01*
X-6167595Y155614690D01*
X-6167595Y155757547D01*
X-6215214Y155948023D01*
X-6262833Y156043261D01*
X-6358071Y156138500D01*
X-6500928Y156186119D01*
X-6596166Y156186119D01*
X-6739023Y156138500D01*
X-6786642Y156090880D01*
X-7119976Y156186119D02*
X-7739023Y156186119D01*
X-7405690Y155805166D01*
X-7548547Y155805166D01*
X-7643785Y155757547D01*
X-7691404Y155709928D01*
X-7739023Y155614690D01*
X-7739023Y155376595D01*
X-7691404Y155281357D01*
X-7643785Y155233738D01*
X-7548547Y155186119D01*
X-7262833Y155186119D01*
X-7167595Y155233738D01*
X-7119976Y155281357D01*
X-8072357Y156186119D02*
X-8739023Y156186119D01*
X-8310452Y155186119D01*
X-1198642Y155154357D02*
X-1151023Y155106738D01*
X-1008166Y155059119D01*
X-912928Y155059119D01*
X-770071Y155106738D01*
X-674833Y155201976D01*
X-627214Y155297214D01*
X-579595Y155487690D01*
X-579595Y155630547D01*
X-627214Y155821023D01*
X-674833Y155916261D01*
X-770071Y156011500D01*
X-912928Y156059119D01*
X-1008166Y156059119D01*
X-1151023Y156011500D01*
X-1198642Y155963880D01*
X-1531976Y156059119D02*
X-2151023Y156059119D01*
X-1817690Y155678166D01*
X-1960547Y155678166D01*
X-2055785Y155630547D01*
X-2103404Y155582928D01*
X-2151023Y155487690D01*
X-2151023Y155249595D01*
X-2103404Y155154357D01*
X-2055785Y155106738D01*
X-1960547Y155059119D01*
X-1674833Y155059119D01*
X-1579595Y155106738D01*
X-1531976Y155154357D01*
X-3008166Y156059119D02*
X-2817690Y156059119D01*
X-2722452Y156011500D01*
X-2674833Y155963880D01*
X-2579595Y155821023D01*
X-2531976Y155630547D01*
X-2531976Y155249595D01*
X-2579595Y155154357D01*
X-2627214Y155106738D01*
X-2722452Y155059119D01*
X-2912928Y155059119D01*
X-3008166Y155106738D01*
X-3055785Y155154357D01*
X-3103404Y155249595D01*
X-3103404Y155487690D01*
X-3055785Y155582928D01*
X-3008166Y155630547D01*
X-2912928Y155678166D01*
X-2722452Y155678166D01*
X-2627214Y155630547D01*
X-2579595Y155582928D01*
X-2531976Y155487690D01*
X-6977142Y161482857D02*
X-6929523Y161435238D01*
X-6786666Y161387619D01*
X-6691428Y161387619D01*
X-6548571Y161435238D01*
X-6453333Y161530476D01*
X-6405714Y161625714D01*
X-6358095Y161816190D01*
X-6358095Y161959047D01*
X-6405714Y162149523D01*
X-6453333Y162244761D01*
X-6548571Y162340000D01*
X-6691428Y162387619D01*
X-6786666Y162387619D01*
X-6929523Y162340000D01*
X-6977142Y162292380D01*
X-7310476Y162387619D02*
X-7929523Y162387619D01*
X-7596190Y162006666D01*
X-7739047Y162006666D01*
X-7834285Y161959047D01*
X-7881904Y161911428D01*
X-7929523Y161816190D01*
X-7929523Y161578095D01*
X-7881904Y161482857D01*
X-7834285Y161435238D01*
X-7739047Y161387619D01*
X-7453333Y161387619D01*
X-7358095Y161435238D01*
X-7310476Y161482857D01*
X-8834285Y162387619D02*
X-8358095Y162387619D01*
X-8310476Y161911428D01*
X-8358095Y161959047D01*
X-8453333Y162006666D01*
X-8691428Y162006666D01*
X-8786666Y161959047D01*
X-8834285Y161911428D01*
X-8881904Y161816190D01*
X-8881904Y161578095D01*
X-8834285Y161482857D01*
X-8786666Y161435238D01*
X-8691428Y161387619D01*
X-8453333Y161387619D01*
X-8358095Y161435238D01*
X-8310476Y161482857D01*
X-11993642Y153185857D02*
X-11946023Y153138238D01*
X-11803166Y153090619D01*
X-11707928Y153090619D01*
X-11565071Y153138238D01*
X-11469833Y153233476D01*
X-11422214Y153328714D01*
X-11374595Y153519190D01*
X-11374595Y153662047D01*
X-11422214Y153852523D01*
X-11469833Y153947761D01*
X-11565071Y154043000D01*
X-11707928Y154090619D01*
X-11803166Y154090619D01*
X-11946023Y154043000D01*
X-11993642Y153995380D01*
X-12326976Y154090619D02*
X-12946023Y154090619D01*
X-12612690Y153709666D01*
X-12755547Y153709666D01*
X-12850785Y153662047D01*
X-12898404Y153614428D01*
X-12946023Y153519190D01*
X-12946023Y153281095D01*
X-12898404Y153185857D01*
X-12850785Y153138238D01*
X-12755547Y153090619D01*
X-12469833Y153090619D01*
X-12374595Y153138238D01*
X-12326976Y153185857D01*
X-13803166Y153757285D02*
X-13803166Y153090619D01*
X-13565071Y154138238D02*
X-13326976Y153423952D01*
X-13946023Y153423952D01*
X20391357Y187348857D02*
X20438976Y187301238D01*
X20581833Y187253619D01*
X20677071Y187253619D01*
X20819928Y187301238D01*
X20915166Y187396476D01*
X20962785Y187491714D01*
X21010404Y187682190D01*
X21010404Y187825047D01*
X20962785Y188015523D01*
X20915166Y188110761D01*
X20819928Y188206000D01*
X20677071Y188253619D01*
X20581833Y188253619D01*
X20438976Y188206000D01*
X20391357Y188158380D01*
X19438976Y187253619D02*
X20010404Y187253619D01*
X19724690Y187253619D02*
X19724690Y188253619D01*
X19819928Y188110761D01*
X19915166Y188015523D01*
X20010404Y187967904D01*
X18581833Y188253619D02*
X18772309Y188253619D01*
X18867547Y188206000D01*
X18915166Y188158380D01*
X19010404Y188015523D01*
X19058023Y187825047D01*
X19058023Y187444095D01*
X19010404Y187348857D01*
X18962785Y187301238D01*
X18867547Y187253619D01*
X18677071Y187253619D01*
X18581833Y187301238D01*
X18534214Y187348857D01*
X18486595Y187444095D01*
X18486595Y187682190D01*
X18534214Y187777428D01*
X18581833Y187825047D01*
X18677071Y187872666D01*
X18867547Y187872666D01*
X18962785Y187825047D01*
X19010404Y187777428D01*
X19058023Y187682190D01*
X36371857Y191412857D02*
X36419476Y191365238D01*
X36562333Y191317619D01*
X36657571Y191317619D01*
X36800428Y191365238D01*
X36895666Y191460476D01*
X36943285Y191555714D01*
X36990904Y191746190D01*
X36990904Y191889047D01*
X36943285Y192079523D01*
X36895666Y192174761D01*
X36800428Y192270000D01*
X36657571Y192317619D01*
X36562333Y192317619D01*
X36419476Y192270000D01*
X36371857Y192222380D01*
X35514714Y192317619D02*
X35705190Y192317619D01*
X35800428Y192270000D01*
X35848047Y192222380D01*
X35943285Y192079523D01*
X35990904Y191889047D01*
X35990904Y191508095D01*
X35943285Y191412857D01*
X35895666Y191365238D01*
X35800428Y191317619D01*
X35609952Y191317619D01*
X35514714Y191365238D01*
X35467095Y191412857D01*
X35419476Y191508095D01*
X35419476Y191746190D01*
X35467095Y191841428D01*
X35514714Y191889047D01*
X35609952Y191936666D01*
X35800428Y191936666D01*
X35895666Y191889047D01*
X35943285Y191841428D01*
X35990904Y191746190D01*
X34467095Y191317619D02*
X35038523Y191317619D01*
X34752809Y191317619D02*
X34752809Y192317619D01*
X34848047Y192174761D01*
X34943285Y192079523D01*
X35038523Y192031904D01*
X-57078642Y138771357D02*
X-57031023Y138723738D01*
X-56888166Y138676119D01*
X-56792928Y138676119D01*
X-56650071Y138723738D01*
X-56554833Y138818976D01*
X-56507214Y138914214D01*
X-56459595Y139104690D01*
X-56459595Y139247547D01*
X-56507214Y139438023D01*
X-56554833Y139533261D01*
X-56650071Y139628500D01*
X-56792928Y139676119D01*
X-56888166Y139676119D01*
X-57031023Y139628500D01*
X-57078642Y139580880D01*
X-57459595Y139580880D02*
X-57507214Y139628500D01*
X-57602452Y139676119D01*
X-57840547Y139676119D01*
X-57935785Y139628500D01*
X-57983404Y139580880D01*
X-58031023Y139485642D01*
X-58031023Y139390404D01*
X-57983404Y139247547D01*
X-57411976Y138676119D01*
X-58031023Y138676119D01*
X-58364357Y139676119D02*
X-58983404Y139676119D01*
X-58650071Y139295166D01*
X-58792928Y139295166D01*
X-58888166Y139247547D01*
X-58935785Y139199928D01*
X-58983404Y139104690D01*
X-58983404Y138866595D01*
X-58935785Y138771357D01*
X-58888166Y138723738D01*
X-58792928Y138676119D01*
X-58507214Y138676119D01*
X-58411976Y138723738D01*
X-58364357Y138771357D01*
X-57142142Y125055357D02*
X-57094523Y125007738D01*
X-56951666Y124960119D01*
X-56856428Y124960119D01*
X-56713571Y125007738D01*
X-56618333Y125102976D01*
X-56570714Y125198214D01*
X-56523095Y125388690D01*
X-56523095Y125531547D01*
X-56570714Y125722023D01*
X-56618333Y125817261D01*
X-56713571Y125912500D01*
X-56856428Y125960119D01*
X-56951666Y125960119D01*
X-57094523Y125912500D01*
X-57142142Y125864880D01*
X-57523095Y125864880D02*
X-57570714Y125912500D01*
X-57665952Y125960119D01*
X-57904047Y125960119D01*
X-57999285Y125912500D01*
X-58046904Y125864880D01*
X-58094523Y125769642D01*
X-58094523Y125674404D01*
X-58046904Y125531547D01*
X-57475476Y124960119D01*
X-58094523Y124960119D01*
X-58475476Y125864880D02*
X-58523095Y125912500D01*
X-58618333Y125960119D01*
X-58856428Y125960119D01*
X-58951666Y125912500D01*
X-58999285Y125864880D01*
X-59046904Y125769642D01*
X-59046904Y125674404D01*
X-58999285Y125531547D01*
X-58427857Y124960119D01*
X-59046904Y124960119D01*
X31630857Y213923619D02*
X31964190Y214399809D01*
X32202285Y213923619D02*
X32202285Y214923619D01*
X31821333Y214923619D01*
X31726095Y214876000D01*
X31678476Y214828380D01*
X31630857Y214733142D01*
X31630857Y214590285D01*
X31678476Y214495047D01*
X31726095Y214447428D01*
X31821333Y214399809D01*
X32202285Y214399809D01*
X30678476Y213923619D02*
X31249904Y213923619D01*
X30964190Y213923619D02*
X30964190Y214923619D01*
X31059428Y214780761D01*
X31154666Y214685523D01*
X31249904Y214637904D01*
X29821333Y214923619D02*
X30011809Y214923619D01*
X30107047Y214876000D01*
X30154666Y214828380D01*
X30249904Y214685523D01*
X30297523Y214495047D01*
X30297523Y214114095D01*
X30249904Y214018857D01*
X30202285Y213971238D01*
X30107047Y213923619D01*
X29916571Y213923619D01*
X29821333Y213971238D01*
X29773714Y214018857D01*
X29726095Y214114095D01*
X29726095Y214352190D01*
X29773714Y214447428D01*
X29821333Y214495047D01*
X29916571Y214542666D01*
X30107047Y214542666D01*
X30202285Y214495047D01*
X30249904Y214447428D01*
X30297523Y214352190D01*
X53157357Y214114119D02*
X53490690Y214590309D01*
X53728785Y214114119D02*
X53728785Y215114119D01*
X53347833Y215114119D01*
X53252595Y215066500D01*
X53204976Y215018880D01*
X53157357Y214923642D01*
X53157357Y214780785D01*
X53204976Y214685547D01*
X53252595Y214637928D01*
X53347833Y214590309D01*
X53728785Y214590309D01*
X52204976Y214114119D02*
X52776404Y214114119D01*
X52490690Y214114119D02*
X52490690Y215114119D01*
X52585928Y214971261D01*
X52681166Y214876023D01*
X52776404Y214828404D01*
X51347833Y214780785D02*
X51347833Y214114119D01*
X51585928Y215161738D02*
X51824023Y214447452D01*
X51204976Y214447452D01*
X50934857Y206938619D02*
X51268190Y207414809D01*
X51506285Y206938619D02*
X51506285Y207938619D01*
X51125333Y207938619D01*
X51030095Y207891000D01*
X50982476Y207843380D01*
X50934857Y207748142D01*
X50934857Y207605285D01*
X50982476Y207510047D01*
X51030095Y207462428D01*
X51125333Y207414809D01*
X51506285Y207414809D01*
X50553904Y207843380D02*
X50506285Y207891000D01*
X50411047Y207938619D01*
X50172952Y207938619D01*
X50077714Y207891000D01*
X50030095Y207843380D01*
X49982476Y207748142D01*
X49982476Y207652904D01*
X50030095Y207510047D01*
X50601523Y206938619D01*
X49982476Y206938619D01*
X49649142Y207938619D02*
X48982476Y207938619D01*
X49411047Y206938619D01*
X54363857Y206938619D02*
X54697190Y207414809D01*
X54935285Y206938619D02*
X54935285Y207938619D01*
X54554333Y207938619D01*
X54459095Y207891000D01*
X54411476Y207843380D01*
X54363857Y207748142D01*
X54363857Y207605285D01*
X54411476Y207510047D01*
X54459095Y207462428D01*
X54554333Y207414809D01*
X54935285Y207414809D01*
X53982904Y207843380D02*
X53935285Y207891000D01*
X53840047Y207938619D01*
X53601952Y207938619D01*
X53506714Y207891000D01*
X53459095Y207843380D01*
X53411476Y207748142D01*
X53411476Y207652904D01*
X53459095Y207510047D01*
X54030523Y206938619D01*
X53411476Y206938619D01*
X52554333Y207938619D02*
X52744809Y207938619D01*
X52840047Y207891000D01*
X52887666Y207843380D01*
X52982904Y207700523D01*
X53030523Y207510047D01*
X53030523Y207129095D01*
X52982904Y207033857D01*
X52935285Y206986238D01*
X52840047Y206938619D01*
X52649571Y206938619D01*
X52554333Y206986238D01*
X52506714Y207033857D01*
X52459095Y207129095D01*
X52459095Y207367190D01*
X52506714Y207462428D01*
X52554333Y207510047D01*
X52649571Y207557666D01*
X52840047Y207557666D01*
X52935285Y207510047D01*
X52982904Y207462428D01*
X53030523Y207367190D01*
X33599357Y206938619D02*
X33932690Y207414809D01*
X34170785Y206938619D02*
X34170785Y207938619D01*
X33789833Y207938619D01*
X33694595Y207891000D01*
X33646976Y207843380D01*
X33599357Y207748142D01*
X33599357Y207605285D01*
X33646976Y207510047D01*
X33694595Y207462428D01*
X33789833Y207414809D01*
X34170785Y207414809D01*
X33218404Y207843380D02*
X33170785Y207891000D01*
X33075547Y207938619D01*
X32837452Y207938619D01*
X32742214Y207891000D01*
X32694595Y207843380D01*
X32646976Y207748142D01*
X32646976Y207652904D01*
X32694595Y207510047D01*
X33266023Y206938619D01*
X32646976Y206938619D01*
X31742214Y207938619D02*
X32218404Y207938619D01*
X32266023Y207462428D01*
X32218404Y207510047D01*
X32123166Y207557666D01*
X31885071Y207557666D01*
X31789833Y207510047D01*
X31742214Y207462428D01*
X31694595Y207367190D01*
X31694595Y207129095D01*
X31742214Y207033857D01*
X31789833Y206986238D01*
X31885071Y206938619D01*
X32123166Y206938619D01*
X32218404Y206986238D01*
X32266023Y207033857D01*
X-48315642Y214876119D02*
X-47982309Y215352309D01*
X-47744214Y214876119D02*
X-47744214Y215876119D01*
X-48125166Y215876119D01*
X-48220404Y215828500D01*
X-48268023Y215780880D01*
X-48315642Y215685642D01*
X-48315642Y215542785D01*
X-48268023Y215447547D01*
X-48220404Y215399928D01*
X-48125166Y215352309D01*
X-47744214Y215352309D01*
X-48696595Y215780880D02*
X-48744214Y215828500D01*
X-48839452Y215876119D01*
X-49077547Y215876119D01*
X-49172785Y215828500D01*
X-49220404Y215780880D01*
X-49268023Y215685642D01*
X-49268023Y215590404D01*
X-49220404Y215447547D01*
X-48648976Y214876119D01*
X-49268023Y214876119D01*
X-50125166Y215542785D02*
X-50125166Y214876119D01*
X-49887071Y215923738D02*
X-49648976Y215209452D01*
X-50268023Y215209452D01*
X-24185642Y214876119D02*
X-23852309Y215352309D01*
X-23614214Y214876119D02*
X-23614214Y215876119D01*
X-23995166Y215876119D01*
X-24090404Y215828500D01*
X-24138023Y215780880D01*
X-24185642Y215685642D01*
X-24185642Y215542785D01*
X-24138023Y215447547D01*
X-24090404Y215399928D01*
X-23995166Y215352309D01*
X-23614214Y215352309D01*
X-24566595Y215780880D02*
X-24614214Y215828500D01*
X-24709452Y215876119D01*
X-24947547Y215876119D01*
X-25042785Y215828500D01*
X-25090404Y215780880D01*
X-25138023Y215685642D01*
X-25138023Y215590404D01*
X-25090404Y215447547D01*
X-24518976Y214876119D01*
X-25138023Y214876119D01*
X-25471357Y215876119D02*
X-26090404Y215876119D01*
X-25757071Y215495166D01*
X-25899928Y215495166D01*
X-25995166Y215447547D01*
X-26042785Y215399928D01*
X-26090404Y215304690D01*
X-26090404Y215066595D01*
X-26042785Y214971357D01*
X-25995166Y214923738D01*
X-25899928Y214876119D01*
X-25614214Y214876119D01*
X-25518976Y214923738D01*
X-25471357Y214971357D01*
X-43807142Y179252619D02*
X-43473809Y179728809D01*
X-43235714Y179252619D02*
X-43235714Y180252619D01*
X-43616666Y180252619D01*
X-43711904Y180205000D01*
X-43759523Y180157380D01*
X-43807142Y180062142D01*
X-43807142Y179919285D01*
X-43759523Y179824047D01*
X-43711904Y179776428D01*
X-43616666Y179728809D01*
X-43235714Y179728809D01*
X-44188095Y180157380D02*
X-44235714Y180205000D01*
X-44330952Y180252619D01*
X-44569047Y180252619D01*
X-44664285Y180205000D01*
X-44711904Y180157380D01*
X-44759523Y180062142D01*
X-44759523Y179966904D01*
X-44711904Y179824047D01*
X-44140476Y179252619D01*
X-44759523Y179252619D01*
X-45378571Y180252619D02*
X-45473809Y180252619D01*
X-45569047Y180205000D01*
X-45616666Y180157380D01*
X-45664285Y180062142D01*
X-45711904Y179871666D01*
X-45711904Y179633571D01*
X-45664285Y179443095D01*
X-45616666Y179347857D01*
X-45569047Y179300238D01*
X-45473809Y179252619D01*
X-45378571Y179252619D01*
X-45283333Y179300238D01*
X-45235714Y179347857D01*
X-45188095Y179443095D01*
X-45140476Y179633571D01*
X-45140476Y179871666D01*
X-45188095Y180062142D01*
X-45235714Y180157380D01*
X-45283333Y180205000D01*
X-45378571Y180252619D01*
X-48125142Y203890619D02*
X-47791809Y204366809D01*
X-47553714Y203890619D02*
X-47553714Y204890619D01*
X-47934666Y204890619D01*
X-48029904Y204843000D01*
X-48077523Y204795380D01*
X-48125142Y204700142D01*
X-48125142Y204557285D01*
X-48077523Y204462047D01*
X-48029904Y204414428D01*
X-47934666Y204366809D01*
X-47553714Y204366809D01*
X-48506095Y204795380D02*
X-48553714Y204843000D01*
X-48648952Y204890619D01*
X-48887047Y204890619D01*
X-48982285Y204843000D01*
X-49029904Y204795380D01*
X-49077523Y204700142D01*
X-49077523Y204604904D01*
X-49029904Y204462047D01*
X-48458476Y203890619D01*
X-49077523Y203890619D01*
X-49458476Y204795380D02*
X-49506095Y204843000D01*
X-49601333Y204890619D01*
X-49839428Y204890619D01*
X-49934666Y204843000D01*
X-49982285Y204795380D01*
X-50029904Y204700142D01*
X-50029904Y204604904D01*
X-49982285Y204462047D01*
X-49410857Y203890619D01*
X-50029904Y203890619D01*
X-18978642Y194556119D02*
X-18645309Y195032309D01*
X-18407214Y194556119D02*
X-18407214Y195556119D01*
X-18788166Y195556119D01*
X-18883404Y195508500D01*
X-18931023Y195460880D01*
X-18978642Y195365642D01*
X-18978642Y195222785D01*
X-18931023Y195127547D01*
X-18883404Y195079928D01*
X-18788166Y195032309D01*
X-18407214Y195032309D01*
X-19931023Y194556119D02*
X-19359595Y194556119D01*
X-19645309Y194556119D02*
X-19645309Y195556119D01*
X-19550071Y195413261D01*
X-19454833Y195318023D01*
X-19359595Y195270404D01*
X-20502452Y195127547D02*
X-20407214Y195175166D01*
X-20359595Y195222785D01*
X-20311976Y195318023D01*
X-20311976Y195365642D01*
X-20359595Y195460880D01*
X-20407214Y195508500D01*
X-20502452Y195556119D01*
X-20692928Y195556119D01*
X-20788166Y195508500D01*
X-20835785Y195460880D01*
X-20883404Y195365642D01*
X-20883404Y195318023D01*
X-20835785Y195222785D01*
X-20788166Y195175166D01*
X-20692928Y195127547D01*
X-20502452Y195127547D01*
X-20407214Y195079928D01*
X-20359595Y195032309D01*
X-20311976Y194937071D01*
X-20311976Y194746595D01*
X-20359595Y194651357D01*
X-20407214Y194603738D01*
X-20502452Y194556119D01*
X-20692928Y194556119D01*
X-20788166Y194603738D01*
X-20835785Y194651357D01*
X-20883404Y194746595D01*
X-20883404Y194937071D01*
X-20835785Y195032309D01*
X-20788166Y195079928D01*
X-20692928Y195127547D01*
X-47871142Y184713619D02*
X-47537809Y185189809D01*
X-47299714Y184713619D02*
X-47299714Y185713619D01*
X-47680666Y185713619D01*
X-47775904Y185666000D01*
X-47823523Y185618380D01*
X-47871142Y185523142D01*
X-47871142Y185380285D01*
X-47823523Y185285047D01*
X-47775904Y185237428D01*
X-47680666Y185189809D01*
X-47299714Y185189809D01*
X-48823523Y184713619D02*
X-48252095Y184713619D01*
X-48537809Y184713619D02*
X-48537809Y185713619D01*
X-48442571Y185570761D01*
X-48347333Y185475523D01*
X-48252095Y185427904D01*
X-49156857Y185713619D02*
X-49823523Y185713619D01*
X-49394952Y184713619D01*
X-56411833Y99814119D02*
X-56078500Y100290309D01*
X-55840404Y99814119D02*
X-55840404Y100814119D01*
X-56221357Y100814119D01*
X-56316595Y100766500D01*
X-56364214Y100718880D01*
X-56411833Y100623642D01*
X-56411833Y100480785D01*
X-56364214Y100385547D01*
X-56316595Y100337928D01*
X-56221357Y100290309D01*
X-55840404Y100290309D01*
X-56745166Y100814119D02*
X-57411833Y100814119D01*
X-56983261Y99814119D01*
X59158166Y179379619D02*
X59491500Y179855809D01*
X59729595Y179379619D02*
X59729595Y180379619D01*
X59348642Y180379619D01*
X59253404Y180332000D01*
X59205785Y180284380D01*
X59158166Y180189142D01*
X59158166Y180046285D01*
X59205785Y179951047D01*
X59253404Y179903428D01*
X59348642Y179855809D01*
X59729595Y179855809D01*
X58253404Y180379619D02*
X58729595Y180379619D01*
X58777214Y179903428D01*
X58729595Y179951047D01*
X58634357Y179998666D01*
X58396261Y179998666D01*
X58301023Y179951047D01*
X58253404Y179903428D01*
X58205785Y179808190D01*
X58205785Y179570095D01*
X58253404Y179474857D01*
X58301023Y179427238D01*
X58396261Y179379619D01*
X58634357Y179379619D01*
X58729595Y179427238D01*
X58777214Y179474857D01*
X115736666Y75662619D02*
X116070000Y76138809D01*
X116308095Y75662619D02*
X116308095Y76662619D01*
X115927142Y76662619D01*
X115831904Y76615000D01*
X115784285Y76567380D01*
X115736666Y76472142D01*
X115736666Y76329285D01*
X115784285Y76234047D01*
X115831904Y76186428D01*
X115927142Y76138809D01*
X116308095Y76138809D01*
X114879523Y76329285D02*
X114879523Y75662619D01*
X115117619Y76710238D02*
X115355714Y75995952D01*
X114736666Y75995952D01*
X53220857Y211637619D02*
X53554190Y212113809D01*
X53792285Y211637619D02*
X53792285Y212637619D01*
X53411333Y212637619D01*
X53316095Y212590000D01*
X53268476Y212542380D01*
X53220857Y212447142D01*
X53220857Y212304285D01*
X53268476Y212209047D01*
X53316095Y212161428D01*
X53411333Y212113809D01*
X53792285Y212113809D01*
X52268476Y211637619D02*
X52839904Y211637619D01*
X52554190Y211637619D02*
X52554190Y212637619D01*
X52649428Y212494761D01*
X52744666Y212399523D01*
X52839904Y212351904D01*
X51935142Y212637619D02*
X51316095Y212637619D01*
X51649428Y212256666D01*
X51506571Y212256666D01*
X51411333Y212209047D01*
X51363714Y212161428D01*
X51316095Y212066190D01*
X51316095Y211828095D01*
X51363714Y211732857D01*
X51411333Y211685238D01*
X51506571Y211637619D01*
X51792285Y211637619D01*
X51887523Y211685238D01*
X51935142Y211732857D01*
X-57110333Y82859619D02*
X-56777000Y83335809D01*
X-56538904Y82859619D02*
X-56538904Y83859619D01*
X-56919857Y83859619D01*
X-57015095Y83812000D01*
X-57062714Y83764380D01*
X-57110333Y83669142D01*
X-57110333Y83526285D01*
X-57062714Y83431047D01*
X-57015095Y83383428D01*
X-56919857Y83335809D01*
X-56538904Y83335809D01*
X-57443666Y83859619D02*
X-58062714Y83859619D01*
X-57729380Y83478666D01*
X-57872238Y83478666D01*
X-57967476Y83431047D01*
X-58015095Y83383428D01*
X-58062714Y83288190D01*
X-58062714Y83050095D01*
X-58015095Y82954857D01*
X-57967476Y82907238D01*
X-57872238Y82859619D01*
X-57586523Y82859619D01*
X-57491285Y82907238D01*
X-57443666Y82954857D01*
X-66508333Y87727619D02*
X-66175000Y88203809D01*
X-65936904Y87727619D02*
X-65936904Y88727619D01*
X-66317857Y88727619D01*
X-66413095Y88680000D01*
X-66460714Y88632380D01*
X-66508333Y88537142D01*
X-66508333Y88394285D01*
X-66460714Y88299047D01*
X-66413095Y88251428D01*
X-66317857Y88203809D01*
X-65936904Y88203809D01*
X-66889285Y88632380D02*
X-66936904Y88680000D01*
X-67032142Y88727619D01*
X-67270238Y88727619D01*
X-67365476Y88680000D01*
X-67413095Y88632380D01*
X-67460714Y88537142D01*
X-67460714Y88441904D01*
X-67413095Y88299047D01*
X-66841666Y87727619D01*
X-67460714Y87727619D01*
X57062666Y190365119D02*
X57396000Y190841309D01*
X57634095Y190365119D02*
X57634095Y191365119D01*
X57253142Y191365119D01*
X57157904Y191317500D01*
X57110285Y191269880D01*
X57062666Y191174642D01*
X57062666Y191031785D01*
X57110285Y190936547D01*
X57157904Y190888928D01*
X57253142Y190841309D01*
X57634095Y190841309D01*
X56110285Y190365119D02*
X56681714Y190365119D01*
X56396000Y190365119D02*
X56396000Y191365119D01*
X56491238Y191222261D01*
X56586476Y191127023D01*
X56681714Y191079404D01*
X-38790642Y208811857D02*
X-38743023Y208764238D01*
X-38600166Y208716619D01*
X-38504928Y208716619D01*
X-38362071Y208764238D01*
X-38266833Y208859476D01*
X-38219214Y208954714D01*
X-38171595Y209145190D01*
X-38171595Y209288047D01*
X-38219214Y209478523D01*
X-38266833Y209573761D01*
X-38362071Y209669000D01*
X-38504928Y209716619D01*
X-38600166Y209716619D01*
X-38743023Y209669000D01*
X-38790642Y209621380D01*
X-39647785Y209716619D02*
X-39457309Y209716619D01*
X-39362071Y209669000D01*
X-39314452Y209621380D01*
X-39219214Y209478523D01*
X-39171595Y209288047D01*
X-39171595Y208907095D01*
X-39219214Y208811857D01*
X-39266833Y208764238D01*
X-39362071Y208716619D01*
X-39552547Y208716619D01*
X-39647785Y208764238D01*
X-39695404Y208811857D01*
X-39743023Y208907095D01*
X-39743023Y209145190D01*
X-39695404Y209240428D01*
X-39647785Y209288047D01*
X-39552547Y209335666D01*
X-39362071Y209335666D01*
X-39266833Y209288047D01*
X-39219214Y209240428D01*
X-39171595Y209145190D01*
X-40362071Y209716619D02*
X-40457309Y209716619D01*
X-40552547Y209669000D01*
X-40600166Y209621380D01*
X-40647785Y209526142D01*
X-40695404Y209335666D01*
X-40695404Y209097571D01*
X-40647785Y208907095D01*
X-40600166Y208811857D01*
X-40552547Y208764238D01*
X-40457309Y208716619D01*
X-40362071Y208716619D01*
X-40266833Y208764238D01*
X-40219214Y208811857D01*
X-40171595Y208907095D01*
X-40123976Y209097571D01*
X-40123976Y209335666D01*
X-40171595Y209526142D01*
X-40219214Y209621380D01*
X-40266833Y209669000D01*
X-40362071Y209716619D01*
X-33647142Y208684857D02*
X-33599523Y208637238D01*
X-33456666Y208589619D01*
X-33361428Y208589619D01*
X-33218571Y208637238D01*
X-33123333Y208732476D01*
X-33075714Y208827714D01*
X-33028095Y209018190D01*
X-33028095Y209161047D01*
X-33075714Y209351523D01*
X-33123333Y209446761D01*
X-33218571Y209542000D01*
X-33361428Y209589619D01*
X-33456666Y209589619D01*
X-33599523Y209542000D01*
X-33647142Y209494380D01*
X-34551904Y209589619D02*
X-34075714Y209589619D01*
X-34028095Y209113428D01*
X-34075714Y209161047D01*
X-34170952Y209208666D01*
X-34409047Y209208666D01*
X-34504285Y209161047D01*
X-34551904Y209113428D01*
X-34599523Y209018190D01*
X-34599523Y208780095D01*
X-34551904Y208684857D01*
X-34504285Y208637238D01*
X-34409047Y208589619D01*
X-34170952Y208589619D01*
X-34075714Y208637238D01*
X-34028095Y208684857D01*
X-35075714Y208589619D02*
X-35266190Y208589619D01*
X-35361428Y208637238D01*
X-35409047Y208684857D01*
X-35504285Y208827714D01*
X-35551904Y209018190D01*
X-35551904Y209399142D01*
X-35504285Y209494380D01*
X-35456666Y209542000D01*
X-35361428Y209589619D01*
X-35170952Y209589619D01*
X-35075714Y209542000D01*
X-35028095Y209494380D01*
X-34980476Y209399142D01*
X-34980476Y209161047D01*
X-35028095Y209065809D01*
X-35075714Y209018190D01*
X-35170952Y208970571D01*
X-35361428Y208970571D01*
X-35456666Y209018190D01*
X-35504285Y209065809D01*
X-35551904Y209161047D01*
X-16311642Y202017357D02*
X-16264023Y201969738D01*
X-16121166Y201922119D01*
X-16025928Y201922119D01*
X-15883071Y201969738D01*
X-15787833Y202064976D01*
X-15740214Y202160214D01*
X-15692595Y202350690D01*
X-15692595Y202493547D01*
X-15740214Y202684023D01*
X-15787833Y202779261D01*
X-15883071Y202874500D01*
X-16025928Y202922119D01*
X-16121166Y202922119D01*
X-16264023Y202874500D01*
X-16311642Y202826880D01*
X-17216404Y202922119D02*
X-16740214Y202922119D01*
X-16692595Y202445928D01*
X-16740214Y202493547D01*
X-16835452Y202541166D01*
X-17073547Y202541166D01*
X-17168785Y202493547D01*
X-17216404Y202445928D01*
X-17264023Y202350690D01*
X-17264023Y202112595D01*
X-17216404Y202017357D01*
X-17168785Y201969738D01*
X-17073547Y201922119D01*
X-16835452Y201922119D01*
X-16740214Y201969738D01*
X-16692595Y202017357D01*
X-17835452Y202493547D02*
X-17740214Y202541166D01*
X-17692595Y202588785D01*
X-17644976Y202684023D01*
X-17644976Y202731642D01*
X-17692595Y202826880D01*
X-17740214Y202874500D01*
X-17835452Y202922119D01*
X-18025928Y202922119D01*
X-18121166Y202874500D01*
X-18168785Y202826880D01*
X-18216404Y202731642D01*
X-18216404Y202684023D01*
X-18168785Y202588785D01*
X-18121166Y202541166D01*
X-18025928Y202493547D01*
X-17835452Y202493547D01*
X-17740214Y202445928D01*
X-17692595Y202398309D01*
X-17644976Y202303071D01*
X-17644976Y202112595D01*
X-17692595Y202017357D01*
X-17740214Y201969738D01*
X-17835452Y201922119D01*
X-18025928Y201922119D01*
X-18121166Y201969738D01*
X-18168785Y202017357D01*
X-18216404Y202112595D01*
X-18216404Y202303071D01*
X-18168785Y202398309D01*
X-18121166Y202445928D01*
X-18025928Y202493547D01*
X-21582142Y202122857D02*
X-21534523Y202075238D01*
X-21391666Y202027619D01*
X-21296428Y202027619D01*
X-21153571Y202075238D01*
X-21058333Y202170476D01*
X-21010714Y202265714D01*
X-20963095Y202456190D01*
X-20963095Y202599047D01*
X-21010714Y202789523D01*
X-21058333Y202884761D01*
X-21153571Y202980000D01*
X-21296428Y203027619D01*
X-21391666Y203027619D01*
X-21534523Y202980000D01*
X-21582142Y202932380D01*
X-22486904Y203027619D02*
X-22010714Y203027619D01*
X-21963095Y202551428D01*
X-22010714Y202599047D01*
X-22105952Y202646666D01*
X-22344047Y202646666D01*
X-22439285Y202599047D01*
X-22486904Y202551428D01*
X-22534523Y202456190D01*
X-22534523Y202218095D01*
X-22486904Y202122857D01*
X-22439285Y202075238D01*
X-22344047Y202027619D01*
X-22105952Y202027619D01*
X-22010714Y202075238D01*
X-21963095Y202122857D01*
X-22867857Y203027619D02*
X-23534523Y203027619D01*
X-23105952Y202027619D01*
X-30472142Y180067857D02*
X-30424523Y180020238D01*
X-30281666Y179972619D01*
X-30186428Y179972619D01*
X-30043571Y180020238D01*
X-29948333Y180115476D01*
X-29900714Y180210714D01*
X-29853095Y180401190D01*
X-29853095Y180544047D01*
X-29900714Y180734523D01*
X-29948333Y180829761D01*
X-30043571Y180925000D01*
X-30186428Y180972619D01*
X-30281666Y180972619D01*
X-30424523Y180925000D01*
X-30472142Y180877380D01*
X-31376904Y180972619D02*
X-30900714Y180972619D01*
X-30853095Y180496428D01*
X-30900714Y180544047D01*
X-30995952Y180591666D01*
X-31234047Y180591666D01*
X-31329285Y180544047D01*
X-31376904Y180496428D01*
X-31424523Y180401190D01*
X-31424523Y180163095D01*
X-31376904Y180067857D01*
X-31329285Y180020238D01*
X-31234047Y179972619D01*
X-30995952Y179972619D01*
X-30900714Y180020238D01*
X-30853095Y180067857D01*
X-32281666Y180972619D02*
X-32091190Y180972619D01*
X-31995952Y180925000D01*
X-31948333Y180877380D01*
X-31853095Y180734523D01*
X-31805476Y180544047D01*
X-31805476Y180163095D01*
X-31853095Y180067857D01*
X-31900714Y180020238D01*
X-31995952Y179972619D01*
X-32186428Y179972619D01*
X-32281666Y180020238D01*
X-32329285Y180067857D01*
X-32376904Y180163095D01*
X-32376904Y180401190D01*
X-32329285Y180496428D01*
X-32281666Y180544047D01*
X-32186428Y180591666D01*
X-31995952Y180591666D01*
X-31900714Y180544047D01*
X-31853095Y180496428D01*
X-31805476Y180401190D01*
X59761357Y137501357D02*
X59808976Y137453738D01*
X59951833Y137406119D01*
X60047071Y137406119D01*
X60189928Y137453738D01*
X60285166Y137548976D01*
X60332785Y137644214D01*
X60380404Y137834690D01*
X60380404Y137977547D01*
X60332785Y138168023D01*
X60285166Y138263261D01*
X60189928Y138358500D01*
X60047071Y138406119D01*
X59951833Y138406119D01*
X59808976Y138358500D01*
X59761357Y138310880D01*
X58856595Y138406119D02*
X59332785Y138406119D01*
X59380404Y137929928D01*
X59332785Y137977547D01*
X59237547Y138025166D01*
X58999452Y138025166D01*
X58904214Y137977547D01*
X58856595Y137929928D01*
X58808976Y137834690D01*
X58808976Y137596595D01*
X58856595Y137501357D01*
X58904214Y137453738D01*
X58999452Y137406119D01*
X59237547Y137406119D01*
X59332785Y137453738D01*
X59380404Y137501357D01*
X58428023Y138310880D02*
X58380404Y138358500D01*
X58285166Y138406119D01*
X58047071Y138406119D01*
X57951833Y138358500D01*
X57904214Y138310880D01*
X57856595Y138215642D01*
X57856595Y138120404D01*
X57904214Y137977547D01*
X58475642Y137406119D01*
X57856595Y137406119D01*
X62110857Y196492857D02*
X62158476Y196445238D01*
X62301333Y196397619D01*
X62396571Y196397619D01*
X62539428Y196445238D01*
X62634666Y196540476D01*
X62682285Y196635714D01*
X62729904Y196826190D01*
X62729904Y196969047D01*
X62682285Y197159523D01*
X62634666Y197254761D01*
X62539428Y197350000D01*
X62396571Y197397619D01*
X62301333Y197397619D01*
X62158476Y197350000D01*
X62110857Y197302380D01*
X61206095Y197397619D02*
X61682285Y197397619D01*
X61729904Y196921428D01*
X61682285Y196969047D01*
X61587047Y197016666D01*
X61348952Y197016666D01*
X61253714Y196969047D01*
X61206095Y196921428D01*
X61158476Y196826190D01*
X61158476Y196588095D01*
X61206095Y196492857D01*
X61253714Y196445238D01*
X61348952Y196397619D01*
X61587047Y196397619D01*
X61682285Y196445238D01*
X61729904Y196492857D01*
X60206095Y196397619D02*
X60777523Y196397619D01*
X60491809Y196397619D02*
X60491809Y197397619D01*
X60587047Y197254761D01*
X60682285Y197159523D01*
X60777523Y197111904D01*
X59634357Y152804857D02*
X59681976Y152757238D01*
X59824833Y152709619D01*
X59920071Y152709619D01*
X60062928Y152757238D01*
X60158166Y152852476D01*
X60205785Y152947714D01*
X60253404Y153138190D01*
X60253404Y153281047D01*
X60205785Y153471523D01*
X60158166Y153566761D01*
X60062928Y153662000D01*
X59920071Y153709619D01*
X59824833Y153709619D01*
X59681976Y153662000D01*
X59634357Y153614380D01*
X58729595Y153709619D02*
X59205785Y153709619D01*
X59253404Y153233428D01*
X59205785Y153281047D01*
X59110547Y153328666D01*
X58872452Y153328666D01*
X58777214Y153281047D01*
X58729595Y153233428D01*
X58681976Y153138190D01*
X58681976Y152900095D01*
X58729595Y152804857D01*
X58777214Y152757238D01*
X58872452Y152709619D01*
X59110547Y152709619D01*
X59205785Y152757238D01*
X59253404Y152804857D01*
X58062928Y153709619D02*
X57967690Y153709619D01*
X57872452Y153662000D01*
X57824833Y153614380D01*
X57777214Y153519142D01*
X57729595Y153328666D01*
X57729595Y153090571D01*
X57777214Y152900095D01*
X57824833Y152804857D01*
X57872452Y152757238D01*
X57967690Y152709619D01*
X58062928Y152709619D01*
X58158166Y152757238D01*
X58205785Y152804857D01*
X58253404Y152900095D01*
X58301023Y153090571D01*
X58301023Y153328666D01*
X58253404Y153519142D01*
X58205785Y153614380D01*
X58158166Y153662000D01*
X58062928Y153709619D01*
X57287857Y165229357D02*
X57335476Y165181738D01*
X57478333Y165134119D01*
X57573571Y165134119D01*
X57716428Y165181738D01*
X57811666Y165276976D01*
X57859285Y165372214D01*
X57906904Y165562690D01*
X57906904Y165705547D01*
X57859285Y165896023D01*
X57811666Y165991261D01*
X57716428Y166086500D01*
X57573571Y166134119D01*
X57478333Y166134119D01*
X57335476Y166086500D01*
X57287857Y166038880D01*
X56430714Y165800785D02*
X56430714Y165134119D01*
X56668809Y166181738D02*
X56906904Y165467452D01*
X56287857Y165467452D01*
X55859285Y165134119D02*
X55668809Y165134119D01*
X55573571Y165181738D01*
X55525952Y165229357D01*
X55430714Y165372214D01*
X55383095Y165562690D01*
X55383095Y165943642D01*
X55430714Y166038880D01*
X55478333Y166086500D01*
X55573571Y166134119D01*
X55764047Y166134119D01*
X55859285Y166086500D01*
X55906904Y166038880D01*
X55954523Y165943642D01*
X55954523Y165705547D01*
X55906904Y165610309D01*
X55859285Y165562690D01*
X55764047Y165515071D01*
X55573571Y165515071D01*
X55478333Y165562690D01*
X55430714Y165610309D01*
X55383095Y165705547D01*
X126372857Y114662857D02*
X126420476Y114615238D01*
X126563333Y114567619D01*
X126658571Y114567619D01*
X126801428Y114615238D01*
X126896666Y114710476D01*
X126944285Y114805714D01*
X126991904Y114996190D01*
X126991904Y115139047D01*
X126944285Y115329523D01*
X126896666Y115424761D01*
X126801428Y115520000D01*
X126658571Y115567619D01*
X126563333Y115567619D01*
X126420476Y115520000D01*
X126372857Y115472380D01*
X125515714Y115234285D02*
X125515714Y114567619D01*
X125753809Y115615238D02*
X125991904Y114900952D01*
X125372857Y114900952D01*
X124849047Y115139047D02*
X124944285Y115186666D01*
X124991904Y115234285D01*
X125039523Y115329523D01*
X125039523Y115377142D01*
X124991904Y115472380D01*
X124944285Y115520000D01*
X124849047Y115567619D01*
X124658571Y115567619D01*
X124563333Y115520000D01*
X124515714Y115472380D01*
X124468095Y115377142D01*
X124468095Y115329523D01*
X124515714Y115234285D01*
X124563333Y115186666D01*
X124658571Y115139047D01*
X124849047Y115139047D01*
X124944285Y115091428D01*
X124991904Y115043809D01*
X125039523Y114948571D01*
X125039523Y114758095D01*
X124991904Y114662857D01*
X124944285Y114615238D01*
X124849047Y114567619D01*
X124658571Y114567619D01*
X124563333Y114615238D01*
X124515714Y114662857D01*
X124468095Y114758095D01*
X124468095Y114948571D01*
X124515714Y115043809D01*
X124563333Y115091428D01*
X124658571Y115139047D01*
X81859357Y111529857D02*
X81906976Y111482238D01*
X82049833Y111434619D01*
X82145071Y111434619D01*
X82287928Y111482238D01*
X82383166Y111577476D01*
X82430785Y111672714D01*
X82478404Y111863190D01*
X82478404Y112006047D01*
X82430785Y112196523D01*
X82383166Y112291761D01*
X82287928Y112387000D01*
X82145071Y112434619D01*
X82049833Y112434619D01*
X81906976Y112387000D01*
X81859357Y112339380D01*
X81002214Y112101285D02*
X81002214Y111434619D01*
X81240309Y112482238D02*
X81478404Y111767952D01*
X80859357Y111767952D01*
X80573642Y112434619D02*
X79906976Y112434619D01*
X80335547Y111434619D01*
X113609357Y113371357D02*
X113656976Y113323738D01*
X113799833Y113276119D01*
X113895071Y113276119D01*
X114037928Y113323738D01*
X114133166Y113418976D01*
X114180785Y113514214D01*
X114228404Y113704690D01*
X114228404Y113847547D01*
X114180785Y114038023D01*
X114133166Y114133261D01*
X114037928Y114228500D01*
X113895071Y114276119D01*
X113799833Y114276119D01*
X113656976Y114228500D01*
X113609357Y114180880D01*
X112752214Y113942785D02*
X112752214Y113276119D01*
X112990309Y114323738D02*
X113228404Y113609452D01*
X112609357Y113609452D01*
X111799833Y114276119D02*
X111990309Y114276119D01*
X112085547Y114228500D01*
X112133166Y114180880D01*
X112228404Y114038023D01*
X112276023Y113847547D01*
X112276023Y113466595D01*
X112228404Y113371357D01*
X112180785Y113323738D01*
X112085547Y113276119D01*
X111895071Y113276119D01*
X111799833Y113323738D01*
X111752214Y113371357D01*
X111704595Y113466595D01*
X111704595Y113704690D01*
X111752214Y113799928D01*
X111799833Y113847547D01*
X111895071Y113895166D01*
X112085547Y113895166D01*
X112180785Y113847547D01*
X112228404Y113799928D01*
X112276023Y113704690D01*
X50744357Y83547857D02*
X50791976Y83500238D01*
X50934833Y83452619D01*
X51030071Y83452619D01*
X51172928Y83500238D01*
X51268166Y83595476D01*
X51315785Y83690714D01*
X51363404Y83881190D01*
X51363404Y84024047D01*
X51315785Y84214523D01*
X51268166Y84309761D01*
X51172928Y84405000D01*
X51030071Y84452619D01*
X50934833Y84452619D01*
X50791976Y84405000D01*
X50744357Y84357380D01*
X49887214Y84119285D02*
X49887214Y83452619D01*
X50125309Y84500238D02*
X50363404Y83785952D01*
X49744357Y83785952D01*
X48887214Y84452619D02*
X49363404Y84452619D01*
X49411023Y83976428D01*
X49363404Y84024047D01*
X49268166Y84071666D01*
X49030071Y84071666D01*
X48934833Y84024047D01*
X48887214Y83976428D01*
X48839595Y83881190D01*
X48839595Y83643095D01*
X48887214Y83547857D01*
X48934833Y83500238D01*
X49030071Y83452619D01*
X49268166Y83452619D01*
X49363404Y83500238D01*
X49411023Y83547857D01*
X140212857Y114662857D02*
X140260476Y114615238D01*
X140403333Y114567619D01*
X140498571Y114567619D01*
X140641428Y114615238D01*
X140736666Y114710476D01*
X140784285Y114805714D01*
X140831904Y114996190D01*
X140831904Y115139047D01*
X140784285Y115329523D01*
X140736666Y115424761D01*
X140641428Y115520000D01*
X140498571Y115567619D01*
X140403333Y115567619D01*
X140260476Y115520000D01*
X140212857Y115472380D01*
X139355714Y115234285D02*
X139355714Y114567619D01*
X139593809Y115615238D02*
X139831904Y114900952D01*
X139212857Y114900952D01*
X138403333Y115234285D02*
X138403333Y114567619D01*
X138641428Y115615238D02*
X138879523Y114900952D01*
X138260476Y114900952D01*
X95829357Y111529857D02*
X95876976Y111482238D01*
X96019833Y111434619D01*
X96115071Y111434619D01*
X96257928Y111482238D01*
X96353166Y111577476D01*
X96400785Y111672714D01*
X96448404Y111863190D01*
X96448404Y112006047D01*
X96400785Y112196523D01*
X96353166Y112291761D01*
X96257928Y112387000D01*
X96115071Y112434619D01*
X96019833Y112434619D01*
X95876976Y112387000D01*
X95829357Y112339380D01*
X94972214Y112101285D02*
X94972214Y111434619D01*
X95210309Y112482238D02*
X95448404Y111767952D01*
X94829357Y111767952D01*
X94543642Y112434619D02*
X93924595Y112434619D01*
X94257928Y112053666D01*
X94115071Y112053666D01*
X94019833Y112006047D01*
X93972214Y111958428D01*
X93924595Y111863190D01*
X93924595Y111625095D01*
X93972214Y111529857D01*
X94019833Y111482238D01*
X94115071Y111434619D01*
X94400785Y111434619D01*
X94496023Y111482238D01*
X94543642Y111529857D01*
X-42854642Y127341357D02*
X-42807023Y127293738D01*
X-42664166Y127246119D01*
X-42568928Y127246119D01*
X-42426071Y127293738D01*
X-42330833Y127388976D01*
X-42283214Y127484214D01*
X-42235595Y127674690D01*
X-42235595Y127817547D01*
X-42283214Y128008023D01*
X-42330833Y128103261D01*
X-42426071Y128198500D01*
X-42568928Y128246119D01*
X-42664166Y128246119D01*
X-42807023Y128198500D01*
X-42854642Y128150880D01*
X-43187976Y128246119D02*
X-43807023Y128246119D01*
X-43473690Y127865166D01*
X-43616547Y127865166D01*
X-43711785Y127817547D01*
X-43759404Y127769928D01*
X-43807023Y127674690D01*
X-43807023Y127436595D01*
X-43759404Y127341357D01*
X-43711785Y127293738D01*
X-43616547Y127246119D01*
X-43330833Y127246119D01*
X-43235595Y127293738D01*
X-43187976Y127341357D01*
X-44140357Y128246119D02*
X-44759404Y128246119D01*
X-44426071Y127865166D01*
X-44568928Y127865166D01*
X-44664166Y127817547D01*
X-44711785Y127769928D01*
X-44759404Y127674690D01*
X-44759404Y127436595D01*
X-44711785Y127341357D01*
X-44664166Y127293738D01*
X-44568928Y127246119D01*
X-44283214Y127246119D01*
X-44187976Y127293738D01*
X-44140357Y127341357D01*
X-42918142Y105560857D02*
X-42870523Y105513238D01*
X-42727666Y105465619D01*
X-42632428Y105465619D01*
X-42489571Y105513238D01*
X-42394333Y105608476D01*
X-42346714Y105703714D01*
X-42299095Y105894190D01*
X-42299095Y106037047D01*
X-42346714Y106227523D01*
X-42394333Y106322761D01*
X-42489571Y106418000D01*
X-42632428Y106465619D01*
X-42727666Y106465619D01*
X-42870523Y106418000D01*
X-42918142Y106370380D01*
X-43251476Y106465619D02*
X-43870523Y106465619D01*
X-43537190Y106084666D01*
X-43680047Y106084666D01*
X-43775285Y106037047D01*
X-43822904Y105989428D01*
X-43870523Y105894190D01*
X-43870523Y105656095D01*
X-43822904Y105560857D01*
X-43775285Y105513238D01*
X-43680047Y105465619D01*
X-43394333Y105465619D01*
X-43299095Y105513238D01*
X-43251476Y105560857D01*
X-44251476Y106370380D02*
X-44299095Y106418000D01*
X-44394333Y106465619D01*
X-44632428Y106465619D01*
X-44727666Y106418000D01*
X-44775285Y106370380D01*
X-44822904Y106275142D01*
X-44822904Y106179904D01*
X-44775285Y106037047D01*
X-44203857Y105465619D01*
X-44822904Y105465619D01*
X158630857Y193127357D02*
X158678476Y193079738D01*
X158821333Y193032119D01*
X158916571Y193032119D01*
X159059428Y193079738D01*
X159154666Y193174976D01*
X159202285Y193270214D01*
X159249904Y193460690D01*
X159249904Y193603547D01*
X159202285Y193794023D01*
X159154666Y193889261D01*
X159059428Y193984500D01*
X158916571Y194032119D01*
X158821333Y194032119D01*
X158678476Y193984500D01*
X158630857Y193936880D01*
X158297523Y194032119D02*
X157678476Y194032119D01*
X158011809Y193651166D01*
X157868952Y193651166D01*
X157773714Y193603547D01*
X157726095Y193555928D01*
X157678476Y193460690D01*
X157678476Y193222595D01*
X157726095Y193127357D01*
X157773714Y193079738D01*
X157868952Y193032119D01*
X158154666Y193032119D01*
X158249904Y193079738D01*
X158297523Y193127357D01*
X157059428Y194032119D02*
X156964190Y194032119D01*
X156868952Y193984500D01*
X156821333Y193936880D01*
X156773714Y193841642D01*
X156726095Y193651166D01*
X156726095Y193413071D01*
X156773714Y193222595D01*
X156821333Y193127357D01*
X156868952Y193079738D01*
X156964190Y193032119D01*
X157059428Y193032119D01*
X157154666Y193079738D01*
X157202285Y193127357D01*
X157249904Y193222595D01*
X157297523Y193413071D01*
X157297523Y193651166D01*
X157249904Y193841642D01*
X157202285Y193936880D01*
X157154666Y193984500D01*
X157059428Y194032119D01*
X151772857Y90384357D02*
X151820476Y90336738D01*
X151963333Y90289119D01*
X152058571Y90289119D01*
X152201428Y90336738D01*
X152296666Y90431976D01*
X152344285Y90527214D01*
X152391904Y90717690D01*
X152391904Y90860547D01*
X152344285Y91051023D01*
X152296666Y91146261D01*
X152201428Y91241500D01*
X152058571Y91289119D01*
X151963333Y91289119D01*
X151820476Y91241500D01*
X151772857Y91193880D01*
X151391904Y91193880D02*
X151344285Y91241500D01*
X151249047Y91289119D01*
X151010952Y91289119D01*
X150915714Y91241500D01*
X150868095Y91193880D01*
X150820476Y91098642D01*
X150820476Y91003404D01*
X150868095Y90860547D01*
X151439523Y90289119D01*
X150820476Y90289119D01*
X150344285Y90289119D02*
X150153809Y90289119D01*
X150058571Y90336738D01*
X150010952Y90384357D01*
X149915714Y90527214D01*
X149868095Y90717690D01*
X149868095Y91098642D01*
X149915714Y91193880D01*
X149963333Y91241500D01*
X150058571Y91289119D01*
X150249047Y91289119D01*
X150344285Y91241500D01*
X150391904Y91193880D01*
X150439523Y91098642D01*
X150439523Y90860547D01*
X150391904Y90765309D01*
X150344285Y90717690D01*
X150249047Y90670071D01*
X150058571Y90670071D01*
X149963333Y90717690D01*
X149915714Y90765309D01*
X149868095Y90860547D01*
X151582357Y95337357D02*
X151629976Y95289738D01*
X151772833Y95242119D01*
X151868071Y95242119D01*
X152010928Y95289738D01*
X152106166Y95384976D01*
X152153785Y95480214D01*
X152201404Y95670690D01*
X152201404Y95813547D01*
X152153785Y96004023D01*
X152106166Y96099261D01*
X152010928Y96194500D01*
X151868071Y96242119D01*
X151772833Y96242119D01*
X151629976Y96194500D01*
X151582357Y96146880D01*
X151201404Y96146880D02*
X151153785Y96194500D01*
X151058547Y96242119D01*
X150820452Y96242119D01*
X150725214Y96194500D01*
X150677595Y96146880D01*
X150629976Y96051642D01*
X150629976Y95956404D01*
X150677595Y95813547D01*
X151249023Y95242119D01*
X150629976Y95242119D01*
X150058547Y95813547D02*
X150153785Y95861166D01*
X150201404Y95908785D01*
X150249023Y96004023D01*
X150249023Y96051642D01*
X150201404Y96146880D01*
X150153785Y96194500D01*
X150058547Y96242119D01*
X149868071Y96242119D01*
X149772833Y96194500D01*
X149725214Y96146880D01*
X149677595Y96051642D01*
X149677595Y96004023D01*
X149725214Y95908785D01*
X149772833Y95861166D01*
X149868071Y95813547D01*
X150058547Y95813547D01*
X150153785Y95765928D01*
X150201404Y95718309D01*
X150249023Y95623071D01*
X150249023Y95432595D01*
X150201404Y95337357D01*
X150153785Y95289738D01*
X150058547Y95242119D01*
X149868071Y95242119D01*
X149772833Y95289738D01*
X149725214Y95337357D01*
X149677595Y95432595D01*
X149677595Y95623071D01*
X149725214Y95718309D01*
X149772833Y95765928D01*
X149868071Y95813547D01*
X40012857Y83526357D02*
X40060476Y83478738D01*
X40203333Y83431119D01*
X40298571Y83431119D01*
X40441428Y83478738D01*
X40536666Y83573976D01*
X40584285Y83669214D01*
X40631904Y83859690D01*
X40631904Y84002547D01*
X40584285Y84193023D01*
X40536666Y84288261D01*
X40441428Y84383500D01*
X40298571Y84431119D01*
X40203333Y84431119D01*
X40060476Y84383500D01*
X40012857Y84335880D01*
X39631904Y84335880D02*
X39584285Y84383500D01*
X39489047Y84431119D01*
X39250952Y84431119D01*
X39155714Y84383500D01*
X39108095Y84335880D01*
X39060476Y84240642D01*
X39060476Y84145404D01*
X39108095Y84002547D01*
X39679523Y83431119D01*
X39060476Y83431119D01*
X38727142Y84431119D02*
X38060476Y84431119D01*
X38489047Y83431119D01*
X-24757142Y83547857D02*
X-24709523Y83500238D01*
X-24566666Y83452619D01*
X-24471428Y83452619D01*
X-24328571Y83500238D01*
X-24233333Y83595476D01*
X-24185714Y83690714D01*
X-24138095Y83881190D01*
X-24138095Y84024047D01*
X-24185714Y84214523D01*
X-24233333Y84309761D01*
X-24328571Y84405000D01*
X-24471428Y84452619D01*
X-24566666Y84452619D01*
X-24709523Y84405000D01*
X-24757142Y84357380D01*
X-25138095Y84357380D02*
X-25185714Y84405000D01*
X-25280952Y84452619D01*
X-25519047Y84452619D01*
X-25614285Y84405000D01*
X-25661904Y84357380D01*
X-25709523Y84262142D01*
X-25709523Y84166904D01*
X-25661904Y84024047D01*
X-25090476Y83452619D01*
X-25709523Y83452619D01*
X-26566666Y84452619D02*
X-26376190Y84452619D01*
X-26280952Y84405000D01*
X-26233333Y84357380D01*
X-26138095Y84214523D01*
X-26090476Y84024047D01*
X-26090476Y83643095D01*
X-26138095Y83547857D01*
X-26185714Y83500238D01*
X-26280952Y83452619D01*
X-26471428Y83452619D01*
X-26566666Y83500238D01*
X-26614285Y83547857D01*
X-26661904Y83643095D01*
X-26661904Y83881190D01*
X-26614285Y83976428D01*
X-26566666Y84024047D01*
X-26471428Y84071666D01*
X-26280952Y84071666D01*
X-26185714Y84024047D01*
X-26138095Y83976428D01*
X-26090476Y83881190D01*
X-38727142Y83547857D02*
X-38679523Y83500238D01*
X-38536666Y83452619D01*
X-38441428Y83452619D01*
X-38298571Y83500238D01*
X-38203333Y83595476D01*
X-38155714Y83690714D01*
X-38108095Y83881190D01*
X-38108095Y84024047D01*
X-38155714Y84214523D01*
X-38203333Y84309761D01*
X-38298571Y84405000D01*
X-38441428Y84452619D01*
X-38536666Y84452619D01*
X-38679523Y84405000D01*
X-38727142Y84357380D01*
X-39108095Y84357380D02*
X-39155714Y84405000D01*
X-39250952Y84452619D01*
X-39489047Y84452619D01*
X-39584285Y84405000D01*
X-39631904Y84357380D01*
X-39679523Y84262142D01*
X-39679523Y84166904D01*
X-39631904Y84024047D01*
X-39060476Y83452619D01*
X-39679523Y83452619D01*
X-40584285Y84452619D02*
X-40108095Y84452619D01*
X-40060476Y83976428D01*
X-40108095Y84024047D01*
X-40203333Y84071666D01*
X-40441428Y84071666D01*
X-40536666Y84024047D01*
X-40584285Y83976428D01*
X-40631904Y83881190D01*
X-40631904Y83643095D01*
X-40584285Y83547857D01*
X-40536666Y83500238D01*
X-40441428Y83452619D01*
X-40203333Y83452619D01*
X-40108095Y83500238D01*
X-40060476Y83547857D01*
X15882857Y83547857D02*
X15930476Y83500238D01*
X16073333Y83452619D01*
X16168571Y83452619D01*
X16311428Y83500238D01*
X16406666Y83595476D01*
X16454285Y83690714D01*
X16501904Y83881190D01*
X16501904Y84024047D01*
X16454285Y84214523D01*
X16406666Y84309761D01*
X16311428Y84405000D01*
X16168571Y84452619D01*
X16073333Y84452619D01*
X15930476Y84405000D01*
X15882857Y84357380D01*
X15501904Y84357380D02*
X15454285Y84405000D01*
X15359047Y84452619D01*
X15120952Y84452619D01*
X15025714Y84405000D01*
X14978095Y84357380D01*
X14930476Y84262142D01*
X14930476Y84166904D01*
X14978095Y84024047D01*
X15549523Y83452619D01*
X14930476Y83452619D01*
X14073333Y84119285D02*
X14073333Y83452619D01*
X14311428Y84500238D02*
X14549523Y83785952D01*
X13930476Y83785952D01*
X79700357Y85748857D02*
X79747976Y85701238D01*
X79890833Y85653619D01*
X79986071Y85653619D01*
X80128928Y85701238D01*
X80224166Y85796476D01*
X80271785Y85891714D01*
X80319404Y86082190D01*
X80319404Y86225047D01*
X80271785Y86415523D01*
X80224166Y86510761D01*
X80128928Y86606000D01*
X79986071Y86653619D01*
X79890833Y86653619D01*
X79747976Y86606000D01*
X79700357Y86558380D01*
X79319404Y86558380D02*
X79271785Y86606000D01*
X79176547Y86653619D01*
X78938452Y86653619D01*
X78843214Y86606000D01*
X78795595Y86558380D01*
X78747976Y86463142D01*
X78747976Y86367904D01*
X78795595Y86225047D01*
X79367023Y85653619D01*
X78747976Y85653619D01*
X77795595Y85653619D02*
X78367023Y85653619D01*
X78081309Y85653619D02*
X78081309Y86653619D01*
X78176547Y86510761D01*
X78271785Y86415523D01*
X78367023Y86367904D01*
X90114357Y82700857D02*
X90161976Y82653238D01*
X90304833Y82605619D01*
X90400071Y82605619D01*
X90542928Y82653238D01*
X90638166Y82748476D01*
X90685785Y82843714D01*
X90733404Y83034190D01*
X90733404Y83177047D01*
X90685785Y83367523D01*
X90638166Y83462761D01*
X90542928Y83558000D01*
X90400071Y83605619D01*
X90304833Y83605619D01*
X90161976Y83558000D01*
X90114357Y83510380D01*
X89733404Y83510380D02*
X89685785Y83558000D01*
X89590547Y83605619D01*
X89352452Y83605619D01*
X89257214Y83558000D01*
X89209595Y83510380D01*
X89161976Y83415142D01*
X89161976Y83319904D01*
X89209595Y83177047D01*
X89781023Y82605619D01*
X89161976Y82605619D01*
X88542928Y83605619D02*
X88447690Y83605619D01*
X88352452Y83558000D01*
X88304833Y83510380D01*
X88257214Y83415142D01*
X88209595Y83224666D01*
X88209595Y82986571D01*
X88257214Y82796095D01*
X88304833Y82700857D01*
X88352452Y82653238D01*
X88447690Y82605619D01*
X88542928Y82605619D01*
X88638166Y82653238D01*
X88685785Y82700857D01*
X88733404Y82796095D01*
X88781023Y82986571D01*
X88781023Y83224666D01*
X88733404Y83415142D01*
X88685785Y83510380D01*
X88638166Y83558000D01*
X88542928Y83605619D01*
X62428357Y184935857D02*
X62475976Y184888238D01*
X62618833Y184840619D01*
X62714071Y184840619D01*
X62856928Y184888238D01*
X62952166Y184983476D01*
X62999785Y185078714D01*
X63047404Y185269190D01*
X63047404Y185412047D01*
X62999785Y185602523D01*
X62952166Y185697761D01*
X62856928Y185793000D01*
X62714071Y185840619D01*
X62618833Y185840619D01*
X62475976Y185793000D01*
X62428357Y185745380D01*
X61475976Y184840619D02*
X62047404Y184840619D01*
X61761690Y184840619D02*
X61761690Y185840619D01*
X61856928Y185697761D01*
X61952166Y185602523D01*
X62047404Y185554904D01*
X60999785Y184840619D02*
X60809309Y184840619D01*
X60714071Y184888238D01*
X60666452Y184935857D01*
X60571214Y185078714D01*
X60523595Y185269190D01*
X60523595Y185650142D01*
X60571214Y185745380D01*
X60618833Y185793000D01*
X60714071Y185840619D01*
X60904547Y185840619D01*
X60999785Y185793000D01*
X61047404Y185745380D01*
X61095023Y185650142D01*
X61095023Y185412047D01*
X61047404Y185316809D01*
X60999785Y185269190D01*
X60904547Y185221571D01*
X60714071Y185221571D01*
X60618833Y185269190D01*
X60571214Y185316809D01*
X60523595Y185412047D01*
X139072857Y82129357D02*
X139120476Y82081738D01*
X139263333Y82034119D01*
X139358571Y82034119D01*
X139501428Y82081738D01*
X139596666Y82176976D01*
X139644285Y82272214D01*
X139691904Y82462690D01*
X139691904Y82605547D01*
X139644285Y82796023D01*
X139596666Y82891261D01*
X139501428Y82986500D01*
X139358571Y83034119D01*
X139263333Y83034119D01*
X139120476Y82986500D01*
X139072857Y82938880D01*
X138120476Y82034119D02*
X138691904Y82034119D01*
X138406190Y82034119D02*
X138406190Y83034119D01*
X138501428Y82891261D01*
X138596666Y82796023D01*
X138691904Y82748404D01*
X137549047Y82605547D02*
X137644285Y82653166D01*
X137691904Y82700785D01*
X137739523Y82796023D01*
X137739523Y82843642D01*
X137691904Y82938880D01*
X137644285Y82986500D01*
X137549047Y83034119D01*
X137358571Y83034119D01*
X137263333Y82986500D01*
X137215714Y82938880D01*
X137168095Y82843642D01*
X137168095Y82796023D01*
X137215714Y82700785D01*
X137263333Y82653166D01*
X137358571Y82605547D01*
X137549047Y82605547D01*
X137644285Y82557928D01*
X137691904Y82510309D01*
X137739523Y82415071D01*
X137739523Y82224595D01*
X137691904Y82129357D01*
X137644285Y82081738D01*
X137549047Y82034119D01*
X137358571Y82034119D01*
X137263333Y82081738D01*
X137215714Y82129357D01*
X137168095Y82224595D01*
X137168095Y82415071D01*
X137215714Y82510309D01*
X137263333Y82557928D01*
X137358571Y82605547D01*
X122943857Y82192857D02*
X122991476Y82145238D01*
X123134333Y82097619D01*
X123229571Y82097619D01*
X123372428Y82145238D01*
X123467666Y82240476D01*
X123515285Y82335714D01*
X123562904Y82526190D01*
X123562904Y82669047D01*
X123515285Y82859523D01*
X123467666Y82954761D01*
X123372428Y83050000D01*
X123229571Y83097619D01*
X123134333Y83097619D01*
X122991476Y83050000D01*
X122943857Y83002380D01*
X121991476Y82097619D02*
X122562904Y82097619D01*
X122277190Y82097619D02*
X122277190Y83097619D01*
X122372428Y82954761D01*
X122467666Y82859523D01*
X122562904Y82811904D01*
X121658142Y83097619D02*
X120991476Y83097619D01*
X121420047Y82097619D01*
X-10787142Y191962857D02*
X-10739523Y191915238D01*
X-10596666Y191867619D01*
X-10501428Y191867619D01*
X-10358571Y191915238D01*
X-10263333Y192010476D01*
X-10215714Y192105714D01*
X-10168095Y192296190D01*
X-10168095Y192439047D01*
X-10215714Y192629523D01*
X-10263333Y192724761D01*
X-10358571Y192820000D01*
X-10501428Y192867619D01*
X-10596666Y192867619D01*
X-10739523Y192820000D01*
X-10787142Y192772380D01*
X-11739523Y191867619D02*
X-11168095Y191867619D01*
X-11453809Y191867619D02*
X-11453809Y192867619D01*
X-11358571Y192724761D01*
X-11263333Y192629523D01*
X-11168095Y192581904D01*
X-12644285Y192867619D02*
X-12168095Y192867619D01*
X-12120476Y192391428D01*
X-12168095Y192439047D01*
X-12263333Y192486666D01*
X-12501428Y192486666D01*
X-12596666Y192439047D01*
X-12644285Y192391428D01*
X-12691904Y192296190D01*
X-12691904Y192058095D01*
X-12644285Y191962857D01*
X-12596666Y191915238D01*
X-12501428Y191867619D01*
X-12263333Y191867619D01*
X-12168095Y191915238D01*
X-12120476Y191962857D01*
X9088357Y184872357D02*
X9135976Y184824738D01*
X9278833Y184777119D01*
X9374071Y184777119D01*
X9516928Y184824738D01*
X9612166Y184919976D01*
X9659785Y185015214D01*
X9707404Y185205690D01*
X9707404Y185348547D01*
X9659785Y185539023D01*
X9612166Y185634261D01*
X9516928Y185729500D01*
X9374071Y185777119D01*
X9278833Y185777119D01*
X9135976Y185729500D01*
X9088357Y185681880D01*
X8135976Y184777119D02*
X8707404Y184777119D01*
X8421690Y184777119D02*
X8421690Y185777119D01*
X8516928Y185634261D01*
X8612166Y185539023D01*
X8707404Y185491404D01*
X7516928Y185777119D02*
X7421690Y185777119D01*
X7326452Y185729500D01*
X7278833Y185681880D01*
X7231214Y185586642D01*
X7183595Y185396166D01*
X7183595Y185158071D01*
X7231214Y184967595D01*
X7278833Y184872357D01*
X7326452Y184824738D01*
X7421690Y184777119D01*
X7516928Y184777119D01*
X7612166Y184824738D01*
X7659785Y184872357D01*
X7707404Y184967595D01*
X7755023Y185158071D01*
X7755023Y185396166D01*
X7707404Y185586642D01*
X7659785Y185681880D01*
X7612166Y185729500D01*
X7516928Y185777119D01*
X8485166Y195984857D02*
X8532785Y195937238D01*
X8675642Y195889619D01*
X8770880Y195889619D01*
X8913738Y195937238D01*
X9008976Y196032476D01*
X9056595Y196127714D01*
X9104214Y196318190D01*
X9104214Y196461047D01*
X9056595Y196651523D01*
X9008976Y196746761D01*
X8913738Y196842000D01*
X8770880Y196889619D01*
X8675642Y196889619D01*
X8532785Y196842000D01*
X8485166Y196794380D01*
X8008976Y195889619D02*
X7818500Y195889619D01*
X7723261Y195937238D01*
X7675642Y195984857D01*
X7580404Y196127714D01*
X7532785Y196318190D01*
X7532785Y196699142D01*
X7580404Y196794380D01*
X7628023Y196842000D01*
X7723261Y196889619D01*
X7913738Y196889619D01*
X8008976Y196842000D01*
X8056595Y196794380D01*
X8104214Y196699142D01*
X8104214Y196461047D01*
X8056595Y196365809D01*
X8008976Y196318190D01*
X7913738Y196270571D01*
X7723261Y196270571D01*
X7628023Y196318190D01*
X7580404Y196365809D01*
X7532785Y196461047D01*
M02*
