G04 #@! TF.GenerationSoftware,KiCad,Pcbnew,5.1.5+dfsg1-2build2*
G04 #@! TF.CreationDate,2021-07-30T22:42:47+01:00*
G04 #@! TF.ProjectId,Printer+Sticks,5072696e-7465-4722-9b53-7469636b732e,rev?*
G04 #@! TF.SameCoordinates,Original*
G04 #@! TF.FileFunction,Legend,Top*
G04 #@! TF.FilePolarity,Positive*
%FSLAX46Y46*%
G04 Gerber Fmt 4.6, Leading zero omitted, Abs format (unit mm)*
G04 Created by KiCad (PCBNEW 5.1.5+dfsg1-2build2) date 2021-07-30 22:42:47*
%MOMM*%
%LPD*%
G04 APERTURE LIST*
%ADD10C,0.158750*%
%ADD11C,0.120000*%
%ADD12C,0.254000*%
%ADD13C,0.203200*%
%ADD14C,0.050000*%
%ADD15C,0.100000*%
%ADD16C,0.150000*%
G04 APERTURE END LIST*
D10*
X60469764Y-138590261D02*
X60469764Y-137955261D01*
X60832622Y-138590261D01*
X60832622Y-137955261D01*
X61497860Y-138529785D02*
X61467622Y-138560023D01*
X61376907Y-138590261D01*
X61316431Y-138590261D01*
X61225717Y-138560023D01*
X61165241Y-138499547D01*
X61135002Y-138439071D01*
X61104764Y-138318119D01*
X61104764Y-138227404D01*
X61135002Y-138106452D01*
X61165241Y-138045976D01*
X61225717Y-137985500D01*
X61316431Y-137955261D01*
X61376907Y-137955261D01*
X61467622Y-137985500D01*
X61497860Y-138015738D01*
D11*
X60071000Y-159766000D02*
X60071000Y-150368000D01*
X60071000Y-148717000D02*
X60071000Y-139446000D01*
D10*
X57458050Y-160626425D02*
X58062812Y-160626425D01*
X57579002Y-161547023D02*
X57669717Y-161577261D01*
X57820907Y-161577261D01*
X57881383Y-161547023D01*
X57911622Y-161516785D01*
X57941860Y-161456309D01*
X57941860Y-161395833D01*
X57911622Y-161335357D01*
X57881383Y-161305119D01*
X57820907Y-161274880D01*
X57699955Y-161244642D01*
X57639479Y-161214404D01*
X57609241Y-161184166D01*
X57579002Y-161123690D01*
X57579002Y-161063214D01*
X57609241Y-161002738D01*
X57639479Y-160972500D01*
X57699955Y-160942261D01*
X57851145Y-160942261D01*
X57941860Y-160972500D01*
X58062812Y-160626425D02*
X58637336Y-160626425D01*
X58214002Y-161244642D02*
X58425669Y-161244642D01*
X58516383Y-161577261D02*
X58214002Y-161577261D01*
X58214002Y-160942261D01*
X58516383Y-160942261D01*
X58637336Y-160626425D02*
X59151383Y-160626425D01*
X59090907Y-161577261D02*
X58788526Y-161577261D01*
X58788526Y-160942261D01*
X59151383Y-160626425D02*
X59786383Y-160626425D01*
X59302574Y-161577261D02*
X59302574Y-160942261D01*
X59544479Y-160942261D01*
X59604955Y-160972500D01*
X59635193Y-161002738D01*
X59665431Y-161063214D01*
X59665431Y-161153928D01*
X59635193Y-161214404D01*
X59604955Y-161244642D01*
X59544479Y-161274880D01*
X59302574Y-161274880D01*
X59786383Y-160626425D02*
X60421383Y-160626425D01*
X60300431Y-161577261D02*
X60088764Y-161274880D01*
X59937574Y-161577261D02*
X59937574Y-160942261D01*
X60179479Y-160942261D01*
X60239955Y-160972500D01*
X60270193Y-161002738D01*
X60300431Y-161063214D01*
X60300431Y-161153928D01*
X60270193Y-161214404D01*
X60239955Y-161244642D01*
X60179479Y-161274880D01*
X59937574Y-161274880D01*
X60421383Y-160626425D02*
X60723764Y-160626425D01*
X60572574Y-161577261D02*
X60572574Y-160942261D01*
X60723764Y-160626425D02*
X61389002Y-160626425D01*
X60874955Y-161577261D02*
X60874955Y-160942261D01*
X61237812Y-161577261D01*
X61237812Y-160942261D01*
X61389002Y-160626425D02*
X61872812Y-160626425D01*
X61449479Y-160942261D02*
X61812336Y-160942261D01*
X61630907Y-161577261D02*
X61630907Y-160942261D01*
X57246383Y-163039425D02*
X57881383Y-163039425D01*
X57397574Y-163990261D02*
X57397574Y-163355261D01*
X57639479Y-163355261D01*
X57699955Y-163385500D01*
X57730193Y-163415738D01*
X57760431Y-163476214D01*
X57760431Y-163566928D01*
X57730193Y-163627404D01*
X57699955Y-163657642D01*
X57639479Y-163687880D01*
X57397574Y-163687880D01*
X57881383Y-163039425D02*
X58516383Y-163039425D01*
X58395431Y-163990261D02*
X58183764Y-163687880D01*
X58032574Y-163990261D02*
X58032574Y-163355261D01*
X58274479Y-163355261D01*
X58334955Y-163385500D01*
X58365193Y-163415738D01*
X58395431Y-163476214D01*
X58395431Y-163566928D01*
X58365193Y-163627404D01*
X58334955Y-163657642D01*
X58274479Y-163687880D01*
X58032574Y-163687880D01*
X58516383Y-163039425D02*
X59000193Y-163039425D01*
X58576860Y-163355261D02*
X58939717Y-163355261D01*
X58758288Y-163990261D02*
X58758288Y-163355261D01*
X59000193Y-163039425D02*
X59635193Y-163039425D01*
X59514241Y-163990261D02*
X59302574Y-163687880D01*
X59151383Y-163990261D02*
X59151383Y-163355261D01*
X59393288Y-163355261D01*
X59453764Y-163385500D01*
X59484002Y-163415738D01*
X59514241Y-163476214D01*
X59514241Y-163566928D01*
X59484002Y-163627404D01*
X59453764Y-163657642D01*
X59393288Y-163687880D01*
X59151383Y-163687880D01*
X59635193Y-163039425D02*
X60209717Y-163039425D01*
X59786383Y-163657642D02*
X59998050Y-163657642D01*
X60088764Y-163990261D02*
X59786383Y-163990261D01*
X59786383Y-163355261D01*
X60088764Y-163355261D01*
X60209717Y-163039425D02*
X60814479Y-163039425D01*
X60330669Y-163960023D02*
X60421383Y-163990261D01*
X60572574Y-163990261D01*
X60633050Y-163960023D01*
X60663288Y-163929785D01*
X60693526Y-163869309D01*
X60693526Y-163808833D01*
X60663288Y-163748357D01*
X60633050Y-163718119D01*
X60572574Y-163687880D01*
X60451622Y-163657642D01*
X60391145Y-163627404D01*
X60360907Y-163597166D01*
X60330669Y-163536690D01*
X60330669Y-163476214D01*
X60360907Y-163415738D01*
X60391145Y-163385500D01*
X60451622Y-163355261D01*
X60602812Y-163355261D01*
X60693526Y-163385500D01*
X60814479Y-163039425D02*
X61389002Y-163039425D01*
X60965669Y-163657642D02*
X61177336Y-163657642D01*
X61268050Y-163990261D02*
X60965669Y-163990261D01*
X60965669Y-163355261D01*
X61268050Y-163355261D01*
X61389002Y-163039425D02*
X61872812Y-163039425D01*
X61449479Y-163355261D02*
X61812336Y-163355261D01*
X61630907Y-163990261D02*
X61630907Y-163355261D01*
X58752241Y-166197642D02*
X58963907Y-166197642D01*
X59054622Y-166530261D02*
X58752241Y-166530261D01*
X58752241Y-165895261D01*
X59054622Y-165895261D01*
X59689622Y-166530261D02*
X59477955Y-166227880D01*
X59326764Y-166530261D02*
X59326764Y-165895261D01*
X59568669Y-165895261D01*
X59629145Y-165925500D01*
X59659383Y-165955738D01*
X59689622Y-166016214D01*
X59689622Y-166106928D01*
X59659383Y-166167404D01*
X59629145Y-166197642D01*
X59568669Y-166227880D01*
X59326764Y-166227880D01*
X60324622Y-166530261D02*
X60112955Y-166227880D01*
X59961764Y-166530261D02*
X59961764Y-165895261D01*
X60203669Y-165895261D01*
X60264145Y-165925500D01*
X60294383Y-165955738D01*
X60324622Y-166016214D01*
X60324622Y-166106928D01*
X60294383Y-166167404D01*
X60264145Y-166197642D01*
X60203669Y-166227880D01*
X59961764Y-166227880D01*
X60717717Y-165895261D02*
X60838669Y-165895261D01*
X60899145Y-165925500D01*
X60959622Y-165985976D01*
X60989860Y-166106928D01*
X60989860Y-166318595D01*
X60959622Y-166439547D01*
X60899145Y-166500023D01*
X60838669Y-166530261D01*
X60717717Y-166530261D01*
X60657241Y-166500023D01*
X60596764Y-166439547D01*
X60566526Y-166318595D01*
X60566526Y-166106928D01*
X60596764Y-165985976D01*
X60657241Y-165925500D01*
X60717717Y-165895261D01*
X61624860Y-166530261D02*
X61413193Y-166227880D01*
X61262002Y-166530261D02*
X61262002Y-165895261D01*
X61503907Y-165895261D01*
X61564383Y-165925500D01*
X61594622Y-165955738D01*
X61624860Y-166016214D01*
X61624860Y-166106928D01*
X61594622Y-166167404D01*
X61564383Y-166197642D01*
X61503907Y-166227880D01*
X61262002Y-166227880D01*
X57234288Y-168119425D02*
X57748336Y-168119425D01*
X57687860Y-169070261D02*
X57385479Y-169070261D01*
X57385479Y-168435261D01*
X57748336Y-168119425D02*
X58050717Y-168119425D01*
X57899526Y-169070261D02*
X57899526Y-168435261D01*
X58050717Y-168119425D02*
X58715955Y-168119425D01*
X58201907Y-169070261D02*
X58201907Y-168435261D01*
X58564764Y-169070261D01*
X58564764Y-168435261D01*
X58715955Y-168119425D02*
X59290479Y-168119425D01*
X58867145Y-168737642D02*
X59078812Y-168737642D01*
X59169526Y-169070261D02*
X58867145Y-169070261D01*
X58867145Y-168435261D01*
X59169526Y-168435261D01*
X59290479Y-168119425D02*
X59834764Y-168119425D01*
X59653336Y-168737642D02*
X59441669Y-168737642D01*
X59441669Y-169070261D02*
X59441669Y-168435261D01*
X59744050Y-168435261D01*
X59834764Y-168119425D02*
X60409288Y-168119425D01*
X59985955Y-168737642D02*
X60197622Y-168737642D01*
X60288336Y-169070261D02*
X59985955Y-169070261D01*
X59985955Y-168435261D01*
X60288336Y-168435261D01*
X60409288Y-168119425D02*
X60983812Y-168119425D01*
X60560479Y-168737642D02*
X60772145Y-168737642D01*
X60862860Y-169070261D02*
X60560479Y-169070261D01*
X60560479Y-168435261D01*
X60862860Y-168435261D01*
X60983812Y-168119425D02*
X61618812Y-168119425D01*
X61135002Y-169070261D02*
X61135002Y-168435261D01*
X61286193Y-168435261D01*
X61376907Y-168465500D01*
X61437383Y-168525976D01*
X61467622Y-168586452D01*
X61497860Y-168707404D01*
X61497860Y-168798119D01*
X61467622Y-168919071D01*
X61437383Y-168979547D01*
X61376907Y-169040023D01*
X61286193Y-169070261D01*
X61135002Y-169070261D01*
D12*
X67856100Y-167848280D02*
X68823719Y-167848280D01*
X68049623Y-169321238D02*
X68194766Y-169369619D01*
X68436671Y-169369619D01*
X68533433Y-169321238D01*
X68581814Y-169272857D01*
X68630195Y-169176095D01*
X68630195Y-169079333D01*
X68581814Y-168982571D01*
X68533433Y-168934190D01*
X68436671Y-168885809D01*
X68243147Y-168837428D01*
X68146385Y-168789047D01*
X68098004Y-168740666D01*
X68049623Y-168643904D01*
X68049623Y-168547142D01*
X68098004Y-168450380D01*
X68146385Y-168402000D01*
X68243147Y-168353619D01*
X68485052Y-168353619D01*
X68630195Y-168402000D01*
X68823719Y-167848280D02*
X69597814Y-167848280D01*
X68920480Y-168353619D02*
X69501052Y-168353619D01*
X69210766Y-169369619D02*
X69210766Y-168353619D01*
X69597814Y-167848280D02*
X70613814Y-167848280D01*
X70420290Y-169369619D02*
X70081623Y-168885809D01*
X69839719Y-169369619D02*
X69839719Y-168353619D01*
X70226766Y-168353619D01*
X70323528Y-168402000D01*
X70371909Y-168450380D01*
X70420290Y-168547142D01*
X70420290Y-168692285D01*
X70371909Y-168789047D01*
X70323528Y-168837428D01*
X70226766Y-168885809D01*
X69839719Y-168885809D01*
X70613814Y-167848280D02*
X71678195Y-167848280D01*
X71049242Y-168353619D02*
X71242766Y-168353619D01*
X71339528Y-168402000D01*
X71436290Y-168498761D01*
X71484671Y-168692285D01*
X71484671Y-169030952D01*
X71436290Y-169224476D01*
X71339528Y-169321238D01*
X71242766Y-169369619D01*
X71049242Y-169369619D01*
X70952480Y-169321238D01*
X70855719Y-169224476D01*
X70807338Y-169030952D01*
X70807338Y-168692285D01*
X70855719Y-168498761D01*
X70952480Y-168402000D01*
X71049242Y-168353619D01*
X71678195Y-167848280D02*
X72694195Y-167848280D01*
X72258766Y-168837428D02*
X72403909Y-168885809D01*
X72452290Y-168934190D01*
X72500671Y-169030952D01*
X72500671Y-169176095D01*
X72452290Y-169272857D01*
X72403909Y-169321238D01*
X72307147Y-169369619D01*
X71920100Y-169369619D01*
X71920100Y-168353619D01*
X72258766Y-168353619D01*
X72355528Y-168402000D01*
X72403909Y-168450380D01*
X72452290Y-168547142D01*
X72452290Y-168643904D01*
X72403909Y-168740666D01*
X72355528Y-168789047D01*
X72258766Y-168837428D01*
X71920100Y-168837428D01*
X72694195Y-167848280D02*
X73613433Y-167848280D01*
X72936100Y-168837428D02*
X73274766Y-168837428D01*
X73419909Y-169369619D02*
X72936100Y-169369619D01*
X72936100Y-168353619D01*
X73419909Y-168353619D01*
X67971004Y-166575619D02*
X67971004Y-165559619D01*
X68212909Y-165559619D01*
X68358052Y-165608000D01*
X68454814Y-165704761D01*
X68503195Y-165801523D01*
X68551576Y-165995047D01*
X68551576Y-166140190D01*
X68503195Y-166333714D01*
X68454814Y-166430476D01*
X68358052Y-166527238D01*
X68212909Y-166575619D01*
X67971004Y-166575619D01*
X69180528Y-165559619D02*
X69277290Y-165559619D01*
X69374052Y-165608000D01*
X69422433Y-165656380D01*
X69470814Y-165753142D01*
X69519195Y-165946666D01*
X69519195Y-166188571D01*
X69470814Y-166382095D01*
X69422433Y-166478857D01*
X69374052Y-166527238D01*
X69277290Y-166575619D01*
X69180528Y-166575619D01*
X69083766Y-166527238D01*
X69035385Y-166478857D01*
X68987004Y-166382095D01*
X68938623Y-166188571D01*
X68938623Y-165946666D01*
X68987004Y-165753142D01*
X69035385Y-165656380D01*
X69083766Y-165608000D01*
X69180528Y-165559619D01*
X67971004Y-164162619D02*
X67971004Y-163146619D01*
X68212909Y-163146619D01*
X68358052Y-163195000D01*
X68454814Y-163291761D01*
X68503195Y-163388523D01*
X68551576Y-163582047D01*
X68551576Y-163727190D01*
X68503195Y-163920714D01*
X68454814Y-164017476D01*
X68358052Y-164114238D01*
X68212909Y-164162619D01*
X67971004Y-164162619D01*
X69519195Y-164162619D02*
X68938623Y-164162619D01*
X69228909Y-164162619D02*
X69228909Y-163146619D01*
X69132147Y-163291761D01*
X69035385Y-163388523D01*
X68938623Y-163436904D01*
X67971004Y-161368619D02*
X67971004Y-160352619D01*
X68212909Y-160352619D01*
X68358052Y-160401000D01*
X68454814Y-160497761D01*
X68503195Y-160594523D01*
X68551576Y-160788047D01*
X68551576Y-160933190D01*
X68503195Y-161126714D01*
X68454814Y-161223476D01*
X68358052Y-161320238D01*
X68212909Y-161368619D01*
X67971004Y-161368619D01*
X68938623Y-160449380D02*
X68987004Y-160401000D01*
X69083766Y-160352619D01*
X69325671Y-160352619D01*
X69422433Y-160401000D01*
X69470814Y-160449380D01*
X69519195Y-160546142D01*
X69519195Y-160642904D01*
X69470814Y-160788047D01*
X68890242Y-161368619D01*
X69519195Y-161368619D01*
X67971004Y-158955619D02*
X67971004Y-157939619D01*
X68212909Y-157939619D01*
X68358052Y-157988000D01*
X68454814Y-158084761D01*
X68503195Y-158181523D01*
X68551576Y-158375047D01*
X68551576Y-158520190D01*
X68503195Y-158713714D01*
X68454814Y-158810476D01*
X68358052Y-158907238D01*
X68212909Y-158955619D01*
X67971004Y-158955619D01*
X68890242Y-157939619D02*
X69519195Y-157939619D01*
X69180528Y-158326666D01*
X69325671Y-158326666D01*
X69422433Y-158375047D01*
X69470814Y-158423428D01*
X69519195Y-158520190D01*
X69519195Y-158762095D01*
X69470814Y-158858857D01*
X69422433Y-158907238D01*
X69325671Y-158955619D01*
X69035385Y-158955619D01*
X68938623Y-158907238D01*
X68890242Y-158858857D01*
X67971004Y-156542619D02*
X67971004Y-155526619D01*
X68212909Y-155526619D01*
X68358052Y-155575000D01*
X68454814Y-155671761D01*
X68503195Y-155768523D01*
X68551576Y-155962047D01*
X68551576Y-156107190D01*
X68503195Y-156300714D01*
X68454814Y-156397476D01*
X68358052Y-156494238D01*
X68212909Y-156542619D01*
X67971004Y-156542619D01*
X69422433Y-155865285D02*
X69422433Y-156542619D01*
X69180528Y-155478238D02*
X68938623Y-156203952D01*
X69567576Y-156203952D01*
X67971004Y-154002619D02*
X67971004Y-152986619D01*
X68212909Y-152986619D01*
X68358052Y-153035000D01*
X68454814Y-153131761D01*
X68503195Y-153228523D01*
X68551576Y-153422047D01*
X68551576Y-153567190D01*
X68503195Y-153760714D01*
X68454814Y-153857476D01*
X68358052Y-153954238D01*
X68212909Y-154002619D01*
X67971004Y-154002619D01*
X69470814Y-152986619D02*
X68987004Y-152986619D01*
X68938623Y-153470428D01*
X68987004Y-153422047D01*
X69083766Y-153373666D01*
X69325671Y-153373666D01*
X69422433Y-153422047D01*
X69470814Y-153470428D01*
X69519195Y-153567190D01*
X69519195Y-153809095D01*
X69470814Y-153905857D01*
X69422433Y-153954238D01*
X69325671Y-154002619D01*
X69083766Y-154002619D01*
X68987004Y-153954238D01*
X68938623Y-153905857D01*
X67971004Y-151208619D02*
X67971004Y-150192619D01*
X68212909Y-150192619D01*
X68358052Y-150241000D01*
X68454814Y-150337761D01*
X68503195Y-150434523D01*
X68551576Y-150628047D01*
X68551576Y-150773190D01*
X68503195Y-150966714D01*
X68454814Y-151063476D01*
X68358052Y-151160238D01*
X68212909Y-151208619D01*
X67971004Y-151208619D01*
X69422433Y-150192619D02*
X69228909Y-150192619D01*
X69132147Y-150241000D01*
X69083766Y-150289380D01*
X68987004Y-150434523D01*
X68938623Y-150628047D01*
X68938623Y-151015095D01*
X68987004Y-151111857D01*
X69035385Y-151160238D01*
X69132147Y-151208619D01*
X69325671Y-151208619D01*
X69422433Y-151160238D01*
X69470814Y-151111857D01*
X69519195Y-151015095D01*
X69519195Y-150773190D01*
X69470814Y-150676428D01*
X69422433Y-150628047D01*
X69325671Y-150579666D01*
X69132147Y-150579666D01*
X69035385Y-150628047D01*
X68987004Y-150676428D01*
X68938623Y-150773190D01*
X67971004Y-148922619D02*
X67971004Y-147906619D01*
X68212909Y-147906619D01*
X68358052Y-147955000D01*
X68454814Y-148051761D01*
X68503195Y-148148523D01*
X68551576Y-148342047D01*
X68551576Y-148487190D01*
X68503195Y-148680714D01*
X68454814Y-148777476D01*
X68358052Y-148874238D01*
X68212909Y-148922619D01*
X67971004Y-148922619D01*
X68890242Y-147906619D02*
X69567576Y-147906619D01*
X69132147Y-148922619D01*
X67922623Y-146219333D02*
X68406433Y-146219333D01*
X67825861Y-146509619D02*
X68164528Y-145493619D01*
X68503195Y-146509619D01*
X69422433Y-146412857D02*
X69374052Y-146461238D01*
X69228909Y-146509619D01*
X69132147Y-146509619D01*
X68987004Y-146461238D01*
X68890242Y-146364476D01*
X68841861Y-146267714D01*
X68793480Y-146074190D01*
X68793480Y-145929047D01*
X68841861Y-145735523D01*
X68890242Y-145638761D01*
X68987004Y-145542000D01*
X69132147Y-145493619D01*
X69228909Y-145493619D01*
X69374052Y-145542000D01*
X69422433Y-145590380D01*
X69857861Y-146509619D02*
X69857861Y-145493619D01*
X70438433Y-146509619D02*
X70003004Y-145929047D01*
X70438433Y-145493619D02*
X69857861Y-146074190D01*
X67729100Y-142321280D02*
X68745100Y-142321280D01*
X68309671Y-143310428D02*
X68454814Y-143358809D01*
X68503195Y-143407190D01*
X68551576Y-143503952D01*
X68551576Y-143649095D01*
X68503195Y-143745857D01*
X68454814Y-143794238D01*
X68358052Y-143842619D01*
X67971004Y-143842619D01*
X67971004Y-142826619D01*
X68309671Y-142826619D01*
X68406433Y-142875000D01*
X68454814Y-142923380D01*
X68503195Y-143020142D01*
X68503195Y-143116904D01*
X68454814Y-143213666D01*
X68406433Y-143262047D01*
X68309671Y-143310428D01*
X67971004Y-143310428D01*
X68745100Y-142321280D02*
X69809480Y-142321280D01*
X68987004Y-142826619D02*
X68987004Y-143649095D01*
X69035385Y-143745857D01*
X69083766Y-143794238D01*
X69180528Y-143842619D01*
X69374052Y-143842619D01*
X69470814Y-143794238D01*
X69519195Y-143745857D01*
X69567576Y-143649095D01*
X69567576Y-142826619D01*
X69809480Y-142321280D02*
X70777100Y-142321280D01*
X70003004Y-143794238D02*
X70148147Y-143842619D01*
X70390052Y-143842619D01*
X70486814Y-143794238D01*
X70535195Y-143745857D01*
X70583576Y-143649095D01*
X70583576Y-143552333D01*
X70535195Y-143455571D01*
X70486814Y-143407190D01*
X70390052Y-143358809D01*
X70196528Y-143310428D01*
X70099766Y-143262047D01*
X70051385Y-143213666D01*
X70003004Y-143116904D01*
X70003004Y-143020142D01*
X70051385Y-142923380D01*
X70099766Y-142875000D01*
X70196528Y-142826619D01*
X70438433Y-142826619D01*
X70583576Y-142875000D01*
X70777100Y-142321280D02*
X71647957Y-142321280D01*
X71212528Y-143358809D02*
X71212528Y-143842619D01*
X70873861Y-142826619D02*
X71212528Y-143358809D01*
X71551195Y-142826619D01*
X67971004Y-141302619D02*
X67971004Y-140286619D01*
X68358052Y-140286619D01*
X68454814Y-140335000D01*
X68503195Y-140383380D01*
X68551576Y-140480142D01*
X68551576Y-140625285D01*
X68503195Y-140722047D01*
X68454814Y-140770428D01*
X68358052Y-140818809D01*
X67971004Y-140818809D01*
X68938623Y-141012333D02*
X69422433Y-141012333D01*
X68841861Y-141302619D02*
X69180528Y-140286619D01*
X69519195Y-141302619D01*
X69857861Y-141302619D02*
X69857861Y-140286619D01*
X70244909Y-140286619D01*
X70341671Y-140335000D01*
X70390052Y-140383380D01*
X70438433Y-140480142D01*
X70438433Y-140625285D01*
X70390052Y-140722047D01*
X70341671Y-140770428D01*
X70244909Y-140818809D01*
X69857861Y-140818809D01*
X70873861Y-140770428D02*
X71212528Y-140770428D01*
X71357671Y-141302619D02*
X70873861Y-141302619D01*
X70873861Y-140286619D01*
X71357671Y-140286619D01*
X72373671Y-141302619D02*
X72035004Y-140818809D01*
X71793100Y-141302619D02*
X71793100Y-140286619D01*
X72180147Y-140286619D01*
X72276909Y-140335000D01*
X72325290Y-140383380D01*
X72373671Y-140480142D01*
X72373671Y-140625285D01*
X72325290Y-140722047D01*
X72276909Y-140770428D01*
X72180147Y-140818809D01*
X71793100Y-140818809D01*
X73002623Y-140286619D02*
X73196147Y-140286619D01*
X73292909Y-140335000D01*
X73389671Y-140431761D01*
X73438052Y-140625285D01*
X73438052Y-140963952D01*
X73389671Y-141157476D01*
X73292909Y-141254238D01*
X73196147Y-141302619D01*
X73002623Y-141302619D01*
X72905861Y-141254238D01*
X72809100Y-141157476D01*
X72760719Y-140963952D01*
X72760719Y-140625285D01*
X72809100Y-140431761D01*
X72905861Y-140335000D01*
X73002623Y-140286619D01*
X73873480Y-140286619D02*
X73873480Y-141109095D01*
X73921861Y-141205857D01*
X73970242Y-141254238D01*
X74067004Y-141302619D01*
X74260528Y-141302619D01*
X74357290Y-141254238D01*
X74405671Y-141205857D01*
X74454052Y-141109095D01*
X74454052Y-140286619D01*
X74792719Y-140286619D02*
X75373290Y-140286619D01*
X75083004Y-141302619D02*
X75083004Y-140286619D01*
X67856100Y-137114280D02*
X68823719Y-137114280D01*
X68049623Y-138587238D02*
X68194766Y-138635619D01*
X68436671Y-138635619D01*
X68533433Y-138587238D01*
X68581814Y-138538857D01*
X68630195Y-138442095D01*
X68630195Y-138345333D01*
X68581814Y-138248571D01*
X68533433Y-138200190D01*
X68436671Y-138151809D01*
X68243147Y-138103428D01*
X68146385Y-138055047D01*
X68098004Y-138006666D01*
X68049623Y-137909904D01*
X68049623Y-137813142D01*
X68098004Y-137716380D01*
X68146385Y-137668000D01*
X68243147Y-137619619D01*
X68485052Y-137619619D01*
X68630195Y-137668000D01*
X68823719Y-137114280D02*
X69742957Y-137114280D01*
X69065623Y-138103428D02*
X69404290Y-138103428D01*
X69549433Y-138635619D02*
X69065623Y-138635619D01*
X69065623Y-137619619D01*
X69549433Y-137619619D01*
X69742957Y-137114280D02*
X70565433Y-137114280D01*
X70468671Y-138635619D02*
X69984861Y-138635619D01*
X69984861Y-137619619D01*
X70565433Y-137114280D02*
X71484671Y-137114280D01*
X70807338Y-138103428D02*
X71146004Y-138103428D01*
X71291147Y-138635619D02*
X70807338Y-138635619D01*
X70807338Y-137619619D01*
X71291147Y-137619619D01*
X71484671Y-137114280D02*
X72500671Y-137114280D01*
X72307147Y-138538857D02*
X72258766Y-138587238D01*
X72113623Y-138635619D01*
X72016861Y-138635619D01*
X71871719Y-138587238D01*
X71774957Y-138490476D01*
X71726576Y-138393714D01*
X71678195Y-138200190D01*
X71678195Y-138055047D01*
X71726576Y-137861523D01*
X71774957Y-137764761D01*
X71871719Y-137668000D01*
X72016861Y-137619619D01*
X72113623Y-137619619D01*
X72258766Y-137668000D01*
X72307147Y-137716380D01*
X72500671Y-137114280D02*
X73274766Y-137114280D01*
X72597433Y-137619619D02*
X73178004Y-137619619D01*
X72887719Y-138635619D02*
X72887719Y-137619619D01*
X59296904Y-149098000D02*
X59200142Y-149049619D01*
X59055000Y-149049619D01*
X58909857Y-149098000D01*
X58813095Y-149194761D01*
X58764714Y-149291523D01*
X58716333Y-149485047D01*
X58716333Y-149630190D01*
X58764714Y-149823714D01*
X58813095Y-149920476D01*
X58909857Y-150017238D01*
X59055000Y-150065619D01*
X59151761Y-150065619D01*
X59296904Y-150017238D01*
X59345285Y-149968857D01*
X59345285Y-149630190D01*
X59151761Y-149630190D01*
X59780714Y-150065619D02*
X59780714Y-149049619D01*
X60361285Y-150065619D01*
X60361285Y-149049619D01*
X60845095Y-150065619D02*
X60845095Y-149049619D01*
X61087000Y-149049619D01*
X61232142Y-149098000D01*
X61328904Y-149194761D01*
X61377285Y-149291523D01*
X61425666Y-149485047D01*
X61425666Y-149630190D01*
X61377285Y-149823714D01*
X61328904Y-149920476D01*
X61232142Y-150017238D01*
X61087000Y-150065619D01*
X60845095Y-150065619D01*
D13*
X135309428Y-114330238D02*
X135309428Y-115781666D01*
X135212666Y-116071952D01*
X135019142Y-116265476D01*
X134728857Y-116362238D01*
X134535333Y-116362238D01*
X136664095Y-114330238D02*
X137051142Y-114330238D01*
X137244666Y-114427000D01*
X137438190Y-114620523D01*
X137534952Y-115007571D01*
X137534952Y-115684904D01*
X137438190Y-116071952D01*
X137244666Y-116265476D01*
X137051142Y-116362238D01*
X136664095Y-116362238D01*
X136470571Y-116265476D01*
X136277047Y-116071952D01*
X136180285Y-115684904D01*
X136180285Y-115007571D01*
X136277047Y-114620523D01*
X136470571Y-114427000D01*
X136664095Y-114330238D01*
X138792857Y-115394619D02*
X138792857Y-116362238D01*
X138115523Y-114330238D02*
X138792857Y-115394619D01*
X139470190Y-114330238D01*
X140534571Y-114330238D02*
X140728095Y-114330238D01*
X140921619Y-114427000D01*
X141018380Y-114523761D01*
X141115142Y-114717285D01*
X141211904Y-115104333D01*
X141211904Y-115588142D01*
X141115142Y-115975190D01*
X141018380Y-116168714D01*
X140921619Y-116265476D01*
X140728095Y-116362238D01*
X140534571Y-116362238D01*
X140341047Y-116265476D01*
X140244285Y-116168714D01*
X140147523Y-115975190D01*
X140050761Y-115588142D01*
X140050761Y-115104333D01*
X140147523Y-114717285D01*
X140244285Y-114523761D01*
X140341047Y-114427000D01*
X140534571Y-114330238D01*
X135690428Y-172242238D02*
X135690428Y-173693666D01*
X135593666Y-173983952D01*
X135400142Y-174177476D01*
X135109857Y-174274238D01*
X134916333Y-174274238D01*
X137045095Y-172242238D02*
X137432142Y-172242238D01*
X137625666Y-172339000D01*
X137819190Y-172532523D01*
X137915952Y-172919571D01*
X137915952Y-173596904D01*
X137819190Y-173983952D01*
X137625666Y-174177476D01*
X137432142Y-174274238D01*
X137045095Y-174274238D01*
X136851571Y-174177476D01*
X136658047Y-173983952D01*
X136561285Y-173596904D01*
X136561285Y-172919571D01*
X136658047Y-172532523D01*
X136851571Y-172339000D01*
X137045095Y-172242238D01*
X139173857Y-173306619D02*
X139173857Y-174274238D01*
X138496523Y-172242238D02*
X139173857Y-173306619D01*
X139851190Y-172242238D01*
X141592904Y-174274238D02*
X140431761Y-174274238D01*
X141012333Y-174274238D02*
X141012333Y-172242238D01*
X140818809Y-172532523D01*
X140625285Y-172726047D01*
X140431761Y-172822809D01*
X68228270Y-116975466D02*
X68179889Y-116927085D01*
X68083127Y-116781942D01*
X68034746Y-116685180D01*
X67986365Y-116540038D01*
X67937984Y-116298133D01*
X67937984Y-116104609D01*
X67986365Y-115862704D01*
X68034746Y-115717561D01*
X68083127Y-115620800D01*
X68179889Y-115475657D01*
X68228270Y-115427276D01*
X69050746Y-116540038D02*
X68953984Y-116588419D01*
X68760460Y-116588419D01*
X68663699Y-116540038D01*
X68615318Y-116491657D01*
X68566937Y-116394895D01*
X68566937Y-116104609D01*
X68615318Y-116007847D01*
X68663699Y-115959466D01*
X68760460Y-115911085D01*
X68953984Y-115911085D01*
X69050746Y-115959466D01*
X69389413Y-116975466D02*
X69437794Y-116927085D01*
X69534556Y-116781942D01*
X69582937Y-116685180D01*
X69631318Y-116540038D01*
X69679699Y-116298133D01*
X69679699Y-116104609D01*
X69631318Y-115862704D01*
X69582937Y-115717561D01*
X69534556Y-115620800D01*
X69437794Y-115475657D01*
X69389413Y-115427276D01*
X70889222Y-115669180D02*
X70937603Y-115620800D01*
X71034365Y-115572419D01*
X71276270Y-115572419D01*
X71373032Y-115620800D01*
X71421413Y-115669180D01*
X71469794Y-115765942D01*
X71469794Y-115862704D01*
X71421413Y-116007847D01*
X70840841Y-116588419D01*
X71469794Y-116588419D01*
X72098746Y-115572419D02*
X72195508Y-115572419D01*
X72292270Y-115620800D01*
X72340651Y-115669180D01*
X72389032Y-115765942D01*
X72437413Y-115959466D01*
X72437413Y-116201371D01*
X72389032Y-116394895D01*
X72340651Y-116491657D01*
X72292270Y-116540038D01*
X72195508Y-116588419D01*
X72098746Y-116588419D01*
X72001984Y-116540038D01*
X71953603Y-116491657D01*
X71905222Y-116394895D01*
X71856841Y-116201371D01*
X71856841Y-115959466D01*
X71905222Y-115765942D01*
X71953603Y-115669180D01*
X72001984Y-115620800D01*
X72098746Y-115572419D01*
X72824460Y-115669180D02*
X72872841Y-115620800D01*
X72969603Y-115572419D01*
X73211508Y-115572419D01*
X73308270Y-115620800D01*
X73356651Y-115669180D01*
X73405032Y-115765942D01*
X73405032Y-115862704D01*
X73356651Y-116007847D01*
X72776080Y-116588419D01*
X73405032Y-116588419D01*
X74372651Y-116588419D02*
X73792080Y-116588419D01*
X74082365Y-116588419D02*
X74082365Y-115572419D01*
X73985603Y-115717561D01*
X73888841Y-115814323D01*
X73792080Y-115862704D01*
X74808080Y-116201371D02*
X75582175Y-116201371D01*
X76259508Y-115572419D02*
X76356270Y-115572419D01*
X76453032Y-115620800D01*
X76501413Y-115669180D01*
X76549794Y-115765942D01*
X76598175Y-115959466D01*
X76598175Y-116201371D01*
X76549794Y-116394895D01*
X76501413Y-116491657D01*
X76453032Y-116540038D01*
X76356270Y-116588419D01*
X76259508Y-116588419D01*
X76162746Y-116540038D01*
X76114365Y-116491657D01*
X76065984Y-116394895D01*
X76017603Y-116201371D01*
X76017603Y-115959466D01*
X76065984Y-115765942D01*
X76114365Y-115669180D01*
X76162746Y-115620800D01*
X76259508Y-115572419D01*
X76936841Y-115572419D02*
X77614175Y-115572419D01*
X77178746Y-116588419D01*
X78001222Y-116201371D02*
X78775318Y-116201371D01*
X79210746Y-115669180D02*
X79259127Y-115620800D01*
X79355889Y-115572419D01*
X79597794Y-115572419D01*
X79694556Y-115620800D01*
X79742937Y-115669180D01*
X79791318Y-115765942D01*
X79791318Y-115862704D01*
X79742937Y-116007847D01*
X79162365Y-116588419D01*
X79791318Y-116588419D01*
X80129984Y-115572419D02*
X80807318Y-115572419D01*
X80371889Y-116588419D01*
X68421794Y-118315619D02*
X67937984Y-118315619D01*
X67937984Y-117299619D01*
X69195889Y-118315619D02*
X69195889Y-117783428D01*
X69147508Y-117686666D01*
X69050746Y-117638285D01*
X68857222Y-117638285D01*
X68760460Y-117686666D01*
X69195889Y-118267238D02*
X69099127Y-118315619D01*
X68857222Y-118315619D01*
X68760460Y-118267238D01*
X68712080Y-118170476D01*
X68712080Y-118073714D01*
X68760460Y-117976952D01*
X68857222Y-117928571D01*
X69099127Y-117928571D01*
X69195889Y-117880190D01*
X69582937Y-117638285D02*
X69776460Y-118315619D01*
X69969984Y-117831809D01*
X70163508Y-118315619D01*
X70357032Y-117638285D01*
X70744080Y-118315619D02*
X70744080Y-117638285D01*
X70744080Y-117831809D02*
X70792460Y-117735047D01*
X70840841Y-117686666D01*
X70937603Y-117638285D01*
X71034365Y-117638285D01*
X71760080Y-118267238D02*
X71663318Y-118315619D01*
X71469794Y-118315619D01*
X71373032Y-118267238D01*
X71324651Y-118170476D01*
X71324651Y-117783428D01*
X71373032Y-117686666D01*
X71469794Y-117638285D01*
X71663318Y-117638285D01*
X71760080Y-117686666D01*
X71808460Y-117783428D01*
X71808460Y-117880190D01*
X71324651Y-117976952D01*
X72243889Y-117638285D02*
X72243889Y-118315619D01*
X72243889Y-117735047D02*
X72292270Y-117686666D01*
X72389032Y-117638285D01*
X72534175Y-117638285D01*
X72630937Y-117686666D01*
X72679318Y-117783428D01*
X72679318Y-118315619D01*
X73598556Y-118267238D02*
X73501794Y-118315619D01*
X73308270Y-118315619D01*
X73211508Y-118267238D01*
X73163127Y-118218857D01*
X73114746Y-118122095D01*
X73114746Y-117831809D01*
X73163127Y-117735047D01*
X73211508Y-117686666D01*
X73308270Y-117638285D01*
X73501794Y-117638285D01*
X73598556Y-117686666D01*
X74421032Y-118267238D02*
X74324270Y-118315619D01*
X74130746Y-118315619D01*
X74033984Y-118267238D01*
X73985603Y-118170476D01*
X73985603Y-117783428D01*
X74033984Y-117686666D01*
X74130746Y-117638285D01*
X74324270Y-117638285D01*
X74421032Y-117686666D01*
X74469413Y-117783428D01*
X74469413Y-117880190D01*
X73985603Y-117976952D01*
X75678937Y-118315619D02*
X75678937Y-117299619D01*
X76017603Y-118025333D01*
X76356270Y-117299619D01*
X76356270Y-118315619D01*
X77275508Y-118315619D02*
X77275508Y-117783428D01*
X77227127Y-117686666D01*
X77130365Y-117638285D01*
X76936841Y-117638285D01*
X76840080Y-117686666D01*
X77275508Y-118267238D02*
X77178746Y-118315619D01*
X76936841Y-118315619D01*
X76840080Y-118267238D01*
X76791699Y-118170476D01*
X76791699Y-118073714D01*
X76840080Y-117976952D01*
X76936841Y-117928571D01*
X77178746Y-117928571D01*
X77275508Y-117880190D01*
X77759318Y-117638285D02*
X77759318Y-118315619D01*
X77759318Y-117735047D02*
X77807699Y-117686666D01*
X77904460Y-117638285D01*
X78049603Y-117638285D01*
X78146365Y-117686666D01*
X78194746Y-117783428D01*
X78194746Y-118315619D01*
X78678556Y-117638285D02*
X78678556Y-118315619D01*
X78678556Y-117735047D02*
X78726937Y-117686666D01*
X78823699Y-117638285D01*
X78968841Y-117638285D01*
X79065603Y-117686666D01*
X79113984Y-117783428D01*
X79113984Y-118315619D01*
X79597794Y-118315619D02*
X79597794Y-117638285D01*
X79597794Y-117299619D02*
X79549413Y-117348000D01*
X79597794Y-117396380D01*
X79646175Y-117348000D01*
X79597794Y-117299619D01*
X79597794Y-117396380D01*
X80081603Y-117638285D02*
X80081603Y-118315619D01*
X80081603Y-117735047D02*
X80129984Y-117686666D01*
X80226746Y-117638285D01*
X80371889Y-117638285D01*
X80468651Y-117686666D01*
X80517032Y-117783428D01*
X80517032Y-118315619D01*
X81436270Y-117638285D02*
X81436270Y-118460761D01*
X81387889Y-118557523D01*
X81339508Y-118605904D01*
X81242746Y-118654285D01*
X81097603Y-118654285D01*
X81000841Y-118605904D01*
X81436270Y-118267238D02*
X81339508Y-118315619D01*
X81145984Y-118315619D01*
X81049222Y-118267238D01*
X81000841Y-118218857D01*
X80952460Y-118122095D01*
X80952460Y-117831809D01*
X81000841Y-117735047D01*
X81049222Y-117686666D01*
X81145984Y-117638285D01*
X81339508Y-117638285D01*
X81436270Y-117686666D01*
X67937984Y-120042819D02*
X67937984Y-119026819D01*
X68373413Y-120042819D02*
X68373413Y-119510628D01*
X68325032Y-119413866D01*
X68228270Y-119365485D01*
X68083127Y-119365485D01*
X67986365Y-119413866D01*
X67937984Y-119462247D01*
X68712080Y-119365485D02*
X69099127Y-119365485D01*
X68857222Y-119026819D02*
X68857222Y-119897676D01*
X68905603Y-119994438D01*
X69002365Y-120042819D01*
X69099127Y-120042819D01*
X69292651Y-119365485D02*
X69679699Y-119365485D01*
X69437794Y-119026819D02*
X69437794Y-119897676D01*
X69486175Y-119994438D01*
X69582937Y-120042819D01*
X69679699Y-120042819D01*
X70018365Y-119365485D02*
X70018365Y-120381485D01*
X70018365Y-119413866D02*
X70115127Y-119365485D01*
X70308651Y-119365485D01*
X70405413Y-119413866D01*
X70453794Y-119462247D01*
X70502175Y-119559009D01*
X70502175Y-119849295D01*
X70453794Y-119946057D01*
X70405413Y-119994438D01*
X70308651Y-120042819D01*
X70115127Y-120042819D01*
X70018365Y-119994438D01*
X70889222Y-119994438D02*
X70985984Y-120042819D01*
X71179508Y-120042819D01*
X71276270Y-119994438D01*
X71324651Y-119897676D01*
X71324651Y-119849295D01*
X71276270Y-119752533D01*
X71179508Y-119704152D01*
X71034365Y-119704152D01*
X70937603Y-119655771D01*
X70889222Y-119559009D01*
X70889222Y-119510628D01*
X70937603Y-119413866D01*
X71034365Y-119365485D01*
X71179508Y-119365485D01*
X71276270Y-119413866D01*
X71760080Y-119946057D02*
X71808460Y-119994438D01*
X71760080Y-120042819D01*
X71711699Y-119994438D01*
X71760080Y-119946057D01*
X71760080Y-120042819D01*
X71760080Y-119413866D02*
X71808460Y-119462247D01*
X71760080Y-119510628D01*
X71711699Y-119462247D01*
X71760080Y-119413866D01*
X71760080Y-119510628D01*
X72969603Y-118978438D02*
X72098746Y-120284723D01*
X74033984Y-118978438D02*
X73163127Y-120284723D01*
X74275889Y-119365485D02*
X74469413Y-120042819D01*
X74662937Y-119559009D01*
X74856460Y-120042819D01*
X75049984Y-119365485D01*
X75340270Y-119365485D02*
X75533794Y-120042819D01*
X75727318Y-119559009D01*
X75920841Y-120042819D01*
X76114365Y-119365485D01*
X76404651Y-119365485D02*
X76598175Y-120042819D01*
X76791699Y-119559009D01*
X76985222Y-120042819D01*
X77178746Y-119365485D01*
X77565794Y-119946057D02*
X77614175Y-119994438D01*
X77565794Y-120042819D01*
X77517413Y-119994438D01*
X77565794Y-119946057D01*
X77565794Y-120042819D01*
X78485032Y-120042819D02*
X78485032Y-119510628D01*
X78436651Y-119413866D01*
X78339889Y-119365485D01*
X78146365Y-119365485D01*
X78049603Y-119413866D01*
X78485032Y-119994438D02*
X78388270Y-120042819D01*
X78146365Y-120042819D01*
X78049603Y-119994438D01*
X78001222Y-119897676D01*
X78001222Y-119800914D01*
X78049603Y-119704152D01*
X78146365Y-119655771D01*
X78388270Y-119655771D01*
X78485032Y-119607390D01*
X78920460Y-119994438D02*
X79017222Y-120042819D01*
X79210746Y-120042819D01*
X79307508Y-119994438D01*
X79355889Y-119897676D01*
X79355889Y-119849295D01*
X79307508Y-119752533D01*
X79210746Y-119704152D01*
X79065603Y-119704152D01*
X78968841Y-119655771D01*
X78920460Y-119559009D01*
X78920460Y-119510628D01*
X78968841Y-119413866D01*
X79065603Y-119365485D01*
X79210746Y-119365485D01*
X79307508Y-119413866D01*
X79936460Y-120042819D02*
X79839699Y-119994438D01*
X79791318Y-119897676D01*
X79791318Y-119026819D01*
X80758937Y-120042819D02*
X80758937Y-119510628D01*
X80710556Y-119413866D01*
X80613794Y-119365485D01*
X80420270Y-119365485D01*
X80323508Y-119413866D01*
X80758937Y-119994438D02*
X80662175Y-120042819D01*
X80420270Y-120042819D01*
X80323508Y-119994438D01*
X80275127Y-119897676D01*
X80275127Y-119800914D01*
X80323508Y-119704152D01*
X80420270Y-119655771D01*
X80662175Y-119655771D01*
X80758937Y-119607390D01*
X81242746Y-120042819D02*
X81242746Y-119026819D01*
X81339508Y-119655771D02*
X81629794Y-120042819D01*
X81629794Y-119365485D02*
X81242746Y-119752533D01*
X82065222Y-119946057D02*
X82113603Y-119994438D01*
X82065222Y-120042819D01*
X82016841Y-119994438D01*
X82065222Y-119946057D01*
X82065222Y-120042819D01*
X82549032Y-119365485D02*
X82549032Y-120042819D01*
X82549032Y-119462247D02*
X82597413Y-119413866D01*
X82694175Y-119365485D01*
X82839318Y-119365485D01*
X82936080Y-119413866D01*
X82984460Y-119510628D01*
X82984460Y-120042819D01*
X83855318Y-119994438D02*
X83758556Y-120042819D01*
X83565032Y-120042819D01*
X83468270Y-119994438D01*
X83419889Y-119897676D01*
X83419889Y-119510628D01*
X83468270Y-119413866D01*
X83565032Y-119365485D01*
X83758556Y-119365485D01*
X83855318Y-119413866D01*
X83903699Y-119510628D01*
X83903699Y-119607390D01*
X83419889Y-119704152D01*
X84193984Y-119365485D02*
X84581032Y-119365485D01*
X84339127Y-119026819D02*
X84339127Y-119897676D01*
X84387508Y-119994438D01*
X84484270Y-120042819D01*
X84581032Y-120042819D01*
X68071032Y-114711238D02*
X68325032Y-112679238D01*
X68651603Y-114130666D01*
X69341032Y-112679238D01*
X69087032Y-114711238D01*
X69812746Y-114711238D02*
X70066746Y-112679238D01*
X70538460Y-114711238D02*
X70792460Y-112679238D01*
X71155318Y-112679238D01*
X71360937Y-112776000D01*
X71481889Y-112969523D01*
X71530270Y-113163047D01*
X71554460Y-113550095D01*
X71518175Y-113840380D01*
X71397222Y-114227428D01*
X71300460Y-114420952D01*
X71131127Y-114614476D01*
X70901318Y-114711238D01*
X70538460Y-114711238D01*
X72062460Y-114711238D02*
X72316460Y-112679238D01*
X73332460Y-112679238D02*
X73477603Y-112679238D01*
X73610651Y-112776000D01*
X73671127Y-112872761D01*
X73719508Y-113066285D01*
X73743699Y-113453333D01*
X73683222Y-113937142D01*
X73562270Y-114324190D01*
X73465508Y-114517714D01*
X73380841Y-114614476D01*
X73223603Y-114711238D01*
X73078460Y-114711238D01*
X72945413Y-114614476D01*
X72884937Y-114517714D01*
X72836556Y-114324190D01*
X72812365Y-113937142D01*
X72872841Y-113453333D01*
X72993794Y-113066285D01*
X73090556Y-112872761D01*
X73175222Y-112776000D01*
X73332460Y-112679238D01*
X74396841Y-112872761D02*
X74481508Y-112776000D01*
X74638746Y-112679238D01*
X75001603Y-112679238D01*
X75134651Y-112776000D01*
X75195127Y-112872761D01*
X75243508Y-113066285D01*
X75219318Y-113259809D01*
X75110460Y-113550095D01*
X74094460Y-114711238D01*
X75037889Y-114711238D01*
X76235318Y-112679238D02*
X76380460Y-112679238D01*
X76513508Y-112776000D01*
X76573984Y-112872761D01*
X76622365Y-113066285D01*
X76646556Y-113453333D01*
X76586080Y-113937142D01*
X76465127Y-114324190D01*
X76368365Y-114517714D01*
X76283699Y-114614476D01*
X76126460Y-114711238D01*
X75981318Y-114711238D01*
X75848270Y-114614476D01*
X75787794Y-114517714D01*
X75739413Y-114324190D01*
X75715222Y-113937142D01*
X75775699Y-113453333D01*
X75896651Y-113066285D01*
X75993413Y-112872761D01*
X76078080Y-112776000D01*
X76235318Y-112679238D01*
X78303603Y-114711238D02*
X78557603Y-112679238D01*
X79138175Y-112679238D01*
X79271222Y-112776000D01*
X79331699Y-112872761D01*
X79380080Y-113066285D01*
X79343794Y-113356571D01*
X79247032Y-113550095D01*
X79162365Y-113646857D01*
X79005127Y-113743619D01*
X78424556Y-113743619D01*
X79827603Y-114711238D02*
X79996937Y-113356571D01*
X79948556Y-113743619D02*
X80045318Y-113550095D01*
X80129984Y-113453333D01*
X80287222Y-113356571D01*
X80432365Y-113356571D01*
X80771032Y-114711238D02*
X80940365Y-113356571D01*
X81025032Y-112679238D02*
X80940365Y-112776000D01*
X81000841Y-112872761D01*
X81085508Y-112776000D01*
X81025032Y-112679238D01*
X81000841Y-112872761D01*
X81666080Y-113356571D02*
X81496746Y-114711238D01*
X81641889Y-113550095D02*
X81726556Y-113453333D01*
X81883794Y-113356571D01*
X82101508Y-113356571D01*
X82234556Y-113453333D01*
X82282937Y-113646857D01*
X82149889Y-114711238D01*
X82827222Y-113356571D02*
X83407794Y-113356571D01*
X83129603Y-112679238D02*
X82911889Y-114420952D01*
X82960270Y-114614476D01*
X83093318Y-114711238D01*
X83238460Y-114711238D01*
X84339127Y-114614476D02*
X84181889Y-114711238D01*
X83891603Y-114711238D01*
X83758556Y-114614476D01*
X83710175Y-114420952D01*
X83806937Y-113646857D01*
X83903699Y-113453333D01*
X84060937Y-113356571D01*
X84351222Y-113356571D01*
X84484270Y-113453333D01*
X84532651Y-113646857D01*
X84508460Y-113840380D01*
X83758556Y-114033904D01*
X85052746Y-114711238D02*
X85222080Y-113356571D01*
X85173699Y-113743619D02*
X85270460Y-113550095D01*
X85355127Y-113453333D01*
X85512365Y-113356571D01*
X85657508Y-113356571D01*
X86092937Y-113937142D02*
X87254080Y-113937142D01*
X86576746Y-114711238D02*
X86770270Y-113163047D01*
X88572460Y-112679238D02*
X88391032Y-114130666D01*
X88282175Y-114420952D01*
X88112841Y-114614476D01*
X87883032Y-114711238D01*
X87737889Y-114711238D01*
X89261889Y-114711238D02*
X89128841Y-114614476D01*
X89068365Y-114517714D01*
X89019984Y-114324190D01*
X89092556Y-113743619D01*
X89189318Y-113550095D01*
X89273984Y-113453333D01*
X89431222Y-113356571D01*
X89648937Y-113356571D01*
X89781984Y-113453333D01*
X89842460Y-113550095D01*
X89890841Y-113743619D01*
X89818270Y-114324190D01*
X89721508Y-114517714D01*
X89636841Y-114614476D01*
X89479603Y-114711238D01*
X89261889Y-114711238D01*
X90447222Y-113356571D02*
X90640746Y-114711238D01*
X91172937Y-113356571D02*
X90640746Y-114711238D01*
X90435127Y-115195047D01*
X90350460Y-115291809D01*
X90193222Y-115388571D01*
X91523699Y-114614476D02*
X91656746Y-114711238D01*
X91947032Y-114711238D01*
X92104270Y-114614476D01*
X92201032Y-114420952D01*
X92213127Y-114324190D01*
X92164746Y-114130666D01*
X92031699Y-114033904D01*
X91813984Y-114033904D01*
X91680937Y-113937142D01*
X91632556Y-113743619D01*
X91644651Y-113646857D01*
X91741413Y-113453333D01*
X91898651Y-113356571D01*
X92116365Y-113356571D01*
X92249413Y-113453333D01*
X92769508Y-113356571D02*
X93350080Y-113356571D01*
X93071889Y-112679238D02*
X92854175Y-114420952D01*
X92902556Y-114614476D01*
X93035603Y-114711238D01*
X93180746Y-114711238D01*
X93688746Y-114711238D02*
X93858080Y-113356571D01*
X93942746Y-112679238D02*
X93858080Y-112776000D01*
X93918556Y-112872761D01*
X94003222Y-112776000D01*
X93942746Y-112679238D01*
X93918556Y-112872761D01*
X95079699Y-114614476D02*
X94922460Y-114711238D01*
X94632175Y-114711238D01*
X94499127Y-114614476D01*
X94438651Y-114517714D01*
X94390270Y-114324190D01*
X94462841Y-113743619D01*
X94559603Y-113550095D01*
X94644270Y-113453333D01*
X94801508Y-113356571D01*
X95091794Y-113356571D01*
X95224841Y-113453333D01*
X95720746Y-114711238D02*
X95974746Y-112679238D01*
X95962651Y-113937142D02*
X96301318Y-114711238D01*
X96470651Y-113356571D02*
X95793318Y-114130666D01*
X96893984Y-114614476D02*
X97027032Y-114711238D01*
X97317318Y-114711238D01*
X97474556Y-114614476D01*
X97571318Y-114420952D01*
X97583413Y-114324190D01*
X97535032Y-114130666D01*
X97401984Y-114033904D01*
X97184270Y-114033904D01*
X97051222Y-113937142D01*
X97002841Y-113743619D01*
X97014937Y-113646857D01*
X97111699Y-113453333D01*
X97268937Y-113356571D01*
X97486651Y-113356571D01*
X97619699Y-113453333D01*
D14*
X155448000Y-109982000D02*
X155448000Y-189992000D01*
X56896000Y-109982000D02*
X155448000Y-109982000D01*
X56896000Y-189992000D02*
X56896000Y-109982000D01*
X155448000Y-189992000D02*
X56896000Y-189992000D01*
D11*
X147237000Y-184358000D02*
X146637000Y-184658000D01*
X147237000Y-184958000D02*
X147237000Y-184358000D01*
X146637000Y-184658000D02*
X147237000Y-184958000D01*
X65932000Y-185398000D02*
X64432000Y-185398000D01*
X68472000Y-185398000D02*
X67671000Y-185398000D01*
X71012000Y-185398000D02*
X70211000Y-185398000D01*
X73552000Y-185398000D02*
X72751000Y-185398000D01*
X76092000Y-185398000D02*
X75291000Y-185398000D01*
X78632000Y-185398000D02*
X77831000Y-185398000D01*
X81172000Y-185398000D02*
X80371000Y-185398000D01*
X83712000Y-185398000D02*
X82911000Y-185398000D01*
X86252000Y-185398000D02*
X85451000Y-185398000D01*
X88792000Y-185398000D02*
X87991000Y-185398000D01*
X91332000Y-185398000D02*
X90531000Y-185398000D01*
X93872000Y-185398000D02*
X93071000Y-185398000D01*
X96412000Y-185398000D02*
X95611000Y-185398000D01*
X98952000Y-185398000D02*
X98151000Y-185398000D01*
X101492000Y-185398000D02*
X100691000Y-185398000D01*
X104032000Y-185398000D02*
X103231000Y-185398000D01*
X106572000Y-185398000D02*
X105771000Y-185398000D01*
X109112000Y-185398000D02*
X108311000Y-185398000D01*
X111652000Y-185398000D02*
X110851000Y-185398000D01*
X114192000Y-185398000D02*
X113391000Y-185398000D01*
X116732000Y-185398000D02*
X115931000Y-185398000D01*
X119272000Y-185398000D02*
X118471000Y-185398000D01*
X121812000Y-185398000D02*
X121011000Y-185398000D01*
X124352000Y-185398000D02*
X123551000Y-185398000D01*
X126892000Y-185398000D02*
X126091000Y-185398000D01*
X129432000Y-185398000D02*
X128631000Y-185398000D01*
X131972000Y-185398000D02*
X131171000Y-185398000D01*
X134512000Y-185398000D02*
X133711000Y-185398000D01*
X137052000Y-185398000D02*
X136251000Y-185398000D01*
X139592000Y-185398000D02*
X138791000Y-185398000D01*
X142132000Y-185398000D02*
X141331000Y-185398000D01*
X144447000Y-185398000D02*
X143871000Y-185398000D01*
X147913000Y-185398000D02*
X146637000Y-185398000D01*
X64432000Y-184398000D02*
X64432000Y-185398000D01*
X58912000Y-184398000D02*
X64432000Y-184398000D01*
X58912000Y-189958000D02*
X58912000Y-184398000D01*
X147912000Y-184398000D02*
X147912000Y-185398000D01*
X153432000Y-184398000D02*
X147912000Y-184398000D01*
X153432000Y-189958000D02*
X153432000Y-184398000D01*
X67116000Y-169986000D02*
X65786000Y-169986000D01*
X67116000Y-168656000D02*
X67116000Y-169986000D01*
X64516000Y-169986000D02*
X61916000Y-169986000D01*
X64516000Y-167386000D02*
X64516000Y-169986000D01*
X67116000Y-167386000D02*
X64516000Y-167386000D01*
X61916000Y-169986000D02*
X61916000Y-136846000D01*
X67116000Y-167386000D02*
X67116000Y-136846000D01*
X67116000Y-136846000D02*
X61916000Y-136846000D01*
X92002000Y-166264000D02*
X92002000Y-161814000D01*
X92002000Y-166264000D02*
X92002000Y-168914000D01*
X79182000Y-166264000D02*
X79182000Y-163614000D01*
X79182000Y-166264000D02*
X79182000Y-168914000D01*
X134112000Y-164398000D02*
X138562000Y-164398000D01*
X134112000Y-164398000D02*
X131462000Y-164398000D01*
X134112000Y-151578000D02*
X136762000Y-151578000D01*
X134112000Y-151578000D02*
X131462000Y-151578000D01*
X133858000Y-131632000D02*
X138308000Y-131632000D01*
X133858000Y-131632000D02*
X131208000Y-131632000D01*
X133858000Y-118812000D02*
X136508000Y-118812000D01*
X133858000Y-118812000D02*
X131208000Y-118812000D01*
D15*
X98892000Y-156295000D02*
X99392000Y-156295000D01*
X99392000Y-156295000D02*
X100542000Y-155145000D01*
X100542000Y-155145000D02*
X100542000Y-154645000D01*
X81702000Y-156295000D02*
X80052000Y-156295000D01*
X80052000Y-156295000D02*
X80052000Y-154645000D01*
X98892000Y-135805000D02*
X100542000Y-135805000D01*
X100542000Y-135805000D02*
X100542000Y-137455000D01*
X81702000Y-135805000D02*
X80052000Y-135805000D01*
X80052000Y-135805000D02*
X80052000Y-137455000D01*
D11*
X133858000Y-149469000D02*
X137308000Y-149469000D01*
X133858000Y-149469000D02*
X131908000Y-149469000D01*
X133858000Y-140599000D02*
X135808000Y-140599000D01*
X133858000Y-140599000D02*
X131908000Y-140599000D01*
X133858000Y-138704000D02*
X135808000Y-138704000D01*
X133858000Y-138704000D02*
X131908000Y-138704000D01*
X133858000Y-133584000D02*
X135808000Y-133584000D01*
X133858000Y-133584000D02*
X130408000Y-133584000D01*
D16*
X102823000Y-130410000D02*
X102823000Y-131935000D01*
X113098000Y-130410000D02*
X113098000Y-124860000D01*
X102548000Y-130410000D02*
X102548000Y-124860000D01*
X113098000Y-130410000D02*
X112743000Y-130410000D01*
X113098000Y-124860000D02*
X112743000Y-124860000D01*
X102548000Y-124860000D02*
X102903000Y-124860000D01*
X102548000Y-130410000D02*
X102823000Y-130410000D01*
D11*
X64105064Y-113644000D02*
X62900936Y-113644000D01*
X64105064Y-115464000D02*
X62900936Y-115464000D01*
X141569675Y-166243000D02*
X141136662Y-166493000D01*
X141136662Y-165993000D02*
X141569675Y-166243000D01*
X141136662Y-166493000D02*
X141136662Y-165993000D01*
X142031000Y-145218000D02*
X154371000Y-145218000D01*
X142031000Y-176188000D02*
X142031000Y-145218000D01*
X154371000Y-176188000D02*
X142031000Y-176188000D01*
X141546675Y-133483000D02*
X141113662Y-133733000D01*
X141113662Y-133233000D02*
X141546675Y-133483000D01*
X141113662Y-133733000D02*
X141113662Y-133233000D01*
X142008000Y-112458000D02*
X154348000Y-112458000D01*
X142008000Y-143428000D02*
X142008000Y-112458000D01*
X154348000Y-143428000D02*
X142008000Y-143428000D01*
X61218000Y-119314000D02*
X65103000Y-119314000D01*
X61218000Y-116144000D02*
X61218000Y-119314000D01*
X65103000Y-116144000D02*
X61218000Y-116144000D01*
D16*
X150288666Y-183110380D02*
X150288666Y-183824666D01*
X150241047Y-183967523D01*
X150145809Y-184062761D01*
X150002952Y-184110380D01*
X149907714Y-184110380D01*
X151288666Y-184110380D02*
X150717238Y-184110380D01*
X151002952Y-184110380D02*
X151002952Y-183110380D01*
X150907714Y-183253238D01*
X150812476Y-183348476D01*
X150717238Y-183396095D01*
X65579666Y-170648380D02*
X65579666Y-171362666D01*
X65532047Y-171505523D01*
X65436809Y-171600761D01*
X65293952Y-171648380D01*
X65198714Y-171648380D01*
X66008238Y-170743619D02*
X66055857Y-170696000D01*
X66151095Y-170648380D01*
X66389190Y-170648380D01*
X66484428Y-170696000D01*
X66532047Y-170743619D01*
X66579666Y-170838857D01*
X66579666Y-170934095D01*
X66532047Y-171076952D01*
X65960619Y-171648380D01*
X66579666Y-171648380D01*
X92710095Y-166076380D02*
X92710095Y-166885904D01*
X92757714Y-166981142D01*
X92805333Y-167028761D01*
X92900571Y-167076380D01*
X93091047Y-167076380D01*
X93186285Y-167028761D01*
X93233904Y-166981142D01*
X93281523Y-166885904D01*
X93281523Y-166076380D01*
X94186285Y-166409714D02*
X94186285Y-167076380D01*
X93948190Y-166028761D02*
X93710095Y-166743047D01*
X94329142Y-166743047D01*
X127635095Y-157313380D02*
X127635095Y-158122904D01*
X127682714Y-158218142D01*
X127730333Y-158265761D01*
X127825571Y-158313380D01*
X128016047Y-158313380D01*
X128111285Y-158265761D01*
X128158904Y-158218142D01*
X128206523Y-158122904D01*
X128206523Y-157313380D01*
X129111285Y-157313380D02*
X128920809Y-157313380D01*
X128825571Y-157361000D01*
X128777952Y-157408619D01*
X128682714Y-157551476D01*
X128635095Y-157741952D01*
X128635095Y-158122904D01*
X128682714Y-158218142D01*
X128730333Y-158265761D01*
X128825571Y-158313380D01*
X129016047Y-158313380D01*
X129111285Y-158265761D01*
X129158904Y-158218142D01*
X129206523Y-158122904D01*
X129206523Y-157884809D01*
X129158904Y-157789571D01*
X129111285Y-157741952D01*
X129016047Y-157694333D01*
X128825571Y-157694333D01*
X128730333Y-157741952D01*
X128682714Y-157789571D01*
X128635095Y-157884809D01*
X127254095Y-124674380D02*
X127254095Y-125483904D01*
X127301714Y-125579142D01*
X127349333Y-125626761D01*
X127444571Y-125674380D01*
X127635047Y-125674380D01*
X127730285Y-125626761D01*
X127777904Y-125579142D01*
X127825523Y-125483904D01*
X127825523Y-124674380D01*
X128777904Y-124674380D02*
X128301714Y-124674380D01*
X128254095Y-125150571D01*
X128301714Y-125102952D01*
X128396952Y-125055333D01*
X128635047Y-125055333D01*
X128730285Y-125102952D01*
X128777904Y-125150571D01*
X128825523Y-125245809D01*
X128825523Y-125483904D01*
X128777904Y-125579142D01*
X128730285Y-125626761D01*
X128635047Y-125674380D01*
X128396952Y-125674380D01*
X128301714Y-125626761D01*
X128254095Y-125579142D01*
X80645095Y-134072380D02*
X80645095Y-134881904D01*
X80692714Y-134977142D01*
X80740333Y-135024761D01*
X80835571Y-135072380D01*
X81026047Y-135072380D01*
X81121285Y-135024761D01*
X81168904Y-134977142D01*
X81216523Y-134881904D01*
X81216523Y-134072380D01*
X81597476Y-134072380D02*
X82216523Y-134072380D01*
X81883190Y-134453333D01*
X82026047Y-134453333D01*
X82121285Y-134500952D01*
X82168904Y-134548571D01*
X82216523Y-134643809D01*
X82216523Y-134881904D01*
X82168904Y-134977142D01*
X82121285Y-135024761D01*
X82026047Y-135072380D01*
X81740333Y-135072380D01*
X81645095Y-135024761D01*
X81597476Y-134977142D01*
X128397095Y-144486380D02*
X128397095Y-145295904D01*
X128444714Y-145391142D01*
X128492333Y-145438761D01*
X128587571Y-145486380D01*
X128778047Y-145486380D01*
X128873285Y-145438761D01*
X128920904Y-145391142D01*
X128968523Y-145295904D01*
X128968523Y-144486380D01*
X129349476Y-144486380D02*
X130016142Y-144486380D01*
X129587571Y-145486380D01*
X128397095Y-135596380D02*
X128397095Y-136405904D01*
X128444714Y-136501142D01*
X128492333Y-136548761D01*
X128587571Y-136596380D01*
X128778047Y-136596380D01*
X128873285Y-136548761D01*
X128920904Y-136501142D01*
X128968523Y-136405904D01*
X128968523Y-135596380D01*
X129397095Y-135691619D02*
X129444714Y-135644000D01*
X129539952Y-135596380D01*
X129778047Y-135596380D01*
X129873285Y-135644000D01*
X129920904Y-135691619D01*
X129968523Y-135786857D01*
X129968523Y-135882095D01*
X129920904Y-136024952D01*
X129349476Y-136596380D01*
X129968523Y-136596380D01*
X113538095Y-127341380D02*
X113538095Y-128150904D01*
X113585714Y-128246142D01*
X113633333Y-128293761D01*
X113728571Y-128341380D01*
X113919047Y-128341380D01*
X114014285Y-128293761D01*
X114061904Y-128246142D01*
X114109523Y-128150904D01*
X114109523Y-127341380D01*
X115109523Y-128341380D02*
X114538095Y-128341380D01*
X114823809Y-128341380D02*
X114823809Y-127341380D01*
X114728571Y-127484238D01*
X114633333Y-127579476D01*
X114538095Y-127627095D01*
X60031333Y-114879380D02*
X59698000Y-114403190D01*
X59459904Y-114879380D02*
X59459904Y-113879380D01*
X59840857Y-113879380D01*
X59936095Y-113927000D01*
X59983714Y-113974619D01*
X60031333Y-114069857D01*
X60031333Y-114212714D01*
X59983714Y-114307952D01*
X59936095Y-114355571D01*
X59840857Y-114403190D01*
X59459904Y-114403190D01*
X60983714Y-114879380D02*
X60412285Y-114879380D01*
X60698000Y-114879380D02*
X60698000Y-113879380D01*
X60602761Y-114022238D01*
X60507523Y-114117476D01*
X60412285Y-114165095D01*
X140255666Y-175347380D02*
X140255666Y-176061666D01*
X140208047Y-176204523D01*
X140112809Y-176299761D01*
X139969952Y-176347380D01*
X139874714Y-176347380D01*
X141160428Y-175680714D02*
X141160428Y-176347380D01*
X140922333Y-175299761D02*
X140684238Y-176014047D01*
X141303285Y-176014047D01*
X140128666Y-142454380D02*
X140128666Y-143168666D01*
X140081047Y-143311523D01*
X139985809Y-143406761D01*
X139842952Y-143454380D01*
X139747714Y-143454380D01*
X140509619Y-142454380D02*
X141128666Y-142454380D01*
X140795333Y-142835333D01*
X140938190Y-142835333D01*
X141033428Y-142882952D01*
X141081047Y-142930571D01*
X141128666Y-143025809D01*
X141128666Y-143263904D01*
X141081047Y-143359142D01*
X141033428Y-143406761D01*
X140938190Y-143454380D01*
X140652476Y-143454380D01*
X140557238Y-143406761D01*
X140509619Y-143359142D01*
X59459904Y-118181380D02*
X59459904Y-117181380D01*
X59698000Y-117181380D01*
X59840857Y-117229000D01*
X59936095Y-117324238D01*
X59983714Y-117419476D01*
X60031333Y-117609952D01*
X60031333Y-117752809D01*
X59983714Y-117943285D01*
X59936095Y-118038523D01*
X59840857Y-118133761D01*
X59698000Y-118181380D01*
X59459904Y-118181380D01*
X60983714Y-118181380D02*
X60412285Y-118181380D01*
X60698000Y-118181380D02*
X60698000Y-117181380D01*
X60602761Y-117324238D01*
X60507523Y-117419476D01*
X60412285Y-117467095D01*
M02*
