G04 #@! TF.GenerationSoftware,KiCad,Pcbnew,5.1.5+dfsg1-2build2*
G04 #@! TF.CreationDate,2021-07-30T22:42:47+01:00*
G04 #@! TF.ProjectId,Printer+Sticks,5072696e-7465-4722-9b53-7469636b732e,rev?*
G04 #@! TF.SameCoordinates,Original*
G04 #@! TF.FileFunction,Soldermask,Top*
G04 #@! TF.FilePolarity,Negative*
%FSLAX46Y46*%
G04 Gerber Fmt 4.6, Leading zero omitted, Abs format (unit mm)*
G04 Created by KiCad (PCBNEW 5.1.5+dfsg1-2build2) date 2021-07-30 22:42:47*
%MOMM*%
%LPD*%
G04 APERTURE LIST*
%ADD10C,0.050000*%
%ADD11C,0.100000*%
G04 APERTURE END LIST*
D10*
X155448000Y-109982000D02*
X155448000Y-189992000D01*
X56896000Y-109982000D02*
X155448000Y-109982000D01*
X56896000Y-189992000D02*
X56896000Y-109982000D01*
X155448000Y-189992000D02*
X56896000Y-189992000D01*
D11*
G36*
X151052532Y-185778721D02*
G01*
X151321147Y-185889985D01*
X151562895Y-186051516D01*
X151768484Y-186257105D01*
X151930015Y-186498853D01*
X152041279Y-186767468D01*
X152098000Y-187052625D01*
X152098000Y-187343375D01*
X152041279Y-187628532D01*
X151930015Y-187897147D01*
X151768484Y-188138895D01*
X151562895Y-188344484D01*
X151321147Y-188506015D01*
X151052532Y-188617279D01*
X150767375Y-188674000D01*
X150476625Y-188674000D01*
X150191468Y-188617279D01*
X149922853Y-188506015D01*
X149681105Y-188344484D01*
X149475516Y-188138895D01*
X149313985Y-187897147D01*
X149202721Y-187628532D01*
X149146000Y-187343375D01*
X149146000Y-187052625D01*
X149202721Y-186767468D01*
X149313985Y-186498853D01*
X149475516Y-186257105D01*
X149681105Y-186051516D01*
X149922853Y-185889985D01*
X150191468Y-185778721D01*
X150476625Y-185722000D01*
X150767375Y-185722000D01*
X151052532Y-185778721D01*
G37*
G36*
X62152532Y-185778721D02*
G01*
X62421147Y-185889985D01*
X62662895Y-186051516D01*
X62868484Y-186257105D01*
X63030015Y-186498853D01*
X63141279Y-186767468D01*
X63198000Y-187052625D01*
X63198000Y-187343375D01*
X63141279Y-187628532D01*
X63030015Y-187897147D01*
X62868484Y-188138895D01*
X62662895Y-188344484D01*
X62421147Y-188506015D01*
X62152532Y-188617279D01*
X61867375Y-188674000D01*
X61576625Y-188674000D01*
X61291468Y-188617279D01*
X61022853Y-188506015D01*
X60781105Y-188344484D01*
X60575516Y-188138895D01*
X60413985Y-187897147D01*
X60302721Y-187628532D01*
X60246000Y-187343375D01*
X60246000Y-187052625D01*
X60302721Y-186767468D01*
X60413985Y-186498853D01*
X60575516Y-186257105D01*
X60781105Y-186051516D01*
X61022853Y-185889985D01*
X61291468Y-185778721D01*
X61576625Y-185722000D01*
X61867375Y-185722000D01*
X62152532Y-185778721D01*
G37*
G36*
X79742935Y-183863742D02*
G01*
X79893258Y-183926008D01*
X80028545Y-184016404D01*
X80143596Y-184131455D01*
X80233992Y-184266742D01*
X80296258Y-184417065D01*
X80328000Y-184576646D01*
X80328000Y-184739354D01*
X80296258Y-184898935D01*
X80233992Y-185049258D01*
X80143596Y-185184545D01*
X80028545Y-185299596D01*
X79893258Y-185389992D01*
X79742935Y-185452258D01*
X79583354Y-185484000D01*
X79420646Y-185484000D01*
X79261065Y-185452258D01*
X79110742Y-185389992D01*
X78975455Y-185299596D01*
X78860404Y-185184545D01*
X78770008Y-185049258D01*
X78707742Y-184898935D01*
X78676000Y-184739354D01*
X78676000Y-184576646D01*
X78707742Y-184417065D01*
X78770008Y-184266742D01*
X78860404Y-184131455D01*
X78975455Y-184016404D01*
X79110742Y-183926008D01*
X79261065Y-183863742D01*
X79420646Y-183832000D01*
X79583354Y-183832000D01*
X79742935Y-183863742D01*
G37*
G36*
X100062935Y-183863742D02*
G01*
X100213258Y-183926008D01*
X100348545Y-184016404D01*
X100463596Y-184131455D01*
X100553992Y-184266742D01*
X100616258Y-184417065D01*
X100648000Y-184576646D01*
X100648000Y-184739354D01*
X100616258Y-184898935D01*
X100553992Y-185049258D01*
X100463596Y-185184545D01*
X100348545Y-185299596D01*
X100213258Y-185389992D01*
X100062935Y-185452258D01*
X99903354Y-185484000D01*
X99740646Y-185484000D01*
X99581065Y-185452258D01*
X99430742Y-185389992D01*
X99295455Y-185299596D01*
X99180404Y-185184545D01*
X99090008Y-185049258D01*
X99027742Y-184898935D01*
X98996000Y-184739354D01*
X98996000Y-184576646D01*
X99027742Y-184417065D01*
X99090008Y-184266742D01*
X99180404Y-184131455D01*
X99295455Y-184016404D01*
X99430742Y-183926008D01*
X99581065Y-183863742D01*
X99740646Y-183832000D01*
X99903354Y-183832000D01*
X100062935Y-183863742D01*
G37*
G36*
X97522935Y-183863742D02*
G01*
X97673258Y-183926008D01*
X97808545Y-184016404D01*
X97923596Y-184131455D01*
X98013992Y-184266742D01*
X98076258Y-184417065D01*
X98108000Y-184576646D01*
X98108000Y-184739354D01*
X98076258Y-184898935D01*
X98013992Y-185049258D01*
X97923596Y-185184545D01*
X97808545Y-185299596D01*
X97673258Y-185389992D01*
X97522935Y-185452258D01*
X97363354Y-185484000D01*
X97200646Y-185484000D01*
X97041065Y-185452258D01*
X96890742Y-185389992D01*
X96755455Y-185299596D01*
X96640404Y-185184545D01*
X96550008Y-185049258D01*
X96487742Y-184898935D01*
X96456000Y-184739354D01*
X96456000Y-184576646D01*
X96487742Y-184417065D01*
X96550008Y-184266742D01*
X96640404Y-184131455D01*
X96755455Y-184016404D01*
X96890742Y-183926008D01*
X97041065Y-183863742D01*
X97200646Y-183832000D01*
X97363354Y-183832000D01*
X97522935Y-183863742D01*
G37*
G36*
X94982935Y-183863742D02*
G01*
X95133258Y-183926008D01*
X95268545Y-184016404D01*
X95383596Y-184131455D01*
X95473992Y-184266742D01*
X95536258Y-184417065D01*
X95568000Y-184576646D01*
X95568000Y-184739354D01*
X95536258Y-184898935D01*
X95473992Y-185049258D01*
X95383596Y-185184545D01*
X95268545Y-185299596D01*
X95133258Y-185389992D01*
X94982935Y-185452258D01*
X94823354Y-185484000D01*
X94660646Y-185484000D01*
X94501065Y-185452258D01*
X94350742Y-185389992D01*
X94215455Y-185299596D01*
X94100404Y-185184545D01*
X94010008Y-185049258D01*
X93947742Y-184898935D01*
X93916000Y-184739354D01*
X93916000Y-184576646D01*
X93947742Y-184417065D01*
X94010008Y-184266742D01*
X94100404Y-184131455D01*
X94215455Y-184016404D01*
X94350742Y-183926008D01*
X94501065Y-183863742D01*
X94660646Y-183832000D01*
X94823354Y-183832000D01*
X94982935Y-183863742D01*
G37*
G36*
X92442935Y-183863742D02*
G01*
X92593258Y-183926008D01*
X92728545Y-184016404D01*
X92843596Y-184131455D01*
X92933992Y-184266742D01*
X92996258Y-184417065D01*
X93028000Y-184576646D01*
X93028000Y-184739354D01*
X92996258Y-184898935D01*
X92933992Y-185049258D01*
X92843596Y-185184545D01*
X92728545Y-185299596D01*
X92593258Y-185389992D01*
X92442935Y-185452258D01*
X92283354Y-185484000D01*
X92120646Y-185484000D01*
X91961065Y-185452258D01*
X91810742Y-185389992D01*
X91675455Y-185299596D01*
X91560404Y-185184545D01*
X91470008Y-185049258D01*
X91407742Y-184898935D01*
X91376000Y-184739354D01*
X91376000Y-184576646D01*
X91407742Y-184417065D01*
X91470008Y-184266742D01*
X91560404Y-184131455D01*
X91675455Y-184016404D01*
X91810742Y-183926008D01*
X91961065Y-183863742D01*
X92120646Y-183832000D01*
X92283354Y-183832000D01*
X92442935Y-183863742D01*
G37*
G36*
X89902935Y-183863742D02*
G01*
X90053258Y-183926008D01*
X90188545Y-184016404D01*
X90303596Y-184131455D01*
X90393992Y-184266742D01*
X90456258Y-184417065D01*
X90488000Y-184576646D01*
X90488000Y-184739354D01*
X90456258Y-184898935D01*
X90393992Y-185049258D01*
X90303596Y-185184545D01*
X90188545Y-185299596D01*
X90053258Y-185389992D01*
X89902935Y-185452258D01*
X89743354Y-185484000D01*
X89580646Y-185484000D01*
X89421065Y-185452258D01*
X89270742Y-185389992D01*
X89135455Y-185299596D01*
X89020404Y-185184545D01*
X88930008Y-185049258D01*
X88867742Y-184898935D01*
X88836000Y-184739354D01*
X88836000Y-184576646D01*
X88867742Y-184417065D01*
X88930008Y-184266742D01*
X89020404Y-184131455D01*
X89135455Y-184016404D01*
X89270742Y-183926008D01*
X89421065Y-183863742D01*
X89580646Y-183832000D01*
X89743354Y-183832000D01*
X89902935Y-183863742D01*
G37*
G36*
X87362935Y-183863742D02*
G01*
X87513258Y-183926008D01*
X87648545Y-184016404D01*
X87763596Y-184131455D01*
X87853992Y-184266742D01*
X87916258Y-184417065D01*
X87948000Y-184576646D01*
X87948000Y-184739354D01*
X87916258Y-184898935D01*
X87853992Y-185049258D01*
X87763596Y-185184545D01*
X87648545Y-185299596D01*
X87513258Y-185389992D01*
X87362935Y-185452258D01*
X87203354Y-185484000D01*
X87040646Y-185484000D01*
X86881065Y-185452258D01*
X86730742Y-185389992D01*
X86595455Y-185299596D01*
X86480404Y-185184545D01*
X86390008Y-185049258D01*
X86327742Y-184898935D01*
X86296000Y-184739354D01*
X86296000Y-184576646D01*
X86327742Y-184417065D01*
X86390008Y-184266742D01*
X86480404Y-184131455D01*
X86595455Y-184016404D01*
X86730742Y-183926008D01*
X86881065Y-183863742D01*
X87040646Y-183832000D01*
X87203354Y-183832000D01*
X87362935Y-183863742D01*
G37*
G36*
X84822935Y-183863742D02*
G01*
X84973258Y-183926008D01*
X85108545Y-184016404D01*
X85223596Y-184131455D01*
X85313992Y-184266742D01*
X85376258Y-184417065D01*
X85408000Y-184576646D01*
X85408000Y-184739354D01*
X85376258Y-184898935D01*
X85313992Y-185049258D01*
X85223596Y-185184545D01*
X85108545Y-185299596D01*
X84973258Y-185389992D01*
X84822935Y-185452258D01*
X84663354Y-185484000D01*
X84500646Y-185484000D01*
X84341065Y-185452258D01*
X84190742Y-185389992D01*
X84055455Y-185299596D01*
X83940404Y-185184545D01*
X83850008Y-185049258D01*
X83787742Y-184898935D01*
X83756000Y-184739354D01*
X83756000Y-184576646D01*
X83787742Y-184417065D01*
X83850008Y-184266742D01*
X83940404Y-184131455D01*
X84055455Y-184016404D01*
X84190742Y-183926008D01*
X84341065Y-183863742D01*
X84500646Y-183832000D01*
X84663354Y-183832000D01*
X84822935Y-183863742D01*
G37*
G36*
X82282935Y-183863742D02*
G01*
X82433258Y-183926008D01*
X82568545Y-184016404D01*
X82683596Y-184131455D01*
X82773992Y-184266742D01*
X82836258Y-184417065D01*
X82868000Y-184576646D01*
X82868000Y-184739354D01*
X82836258Y-184898935D01*
X82773992Y-185049258D01*
X82683596Y-185184545D01*
X82568545Y-185299596D01*
X82433258Y-185389992D01*
X82282935Y-185452258D01*
X82123354Y-185484000D01*
X81960646Y-185484000D01*
X81801065Y-185452258D01*
X81650742Y-185389992D01*
X81515455Y-185299596D01*
X81400404Y-185184545D01*
X81310008Y-185049258D01*
X81247742Y-184898935D01*
X81216000Y-184739354D01*
X81216000Y-184576646D01*
X81247742Y-184417065D01*
X81310008Y-184266742D01*
X81400404Y-184131455D01*
X81515455Y-184016404D01*
X81650742Y-183926008D01*
X81801065Y-183863742D01*
X81960646Y-183832000D01*
X82123354Y-183832000D01*
X82282935Y-183863742D01*
G37*
G36*
X143242935Y-183863742D02*
G01*
X143393258Y-183926008D01*
X143528545Y-184016404D01*
X143643596Y-184131455D01*
X143733992Y-184266742D01*
X143796258Y-184417065D01*
X143828000Y-184576646D01*
X143828000Y-184739354D01*
X143796258Y-184898935D01*
X143733992Y-185049258D01*
X143643596Y-185184545D01*
X143528545Y-185299596D01*
X143393258Y-185389992D01*
X143242935Y-185452258D01*
X143083354Y-185484000D01*
X142920646Y-185484000D01*
X142761065Y-185452258D01*
X142610742Y-185389992D01*
X142475455Y-185299596D01*
X142360404Y-185184545D01*
X142270008Y-185049258D01*
X142207742Y-184898935D01*
X142176000Y-184739354D01*
X142176000Y-184576646D01*
X142207742Y-184417065D01*
X142270008Y-184266742D01*
X142360404Y-184131455D01*
X142475455Y-184016404D01*
X142610742Y-183926008D01*
X142761065Y-183863742D01*
X142920646Y-183832000D01*
X143083354Y-183832000D01*
X143242935Y-183863742D01*
G37*
G36*
X77202935Y-183863742D02*
G01*
X77353258Y-183926008D01*
X77488545Y-184016404D01*
X77603596Y-184131455D01*
X77693992Y-184266742D01*
X77756258Y-184417065D01*
X77788000Y-184576646D01*
X77788000Y-184739354D01*
X77756258Y-184898935D01*
X77693992Y-185049258D01*
X77603596Y-185184545D01*
X77488545Y-185299596D01*
X77353258Y-185389992D01*
X77202935Y-185452258D01*
X77043354Y-185484000D01*
X76880646Y-185484000D01*
X76721065Y-185452258D01*
X76570742Y-185389992D01*
X76435455Y-185299596D01*
X76320404Y-185184545D01*
X76230008Y-185049258D01*
X76167742Y-184898935D01*
X76136000Y-184739354D01*
X76136000Y-184576646D01*
X76167742Y-184417065D01*
X76230008Y-184266742D01*
X76320404Y-184131455D01*
X76435455Y-184016404D01*
X76570742Y-183926008D01*
X76721065Y-183863742D01*
X76880646Y-183832000D01*
X77043354Y-183832000D01*
X77202935Y-183863742D01*
G37*
G36*
X74662935Y-183863742D02*
G01*
X74813258Y-183926008D01*
X74948545Y-184016404D01*
X75063596Y-184131455D01*
X75153992Y-184266742D01*
X75216258Y-184417065D01*
X75248000Y-184576646D01*
X75248000Y-184739354D01*
X75216258Y-184898935D01*
X75153992Y-185049258D01*
X75063596Y-185184545D01*
X74948545Y-185299596D01*
X74813258Y-185389992D01*
X74662935Y-185452258D01*
X74503354Y-185484000D01*
X74340646Y-185484000D01*
X74181065Y-185452258D01*
X74030742Y-185389992D01*
X73895455Y-185299596D01*
X73780404Y-185184545D01*
X73690008Y-185049258D01*
X73627742Y-184898935D01*
X73596000Y-184739354D01*
X73596000Y-184576646D01*
X73627742Y-184417065D01*
X73690008Y-184266742D01*
X73780404Y-184131455D01*
X73895455Y-184016404D01*
X74030742Y-183926008D01*
X74181065Y-183863742D01*
X74340646Y-183832000D01*
X74503354Y-183832000D01*
X74662935Y-183863742D01*
G37*
G36*
X72122935Y-183863742D02*
G01*
X72273258Y-183926008D01*
X72408545Y-184016404D01*
X72523596Y-184131455D01*
X72613992Y-184266742D01*
X72676258Y-184417065D01*
X72708000Y-184576646D01*
X72708000Y-184739354D01*
X72676258Y-184898935D01*
X72613992Y-185049258D01*
X72523596Y-185184545D01*
X72408545Y-185299596D01*
X72273258Y-185389992D01*
X72122935Y-185452258D01*
X71963354Y-185484000D01*
X71800646Y-185484000D01*
X71641065Y-185452258D01*
X71490742Y-185389992D01*
X71355455Y-185299596D01*
X71240404Y-185184545D01*
X71150008Y-185049258D01*
X71087742Y-184898935D01*
X71056000Y-184739354D01*
X71056000Y-184576646D01*
X71087742Y-184417065D01*
X71150008Y-184266742D01*
X71240404Y-184131455D01*
X71355455Y-184016404D01*
X71490742Y-183926008D01*
X71641065Y-183863742D01*
X71800646Y-183832000D01*
X71963354Y-183832000D01*
X72122935Y-183863742D01*
G37*
G36*
X69582935Y-183863742D02*
G01*
X69733258Y-183926008D01*
X69868545Y-184016404D01*
X69983596Y-184131455D01*
X70073992Y-184266742D01*
X70136258Y-184417065D01*
X70168000Y-184576646D01*
X70168000Y-184739354D01*
X70136258Y-184898935D01*
X70073992Y-185049258D01*
X69983596Y-185184545D01*
X69868545Y-185299596D01*
X69733258Y-185389992D01*
X69582935Y-185452258D01*
X69423354Y-185484000D01*
X69260646Y-185484000D01*
X69101065Y-185452258D01*
X68950742Y-185389992D01*
X68815455Y-185299596D01*
X68700404Y-185184545D01*
X68610008Y-185049258D01*
X68547742Y-184898935D01*
X68516000Y-184739354D01*
X68516000Y-184576646D01*
X68547742Y-184417065D01*
X68610008Y-184266742D01*
X68700404Y-184131455D01*
X68815455Y-184016404D01*
X68950742Y-183926008D01*
X69101065Y-183863742D01*
X69260646Y-183832000D01*
X69423354Y-183832000D01*
X69582935Y-183863742D01*
G37*
G36*
X67042935Y-183863742D02*
G01*
X67193258Y-183926008D01*
X67328545Y-184016404D01*
X67443596Y-184131455D01*
X67533992Y-184266742D01*
X67596258Y-184417065D01*
X67628000Y-184576646D01*
X67628000Y-184739354D01*
X67596258Y-184898935D01*
X67533992Y-185049258D01*
X67443596Y-185184545D01*
X67328545Y-185299596D01*
X67193258Y-185389992D01*
X67042935Y-185452258D01*
X66883354Y-185484000D01*
X66720646Y-185484000D01*
X66561065Y-185452258D01*
X66410742Y-185389992D01*
X66275455Y-185299596D01*
X66160404Y-185184545D01*
X66070008Y-185049258D01*
X66007742Y-184898935D01*
X65976000Y-184739354D01*
X65976000Y-184576646D01*
X66007742Y-184417065D01*
X66070008Y-184266742D01*
X66160404Y-184131455D01*
X66275455Y-184016404D01*
X66410742Y-183926008D01*
X66561065Y-183863742D01*
X66720646Y-183832000D01*
X66883354Y-183832000D01*
X67042935Y-183863742D01*
G37*
G36*
X146221568Y-183836086D02*
G01*
X146255560Y-183846397D01*
X146286877Y-183863137D01*
X146314332Y-183885668D01*
X146336863Y-183913123D01*
X146353603Y-183944440D01*
X146363914Y-183978432D01*
X146368000Y-184019915D01*
X146368000Y-185296085D01*
X146363914Y-185337568D01*
X146353603Y-185371560D01*
X146336863Y-185402877D01*
X146314332Y-185430332D01*
X146286877Y-185452863D01*
X146255560Y-185469603D01*
X146221568Y-185479914D01*
X146180085Y-185484000D01*
X144903915Y-185484000D01*
X144862432Y-185479914D01*
X144828440Y-185469603D01*
X144797123Y-185452863D01*
X144769668Y-185430332D01*
X144747137Y-185402877D01*
X144730397Y-185371560D01*
X144720086Y-185337568D01*
X144716000Y-185296085D01*
X144716000Y-184019915D01*
X144720086Y-183978432D01*
X144730397Y-183944440D01*
X144747137Y-183913123D01*
X144769668Y-183885668D01*
X144797123Y-183863137D01*
X144828440Y-183846397D01*
X144862432Y-183836086D01*
X144903915Y-183832000D01*
X146180085Y-183832000D01*
X146221568Y-183836086D01*
G37*
G36*
X105142935Y-183863742D02*
G01*
X105293258Y-183926008D01*
X105428545Y-184016404D01*
X105543596Y-184131455D01*
X105633992Y-184266742D01*
X105696258Y-184417065D01*
X105728000Y-184576646D01*
X105728000Y-184739354D01*
X105696258Y-184898935D01*
X105633992Y-185049258D01*
X105543596Y-185184545D01*
X105428545Y-185299596D01*
X105293258Y-185389992D01*
X105142935Y-185452258D01*
X104983354Y-185484000D01*
X104820646Y-185484000D01*
X104661065Y-185452258D01*
X104510742Y-185389992D01*
X104375455Y-185299596D01*
X104260404Y-185184545D01*
X104170008Y-185049258D01*
X104107742Y-184898935D01*
X104076000Y-184739354D01*
X104076000Y-184576646D01*
X104107742Y-184417065D01*
X104170008Y-184266742D01*
X104260404Y-184131455D01*
X104375455Y-184016404D01*
X104510742Y-183926008D01*
X104661065Y-183863742D01*
X104820646Y-183832000D01*
X104983354Y-183832000D01*
X105142935Y-183863742D01*
G37*
G36*
X107682935Y-183863742D02*
G01*
X107833258Y-183926008D01*
X107968545Y-184016404D01*
X108083596Y-184131455D01*
X108173992Y-184266742D01*
X108236258Y-184417065D01*
X108268000Y-184576646D01*
X108268000Y-184739354D01*
X108236258Y-184898935D01*
X108173992Y-185049258D01*
X108083596Y-185184545D01*
X107968545Y-185299596D01*
X107833258Y-185389992D01*
X107682935Y-185452258D01*
X107523354Y-185484000D01*
X107360646Y-185484000D01*
X107201065Y-185452258D01*
X107050742Y-185389992D01*
X106915455Y-185299596D01*
X106800404Y-185184545D01*
X106710008Y-185049258D01*
X106647742Y-184898935D01*
X106616000Y-184739354D01*
X106616000Y-184576646D01*
X106647742Y-184417065D01*
X106710008Y-184266742D01*
X106800404Y-184131455D01*
X106915455Y-184016404D01*
X107050742Y-183926008D01*
X107201065Y-183863742D01*
X107360646Y-183832000D01*
X107523354Y-183832000D01*
X107682935Y-183863742D01*
G37*
G36*
X102602935Y-183863742D02*
G01*
X102753258Y-183926008D01*
X102888545Y-184016404D01*
X103003596Y-184131455D01*
X103093992Y-184266742D01*
X103156258Y-184417065D01*
X103188000Y-184576646D01*
X103188000Y-184739354D01*
X103156258Y-184898935D01*
X103093992Y-185049258D01*
X103003596Y-185184545D01*
X102888545Y-185299596D01*
X102753258Y-185389992D01*
X102602935Y-185452258D01*
X102443354Y-185484000D01*
X102280646Y-185484000D01*
X102121065Y-185452258D01*
X101970742Y-185389992D01*
X101835455Y-185299596D01*
X101720404Y-185184545D01*
X101630008Y-185049258D01*
X101567742Y-184898935D01*
X101536000Y-184739354D01*
X101536000Y-184576646D01*
X101567742Y-184417065D01*
X101630008Y-184266742D01*
X101720404Y-184131455D01*
X101835455Y-184016404D01*
X101970742Y-183926008D01*
X102121065Y-183863742D01*
X102280646Y-183832000D01*
X102443354Y-183832000D01*
X102602935Y-183863742D01*
G37*
G36*
X140702935Y-183863742D02*
G01*
X140853258Y-183926008D01*
X140988545Y-184016404D01*
X141103596Y-184131455D01*
X141193992Y-184266742D01*
X141256258Y-184417065D01*
X141288000Y-184576646D01*
X141288000Y-184739354D01*
X141256258Y-184898935D01*
X141193992Y-185049258D01*
X141103596Y-185184545D01*
X140988545Y-185299596D01*
X140853258Y-185389992D01*
X140702935Y-185452258D01*
X140543354Y-185484000D01*
X140380646Y-185484000D01*
X140221065Y-185452258D01*
X140070742Y-185389992D01*
X139935455Y-185299596D01*
X139820404Y-185184545D01*
X139730008Y-185049258D01*
X139667742Y-184898935D01*
X139636000Y-184739354D01*
X139636000Y-184576646D01*
X139667742Y-184417065D01*
X139730008Y-184266742D01*
X139820404Y-184131455D01*
X139935455Y-184016404D01*
X140070742Y-183926008D01*
X140221065Y-183863742D01*
X140380646Y-183832000D01*
X140543354Y-183832000D01*
X140702935Y-183863742D01*
G37*
G36*
X138162935Y-183863742D02*
G01*
X138313258Y-183926008D01*
X138448545Y-184016404D01*
X138563596Y-184131455D01*
X138653992Y-184266742D01*
X138716258Y-184417065D01*
X138748000Y-184576646D01*
X138748000Y-184739354D01*
X138716258Y-184898935D01*
X138653992Y-185049258D01*
X138563596Y-185184545D01*
X138448545Y-185299596D01*
X138313258Y-185389992D01*
X138162935Y-185452258D01*
X138003354Y-185484000D01*
X137840646Y-185484000D01*
X137681065Y-185452258D01*
X137530742Y-185389992D01*
X137395455Y-185299596D01*
X137280404Y-185184545D01*
X137190008Y-185049258D01*
X137127742Y-184898935D01*
X137096000Y-184739354D01*
X137096000Y-184576646D01*
X137127742Y-184417065D01*
X137190008Y-184266742D01*
X137280404Y-184131455D01*
X137395455Y-184016404D01*
X137530742Y-183926008D01*
X137681065Y-183863742D01*
X137840646Y-183832000D01*
X138003354Y-183832000D01*
X138162935Y-183863742D01*
G37*
G36*
X135622935Y-183863742D02*
G01*
X135773258Y-183926008D01*
X135908545Y-184016404D01*
X136023596Y-184131455D01*
X136113992Y-184266742D01*
X136176258Y-184417065D01*
X136208000Y-184576646D01*
X136208000Y-184739354D01*
X136176258Y-184898935D01*
X136113992Y-185049258D01*
X136023596Y-185184545D01*
X135908545Y-185299596D01*
X135773258Y-185389992D01*
X135622935Y-185452258D01*
X135463354Y-185484000D01*
X135300646Y-185484000D01*
X135141065Y-185452258D01*
X134990742Y-185389992D01*
X134855455Y-185299596D01*
X134740404Y-185184545D01*
X134650008Y-185049258D01*
X134587742Y-184898935D01*
X134556000Y-184739354D01*
X134556000Y-184576646D01*
X134587742Y-184417065D01*
X134650008Y-184266742D01*
X134740404Y-184131455D01*
X134855455Y-184016404D01*
X134990742Y-183926008D01*
X135141065Y-183863742D01*
X135300646Y-183832000D01*
X135463354Y-183832000D01*
X135622935Y-183863742D01*
G37*
G36*
X133082935Y-183863742D02*
G01*
X133233258Y-183926008D01*
X133368545Y-184016404D01*
X133483596Y-184131455D01*
X133573992Y-184266742D01*
X133636258Y-184417065D01*
X133668000Y-184576646D01*
X133668000Y-184739354D01*
X133636258Y-184898935D01*
X133573992Y-185049258D01*
X133483596Y-185184545D01*
X133368545Y-185299596D01*
X133233258Y-185389992D01*
X133082935Y-185452258D01*
X132923354Y-185484000D01*
X132760646Y-185484000D01*
X132601065Y-185452258D01*
X132450742Y-185389992D01*
X132315455Y-185299596D01*
X132200404Y-185184545D01*
X132110008Y-185049258D01*
X132047742Y-184898935D01*
X132016000Y-184739354D01*
X132016000Y-184576646D01*
X132047742Y-184417065D01*
X132110008Y-184266742D01*
X132200404Y-184131455D01*
X132315455Y-184016404D01*
X132450742Y-183926008D01*
X132601065Y-183863742D01*
X132760646Y-183832000D01*
X132923354Y-183832000D01*
X133082935Y-183863742D01*
G37*
G36*
X130542935Y-183863742D02*
G01*
X130693258Y-183926008D01*
X130828545Y-184016404D01*
X130943596Y-184131455D01*
X131033992Y-184266742D01*
X131096258Y-184417065D01*
X131128000Y-184576646D01*
X131128000Y-184739354D01*
X131096258Y-184898935D01*
X131033992Y-185049258D01*
X130943596Y-185184545D01*
X130828545Y-185299596D01*
X130693258Y-185389992D01*
X130542935Y-185452258D01*
X130383354Y-185484000D01*
X130220646Y-185484000D01*
X130061065Y-185452258D01*
X129910742Y-185389992D01*
X129775455Y-185299596D01*
X129660404Y-185184545D01*
X129570008Y-185049258D01*
X129507742Y-184898935D01*
X129476000Y-184739354D01*
X129476000Y-184576646D01*
X129507742Y-184417065D01*
X129570008Y-184266742D01*
X129660404Y-184131455D01*
X129775455Y-184016404D01*
X129910742Y-183926008D01*
X130061065Y-183863742D01*
X130220646Y-183832000D01*
X130383354Y-183832000D01*
X130542935Y-183863742D01*
G37*
G36*
X128002935Y-183863742D02*
G01*
X128153258Y-183926008D01*
X128288545Y-184016404D01*
X128403596Y-184131455D01*
X128493992Y-184266742D01*
X128556258Y-184417065D01*
X128588000Y-184576646D01*
X128588000Y-184739354D01*
X128556258Y-184898935D01*
X128493992Y-185049258D01*
X128403596Y-185184545D01*
X128288545Y-185299596D01*
X128153258Y-185389992D01*
X128002935Y-185452258D01*
X127843354Y-185484000D01*
X127680646Y-185484000D01*
X127521065Y-185452258D01*
X127370742Y-185389992D01*
X127235455Y-185299596D01*
X127120404Y-185184545D01*
X127030008Y-185049258D01*
X126967742Y-184898935D01*
X126936000Y-184739354D01*
X126936000Y-184576646D01*
X126967742Y-184417065D01*
X127030008Y-184266742D01*
X127120404Y-184131455D01*
X127235455Y-184016404D01*
X127370742Y-183926008D01*
X127521065Y-183863742D01*
X127680646Y-183832000D01*
X127843354Y-183832000D01*
X128002935Y-183863742D01*
G37*
G36*
X125462935Y-183863742D02*
G01*
X125613258Y-183926008D01*
X125748545Y-184016404D01*
X125863596Y-184131455D01*
X125953992Y-184266742D01*
X126016258Y-184417065D01*
X126048000Y-184576646D01*
X126048000Y-184739354D01*
X126016258Y-184898935D01*
X125953992Y-185049258D01*
X125863596Y-185184545D01*
X125748545Y-185299596D01*
X125613258Y-185389992D01*
X125462935Y-185452258D01*
X125303354Y-185484000D01*
X125140646Y-185484000D01*
X124981065Y-185452258D01*
X124830742Y-185389992D01*
X124695455Y-185299596D01*
X124580404Y-185184545D01*
X124490008Y-185049258D01*
X124427742Y-184898935D01*
X124396000Y-184739354D01*
X124396000Y-184576646D01*
X124427742Y-184417065D01*
X124490008Y-184266742D01*
X124580404Y-184131455D01*
X124695455Y-184016404D01*
X124830742Y-183926008D01*
X124981065Y-183863742D01*
X125140646Y-183832000D01*
X125303354Y-183832000D01*
X125462935Y-183863742D01*
G37*
G36*
X122922935Y-183863742D02*
G01*
X123073258Y-183926008D01*
X123208545Y-184016404D01*
X123323596Y-184131455D01*
X123413992Y-184266742D01*
X123476258Y-184417065D01*
X123508000Y-184576646D01*
X123508000Y-184739354D01*
X123476258Y-184898935D01*
X123413992Y-185049258D01*
X123323596Y-185184545D01*
X123208545Y-185299596D01*
X123073258Y-185389992D01*
X122922935Y-185452258D01*
X122763354Y-185484000D01*
X122600646Y-185484000D01*
X122441065Y-185452258D01*
X122290742Y-185389992D01*
X122155455Y-185299596D01*
X122040404Y-185184545D01*
X121950008Y-185049258D01*
X121887742Y-184898935D01*
X121856000Y-184739354D01*
X121856000Y-184576646D01*
X121887742Y-184417065D01*
X121950008Y-184266742D01*
X122040404Y-184131455D01*
X122155455Y-184016404D01*
X122290742Y-183926008D01*
X122441065Y-183863742D01*
X122600646Y-183832000D01*
X122763354Y-183832000D01*
X122922935Y-183863742D01*
G37*
G36*
X120382935Y-183863742D02*
G01*
X120533258Y-183926008D01*
X120668545Y-184016404D01*
X120783596Y-184131455D01*
X120873992Y-184266742D01*
X120936258Y-184417065D01*
X120968000Y-184576646D01*
X120968000Y-184739354D01*
X120936258Y-184898935D01*
X120873992Y-185049258D01*
X120783596Y-185184545D01*
X120668545Y-185299596D01*
X120533258Y-185389992D01*
X120382935Y-185452258D01*
X120223354Y-185484000D01*
X120060646Y-185484000D01*
X119901065Y-185452258D01*
X119750742Y-185389992D01*
X119615455Y-185299596D01*
X119500404Y-185184545D01*
X119410008Y-185049258D01*
X119347742Y-184898935D01*
X119316000Y-184739354D01*
X119316000Y-184576646D01*
X119347742Y-184417065D01*
X119410008Y-184266742D01*
X119500404Y-184131455D01*
X119615455Y-184016404D01*
X119750742Y-183926008D01*
X119901065Y-183863742D01*
X120060646Y-183832000D01*
X120223354Y-183832000D01*
X120382935Y-183863742D01*
G37*
G36*
X117842935Y-183863742D02*
G01*
X117993258Y-183926008D01*
X118128545Y-184016404D01*
X118243596Y-184131455D01*
X118333992Y-184266742D01*
X118396258Y-184417065D01*
X118428000Y-184576646D01*
X118428000Y-184739354D01*
X118396258Y-184898935D01*
X118333992Y-185049258D01*
X118243596Y-185184545D01*
X118128545Y-185299596D01*
X117993258Y-185389992D01*
X117842935Y-185452258D01*
X117683354Y-185484000D01*
X117520646Y-185484000D01*
X117361065Y-185452258D01*
X117210742Y-185389992D01*
X117075455Y-185299596D01*
X116960404Y-185184545D01*
X116870008Y-185049258D01*
X116807742Y-184898935D01*
X116776000Y-184739354D01*
X116776000Y-184576646D01*
X116807742Y-184417065D01*
X116870008Y-184266742D01*
X116960404Y-184131455D01*
X117075455Y-184016404D01*
X117210742Y-183926008D01*
X117361065Y-183863742D01*
X117520646Y-183832000D01*
X117683354Y-183832000D01*
X117842935Y-183863742D01*
G37*
G36*
X115302935Y-183863742D02*
G01*
X115453258Y-183926008D01*
X115588545Y-184016404D01*
X115703596Y-184131455D01*
X115793992Y-184266742D01*
X115856258Y-184417065D01*
X115888000Y-184576646D01*
X115888000Y-184739354D01*
X115856258Y-184898935D01*
X115793992Y-185049258D01*
X115703596Y-185184545D01*
X115588545Y-185299596D01*
X115453258Y-185389992D01*
X115302935Y-185452258D01*
X115143354Y-185484000D01*
X114980646Y-185484000D01*
X114821065Y-185452258D01*
X114670742Y-185389992D01*
X114535455Y-185299596D01*
X114420404Y-185184545D01*
X114330008Y-185049258D01*
X114267742Y-184898935D01*
X114236000Y-184739354D01*
X114236000Y-184576646D01*
X114267742Y-184417065D01*
X114330008Y-184266742D01*
X114420404Y-184131455D01*
X114535455Y-184016404D01*
X114670742Y-183926008D01*
X114821065Y-183863742D01*
X114980646Y-183832000D01*
X115143354Y-183832000D01*
X115302935Y-183863742D01*
G37*
G36*
X112762935Y-183863742D02*
G01*
X112913258Y-183926008D01*
X113048545Y-184016404D01*
X113163596Y-184131455D01*
X113253992Y-184266742D01*
X113316258Y-184417065D01*
X113348000Y-184576646D01*
X113348000Y-184739354D01*
X113316258Y-184898935D01*
X113253992Y-185049258D01*
X113163596Y-185184545D01*
X113048545Y-185299596D01*
X112913258Y-185389992D01*
X112762935Y-185452258D01*
X112603354Y-185484000D01*
X112440646Y-185484000D01*
X112281065Y-185452258D01*
X112130742Y-185389992D01*
X111995455Y-185299596D01*
X111880404Y-185184545D01*
X111790008Y-185049258D01*
X111727742Y-184898935D01*
X111696000Y-184739354D01*
X111696000Y-184576646D01*
X111727742Y-184417065D01*
X111790008Y-184266742D01*
X111880404Y-184131455D01*
X111995455Y-184016404D01*
X112130742Y-183926008D01*
X112281065Y-183863742D01*
X112440646Y-183832000D01*
X112603354Y-183832000D01*
X112762935Y-183863742D01*
G37*
G36*
X110222935Y-183863742D02*
G01*
X110373258Y-183926008D01*
X110508545Y-184016404D01*
X110623596Y-184131455D01*
X110713992Y-184266742D01*
X110776258Y-184417065D01*
X110808000Y-184576646D01*
X110808000Y-184739354D01*
X110776258Y-184898935D01*
X110713992Y-185049258D01*
X110623596Y-185184545D01*
X110508545Y-185299596D01*
X110373258Y-185389992D01*
X110222935Y-185452258D01*
X110063354Y-185484000D01*
X109900646Y-185484000D01*
X109741065Y-185452258D01*
X109590742Y-185389992D01*
X109455455Y-185299596D01*
X109340404Y-185184545D01*
X109250008Y-185049258D01*
X109187742Y-184898935D01*
X109156000Y-184739354D01*
X109156000Y-184576646D01*
X109187742Y-184417065D01*
X109250008Y-184266742D01*
X109340404Y-184131455D01*
X109455455Y-184016404D01*
X109590742Y-183926008D01*
X109741065Y-183863742D01*
X109900646Y-183832000D01*
X110063354Y-183832000D01*
X110222935Y-183863742D01*
G37*
G36*
X110222935Y-178783742D02*
G01*
X110373258Y-178846008D01*
X110508545Y-178936404D01*
X110623596Y-179051455D01*
X110713992Y-179186742D01*
X110776258Y-179337065D01*
X110808000Y-179496646D01*
X110808000Y-179659354D01*
X110776258Y-179818935D01*
X110713992Y-179969258D01*
X110623596Y-180104545D01*
X110508545Y-180219596D01*
X110373258Y-180309992D01*
X110222935Y-180372258D01*
X110063354Y-180404000D01*
X109900646Y-180404000D01*
X109741065Y-180372258D01*
X109590742Y-180309992D01*
X109455455Y-180219596D01*
X109340404Y-180104545D01*
X109250008Y-179969258D01*
X109187742Y-179818935D01*
X109156000Y-179659354D01*
X109156000Y-179496646D01*
X109187742Y-179337065D01*
X109250008Y-179186742D01*
X109340404Y-179051455D01*
X109455455Y-178936404D01*
X109590742Y-178846008D01*
X109741065Y-178783742D01*
X109900646Y-178752000D01*
X110063354Y-178752000D01*
X110222935Y-178783742D01*
G37*
G36*
X112762935Y-178783742D02*
G01*
X112913258Y-178846008D01*
X113048545Y-178936404D01*
X113163596Y-179051455D01*
X113253992Y-179186742D01*
X113316258Y-179337065D01*
X113348000Y-179496646D01*
X113348000Y-179659354D01*
X113316258Y-179818935D01*
X113253992Y-179969258D01*
X113163596Y-180104545D01*
X113048545Y-180219596D01*
X112913258Y-180309992D01*
X112762935Y-180372258D01*
X112603354Y-180404000D01*
X112440646Y-180404000D01*
X112281065Y-180372258D01*
X112130742Y-180309992D01*
X111995455Y-180219596D01*
X111880404Y-180104545D01*
X111790008Y-179969258D01*
X111727742Y-179818935D01*
X111696000Y-179659354D01*
X111696000Y-179496646D01*
X111727742Y-179337065D01*
X111790008Y-179186742D01*
X111880404Y-179051455D01*
X111995455Y-178936404D01*
X112130742Y-178846008D01*
X112281065Y-178783742D01*
X112440646Y-178752000D01*
X112603354Y-178752000D01*
X112762935Y-178783742D01*
G37*
G36*
X115302935Y-178783742D02*
G01*
X115453258Y-178846008D01*
X115588545Y-178936404D01*
X115703596Y-179051455D01*
X115793992Y-179186742D01*
X115856258Y-179337065D01*
X115888000Y-179496646D01*
X115888000Y-179659354D01*
X115856258Y-179818935D01*
X115793992Y-179969258D01*
X115703596Y-180104545D01*
X115588545Y-180219596D01*
X115453258Y-180309992D01*
X115302935Y-180372258D01*
X115143354Y-180404000D01*
X114980646Y-180404000D01*
X114821065Y-180372258D01*
X114670742Y-180309992D01*
X114535455Y-180219596D01*
X114420404Y-180104545D01*
X114330008Y-179969258D01*
X114267742Y-179818935D01*
X114236000Y-179659354D01*
X114236000Y-179496646D01*
X114267742Y-179337065D01*
X114330008Y-179186742D01*
X114420404Y-179051455D01*
X114535455Y-178936404D01*
X114670742Y-178846008D01*
X114821065Y-178783742D01*
X114980646Y-178752000D01*
X115143354Y-178752000D01*
X115302935Y-178783742D01*
G37*
G36*
X117842935Y-178783742D02*
G01*
X117993258Y-178846008D01*
X118128545Y-178936404D01*
X118243596Y-179051455D01*
X118333992Y-179186742D01*
X118396258Y-179337065D01*
X118428000Y-179496646D01*
X118428000Y-179659354D01*
X118396258Y-179818935D01*
X118333992Y-179969258D01*
X118243596Y-180104545D01*
X118128545Y-180219596D01*
X117993258Y-180309992D01*
X117842935Y-180372258D01*
X117683354Y-180404000D01*
X117520646Y-180404000D01*
X117361065Y-180372258D01*
X117210742Y-180309992D01*
X117075455Y-180219596D01*
X116960404Y-180104545D01*
X116870008Y-179969258D01*
X116807742Y-179818935D01*
X116776000Y-179659354D01*
X116776000Y-179496646D01*
X116807742Y-179337065D01*
X116870008Y-179186742D01*
X116960404Y-179051455D01*
X117075455Y-178936404D01*
X117210742Y-178846008D01*
X117361065Y-178783742D01*
X117520646Y-178752000D01*
X117683354Y-178752000D01*
X117842935Y-178783742D01*
G37*
G36*
X120382935Y-178783742D02*
G01*
X120533258Y-178846008D01*
X120668545Y-178936404D01*
X120783596Y-179051455D01*
X120873992Y-179186742D01*
X120936258Y-179337065D01*
X120968000Y-179496646D01*
X120968000Y-179659354D01*
X120936258Y-179818935D01*
X120873992Y-179969258D01*
X120783596Y-180104545D01*
X120668545Y-180219596D01*
X120533258Y-180309992D01*
X120382935Y-180372258D01*
X120223354Y-180404000D01*
X120060646Y-180404000D01*
X119901065Y-180372258D01*
X119750742Y-180309992D01*
X119615455Y-180219596D01*
X119500404Y-180104545D01*
X119410008Y-179969258D01*
X119347742Y-179818935D01*
X119316000Y-179659354D01*
X119316000Y-179496646D01*
X119347742Y-179337065D01*
X119410008Y-179186742D01*
X119500404Y-179051455D01*
X119615455Y-178936404D01*
X119750742Y-178846008D01*
X119901065Y-178783742D01*
X120060646Y-178752000D01*
X120223354Y-178752000D01*
X120382935Y-178783742D01*
G37*
G36*
X122922935Y-178783742D02*
G01*
X123073258Y-178846008D01*
X123208545Y-178936404D01*
X123323596Y-179051455D01*
X123413992Y-179186742D01*
X123476258Y-179337065D01*
X123508000Y-179496646D01*
X123508000Y-179659354D01*
X123476258Y-179818935D01*
X123413992Y-179969258D01*
X123323596Y-180104545D01*
X123208545Y-180219596D01*
X123073258Y-180309992D01*
X122922935Y-180372258D01*
X122763354Y-180404000D01*
X122600646Y-180404000D01*
X122441065Y-180372258D01*
X122290742Y-180309992D01*
X122155455Y-180219596D01*
X122040404Y-180104545D01*
X121950008Y-179969258D01*
X121887742Y-179818935D01*
X121856000Y-179659354D01*
X121856000Y-179496646D01*
X121887742Y-179337065D01*
X121950008Y-179186742D01*
X122040404Y-179051455D01*
X122155455Y-178936404D01*
X122290742Y-178846008D01*
X122441065Y-178783742D01*
X122600646Y-178752000D01*
X122763354Y-178752000D01*
X122922935Y-178783742D01*
G37*
G36*
X125462935Y-178783742D02*
G01*
X125613258Y-178846008D01*
X125748545Y-178936404D01*
X125863596Y-179051455D01*
X125953992Y-179186742D01*
X126016258Y-179337065D01*
X126048000Y-179496646D01*
X126048000Y-179659354D01*
X126016258Y-179818935D01*
X125953992Y-179969258D01*
X125863596Y-180104545D01*
X125748545Y-180219596D01*
X125613258Y-180309992D01*
X125462935Y-180372258D01*
X125303354Y-180404000D01*
X125140646Y-180404000D01*
X124981065Y-180372258D01*
X124830742Y-180309992D01*
X124695455Y-180219596D01*
X124580404Y-180104545D01*
X124490008Y-179969258D01*
X124427742Y-179818935D01*
X124396000Y-179659354D01*
X124396000Y-179496646D01*
X124427742Y-179337065D01*
X124490008Y-179186742D01*
X124580404Y-179051455D01*
X124695455Y-178936404D01*
X124830742Y-178846008D01*
X124981065Y-178783742D01*
X125140646Y-178752000D01*
X125303354Y-178752000D01*
X125462935Y-178783742D01*
G37*
G36*
X128002935Y-178783742D02*
G01*
X128153258Y-178846008D01*
X128288545Y-178936404D01*
X128403596Y-179051455D01*
X128493992Y-179186742D01*
X128556258Y-179337065D01*
X128588000Y-179496646D01*
X128588000Y-179659354D01*
X128556258Y-179818935D01*
X128493992Y-179969258D01*
X128403596Y-180104545D01*
X128288545Y-180219596D01*
X128153258Y-180309992D01*
X128002935Y-180372258D01*
X127843354Y-180404000D01*
X127680646Y-180404000D01*
X127521065Y-180372258D01*
X127370742Y-180309992D01*
X127235455Y-180219596D01*
X127120404Y-180104545D01*
X127030008Y-179969258D01*
X126967742Y-179818935D01*
X126936000Y-179659354D01*
X126936000Y-179496646D01*
X126967742Y-179337065D01*
X127030008Y-179186742D01*
X127120404Y-179051455D01*
X127235455Y-178936404D01*
X127370742Y-178846008D01*
X127521065Y-178783742D01*
X127680646Y-178752000D01*
X127843354Y-178752000D01*
X128002935Y-178783742D01*
G37*
G36*
X130542935Y-178783742D02*
G01*
X130693258Y-178846008D01*
X130828545Y-178936404D01*
X130943596Y-179051455D01*
X131033992Y-179186742D01*
X131096258Y-179337065D01*
X131128000Y-179496646D01*
X131128000Y-179659354D01*
X131096258Y-179818935D01*
X131033992Y-179969258D01*
X130943596Y-180104545D01*
X130828545Y-180219596D01*
X130693258Y-180309992D01*
X130542935Y-180372258D01*
X130383354Y-180404000D01*
X130220646Y-180404000D01*
X130061065Y-180372258D01*
X129910742Y-180309992D01*
X129775455Y-180219596D01*
X129660404Y-180104545D01*
X129570008Y-179969258D01*
X129507742Y-179818935D01*
X129476000Y-179659354D01*
X129476000Y-179496646D01*
X129507742Y-179337065D01*
X129570008Y-179186742D01*
X129660404Y-179051455D01*
X129775455Y-178936404D01*
X129910742Y-178846008D01*
X130061065Y-178783742D01*
X130220646Y-178752000D01*
X130383354Y-178752000D01*
X130542935Y-178783742D01*
G37*
G36*
X133082935Y-178783742D02*
G01*
X133233258Y-178846008D01*
X133368545Y-178936404D01*
X133483596Y-179051455D01*
X133573992Y-179186742D01*
X133636258Y-179337065D01*
X133668000Y-179496646D01*
X133668000Y-179659354D01*
X133636258Y-179818935D01*
X133573992Y-179969258D01*
X133483596Y-180104545D01*
X133368545Y-180219596D01*
X133233258Y-180309992D01*
X133082935Y-180372258D01*
X132923354Y-180404000D01*
X132760646Y-180404000D01*
X132601065Y-180372258D01*
X132450742Y-180309992D01*
X132315455Y-180219596D01*
X132200404Y-180104545D01*
X132110008Y-179969258D01*
X132047742Y-179818935D01*
X132016000Y-179659354D01*
X132016000Y-179496646D01*
X132047742Y-179337065D01*
X132110008Y-179186742D01*
X132200404Y-179051455D01*
X132315455Y-178936404D01*
X132450742Y-178846008D01*
X132601065Y-178783742D01*
X132760646Y-178752000D01*
X132923354Y-178752000D01*
X133082935Y-178783742D01*
G37*
G36*
X135622935Y-178783742D02*
G01*
X135773258Y-178846008D01*
X135908545Y-178936404D01*
X136023596Y-179051455D01*
X136113992Y-179186742D01*
X136176258Y-179337065D01*
X136208000Y-179496646D01*
X136208000Y-179659354D01*
X136176258Y-179818935D01*
X136113992Y-179969258D01*
X136023596Y-180104545D01*
X135908545Y-180219596D01*
X135773258Y-180309992D01*
X135622935Y-180372258D01*
X135463354Y-180404000D01*
X135300646Y-180404000D01*
X135141065Y-180372258D01*
X134990742Y-180309992D01*
X134855455Y-180219596D01*
X134740404Y-180104545D01*
X134650008Y-179969258D01*
X134587742Y-179818935D01*
X134556000Y-179659354D01*
X134556000Y-179496646D01*
X134587742Y-179337065D01*
X134650008Y-179186742D01*
X134740404Y-179051455D01*
X134855455Y-178936404D01*
X134990742Y-178846008D01*
X135141065Y-178783742D01*
X135300646Y-178752000D01*
X135463354Y-178752000D01*
X135622935Y-178783742D01*
G37*
G36*
X138162935Y-178783742D02*
G01*
X138313258Y-178846008D01*
X138448545Y-178936404D01*
X138563596Y-179051455D01*
X138653992Y-179186742D01*
X138716258Y-179337065D01*
X138748000Y-179496646D01*
X138748000Y-179659354D01*
X138716258Y-179818935D01*
X138653992Y-179969258D01*
X138563596Y-180104545D01*
X138448545Y-180219596D01*
X138313258Y-180309992D01*
X138162935Y-180372258D01*
X138003354Y-180404000D01*
X137840646Y-180404000D01*
X137681065Y-180372258D01*
X137530742Y-180309992D01*
X137395455Y-180219596D01*
X137280404Y-180104545D01*
X137190008Y-179969258D01*
X137127742Y-179818935D01*
X137096000Y-179659354D01*
X137096000Y-179496646D01*
X137127742Y-179337065D01*
X137190008Y-179186742D01*
X137280404Y-179051455D01*
X137395455Y-178936404D01*
X137530742Y-178846008D01*
X137681065Y-178783742D01*
X137840646Y-178752000D01*
X138003354Y-178752000D01*
X138162935Y-178783742D01*
G37*
G36*
X140702935Y-178783742D02*
G01*
X140853258Y-178846008D01*
X140988545Y-178936404D01*
X141103596Y-179051455D01*
X141193992Y-179186742D01*
X141256258Y-179337065D01*
X141288000Y-179496646D01*
X141288000Y-179659354D01*
X141256258Y-179818935D01*
X141193992Y-179969258D01*
X141103596Y-180104545D01*
X140988545Y-180219596D01*
X140853258Y-180309992D01*
X140702935Y-180372258D01*
X140543354Y-180404000D01*
X140380646Y-180404000D01*
X140221065Y-180372258D01*
X140070742Y-180309992D01*
X139935455Y-180219596D01*
X139820404Y-180104545D01*
X139730008Y-179969258D01*
X139667742Y-179818935D01*
X139636000Y-179659354D01*
X139636000Y-179496646D01*
X139667742Y-179337065D01*
X139730008Y-179186742D01*
X139820404Y-179051455D01*
X139935455Y-178936404D01*
X140070742Y-178846008D01*
X140221065Y-178783742D01*
X140380646Y-178752000D01*
X140543354Y-178752000D01*
X140702935Y-178783742D01*
G37*
G36*
X143242935Y-178783742D02*
G01*
X143393258Y-178846008D01*
X143528545Y-178936404D01*
X143643596Y-179051455D01*
X143733992Y-179186742D01*
X143796258Y-179337065D01*
X143828000Y-179496646D01*
X143828000Y-179659354D01*
X143796258Y-179818935D01*
X143733992Y-179969258D01*
X143643596Y-180104545D01*
X143528545Y-180219596D01*
X143393258Y-180309992D01*
X143242935Y-180372258D01*
X143083354Y-180404000D01*
X142920646Y-180404000D01*
X142761065Y-180372258D01*
X142610742Y-180309992D01*
X142475455Y-180219596D01*
X142360404Y-180104545D01*
X142270008Y-179969258D01*
X142207742Y-179818935D01*
X142176000Y-179659354D01*
X142176000Y-179496646D01*
X142207742Y-179337065D01*
X142270008Y-179186742D01*
X142360404Y-179051455D01*
X142475455Y-178936404D01*
X142610742Y-178846008D01*
X142761065Y-178783742D01*
X142920646Y-178752000D01*
X143083354Y-178752000D01*
X143242935Y-178783742D01*
G37*
G36*
X145782935Y-178783742D02*
G01*
X145933258Y-178846008D01*
X146068545Y-178936404D01*
X146183596Y-179051455D01*
X146273992Y-179186742D01*
X146336258Y-179337065D01*
X146368000Y-179496646D01*
X146368000Y-179659354D01*
X146336258Y-179818935D01*
X146273992Y-179969258D01*
X146183596Y-180104545D01*
X146068545Y-180219596D01*
X145933258Y-180309992D01*
X145782935Y-180372258D01*
X145623354Y-180404000D01*
X145460646Y-180404000D01*
X145301065Y-180372258D01*
X145150742Y-180309992D01*
X145015455Y-180219596D01*
X144900404Y-180104545D01*
X144810008Y-179969258D01*
X144747742Y-179818935D01*
X144716000Y-179659354D01*
X144716000Y-179496646D01*
X144747742Y-179337065D01*
X144810008Y-179186742D01*
X144900404Y-179051455D01*
X145015455Y-178936404D01*
X145150742Y-178846008D01*
X145301065Y-178783742D01*
X145460646Y-178752000D01*
X145623354Y-178752000D01*
X145782935Y-178783742D01*
G37*
G36*
X97522935Y-178783742D02*
G01*
X97673258Y-178846008D01*
X97808545Y-178936404D01*
X97923596Y-179051455D01*
X98013992Y-179186742D01*
X98076258Y-179337065D01*
X98108000Y-179496646D01*
X98108000Y-179659354D01*
X98076258Y-179818935D01*
X98013992Y-179969258D01*
X97923596Y-180104545D01*
X97808545Y-180219596D01*
X97673258Y-180309992D01*
X97522935Y-180372258D01*
X97363354Y-180404000D01*
X97200646Y-180404000D01*
X97041065Y-180372258D01*
X96890742Y-180309992D01*
X96755455Y-180219596D01*
X96640404Y-180104545D01*
X96550008Y-179969258D01*
X96487742Y-179818935D01*
X96456000Y-179659354D01*
X96456000Y-179496646D01*
X96487742Y-179337065D01*
X96550008Y-179186742D01*
X96640404Y-179051455D01*
X96755455Y-178936404D01*
X96890742Y-178846008D01*
X97041065Y-178783742D01*
X97200646Y-178752000D01*
X97363354Y-178752000D01*
X97522935Y-178783742D01*
G37*
G36*
X67042935Y-178783742D02*
G01*
X67193258Y-178846008D01*
X67328545Y-178936404D01*
X67443596Y-179051455D01*
X67533992Y-179186742D01*
X67596258Y-179337065D01*
X67628000Y-179496646D01*
X67628000Y-179659354D01*
X67596258Y-179818935D01*
X67533992Y-179969258D01*
X67443596Y-180104545D01*
X67328545Y-180219596D01*
X67193258Y-180309992D01*
X67042935Y-180372258D01*
X66883354Y-180404000D01*
X66720646Y-180404000D01*
X66561065Y-180372258D01*
X66410742Y-180309992D01*
X66275455Y-180219596D01*
X66160404Y-180104545D01*
X66070008Y-179969258D01*
X66007742Y-179818935D01*
X65976000Y-179659354D01*
X65976000Y-179496646D01*
X66007742Y-179337065D01*
X66070008Y-179186742D01*
X66160404Y-179051455D01*
X66275455Y-178936404D01*
X66410742Y-178846008D01*
X66561065Y-178783742D01*
X66720646Y-178752000D01*
X66883354Y-178752000D01*
X67042935Y-178783742D01*
G37*
G36*
X105142935Y-178783742D02*
G01*
X105293258Y-178846008D01*
X105428545Y-178936404D01*
X105543596Y-179051455D01*
X105633992Y-179186742D01*
X105696258Y-179337065D01*
X105728000Y-179496646D01*
X105728000Y-179659354D01*
X105696258Y-179818935D01*
X105633992Y-179969258D01*
X105543596Y-180104545D01*
X105428545Y-180219596D01*
X105293258Y-180309992D01*
X105142935Y-180372258D01*
X104983354Y-180404000D01*
X104820646Y-180404000D01*
X104661065Y-180372258D01*
X104510742Y-180309992D01*
X104375455Y-180219596D01*
X104260404Y-180104545D01*
X104170008Y-179969258D01*
X104107742Y-179818935D01*
X104076000Y-179659354D01*
X104076000Y-179496646D01*
X104107742Y-179337065D01*
X104170008Y-179186742D01*
X104260404Y-179051455D01*
X104375455Y-178936404D01*
X104510742Y-178846008D01*
X104661065Y-178783742D01*
X104820646Y-178752000D01*
X104983354Y-178752000D01*
X105142935Y-178783742D01*
G37*
G36*
X102602935Y-178783742D02*
G01*
X102753258Y-178846008D01*
X102888545Y-178936404D01*
X103003596Y-179051455D01*
X103093992Y-179186742D01*
X103156258Y-179337065D01*
X103188000Y-179496646D01*
X103188000Y-179659354D01*
X103156258Y-179818935D01*
X103093992Y-179969258D01*
X103003596Y-180104545D01*
X102888545Y-180219596D01*
X102753258Y-180309992D01*
X102602935Y-180372258D01*
X102443354Y-180404000D01*
X102280646Y-180404000D01*
X102121065Y-180372258D01*
X101970742Y-180309992D01*
X101835455Y-180219596D01*
X101720404Y-180104545D01*
X101630008Y-179969258D01*
X101567742Y-179818935D01*
X101536000Y-179659354D01*
X101536000Y-179496646D01*
X101567742Y-179337065D01*
X101630008Y-179186742D01*
X101720404Y-179051455D01*
X101835455Y-178936404D01*
X101970742Y-178846008D01*
X102121065Y-178783742D01*
X102280646Y-178752000D01*
X102443354Y-178752000D01*
X102602935Y-178783742D01*
G37*
G36*
X100062935Y-178783742D02*
G01*
X100213258Y-178846008D01*
X100348545Y-178936404D01*
X100463596Y-179051455D01*
X100553992Y-179186742D01*
X100616258Y-179337065D01*
X100648000Y-179496646D01*
X100648000Y-179659354D01*
X100616258Y-179818935D01*
X100553992Y-179969258D01*
X100463596Y-180104545D01*
X100348545Y-180219596D01*
X100213258Y-180309992D01*
X100062935Y-180372258D01*
X99903354Y-180404000D01*
X99740646Y-180404000D01*
X99581065Y-180372258D01*
X99430742Y-180309992D01*
X99295455Y-180219596D01*
X99180404Y-180104545D01*
X99090008Y-179969258D01*
X99027742Y-179818935D01*
X98996000Y-179659354D01*
X98996000Y-179496646D01*
X99027742Y-179337065D01*
X99090008Y-179186742D01*
X99180404Y-179051455D01*
X99295455Y-178936404D01*
X99430742Y-178846008D01*
X99581065Y-178783742D01*
X99740646Y-178752000D01*
X99903354Y-178752000D01*
X100062935Y-178783742D01*
G37*
G36*
X94982935Y-178783742D02*
G01*
X95133258Y-178846008D01*
X95268545Y-178936404D01*
X95383596Y-179051455D01*
X95473992Y-179186742D01*
X95536258Y-179337065D01*
X95568000Y-179496646D01*
X95568000Y-179659354D01*
X95536258Y-179818935D01*
X95473992Y-179969258D01*
X95383596Y-180104545D01*
X95268545Y-180219596D01*
X95133258Y-180309992D01*
X94982935Y-180372258D01*
X94823354Y-180404000D01*
X94660646Y-180404000D01*
X94501065Y-180372258D01*
X94350742Y-180309992D01*
X94215455Y-180219596D01*
X94100404Y-180104545D01*
X94010008Y-179969258D01*
X93947742Y-179818935D01*
X93916000Y-179659354D01*
X93916000Y-179496646D01*
X93947742Y-179337065D01*
X94010008Y-179186742D01*
X94100404Y-179051455D01*
X94215455Y-178936404D01*
X94350742Y-178846008D01*
X94501065Y-178783742D01*
X94660646Y-178752000D01*
X94823354Y-178752000D01*
X94982935Y-178783742D01*
G37*
G36*
X92442935Y-178783742D02*
G01*
X92593258Y-178846008D01*
X92728545Y-178936404D01*
X92843596Y-179051455D01*
X92933992Y-179186742D01*
X92996258Y-179337065D01*
X93028000Y-179496646D01*
X93028000Y-179659354D01*
X92996258Y-179818935D01*
X92933992Y-179969258D01*
X92843596Y-180104545D01*
X92728545Y-180219596D01*
X92593258Y-180309992D01*
X92442935Y-180372258D01*
X92283354Y-180404000D01*
X92120646Y-180404000D01*
X91961065Y-180372258D01*
X91810742Y-180309992D01*
X91675455Y-180219596D01*
X91560404Y-180104545D01*
X91470008Y-179969258D01*
X91407742Y-179818935D01*
X91376000Y-179659354D01*
X91376000Y-179496646D01*
X91407742Y-179337065D01*
X91470008Y-179186742D01*
X91560404Y-179051455D01*
X91675455Y-178936404D01*
X91810742Y-178846008D01*
X91961065Y-178783742D01*
X92120646Y-178752000D01*
X92283354Y-178752000D01*
X92442935Y-178783742D01*
G37*
G36*
X89902935Y-178783742D02*
G01*
X90053258Y-178846008D01*
X90188545Y-178936404D01*
X90303596Y-179051455D01*
X90393992Y-179186742D01*
X90456258Y-179337065D01*
X90488000Y-179496646D01*
X90488000Y-179659354D01*
X90456258Y-179818935D01*
X90393992Y-179969258D01*
X90303596Y-180104545D01*
X90188545Y-180219596D01*
X90053258Y-180309992D01*
X89902935Y-180372258D01*
X89743354Y-180404000D01*
X89580646Y-180404000D01*
X89421065Y-180372258D01*
X89270742Y-180309992D01*
X89135455Y-180219596D01*
X89020404Y-180104545D01*
X88930008Y-179969258D01*
X88867742Y-179818935D01*
X88836000Y-179659354D01*
X88836000Y-179496646D01*
X88867742Y-179337065D01*
X88930008Y-179186742D01*
X89020404Y-179051455D01*
X89135455Y-178936404D01*
X89270742Y-178846008D01*
X89421065Y-178783742D01*
X89580646Y-178752000D01*
X89743354Y-178752000D01*
X89902935Y-178783742D01*
G37*
G36*
X87362935Y-178783742D02*
G01*
X87513258Y-178846008D01*
X87648545Y-178936404D01*
X87763596Y-179051455D01*
X87853992Y-179186742D01*
X87916258Y-179337065D01*
X87948000Y-179496646D01*
X87948000Y-179659354D01*
X87916258Y-179818935D01*
X87853992Y-179969258D01*
X87763596Y-180104545D01*
X87648545Y-180219596D01*
X87513258Y-180309992D01*
X87362935Y-180372258D01*
X87203354Y-180404000D01*
X87040646Y-180404000D01*
X86881065Y-180372258D01*
X86730742Y-180309992D01*
X86595455Y-180219596D01*
X86480404Y-180104545D01*
X86390008Y-179969258D01*
X86327742Y-179818935D01*
X86296000Y-179659354D01*
X86296000Y-179496646D01*
X86327742Y-179337065D01*
X86390008Y-179186742D01*
X86480404Y-179051455D01*
X86595455Y-178936404D01*
X86730742Y-178846008D01*
X86881065Y-178783742D01*
X87040646Y-178752000D01*
X87203354Y-178752000D01*
X87362935Y-178783742D01*
G37*
G36*
X84822935Y-178783742D02*
G01*
X84973258Y-178846008D01*
X85108545Y-178936404D01*
X85223596Y-179051455D01*
X85313992Y-179186742D01*
X85376258Y-179337065D01*
X85408000Y-179496646D01*
X85408000Y-179659354D01*
X85376258Y-179818935D01*
X85313992Y-179969258D01*
X85223596Y-180104545D01*
X85108545Y-180219596D01*
X84973258Y-180309992D01*
X84822935Y-180372258D01*
X84663354Y-180404000D01*
X84500646Y-180404000D01*
X84341065Y-180372258D01*
X84190742Y-180309992D01*
X84055455Y-180219596D01*
X83940404Y-180104545D01*
X83850008Y-179969258D01*
X83787742Y-179818935D01*
X83756000Y-179659354D01*
X83756000Y-179496646D01*
X83787742Y-179337065D01*
X83850008Y-179186742D01*
X83940404Y-179051455D01*
X84055455Y-178936404D01*
X84190742Y-178846008D01*
X84341065Y-178783742D01*
X84500646Y-178752000D01*
X84663354Y-178752000D01*
X84822935Y-178783742D01*
G37*
G36*
X82282935Y-178783742D02*
G01*
X82433258Y-178846008D01*
X82568545Y-178936404D01*
X82683596Y-179051455D01*
X82773992Y-179186742D01*
X82836258Y-179337065D01*
X82868000Y-179496646D01*
X82868000Y-179659354D01*
X82836258Y-179818935D01*
X82773992Y-179969258D01*
X82683596Y-180104545D01*
X82568545Y-180219596D01*
X82433258Y-180309992D01*
X82282935Y-180372258D01*
X82123354Y-180404000D01*
X81960646Y-180404000D01*
X81801065Y-180372258D01*
X81650742Y-180309992D01*
X81515455Y-180219596D01*
X81400404Y-180104545D01*
X81310008Y-179969258D01*
X81247742Y-179818935D01*
X81216000Y-179659354D01*
X81216000Y-179496646D01*
X81247742Y-179337065D01*
X81310008Y-179186742D01*
X81400404Y-179051455D01*
X81515455Y-178936404D01*
X81650742Y-178846008D01*
X81801065Y-178783742D01*
X81960646Y-178752000D01*
X82123354Y-178752000D01*
X82282935Y-178783742D01*
G37*
G36*
X79742935Y-178783742D02*
G01*
X79893258Y-178846008D01*
X80028545Y-178936404D01*
X80143596Y-179051455D01*
X80233992Y-179186742D01*
X80296258Y-179337065D01*
X80328000Y-179496646D01*
X80328000Y-179659354D01*
X80296258Y-179818935D01*
X80233992Y-179969258D01*
X80143596Y-180104545D01*
X80028545Y-180219596D01*
X79893258Y-180309992D01*
X79742935Y-180372258D01*
X79583354Y-180404000D01*
X79420646Y-180404000D01*
X79261065Y-180372258D01*
X79110742Y-180309992D01*
X78975455Y-180219596D01*
X78860404Y-180104545D01*
X78770008Y-179969258D01*
X78707742Y-179818935D01*
X78676000Y-179659354D01*
X78676000Y-179496646D01*
X78707742Y-179337065D01*
X78770008Y-179186742D01*
X78860404Y-179051455D01*
X78975455Y-178936404D01*
X79110742Y-178846008D01*
X79261065Y-178783742D01*
X79420646Y-178752000D01*
X79583354Y-178752000D01*
X79742935Y-178783742D01*
G37*
G36*
X77202935Y-178783742D02*
G01*
X77353258Y-178846008D01*
X77488545Y-178936404D01*
X77603596Y-179051455D01*
X77693992Y-179186742D01*
X77756258Y-179337065D01*
X77788000Y-179496646D01*
X77788000Y-179659354D01*
X77756258Y-179818935D01*
X77693992Y-179969258D01*
X77603596Y-180104545D01*
X77488545Y-180219596D01*
X77353258Y-180309992D01*
X77202935Y-180372258D01*
X77043354Y-180404000D01*
X76880646Y-180404000D01*
X76721065Y-180372258D01*
X76570742Y-180309992D01*
X76435455Y-180219596D01*
X76320404Y-180104545D01*
X76230008Y-179969258D01*
X76167742Y-179818935D01*
X76136000Y-179659354D01*
X76136000Y-179496646D01*
X76167742Y-179337065D01*
X76230008Y-179186742D01*
X76320404Y-179051455D01*
X76435455Y-178936404D01*
X76570742Y-178846008D01*
X76721065Y-178783742D01*
X76880646Y-178752000D01*
X77043354Y-178752000D01*
X77202935Y-178783742D01*
G37*
G36*
X74662935Y-178783742D02*
G01*
X74813258Y-178846008D01*
X74948545Y-178936404D01*
X75063596Y-179051455D01*
X75153992Y-179186742D01*
X75216258Y-179337065D01*
X75248000Y-179496646D01*
X75248000Y-179659354D01*
X75216258Y-179818935D01*
X75153992Y-179969258D01*
X75063596Y-180104545D01*
X74948545Y-180219596D01*
X74813258Y-180309992D01*
X74662935Y-180372258D01*
X74503354Y-180404000D01*
X74340646Y-180404000D01*
X74181065Y-180372258D01*
X74030742Y-180309992D01*
X73895455Y-180219596D01*
X73780404Y-180104545D01*
X73690008Y-179969258D01*
X73627742Y-179818935D01*
X73596000Y-179659354D01*
X73596000Y-179496646D01*
X73627742Y-179337065D01*
X73690008Y-179186742D01*
X73780404Y-179051455D01*
X73895455Y-178936404D01*
X74030742Y-178846008D01*
X74181065Y-178783742D01*
X74340646Y-178752000D01*
X74503354Y-178752000D01*
X74662935Y-178783742D01*
G37*
G36*
X72122935Y-178783742D02*
G01*
X72273258Y-178846008D01*
X72408545Y-178936404D01*
X72523596Y-179051455D01*
X72613992Y-179186742D01*
X72676258Y-179337065D01*
X72708000Y-179496646D01*
X72708000Y-179659354D01*
X72676258Y-179818935D01*
X72613992Y-179969258D01*
X72523596Y-180104545D01*
X72408545Y-180219596D01*
X72273258Y-180309992D01*
X72122935Y-180372258D01*
X71963354Y-180404000D01*
X71800646Y-180404000D01*
X71641065Y-180372258D01*
X71490742Y-180309992D01*
X71355455Y-180219596D01*
X71240404Y-180104545D01*
X71150008Y-179969258D01*
X71087742Y-179818935D01*
X71056000Y-179659354D01*
X71056000Y-179496646D01*
X71087742Y-179337065D01*
X71150008Y-179186742D01*
X71240404Y-179051455D01*
X71355455Y-178936404D01*
X71490742Y-178846008D01*
X71641065Y-178783742D01*
X71800646Y-178752000D01*
X71963354Y-178752000D01*
X72122935Y-178783742D01*
G37*
G36*
X69582935Y-178783742D02*
G01*
X69733258Y-178846008D01*
X69868545Y-178936404D01*
X69983596Y-179051455D01*
X70073992Y-179186742D01*
X70136258Y-179337065D01*
X70168000Y-179496646D01*
X70168000Y-179659354D01*
X70136258Y-179818935D01*
X70073992Y-179969258D01*
X69983596Y-180104545D01*
X69868545Y-180219596D01*
X69733258Y-180309992D01*
X69582935Y-180372258D01*
X69423354Y-180404000D01*
X69260646Y-180404000D01*
X69101065Y-180372258D01*
X68950742Y-180309992D01*
X68815455Y-180219596D01*
X68700404Y-180104545D01*
X68610008Y-179969258D01*
X68547742Y-179818935D01*
X68516000Y-179659354D01*
X68516000Y-179496646D01*
X68547742Y-179337065D01*
X68610008Y-179186742D01*
X68700404Y-179051455D01*
X68815455Y-178936404D01*
X68950742Y-178846008D01*
X69101065Y-178783742D01*
X69260646Y-178752000D01*
X69423354Y-178752000D01*
X69582935Y-178783742D01*
G37*
G36*
X107682935Y-178783742D02*
G01*
X107833258Y-178846008D01*
X107968545Y-178936404D01*
X108083596Y-179051455D01*
X108173992Y-179186742D01*
X108236258Y-179337065D01*
X108268000Y-179496646D01*
X108268000Y-179659354D01*
X108236258Y-179818935D01*
X108173992Y-179969258D01*
X108083596Y-180104545D01*
X107968545Y-180219596D01*
X107833258Y-180309992D01*
X107682935Y-180372258D01*
X107523354Y-180404000D01*
X107360646Y-180404000D01*
X107201065Y-180372258D01*
X107050742Y-180309992D01*
X106915455Y-180219596D01*
X106800404Y-180104545D01*
X106710008Y-179969258D01*
X106647742Y-179818935D01*
X106616000Y-179659354D01*
X106616000Y-179496646D01*
X106647742Y-179337065D01*
X106710008Y-179186742D01*
X106800404Y-179051455D01*
X106915455Y-178936404D01*
X107050742Y-178846008D01*
X107201065Y-178783742D01*
X107360646Y-178752000D01*
X107523354Y-178752000D01*
X107682935Y-178783742D01*
G37*
G36*
X145909254Y-171230818D02*
G01*
X146282511Y-171385426D01*
X146282513Y-171385427D01*
X146618436Y-171609884D01*
X146904116Y-171895564D01*
X147128574Y-172231489D01*
X147283182Y-172604746D01*
X147362000Y-173000993D01*
X147362000Y-173405007D01*
X147283182Y-173801254D01*
X147128574Y-174174511D01*
X147128573Y-174174513D01*
X146904116Y-174510436D01*
X146618436Y-174796116D01*
X146282513Y-175020573D01*
X146282512Y-175020574D01*
X146282511Y-175020574D01*
X145909254Y-175175182D01*
X145513007Y-175254000D01*
X145108993Y-175254000D01*
X144712746Y-175175182D01*
X144339489Y-175020574D01*
X144339488Y-175020574D01*
X144339487Y-175020573D01*
X144003564Y-174796116D01*
X143717884Y-174510436D01*
X143493427Y-174174513D01*
X143493426Y-174174511D01*
X143338818Y-173801254D01*
X143260000Y-173405007D01*
X143260000Y-173000993D01*
X143338818Y-172604746D01*
X143493426Y-172231489D01*
X143717884Y-171895564D01*
X144003564Y-171609884D01*
X144339487Y-171385427D01*
X144339489Y-171385426D01*
X144712746Y-171230818D01*
X145108993Y-171152000D01*
X145513007Y-171152000D01*
X145909254Y-171230818D01*
G37*
G36*
X90296928Y-168690764D02*
G01*
X90318009Y-168697160D01*
X90337445Y-168707548D01*
X90354476Y-168721524D01*
X90368452Y-168738555D01*
X90378840Y-168757991D01*
X90385236Y-168779072D01*
X90388000Y-168807140D01*
X90388000Y-170645860D01*
X90385236Y-170673928D01*
X90378840Y-170695009D01*
X90368452Y-170714445D01*
X90354476Y-170731476D01*
X90337445Y-170745452D01*
X90318009Y-170755840D01*
X90296928Y-170762236D01*
X90268860Y-170765000D01*
X89805140Y-170765000D01*
X89777072Y-170762236D01*
X89755991Y-170755840D01*
X89736555Y-170745452D01*
X89719524Y-170731476D01*
X89705548Y-170714445D01*
X89695160Y-170695009D01*
X89688764Y-170673928D01*
X89686000Y-170645860D01*
X89686000Y-168807140D01*
X89688764Y-168779072D01*
X89695160Y-168757991D01*
X89705548Y-168738555D01*
X89719524Y-168721524D01*
X89736555Y-168707548D01*
X89755991Y-168697160D01*
X89777072Y-168690764D01*
X89805140Y-168688000D01*
X90268860Y-168688000D01*
X90296928Y-168690764D01*
G37*
G36*
X81406928Y-168690764D02*
G01*
X81428009Y-168697160D01*
X81447445Y-168707548D01*
X81464476Y-168721524D01*
X81478452Y-168738555D01*
X81488840Y-168757991D01*
X81495236Y-168779072D01*
X81498000Y-168807140D01*
X81498000Y-170645860D01*
X81495236Y-170673928D01*
X81488840Y-170695009D01*
X81478452Y-170714445D01*
X81464476Y-170731476D01*
X81447445Y-170745452D01*
X81428009Y-170755840D01*
X81406928Y-170762236D01*
X81378860Y-170765000D01*
X80915140Y-170765000D01*
X80887072Y-170762236D01*
X80865991Y-170755840D01*
X80846555Y-170745452D01*
X80829524Y-170731476D01*
X80815548Y-170714445D01*
X80805160Y-170695009D01*
X80798764Y-170673928D01*
X80796000Y-170645860D01*
X80796000Y-168807140D01*
X80798764Y-168779072D01*
X80805160Y-168757991D01*
X80815548Y-168738555D01*
X80829524Y-168721524D01*
X80846555Y-168707548D01*
X80865991Y-168697160D01*
X80887072Y-168690764D01*
X80915140Y-168688000D01*
X81378860Y-168688000D01*
X81406928Y-168690764D01*
G37*
G36*
X82676928Y-168690764D02*
G01*
X82698009Y-168697160D01*
X82717445Y-168707548D01*
X82734476Y-168721524D01*
X82748452Y-168738555D01*
X82758840Y-168757991D01*
X82765236Y-168779072D01*
X82768000Y-168807140D01*
X82768000Y-170645860D01*
X82765236Y-170673928D01*
X82758840Y-170695009D01*
X82748452Y-170714445D01*
X82734476Y-170731476D01*
X82717445Y-170745452D01*
X82698009Y-170755840D01*
X82676928Y-170762236D01*
X82648860Y-170765000D01*
X82185140Y-170765000D01*
X82157072Y-170762236D01*
X82135991Y-170755840D01*
X82116555Y-170745452D01*
X82099524Y-170731476D01*
X82085548Y-170714445D01*
X82075160Y-170695009D01*
X82068764Y-170673928D01*
X82066000Y-170645860D01*
X82066000Y-168807140D01*
X82068764Y-168779072D01*
X82075160Y-168757991D01*
X82085548Y-168738555D01*
X82099524Y-168721524D01*
X82116555Y-168707548D01*
X82135991Y-168697160D01*
X82157072Y-168690764D01*
X82185140Y-168688000D01*
X82648860Y-168688000D01*
X82676928Y-168690764D01*
G37*
G36*
X83946928Y-168690764D02*
G01*
X83968009Y-168697160D01*
X83987445Y-168707548D01*
X84004476Y-168721524D01*
X84018452Y-168738555D01*
X84028840Y-168757991D01*
X84035236Y-168779072D01*
X84038000Y-168807140D01*
X84038000Y-170645860D01*
X84035236Y-170673928D01*
X84028840Y-170695009D01*
X84018452Y-170714445D01*
X84004476Y-170731476D01*
X83987445Y-170745452D01*
X83968009Y-170755840D01*
X83946928Y-170762236D01*
X83918860Y-170765000D01*
X83455140Y-170765000D01*
X83427072Y-170762236D01*
X83405991Y-170755840D01*
X83386555Y-170745452D01*
X83369524Y-170731476D01*
X83355548Y-170714445D01*
X83345160Y-170695009D01*
X83338764Y-170673928D01*
X83336000Y-170645860D01*
X83336000Y-168807140D01*
X83338764Y-168779072D01*
X83345160Y-168757991D01*
X83355548Y-168738555D01*
X83369524Y-168721524D01*
X83386555Y-168707548D01*
X83405991Y-168697160D01*
X83427072Y-168690764D01*
X83455140Y-168688000D01*
X83918860Y-168688000D01*
X83946928Y-168690764D01*
G37*
G36*
X85216928Y-168690764D02*
G01*
X85238009Y-168697160D01*
X85257445Y-168707548D01*
X85274476Y-168721524D01*
X85288452Y-168738555D01*
X85298840Y-168757991D01*
X85305236Y-168779072D01*
X85308000Y-168807140D01*
X85308000Y-170645860D01*
X85305236Y-170673928D01*
X85298840Y-170695009D01*
X85288452Y-170714445D01*
X85274476Y-170731476D01*
X85257445Y-170745452D01*
X85238009Y-170755840D01*
X85216928Y-170762236D01*
X85188860Y-170765000D01*
X84725140Y-170765000D01*
X84697072Y-170762236D01*
X84675991Y-170755840D01*
X84656555Y-170745452D01*
X84639524Y-170731476D01*
X84625548Y-170714445D01*
X84615160Y-170695009D01*
X84608764Y-170673928D01*
X84606000Y-170645860D01*
X84606000Y-168807140D01*
X84608764Y-168779072D01*
X84615160Y-168757991D01*
X84625548Y-168738555D01*
X84639524Y-168721524D01*
X84656555Y-168707548D01*
X84675991Y-168697160D01*
X84697072Y-168690764D01*
X84725140Y-168688000D01*
X85188860Y-168688000D01*
X85216928Y-168690764D01*
G37*
G36*
X80136928Y-168690764D02*
G01*
X80158009Y-168697160D01*
X80177445Y-168707548D01*
X80194476Y-168721524D01*
X80208452Y-168738555D01*
X80218840Y-168757991D01*
X80225236Y-168779072D01*
X80228000Y-168807140D01*
X80228000Y-170645860D01*
X80225236Y-170673928D01*
X80218840Y-170695009D01*
X80208452Y-170714445D01*
X80194476Y-170731476D01*
X80177445Y-170745452D01*
X80158009Y-170755840D01*
X80136928Y-170762236D01*
X80108860Y-170765000D01*
X79645140Y-170765000D01*
X79617072Y-170762236D01*
X79595991Y-170755840D01*
X79576555Y-170745452D01*
X79559524Y-170731476D01*
X79545548Y-170714445D01*
X79535160Y-170695009D01*
X79528764Y-170673928D01*
X79526000Y-170645860D01*
X79526000Y-168807140D01*
X79528764Y-168779072D01*
X79535160Y-168757991D01*
X79545548Y-168738555D01*
X79559524Y-168721524D01*
X79576555Y-168707548D01*
X79595991Y-168697160D01*
X79617072Y-168690764D01*
X79645140Y-168688000D01*
X80108860Y-168688000D01*
X80136928Y-168690764D01*
G37*
G36*
X86486928Y-168690764D02*
G01*
X86508009Y-168697160D01*
X86527445Y-168707548D01*
X86544476Y-168721524D01*
X86558452Y-168738555D01*
X86568840Y-168757991D01*
X86575236Y-168779072D01*
X86578000Y-168807140D01*
X86578000Y-170645860D01*
X86575236Y-170673928D01*
X86568840Y-170695009D01*
X86558452Y-170714445D01*
X86544476Y-170731476D01*
X86527445Y-170745452D01*
X86508009Y-170755840D01*
X86486928Y-170762236D01*
X86458860Y-170765000D01*
X85995140Y-170765000D01*
X85967072Y-170762236D01*
X85945991Y-170755840D01*
X85926555Y-170745452D01*
X85909524Y-170731476D01*
X85895548Y-170714445D01*
X85885160Y-170695009D01*
X85878764Y-170673928D01*
X85876000Y-170645860D01*
X85876000Y-168807140D01*
X85878764Y-168779072D01*
X85885160Y-168757991D01*
X85895548Y-168738555D01*
X85909524Y-168721524D01*
X85926555Y-168707548D01*
X85945991Y-168697160D01*
X85967072Y-168690764D01*
X85995140Y-168688000D01*
X86458860Y-168688000D01*
X86486928Y-168690764D01*
G37*
G36*
X91566928Y-168690764D02*
G01*
X91588009Y-168697160D01*
X91607445Y-168707548D01*
X91624476Y-168721524D01*
X91638452Y-168738555D01*
X91648840Y-168757991D01*
X91655236Y-168779072D01*
X91658000Y-168807140D01*
X91658000Y-170645860D01*
X91655236Y-170673928D01*
X91648840Y-170695009D01*
X91638452Y-170714445D01*
X91624476Y-170731476D01*
X91607445Y-170745452D01*
X91588009Y-170755840D01*
X91566928Y-170762236D01*
X91538860Y-170765000D01*
X91075140Y-170765000D01*
X91047072Y-170762236D01*
X91025991Y-170755840D01*
X91006555Y-170745452D01*
X90989524Y-170731476D01*
X90975548Y-170714445D01*
X90965160Y-170695009D01*
X90958764Y-170673928D01*
X90956000Y-170645860D01*
X90956000Y-168807140D01*
X90958764Y-168779072D01*
X90965160Y-168757991D01*
X90975548Y-168738555D01*
X90989524Y-168721524D01*
X91006555Y-168707548D01*
X91025991Y-168697160D01*
X91047072Y-168690764D01*
X91075140Y-168688000D01*
X91538860Y-168688000D01*
X91566928Y-168690764D01*
G37*
G36*
X87756928Y-168690764D02*
G01*
X87778009Y-168697160D01*
X87797445Y-168707548D01*
X87814476Y-168721524D01*
X87828452Y-168738555D01*
X87838840Y-168757991D01*
X87845236Y-168779072D01*
X87848000Y-168807140D01*
X87848000Y-170645860D01*
X87845236Y-170673928D01*
X87838840Y-170695009D01*
X87828452Y-170714445D01*
X87814476Y-170731476D01*
X87797445Y-170745452D01*
X87778009Y-170755840D01*
X87756928Y-170762236D01*
X87728860Y-170765000D01*
X87265140Y-170765000D01*
X87237072Y-170762236D01*
X87215991Y-170755840D01*
X87196555Y-170745452D01*
X87179524Y-170731476D01*
X87165548Y-170714445D01*
X87155160Y-170695009D01*
X87148764Y-170673928D01*
X87146000Y-170645860D01*
X87146000Y-168807140D01*
X87148764Y-168779072D01*
X87155160Y-168757991D01*
X87165548Y-168738555D01*
X87179524Y-168721524D01*
X87196555Y-168707548D01*
X87215991Y-168697160D01*
X87237072Y-168690764D01*
X87265140Y-168688000D01*
X87728860Y-168688000D01*
X87756928Y-168690764D01*
G37*
G36*
X89026928Y-168690764D02*
G01*
X89048009Y-168697160D01*
X89067445Y-168707548D01*
X89084476Y-168721524D01*
X89098452Y-168738555D01*
X89108840Y-168757991D01*
X89115236Y-168779072D01*
X89118000Y-168807140D01*
X89118000Y-170645860D01*
X89115236Y-170673928D01*
X89108840Y-170695009D01*
X89098452Y-170714445D01*
X89084476Y-170731476D01*
X89067445Y-170745452D01*
X89048009Y-170755840D01*
X89026928Y-170762236D01*
X88998860Y-170765000D01*
X88535140Y-170765000D01*
X88507072Y-170762236D01*
X88485991Y-170755840D01*
X88466555Y-170745452D01*
X88449524Y-170731476D01*
X88435548Y-170714445D01*
X88425160Y-170695009D01*
X88418764Y-170673928D01*
X88416000Y-170645860D01*
X88416000Y-168807140D01*
X88418764Y-168779072D01*
X88425160Y-168757991D01*
X88435548Y-168738555D01*
X88449524Y-168721524D01*
X88466555Y-168707548D01*
X88485991Y-168697160D01*
X88507072Y-168690764D01*
X88535140Y-168688000D01*
X88998860Y-168688000D01*
X89026928Y-168690764D01*
G37*
G36*
X66687000Y-169557000D02*
G01*
X64885000Y-169557000D01*
X64885000Y-167755000D01*
X66687000Y-167755000D01*
X66687000Y-169557000D01*
G37*
G36*
X63359512Y-167759927D02*
G01*
X63508812Y-167789624D01*
X63672784Y-167857544D01*
X63820354Y-167956147D01*
X63945853Y-168081646D01*
X64044456Y-168229216D01*
X64112376Y-168393188D01*
X64142073Y-168542488D01*
X64147000Y-168567258D01*
X64147000Y-168744742D01*
X64142772Y-168765997D01*
X64112376Y-168918812D01*
X64044456Y-169082784D01*
X63945853Y-169230354D01*
X63820354Y-169355853D01*
X63672784Y-169454456D01*
X63508812Y-169522376D01*
X63359512Y-169552073D01*
X63334742Y-169557000D01*
X63157258Y-169557000D01*
X63132488Y-169552073D01*
X62983188Y-169522376D01*
X62819216Y-169454456D01*
X62671646Y-169355853D01*
X62546147Y-169230354D01*
X62447544Y-169082784D01*
X62379624Y-168918812D01*
X62349228Y-168765997D01*
X62345000Y-168744742D01*
X62345000Y-168567258D01*
X62349927Y-168542488D01*
X62379624Y-168393188D01*
X62447544Y-168229216D01*
X62546147Y-168081646D01*
X62671646Y-167956147D01*
X62819216Y-167857544D01*
X62983188Y-167789624D01*
X63132488Y-167759927D01*
X63157258Y-167755000D01*
X63334742Y-167755000D01*
X63359512Y-167759927D01*
G37*
G36*
X144742000Y-167094000D02*
G01*
X143040000Y-167094000D01*
X143040000Y-165392000D01*
X144742000Y-165392000D01*
X144742000Y-167094000D01*
G37*
G36*
X65899512Y-165219927D02*
G01*
X66048812Y-165249624D01*
X66212784Y-165317544D01*
X66360354Y-165416147D01*
X66485853Y-165541646D01*
X66584456Y-165689216D01*
X66652376Y-165853188D01*
X66687000Y-166027259D01*
X66687000Y-166204741D01*
X66652376Y-166378812D01*
X66584456Y-166542784D01*
X66485853Y-166690354D01*
X66360354Y-166815853D01*
X66212784Y-166914456D01*
X66048812Y-166982376D01*
X65899512Y-167012073D01*
X65874742Y-167017000D01*
X65697258Y-167017000D01*
X65672488Y-167012073D01*
X65523188Y-166982376D01*
X65359216Y-166914456D01*
X65211646Y-166815853D01*
X65086147Y-166690354D01*
X64987544Y-166542784D01*
X64919624Y-166378812D01*
X64885000Y-166204741D01*
X64885000Y-166027259D01*
X64919624Y-165853188D01*
X64987544Y-165689216D01*
X65086147Y-165541646D01*
X65211646Y-165416147D01*
X65359216Y-165317544D01*
X65523188Y-165249624D01*
X65672488Y-165219927D01*
X65697258Y-165215000D01*
X65874742Y-165215000D01*
X65899512Y-165219927D01*
G37*
G36*
X63359512Y-165219927D02*
G01*
X63508812Y-165249624D01*
X63672784Y-165317544D01*
X63820354Y-165416147D01*
X63945853Y-165541646D01*
X64044456Y-165689216D01*
X64112376Y-165853188D01*
X64147000Y-166027259D01*
X64147000Y-166204741D01*
X64112376Y-166378812D01*
X64044456Y-166542784D01*
X63945853Y-166690354D01*
X63820354Y-166815853D01*
X63672784Y-166914456D01*
X63508812Y-166982376D01*
X63359512Y-167012073D01*
X63334742Y-167017000D01*
X63157258Y-167017000D01*
X63132488Y-167012073D01*
X62983188Y-166982376D01*
X62819216Y-166914456D01*
X62671646Y-166815853D01*
X62546147Y-166690354D01*
X62447544Y-166542784D01*
X62379624Y-166378812D01*
X62345000Y-166204741D01*
X62345000Y-166027259D01*
X62379624Y-165853188D01*
X62447544Y-165689216D01*
X62546147Y-165541646D01*
X62671646Y-165416147D01*
X62819216Y-165317544D01*
X62983188Y-165249624D01*
X63132488Y-165219927D01*
X63157258Y-165215000D01*
X63334742Y-165215000D01*
X63359512Y-165219927D01*
G37*
G36*
X146979228Y-164039703D02*
G01*
X147134100Y-164103853D01*
X147273481Y-164196985D01*
X147392015Y-164315519D01*
X147485147Y-164454900D01*
X147549297Y-164609772D01*
X147582000Y-164774184D01*
X147582000Y-164941816D01*
X147549297Y-165106228D01*
X147485147Y-165261100D01*
X147392015Y-165400481D01*
X147273481Y-165519015D01*
X147134100Y-165612147D01*
X146979228Y-165676297D01*
X146814816Y-165709000D01*
X146647184Y-165709000D01*
X146482772Y-165676297D01*
X146327900Y-165612147D01*
X146188519Y-165519015D01*
X146069985Y-165400481D01*
X145976853Y-165261100D01*
X145912703Y-165106228D01*
X145880000Y-164941816D01*
X145880000Y-164774184D01*
X145912703Y-164609772D01*
X145976853Y-164454900D01*
X146069985Y-164315519D01*
X146188519Y-164196985D01*
X146327900Y-164103853D01*
X146482772Y-164039703D01*
X146647184Y-164007000D01*
X146814816Y-164007000D01*
X146979228Y-164039703D01*
G37*
G36*
X63359512Y-162679927D02*
G01*
X63508812Y-162709624D01*
X63672784Y-162777544D01*
X63820354Y-162876147D01*
X63945853Y-163001646D01*
X64044456Y-163149216D01*
X64112376Y-163313188D01*
X64147000Y-163487259D01*
X64147000Y-163664741D01*
X64112376Y-163838812D01*
X64044456Y-164002784D01*
X63945853Y-164150354D01*
X63820354Y-164275853D01*
X63672784Y-164374456D01*
X63508812Y-164442376D01*
X63359512Y-164472073D01*
X63334742Y-164477000D01*
X63157258Y-164477000D01*
X63132488Y-164472073D01*
X62983188Y-164442376D01*
X62819216Y-164374456D01*
X62671646Y-164275853D01*
X62546147Y-164150354D01*
X62447544Y-164002784D01*
X62379624Y-163838812D01*
X62345000Y-163664741D01*
X62345000Y-163487259D01*
X62379624Y-163313188D01*
X62447544Y-163149216D01*
X62546147Y-163001646D01*
X62671646Y-162876147D01*
X62819216Y-162777544D01*
X62983188Y-162709624D01*
X63132488Y-162679927D01*
X63157258Y-162675000D01*
X63334742Y-162675000D01*
X63359512Y-162679927D01*
G37*
G36*
X65899512Y-162679927D02*
G01*
X66048812Y-162709624D01*
X66212784Y-162777544D01*
X66360354Y-162876147D01*
X66485853Y-163001646D01*
X66584456Y-163149216D01*
X66652376Y-163313188D01*
X66687000Y-163487259D01*
X66687000Y-163664741D01*
X66652376Y-163838812D01*
X66584456Y-164002784D01*
X66485853Y-164150354D01*
X66360354Y-164275853D01*
X66212784Y-164374456D01*
X66048812Y-164442376D01*
X65899512Y-164472073D01*
X65874742Y-164477000D01*
X65697258Y-164477000D01*
X65672488Y-164472073D01*
X65523188Y-164442376D01*
X65359216Y-164374456D01*
X65211646Y-164275853D01*
X65086147Y-164150354D01*
X64987544Y-164002784D01*
X64919624Y-163838812D01*
X64885000Y-163664741D01*
X64885000Y-163487259D01*
X64919624Y-163313188D01*
X64987544Y-163149216D01*
X65086147Y-163001646D01*
X65211646Y-162876147D01*
X65359216Y-162777544D01*
X65523188Y-162709624D01*
X65672488Y-162679927D01*
X65697258Y-162675000D01*
X65874742Y-162675000D01*
X65899512Y-162679927D01*
G37*
G36*
X144139228Y-162654703D02*
G01*
X144294100Y-162718853D01*
X144433481Y-162811985D01*
X144552015Y-162930519D01*
X144645147Y-163069900D01*
X144709297Y-163224772D01*
X144742000Y-163389184D01*
X144742000Y-163556816D01*
X144709297Y-163721228D01*
X144645147Y-163876100D01*
X144552015Y-164015481D01*
X144433481Y-164134015D01*
X144294100Y-164227147D01*
X144139228Y-164291297D01*
X143974816Y-164324000D01*
X143807184Y-164324000D01*
X143642772Y-164291297D01*
X143487900Y-164227147D01*
X143348519Y-164134015D01*
X143229985Y-164015481D01*
X143136853Y-163876100D01*
X143072703Y-163721228D01*
X143040000Y-163556816D01*
X143040000Y-163389184D01*
X143072703Y-163224772D01*
X143136853Y-163069900D01*
X143229985Y-162930519D01*
X143348519Y-162811985D01*
X143487900Y-162718853D01*
X143642772Y-162654703D01*
X143807184Y-162622000D01*
X143974816Y-162622000D01*
X144139228Y-162654703D01*
G37*
G36*
X131596928Y-163354764D02*
G01*
X131618009Y-163361160D01*
X131637445Y-163371548D01*
X131654476Y-163385524D01*
X131668452Y-163402555D01*
X131678840Y-163421991D01*
X131685236Y-163443072D01*
X131688000Y-163471140D01*
X131688000Y-163934860D01*
X131685236Y-163962928D01*
X131678840Y-163984009D01*
X131668452Y-164003445D01*
X131654476Y-164020476D01*
X131637445Y-164034452D01*
X131618009Y-164044840D01*
X131596928Y-164051236D01*
X131568860Y-164054000D01*
X129730140Y-164054000D01*
X129702072Y-164051236D01*
X129680991Y-164044840D01*
X129661555Y-164034452D01*
X129644524Y-164020476D01*
X129630548Y-164003445D01*
X129620160Y-163984009D01*
X129613764Y-163962928D01*
X129611000Y-163934860D01*
X129611000Y-163471140D01*
X129613764Y-163443072D01*
X129620160Y-163421991D01*
X129630548Y-163402555D01*
X129644524Y-163385524D01*
X129661555Y-163371548D01*
X129680991Y-163361160D01*
X129702072Y-163354764D01*
X129730140Y-163352000D01*
X131568860Y-163352000D01*
X131596928Y-163354764D01*
G37*
G36*
X138521928Y-163354764D02*
G01*
X138543009Y-163361160D01*
X138562445Y-163371548D01*
X138579476Y-163385524D01*
X138593452Y-163402555D01*
X138603840Y-163421991D01*
X138610236Y-163443072D01*
X138613000Y-163471140D01*
X138613000Y-163934860D01*
X138610236Y-163962928D01*
X138603840Y-163984009D01*
X138593452Y-164003445D01*
X138579476Y-164020476D01*
X138562445Y-164034452D01*
X138543009Y-164044840D01*
X138521928Y-164051236D01*
X138493860Y-164054000D01*
X136655140Y-164054000D01*
X136627072Y-164051236D01*
X136605991Y-164044840D01*
X136586555Y-164034452D01*
X136569524Y-164020476D01*
X136555548Y-164003445D01*
X136545160Y-163984009D01*
X136538764Y-163962928D01*
X136536000Y-163934860D01*
X136536000Y-163471140D01*
X136538764Y-163443072D01*
X136545160Y-163421991D01*
X136555548Y-163402555D01*
X136569524Y-163385524D01*
X136586555Y-163371548D01*
X136605991Y-163361160D01*
X136627072Y-163354764D01*
X136655140Y-163352000D01*
X138493860Y-163352000D01*
X138521928Y-163354764D01*
G37*
G36*
X90296928Y-161765764D02*
G01*
X90318009Y-161772160D01*
X90337445Y-161782548D01*
X90354476Y-161796524D01*
X90368452Y-161813555D01*
X90378840Y-161832991D01*
X90385236Y-161854072D01*
X90388000Y-161882140D01*
X90388000Y-163720860D01*
X90385236Y-163748928D01*
X90378840Y-163770009D01*
X90368452Y-163789445D01*
X90354476Y-163806476D01*
X90337445Y-163820452D01*
X90318009Y-163830840D01*
X90296928Y-163837236D01*
X90268860Y-163840000D01*
X89805140Y-163840000D01*
X89777072Y-163837236D01*
X89755991Y-163830840D01*
X89736555Y-163820452D01*
X89719524Y-163806476D01*
X89705548Y-163789445D01*
X89695160Y-163770009D01*
X89688764Y-163748928D01*
X89686000Y-163720860D01*
X89686000Y-161882140D01*
X89688764Y-161854072D01*
X89695160Y-161832991D01*
X89705548Y-161813555D01*
X89719524Y-161796524D01*
X89736555Y-161782548D01*
X89755991Y-161772160D01*
X89777072Y-161765764D01*
X89805140Y-161763000D01*
X90268860Y-161763000D01*
X90296928Y-161765764D01*
G37*
G36*
X83946928Y-161765764D02*
G01*
X83968009Y-161772160D01*
X83987445Y-161782548D01*
X84004476Y-161796524D01*
X84018452Y-161813555D01*
X84028840Y-161832991D01*
X84035236Y-161854072D01*
X84038000Y-161882140D01*
X84038000Y-163720860D01*
X84035236Y-163748928D01*
X84028840Y-163770009D01*
X84018452Y-163789445D01*
X84004476Y-163806476D01*
X83987445Y-163820452D01*
X83968009Y-163830840D01*
X83946928Y-163837236D01*
X83918860Y-163840000D01*
X83455140Y-163840000D01*
X83427072Y-163837236D01*
X83405991Y-163830840D01*
X83386555Y-163820452D01*
X83369524Y-163806476D01*
X83355548Y-163789445D01*
X83345160Y-163770009D01*
X83338764Y-163748928D01*
X83336000Y-163720860D01*
X83336000Y-161882140D01*
X83338764Y-161854072D01*
X83345160Y-161832991D01*
X83355548Y-161813555D01*
X83369524Y-161796524D01*
X83386555Y-161782548D01*
X83405991Y-161772160D01*
X83427072Y-161765764D01*
X83455140Y-161763000D01*
X83918860Y-161763000D01*
X83946928Y-161765764D01*
G37*
G36*
X81406928Y-161765764D02*
G01*
X81428009Y-161772160D01*
X81447445Y-161782548D01*
X81464476Y-161796524D01*
X81478452Y-161813555D01*
X81488840Y-161832991D01*
X81495236Y-161854072D01*
X81498000Y-161882140D01*
X81498000Y-163720860D01*
X81495236Y-163748928D01*
X81488840Y-163770009D01*
X81478452Y-163789445D01*
X81464476Y-163806476D01*
X81447445Y-163820452D01*
X81428009Y-163830840D01*
X81406928Y-163837236D01*
X81378860Y-163840000D01*
X80915140Y-163840000D01*
X80887072Y-163837236D01*
X80865991Y-163830840D01*
X80846555Y-163820452D01*
X80829524Y-163806476D01*
X80815548Y-163789445D01*
X80805160Y-163770009D01*
X80798764Y-163748928D01*
X80796000Y-163720860D01*
X80796000Y-161882140D01*
X80798764Y-161854072D01*
X80805160Y-161832991D01*
X80815548Y-161813555D01*
X80829524Y-161796524D01*
X80846555Y-161782548D01*
X80865991Y-161772160D01*
X80887072Y-161765764D01*
X80915140Y-161763000D01*
X81378860Y-161763000D01*
X81406928Y-161765764D01*
G37*
G36*
X80136928Y-161765764D02*
G01*
X80158009Y-161772160D01*
X80177445Y-161782548D01*
X80194476Y-161796524D01*
X80208452Y-161813555D01*
X80218840Y-161832991D01*
X80225236Y-161854072D01*
X80228000Y-161882140D01*
X80228000Y-163720860D01*
X80225236Y-163748928D01*
X80218840Y-163770009D01*
X80208452Y-163789445D01*
X80194476Y-163806476D01*
X80177445Y-163820452D01*
X80158009Y-163830840D01*
X80136928Y-163837236D01*
X80108860Y-163840000D01*
X79645140Y-163840000D01*
X79617072Y-163837236D01*
X79595991Y-163830840D01*
X79576555Y-163820452D01*
X79559524Y-163806476D01*
X79545548Y-163789445D01*
X79535160Y-163770009D01*
X79528764Y-163748928D01*
X79526000Y-163720860D01*
X79526000Y-161882140D01*
X79528764Y-161854072D01*
X79535160Y-161832991D01*
X79545548Y-161813555D01*
X79559524Y-161796524D01*
X79576555Y-161782548D01*
X79595991Y-161772160D01*
X79617072Y-161765764D01*
X79645140Y-161763000D01*
X80108860Y-161763000D01*
X80136928Y-161765764D01*
G37*
G36*
X82676928Y-161765764D02*
G01*
X82698009Y-161772160D01*
X82717445Y-161782548D01*
X82734476Y-161796524D01*
X82748452Y-161813555D01*
X82758840Y-161832991D01*
X82765236Y-161854072D01*
X82768000Y-161882140D01*
X82768000Y-163720860D01*
X82765236Y-163748928D01*
X82758840Y-163770009D01*
X82748452Y-163789445D01*
X82734476Y-163806476D01*
X82717445Y-163820452D01*
X82698009Y-163830840D01*
X82676928Y-163837236D01*
X82648860Y-163840000D01*
X82185140Y-163840000D01*
X82157072Y-163837236D01*
X82135991Y-163830840D01*
X82116555Y-163820452D01*
X82099524Y-163806476D01*
X82085548Y-163789445D01*
X82075160Y-163770009D01*
X82068764Y-163748928D01*
X82066000Y-163720860D01*
X82066000Y-161882140D01*
X82068764Y-161854072D01*
X82075160Y-161832991D01*
X82085548Y-161813555D01*
X82099524Y-161796524D01*
X82116555Y-161782548D01*
X82135991Y-161772160D01*
X82157072Y-161765764D01*
X82185140Y-161763000D01*
X82648860Y-161763000D01*
X82676928Y-161765764D01*
G37*
G36*
X85216928Y-161765764D02*
G01*
X85238009Y-161772160D01*
X85257445Y-161782548D01*
X85274476Y-161796524D01*
X85288452Y-161813555D01*
X85298840Y-161832991D01*
X85305236Y-161854072D01*
X85308000Y-161882140D01*
X85308000Y-163720860D01*
X85305236Y-163748928D01*
X85298840Y-163770009D01*
X85288452Y-163789445D01*
X85274476Y-163806476D01*
X85257445Y-163820452D01*
X85238009Y-163830840D01*
X85216928Y-163837236D01*
X85188860Y-163840000D01*
X84725140Y-163840000D01*
X84697072Y-163837236D01*
X84675991Y-163830840D01*
X84656555Y-163820452D01*
X84639524Y-163806476D01*
X84625548Y-163789445D01*
X84615160Y-163770009D01*
X84608764Y-163748928D01*
X84606000Y-163720860D01*
X84606000Y-161882140D01*
X84608764Y-161854072D01*
X84615160Y-161832991D01*
X84625548Y-161813555D01*
X84639524Y-161796524D01*
X84656555Y-161782548D01*
X84675991Y-161772160D01*
X84697072Y-161765764D01*
X84725140Y-161763000D01*
X85188860Y-161763000D01*
X85216928Y-161765764D01*
G37*
G36*
X86486928Y-161765764D02*
G01*
X86508009Y-161772160D01*
X86527445Y-161782548D01*
X86544476Y-161796524D01*
X86558452Y-161813555D01*
X86568840Y-161832991D01*
X86575236Y-161854072D01*
X86578000Y-161882140D01*
X86578000Y-163720860D01*
X86575236Y-163748928D01*
X86568840Y-163770009D01*
X86558452Y-163789445D01*
X86544476Y-163806476D01*
X86527445Y-163820452D01*
X86508009Y-163830840D01*
X86486928Y-163837236D01*
X86458860Y-163840000D01*
X85995140Y-163840000D01*
X85967072Y-163837236D01*
X85945991Y-163830840D01*
X85926555Y-163820452D01*
X85909524Y-163806476D01*
X85895548Y-163789445D01*
X85885160Y-163770009D01*
X85878764Y-163748928D01*
X85876000Y-163720860D01*
X85876000Y-161882140D01*
X85878764Y-161854072D01*
X85885160Y-161832991D01*
X85895548Y-161813555D01*
X85909524Y-161796524D01*
X85926555Y-161782548D01*
X85945991Y-161772160D01*
X85967072Y-161765764D01*
X85995140Y-161763000D01*
X86458860Y-161763000D01*
X86486928Y-161765764D01*
G37*
G36*
X91566928Y-161765764D02*
G01*
X91588009Y-161772160D01*
X91607445Y-161782548D01*
X91624476Y-161796524D01*
X91638452Y-161813555D01*
X91648840Y-161832991D01*
X91655236Y-161854072D01*
X91658000Y-161882140D01*
X91658000Y-163720860D01*
X91655236Y-163748928D01*
X91648840Y-163770009D01*
X91638452Y-163789445D01*
X91624476Y-163806476D01*
X91607445Y-163820452D01*
X91588009Y-163830840D01*
X91566928Y-163837236D01*
X91538860Y-163840000D01*
X91075140Y-163840000D01*
X91047072Y-163837236D01*
X91025991Y-163830840D01*
X91006555Y-163820452D01*
X90989524Y-163806476D01*
X90975548Y-163789445D01*
X90965160Y-163770009D01*
X90958764Y-163748928D01*
X90956000Y-163720860D01*
X90956000Y-161882140D01*
X90958764Y-161854072D01*
X90965160Y-161832991D01*
X90975548Y-161813555D01*
X90989524Y-161796524D01*
X91006555Y-161782548D01*
X91025991Y-161772160D01*
X91047072Y-161765764D01*
X91075140Y-161763000D01*
X91538860Y-161763000D01*
X91566928Y-161765764D01*
G37*
G36*
X87756928Y-161765764D02*
G01*
X87778009Y-161772160D01*
X87797445Y-161782548D01*
X87814476Y-161796524D01*
X87828452Y-161813555D01*
X87838840Y-161832991D01*
X87845236Y-161854072D01*
X87848000Y-161882140D01*
X87848000Y-163720860D01*
X87845236Y-163748928D01*
X87838840Y-163770009D01*
X87828452Y-163789445D01*
X87814476Y-163806476D01*
X87797445Y-163820452D01*
X87778009Y-163830840D01*
X87756928Y-163837236D01*
X87728860Y-163840000D01*
X87265140Y-163840000D01*
X87237072Y-163837236D01*
X87215991Y-163830840D01*
X87196555Y-163820452D01*
X87179524Y-163806476D01*
X87165548Y-163789445D01*
X87155160Y-163770009D01*
X87148764Y-163748928D01*
X87146000Y-163720860D01*
X87146000Y-161882140D01*
X87148764Y-161854072D01*
X87155160Y-161832991D01*
X87165548Y-161813555D01*
X87179524Y-161796524D01*
X87196555Y-161782548D01*
X87215991Y-161772160D01*
X87237072Y-161765764D01*
X87265140Y-161763000D01*
X87728860Y-161763000D01*
X87756928Y-161765764D01*
G37*
G36*
X89026928Y-161765764D02*
G01*
X89048009Y-161772160D01*
X89067445Y-161782548D01*
X89084476Y-161796524D01*
X89098452Y-161813555D01*
X89108840Y-161832991D01*
X89115236Y-161854072D01*
X89118000Y-161882140D01*
X89118000Y-163720860D01*
X89115236Y-163748928D01*
X89108840Y-163770009D01*
X89098452Y-163789445D01*
X89084476Y-163806476D01*
X89067445Y-163820452D01*
X89048009Y-163830840D01*
X89026928Y-163837236D01*
X88998860Y-163840000D01*
X88535140Y-163840000D01*
X88507072Y-163837236D01*
X88485991Y-163830840D01*
X88466555Y-163820452D01*
X88449524Y-163806476D01*
X88435548Y-163789445D01*
X88425160Y-163770009D01*
X88418764Y-163748928D01*
X88416000Y-163720860D01*
X88416000Y-161882140D01*
X88418764Y-161854072D01*
X88425160Y-161832991D01*
X88435548Y-161813555D01*
X88449524Y-161796524D01*
X88466555Y-161782548D01*
X88485991Y-161772160D01*
X88507072Y-161765764D01*
X88535140Y-161763000D01*
X88998860Y-161763000D01*
X89026928Y-161765764D01*
G37*
G36*
X146979228Y-161269703D02*
G01*
X147134100Y-161333853D01*
X147273481Y-161426985D01*
X147392015Y-161545519D01*
X147485147Y-161684900D01*
X147549297Y-161839772D01*
X147582000Y-162004184D01*
X147582000Y-162171816D01*
X147549297Y-162336228D01*
X147485147Y-162491100D01*
X147392015Y-162630481D01*
X147273481Y-162749015D01*
X147134100Y-162842147D01*
X146979228Y-162906297D01*
X146814816Y-162939000D01*
X146647184Y-162939000D01*
X146482772Y-162906297D01*
X146327900Y-162842147D01*
X146188519Y-162749015D01*
X146069985Y-162630481D01*
X145976853Y-162491100D01*
X145912703Y-162336228D01*
X145880000Y-162171816D01*
X145880000Y-162004184D01*
X145912703Y-161839772D01*
X145976853Y-161684900D01*
X146069985Y-161545519D01*
X146188519Y-161426985D01*
X146327900Y-161333853D01*
X146482772Y-161269703D01*
X146647184Y-161237000D01*
X146814816Y-161237000D01*
X146979228Y-161269703D01*
G37*
G36*
X138521928Y-162084764D02*
G01*
X138543009Y-162091160D01*
X138562445Y-162101548D01*
X138579476Y-162115524D01*
X138593452Y-162132555D01*
X138603840Y-162151991D01*
X138610236Y-162173072D01*
X138613000Y-162201140D01*
X138613000Y-162664860D01*
X138610236Y-162692928D01*
X138603840Y-162714009D01*
X138593452Y-162733445D01*
X138579476Y-162750476D01*
X138562445Y-162764452D01*
X138543009Y-162774840D01*
X138521928Y-162781236D01*
X138493860Y-162784000D01*
X136655140Y-162784000D01*
X136627072Y-162781236D01*
X136605991Y-162774840D01*
X136586555Y-162764452D01*
X136569524Y-162750476D01*
X136555548Y-162733445D01*
X136545160Y-162714009D01*
X136538764Y-162692928D01*
X136536000Y-162664860D01*
X136536000Y-162201140D01*
X136538764Y-162173072D01*
X136545160Y-162151991D01*
X136555548Y-162132555D01*
X136569524Y-162115524D01*
X136586555Y-162101548D01*
X136605991Y-162091160D01*
X136627072Y-162084764D01*
X136655140Y-162082000D01*
X138493860Y-162082000D01*
X138521928Y-162084764D01*
G37*
G36*
X131596928Y-162084764D02*
G01*
X131618009Y-162091160D01*
X131637445Y-162101548D01*
X131654476Y-162115524D01*
X131668452Y-162132555D01*
X131678840Y-162151991D01*
X131685236Y-162173072D01*
X131688000Y-162201140D01*
X131688000Y-162664860D01*
X131685236Y-162692928D01*
X131678840Y-162714009D01*
X131668452Y-162733445D01*
X131654476Y-162750476D01*
X131637445Y-162764452D01*
X131618009Y-162774840D01*
X131596928Y-162781236D01*
X131568860Y-162784000D01*
X129730140Y-162784000D01*
X129702072Y-162781236D01*
X129680991Y-162774840D01*
X129661555Y-162764452D01*
X129644524Y-162750476D01*
X129630548Y-162733445D01*
X129620160Y-162714009D01*
X129613764Y-162692928D01*
X129611000Y-162664860D01*
X129611000Y-162201140D01*
X129613764Y-162173072D01*
X129620160Y-162151991D01*
X129630548Y-162132555D01*
X129644524Y-162115524D01*
X129661555Y-162101548D01*
X129680991Y-162091160D01*
X129702072Y-162084764D01*
X129730140Y-162082000D01*
X131568860Y-162082000D01*
X131596928Y-162084764D01*
G37*
G36*
X63341252Y-160136295D02*
G01*
X63508812Y-160169624D01*
X63672784Y-160237544D01*
X63820354Y-160336147D01*
X63945853Y-160461646D01*
X64044456Y-160609216D01*
X64112376Y-160773188D01*
X64147000Y-160947259D01*
X64147000Y-161124741D01*
X64112376Y-161298812D01*
X64044456Y-161462784D01*
X63945853Y-161610354D01*
X63820354Y-161735853D01*
X63672784Y-161834456D01*
X63508812Y-161902376D01*
X63359512Y-161932073D01*
X63334742Y-161937000D01*
X63157258Y-161937000D01*
X63132488Y-161932073D01*
X62983188Y-161902376D01*
X62819216Y-161834456D01*
X62671646Y-161735853D01*
X62546147Y-161610354D01*
X62447544Y-161462784D01*
X62379624Y-161298812D01*
X62345000Y-161124741D01*
X62345000Y-160947259D01*
X62379624Y-160773188D01*
X62447544Y-160609216D01*
X62546147Y-160461646D01*
X62671646Y-160336147D01*
X62819216Y-160237544D01*
X62983188Y-160169624D01*
X63150748Y-160136295D01*
X63157258Y-160135000D01*
X63334742Y-160135000D01*
X63341252Y-160136295D01*
G37*
G36*
X65881252Y-160136295D02*
G01*
X66048812Y-160169624D01*
X66212784Y-160237544D01*
X66360354Y-160336147D01*
X66485853Y-160461646D01*
X66584456Y-160609216D01*
X66652376Y-160773188D01*
X66687000Y-160947259D01*
X66687000Y-161124741D01*
X66652376Y-161298812D01*
X66584456Y-161462784D01*
X66485853Y-161610354D01*
X66360354Y-161735853D01*
X66212784Y-161834456D01*
X66048812Y-161902376D01*
X65899512Y-161932073D01*
X65874742Y-161937000D01*
X65697258Y-161937000D01*
X65672488Y-161932073D01*
X65523188Y-161902376D01*
X65359216Y-161834456D01*
X65211646Y-161735853D01*
X65086147Y-161610354D01*
X64987544Y-161462784D01*
X64919624Y-161298812D01*
X64885000Y-161124741D01*
X64885000Y-160947259D01*
X64919624Y-160773188D01*
X64987544Y-160609216D01*
X65086147Y-160461646D01*
X65211646Y-160336147D01*
X65359216Y-160237544D01*
X65523188Y-160169624D01*
X65690748Y-160136295D01*
X65697258Y-160135000D01*
X65874742Y-160135000D01*
X65881252Y-160136295D01*
G37*
G36*
X144139228Y-159884703D02*
G01*
X144294100Y-159948853D01*
X144433481Y-160041985D01*
X144552015Y-160160519D01*
X144645147Y-160299900D01*
X144709297Y-160454772D01*
X144742000Y-160619184D01*
X144742000Y-160786816D01*
X144709297Y-160951228D01*
X144645147Y-161106100D01*
X144552015Y-161245481D01*
X144433481Y-161364015D01*
X144294100Y-161457147D01*
X144139228Y-161521297D01*
X143974816Y-161554000D01*
X143807184Y-161554000D01*
X143642772Y-161521297D01*
X143487900Y-161457147D01*
X143348519Y-161364015D01*
X143229985Y-161245481D01*
X143136853Y-161106100D01*
X143072703Y-160951228D01*
X143040000Y-160786816D01*
X143040000Y-160619184D01*
X143072703Y-160454772D01*
X143136853Y-160299900D01*
X143229985Y-160160519D01*
X143348519Y-160041985D01*
X143487900Y-159948853D01*
X143642772Y-159884703D01*
X143807184Y-159852000D01*
X143974816Y-159852000D01*
X144139228Y-159884703D01*
G37*
G36*
X138521928Y-160814764D02*
G01*
X138543009Y-160821160D01*
X138562445Y-160831548D01*
X138579476Y-160845524D01*
X138593452Y-160862555D01*
X138603840Y-160881991D01*
X138610236Y-160903072D01*
X138613000Y-160931140D01*
X138613000Y-161394860D01*
X138610236Y-161422928D01*
X138603840Y-161444009D01*
X138593452Y-161463445D01*
X138579476Y-161480476D01*
X138562445Y-161494452D01*
X138543009Y-161504840D01*
X138521928Y-161511236D01*
X138493860Y-161514000D01*
X136655140Y-161514000D01*
X136627072Y-161511236D01*
X136605991Y-161504840D01*
X136586555Y-161494452D01*
X136569524Y-161480476D01*
X136555548Y-161463445D01*
X136545160Y-161444009D01*
X136538764Y-161422928D01*
X136536000Y-161394860D01*
X136536000Y-160931140D01*
X136538764Y-160903072D01*
X136545160Y-160881991D01*
X136555548Y-160862555D01*
X136569524Y-160845524D01*
X136586555Y-160831548D01*
X136605991Y-160821160D01*
X136627072Y-160814764D01*
X136655140Y-160812000D01*
X138493860Y-160812000D01*
X138521928Y-160814764D01*
G37*
G36*
X131596928Y-160814764D02*
G01*
X131618009Y-160821160D01*
X131637445Y-160831548D01*
X131654476Y-160845524D01*
X131668452Y-160862555D01*
X131678840Y-160881991D01*
X131685236Y-160903072D01*
X131688000Y-160931140D01*
X131688000Y-161394860D01*
X131685236Y-161422928D01*
X131678840Y-161444009D01*
X131668452Y-161463445D01*
X131654476Y-161480476D01*
X131637445Y-161494452D01*
X131618009Y-161504840D01*
X131596928Y-161511236D01*
X131568860Y-161514000D01*
X129730140Y-161514000D01*
X129702072Y-161511236D01*
X129680991Y-161504840D01*
X129661555Y-161494452D01*
X129644524Y-161480476D01*
X129630548Y-161463445D01*
X129620160Y-161444009D01*
X129613764Y-161422928D01*
X129611000Y-161394860D01*
X129611000Y-160931140D01*
X129613764Y-160903072D01*
X129620160Y-160881991D01*
X129630548Y-160862555D01*
X129644524Y-160845524D01*
X129661555Y-160831548D01*
X129680991Y-160821160D01*
X129702072Y-160814764D01*
X129730140Y-160812000D01*
X131568860Y-160812000D01*
X131596928Y-160814764D01*
G37*
G36*
X131596928Y-159544764D02*
G01*
X131618009Y-159551160D01*
X131637445Y-159561548D01*
X131654476Y-159575524D01*
X131668452Y-159592555D01*
X131678840Y-159611991D01*
X131685236Y-159633072D01*
X131688000Y-159661140D01*
X131688000Y-160124860D01*
X131685236Y-160152928D01*
X131678840Y-160174009D01*
X131668452Y-160193445D01*
X131654476Y-160210476D01*
X131637445Y-160224452D01*
X131618009Y-160234840D01*
X131596928Y-160241236D01*
X131568860Y-160244000D01*
X129730140Y-160244000D01*
X129702072Y-160241236D01*
X129680991Y-160234840D01*
X129661555Y-160224452D01*
X129644524Y-160210476D01*
X129630548Y-160193445D01*
X129620160Y-160174009D01*
X129613764Y-160152928D01*
X129611000Y-160124860D01*
X129611000Y-159661140D01*
X129613764Y-159633072D01*
X129620160Y-159611991D01*
X129630548Y-159592555D01*
X129644524Y-159575524D01*
X129661555Y-159561548D01*
X129680991Y-159551160D01*
X129702072Y-159544764D01*
X129730140Y-159542000D01*
X131568860Y-159542000D01*
X131596928Y-159544764D01*
G37*
G36*
X138521928Y-159544764D02*
G01*
X138543009Y-159551160D01*
X138562445Y-159561548D01*
X138579476Y-159575524D01*
X138593452Y-159592555D01*
X138603840Y-159611991D01*
X138610236Y-159633072D01*
X138613000Y-159661140D01*
X138613000Y-160124860D01*
X138610236Y-160152928D01*
X138603840Y-160174009D01*
X138593452Y-160193445D01*
X138579476Y-160210476D01*
X138562445Y-160224452D01*
X138543009Y-160234840D01*
X138521928Y-160241236D01*
X138493860Y-160244000D01*
X136655140Y-160244000D01*
X136627072Y-160241236D01*
X136605991Y-160234840D01*
X136586555Y-160224452D01*
X136569524Y-160210476D01*
X136555548Y-160193445D01*
X136545160Y-160174009D01*
X136538764Y-160152928D01*
X136536000Y-160124860D01*
X136536000Y-159661140D01*
X136538764Y-159633072D01*
X136545160Y-159611991D01*
X136555548Y-159592555D01*
X136569524Y-159575524D01*
X136586555Y-159561548D01*
X136605991Y-159551160D01*
X136627072Y-159544764D01*
X136655140Y-159542000D01*
X138493860Y-159542000D01*
X138521928Y-159544764D01*
G37*
G36*
X146979228Y-158499703D02*
G01*
X147134100Y-158563853D01*
X147273481Y-158656985D01*
X147392015Y-158775519D01*
X147485147Y-158914900D01*
X147549297Y-159069772D01*
X147582000Y-159234184D01*
X147582000Y-159401816D01*
X147549297Y-159566228D01*
X147485147Y-159721100D01*
X147392015Y-159860481D01*
X147273481Y-159979015D01*
X147134100Y-160072147D01*
X146979228Y-160136297D01*
X146814816Y-160169000D01*
X146647184Y-160169000D01*
X146482772Y-160136297D01*
X146327900Y-160072147D01*
X146188519Y-159979015D01*
X146069985Y-159860481D01*
X145976853Y-159721100D01*
X145912703Y-159566228D01*
X145880000Y-159401816D01*
X145880000Y-159234184D01*
X145912703Y-159069772D01*
X145976853Y-158914900D01*
X146069985Y-158775519D01*
X146188519Y-158656985D01*
X146327900Y-158563853D01*
X146482772Y-158499703D01*
X146647184Y-158467000D01*
X146814816Y-158467000D01*
X146979228Y-158499703D01*
G37*
G36*
X63359512Y-157599927D02*
G01*
X63508812Y-157629624D01*
X63672784Y-157697544D01*
X63820354Y-157796147D01*
X63945853Y-157921646D01*
X64044456Y-158069216D01*
X64112376Y-158233188D01*
X64147000Y-158407259D01*
X64147000Y-158584741D01*
X64112376Y-158758812D01*
X64044456Y-158922784D01*
X63945853Y-159070354D01*
X63820354Y-159195853D01*
X63672784Y-159294456D01*
X63508812Y-159362376D01*
X63359512Y-159392073D01*
X63334742Y-159397000D01*
X63157258Y-159397000D01*
X63132488Y-159392073D01*
X62983188Y-159362376D01*
X62819216Y-159294456D01*
X62671646Y-159195853D01*
X62546147Y-159070354D01*
X62447544Y-158922784D01*
X62379624Y-158758812D01*
X62345000Y-158584741D01*
X62345000Y-158407259D01*
X62379624Y-158233188D01*
X62447544Y-158069216D01*
X62546147Y-157921646D01*
X62671646Y-157796147D01*
X62819216Y-157697544D01*
X62983188Y-157629624D01*
X63132488Y-157599927D01*
X63157258Y-157595000D01*
X63334742Y-157595000D01*
X63359512Y-157599927D01*
G37*
G36*
X65899512Y-157599927D02*
G01*
X66048812Y-157629624D01*
X66212784Y-157697544D01*
X66360354Y-157796147D01*
X66485853Y-157921646D01*
X66584456Y-158069216D01*
X66652376Y-158233188D01*
X66687000Y-158407259D01*
X66687000Y-158584741D01*
X66652376Y-158758812D01*
X66584456Y-158922784D01*
X66485853Y-159070354D01*
X66360354Y-159195853D01*
X66212784Y-159294456D01*
X66048812Y-159362376D01*
X65899512Y-159392073D01*
X65874742Y-159397000D01*
X65697258Y-159397000D01*
X65672488Y-159392073D01*
X65523188Y-159362376D01*
X65359216Y-159294456D01*
X65211646Y-159195853D01*
X65086147Y-159070354D01*
X64987544Y-158922784D01*
X64919624Y-158758812D01*
X64885000Y-158584741D01*
X64885000Y-158407259D01*
X64919624Y-158233188D01*
X64987544Y-158069216D01*
X65086147Y-157921646D01*
X65211646Y-157796147D01*
X65359216Y-157697544D01*
X65523188Y-157629624D01*
X65672488Y-157599927D01*
X65697258Y-157595000D01*
X65874742Y-157595000D01*
X65899512Y-157599927D01*
G37*
G36*
X131596928Y-158274764D02*
G01*
X131618009Y-158281160D01*
X131637445Y-158291548D01*
X131654476Y-158305524D01*
X131668452Y-158322555D01*
X131678840Y-158341991D01*
X131685236Y-158363072D01*
X131688000Y-158391140D01*
X131688000Y-158854860D01*
X131685236Y-158882928D01*
X131678840Y-158904009D01*
X131668452Y-158923445D01*
X131654476Y-158940476D01*
X131637445Y-158954452D01*
X131618009Y-158964840D01*
X131596928Y-158971236D01*
X131568860Y-158974000D01*
X129730140Y-158974000D01*
X129702072Y-158971236D01*
X129680991Y-158964840D01*
X129661555Y-158954452D01*
X129644524Y-158940476D01*
X129630548Y-158923445D01*
X129620160Y-158904009D01*
X129613764Y-158882928D01*
X129611000Y-158854860D01*
X129611000Y-158391140D01*
X129613764Y-158363072D01*
X129620160Y-158341991D01*
X129630548Y-158322555D01*
X129644524Y-158305524D01*
X129661555Y-158291548D01*
X129680991Y-158281160D01*
X129702072Y-158274764D01*
X129730140Y-158272000D01*
X131568860Y-158272000D01*
X131596928Y-158274764D01*
G37*
G36*
X138521928Y-158274764D02*
G01*
X138543009Y-158281160D01*
X138562445Y-158291548D01*
X138579476Y-158305524D01*
X138593452Y-158322555D01*
X138603840Y-158341991D01*
X138610236Y-158363072D01*
X138613000Y-158391140D01*
X138613000Y-158854860D01*
X138610236Y-158882928D01*
X138603840Y-158904009D01*
X138593452Y-158923445D01*
X138579476Y-158940476D01*
X138562445Y-158954452D01*
X138543009Y-158964840D01*
X138521928Y-158971236D01*
X138493860Y-158974000D01*
X136655140Y-158974000D01*
X136627072Y-158971236D01*
X136605991Y-158964840D01*
X136586555Y-158954452D01*
X136569524Y-158940476D01*
X136555548Y-158923445D01*
X136545160Y-158904009D01*
X136538764Y-158882928D01*
X136536000Y-158854860D01*
X136536000Y-158391140D01*
X136538764Y-158363072D01*
X136545160Y-158341991D01*
X136555548Y-158322555D01*
X136569524Y-158305524D01*
X136586555Y-158291548D01*
X136605991Y-158281160D01*
X136627072Y-158274764D01*
X136655140Y-158272000D01*
X138493860Y-158272000D01*
X138521928Y-158274764D01*
G37*
G36*
X144139228Y-157114703D02*
G01*
X144294100Y-157178853D01*
X144433481Y-157271985D01*
X144552015Y-157390519D01*
X144645147Y-157529900D01*
X144709297Y-157684772D01*
X144742000Y-157849184D01*
X144742000Y-158016816D01*
X144709297Y-158181228D01*
X144645147Y-158336100D01*
X144552015Y-158475481D01*
X144433481Y-158594015D01*
X144294100Y-158687147D01*
X144139228Y-158751297D01*
X143974816Y-158784000D01*
X143807184Y-158784000D01*
X143642772Y-158751297D01*
X143487900Y-158687147D01*
X143348519Y-158594015D01*
X143229985Y-158475481D01*
X143136853Y-158336100D01*
X143072703Y-158181228D01*
X143040000Y-158016816D01*
X143040000Y-157849184D01*
X143072703Y-157684772D01*
X143136853Y-157529900D01*
X143229985Y-157390519D01*
X143348519Y-157271985D01*
X143487900Y-157178853D01*
X143642772Y-157114703D01*
X143807184Y-157082000D01*
X143974816Y-157082000D01*
X144139228Y-157114703D01*
G37*
G36*
X138521928Y-157004764D02*
G01*
X138543009Y-157011160D01*
X138562445Y-157021548D01*
X138579476Y-157035524D01*
X138593452Y-157052555D01*
X138603840Y-157071991D01*
X138610236Y-157093072D01*
X138613000Y-157121140D01*
X138613000Y-157584860D01*
X138610236Y-157612928D01*
X138603840Y-157634009D01*
X138593452Y-157653445D01*
X138579476Y-157670476D01*
X138562445Y-157684452D01*
X138543009Y-157694840D01*
X138521928Y-157701236D01*
X138493860Y-157704000D01*
X136655140Y-157704000D01*
X136627072Y-157701236D01*
X136605991Y-157694840D01*
X136586555Y-157684452D01*
X136569524Y-157670476D01*
X136555548Y-157653445D01*
X136545160Y-157634009D01*
X136538764Y-157612928D01*
X136536000Y-157584860D01*
X136536000Y-157121140D01*
X136538764Y-157093072D01*
X136545160Y-157071991D01*
X136555548Y-157052555D01*
X136569524Y-157035524D01*
X136586555Y-157021548D01*
X136605991Y-157011160D01*
X136627072Y-157004764D01*
X136655140Y-157002000D01*
X138493860Y-157002000D01*
X138521928Y-157004764D01*
G37*
G36*
X131596928Y-157004764D02*
G01*
X131618009Y-157011160D01*
X131637445Y-157021548D01*
X131654476Y-157035524D01*
X131668452Y-157052555D01*
X131678840Y-157071991D01*
X131685236Y-157093072D01*
X131688000Y-157121140D01*
X131688000Y-157584860D01*
X131685236Y-157612928D01*
X131678840Y-157634009D01*
X131668452Y-157653445D01*
X131654476Y-157670476D01*
X131637445Y-157684452D01*
X131618009Y-157694840D01*
X131596928Y-157701236D01*
X131568860Y-157704000D01*
X129730140Y-157704000D01*
X129702072Y-157701236D01*
X129680991Y-157694840D01*
X129661555Y-157684452D01*
X129644524Y-157670476D01*
X129630548Y-157653445D01*
X129620160Y-157634009D01*
X129613764Y-157612928D01*
X129611000Y-157584860D01*
X129611000Y-157121140D01*
X129613764Y-157093072D01*
X129620160Y-157071991D01*
X129630548Y-157052555D01*
X129644524Y-157035524D01*
X129661555Y-157021548D01*
X129680991Y-157011160D01*
X129702072Y-157004764D01*
X129730140Y-157002000D01*
X131568860Y-157002000D01*
X131596928Y-157004764D01*
G37*
G36*
X146979228Y-155729703D02*
G01*
X147134100Y-155793853D01*
X147273481Y-155886985D01*
X147392015Y-156005519D01*
X147485147Y-156144900D01*
X147549297Y-156299772D01*
X147582000Y-156464184D01*
X147582000Y-156631816D01*
X147549297Y-156796228D01*
X147485147Y-156951100D01*
X147392015Y-157090481D01*
X147273481Y-157209015D01*
X147134100Y-157302147D01*
X146979228Y-157366297D01*
X146814816Y-157399000D01*
X146647184Y-157399000D01*
X146482772Y-157366297D01*
X146327900Y-157302147D01*
X146188519Y-157209015D01*
X146069985Y-157090481D01*
X145976853Y-156951100D01*
X145912703Y-156796228D01*
X145880000Y-156631816D01*
X145880000Y-156464184D01*
X145912703Y-156299772D01*
X145976853Y-156144900D01*
X146069985Y-156005519D01*
X146188519Y-155886985D01*
X146327900Y-155793853D01*
X146482772Y-155729703D01*
X146647184Y-155697000D01*
X146814816Y-155697000D01*
X146979228Y-155729703D01*
G37*
G36*
X63359512Y-155059927D02*
G01*
X63508812Y-155089624D01*
X63672784Y-155157544D01*
X63820354Y-155256147D01*
X63945853Y-155381646D01*
X64044456Y-155529216D01*
X64112376Y-155693188D01*
X64147000Y-155867259D01*
X64147000Y-156044741D01*
X64112376Y-156218812D01*
X64044456Y-156382784D01*
X63945853Y-156530354D01*
X63820354Y-156655853D01*
X63672784Y-156754456D01*
X63508812Y-156822376D01*
X63359512Y-156852073D01*
X63334742Y-156857000D01*
X63157258Y-156857000D01*
X63132488Y-156852073D01*
X62983188Y-156822376D01*
X62819216Y-156754456D01*
X62671646Y-156655853D01*
X62546147Y-156530354D01*
X62447544Y-156382784D01*
X62379624Y-156218812D01*
X62345000Y-156044741D01*
X62345000Y-155867259D01*
X62379624Y-155693188D01*
X62447544Y-155529216D01*
X62546147Y-155381646D01*
X62671646Y-155256147D01*
X62819216Y-155157544D01*
X62983188Y-155089624D01*
X63132488Y-155059927D01*
X63157258Y-155055000D01*
X63334742Y-155055000D01*
X63359512Y-155059927D01*
G37*
G36*
X65899512Y-155059927D02*
G01*
X66048812Y-155089624D01*
X66212784Y-155157544D01*
X66360354Y-155256147D01*
X66485853Y-155381646D01*
X66584456Y-155529216D01*
X66652376Y-155693188D01*
X66687000Y-155867259D01*
X66687000Y-156044741D01*
X66652376Y-156218812D01*
X66584456Y-156382784D01*
X66485853Y-156530354D01*
X66360354Y-156655853D01*
X66212784Y-156754456D01*
X66048812Y-156822376D01*
X65899512Y-156852073D01*
X65874742Y-156857000D01*
X65697258Y-156857000D01*
X65672488Y-156852073D01*
X65523188Y-156822376D01*
X65359216Y-156754456D01*
X65211646Y-156655853D01*
X65086147Y-156530354D01*
X64987544Y-156382784D01*
X64919624Y-156218812D01*
X64885000Y-156044741D01*
X64885000Y-155867259D01*
X64919624Y-155693188D01*
X64987544Y-155529216D01*
X65086147Y-155381646D01*
X65211646Y-155256147D01*
X65359216Y-155157544D01*
X65523188Y-155089624D01*
X65672488Y-155059927D01*
X65697258Y-155055000D01*
X65874742Y-155055000D01*
X65899512Y-155059927D01*
G37*
G36*
X138521928Y-155734764D02*
G01*
X138543009Y-155741160D01*
X138562445Y-155751548D01*
X138579476Y-155765524D01*
X138593452Y-155782555D01*
X138603840Y-155801991D01*
X138610236Y-155823072D01*
X138613000Y-155851140D01*
X138613000Y-156314860D01*
X138610236Y-156342928D01*
X138603840Y-156364009D01*
X138593452Y-156383445D01*
X138579476Y-156400476D01*
X138562445Y-156414452D01*
X138543009Y-156424840D01*
X138521928Y-156431236D01*
X138493860Y-156434000D01*
X136655140Y-156434000D01*
X136627072Y-156431236D01*
X136605991Y-156424840D01*
X136586555Y-156414452D01*
X136569524Y-156400476D01*
X136555548Y-156383445D01*
X136545160Y-156364009D01*
X136538764Y-156342928D01*
X136536000Y-156314860D01*
X136536000Y-155851140D01*
X136538764Y-155823072D01*
X136545160Y-155801991D01*
X136555548Y-155782555D01*
X136569524Y-155765524D01*
X136586555Y-155751548D01*
X136605991Y-155741160D01*
X136627072Y-155734764D01*
X136655140Y-155732000D01*
X138493860Y-155732000D01*
X138521928Y-155734764D01*
G37*
G36*
X131596928Y-155734764D02*
G01*
X131618009Y-155741160D01*
X131637445Y-155751548D01*
X131654476Y-155765524D01*
X131668452Y-155782555D01*
X131678840Y-155801991D01*
X131685236Y-155823072D01*
X131688000Y-155851140D01*
X131688000Y-156314860D01*
X131685236Y-156342928D01*
X131678840Y-156364009D01*
X131668452Y-156383445D01*
X131654476Y-156400476D01*
X131637445Y-156414452D01*
X131618009Y-156424840D01*
X131596928Y-156431236D01*
X131568860Y-156434000D01*
X129730140Y-156434000D01*
X129702072Y-156431236D01*
X129680991Y-156424840D01*
X129661555Y-156414452D01*
X129644524Y-156400476D01*
X129630548Y-156383445D01*
X129620160Y-156364009D01*
X129613764Y-156342928D01*
X129611000Y-156314860D01*
X129611000Y-155851140D01*
X129613764Y-155823072D01*
X129620160Y-155801991D01*
X129630548Y-155782555D01*
X129644524Y-155765524D01*
X129661555Y-155751548D01*
X129680991Y-155741160D01*
X129702072Y-155734764D01*
X129730140Y-155732000D01*
X131568860Y-155732000D01*
X131596928Y-155734764D01*
G37*
G36*
X90698000Y-156196000D02*
G01*
X89896000Y-156196000D01*
X89896000Y-154169000D01*
X90698000Y-154169000D01*
X90698000Y-156196000D01*
G37*
G36*
X82278613Y-154166598D02*
G01*
X82302999Y-154169000D01*
X83078000Y-154169000D01*
X83078000Y-156196000D01*
X82276000Y-156196000D01*
X82276000Y-154195999D01*
X82273598Y-154171613D01*
X82271414Y-154164414D01*
X82278613Y-154166598D01*
G37*
G36*
X84348000Y-156196000D02*
G01*
X83546000Y-156196000D01*
X83546000Y-154169000D01*
X84348000Y-154169000D01*
X84348000Y-156196000D01*
G37*
G36*
X85618000Y-156196000D02*
G01*
X84816000Y-156196000D01*
X84816000Y-154169000D01*
X85618000Y-154169000D01*
X85618000Y-156196000D01*
G37*
G36*
X86888000Y-156196000D02*
G01*
X86086000Y-156196000D01*
X86086000Y-154169000D01*
X86888000Y-154169000D01*
X86888000Y-156196000D01*
G37*
G36*
X88158000Y-156196000D02*
G01*
X87356000Y-156196000D01*
X87356000Y-154169000D01*
X88158000Y-154169000D01*
X88158000Y-156196000D01*
G37*
G36*
X89428000Y-156196000D02*
G01*
X88626000Y-156196000D01*
X88626000Y-154169000D01*
X89428000Y-154169000D01*
X89428000Y-156196000D01*
G37*
G36*
X91968000Y-156196000D02*
G01*
X91166000Y-156196000D01*
X91166000Y-154169000D01*
X91968000Y-154169000D01*
X91968000Y-156196000D01*
G37*
G36*
X93238000Y-156196000D02*
G01*
X92436000Y-156196000D01*
X92436000Y-154169000D01*
X93238000Y-154169000D01*
X93238000Y-156196000D01*
G37*
G36*
X94508000Y-156196000D02*
G01*
X93706000Y-156196000D01*
X93706000Y-154169000D01*
X94508000Y-154169000D01*
X94508000Y-156196000D01*
G37*
G36*
X95778000Y-156196000D02*
G01*
X94976000Y-156196000D01*
X94976000Y-154169000D01*
X95778000Y-154169000D01*
X95778000Y-156196000D01*
G37*
G36*
X97048000Y-156196000D02*
G01*
X96246000Y-156196000D01*
X96246000Y-154169000D01*
X97048000Y-154169000D01*
X97048000Y-156196000D01*
G37*
G36*
X98320402Y-154171613D02*
G01*
X98318000Y-154195999D01*
X98318000Y-156196000D01*
X97516000Y-156196000D01*
X97516000Y-154169000D01*
X98291001Y-154169000D01*
X98315387Y-154166598D01*
X98322586Y-154164414D01*
X98320402Y-154171613D01*
G37*
G36*
X144139228Y-154344703D02*
G01*
X144294100Y-154408853D01*
X144433481Y-154501985D01*
X144552015Y-154620519D01*
X144645147Y-154759900D01*
X144709297Y-154914772D01*
X144742000Y-155079184D01*
X144742000Y-155246816D01*
X144709297Y-155411228D01*
X144645147Y-155566100D01*
X144552015Y-155705481D01*
X144433481Y-155824015D01*
X144294100Y-155917147D01*
X144139228Y-155981297D01*
X143974816Y-156014000D01*
X143807184Y-156014000D01*
X143642772Y-155981297D01*
X143487900Y-155917147D01*
X143348519Y-155824015D01*
X143229985Y-155705481D01*
X143136853Y-155566100D01*
X143072703Y-155411228D01*
X143040000Y-155246816D01*
X143040000Y-155079184D01*
X143072703Y-154914772D01*
X143136853Y-154759900D01*
X143229985Y-154620519D01*
X143348519Y-154501985D01*
X143487900Y-154408853D01*
X143642772Y-154344703D01*
X143807184Y-154312000D01*
X143974816Y-154312000D01*
X144139228Y-154344703D01*
G37*
G36*
X138521928Y-154464764D02*
G01*
X138543009Y-154471160D01*
X138562445Y-154481548D01*
X138579476Y-154495524D01*
X138593452Y-154512555D01*
X138603840Y-154531991D01*
X138610236Y-154553072D01*
X138613000Y-154581140D01*
X138613000Y-155044860D01*
X138610236Y-155072928D01*
X138603840Y-155094009D01*
X138593452Y-155113445D01*
X138579476Y-155130476D01*
X138562445Y-155144452D01*
X138543009Y-155154840D01*
X138521928Y-155161236D01*
X138493860Y-155164000D01*
X136655140Y-155164000D01*
X136627072Y-155161236D01*
X136605991Y-155154840D01*
X136586555Y-155144452D01*
X136569524Y-155130476D01*
X136555548Y-155113445D01*
X136545160Y-155094009D01*
X136538764Y-155072928D01*
X136536000Y-155044860D01*
X136536000Y-154581140D01*
X136538764Y-154553072D01*
X136545160Y-154531991D01*
X136555548Y-154512555D01*
X136569524Y-154495524D01*
X136586555Y-154481548D01*
X136605991Y-154471160D01*
X136627072Y-154464764D01*
X136655140Y-154462000D01*
X138493860Y-154462000D01*
X138521928Y-154464764D01*
G37*
G36*
X131596928Y-154464764D02*
G01*
X131618009Y-154471160D01*
X131637445Y-154481548D01*
X131654476Y-154495524D01*
X131668452Y-154512555D01*
X131678840Y-154531991D01*
X131685236Y-154553072D01*
X131688000Y-154581140D01*
X131688000Y-155044860D01*
X131685236Y-155072928D01*
X131678840Y-155094009D01*
X131668452Y-155113445D01*
X131654476Y-155130476D01*
X131637445Y-155144452D01*
X131618009Y-155154840D01*
X131596928Y-155161236D01*
X131568860Y-155164000D01*
X129730140Y-155164000D01*
X129702072Y-155161236D01*
X129680991Y-155154840D01*
X129661555Y-155144452D01*
X129644524Y-155130476D01*
X129630548Y-155113445D01*
X129620160Y-155094009D01*
X129613764Y-155072928D01*
X129611000Y-155044860D01*
X129611000Y-154581140D01*
X129613764Y-154553072D01*
X129620160Y-154531991D01*
X129630548Y-154512555D01*
X129644524Y-154495524D01*
X129661555Y-154481548D01*
X129680991Y-154471160D01*
X129702072Y-154464764D01*
X129730140Y-154462000D01*
X131568860Y-154462000D01*
X131596928Y-154464764D01*
G37*
G36*
X63359512Y-152519927D02*
G01*
X63508812Y-152549624D01*
X63672784Y-152617544D01*
X63820354Y-152716147D01*
X63945853Y-152841646D01*
X64044456Y-152989216D01*
X64112376Y-153153188D01*
X64147000Y-153327259D01*
X64147000Y-153504741D01*
X64112376Y-153678812D01*
X64044456Y-153842784D01*
X63945853Y-153990354D01*
X63820354Y-154115853D01*
X63672784Y-154214456D01*
X63508812Y-154282376D01*
X63359878Y-154312000D01*
X63334742Y-154317000D01*
X63157258Y-154317000D01*
X63132122Y-154312000D01*
X62983188Y-154282376D01*
X62819216Y-154214456D01*
X62671646Y-154115853D01*
X62546147Y-153990354D01*
X62447544Y-153842784D01*
X62379624Y-153678812D01*
X62345000Y-153504741D01*
X62345000Y-153327259D01*
X62379624Y-153153188D01*
X62447544Y-152989216D01*
X62546147Y-152841646D01*
X62671646Y-152716147D01*
X62819216Y-152617544D01*
X62983188Y-152549624D01*
X63132488Y-152519927D01*
X63157258Y-152515000D01*
X63334742Y-152515000D01*
X63359512Y-152519927D01*
G37*
G36*
X65899512Y-152519927D02*
G01*
X66048812Y-152549624D01*
X66212784Y-152617544D01*
X66360354Y-152716147D01*
X66485853Y-152841646D01*
X66584456Y-152989216D01*
X66652376Y-153153188D01*
X66687000Y-153327259D01*
X66687000Y-153504741D01*
X66652376Y-153678812D01*
X66584456Y-153842784D01*
X66485853Y-153990354D01*
X66360354Y-154115853D01*
X66212784Y-154214456D01*
X66048812Y-154282376D01*
X65899878Y-154312000D01*
X65874742Y-154317000D01*
X65697258Y-154317000D01*
X65672122Y-154312000D01*
X65523188Y-154282376D01*
X65359216Y-154214456D01*
X65211646Y-154115853D01*
X65086147Y-153990354D01*
X64987544Y-153842784D01*
X64919624Y-153678812D01*
X64885000Y-153504741D01*
X64885000Y-153327259D01*
X64919624Y-153153188D01*
X64987544Y-152989216D01*
X65086147Y-152841646D01*
X65211646Y-152716147D01*
X65359216Y-152617544D01*
X65523188Y-152549624D01*
X65672488Y-152519927D01*
X65697258Y-152515000D01*
X65874742Y-152515000D01*
X65899512Y-152519927D01*
G37*
G36*
X82178000Y-154044001D02*
G01*
X82180402Y-154068387D01*
X82182586Y-154075586D01*
X82175387Y-154073402D01*
X82151001Y-154071000D01*
X80151000Y-154071000D01*
X80151000Y-153269000D01*
X82178000Y-153269000D01*
X82178000Y-154044001D01*
G37*
G36*
X100443000Y-154071000D02*
G01*
X98442999Y-154071000D01*
X98418613Y-154073402D01*
X98411414Y-154075586D01*
X98413598Y-154068387D01*
X98416000Y-154044001D01*
X98416000Y-153269000D01*
X100443000Y-153269000D01*
X100443000Y-154071000D01*
G37*
G36*
X138521928Y-153194764D02*
G01*
X138543009Y-153201160D01*
X138562445Y-153211548D01*
X138579476Y-153225524D01*
X138593452Y-153242555D01*
X138603840Y-153261991D01*
X138610236Y-153283072D01*
X138613000Y-153311140D01*
X138613000Y-153774860D01*
X138610236Y-153802928D01*
X138603840Y-153824009D01*
X138593452Y-153843445D01*
X138579476Y-153860476D01*
X138562445Y-153874452D01*
X138543009Y-153884840D01*
X138521928Y-153891236D01*
X138493860Y-153894000D01*
X136655140Y-153894000D01*
X136627072Y-153891236D01*
X136605991Y-153884840D01*
X136586555Y-153874452D01*
X136569524Y-153860476D01*
X136555548Y-153843445D01*
X136545160Y-153824009D01*
X136538764Y-153802928D01*
X136536000Y-153774860D01*
X136536000Y-153311140D01*
X136538764Y-153283072D01*
X136545160Y-153261991D01*
X136555548Y-153242555D01*
X136569524Y-153225524D01*
X136586555Y-153211548D01*
X136605991Y-153201160D01*
X136627072Y-153194764D01*
X136655140Y-153192000D01*
X138493860Y-153192000D01*
X138521928Y-153194764D01*
G37*
G36*
X131596928Y-153194764D02*
G01*
X131618009Y-153201160D01*
X131637445Y-153211548D01*
X131654476Y-153225524D01*
X131668452Y-153242555D01*
X131678840Y-153261991D01*
X131685236Y-153283072D01*
X131688000Y-153311140D01*
X131688000Y-153774860D01*
X131685236Y-153802928D01*
X131678840Y-153824009D01*
X131668452Y-153843445D01*
X131654476Y-153860476D01*
X131637445Y-153874452D01*
X131618009Y-153884840D01*
X131596928Y-153891236D01*
X131568860Y-153894000D01*
X129730140Y-153894000D01*
X129702072Y-153891236D01*
X129680991Y-153884840D01*
X129661555Y-153874452D01*
X129644524Y-153860476D01*
X129630548Y-153843445D01*
X129620160Y-153824009D01*
X129613764Y-153802928D01*
X129611000Y-153774860D01*
X129611000Y-153311140D01*
X129613764Y-153283072D01*
X129620160Y-153261991D01*
X129630548Y-153242555D01*
X129644524Y-153225524D01*
X129661555Y-153211548D01*
X129680991Y-153201160D01*
X129702072Y-153194764D01*
X129730140Y-153192000D01*
X131568860Y-153192000D01*
X131596928Y-153194764D01*
G37*
G36*
X100443000Y-152801000D02*
G01*
X98416000Y-152801000D01*
X98416000Y-151999000D01*
X100443000Y-151999000D01*
X100443000Y-152801000D01*
G37*
G36*
X82178000Y-152801000D02*
G01*
X80151000Y-152801000D01*
X80151000Y-151999000D01*
X82178000Y-151999000D01*
X82178000Y-152801000D01*
G37*
G36*
X131596928Y-151924764D02*
G01*
X131618009Y-151931160D01*
X131637445Y-151941548D01*
X131654476Y-151955524D01*
X131668452Y-151972555D01*
X131678840Y-151991991D01*
X131685236Y-152013072D01*
X131688000Y-152041140D01*
X131688000Y-152504860D01*
X131685236Y-152532928D01*
X131678840Y-152554009D01*
X131668452Y-152573445D01*
X131654476Y-152590476D01*
X131637445Y-152604452D01*
X131618009Y-152614840D01*
X131596928Y-152621236D01*
X131568860Y-152624000D01*
X129730140Y-152624000D01*
X129702072Y-152621236D01*
X129680991Y-152614840D01*
X129661555Y-152604452D01*
X129644524Y-152590476D01*
X129630548Y-152573445D01*
X129620160Y-152554009D01*
X129613764Y-152532928D01*
X129611000Y-152504860D01*
X129611000Y-152041140D01*
X129613764Y-152013072D01*
X129620160Y-151991991D01*
X129630548Y-151972555D01*
X129644524Y-151955524D01*
X129661555Y-151941548D01*
X129680991Y-151931160D01*
X129702072Y-151924764D01*
X129730140Y-151922000D01*
X131568860Y-151922000D01*
X131596928Y-151924764D01*
G37*
G36*
X138521928Y-151924764D02*
G01*
X138543009Y-151931160D01*
X138562445Y-151941548D01*
X138579476Y-151955524D01*
X138593452Y-151972555D01*
X138603840Y-151991991D01*
X138610236Y-152013072D01*
X138613000Y-152041140D01*
X138613000Y-152504860D01*
X138610236Y-152532928D01*
X138603840Y-152554009D01*
X138593452Y-152573445D01*
X138579476Y-152590476D01*
X138562445Y-152604452D01*
X138543009Y-152614840D01*
X138521928Y-152621236D01*
X138493860Y-152624000D01*
X136655140Y-152624000D01*
X136627072Y-152621236D01*
X136605991Y-152614840D01*
X136586555Y-152604452D01*
X136569524Y-152590476D01*
X136555548Y-152573445D01*
X136545160Y-152554009D01*
X136538764Y-152532928D01*
X136536000Y-152504860D01*
X136536000Y-152041140D01*
X136538764Y-152013072D01*
X136545160Y-151991991D01*
X136555548Y-151972555D01*
X136569524Y-151955524D01*
X136586555Y-151941548D01*
X136605991Y-151931160D01*
X136627072Y-151924764D01*
X136655140Y-151922000D01*
X138493860Y-151922000D01*
X138521928Y-151924764D01*
G37*
G36*
X63359512Y-149979927D02*
G01*
X63508812Y-150009624D01*
X63672784Y-150077544D01*
X63820354Y-150176147D01*
X63945853Y-150301646D01*
X64044456Y-150449216D01*
X64112376Y-150613188D01*
X64147000Y-150787259D01*
X64147000Y-150964741D01*
X64112376Y-151138812D01*
X64044456Y-151302784D01*
X63945853Y-151450354D01*
X63820354Y-151575853D01*
X63672784Y-151674456D01*
X63508812Y-151742376D01*
X63359512Y-151772073D01*
X63334742Y-151777000D01*
X63157258Y-151777000D01*
X63132488Y-151772073D01*
X62983188Y-151742376D01*
X62819216Y-151674456D01*
X62671646Y-151575853D01*
X62546147Y-151450354D01*
X62447544Y-151302784D01*
X62379624Y-151138812D01*
X62345000Y-150964741D01*
X62345000Y-150787259D01*
X62379624Y-150613188D01*
X62447544Y-150449216D01*
X62546147Y-150301646D01*
X62671646Y-150176147D01*
X62819216Y-150077544D01*
X62983188Y-150009624D01*
X63132488Y-149979927D01*
X63157258Y-149975000D01*
X63334742Y-149975000D01*
X63359512Y-149979927D01*
G37*
G36*
X65899512Y-149979927D02*
G01*
X66048812Y-150009624D01*
X66212784Y-150077544D01*
X66360354Y-150176147D01*
X66485853Y-150301646D01*
X66584456Y-150449216D01*
X66652376Y-150613188D01*
X66687000Y-150787259D01*
X66687000Y-150964741D01*
X66652376Y-151138812D01*
X66584456Y-151302784D01*
X66485853Y-151450354D01*
X66360354Y-151575853D01*
X66212784Y-151674456D01*
X66048812Y-151742376D01*
X65899512Y-151772073D01*
X65874742Y-151777000D01*
X65697258Y-151777000D01*
X65672488Y-151772073D01*
X65523188Y-151742376D01*
X65359216Y-151674456D01*
X65211646Y-151575853D01*
X65086147Y-151450354D01*
X64987544Y-151302784D01*
X64919624Y-151138812D01*
X64885000Y-150964741D01*
X64885000Y-150787259D01*
X64919624Y-150613188D01*
X64987544Y-150449216D01*
X65086147Y-150301646D01*
X65211646Y-150176147D01*
X65359216Y-150077544D01*
X65523188Y-150009624D01*
X65672488Y-149979927D01*
X65697258Y-149975000D01*
X65874742Y-149975000D01*
X65899512Y-149979927D01*
G37*
G36*
X82178000Y-151531000D02*
G01*
X80151000Y-151531000D01*
X80151000Y-150729000D01*
X82178000Y-150729000D01*
X82178000Y-151531000D01*
G37*
G36*
X100443000Y-151531000D02*
G01*
X98416000Y-151531000D01*
X98416000Y-150729000D01*
X100443000Y-150729000D01*
X100443000Y-151531000D01*
G37*
G36*
X100443000Y-150261000D02*
G01*
X98416000Y-150261000D01*
X98416000Y-149459000D01*
X100443000Y-149459000D01*
X100443000Y-150261000D01*
G37*
G36*
X82178000Y-150261000D02*
G01*
X80151000Y-150261000D01*
X80151000Y-149459000D01*
X82178000Y-149459000D01*
X82178000Y-150261000D01*
G37*
G36*
X145909254Y-146230818D02*
G01*
X146282511Y-146385426D01*
X146282513Y-146385427D01*
X146507651Y-146535860D01*
X146618436Y-146609884D01*
X146904116Y-146895564D01*
X147128574Y-147231489D01*
X147283182Y-147604746D01*
X147362000Y-148000993D01*
X147362000Y-148405007D01*
X147283182Y-148801254D01*
X147149078Y-149125009D01*
X147128573Y-149174513D01*
X146904116Y-149510436D01*
X146618436Y-149796116D01*
X146282513Y-150020573D01*
X146282512Y-150020574D01*
X146282511Y-150020574D01*
X145909254Y-150175182D01*
X145513007Y-150254000D01*
X145108993Y-150254000D01*
X144712746Y-150175182D01*
X144339489Y-150020574D01*
X144339488Y-150020574D01*
X144339487Y-150020573D01*
X144003564Y-149796116D01*
X143717884Y-149510436D01*
X143493427Y-149174513D01*
X143472922Y-149125009D01*
X143338818Y-148801254D01*
X143260000Y-148405007D01*
X143260000Y-148000993D01*
X143338818Y-147604746D01*
X143493426Y-147231489D01*
X143717884Y-146895564D01*
X144003564Y-146609884D01*
X144114349Y-146535860D01*
X144339487Y-146385427D01*
X144339489Y-146385426D01*
X144712746Y-146230818D01*
X145108993Y-146152000D01*
X145513007Y-146152000D01*
X145909254Y-146230818D01*
G37*
G36*
X63359512Y-147439927D02*
G01*
X63508812Y-147469624D01*
X63672784Y-147537544D01*
X63820354Y-147636147D01*
X63945853Y-147761646D01*
X64044456Y-147909216D01*
X64112376Y-148073188D01*
X64147000Y-148247259D01*
X64147000Y-148424741D01*
X64112376Y-148598812D01*
X64044456Y-148762784D01*
X63945853Y-148910354D01*
X63820354Y-149035853D01*
X63672784Y-149134456D01*
X63508812Y-149202376D01*
X63359512Y-149232073D01*
X63334742Y-149237000D01*
X63157258Y-149237000D01*
X63132488Y-149232073D01*
X62983188Y-149202376D01*
X62819216Y-149134456D01*
X62671646Y-149035853D01*
X62546147Y-148910354D01*
X62447544Y-148762784D01*
X62379624Y-148598812D01*
X62345000Y-148424741D01*
X62345000Y-148247259D01*
X62379624Y-148073188D01*
X62447544Y-147909216D01*
X62546147Y-147761646D01*
X62671646Y-147636147D01*
X62819216Y-147537544D01*
X62983188Y-147469624D01*
X63132488Y-147439927D01*
X63157258Y-147435000D01*
X63334742Y-147435000D01*
X63359512Y-147439927D01*
G37*
G36*
X65899512Y-147439927D02*
G01*
X66048812Y-147469624D01*
X66212784Y-147537544D01*
X66360354Y-147636147D01*
X66485853Y-147761646D01*
X66584456Y-147909216D01*
X66652376Y-148073188D01*
X66687000Y-148247259D01*
X66687000Y-148424741D01*
X66652376Y-148598812D01*
X66584456Y-148762784D01*
X66485853Y-148910354D01*
X66360354Y-149035853D01*
X66212784Y-149134456D01*
X66048812Y-149202376D01*
X65899512Y-149232073D01*
X65874742Y-149237000D01*
X65697258Y-149237000D01*
X65672488Y-149232073D01*
X65523188Y-149202376D01*
X65359216Y-149134456D01*
X65211646Y-149035853D01*
X65086147Y-148910354D01*
X64987544Y-148762784D01*
X64919624Y-148598812D01*
X64885000Y-148424741D01*
X64885000Y-148247259D01*
X64919624Y-148073188D01*
X64987544Y-147909216D01*
X65086147Y-147761646D01*
X65211646Y-147636147D01*
X65359216Y-147537544D01*
X65523188Y-147469624D01*
X65672488Y-147439927D01*
X65697258Y-147435000D01*
X65874742Y-147435000D01*
X65899512Y-147439927D01*
G37*
G36*
X137267928Y-148495764D02*
G01*
X137289009Y-148502160D01*
X137308445Y-148512548D01*
X137325476Y-148526524D01*
X137339452Y-148543555D01*
X137349840Y-148562991D01*
X137356236Y-148584072D01*
X137359000Y-148612140D01*
X137359000Y-149075860D01*
X137356236Y-149103928D01*
X137349840Y-149125009D01*
X137339452Y-149144445D01*
X137325476Y-149161476D01*
X137308445Y-149175452D01*
X137289009Y-149185840D01*
X137267928Y-149192236D01*
X137239860Y-149195000D01*
X135426140Y-149195000D01*
X135398072Y-149192236D01*
X135376991Y-149185840D01*
X135357555Y-149175452D01*
X135340524Y-149161476D01*
X135326548Y-149144445D01*
X135316160Y-149125009D01*
X135309764Y-149103928D01*
X135307000Y-149075860D01*
X135307000Y-148612140D01*
X135309764Y-148584072D01*
X135316160Y-148562991D01*
X135326548Y-148543555D01*
X135340524Y-148526524D01*
X135357555Y-148512548D01*
X135376991Y-148502160D01*
X135398072Y-148495764D01*
X135426140Y-148493000D01*
X137239860Y-148493000D01*
X137267928Y-148495764D01*
G37*
G36*
X132317928Y-148495764D02*
G01*
X132339009Y-148502160D01*
X132358445Y-148512548D01*
X132375476Y-148526524D01*
X132389452Y-148543555D01*
X132399840Y-148562991D01*
X132406236Y-148584072D01*
X132409000Y-148612140D01*
X132409000Y-149075860D01*
X132406236Y-149103928D01*
X132399840Y-149125009D01*
X132389452Y-149144445D01*
X132375476Y-149161476D01*
X132358445Y-149175452D01*
X132339009Y-149185840D01*
X132317928Y-149192236D01*
X132289860Y-149195000D01*
X130476140Y-149195000D01*
X130448072Y-149192236D01*
X130426991Y-149185840D01*
X130407555Y-149175452D01*
X130390524Y-149161476D01*
X130376548Y-149144445D01*
X130366160Y-149125009D01*
X130359764Y-149103928D01*
X130357000Y-149075860D01*
X130357000Y-148612140D01*
X130359764Y-148584072D01*
X130366160Y-148562991D01*
X130376548Y-148543555D01*
X130390524Y-148526524D01*
X130407555Y-148512548D01*
X130426991Y-148502160D01*
X130448072Y-148495764D01*
X130476140Y-148493000D01*
X132289860Y-148493000D01*
X132317928Y-148495764D01*
G37*
G36*
X100443000Y-148991000D02*
G01*
X98416000Y-148991000D01*
X98416000Y-148189000D01*
X100443000Y-148189000D01*
X100443000Y-148991000D01*
G37*
G36*
X82178000Y-148991000D02*
G01*
X80151000Y-148991000D01*
X80151000Y-148189000D01*
X82178000Y-148189000D01*
X82178000Y-148991000D01*
G37*
G36*
X137267928Y-147225764D02*
G01*
X137289009Y-147232160D01*
X137308445Y-147242548D01*
X137325476Y-147256524D01*
X137339452Y-147273555D01*
X137349840Y-147292991D01*
X137356236Y-147314072D01*
X137359000Y-147342140D01*
X137359000Y-147805860D01*
X137356236Y-147833928D01*
X137349840Y-147855009D01*
X137339452Y-147874445D01*
X137325476Y-147891476D01*
X137308445Y-147905452D01*
X137289009Y-147915840D01*
X137267928Y-147922236D01*
X137239860Y-147925000D01*
X135426140Y-147925000D01*
X135398072Y-147922236D01*
X135376991Y-147915840D01*
X135357555Y-147905452D01*
X135340524Y-147891476D01*
X135326548Y-147874445D01*
X135316160Y-147855009D01*
X135309764Y-147833928D01*
X135307000Y-147805860D01*
X135307000Y-147342140D01*
X135309764Y-147314072D01*
X135316160Y-147292991D01*
X135326548Y-147273555D01*
X135340524Y-147256524D01*
X135357555Y-147242548D01*
X135376991Y-147232160D01*
X135398072Y-147225764D01*
X135426140Y-147223000D01*
X137239860Y-147223000D01*
X137267928Y-147225764D01*
G37*
G36*
X132317928Y-147225764D02*
G01*
X132339009Y-147232160D01*
X132358445Y-147242548D01*
X132375476Y-147256524D01*
X132389452Y-147273555D01*
X132399840Y-147292991D01*
X132406236Y-147314072D01*
X132409000Y-147342140D01*
X132409000Y-147805860D01*
X132406236Y-147833928D01*
X132399840Y-147855009D01*
X132389452Y-147874445D01*
X132375476Y-147891476D01*
X132358445Y-147905452D01*
X132339009Y-147915840D01*
X132317928Y-147922236D01*
X132289860Y-147925000D01*
X130476140Y-147925000D01*
X130448072Y-147922236D01*
X130426991Y-147915840D01*
X130407555Y-147905452D01*
X130390524Y-147891476D01*
X130376548Y-147874445D01*
X130366160Y-147855009D01*
X130359764Y-147833928D01*
X130357000Y-147805860D01*
X130357000Y-147342140D01*
X130359764Y-147314072D01*
X130366160Y-147292991D01*
X130376548Y-147273555D01*
X130390524Y-147256524D01*
X130407555Y-147242548D01*
X130426991Y-147232160D01*
X130448072Y-147225764D01*
X130476140Y-147223000D01*
X132289860Y-147223000D01*
X132317928Y-147225764D01*
G37*
G36*
X82178000Y-147721000D02*
G01*
X80151000Y-147721000D01*
X80151000Y-146919000D01*
X82178000Y-146919000D01*
X82178000Y-147721000D01*
G37*
G36*
X100443000Y-147721000D02*
G01*
X98416000Y-147721000D01*
X98416000Y-146919000D01*
X100443000Y-146919000D01*
X100443000Y-147721000D01*
G37*
G36*
X63359512Y-144899927D02*
G01*
X63508812Y-144929624D01*
X63672784Y-144997544D01*
X63820354Y-145096147D01*
X63945853Y-145221646D01*
X64044456Y-145369216D01*
X64112376Y-145533188D01*
X64147000Y-145707259D01*
X64147000Y-145884741D01*
X64112376Y-146058812D01*
X64044456Y-146222784D01*
X63945853Y-146370354D01*
X63820354Y-146495853D01*
X63672784Y-146594456D01*
X63508812Y-146662376D01*
X63359512Y-146692073D01*
X63334742Y-146697000D01*
X63157258Y-146697000D01*
X63132488Y-146692073D01*
X62983188Y-146662376D01*
X62819216Y-146594456D01*
X62671646Y-146495853D01*
X62546147Y-146370354D01*
X62447544Y-146222784D01*
X62379624Y-146058812D01*
X62345000Y-145884741D01*
X62345000Y-145707259D01*
X62379624Y-145533188D01*
X62447544Y-145369216D01*
X62546147Y-145221646D01*
X62671646Y-145096147D01*
X62819216Y-144997544D01*
X62983188Y-144929624D01*
X63132488Y-144899927D01*
X63157258Y-144895000D01*
X63334742Y-144895000D01*
X63359512Y-144899927D01*
G37*
G36*
X65899512Y-144899927D02*
G01*
X66048812Y-144929624D01*
X66212784Y-144997544D01*
X66360354Y-145096147D01*
X66485853Y-145221646D01*
X66584456Y-145369216D01*
X66652376Y-145533188D01*
X66687000Y-145707259D01*
X66687000Y-145884741D01*
X66652376Y-146058812D01*
X66584456Y-146222784D01*
X66485853Y-146370354D01*
X66360354Y-146495853D01*
X66212784Y-146594456D01*
X66048812Y-146662376D01*
X65899512Y-146692073D01*
X65874742Y-146697000D01*
X65697258Y-146697000D01*
X65672488Y-146692073D01*
X65523188Y-146662376D01*
X65359216Y-146594456D01*
X65211646Y-146495853D01*
X65086147Y-146370354D01*
X64987544Y-146222784D01*
X64919624Y-146058812D01*
X64885000Y-145884741D01*
X64885000Y-145707259D01*
X64919624Y-145533188D01*
X64987544Y-145369216D01*
X65086147Y-145221646D01*
X65211646Y-145096147D01*
X65359216Y-144997544D01*
X65523188Y-144929624D01*
X65672488Y-144899927D01*
X65697258Y-144895000D01*
X65874742Y-144895000D01*
X65899512Y-144899927D01*
G37*
G36*
X132317928Y-145955764D02*
G01*
X132339009Y-145962160D01*
X132358445Y-145972548D01*
X132375476Y-145986524D01*
X132389452Y-146003555D01*
X132399840Y-146022991D01*
X132406236Y-146044072D01*
X132409000Y-146072140D01*
X132409000Y-146535860D01*
X132406236Y-146563928D01*
X132399840Y-146585009D01*
X132389452Y-146604445D01*
X132375476Y-146621476D01*
X132358445Y-146635452D01*
X132339009Y-146645840D01*
X132317928Y-146652236D01*
X132289860Y-146655000D01*
X130476140Y-146655000D01*
X130448072Y-146652236D01*
X130426991Y-146645840D01*
X130407555Y-146635452D01*
X130390524Y-146621476D01*
X130376548Y-146604445D01*
X130366160Y-146585009D01*
X130359764Y-146563928D01*
X130357000Y-146535860D01*
X130357000Y-146072140D01*
X130359764Y-146044072D01*
X130366160Y-146022991D01*
X130376548Y-146003555D01*
X130390524Y-145986524D01*
X130407555Y-145972548D01*
X130426991Y-145962160D01*
X130448072Y-145955764D01*
X130476140Y-145953000D01*
X132289860Y-145953000D01*
X132317928Y-145955764D01*
G37*
G36*
X137267928Y-145955764D02*
G01*
X137289009Y-145962160D01*
X137308445Y-145972548D01*
X137325476Y-145986524D01*
X137339452Y-146003555D01*
X137349840Y-146022991D01*
X137356236Y-146044072D01*
X137359000Y-146072140D01*
X137359000Y-146535860D01*
X137356236Y-146563928D01*
X137349840Y-146585009D01*
X137339452Y-146604445D01*
X137325476Y-146621476D01*
X137308445Y-146635452D01*
X137289009Y-146645840D01*
X137267928Y-146652236D01*
X137239860Y-146655000D01*
X135426140Y-146655000D01*
X135398072Y-146652236D01*
X135376991Y-146645840D01*
X135357555Y-146635452D01*
X135340524Y-146621476D01*
X135326548Y-146604445D01*
X135316160Y-146585009D01*
X135309764Y-146563928D01*
X135307000Y-146535860D01*
X135307000Y-146072140D01*
X135309764Y-146044072D01*
X135316160Y-146022991D01*
X135326548Y-146003555D01*
X135340524Y-145986524D01*
X135357555Y-145972548D01*
X135376991Y-145962160D01*
X135398072Y-145955764D01*
X135426140Y-145953000D01*
X137239860Y-145953000D01*
X137267928Y-145955764D01*
G37*
G36*
X100443000Y-146451000D02*
G01*
X98416000Y-146451000D01*
X98416000Y-145649000D01*
X100443000Y-145649000D01*
X100443000Y-146451000D01*
G37*
G36*
X82178000Y-146451000D02*
G01*
X80151000Y-146451000D01*
X80151000Y-145649000D01*
X82178000Y-145649000D01*
X82178000Y-146451000D01*
G37*
G36*
X137267928Y-144685764D02*
G01*
X137289009Y-144692160D01*
X137308445Y-144702548D01*
X137325476Y-144716524D01*
X137339452Y-144733555D01*
X137349840Y-144752991D01*
X137356236Y-144774072D01*
X137359000Y-144802140D01*
X137359000Y-145265860D01*
X137356236Y-145293928D01*
X137349840Y-145315009D01*
X137339452Y-145334445D01*
X137325476Y-145351476D01*
X137308445Y-145365452D01*
X137289009Y-145375840D01*
X137267928Y-145382236D01*
X137239860Y-145385000D01*
X135426140Y-145385000D01*
X135398072Y-145382236D01*
X135376991Y-145375840D01*
X135357555Y-145365452D01*
X135340524Y-145351476D01*
X135326548Y-145334445D01*
X135316160Y-145315009D01*
X135309764Y-145293928D01*
X135307000Y-145265860D01*
X135307000Y-144802140D01*
X135309764Y-144774072D01*
X135316160Y-144752991D01*
X135326548Y-144733555D01*
X135340524Y-144716524D01*
X135357555Y-144702548D01*
X135376991Y-144692160D01*
X135398072Y-144685764D01*
X135426140Y-144683000D01*
X137239860Y-144683000D01*
X137267928Y-144685764D01*
G37*
G36*
X132317928Y-144685764D02*
G01*
X132339009Y-144692160D01*
X132358445Y-144702548D01*
X132375476Y-144716524D01*
X132389452Y-144733555D01*
X132399840Y-144752991D01*
X132406236Y-144774072D01*
X132409000Y-144802140D01*
X132409000Y-145265860D01*
X132406236Y-145293928D01*
X132399840Y-145315009D01*
X132389452Y-145334445D01*
X132375476Y-145351476D01*
X132358445Y-145365452D01*
X132339009Y-145375840D01*
X132317928Y-145382236D01*
X132289860Y-145385000D01*
X130476140Y-145385000D01*
X130448072Y-145382236D01*
X130426991Y-145375840D01*
X130407555Y-145365452D01*
X130390524Y-145351476D01*
X130376548Y-145334445D01*
X130366160Y-145315009D01*
X130359764Y-145293928D01*
X130357000Y-145265860D01*
X130357000Y-144802140D01*
X130359764Y-144774072D01*
X130366160Y-144752991D01*
X130376548Y-144733555D01*
X130390524Y-144716524D01*
X130407555Y-144702548D01*
X130426991Y-144692160D01*
X130448072Y-144685764D01*
X130476140Y-144683000D01*
X132289860Y-144683000D01*
X132317928Y-144685764D01*
G37*
G36*
X100443000Y-145181000D02*
G01*
X98416000Y-145181000D01*
X98416000Y-144379000D01*
X100443000Y-144379000D01*
X100443000Y-145181000D01*
G37*
G36*
X82178000Y-145181000D02*
G01*
X80151000Y-145181000D01*
X80151000Y-144379000D01*
X82178000Y-144379000D01*
X82178000Y-145181000D01*
G37*
G36*
X63359512Y-142359927D02*
G01*
X63508812Y-142389624D01*
X63672784Y-142457544D01*
X63820354Y-142556147D01*
X63945853Y-142681646D01*
X64044456Y-142829216D01*
X64112376Y-142993188D01*
X64147000Y-143167259D01*
X64147000Y-143344741D01*
X64112376Y-143518812D01*
X64044456Y-143682784D01*
X63945853Y-143830354D01*
X63820354Y-143955853D01*
X63672784Y-144054456D01*
X63508812Y-144122376D01*
X63359512Y-144152073D01*
X63334742Y-144157000D01*
X63157258Y-144157000D01*
X63132488Y-144152073D01*
X62983188Y-144122376D01*
X62819216Y-144054456D01*
X62671646Y-143955853D01*
X62546147Y-143830354D01*
X62447544Y-143682784D01*
X62379624Y-143518812D01*
X62345000Y-143344741D01*
X62345000Y-143167259D01*
X62379624Y-142993188D01*
X62447544Y-142829216D01*
X62546147Y-142681646D01*
X62671646Y-142556147D01*
X62819216Y-142457544D01*
X62983188Y-142389624D01*
X63132488Y-142359927D01*
X63157258Y-142355000D01*
X63334742Y-142355000D01*
X63359512Y-142359927D01*
G37*
G36*
X65899512Y-142359927D02*
G01*
X66048812Y-142389624D01*
X66212784Y-142457544D01*
X66360354Y-142556147D01*
X66485853Y-142681646D01*
X66584456Y-142829216D01*
X66652376Y-142993188D01*
X66687000Y-143167259D01*
X66687000Y-143344741D01*
X66652376Y-143518812D01*
X66584456Y-143682784D01*
X66485853Y-143830354D01*
X66360354Y-143955853D01*
X66212784Y-144054456D01*
X66048812Y-144122376D01*
X65899512Y-144152073D01*
X65874742Y-144157000D01*
X65697258Y-144157000D01*
X65672488Y-144152073D01*
X65523188Y-144122376D01*
X65359216Y-144054456D01*
X65211646Y-143955853D01*
X65086147Y-143830354D01*
X64987544Y-143682784D01*
X64919624Y-143518812D01*
X64885000Y-143344741D01*
X64885000Y-143167259D01*
X64919624Y-142993188D01*
X64987544Y-142829216D01*
X65086147Y-142681646D01*
X65211646Y-142556147D01*
X65359216Y-142457544D01*
X65523188Y-142389624D01*
X65672488Y-142359927D01*
X65697258Y-142355000D01*
X65874742Y-142355000D01*
X65899512Y-142359927D01*
G37*
G36*
X137267928Y-143415764D02*
G01*
X137289009Y-143422160D01*
X137308445Y-143432548D01*
X137325476Y-143446524D01*
X137339452Y-143463555D01*
X137349840Y-143482991D01*
X137356236Y-143504072D01*
X137359000Y-143532140D01*
X137359000Y-143995860D01*
X137356236Y-144023928D01*
X137349840Y-144045009D01*
X137339452Y-144064445D01*
X137325476Y-144081476D01*
X137308445Y-144095452D01*
X137289009Y-144105840D01*
X137267928Y-144112236D01*
X137239860Y-144115000D01*
X135426140Y-144115000D01*
X135398072Y-144112236D01*
X135376991Y-144105840D01*
X135357555Y-144095452D01*
X135340524Y-144081476D01*
X135326548Y-144064445D01*
X135316160Y-144045009D01*
X135309764Y-144023928D01*
X135307000Y-143995860D01*
X135307000Y-143532140D01*
X135309764Y-143504072D01*
X135316160Y-143482991D01*
X135326548Y-143463555D01*
X135340524Y-143446524D01*
X135357555Y-143432548D01*
X135376991Y-143422160D01*
X135398072Y-143415764D01*
X135426140Y-143413000D01*
X137239860Y-143413000D01*
X137267928Y-143415764D01*
G37*
G36*
X132317928Y-143415764D02*
G01*
X132339009Y-143422160D01*
X132358445Y-143432548D01*
X132375476Y-143446524D01*
X132389452Y-143463555D01*
X132399840Y-143482991D01*
X132406236Y-143504072D01*
X132409000Y-143532140D01*
X132409000Y-143995860D01*
X132406236Y-144023928D01*
X132399840Y-144045009D01*
X132389452Y-144064445D01*
X132375476Y-144081476D01*
X132358445Y-144095452D01*
X132339009Y-144105840D01*
X132317928Y-144112236D01*
X132289860Y-144115000D01*
X130476140Y-144115000D01*
X130448072Y-144112236D01*
X130426991Y-144105840D01*
X130407555Y-144095452D01*
X130390524Y-144081476D01*
X130376548Y-144064445D01*
X130366160Y-144045009D01*
X130359764Y-144023928D01*
X130357000Y-143995860D01*
X130357000Y-143532140D01*
X130359764Y-143504072D01*
X130366160Y-143482991D01*
X130376548Y-143463555D01*
X130390524Y-143446524D01*
X130407555Y-143432548D01*
X130426991Y-143422160D01*
X130448072Y-143415764D01*
X130476140Y-143413000D01*
X132289860Y-143413000D01*
X132317928Y-143415764D01*
G37*
G36*
X82178000Y-143911000D02*
G01*
X80151000Y-143911000D01*
X80151000Y-143109000D01*
X82178000Y-143109000D01*
X82178000Y-143911000D01*
G37*
G36*
X100443000Y-143911000D02*
G01*
X98416000Y-143911000D01*
X98416000Y-143109000D01*
X100443000Y-143109000D01*
X100443000Y-143911000D01*
G37*
G36*
X137267928Y-142145764D02*
G01*
X137289009Y-142152160D01*
X137308445Y-142162548D01*
X137325476Y-142176524D01*
X137339452Y-142193555D01*
X137349840Y-142212991D01*
X137356236Y-142234072D01*
X137359000Y-142262140D01*
X137359000Y-142725860D01*
X137356236Y-142753928D01*
X137349840Y-142775009D01*
X137339452Y-142794445D01*
X137325476Y-142811476D01*
X137308445Y-142825452D01*
X137289009Y-142835840D01*
X137267928Y-142842236D01*
X137239860Y-142845000D01*
X135426140Y-142845000D01*
X135398072Y-142842236D01*
X135376991Y-142835840D01*
X135357555Y-142825452D01*
X135340524Y-142811476D01*
X135326548Y-142794445D01*
X135316160Y-142775009D01*
X135309764Y-142753928D01*
X135307000Y-142725860D01*
X135307000Y-142262140D01*
X135309764Y-142234072D01*
X135316160Y-142212991D01*
X135326548Y-142193555D01*
X135340524Y-142176524D01*
X135357555Y-142162548D01*
X135376991Y-142152160D01*
X135398072Y-142145764D01*
X135426140Y-142143000D01*
X137239860Y-142143000D01*
X137267928Y-142145764D01*
G37*
G36*
X132317928Y-142145764D02*
G01*
X132339009Y-142152160D01*
X132358445Y-142162548D01*
X132375476Y-142176524D01*
X132389452Y-142193555D01*
X132399840Y-142212991D01*
X132406236Y-142234072D01*
X132409000Y-142262140D01*
X132409000Y-142725860D01*
X132406236Y-142753928D01*
X132399840Y-142775009D01*
X132389452Y-142794445D01*
X132375476Y-142811476D01*
X132358445Y-142825452D01*
X132339009Y-142835840D01*
X132317928Y-142842236D01*
X132289860Y-142845000D01*
X130476140Y-142845000D01*
X130448072Y-142842236D01*
X130426991Y-142835840D01*
X130407555Y-142825452D01*
X130390524Y-142811476D01*
X130376548Y-142794445D01*
X130366160Y-142775009D01*
X130359764Y-142753928D01*
X130357000Y-142725860D01*
X130357000Y-142262140D01*
X130359764Y-142234072D01*
X130366160Y-142212991D01*
X130376548Y-142193555D01*
X130390524Y-142176524D01*
X130407555Y-142162548D01*
X130426991Y-142152160D01*
X130448072Y-142145764D01*
X130476140Y-142143000D01*
X132289860Y-142143000D01*
X132317928Y-142145764D01*
G37*
G36*
X82178000Y-142641000D02*
G01*
X80151000Y-142641000D01*
X80151000Y-141839000D01*
X82178000Y-141839000D01*
X82178000Y-142641000D01*
G37*
G36*
X100443000Y-142641000D02*
G01*
X98416000Y-142641000D01*
X98416000Y-141839000D01*
X100443000Y-141839000D01*
X100443000Y-142641000D01*
G37*
G36*
X145886254Y-138470818D02*
G01*
X146204848Y-138602784D01*
X146259513Y-138625427D01*
X146595436Y-138849884D01*
X146881116Y-139135564D01*
X146990321Y-139299000D01*
X147105574Y-139471489D01*
X147260182Y-139844746D01*
X147339000Y-140240993D01*
X147339000Y-140645007D01*
X147260182Y-141041254D01*
X147157002Y-141290353D01*
X147105573Y-141414513D01*
X146881116Y-141750436D01*
X146595436Y-142036116D01*
X146259513Y-142260573D01*
X146259512Y-142260574D01*
X146259511Y-142260574D01*
X145886254Y-142415182D01*
X145490007Y-142494000D01*
X145085993Y-142494000D01*
X144689746Y-142415182D01*
X144316489Y-142260574D01*
X144316488Y-142260574D01*
X144316487Y-142260573D01*
X143980564Y-142036116D01*
X143694884Y-141750436D01*
X143470427Y-141414513D01*
X143418998Y-141290353D01*
X143315818Y-141041254D01*
X143237000Y-140645007D01*
X143237000Y-140240993D01*
X143315818Y-139844746D01*
X143470426Y-139471489D01*
X143585680Y-139299000D01*
X143694884Y-139135564D01*
X143980564Y-138849884D01*
X144316487Y-138625427D01*
X144371152Y-138602784D01*
X144689746Y-138470818D01*
X145085993Y-138392000D01*
X145490007Y-138392000D01*
X145886254Y-138470818D01*
G37*
G36*
X63359512Y-139819927D02*
G01*
X63508812Y-139849624D01*
X63672784Y-139917544D01*
X63820354Y-140016147D01*
X63945853Y-140141646D01*
X64044456Y-140289216D01*
X64112376Y-140453188D01*
X64147000Y-140627259D01*
X64147000Y-140804741D01*
X64112376Y-140978812D01*
X64044456Y-141142784D01*
X63945853Y-141290354D01*
X63820354Y-141415853D01*
X63672784Y-141514456D01*
X63508812Y-141582376D01*
X63359512Y-141612073D01*
X63334742Y-141617000D01*
X63157258Y-141617000D01*
X63132488Y-141612073D01*
X62983188Y-141582376D01*
X62819216Y-141514456D01*
X62671646Y-141415853D01*
X62546147Y-141290354D01*
X62447544Y-141142784D01*
X62379624Y-140978812D01*
X62345000Y-140804741D01*
X62345000Y-140627259D01*
X62379624Y-140453188D01*
X62447544Y-140289216D01*
X62546147Y-140141646D01*
X62671646Y-140016147D01*
X62819216Y-139917544D01*
X62983188Y-139849624D01*
X63132488Y-139819927D01*
X63157258Y-139815000D01*
X63334742Y-139815000D01*
X63359512Y-139819927D01*
G37*
G36*
X65899512Y-139819927D02*
G01*
X66048812Y-139849624D01*
X66212784Y-139917544D01*
X66360354Y-140016147D01*
X66485853Y-140141646D01*
X66584456Y-140289216D01*
X66652376Y-140453188D01*
X66687000Y-140627259D01*
X66687000Y-140804741D01*
X66652376Y-140978812D01*
X66584456Y-141142784D01*
X66485853Y-141290354D01*
X66360354Y-141415853D01*
X66212784Y-141514456D01*
X66048812Y-141582376D01*
X65899512Y-141612073D01*
X65874742Y-141617000D01*
X65697258Y-141617000D01*
X65672488Y-141612073D01*
X65523188Y-141582376D01*
X65359216Y-141514456D01*
X65211646Y-141415853D01*
X65086147Y-141290354D01*
X64987544Y-141142784D01*
X64919624Y-140978812D01*
X64885000Y-140804741D01*
X64885000Y-140627259D01*
X64919624Y-140453188D01*
X64987544Y-140289216D01*
X65086147Y-140141646D01*
X65211646Y-140016147D01*
X65359216Y-139917544D01*
X65523188Y-139849624D01*
X65672488Y-139819927D01*
X65697258Y-139815000D01*
X65874742Y-139815000D01*
X65899512Y-139819927D01*
G37*
G36*
X137267928Y-140875764D02*
G01*
X137289009Y-140882160D01*
X137308445Y-140892548D01*
X137325476Y-140906524D01*
X137339452Y-140923555D01*
X137349840Y-140942991D01*
X137356236Y-140964072D01*
X137359000Y-140992140D01*
X137359000Y-141455860D01*
X137356236Y-141483928D01*
X137349840Y-141505009D01*
X137339452Y-141524445D01*
X137325476Y-141541476D01*
X137308445Y-141555452D01*
X137289009Y-141565840D01*
X137267928Y-141572236D01*
X137239860Y-141575000D01*
X135426140Y-141575000D01*
X135398072Y-141572236D01*
X135376991Y-141565840D01*
X135357555Y-141555452D01*
X135340524Y-141541476D01*
X135326548Y-141524445D01*
X135316160Y-141505009D01*
X135309764Y-141483928D01*
X135307000Y-141455860D01*
X135307000Y-140992140D01*
X135309764Y-140964072D01*
X135316160Y-140942991D01*
X135326548Y-140923555D01*
X135340524Y-140906524D01*
X135357555Y-140892548D01*
X135376991Y-140882160D01*
X135398072Y-140875764D01*
X135426140Y-140873000D01*
X137239860Y-140873000D01*
X137267928Y-140875764D01*
G37*
G36*
X132317928Y-140875764D02*
G01*
X132339009Y-140882160D01*
X132358445Y-140892548D01*
X132375476Y-140906524D01*
X132389452Y-140923555D01*
X132399840Y-140942991D01*
X132406236Y-140964072D01*
X132409000Y-140992140D01*
X132409000Y-141455860D01*
X132406236Y-141483928D01*
X132399840Y-141505009D01*
X132389452Y-141524445D01*
X132375476Y-141541476D01*
X132358445Y-141555452D01*
X132339009Y-141565840D01*
X132317928Y-141572236D01*
X132289860Y-141575000D01*
X130476140Y-141575000D01*
X130448072Y-141572236D01*
X130426991Y-141565840D01*
X130407555Y-141555452D01*
X130390524Y-141541476D01*
X130376548Y-141524445D01*
X130366160Y-141505009D01*
X130359764Y-141483928D01*
X130357000Y-141455860D01*
X130357000Y-140992140D01*
X130359764Y-140964072D01*
X130366160Y-140942991D01*
X130376548Y-140923555D01*
X130390524Y-140906524D01*
X130407555Y-140892548D01*
X130426991Y-140882160D01*
X130448072Y-140875764D01*
X130476140Y-140873000D01*
X132289860Y-140873000D01*
X132317928Y-140875764D01*
G37*
G36*
X82178000Y-141371000D02*
G01*
X80151000Y-141371000D01*
X80151000Y-140569000D01*
X82178000Y-140569000D01*
X82178000Y-141371000D01*
G37*
G36*
X100443000Y-141371000D02*
G01*
X98416000Y-141371000D01*
X98416000Y-140569000D01*
X100443000Y-140569000D01*
X100443000Y-141371000D01*
G37*
G36*
X100443000Y-140101000D02*
G01*
X98416000Y-140101000D01*
X98416000Y-139299000D01*
X100443000Y-139299000D01*
X100443000Y-140101000D01*
G37*
G36*
X82178000Y-140101000D02*
G01*
X80151000Y-140101000D01*
X80151000Y-139299000D01*
X82178000Y-139299000D01*
X82178000Y-140101000D01*
G37*
G36*
X65899512Y-137279927D02*
G01*
X66048812Y-137309624D01*
X66212784Y-137377544D01*
X66360354Y-137476147D01*
X66485853Y-137601646D01*
X66584456Y-137749216D01*
X66652376Y-137913188D01*
X66687000Y-138087259D01*
X66687000Y-138264741D01*
X66652376Y-138438812D01*
X66584456Y-138602784D01*
X66485853Y-138750354D01*
X66360354Y-138875853D01*
X66212784Y-138974456D01*
X66048812Y-139042376D01*
X65899512Y-139072073D01*
X65874742Y-139077000D01*
X65697258Y-139077000D01*
X65672488Y-139072073D01*
X65523188Y-139042376D01*
X65359216Y-138974456D01*
X65211646Y-138875853D01*
X65086147Y-138750354D01*
X64987544Y-138602784D01*
X64919624Y-138438812D01*
X64885000Y-138264741D01*
X64885000Y-138087259D01*
X64919624Y-137913188D01*
X64987544Y-137749216D01*
X65086147Y-137601646D01*
X65211646Y-137476147D01*
X65359216Y-137377544D01*
X65523188Y-137309624D01*
X65672488Y-137279927D01*
X65697258Y-137275000D01*
X65874742Y-137275000D01*
X65899512Y-137279927D01*
G37*
G36*
X63359512Y-137279927D02*
G01*
X63508812Y-137309624D01*
X63672784Y-137377544D01*
X63820354Y-137476147D01*
X63945853Y-137601646D01*
X64044456Y-137749216D01*
X64112376Y-137913188D01*
X64147000Y-138087259D01*
X64147000Y-138264741D01*
X64112376Y-138438812D01*
X64044456Y-138602784D01*
X63945853Y-138750354D01*
X63820354Y-138875853D01*
X63672784Y-138974456D01*
X63508812Y-139042376D01*
X63359512Y-139072073D01*
X63334742Y-139077000D01*
X63157258Y-139077000D01*
X63132488Y-139072073D01*
X62983188Y-139042376D01*
X62819216Y-138974456D01*
X62671646Y-138875853D01*
X62546147Y-138750354D01*
X62447544Y-138602784D01*
X62379624Y-138438812D01*
X62345000Y-138264741D01*
X62345000Y-138087259D01*
X62379624Y-137913188D01*
X62447544Y-137749216D01*
X62546147Y-137601646D01*
X62671646Y-137476147D01*
X62819216Y-137377544D01*
X62983188Y-137309624D01*
X63132488Y-137279927D01*
X63157258Y-137275000D01*
X63334742Y-137275000D01*
X63359512Y-137279927D01*
G37*
G36*
X98418613Y-138026598D02*
G01*
X98442999Y-138029000D01*
X100443000Y-138029000D01*
X100443000Y-138831000D01*
X98416000Y-138831000D01*
X98416000Y-138055999D01*
X98413598Y-138031613D01*
X98411414Y-138024414D01*
X98418613Y-138026598D01*
G37*
G36*
X82180402Y-138031613D02*
G01*
X82178000Y-138055999D01*
X82178000Y-138831000D01*
X80151000Y-138831000D01*
X80151000Y-138029000D01*
X82151001Y-138029000D01*
X82175387Y-138026598D01*
X82182586Y-138024414D01*
X82180402Y-138031613D01*
G37*
G36*
X132317928Y-137700764D02*
G01*
X132339009Y-137707160D01*
X132358445Y-137717548D01*
X132375476Y-137731524D01*
X132389452Y-137748555D01*
X132399840Y-137767991D01*
X132406236Y-137789072D01*
X132409000Y-137817140D01*
X132409000Y-138280860D01*
X132406236Y-138308928D01*
X132399840Y-138330009D01*
X132389452Y-138349445D01*
X132375476Y-138366476D01*
X132358445Y-138380452D01*
X132339009Y-138390840D01*
X132317928Y-138397236D01*
X132289860Y-138400000D01*
X130476140Y-138400000D01*
X130448072Y-138397236D01*
X130426991Y-138390840D01*
X130407555Y-138380452D01*
X130390524Y-138366476D01*
X130376548Y-138349445D01*
X130366160Y-138330009D01*
X130359764Y-138308928D01*
X130357000Y-138280860D01*
X130357000Y-137817140D01*
X130359764Y-137789072D01*
X130366160Y-137767991D01*
X130376548Y-137748555D01*
X130390524Y-137731524D01*
X130407555Y-137717548D01*
X130426991Y-137707160D01*
X130448072Y-137700764D01*
X130476140Y-137698000D01*
X132289860Y-137698000D01*
X132317928Y-137700764D01*
G37*
G36*
X137267928Y-137700764D02*
G01*
X137289009Y-137707160D01*
X137308445Y-137717548D01*
X137325476Y-137731524D01*
X137339452Y-137748555D01*
X137349840Y-137767991D01*
X137356236Y-137789072D01*
X137359000Y-137817140D01*
X137359000Y-138280860D01*
X137356236Y-138308928D01*
X137349840Y-138330009D01*
X137339452Y-138349445D01*
X137325476Y-138366476D01*
X137308445Y-138380452D01*
X137289009Y-138390840D01*
X137267928Y-138397236D01*
X137239860Y-138400000D01*
X135426140Y-138400000D01*
X135398072Y-138397236D01*
X135376991Y-138390840D01*
X135357555Y-138380452D01*
X135340524Y-138366476D01*
X135326548Y-138349445D01*
X135316160Y-138330009D01*
X135309764Y-138308928D01*
X135307000Y-138280860D01*
X135307000Y-137817140D01*
X135309764Y-137789072D01*
X135316160Y-137767991D01*
X135326548Y-137748555D01*
X135340524Y-137731524D01*
X135357555Y-137717548D01*
X135376991Y-137707160D01*
X135398072Y-137700764D01*
X135426140Y-137698000D01*
X137239860Y-137698000D01*
X137267928Y-137700764D01*
G37*
G36*
X83078000Y-137931000D02*
G01*
X82302999Y-137931000D01*
X82278613Y-137933402D01*
X82271414Y-137935586D01*
X82273598Y-137928387D01*
X82276000Y-137904001D01*
X82276000Y-135904000D01*
X83078000Y-135904000D01*
X83078000Y-137931000D01*
G37*
G36*
X98318000Y-137904001D02*
G01*
X98320402Y-137928387D01*
X98322586Y-137935586D01*
X98315387Y-137933402D01*
X98291001Y-137931000D01*
X97516000Y-137931000D01*
X97516000Y-135904000D01*
X98318000Y-135904000D01*
X98318000Y-137904001D01*
G37*
G36*
X93238000Y-137931000D02*
G01*
X92436000Y-137931000D01*
X92436000Y-135904000D01*
X93238000Y-135904000D01*
X93238000Y-137931000D01*
G37*
G36*
X84348000Y-137931000D02*
G01*
X83546000Y-137931000D01*
X83546000Y-135904000D01*
X84348000Y-135904000D01*
X84348000Y-137931000D01*
G37*
G36*
X85618000Y-137931000D02*
G01*
X84816000Y-137931000D01*
X84816000Y-135904000D01*
X85618000Y-135904000D01*
X85618000Y-137931000D01*
G37*
G36*
X86888000Y-137931000D02*
G01*
X86086000Y-137931000D01*
X86086000Y-135904000D01*
X86888000Y-135904000D01*
X86888000Y-137931000D01*
G37*
G36*
X88158000Y-137931000D02*
G01*
X87356000Y-137931000D01*
X87356000Y-135904000D01*
X88158000Y-135904000D01*
X88158000Y-137931000D01*
G37*
G36*
X89428000Y-137931000D02*
G01*
X88626000Y-137931000D01*
X88626000Y-135904000D01*
X89428000Y-135904000D01*
X89428000Y-137931000D01*
G37*
G36*
X94508000Y-137931000D02*
G01*
X93706000Y-137931000D01*
X93706000Y-135904000D01*
X94508000Y-135904000D01*
X94508000Y-137931000D01*
G37*
G36*
X91968000Y-137931000D02*
G01*
X91166000Y-137931000D01*
X91166000Y-135904000D01*
X91968000Y-135904000D01*
X91968000Y-137931000D01*
G37*
G36*
X90698000Y-137931000D02*
G01*
X89896000Y-137931000D01*
X89896000Y-135904000D01*
X90698000Y-135904000D01*
X90698000Y-137931000D01*
G37*
G36*
X95778000Y-137931000D02*
G01*
X94976000Y-137931000D01*
X94976000Y-135904000D01*
X95778000Y-135904000D01*
X95778000Y-137931000D01*
G37*
G36*
X97048000Y-137931000D02*
G01*
X96246000Y-137931000D01*
X96246000Y-135904000D01*
X97048000Y-135904000D01*
X97048000Y-137931000D01*
G37*
G36*
X132317928Y-136430764D02*
G01*
X132339009Y-136437160D01*
X132358445Y-136447548D01*
X132375476Y-136461524D01*
X132389452Y-136478555D01*
X132399840Y-136497991D01*
X132406236Y-136519072D01*
X132409000Y-136547140D01*
X132409000Y-137010860D01*
X132406236Y-137038928D01*
X132399840Y-137060009D01*
X132389452Y-137079445D01*
X132375476Y-137096476D01*
X132358445Y-137110452D01*
X132339009Y-137120840D01*
X132317928Y-137127236D01*
X132289860Y-137130000D01*
X130476140Y-137130000D01*
X130448072Y-137127236D01*
X130426991Y-137120840D01*
X130407555Y-137110452D01*
X130390524Y-137096476D01*
X130376548Y-137079445D01*
X130366160Y-137060009D01*
X130359764Y-137038928D01*
X130357000Y-137010860D01*
X130357000Y-136547140D01*
X130359764Y-136519072D01*
X130366160Y-136497991D01*
X130376548Y-136478555D01*
X130390524Y-136461524D01*
X130407555Y-136447548D01*
X130426991Y-136437160D01*
X130448072Y-136430764D01*
X130476140Y-136428000D01*
X132289860Y-136428000D01*
X132317928Y-136430764D01*
G37*
G36*
X137267928Y-136430764D02*
G01*
X137289009Y-136437160D01*
X137308445Y-136447548D01*
X137325476Y-136461524D01*
X137339452Y-136478555D01*
X137349840Y-136497991D01*
X137356236Y-136519072D01*
X137359000Y-136547140D01*
X137359000Y-137010860D01*
X137356236Y-137038928D01*
X137349840Y-137060009D01*
X137339452Y-137079445D01*
X137325476Y-137096476D01*
X137308445Y-137110452D01*
X137289009Y-137120840D01*
X137267928Y-137127236D01*
X137239860Y-137130000D01*
X135426140Y-137130000D01*
X135398072Y-137127236D01*
X135376991Y-137120840D01*
X135357555Y-137110452D01*
X135340524Y-137096476D01*
X135326548Y-137079445D01*
X135316160Y-137060009D01*
X135309764Y-137038928D01*
X135307000Y-137010860D01*
X135307000Y-136547140D01*
X135309764Y-136519072D01*
X135316160Y-136497991D01*
X135326548Y-136478555D01*
X135340524Y-136461524D01*
X135357555Y-136447548D01*
X135376991Y-136437160D01*
X135398072Y-136430764D01*
X135426140Y-136428000D01*
X137239860Y-136428000D01*
X137267928Y-136430764D01*
G37*
G36*
X137267928Y-135160764D02*
G01*
X137289009Y-135167160D01*
X137308445Y-135177548D01*
X137325476Y-135191524D01*
X137339452Y-135208555D01*
X137349840Y-135227991D01*
X137356236Y-135249072D01*
X137359000Y-135277140D01*
X137359000Y-135740860D01*
X137356236Y-135768928D01*
X137349840Y-135790009D01*
X137339452Y-135809445D01*
X137325476Y-135826476D01*
X137308445Y-135840452D01*
X137289009Y-135850840D01*
X137267928Y-135857236D01*
X137239860Y-135860000D01*
X135426140Y-135860000D01*
X135398072Y-135857236D01*
X135376991Y-135850840D01*
X135357555Y-135840452D01*
X135340524Y-135826476D01*
X135326548Y-135809445D01*
X135316160Y-135790009D01*
X135309764Y-135768928D01*
X135307000Y-135740860D01*
X135307000Y-135277140D01*
X135309764Y-135249072D01*
X135316160Y-135227991D01*
X135326548Y-135208555D01*
X135340524Y-135191524D01*
X135357555Y-135177548D01*
X135376991Y-135167160D01*
X135398072Y-135160764D01*
X135426140Y-135158000D01*
X137239860Y-135158000D01*
X137267928Y-135160764D01*
G37*
G36*
X132317928Y-135160764D02*
G01*
X132339009Y-135167160D01*
X132358445Y-135177548D01*
X132375476Y-135191524D01*
X132389452Y-135208555D01*
X132399840Y-135227991D01*
X132406236Y-135249072D01*
X132409000Y-135277140D01*
X132409000Y-135740860D01*
X132406236Y-135768928D01*
X132399840Y-135790009D01*
X132389452Y-135809445D01*
X132375476Y-135826476D01*
X132358445Y-135840452D01*
X132339009Y-135850840D01*
X132317928Y-135857236D01*
X132289860Y-135860000D01*
X130476140Y-135860000D01*
X130448072Y-135857236D01*
X130426991Y-135850840D01*
X130407555Y-135840452D01*
X130390524Y-135826476D01*
X130376548Y-135809445D01*
X130366160Y-135790009D01*
X130359764Y-135768928D01*
X130357000Y-135740860D01*
X130357000Y-135277140D01*
X130359764Y-135249072D01*
X130366160Y-135227991D01*
X130376548Y-135208555D01*
X130390524Y-135191524D01*
X130407555Y-135177548D01*
X130426991Y-135167160D01*
X130448072Y-135160764D01*
X130476140Y-135158000D01*
X132289860Y-135158000D01*
X132317928Y-135160764D01*
G37*
G36*
X132317928Y-133890764D02*
G01*
X132339009Y-133897160D01*
X132358445Y-133907548D01*
X132375476Y-133921524D01*
X132389452Y-133938555D01*
X132399840Y-133957991D01*
X132406236Y-133979072D01*
X132409000Y-134007140D01*
X132409000Y-134470860D01*
X132406236Y-134498928D01*
X132399840Y-134520009D01*
X132389452Y-134539445D01*
X132375476Y-134556476D01*
X132358445Y-134570452D01*
X132339009Y-134580840D01*
X132317928Y-134587236D01*
X132289860Y-134590000D01*
X130476140Y-134590000D01*
X130448072Y-134587236D01*
X130426991Y-134580840D01*
X130407555Y-134570452D01*
X130390524Y-134556476D01*
X130376548Y-134539445D01*
X130366160Y-134520009D01*
X130359764Y-134498928D01*
X130357000Y-134470860D01*
X130357000Y-134007140D01*
X130359764Y-133979072D01*
X130366160Y-133957991D01*
X130376548Y-133938555D01*
X130390524Y-133921524D01*
X130407555Y-133907548D01*
X130426991Y-133897160D01*
X130448072Y-133890764D01*
X130476140Y-133888000D01*
X132289860Y-133888000D01*
X132317928Y-133890764D01*
G37*
G36*
X137267928Y-133890764D02*
G01*
X137289009Y-133897160D01*
X137308445Y-133907548D01*
X137325476Y-133921524D01*
X137339452Y-133938555D01*
X137349840Y-133957991D01*
X137356236Y-133979072D01*
X137359000Y-134007140D01*
X137359000Y-134470860D01*
X137356236Y-134498928D01*
X137349840Y-134520009D01*
X137339452Y-134539445D01*
X137325476Y-134556476D01*
X137308445Y-134570452D01*
X137289009Y-134580840D01*
X137267928Y-134587236D01*
X137239860Y-134590000D01*
X135426140Y-134590000D01*
X135398072Y-134587236D01*
X135376991Y-134580840D01*
X135357555Y-134570452D01*
X135340524Y-134556476D01*
X135326548Y-134539445D01*
X135316160Y-134520009D01*
X135309764Y-134498928D01*
X135307000Y-134470860D01*
X135307000Y-134007140D01*
X135309764Y-133979072D01*
X135316160Y-133957991D01*
X135326548Y-133938555D01*
X135340524Y-133921524D01*
X135357555Y-133907548D01*
X135376991Y-133897160D01*
X135398072Y-133890764D01*
X135426140Y-133888000D01*
X137239860Y-133888000D01*
X137267928Y-133890764D01*
G37*
G36*
X144719000Y-134334000D02*
G01*
X143017000Y-134334000D01*
X143017000Y-132632000D01*
X144719000Y-132632000D01*
X144719000Y-134334000D01*
G37*
G36*
X146956228Y-131279703D02*
G01*
X147111100Y-131343853D01*
X147250481Y-131436985D01*
X147369015Y-131555519D01*
X147462147Y-131694900D01*
X147526297Y-131849772D01*
X147559000Y-132014184D01*
X147559000Y-132181816D01*
X147526297Y-132346228D01*
X147462147Y-132501100D01*
X147369015Y-132640481D01*
X147250481Y-132759015D01*
X147111100Y-132852147D01*
X146956228Y-132916297D01*
X146791816Y-132949000D01*
X146624184Y-132949000D01*
X146459772Y-132916297D01*
X146304900Y-132852147D01*
X146165519Y-132759015D01*
X146046985Y-132640481D01*
X145953853Y-132501100D01*
X145889703Y-132346228D01*
X145857000Y-132181816D01*
X145857000Y-132014184D01*
X145889703Y-131849772D01*
X145953853Y-131694900D01*
X146046985Y-131555519D01*
X146165519Y-131436985D01*
X146304900Y-131343853D01*
X146459772Y-131279703D01*
X146624184Y-131247000D01*
X146791816Y-131247000D01*
X146956228Y-131279703D01*
G37*
G36*
X108809000Y-131986000D02*
G01*
X108107000Y-131986000D01*
X108107000Y-130384000D01*
X108809000Y-130384000D01*
X108809000Y-131986000D01*
G37*
G36*
X104999000Y-131986000D02*
G01*
X104297000Y-131986000D01*
X104297000Y-130384000D01*
X104999000Y-130384000D01*
X104999000Y-131986000D01*
G37*
G36*
X103729000Y-131986000D02*
G01*
X103027000Y-131986000D01*
X103027000Y-130384000D01*
X103729000Y-130384000D01*
X103729000Y-131986000D01*
G37*
G36*
X107539000Y-131986000D02*
G01*
X106837000Y-131986000D01*
X106837000Y-130384000D01*
X107539000Y-130384000D01*
X107539000Y-131986000D01*
G37*
G36*
X110079000Y-131986000D02*
G01*
X109377000Y-131986000D01*
X109377000Y-130384000D01*
X110079000Y-130384000D01*
X110079000Y-131986000D01*
G37*
G36*
X111349000Y-131986000D02*
G01*
X110647000Y-131986000D01*
X110647000Y-130384000D01*
X111349000Y-130384000D01*
X111349000Y-131986000D01*
G37*
G36*
X112619000Y-131986000D02*
G01*
X111917000Y-131986000D01*
X111917000Y-130384000D01*
X112619000Y-130384000D01*
X112619000Y-131986000D01*
G37*
G36*
X106269000Y-131986000D02*
G01*
X105567000Y-131986000D01*
X105567000Y-130384000D01*
X106269000Y-130384000D01*
X106269000Y-131986000D01*
G37*
G36*
X144116228Y-129894703D02*
G01*
X144271100Y-129958853D01*
X144410481Y-130051985D01*
X144529015Y-130170519D01*
X144622147Y-130309900D01*
X144686297Y-130464772D01*
X144719000Y-130629184D01*
X144719000Y-130796816D01*
X144686297Y-130961228D01*
X144622147Y-131116100D01*
X144529015Y-131255481D01*
X144410481Y-131374015D01*
X144271100Y-131467147D01*
X144116228Y-131531297D01*
X143951816Y-131564000D01*
X143784184Y-131564000D01*
X143619772Y-131531297D01*
X143464900Y-131467147D01*
X143325519Y-131374015D01*
X143206985Y-131255481D01*
X143113853Y-131116100D01*
X143049703Y-130961228D01*
X143017000Y-130796816D01*
X143017000Y-130629184D01*
X143049703Y-130464772D01*
X143113853Y-130309900D01*
X143206985Y-130170519D01*
X143325519Y-130051985D01*
X143464900Y-129958853D01*
X143619772Y-129894703D01*
X143784184Y-129862000D01*
X143951816Y-129862000D01*
X144116228Y-129894703D01*
G37*
G36*
X138267928Y-130588764D02*
G01*
X138289009Y-130595160D01*
X138308445Y-130605548D01*
X138325476Y-130619524D01*
X138339452Y-130636555D01*
X138349840Y-130655991D01*
X138356236Y-130677072D01*
X138359000Y-130705140D01*
X138359000Y-131168860D01*
X138356236Y-131196928D01*
X138349840Y-131218009D01*
X138339452Y-131237445D01*
X138325476Y-131254476D01*
X138308445Y-131268452D01*
X138289009Y-131278840D01*
X138267928Y-131285236D01*
X138239860Y-131288000D01*
X136401140Y-131288000D01*
X136373072Y-131285236D01*
X136351991Y-131278840D01*
X136332555Y-131268452D01*
X136315524Y-131254476D01*
X136301548Y-131237445D01*
X136291160Y-131218009D01*
X136284764Y-131196928D01*
X136282000Y-131168860D01*
X136282000Y-130705140D01*
X136284764Y-130677072D01*
X136291160Y-130655991D01*
X136301548Y-130636555D01*
X136315524Y-130619524D01*
X136332555Y-130605548D01*
X136351991Y-130595160D01*
X136373072Y-130588764D01*
X136401140Y-130586000D01*
X138239860Y-130586000D01*
X138267928Y-130588764D01*
G37*
G36*
X131342928Y-130588764D02*
G01*
X131364009Y-130595160D01*
X131383445Y-130605548D01*
X131400476Y-130619524D01*
X131414452Y-130636555D01*
X131424840Y-130655991D01*
X131431236Y-130677072D01*
X131434000Y-130705140D01*
X131434000Y-131168860D01*
X131431236Y-131196928D01*
X131424840Y-131218009D01*
X131414452Y-131237445D01*
X131400476Y-131254476D01*
X131383445Y-131268452D01*
X131364009Y-131278840D01*
X131342928Y-131285236D01*
X131314860Y-131288000D01*
X129476140Y-131288000D01*
X129448072Y-131285236D01*
X129426991Y-131278840D01*
X129407555Y-131268452D01*
X129390524Y-131254476D01*
X129376548Y-131237445D01*
X129366160Y-131218009D01*
X129359764Y-131196928D01*
X129357000Y-131168860D01*
X129357000Y-130705140D01*
X129359764Y-130677072D01*
X129366160Y-130655991D01*
X129376548Y-130636555D01*
X129390524Y-130619524D01*
X129407555Y-130605548D01*
X129426991Y-130595160D01*
X129448072Y-130588764D01*
X129476140Y-130586000D01*
X131314860Y-130586000D01*
X131342928Y-130588764D01*
G37*
G36*
X146956228Y-128509703D02*
G01*
X147111100Y-128573853D01*
X147250481Y-128666985D01*
X147369015Y-128785519D01*
X147462147Y-128924900D01*
X147526297Y-129079772D01*
X147559000Y-129244184D01*
X147559000Y-129411816D01*
X147526297Y-129576228D01*
X147462147Y-129731100D01*
X147369015Y-129870481D01*
X147250481Y-129989015D01*
X147111100Y-130082147D01*
X146956228Y-130146297D01*
X146791816Y-130179000D01*
X146624184Y-130179000D01*
X146459772Y-130146297D01*
X146304900Y-130082147D01*
X146165519Y-129989015D01*
X146046985Y-129870481D01*
X145953853Y-129731100D01*
X145889703Y-129576228D01*
X145857000Y-129411816D01*
X145857000Y-129244184D01*
X145889703Y-129079772D01*
X145953853Y-128924900D01*
X146046985Y-128785519D01*
X146165519Y-128666985D01*
X146304900Y-128573853D01*
X146459772Y-128509703D01*
X146624184Y-128477000D01*
X146791816Y-128477000D01*
X146956228Y-128509703D01*
G37*
G36*
X138267928Y-129318764D02*
G01*
X138289009Y-129325160D01*
X138308445Y-129335548D01*
X138325476Y-129349524D01*
X138339452Y-129366555D01*
X138349840Y-129385991D01*
X138356236Y-129407072D01*
X138359000Y-129435140D01*
X138359000Y-129898860D01*
X138356236Y-129926928D01*
X138349840Y-129948009D01*
X138339452Y-129967445D01*
X138325476Y-129984476D01*
X138308445Y-129998452D01*
X138289009Y-130008840D01*
X138267928Y-130015236D01*
X138239860Y-130018000D01*
X136401140Y-130018000D01*
X136373072Y-130015236D01*
X136351991Y-130008840D01*
X136332555Y-129998452D01*
X136315524Y-129984476D01*
X136301548Y-129967445D01*
X136291160Y-129948009D01*
X136284764Y-129926928D01*
X136282000Y-129898860D01*
X136282000Y-129435140D01*
X136284764Y-129407072D01*
X136291160Y-129385991D01*
X136301548Y-129366555D01*
X136315524Y-129349524D01*
X136332555Y-129335548D01*
X136351991Y-129325160D01*
X136373072Y-129318764D01*
X136401140Y-129316000D01*
X138239860Y-129316000D01*
X138267928Y-129318764D01*
G37*
G36*
X131342928Y-129318764D02*
G01*
X131364009Y-129325160D01*
X131383445Y-129335548D01*
X131400476Y-129349524D01*
X131414452Y-129366555D01*
X131424840Y-129385991D01*
X131431236Y-129407072D01*
X131434000Y-129435140D01*
X131434000Y-129898860D01*
X131431236Y-129926928D01*
X131424840Y-129948009D01*
X131414452Y-129967445D01*
X131400476Y-129984476D01*
X131383445Y-129998452D01*
X131364009Y-130008840D01*
X131342928Y-130015236D01*
X131314860Y-130018000D01*
X129476140Y-130018000D01*
X129448072Y-130015236D01*
X129426991Y-130008840D01*
X129407555Y-129998452D01*
X129390524Y-129984476D01*
X129376548Y-129967445D01*
X129366160Y-129948009D01*
X129359764Y-129926928D01*
X129357000Y-129898860D01*
X129357000Y-129435140D01*
X129359764Y-129407072D01*
X129366160Y-129385991D01*
X129376548Y-129366555D01*
X129390524Y-129349524D01*
X129407555Y-129335548D01*
X129426991Y-129325160D01*
X129448072Y-129318764D01*
X129476140Y-129316000D01*
X131314860Y-129316000D01*
X131342928Y-129318764D01*
G37*
G36*
X144116228Y-127124703D02*
G01*
X144271100Y-127188853D01*
X144410481Y-127281985D01*
X144529015Y-127400519D01*
X144622147Y-127539900D01*
X144686297Y-127694772D01*
X144719000Y-127859184D01*
X144719000Y-128026816D01*
X144686297Y-128191228D01*
X144622147Y-128346100D01*
X144529015Y-128485481D01*
X144410481Y-128604015D01*
X144271100Y-128697147D01*
X144116228Y-128761297D01*
X143951816Y-128794000D01*
X143784184Y-128794000D01*
X143619772Y-128761297D01*
X143464900Y-128697147D01*
X143325519Y-128604015D01*
X143206985Y-128485481D01*
X143113853Y-128346100D01*
X143049703Y-128191228D01*
X143017000Y-128026816D01*
X143017000Y-127859184D01*
X143049703Y-127694772D01*
X143113853Y-127539900D01*
X143206985Y-127400519D01*
X143325519Y-127281985D01*
X143464900Y-127188853D01*
X143619772Y-127124703D01*
X143784184Y-127092000D01*
X143951816Y-127092000D01*
X144116228Y-127124703D01*
G37*
G36*
X131342928Y-128048764D02*
G01*
X131364009Y-128055160D01*
X131383445Y-128065548D01*
X131400476Y-128079524D01*
X131414452Y-128096555D01*
X131424840Y-128115991D01*
X131431236Y-128137072D01*
X131434000Y-128165140D01*
X131434000Y-128628860D01*
X131431236Y-128656928D01*
X131424840Y-128678009D01*
X131414452Y-128697445D01*
X131400476Y-128714476D01*
X131383445Y-128728452D01*
X131364009Y-128738840D01*
X131342928Y-128745236D01*
X131314860Y-128748000D01*
X129476140Y-128748000D01*
X129448072Y-128745236D01*
X129426991Y-128738840D01*
X129407555Y-128728452D01*
X129390524Y-128714476D01*
X129376548Y-128697445D01*
X129366160Y-128678009D01*
X129359764Y-128656928D01*
X129357000Y-128628860D01*
X129357000Y-128165140D01*
X129359764Y-128137072D01*
X129366160Y-128115991D01*
X129376548Y-128096555D01*
X129390524Y-128079524D01*
X129407555Y-128065548D01*
X129426991Y-128055160D01*
X129448072Y-128048764D01*
X129476140Y-128046000D01*
X131314860Y-128046000D01*
X131342928Y-128048764D01*
G37*
G36*
X138267928Y-128048764D02*
G01*
X138289009Y-128055160D01*
X138308445Y-128065548D01*
X138325476Y-128079524D01*
X138339452Y-128096555D01*
X138349840Y-128115991D01*
X138356236Y-128137072D01*
X138359000Y-128165140D01*
X138359000Y-128628860D01*
X138356236Y-128656928D01*
X138349840Y-128678009D01*
X138339452Y-128697445D01*
X138325476Y-128714476D01*
X138308445Y-128728452D01*
X138289009Y-128738840D01*
X138267928Y-128745236D01*
X138239860Y-128748000D01*
X136401140Y-128748000D01*
X136373072Y-128745236D01*
X136351991Y-128738840D01*
X136332555Y-128728452D01*
X136315524Y-128714476D01*
X136301548Y-128697445D01*
X136291160Y-128678009D01*
X136284764Y-128656928D01*
X136282000Y-128628860D01*
X136282000Y-128165140D01*
X136284764Y-128137072D01*
X136291160Y-128115991D01*
X136301548Y-128096555D01*
X136315524Y-128079524D01*
X136332555Y-128065548D01*
X136351991Y-128055160D01*
X136373072Y-128048764D01*
X136401140Y-128046000D01*
X138239860Y-128046000D01*
X138267928Y-128048764D01*
G37*
G36*
X131342928Y-126778764D02*
G01*
X131364009Y-126785160D01*
X131383445Y-126795548D01*
X131400476Y-126809524D01*
X131414452Y-126826555D01*
X131424840Y-126845991D01*
X131431236Y-126867072D01*
X131434000Y-126895140D01*
X131434000Y-127358860D01*
X131431236Y-127386928D01*
X131424840Y-127408009D01*
X131414452Y-127427445D01*
X131400476Y-127444476D01*
X131383445Y-127458452D01*
X131364009Y-127468840D01*
X131342928Y-127475236D01*
X131314860Y-127478000D01*
X129476140Y-127478000D01*
X129448072Y-127475236D01*
X129426991Y-127468840D01*
X129407555Y-127458452D01*
X129390524Y-127444476D01*
X129376548Y-127427445D01*
X129366160Y-127408009D01*
X129359764Y-127386928D01*
X129357000Y-127358860D01*
X129357000Y-126895140D01*
X129359764Y-126867072D01*
X129366160Y-126845991D01*
X129376548Y-126826555D01*
X129390524Y-126809524D01*
X129407555Y-126795548D01*
X129426991Y-126785160D01*
X129448072Y-126778764D01*
X129476140Y-126776000D01*
X131314860Y-126776000D01*
X131342928Y-126778764D01*
G37*
G36*
X138267928Y-126778764D02*
G01*
X138289009Y-126785160D01*
X138308445Y-126795548D01*
X138325476Y-126809524D01*
X138339452Y-126826555D01*
X138349840Y-126845991D01*
X138356236Y-126867072D01*
X138359000Y-126895140D01*
X138359000Y-127358860D01*
X138356236Y-127386928D01*
X138349840Y-127408009D01*
X138339452Y-127427445D01*
X138325476Y-127444476D01*
X138308445Y-127458452D01*
X138289009Y-127468840D01*
X138267928Y-127475236D01*
X138239860Y-127478000D01*
X136401140Y-127478000D01*
X136373072Y-127475236D01*
X136351991Y-127468840D01*
X136332555Y-127458452D01*
X136315524Y-127444476D01*
X136301548Y-127427445D01*
X136291160Y-127408009D01*
X136284764Y-127386928D01*
X136282000Y-127358860D01*
X136282000Y-126895140D01*
X136284764Y-126867072D01*
X136291160Y-126845991D01*
X136301548Y-126826555D01*
X136315524Y-126809524D01*
X136332555Y-126795548D01*
X136351991Y-126785160D01*
X136373072Y-126778764D01*
X136401140Y-126776000D01*
X138239860Y-126776000D01*
X138267928Y-126778764D01*
G37*
G36*
X146956228Y-125739703D02*
G01*
X147111100Y-125803853D01*
X147250481Y-125896985D01*
X147369015Y-126015519D01*
X147462147Y-126154900D01*
X147526297Y-126309772D01*
X147559000Y-126474184D01*
X147559000Y-126641816D01*
X147526297Y-126806228D01*
X147462147Y-126961100D01*
X147369015Y-127100481D01*
X147250481Y-127219015D01*
X147111100Y-127312147D01*
X146956228Y-127376297D01*
X146791816Y-127409000D01*
X146624184Y-127409000D01*
X146459772Y-127376297D01*
X146304900Y-127312147D01*
X146165519Y-127219015D01*
X146046985Y-127100481D01*
X145953853Y-126961100D01*
X145889703Y-126806228D01*
X145857000Y-126641816D01*
X145857000Y-126474184D01*
X145889703Y-126309772D01*
X145953853Y-126154900D01*
X146046985Y-126015519D01*
X146165519Y-125896985D01*
X146304900Y-125803853D01*
X146459772Y-125739703D01*
X146624184Y-125707000D01*
X146791816Y-125707000D01*
X146956228Y-125739703D01*
G37*
G36*
X138267928Y-125508764D02*
G01*
X138289009Y-125515160D01*
X138308445Y-125525548D01*
X138325476Y-125539524D01*
X138339452Y-125556555D01*
X138349840Y-125575991D01*
X138356236Y-125597072D01*
X138359000Y-125625140D01*
X138359000Y-126088860D01*
X138356236Y-126116928D01*
X138349840Y-126138009D01*
X138339452Y-126157445D01*
X138325476Y-126174476D01*
X138308445Y-126188452D01*
X138289009Y-126198840D01*
X138267928Y-126205236D01*
X138239860Y-126208000D01*
X136401140Y-126208000D01*
X136373072Y-126205236D01*
X136351991Y-126198840D01*
X136332555Y-126188452D01*
X136315524Y-126174476D01*
X136301548Y-126157445D01*
X136291160Y-126138009D01*
X136284764Y-126116928D01*
X136282000Y-126088860D01*
X136282000Y-125625140D01*
X136284764Y-125597072D01*
X136291160Y-125575991D01*
X136301548Y-125556555D01*
X136315524Y-125539524D01*
X136332555Y-125525548D01*
X136351991Y-125515160D01*
X136373072Y-125508764D01*
X136401140Y-125506000D01*
X138239860Y-125506000D01*
X138267928Y-125508764D01*
G37*
G36*
X131342928Y-125508764D02*
G01*
X131364009Y-125515160D01*
X131383445Y-125525548D01*
X131400476Y-125539524D01*
X131414452Y-125556555D01*
X131424840Y-125575991D01*
X131431236Y-125597072D01*
X131434000Y-125625140D01*
X131434000Y-126088860D01*
X131431236Y-126116928D01*
X131424840Y-126138009D01*
X131414452Y-126157445D01*
X131400476Y-126174476D01*
X131383445Y-126188452D01*
X131364009Y-126198840D01*
X131342928Y-126205236D01*
X131314860Y-126208000D01*
X129476140Y-126208000D01*
X129448072Y-126205236D01*
X129426991Y-126198840D01*
X129407555Y-126188452D01*
X129390524Y-126174476D01*
X129376548Y-126157445D01*
X129366160Y-126138009D01*
X129359764Y-126116928D01*
X129357000Y-126088860D01*
X129357000Y-125625140D01*
X129359764Y-125597072D01*
X129366160Y-125575991D01*
X129376548Y-125556555D01*
X129390524Y-125539524D01*
X129407555Y-125525548D01*
X129426991Y-125515160D01*
X129448072Y-125508764D01*
X129476140Y-125506000D01*
X131314860Y-125506000D01*
X131342928Y-125508764D01*
G37*
G36*
X144116228Y-124354703D02*
G01*
X144271100Y-124418853D01*
X144410481Y-124511985D01*
X144529015Y-124630519D01*
X144622147Y-124769900D01*
X144686297Y-124924772D01*
X144719000Y-125089184D01*
X144719000Y-125256816D01*
X144686297Y-125421228D01*
X144622147Y-125576100D01*
X144529015Y-125715481D01*
X144410481Y-125834015D01*
X144271100Y-125927147D01*
X144116228Y-125991297D01*
X143951816Y-126024000D01*
X143784184Y-126024000D01*
X143619772Y-125991297D01*
X143464900Y-125927147D01*
X143325519Y-125834015D01*
X143206985Y-125715481D01*
X143113853Y-125576100D01*
X143049703Y-125421228D01*
X143017000Y-125256816D01*
X143017000Y-125089184D01*
X143049703Y-124924772D01*
X143113853Y-124769900D01*
X143206985Y-124630519D01*
X143325519Y-124511985D01*
X143464900Y-124418853D01*
X143619772Y-124354703D01*
X143784184Y-124322000D01*
X143951816Y-124322000D01*
X144116228Y-124354703D01*
G37*
G36*
X131342928Y-124238764D02*
G01*
X131364009Y-124245160D01*
X131383445Y-124255548D01*
X131400476Y-124269524D01*
X131414452Y-124286555D01*
X131424840Y-124305991D01*
X131431236Y-124327072D01*
X131434000Y-124355140D01*
X131434000Y-124818860D01*
X131431236Y-124846928D01*
X131424840Y-124868009D01*
X131414452Y-124887445D01*
X131400476Y-124904476D01*
X131383445Y-124918452D01*
X131364009Y-124928840D01*
X131342928Y-124935236D01*
X131314860Y-124938000D01*
X129476140Y-124938000D01*
X129448072Y-124935236D01*
X129426991Y-124928840D01*
X129407555Y-124918452D01*
X129390524Y-124904476D01*
X129376548Y-124887445D01*
X129366160Y-124868009D01*
X129359764Y-124846928D01*
X129357000Y-124818860D01*
X129357000Y-124355140D01*
X129359764Y-124327072D01*
X129366160Y-124305991D01*
X129376548Y-124286555D01*
X129390524Y-124269524D01*
X129407555Y-124255548D01*
X129426991Y-124245160D01*
X129448072Y-124238764D01*
X129476140Y-124236000D01*
X131314860Y-124236000D01*
X131342928Y-124238764D01*
G37*
G36*
X138267928Y-124238764D02*
G01*
X138289009Y-124245160D01*
X138308445Y-124255548D01*
X138325476Y-124269524D01*
X138339452Y-124286555D01*
X138349840Y-124305991D01*
X138356236Y-124327072D01*
X138359000Y-124355140D01*
X138359000Y-124818860D01*
X138356236Y-124846928D01*
X138349840Y-124868009D01*
X138339452Y-124887445D01*
X138325476Y-124904476D01*
X138308445Y-124918452D01*
X138289009Y-124928840D01*
X138267928Y-124935236D01*
X138239860Y-124938000D01*
X136401140Y-124938000D01*
X136373072Y-124935236D01*
X136351991Y-124928840D01*
X136332555Y-124918452D01*
X136315524Y-124904476D01*
X136301548Y-124887445D01*
X136291160Y-124868009D01*
X136284764Y-124846928D01*
X136282000Y-124818860D01*
X136282000Y-124355140D01*
X136284764Y-124327072D01*
X136291160Y-124305991D01*
X136301548Y-124286555D01*
X136315524Y-124269524D01*
X136332555Y-124255548D01*
X136351991Y-124245160D01*
X136373072Y-124238764D01*
X136401140Y-124236000D01*
X138239860Y-124236000D01*
X138267928Y-124238764D01*
G37*
G36*
X110079000Y-124886000D02*
G01*
X109377000Y-124886000D01*
X109377000Y-123284000D01*
X110079000Y-123284000D01*
X110079000Y-124886000D01*
G37*
G36*
X112619000Y-124886000D02*
G01*
X111917000Y-124886000D01*
X111917000Y-123284000D01*
X112619000Y-123284000D01*
X112619000Y-124886000D01*
G37*
G36*
X111349000Y-124886000D02*
G01*
X110647000Y-124886000D01*
X110647000Y-123284000D01*
X111349000Y-123284000D01*
X111349000Y-124886000D01*
G37*
G36*
X108809000Y-124886000D02*
G01*
X108107000Y-124886000D01*
X108107000Y-123284000D01*
X108809000Y-123284000D01*
X108809000Y-124886000D01*
G37*
G36*
X107539000Y-124886000D02*
G01*
X106837000Y-124886000D01*
X106837000Y-123284000D01*
X107539000Y-123284000D01*
X107539000Y-124886000D01*
G37*
G36*
X106269000Y-124886000D02*
G01*
X105567000Y-124886000D01*
X105567000Y-123284000D01*
X106269000Y-123284000D01*
X106269000Y-124886000D01*
G37*
G36*
X104999000Y-124886000D02*
G01*
X104297000Y-124886000D01*
X104297000Y-123284000D01*
X104999000Y-123284000D01*
X104999000Y-124886000D01*
G37*
G36*
X103729000Y-124886000D02*
G01*
X103027000Y-124886000D01*
X103027000Y-123284000D01*
X103729000Y-123284000D01*
X103729000Y-124886000D01*
G37*
G36*
X146956228Y-122969703D02*
G01*
X147111100Y-123033853D01*
X147250481Y-123126985D01*
X147369015Y-123245519D01*
X147462147Y-123384900D01*
X147526297Y-123539772D01*
X147559000Y-123704184D01*
X147559000Y-123871816D01*
X147526297Y-124036228D01*
X147462147Y-124191100D01*
X147369015Y-124330481D01*
X147250481Y-124449015D01*
X147111100Y-124542147D01*
X146956228Y-124606297D01*
X146791816Y-124639000D01*
X146624184Y-124639000D01*
X146459772Y-124606297D01*
X146304900Y-124542147D01*
X146165519Y-124449015D01*
X146046985Y-124330481D01*
X145953853Y-124191100D01*
X145889703Y-124036228D01*
X145857000Y-123871816D01*
X145857000Y-123704184D01*
X145889703Y-123539772D01*
X145953853Y-123384900D01*
X146046985Y-123245519D01*
X146165519Y-123126985D01*
X146304900Y-123033853D01*
X146459772Y-122969703D01*
X146624184Y-122937000D01*
X146791816Y-122937000D01*
X146956228Y-122969703D01*
G37*
G36*
X131342928Y-122968764D02*
G01*
X131364009Y-122975160D01*
X131383445Y-122985548D01*
X131400476Y-122999524D01*
X131414452Y-123016555D01*
X131424840Y-123035991D01*
X131431236Y-123057072D01*
X131434000Y-123085140D01*
X131434000Y-123548860D01*
X131431236Y-123576928D01*
X131424840Y-123598009D01*
X131414452Y-123617445D01*
X131400476Y-123634476D01*
X131383445Y-123648452D01*
X131364009Y-123658840D01*
X131342928Y-123665236D01*
X131314860Y-123668000D01*
X129476140Y-123668000D01*
X129448072Y-123665236D01*
X129426991Y-123658840D01*
X129407555Y-123648452D01*
X129390524Y-123634476D01*
X129376548Y-123617445D01*
X129366160Y-123598009D01*
X129359764Y-123576928D01*
X129357000Y-123548860D01*
X129357000Y-123085140D01*
X129359764Y-123057072D01*
X129366160Y-123035991D01*
X129376548Y-123016555D01*
X129390524Y-122999524D01*
X129407555Y-122985548D01*
X129426991Y-122975160D01*
X129448072Y-122968764D01*
X129476140Y-122966000D01*
X131314860Y-122966000D01*
X131342928Y-122968764D01*
G37*
G36*
X138267928Y-122968764D02*
G01*
X138289009Y-122975160D01*
X138308445Y-122985548D01*
X138325476Y-122999524D01*
X138339452Y-123016555D01*
X138349840Y-123035991D01*
X138356236Y-123057072D01*
X138359000Y-123085140D01*
X138359000Y-123548860D01*
X138356236Y-123576928D01*
X138349840Y-123598009D01*
X138339452Y-123617445D01*
X138325476Y-123634476D01*
X138308445Y-123648452D01*
X138289009Y-123658840D01*
X138267928Y-123665236D01*
X138239860Y-123668000D01*
X136401140Y-123668000D01*
X136373072Y-123665236D01*
X136351991Y-123658840D01*
X136332555Y-123648452D01*
X136315524Y-123634476D01*
X136301548Y-123617445D01*
X136291160Y-123598009D01*
X136284764Y-123576928D01*
X136282000Y-123548860D01*
X136282000Y-123085140D01*
X136284764Y-123057072D01*
X136291160Y-123035991D01*
X136301548Y-123016555D01*
X136315524Y-122999524D01*
X136332555Y-122985548D01*
X136351991Y-122975160D01*
X136373072Y-122968764D01*
X136401140Y-122966000D01*
X138239860Y-122966000D01*
X138267928Y-122968764D01*
G37*
G36*
X144116228Y-121584703D02*
G01*
X144271100Y-121648853D01*
X144410481Y-121741985D01*
X144529015Y-121860519D01*
X144622147Y-121999900D01*
X144686297Y-122154772D01*
X144719000Y-122319184D01*
X144719000Y-122486816D01*
X144686297Y-122651228D01*
X144622147Y-122806100D01*
X144529015Y-122945481D01*
X144410481Y-123064015D01*
X144271100Y-123157147D01*
X144116228Y-123221297D01*
X143951816Y-123254000D01*
X143784184Y-123254000D01*
X143619772Y-123221297D01*
X143464900Y-123157147D01*
X143325519Y-123064015D01*
X143206985Y-122945481D01*
X143113853Y-122806100D01*
X143049703Y-122651228D01*
X143017000Y-122486816D01*
X143017000Y-122319184D01*
X143049703Y-122154772D01*
X143113853Y-121999900D01*
X143206985Y-121860519D01*
X143325519Y-121741985D01*
X143464900Y-121648853D01*
X143619772Y-121584703D01*
X143784184Y-121552000D01*
X143951816Y-121552000D01*
X144116228Y-121584703D01*
G37*
G36*
X138267928Y-121698764D02*
G01*
X138289009Y-121705160D01*
X138308445Y-121715548D01*
X138325476Y-121729524D01*
X138339452Y-121746555D01*
X138349840Y-121765991D01*
X138356236Y-121787072D01*
X138359000Y-121815140D01*
X138359000Y-122278860D01*
X138356236Y-122306928D01*
X138349840Y-122328009D01*
X138339452Y-122347445D01*
X138325476Y-122364476D01*
X138308445Y-122378452D01*
X138289009Y-122388840D01*
X138267928Y-122395236D01*
X138239860Y-122398000D01*
X136401140Y-122398000D01*
X136373072Y-122395236D01*
X136351991Y-122388840D01*
X136332555Y-122378452D01*
X136315524Y-122364476D01*
X136301548Y-122347445D01*
X136291160Y-122328009D01*
X136284764Y-122306928D01*
X136282000Y-122278860D01*
X136282000Y-121815140D01*
X136284764Y-121787072D01*
X136291160Y-121765991D01*
X136301548Y-121746555D01*
X136315524Y-121729524D01*
X136332555Y-121715548D01*
X136351991Y-121705160D01*
X136373072Y-121698764D01*
X136401140Y-121696000D01*
X138239860Y-121696000D01*
X138267928Y-121698764D01*
G37*
G36*
X131342928Y-121698764D02*
G01*
X131364009Y-121705160D01*
X131383445Y-121715548D01*
X131400476Y-121729524D01*
X131414452Y-121746555D01*
X131424840Y-121765991D01*
X131431236Y-121787072D01*
X131434000Y-121815140D01*
X131434000Y-122278860D01*
X131431236Y-122306928D01*
X131424840Y-122328009D01*
X131414452Y-122347445D01*
X131400476Y-122364476D01*
X131383445Y-122378452D01*
X131364009Y-122388840D01*
X131342928Y-122395236D01*
X131314860Y-122398000D01*
X129476140Y-122398000D01*
X129448072Y-122395236D01*
X129426991Y-122388840D01*
X129407555Y-122378452D01*
X129390524Y-122364476D01*
X129376548Y-122347445D01*
X129366160Y-122328009D01*
X129359764Y-122306928D01*
X129357000Y-122278860D01*
X129357000Y-121815140D01*
X129359764Y-121787072D01*
X129366160Y-121765991D01*
X129376548Y-121746555D01*
X129390524Y-121729524D01*
X129407555Y-121715548D01*
X129426991Y-121705160D01*
X129448072Y-121698764D01*
X129476140Y-121696000D01*
X131314860Y-121696000D01*
X131342928Y-121698764D01*
G37*
G36*
X138267928Y-120428764D02*
G01*
X138289009Y-120435160D01*
X138308445Y-120445548D01*
X138325476Y-120459524D01*
X138339452Y-120476555D01*
X138349840Y-120495991D01*
X138356236Y-120517072D01*
X138359000Y-120545140D01*
X138359000Y-121008860D01*
X138356236Y-121036928D01*
X138349840Y-121058009D01*
X138339452Y-121077445D01*
X138325476Y-121094476D01*
X138308445Y-121108452D01*
X138289009Y-121118840D01*
X138267928Y-121125236D01*
X138239860Y-121128000D01*
X136401140Y-121128000D01*
X136373072Y-121125236D01*
X136351991Y-121118840D01*
X136332555Y-121108452D01*
X136315524Y-121094476D01*
X136301548Y-121077445D01*
X136291160Y-121058009D01*
X136284764Y-121036928D01*
X136282000Y-121008860D01*
X136282000Y-120545140D01*
X136284764Y-120517072D01*
X136291160Y-120495991D01*
X136301548Y-120476555D01*
X136315524Y-120459524D01*
X136332555Y-120445548D01*
X136351991Y-120435160D01*
X136373072Y-120428764D01*
X136401140Y-120426000D01*
X138239860Y-120426000D01*
X138267928Y-120428764D01*
G37*
G36*
X131342928Y-120428764D02*
G01*
X131364009Y-120435160D01*
X131383445Y-120445548D01*
X131400476Y-120459524D01*
X131414452Y-120476555D01*
X131424840Y-120495991D01*
X131431236Y-120517072D01*
X131434000Y-120545140D01*
X131434000Y-121008860D01*
X131431236Y-121036928D01*
X131424840Y-121058009D01*
X131414452Y-121077445D01*
X131400476Y-121094476D01*
X131383445Y-121108452D01*
X131364009Y-121118840D01*
X131342928Y-121125236D01*
X131314860Y-121128000D01*
X129476140Y-121128000D01*
X129448072Y-121125236D01*
X129426991Y-121118840D01*
X129407555Y-121108452D01*
X129390524Y-121094476D01*
X129376548Y-121077445D01*
X129366160Y-121058009D01*
X129359764Y-121036928D01*
X129357000Y-121008860D01*
X129357000Y-120545140D01*
X129359764Y-120517072D01*
X129366160Y-120495991D01*
X129376548Y-120476555D01*
X129390524Y-120459524D01*
X129407555Y-120445548D01*
X129426991Y-120435160D01*
X129448072Y-120428764D01*
X129476140Y-120426000D01*
X131314860Y-120426000D01*
X131342928Y-120428764D01*
G37*
G36*
X131342928Y-119158764D02*
G01*
X131364009Y-119165160D01*
X131383445Y-119175548D01*
X131400476Y-119189524D01*
X131414452Y-119206555D01*
X131424840Y-119225991D01*
X131431236Y-119247072D01*
X131434000Y-119275140D01*
X131434000Y-119738860D01*
X131431236Y-119766928D01*
X131424840Y-119788009D01*
X131414452Y-119807445D01*
X131400476Y-119824476D01*
X131383445Y-119838452D01*
X131364009Y-119848840D01*
X131342928Y-119855236D01*
X131314860Y-119858000D01*
X129476140Y-119858000D01*
X129448072Y-119855236D01*
X129426991Y-119848840D01*
X129407555Y-119838452D01*
X129390524Y-119824476D01*
X129376548Y-119807445D01*
X129366160Y-119788009D01*
X129359764Y-119766928D01*
X129357000Y-119738860D01*
X129357000Y-119275140D01*
X129359764Y-119247072D01*
X129366160Y-119225991D01*
X129376548Y-119206555D01*
X129390524Y-119189524D01*
X129407555Y-119175548D01*
X129426991Y-119165160D01*
X129448072Y-119158764D01*
X129476140Y-119156000D01*
X131314860Y-119156000D01*
X131342928Y-119158764D01*
G37*
G36*
X138267928Y-119158764D02*
G01*
X138289009Y-119165160D01*
X138308445Y-119175548D01*
X138325476Y-119189524D01*
X138339452Y-119206555D01*
X138349840Y-119225991D01*
X138356236Y-119247072D01*
X138359000Y-119275140D01*
X138359000Y-119738860D01*
X138356236Y-119766928D01*
X138349840Y-119788009D01*
X138339452Y-119807445D01*
X138325476Y-119824476D01*
X138308445Y-119838452D01*
X138289009Y-119848840D01*
X138267928Y-119855236D01*
X138239860Y-119858000D01*
X136401140Y-119858000D01*
X136373072Y-119855236D01*
X136351991Y-119848840D01*
X136332555Y-119838452D01*
X136315524Y-119824476D01*
X136301548Y-119807445D01*
X136291160Y-119788009D01*
X136284764Y-119766928D01*
X136282000Y-119738860D01*
X136282000Y-119275140D01*
X136284764Y-119247072D01*
X136291160Y-119225991D01*
X136301548Y-119206555D01*
X136315524Y-119189524D01*
X136332555Y-119175548D01*
X136351991Y-119165160D01*
X136373072Y-119158764D01*
X136401140Y-119156000D01*
X138239860Y-119156000D01*
X138267928Y-119158764D01*
G37*
G36*
X62621604Y-116357347D02*
G01*
X62658144Y-116368432D01*
X62691821Y-116386433D01*
X62721341Y-116410659D01*
X62745567Y-116440179D01*
X62763568Y-116473856D01*
X62774653Y-116510396D01*
X62779000Y-116554538D01*
X62779000Y-118903462D01*
X62774653Y-118947604D01*
X62763568Y-118984144D01*
X62745567Y-119017821D01*
X62721341Y-119047341D01*
X62691821Y-119071567D01*
X62658144Y-119089568D01*
X62621604Y-119100653D01*
X62577462Y-119105000D01*
X61628538Y-119105000D01*
X61584396Y-119100653D01*
X61547856Y-119089568D01*
X61514179Y-119071567D01*
X61484659Y-119047341D01*
X61460433Y-119017821D01*
X61442432Y-118984144D01*
X61431347Y-118947604D01*
X61427000Y-118903462D01*
X61427000Y-116554538D01*
X61431347Y-116510396D01*
X61442432Y-116473856D01*
X61460433Y-116440179D01*
X61484659Y-116410659D01*
X61514179Y-116386433D01*
X61547856Y-116368432D01*
X61584396Y-116357347D01*
X61628538Y-116353000D01*
X62577462Y-116353000D01*
X62621604Y-116357347D01*
G37*
G36*
X65421604Y-116357347D02*
G01*
X65458144Y-116368432D01*
X65491821Y-116386433D01*
X65521341Y-116410659D01*
X65545567Y-116440179D01*
X65563568Y-116473856D01*
X65574653Y-116510396D01*
X65579000Y-116554538D01*
X65579000Y-118903462D01*
X65574653Y-118947604D01*
X65563568Y-118984144D01*
X65545567Y-119017821D01*
X65521341Y-119047341D01*
X65491821Y-119071567D01*
X65458144Y-119089568D01*
X65421604Y-119100653D01*
X65377462Y-119105000D01*
X64428538Y-119105000D01*
X64384396Y-119100653D01*
X64347856Y-119089568D01*
X64314179Y-119071567D01*
X64284659Y-119047341D01*
X64260433Y-119017821D01*
X64242432Y-118984144D01*
X64231347Y-118947604D01*
X64227000Y-118903462D01*
X64227000Y-116554538D01*
X64231347Y-116510396D01*
X64242432Y-116473856D01*
X64260433Y-116440179D01*
X64284659Y-116410659D01*
X64314179Y-116386433D01*
X64347856Y-116368432D01*
X64384396Y-116357347D01*
X64428538Y-116353000D01*
X65377462Y-116353000D01*
X65421604Y-116357347D01*
G37*
G36*
X145886254Y-113470818D02*
G01*
X146259511Y-113625426D01*
X146259513Y-113625427D01*
X146444237Y-113748856D01*
X146595436Y-113849884D01*
X146881116Y-114135564D01*
X147105574Y-114471489D01*
X147260182Y-114844746D01*
X147339000Y-115240993D01*
X147339000Y-115645007D01*
X147260182Y-116041254D01*
X147105574Y-116414511D01*
X147105573Y-116414513D01*
X146881116Y-116750436D01*
X146595436Y-117036116D01*
X146259513Y-117260573D01*
X146259512Y-117260574D01*
X146259511Y-117260574D01*
X145886254Y-117415182D01*
X145490007Y-117494000D01*
X145085993Y-117494000D01*
X144689746Y-117415182D01*
X144316489Y-117260574D01*
X144316488Y-117260574D01*
X144316487Y-117260573D01*
X143980564Y-117036116D01*
X143694884Y-116750436D01*
X143470427Y-116414513D01*
X143470426Y-116414511D01*
X143315818Y-116041254D01*
X143237000Y-115645007D01*
X143237000Y-115240993D01*
X143315818Y-114844746D01*
X143470426Y-114471489D01*
X143694884Y-114135564D01*
X143980564Y-113849884D01*
X144131763Y-113748856D01*
X144316487Y-113625427D01*
X144316489Y-113625426D01*
X144689746Y-113470818D01*
X145085993Y-113392000D01*
X145490007Y-113392000D01*
X145886254Y-113470818D01*
G37*
G36*
X62621604Y-113632347D02*
G01*
X62658144Y-113643432D01*
X62691821Y-113661433D01*
X62721341Y-113685659D01*
X62745567Y-113715179D01*
X62763568Y-113748856D01*
X62774653Y-113785396D01*
X62779000Y-113829538D01*
X62779000Y-115278462D01*
X62774653Y-115322604D01*
X62763568Y-115359144D01*
X62745567Y-115392821D01*
X62721341Y-115422341D01*
X62691821Y-115446567D01*
X62658144Y-115464568D01*
X62621604Y-115475653D01*
X62577462Y-115480000D01*
X61628538Y-115480000D01*
X61584396Y-115475653D01*
X61547856Y-115464568D01*
X61514179Y-115446567D01*
X61484659Y-115422341D01*
X61460433Y-115392821D01*
X61442432Y-115359144D01*
X61431347Y-115322604D01*
X61427000Y-115278462D01*
X61427000Y-113829538D01*
X61431347Y-113785396D01*
X61442432Y-113748856D01*
X61460433Y-113715179D01*
X61484659Y-113685659D01*
X61514179Y-113661433D01*
X61547856Y-113643432D01*
X61584396Y-113632347D01*
X61628538Y-113628000D01*
X62577462Y-113628000D01*
X62621604Y-113632347D01*
G37*
G36*
X65421604Y-113632347D02*
G01*
X65458144Y-113643432D01*
X65491821Y-113661433D01*
X65521341Y-113685659D01*
X65545567Y-113715179D01*
X65563568Y-113748856D01*
X65574653Y-113785396D01*
X65579000Y-113829538D01*
X65579000Y-115278462D01*
X65574653Y-115322604D01*
X65563568Y-115359144D01*
X65545567Y-115392821D01*
X65521341Y-115422341D01*
X65491821Y-115446567D01*
X65458144Y-115464568D01*
X65421604Y-115475653D01*
X65377462Y-115480000D01*
X64428538Y-115480000D01*
X64384396Y-115475653D01*
X64347856Y-115464568D01*
X64314179Y-115446567D01*
X64284659Y-115422341D01*
X64260433Y-115392821D01*
X64242432Y-115359144D01*
X64231347Y-115322604D01*
X64227000Y-115278462D01*
X64227000Y-113829538D01*
X64231347Y-113785396D01*
X64242432Y-113748856D01*
X64260433Y-113715179D01*
X64284659Y-113685659D01*
X64314179Y-113661433D01*
X64347856Y-113643432D01*
X64384396Y-113632347D01*
X64428538Y-113628000D01*
X65377462Y-113628000D01*
X65421604Y-113632347D01*
G37*
M02*
