G04 #@! TF.GenerationSoftware,KiCad,Pcbnew,5.1.5+dfsg1-2build2*
G04 #@! TF.CreationDate,2021-07-30T22:42:47+01:00*
G04 #@! TF.ProjectId,Printer+Sticks,5072696e-7465-4722-9b53-7469636b732e,rev?*
G04 #@! TF.SameCoordinates,Original*
G04 #@! TF.FileFunction,Legend,Bot*
G04 #@! TF.FilePolarity,Positive*
%FSLAX46Y46*%
G04 Gerber Fmt 4.6, Leading zero omitted, Abs format (unit mm)*
G04 Created by KiCad (PCBNEW 5.1.5+dfsg1-2build2) date 2021-07-30 22:42:47*
%MOMM*%
%LPD*%
G04 APERTURE LIST*
%ADD10C,0.050000*%
%ADD11C,0.120000*%
%ADD12C,0.150000*%
G04 APERTURE END LIST*
D10*
X155448000Y-109982000D02*
X155448000Y-189992000D01*
X56896000Y-109982000D02*
X155448000Y-109982000D01*
X56896000Y-189992000D02*
X56896000Y-109982000D01*
X155448000Y-189992000D02*
X56896000Y-189992000D01*
D11*
X107217936Y-126725000D02*
X108422064Y-126725000D01*
X107217936Y-128545000D02*
X108422064Y-128545000D01*
X86203064Y-167153000D02*
X84998936Y-167153000D01*
X86203064Y-165333000D02*
X84998936Y-165333000D01*
X132228000Y-143226064D02*
X132228000Y-142021936D01*
X130408000Y-143226064D02*
X130408000Y-142021936D01*
X137308000Y-143353064D02*
X137308000Y-142148936D01*
X135488000Y-143353064D02*
X135488000Y-142148936D01*
X79269000Y-151038936D02*
X79269000Y-152243064D01*
X77449000Y-151038936D02*
X77449000Y-152243064D01*
X84857000Y-142523936D02*
X84857000Y-143728064D01*
X83037000Y-142523936D02*
X83037000Y-143728064D01*
X90826000Y-142529936D02*
X90826000Y-143734064D01*
X89006000Y-142529936D02*
X89006000Y-143734064D01*
X152865000Y-162431000D02*
X150665000Y-162431000D01*
X152865000Y-155831000D02*
X150665000Y-155831000D01*
X152992000Y-129665000D02*
X150792000Y-129665000D01*
X152992000Y-123065000D02*
X150792000Y-123065000D01*
X132948000Y-125824064D02*
X132948000Y-124619936D01*
X134768000Y-125824064D02*
X134768000Y-124619936D01*
X134768000Y-143415936D02*
X134768000Y-144620064D01*
X132948000Y-143415936D02*
X132948000Y-144620064D01*
X133202000Y-158590064D02*
X133202000Y-157385936D01*
X135022000Y-158590064D02*
X135022000Y-157385936D01*
X134768000Y-135541936D02*
X134768000Y-136746064D01*
X132948000Y-135541936D02*
X132948000Y-136746064D01*
D12*
X107862666Y-126214142D02*
X107910285Y-126261761D01*
X108053142Y-126309380D01*
X108148380Y-126309380D01*
X108291238Y-126261761D01*
X108386476Y-126166523D01*
X108434095Y-126071285D01*
X108481714Y-125880809D01*
X108481714Y-125737952D01*
X108434095Y-125547476D01*
X108386476Y-125452238D01*
X108291238Y-125357000D01*
X108148380Y-125309380D01*
X108053142Y-125309380D01*
X107910285Y-125357000D01*
X107862666Y-125404619D01*
X107529333Y-125309380D02*
X106910285Y-125309380D01*
X107243619Y-125690333D01*
X107100761Y-125690333D01*
X107005523Y-125737952D01*
X106957904Y-125785571D01*
X106910285Y-125880809D01*
X106910285Y-126118904D01*
X106957904Y-126214142D01*
X107005523Y-126261761D01*
X107100761Y-126309380D01*
X107386476Y-126309380D01*
X107481714Y-126261761D01*
X107529333Y-126214142D01*
X85767666Y-164780142D02*
X85815285Y-164827761D01*
X85958142Y-164875380D01*
X86053380Y-164875380D01*
X86196238Y-164827761D01*
X86291476Y-164732523D01*
X86339095Y-164637285D01*
X86386714Y-164446809D01*
X86386714Y-164303952D01*
X86339095Y-164113476D01*
X86291476Y-164018238D01*
X86196238Y-163923000D01*
X86053380Y-163875380D01*
X85958142Y-163875380D01*
X85815285Y-163923000D01*
X85767666Y-163970619D01*
X84815285Y-164875380D02*
X85386714Y-164875380D01*
X85101000Y-164875380D02*
X85101000Y-163875380D01*
X85196238Y-164018238D01*
X85291476Y-164113476D01*
X85386714Y-164161095D01*
X131294166Y-146381380D02*
X131627500Y-145905190D01*
X131865595Y-146381380D02*
X131865595Y-145381380D01*
X131484642Y-145381380D01*
X131389404Y-145429000D01*
X131341785Y-145476619D01*
X131294166Y-145571857D01*
X131294166Y-145714714D01*
X131341785Y-145809952D01*
X131389404Y-145857571D01*
X131484642Y-145905190D01*
X131865595Y-145905190D01*
X130960833Y-145381380D02*
X130341785Y-145381380D01*
X130675119Y-145762333D01*
X130532261Y-145762333D01*
X130437023Y-145809952D01*
X130389404Y-145857571D01*
X130341785Y-145952809D01*
X130341785Y-146190904D01*
X130389404Y-146286142D01*
X130437023Y-146333761D01*
X130532261Y-146381380D01*
X130817976Y-146381380D01*
X130913214Y-146333761D01*
X130960833Y-146286142D01*
X136501166Y-146505380D02*
X136834500Y-146029190D01*
X137072595Y-146505380D02*
X137072595Y-145505380D01*
X136691642Y-145505380D01*
X136596404Y-145553000D01*
X136548785Y-145600619D01*
X136501166Y-145695857D01*
X136501166Y-145838714D01*
X136548785Y-145933952D01*
X136596404Y-145981571D01*
X136691642Y-146029190D01*
X137072595Y-146029190D01*
X136120214Y-145600619D02*
X136072595Y-145553000D01*
X135977357Y-145505380D01*
X135739261Y-145505380D01*
X135644023Y-145553000D01*
X135596404Y-145600619D01*
X135548785Y-145695857D01*
X135548785Y-145791095D01*
X135596404Y-145933952D01*
X136167833Y-146505380D01*
X135548785Y-146505380D01*
X78144666Y-149296380D02*
X78478000Y-148820190D01*
X78716095Y-149296380D02*
X78716095Y-148296380D01*
X78335142Y-148296380D01*
X78239904Y-148344000D01*
X78192285Y-148391619D01*
X78144666Y-148486857D01*
X78144666Y-148629714D01*
X78192285Y-148724952D01*
X78239904Y-148772571D01*
X78335142Y-148820190D01*
X78716095Y-148820190D01*
X77287523Y-148629714D02*
X77287523Y-149296380D01*
X77525619Y-148248761D02*
X77763714Y-148963047D01*
X77144666Y-148963047D01*
X83986666Y-140660380D02*
X84320000Y-140184190D01*
X84558095Y-140660380D02*
X84558095Y-139660380D01*
X84177142Y-139660380D01*
X84081904Y-139708000D01*
X84034285Y-139755619D01*
X83986666Y-139850857D01*
X83986666Y-139993714D01*
X84034285Y-140088952D01*
X84081904Y-140136571D01*
X84177142Y-140184190D01*
X84558095Y-140184190D01*
X83081904Y-139660380D02*
X83558095Y-139660380D01*
X83605714Y-140136571D01*
X83558095Y-140088952D01*
X83462857Y-140041333D01*
X83224761Y-140041333D01*
X83129523Y-140088952D01*
X83081904Y-140136571D01*
X83034285Y-140231809D01*
X83034285Y-140469904D01*
X83081904Y-140565142D01*
X83129523Y-140612761D01*
X83224761Y-140660380D01*
X83462857Y-140660380D01*
X83558095Y-140612761D01*
X83605714Y-140565142D01*
X90082666Y-140438142D02*
X90130285Y-140485761D01*
X90273142Y-140533380D01*
X90368380Y-140533380D01*
X90511238Y-140485761D01*
X90606476Y-140390523D01*
X90654095Y-140295285D01*
X90701714Y-140104809D01*
X90701714Y-139961952D01*
X90654095Y-139771476D01*
X90606476Y-139676238D01*
X90511238Y-139581000D01*
X90368380Y-139533380D01*
X90273142Y-139533380D01*
X90130285Y-139581000D01*
X90082666Y-139628619D01*
X89225523Y-139866714D02*
X89225523Y-140533380D01*
X89463619Y-139485761D02*
X89701714Y-140200047D01*
X89082666Y-140200047D01*
X152385476Y-163803380D02*
X152718809Y-163327190D01*
X152956904Y-163803380D02*
X152956904Y-162803380D01*
X152575952Y-162803380D01*
X152480714Y-162851000D01*
X152433095Y-162898619D01*
X152385476Y-162993857D01*
X152385476Y-163136714D01*
X152433095Y-163231952D01*
X152480714Y-163279571D01*
X152575952Y-163327190D01*
X152956904Y-163327190D01*
X151956904Y-163803380D02*
X151956904Y-162803380D01*
X151385476Y-163803380D01*
X151385476Y-162803380D01*
X150956904Y-162898619D02*
X150909285Y-162851000D01*
X150814047Y-162803380D01*
X150575952Y-162803380D01*
X150480714Y-162851000D01*
X150433095Y-162898619D01*
X150385476Y-162993857D01*
X150385476Y-163089095D01*
X150433095Y-163231952D01*
X151004523Y-163803380D01*
X150385476Y-163803380D01*
X152512476Y-131037380D02*
X152845809Y-130561190D01*
X153083904Y-131037380D02*
X153083904Y-130037380D01*
X152702952Y-130037380D01*
X152607714Y-130085000D01*
X152560095Y-130132619D01*
X152512476Y-130227857D01*
X152512476Y-130370714D01*
X152560095Y-130465952D01*
X152607714Y-130513571D01*
X152702952Y-130561190D01*
X153083904Y-130561190D01*
X152083904Y-131037380D02*
X152083904Y-130037380D01*
X151512476Y-131037380D01*
X151512476Y-130037380D01*
X150512476Y-131037380D02*
X151083904Y-131037380D01*
X150798190Y-131037380D02*
X150798190Y-130037380D01*
X150893428Y-130180238D01*
X150988666Y-130275476D01*
X151083904Y-130323095D01*
X133897666Y-122658142D02*
X133945285Y-122705761D01*
X134088142Y-122753380D01*
X134183380Y-122753380D01*
X134326238Y-122705761D01*
X134421476Y-122610523D01*
X134469095Y-122515285D01*
X134516714Y-122324809D01*
X134516714Y-122181952D01*
X134469095Y-121991476D01*
X134421476Y-121896238D01*
X134326238Y-121801000D01*
X134183380Y-121753380D01*
X134088142Y-121753380D01*
X133945285Y-121801000D01*
X133897666Y-121848619D01*
X132992904Y-121753380D02*
X133469095Y-121753380D01*
X133516714Y-122229571D01*
X133469095Y-122181952D01*
X133373857Y-122134333D01*
X133135761Y-122134333D01*
X133040523Y-122181952D01*
X132992904Y-122229571D01*
X132945285Y-122324809D01*
X132945285Y-122562904D01*
X132992904Y-122658142D01*
X133040523Y-122705761D01*
X133135761Y-122753380D01*
X133373857Y-122753380D01*
X133469095Y-122705761D01*
X133516714Y-122658142D01*
X134024666Y-141327142D02*
X134072285Y-141374761D01*
X134215142Y-141422380D01*
X134310380Y-141422380D01*
X134453238Y-141374761D01*
X134548476Y-141279523D01*
X134596095Y-141184285D01*
X134643714Y-140993809D01*
X134643714Y-140850952D01*
X134596095Y-140660476D01*
X134548476Y-140565238D01*
X134453238Y-140470000D01*
X134310380Y-140422380D01*
X134215142Y-140422380D01*
X134072285Y-140470000D01*
X134024666Y-140517619D01*
X133691333Y-140422380D02*
X133024666Y-140422380D01*
X133453238Y-141422380D01*
X134278666Y-155297142D02*
X134326285Y-155344761D01*
X134469142Y-155392380D01*
X134564380Y-155392380D01*
X134707238Y-155344761D01*
X134802476Y-155249523D01*
X134850095Y-155154285D01*
X134897714Y-154963809D01*
X134897714Y-154820952D01*
X134850095Y-154630476D01*
X134802476Y-154535238D01*
X134707238Y-154440000D01*
X134564380Y-154392380D01*
X134469142Y-154392380D01*
X134326285Y-154440000D01*
X134278666Y-154487619D01*
X133421523Y-154392380D02*
X133612000Y-154392380D01*
X133707238Y-154440000D01*
X133754857Y-154487619D01*
X133850095Y-154630476D01*
X133897714Y-154820952D01*
X133897714Y-155201904D01*
X133850095Y-155297142D01*
X133802476Y-155344761D01*
X133707238Y-155392380D01*
X133516761Y-155392380D01*
X133421523Y-155344761D01*
X133373904Y-155297142D01*
X133326285Y-155201904D01*
X133326285Y-154963809D01*
X133373904Y-154868571D01*
X133421523Y-154820952D01*
X133516761Y-154773333D01*
X133707238Y-154773333D01*
X133802476Y-154820952D01*
X133850095Y-154868571D01*
X133897714Y-154963809D01*
X133897666Y-133326142D02*
X133945285Y-133373761D01*
X134088142Y-133421380D01*
X134183380Y-133421380D01*
X134326238Y-133373761D01*
X134421476Y-133278523D01*
X134469095Y-133183285D01*
X134516714Y-132992809D01*
X134516714Y-132849952D01*
X134469095Y-132659476D01*
X134421476Y-132564238D01*
X134326238Y-132469000D01*
X134183380Y-132421380D01*
X134088142Y-132421380D01*
X133945285Y-132469000D01*
X133897666Y-132516619D01*
X133516714Y-132516619D02*
X133469095Y-132469000D01*
X133373857Y-132421380D01*
X133135761Y-132421380D01*
X133040523Y-132469000D01*
X132992904Y-132516619D01*
X132945285Y-132611857D01*
X132945285Y-132707095D01*
X132992904Y-132849952D01*
X133564333Y-133421380D01*
X132945285Y-133421380D01*
M02*
