G04 #@! TF.GenerationSoftware,KiCad,Pcbnew,5.1.5+dfsg1-2build2*
G04 #@! TF.CreationDate,2021-07-30T22:42:47+01:00*
G04 #@! TF.ProjectId,Printer+Sticks,5072696e-7465-4722-9b53-7469636b732e,rev?*
G04 #@! TF.SameCoordinates,Original*
G04 #@! TF.FileFunction,Paste,Bot*
G04 #@! TF.FilePolarity,Positive*
%FSLAX46Y46*%
G04 Gerber Fmt 4.6, Leading zero omitted, Abs format (unit mm)*
G04 Created by KiCad (PCBNEW 5.1.5+dfsg1-2build2) date 2021-07-30 22:42:47*
%MOMM*%
%LPD*%
G04 APERTURE LIST*
%ADD10C,0.050000*%
%ADD11C,0.100000*%
%ADD12R,0.760000X0.430000*%
G04 APERTURE END LIST*
D10*
X155448000Y-109982000D02*
X155448000Y-189992000D01*
X56896000Y-109982000D02*
X155448000Y-109982000D01*
X56896000Y-189992000D02*
X56896000Y-109982000D01*
X155448000Y-189992000D02*
X56896000Y-189992000D01*
D11*
G36*
X109619504Y-126761204D02*
G01*
X109643773Y-126764804D01*
X109667571Y-126770765D01*
X109690671Y-126779030D01*
X109712849Y-126789520D01*
X109733893Y-126802133D01*
X109753598Y-126816747D01*
X109771777Y-126833223D01*
X109788253Y-126851402D01*
X109802867Y-126871107D01*
X109815480Y-126892151D01*
X109825970Y-126914329D01*
X109834235Y-126937429D01*
X109840196Y-126961227D01*
X109843796Y-126985496D01*
X109845000Y-127010000D01*
X109845000Y-128260000D01*
X109843796Y-128284504D01*
X109840196Y-128308773D01*
X109834235Y-128332571D01*
X109825970Y-128355671D01*
X109815480Y-128377849D01*
X109802867Y-128398893D01*
X109788253Y-128418598D01*
X109771777Y-128436777D01*
X109753598Y-128453253D01*
X109733893Y-128467867D01*
X109712849Y-128480480D01*
X109690671Y-128490970D01*
X109667571Y-128499235D01*
X109643773Y-128505196D01*
X109619504Y-128508796D01*
X109595000Y-128510000D01*
X108845000Y-128510000D01*
X108820496Y-128508796D01*
X108796227Y-128505196D01*
X108772429Y-128499235D01*
X108749329Y-128490970D01*
X108727151Y-128480480D01*
X108706107Y-128467867D01*
X108686402Y-128453253D01*
X108668223Y-128436777D01*
X108651747Y-128418598D01*
X108637133Y-128398893D01*
X108624520Y-128377849D01*
X108614030Y-128355671D01*
X108605765Y-128332571D01*
X108599804Y-128308773D01*
X108596204Y-128284504D01*
X108595000Y-128260000D01*
X108595000Y-127010000D01*
X108596204Y-126985496D01*
X108599804Y-126961227D01*
X108605765Y-126937429D01*
X108614030Y-126914329D01*
X108624520Y-126892151D01*
X108637133Y-126871107D01*
X108651747Y-126851402D01*
X108668223Y-126833223D01*
X108686402Y-126816747D01*
X108706107Y-126802133D01*
X108727151Y-126789520D01*
X108749329Y-126779030D01*
X108772429Y-126770765D01*
X108796227Y-126764804D01*
X108820496Y-126761204D01*
X108845000Y-126760000D01*
X109595000Y-126760000D01*
X109619504Y-126761204D01*
G37*
G36*
X106819504Y-126761204D02*
G01*
X106843773Y-126764804D01*
X106867571Y-126770765D01*
X106890671Y-126779030D01*
X106912849Y-126789520D01*
X106933893Y-126802133D01*
X106953598Y-126816747D01*
X106971777Y-126833223D01*
X106988253Y-126851402D01*
X107002867Y-126871107D01*
X107015480Y-126892151D01*
X107025970Y-126914329D01*
X107034235Y-126937429D01*
X107040196Y-126961227D01*
X107043796Y-126985496D01*
X107045000Y-127010000D01*
X107045000Y-128260000D01*
X107043796Y-128284504D01*
X107040196Y-128308773D01*
X107034235Y-128332571D01*
X107025970Y-128355671D01*
X107015480Y-128377849D01*
X107002867Y-128398893D01*
X106988253Y-128418598D01*
X106971777Y-128436777D01*
X106953598Y-128453253D01*
X106933893Y-128467867D01*
X106912849Y-128480480D01*
X106890671Y-128490970D01*
X106867571Y-128499235D01*
X106843773Y-128505196D01*
X106819504Y-128508796D01*
X106795000Y-128510000D01*
X106045000Y-128510000D01*
X106020496Y-128508796D01*
X105996227Y-128505196D01*
X105972429Y-128499235D01*
X105949329Y-128490970D01*
X105927151Y-128480480D01*
X105906107Y-128467867D01*
X105886402Y-128453253D01*
X105868223Y-128436777D01*
X105851747Y-128418598D01*
X105837133Y-128398893D01*
X105824520Y-128377849D01*
X105814030Y-128355671D01*
X105805765Y-128332571D01*
X105799804Y-128308773D01*
X105796204Y-128284504D01*
X105795000Y-128260000D01*
X105795000Y-127010000D01*
X105796204Y-126985496D01*
X105799804Y-126961227D01*
X105805765Y-126937429D01*
X105814030Y-126914329D01*
X105824520Y-126892151D01*
X105837133Y-126871107D01*
X105851747Y-126851402D01*
X105868223Y-126833223D01*
X105886402Y-126816747D01*
X105906107Y-126802133D01*
X105927151Y-126789520D01*
X105949329Y-126779030D01*
X105972429Y-126770765D01*
X105996227Y-126764804D01*
X106020496Y-126761204D01*
X106045000Y-126760000D01*
X106795000Y-126760000D01*
X106819504Y-126761204D01*
G37*
G36*
X84600504Y-165369204D02*
G01*
X84624773Y-165372804D01*
X84648571Y-165378765D01*
X84671671Y-165387030D01*
X84693849Y-165397520D01*
X84714893Y-165410133D01*
X84734598Y-165424747D01*
X84752777Y-165441223D01*
X84769253Y-165459402D01*
X84783867Y-165479107D01*
X84796480Y-165500151D01*
X84806970Y-165522329D01*
X84815235Y-165545429D01*
X84821196Y-165569227D01*
X84824796Y-165593496D01*
X84826000Y-165618000D01*
X84826000Y-166868000D01*
X84824796Y-166892504D01*
X84821196Y-166916773D01*
X84815235Y-166940571D01*
X84806970Y-166963671D01*
X84796480Y-166985849D01*
X84783867Y-167006893D01*
X84769253Y-167026598D01*
X84752777Y-167044777D01*
X84734598Y-167061253D01*
X84714893Y-167075867D01*
X84693849Y-167088480D01*
X84671671Y-167098970D01*
X84648571Y-167107235D01*
X84624773Y-167113196D01*
X84600504Y-167116796D01*
X84576000Y-167118000D01*
X83826000Y-167118000D01*
X83801496Y-167116796D01*
X83777227Y-167113196D01*
X83753429Y-167107235D01*
X83730329Y-167098970D01*
X83708151Y-167088480D01*
X83687107Y-167075867D01*
X83667402Y-167061253D01*
X83649223Y-167044777D01*
X83632747Y-167026598D01*
X83618133Y-167006893D01*
X83605520Y-166985849D01*
X83595030Y-166963671D01*
X83586765Y-166940571D01*
X83580804Y-166916773D01*
X83577204Y-166892504D01*
X83576000Y-166868000D01*
X83576000Y-165618000D01*
X83577204Y-165593496D01*
X83580804Y-165569227D01*
X83586765Y-165545429D01*
X83595030Y-165522329D01*
X83605520Y-165500151D01*
X83618133Y-165479107D01*
X83632747Y-165459402D01*
X83649223Y-165441223D01*
X83667402Y-165424747D01*
X83687107Y-165410133D01*
X83708151Y-165397520D01*
X83730329Y-165387030D01*
X83753429Y-165378765D01*
X83777227Y-165372804D01*
X83801496Y-165369204D01*
X83826000Y-165368000D01*
X84576000Y-165368000D01*
X84600504Y-165369204D01*
G37*
G36*
X87400504Y-165369204D02*
G01*
X87424773Y-165372804D01*
X87448571Y-165378765D01*
X87471671Y-165387030D01*
X87493849Y-165397520D01*
X87514893Y-165410133D01*
X87534598Y-165424747D01*
X87552777Y-165441223D01*
X87569253Y-165459402D01*
X87583867Y-165479107D01*
X87596480Y-165500151D01*
X87606970Y-165522329D01*
X87615235Y-165545429D01*
X87621196Y-165569227D01*
X87624796Y-165593496D01*
X87626000Y-165618000D01*
X87626000Y-166868000D01*
X87624796Y-166892504D01*
X87621196Y-166916773D01*
X87615235Y-166940571D01*
X87606970Y-166963671D01*
X87596480Y-166985849D01*
X87583867Y-167006893D01*
X87569253Y-167026598D01*
X87552777Y-167044777D01*
X87534598Y-167061253D01*
X87514893Y-167075867D01*
X87493849Y-167088480D01*
X87471671Y-167098970D01*
X87448571Y-167107235D01*
X87424773Y-167113196D01*
X87400504Y-167116796D01*
X87376000Y-167118000D01*
X86626000Y-167118000D01*
X86601496Y-167116796D01*
X86577227Y-167113196D01*
X86553429Y-167107235D01*
X86530329Y-167098970D01*
X86508151Y-167088480D01*
X86487107Y-167075867D01*
X86467402Y-167061253D01*
X86449223Y-167044777D01*
X86432747Y-167026598D01*
X86418133Y-167006893D01*
X86405520Y-166985849D01*
X86395030Y-166963671D01*
X86386765Y-166940571D01*
X86380804Y-166916773D01*
X86377204Y-166892504D01*
X86376000Y-166868000D01*
X86376000Y-165618000D01*
X86377204Y-165593496D01*
X86380804Y-165569227D01*
X86386765Y-165545429D01*
X86395030Y-165522329D01*
X86405520Y-165500151D01*
X86418133Y-165479107D01*
X86432747Y-165459402D01*
X86449223Y-165441223D01*
X86467402Y-165424747D01*
X86487107Y-165410133D01*
X86508151Y-165397520D01*
X86530329Y-165387030D01*
X86553429Y-165378765D01*
X86577227Y-165372804D01*
X86601496Y-165369204D01*
X86626000Y-165368000D01*
X87376000Y-165368000D01*
X87400504Y-165369204D01*
G37*
G36*
X131967504Y-143400204D02*
G01*
X131991773Y-143403804D01*
X132015571Y-143409765D01*
X132038671Y-143418030D01*
X132060849Y-143428520D01*
X132081893Y-143441133D01*
X132101598Y-143455747D01*
X132119777Y-143472223D01*
X132136253Y-143490402D01*
X132150867Y-143510107D01*
X132163480Y-143531151D01*
X132173970Y-143553329D01*
X132182235Y-143576429D01*
X132188196Y-143600227D01*
X132191796Y-143624496D01*
X132193000Y-143649000D01*
X132193000Y-144399000D01*
X132191796Y-144423504D01*
X132188196Y-144447773D01*
X132182235Y-144471571D01*
X132173970Y-144494671D01*
X132163480Y-144516849D01*
X132150867Y-144537893D01*
X132136253Y-144557598D01*
X132119777Y-144575777D01*
X132101598Y-144592253D01*
X132081893Y-144606867D01*
X132060849Y-144619480D01*
X132038671Y-144629970D01*
X132015571Y-144638235D01*
X131991773Y-144644196D01*
X131967504Y-144647796D01*
X131943000Y-144649000D01*
X130693000Y-144649000D01*
X130668496Y-144647796D01*
X130644227Y-144644196D01*
X130620429Y-144638235D01*
X130597329Y-144629970D01*
X130575151Y-144619480D01*
X130554107Y-144606867D01*
X130534402Y-144592253D01*
X130516223Y-144575777D01*
X130499747Y-144557598D01*
X130485133Y-144537893D01*
X130472520Y-144516849D01*
X130462030Y-144494671D01*
X130453765Y-144471571D01*
X130447804Y-144447773D01*
X130444204Y-144423504D01*
X130443000Y-144399000D01*
X130443000Y-143649000D01*
X130444204Y-143624496D01*
X130447804Y-143600227D01*
X130453765Y-143576429D01*
X130462030Y-143553329D01*
X130472520Y-143531151D01*
X130485133Y-143510107D01*
X130499747Y-143490402D01*
X130516223Y-143472223D01*
X130534402Y-143455747D01*
X130554107Y-143441133D01*
X130575151Y-143428520D01*
X130597329Y-143418030D01*
X130620429Y-143409765D01*
X130644227Y-143403804D01*
X130668496Y-143400204D01*
X130693000Y-143399000D01*
X131943000Y-143399000D01*
X131967504Y-143400204D01*
G37*
G36*
X131967504Y-140600204D02*
G01*
X131991773Y-140603804D01*
X132015571Y-140609765D01*
X132038671Y-140618030D01*
X132060849Y-140628520D01*
X132081893Y-140641133D01*
X132101598Y-140655747D01*
X132119777Y-140672223D01*
X132136253Y-140690402D01*
X132150867Y-140710107D01*
X132163480Y-140731151D01*
X132173970Y-140753329D01*
X132182235Y-140776429D01*
X132188196Y-140800227D01*
X132191796Y-140824496D01*
X132193000Y-140849000D01*
X132193000Y-141599000D01*
X132191796Y-141623504D01*
X132188196Y-141647773D01*
X132182235Y-141671571D01*
X132173970Y-141694671D01*
X132163480Y-141716849D01*
X132150867Y-141737893D01*
X132136253Y-141757598D01*
X132119777Y-141775777D01*
X132101598Y-141792253D01*
X132081893Y-141806867D01*
X132060849Y-141819480D01*
X132038671Y-141829970D01*
X132015571Y-141838235D01*
X131991773Y-141844196D01*
X131967504Y-141847796D01*
X131943000Y-141849000D01*
X130693000Y-141849000D01*
X130668496Y-141847796D01*
X130644227Y-141844196D01*
X130620429Y-141838235D01*
X130597329Y-141829970D01*
X130575151Y-141819480D01*
X130554107Y-141806867D01*
X130534402Y-141792253D01*
X130516223Y-141775777D01*
X130499747Y-141757598D01*
X130485133Y-141737893D01*
X130472520Y-141716849D01*
X130462030Y-141694671D01*
X130453765Y-141671571D01*
X130447804Y-141647773D01*
X130444204Y-141623504D01*
X130443000Y-141599000D01*
X130443000Y-140849000D01*
X130444204Y-140824496D01*
X130447804Y-140800227D01*
X130453765Y-140776429D01*
X130462030Y-140753329D01*
X130472520Y-140731151D01*
X130485133Y-140710107D01*
X130499747Y-140690402D01*
X130516223Y-140672223D01*
X130534402Y-140655747D01*
X130554107Y-140641133D01*
X130575151Y-140628520D01*
X130597329Y-140618030D01*
X130620429Y-140609765D01*
X130644227Y-140603804D01*
X130668496Y-140600204D01*
X130693000Y-140599000D01*
X131943000Y-140599000D01*
X131967504Y-140600204D01*
G37*
G36*
X137047504Y-143527204D02*
G01*
X137071773Y-143530804D01*
X137095571Y-143536765D01*
X137118671Y-143545030D01*
X137140849Y-143555520D01*
X137161893Y-143568133D01*
X137181598Y-143582747D01*
X137199777Y-143599223D01*
X137216253Y-143617402D01*
X137230867Y-143637107D01*
X137243480Y-143658151D01*
X137253970Y-143680329D01*
X137262235Y-143703429D01*
X137268196Y-143727227D01*
X137271796Y-143751496D01*
X137273000Y-143776000D01*
X137273000Y-144526000D01*
X137271796Y-144550504D01*
X137268196Y-144574773D01*
X137262235Y-144598571D01*
X137253970Y-144621671D01*
X137243480Y-144643849D01*
X137230867Y-144664893D01*
X137216253Y-144684598D01*
X137199777Y-144702777D01*
X137181598Y-144719253D01*
X137161893Y-144733867D01*
X137140849Y-144746480D01*
X137118671Y-144756970D01*
X137095571Y-144765235D01*
X137071773Y-144771196D01*
X137047504Y-144774796D01*
X137023000Y-144776000D01*
X135773000Y-144776000D01*
X135748496Y-144774796D01*
X135724227Y-144771196D01*
X135700429Y-144765235D01*
X135677329Y-144756970D01*
X135655151Y-144746480D01*
X135634107Y-144733867D01*
X135614402Y-144719253D01*
X135596223Y-144702777D01*
X135579747Y-144684598D01*
X135565133Y-144664893D01*
X135552520Y-144643849D01*
X135542030Y-144621671D01*
X135533765Y-144598571D01*
X135527804Y-144574773D01*
X135524204Y-144550504D01*
X135523000Y-144526000D01*
X135523000Y-143776000D01*
X135524204Y-143751496D01*
X135527804Y-143727227D01*
X135533765Y-143703429D01*
X135542030Y-143680329D01*
X135552520Y-143658151D01*
X135565133Y-143637107D01*
X135579747Y-143617402D01*
X135596223Y-143599223D01*
X135614402Y-143582747D01*
X135634107Y-143568133D01*
X135655151Y-143555520D01*
X135677329Y-143545030D01*
X135700429Y-143536765D01*
X135724227Y-143530804D01*
X135748496Y-143527204D01*
X135773000Y-143526000D01*
X137023000Y-143526000D01*
X137047504Y-143527204D01*
G37*
G36*
X137047504Y-140727204D02*
G01*
X137071773Y-140730804D01*
X137095571Y-140736765D01*
X137118671Y-140745030D01*
X137140849Y-140755520D01*
X137161893Y-140768133D01*
X137181598Y-140782747D01*
X137199777Y-140799223D01*
X137216253Y-140817402D01*
X137230867Y-140837107D01*
X137243480Y-140858151D01*
X137253970Y-140880329D01*
X137262235Y-140903429D01*
X137268196Y-140927227D01*
X137271796Y-140951496D01*
X137273000Y-140976000D01*
X137273000Y-141726000D01*
X137271796Y-141750504D01*
X137268196Y-141774773D01*
X137262235Y-141798571D01*
X137253970Y-141821671D01*
X137243480Y-141843849D01*
X137230867Y-141864893D01*
X137216253Y-141884598D01*
X137199777Y-141902777D01*
X137181598Y-141919253D01*
X137161893Y-141933867D01*
X137140849Y-141946480D01*
X137118671Y-141956970D01*
X137095571Y-141965235D01*
X137071773Y-141971196D01*
X137047504Y-141974796D01*
X137023000Y-141976000D01*
X135773000Y-141976000D01*
X135748496Y-141974796D01*
X135724227Y-141971196D01*
X135700429Y-141965235D01*
X135677329Y-141956970D01*
X135655151Y-141946480D01*
X135634107Y-141933867D01*
X135614402Y-141919253D01*
X135596223Y-141902777D01*
X135579747Y-141884598D01*
X135565133Y-141864893D01*
X135552520Y-141843849D01*
X135542030Y-141821671D01*
X135533765Y-141798571D01*
X135527804Y-141774773D01*
X135524204Y-141750504D01*
X135523000Y-141726000D01*
X135523000Y-140976000D01*
X135524204Y-140951496D01*
X135527804Y-140927227D01*
X135533765Y-140903429D01*
X135542030Y-140880329D01*
X135552520Y-140858151D01*
X135565133Y-140837107D01*
X135579747Y-140817402D01*
X135596223Y-140799223D01*
X135614402Y-140782747D01*
X135634107Y-140768133D01*
X135655151Y-140755520D01*
X135677329Y-140745030D01*
X135700429Y-140736765D01*
X135724227Y-140730804D01*
X135748496Y-140727204D01*
X135773000Y-140726000D01*
X137023000Y-140726000D01*
X137047504Y-140727204D01*
G37*
G36*
X79008504Y-152417204D02*
G01*
X79032773Y-152420804D01*
X79056571Y-152426765D01*
X79079671Y-152435030D01*
X79101849Y-152445520D01*
X79122893Y-152458133D01*
X79142598Y-152472747D01*
X79160777Y-152489223D01*
X79177253Y-152507402D01*
X79191867Y-152527107D01*
X79204480Y-152548151D01*
X79214970Y-152570329D01*
X79223235Y-152593429D01*
X79229196Y-152617227D01*
X79232796Y-152641496D01*
X79234000Y-152666000D01*
X79234000Y-153416000D01*
X79232796Y-153440504D01*
X79229196Y-153464773D01*
X79223235Y-153488571D01*
X79214970Y-153511671D01*
X79204480Y-153533849D01*
X79191867Y-153554893D01*
X79177253Y-153574598D01*
X79160777Y-153592777D01*
X79142598Y-153609253D01*
X79122893Y-153623867D01*
X79101849Y-153636480D01*
X79079671Y-153646970D01*
X79056571Y-153655235D01*
X79032773Y-153661196D01*
X79008504Y-153664796D01*
X78984000Y-153666000D01*
X77734000Y-153666000D01*
X77709496Y-153664796D01*
X77685227Y-153661196D01*
X77661429Y-153655235D01*
X77638329Y-153646970D01*
X77616151Y-153636480D01*
X77595107Y-153623867D01*
X77575402Y-153609253D01*
X77557223Y-153592777D01*
X77540747Y-153574598D01*
X77526133Y-153554893D01*
X77513520Y-153533849D01*
X77503030Y-153511671D01*
X77494765Y-153488571D01*
X77488804Y-153464773D01*
X77485204Y-153440504D01*
X77484000Y-153416000D01*
X77484000Y-152666000D01*
X77485204Y-152641496D01*
X77488804Y-152617227D01*
X77494765Y-152593429D01*
X77503030Y-152570329D01*
X77513520Y-152548151D01*
X77526133Y-152527107D01*
X77540747Y-152507402D01*
X77557223Y-152489223D01*
X77575402Y-152472747D01*
X77595107Y-152458133D01*
X77616151Y-152445520D01*
X77638329Y-152435030D01*
X77661429Y-152426765D01*
X77685227Y-152420804D01*
X77709496Y-152417204D01*
X77734000Y-152416000D01*
X78984000Y-152416000D01*
X79008504Y-152417204D01*
G37*
G36*
X79008504Y-149617204D02*
G01*
X79032773Y-149620804D01*
X79056571Y-149626765D01*
X79079671Y-149635030D01*
X79101849Y-149645520D01*
X79122893Y-149658133D01*
X79142598Y-149672747D01*
X79160777Y-149689223D01*
X79177253Y-149707402D01*
X79191867Y-149727107D01*
X79204480Y-149748151D01*
X79214970Y-149770329D01*
X79223235Y-149793429D01*
X79229196Y-149817227D01*
X79232796Y-149841496D01*
X79234000Y-149866000D01*
X79234000Y-150616000D01*
X79232796Y-150640504D01*
X79229196Y-150664773D01*
X79223235Y-150688571D01*
X79214970Y-150711671D01*
X79204480Y-150733849D01*
X79191867Y-150754893D01*
X79177253Y-150774598D01*
X79160777Y-150792777D01*
X79142598Y-150809253D01*
X79122893Y-150823867D01*
X79101849Y-150836480D01*
X79079671Y-150846970D01*
X79056571Y-150855235D01*
X79032773Y-150861196D01*
X79008504Y-150864796D01*
X78984000Y-150866000D01*
X77734000Y-150866000D01*
X77709496Y-150864796D01*
X77685227Y-150861196D01*
X77661429Y-150855235D01*
X77638329Y-150846970D01*
X77616151Y-150836480D01*
X77595107Y-150823867D01*
X77575402Y-150809253D01*
X77557223Y-150792777D01*
X77540747Y-150774598D01*
X77526133Y-150754893D01*
X77513520Y-150733849D01*
X77503030Y-150711671D01*
X77494765Y-150688571D01*
X77488804Y-150664773D01*
X77485204Y-150640504D01*
X77484000Y-150616000D01*
X77484000Y-149866000D01*
X77485204Y-149841496D01*
X77488804Y-149817227D01*
X77494765Y-149793429D01*
X77503030Y-149770329D01*
X77513520Y-149748151D01*
X77526133Y-149727107D01*
X77540747Y-149707402D01*
X77557223Y-149689223D01*
X77575402Y-149672747D01*
X77595107Y-149658133D01*
X77616151Y-149645520D01*
X77638329Y-149635030D01*
X77661429Y-149626765D01*
X77685227Y-149620804D01*
X77709496Y-149617204D01*
X77734000Y-149616000D01*
X78984000Y-149616000D01*
X79008504Y-149617204D01*
G37*
G36*
X84596504Y-143902204D02*
G01*
X84620773Y-143905804D01*
X84644571Y-143911765D01*
X84667671Y-143920030D01*
X84689849Y-143930520D01*
X84710893Y-143943133D01*
X84730598Y-143957747D01*
X84748777Y-143974223D01*
X84765253Y-143992402D01*
X84779867Y-144012107D01*
X84792480Y-144033151D01*
X84802970Y-144055329D01*
X84811235Y-144078429D01*
X84817196Y-144102227D01*
X84820796Y-144126496D01*
X84822000Y-144151000D01*
X84822000Y-144901000D01*
X84820796Y-144925504D01*
X84817196Y-144949773D01*
X84811235Y-144973571D01*
X84802970Y-144996671D01*
X84792480Y-145018849D01*
X84779867Y-145039893D01*
X84765253Y-145059598D01*
X84748777Y-145077777D01*
X84730598Y-145094253D01*
X84710893Y-145108867D01*
X84689849Y-145121480D01*
X84667671Y-145131970D01*
X84644571Y-145140235D01*
X84620773Y-145146196D01*
X84596504Y-145149796D01*
X84572000Y-145151000D01*
X83322000Y-145151000D01*
X83297496Y-145149796D01*
X83273227Y-145146196D01*
X83249429Y-145140235D01*
X83226329Y-145131970D01*
X83204151Y-145121480D01*
X83183107Y-145108867D01*
X83163402Y-145094253D01*
X83145223Y-145077777D01*
X83128747Y-145059598D01*
X83114133Y-145039893D01*
X83101520Y-145018849D01*
X83091030Y-144996671D01*
X83082765Y-144973571D01*
X83076804Y-144949773D01*
X83073204Y-144925504D01*
X83072000Y-144901000D01*
X83072000Y-144151000D01*
X83073204Y-144126496D01*
X83076804Y-144102227D01*
X83082765Y-144078429D01*
X83091030Y-144055329D01*
X83101520Y-144033151D01*
X83114133Y-144012107D01*
X83128747Y-143992402D01*
X83145223Y-143974223D01*
X83163402Y-143957747D01*
X83183107Y-143943133D01*
X83204151Y-143930520D01*
X83226329Y-143920030D01*
X83249429Y-143911765D01*
X83273227Y-143905804D01*
X83297496Y-143902204D01*
X83322000Y-143901000D01*
X84572000Y-143901000D01*
X84596504Y-143902204D01*
G37*
G36*
X84596504Y-141102204D02*
G01*
X84620773Y-141105804D01*
X84644571Y-141111765D01*
X84667671Y-141120030D01*
X84689849Y-141130520D01*
X84710893Y-141143133D01*
X84730598Y-141157747D01*
X84748777Y-141174223D01*
X84765253Y-141192402D01*
X84779867Y-141212107D01*
X84792480Y-141233151D01*
X84802970Y-141255329D01*
X84811235Y-141278429D01*
X84817196Y-141302227D01*
X84820796Y-141326496D01*
X84822000Y-141351000D01*
X84822000Y-142101000D01*
X84820796Y-142125504D01*
X84817196Y-142149773D01*
X84811235Y-142173571D01*
X84802970Y-142196671D01*
X84792480Y-142218849D01*
X84779867Y-142239893D01*
X84765253Y-142259598D01*
X84748777Y-142277777D01*
X84730598Y-142294253D01*
X84710893Y-142308867D01*
X84689849Y-142321480D01*
X84667671Y-142331970D01*
X84644571Y-142340235D01*
X84620773Y-142346196D01*
X84596504Y-142349796D01*
X84572000Y-142351000D01*
X83322000Y-142351000D01*
X83297496Y-142349796D01*
X83273227Y-142346196D01*
X83249429Y-142340235D01*
X83226329Y-142331970D01*
X83204151Y-142321480D01*
X83183107Y-142308867D01*
X83163402Y-142294253D01*
X83145223Y-142277777D01*
X83128747Y-142259598D01*
X83114133Y-142239893D01*
X83101520Y-142218849D01*
X83091030Y-142196671D01*
X83082765Y-142173571D01*
X83076804Y-142149773D01*
X83073204Y-142125504D01*
X83072000Y-142101000D01*
X83072000Y-141351000D01*
X83073204Y-141326496D01*
X83076804Y-141302227D01*
X83082765Y-141278429D01*
X83091030Y-141255329D01*
X83101520Y-141233151D01*
X83114133Y-141212107D01*
X83128747Y-141192402D01*
X83145223Y-141174223D01*
X83163402Y-141157747D01*
X83183107Y-141143133D01*
X83204151Y-141130520D01*
X83226329Y-141120030D01*
X83249429Y-141111765D01*
X83273227Y-141105804D01*
X83297496Y-141102204D01*
X83322000Y-141101000D01*
X84572000Y-141101000D01*
X84596504Y-141102204D01*
G37*
G36*
X90565504Y-143908204D02*
G01*
X90589773Y-143911804D01*
X90613571Y-143917765D01*
X90636671Y-143926030D01*
X90658849Y-143936520D01*
X90679893Y-143949133D01*
X90699598Y-143963747D01*
X90717777Y-143980223D01*
X90734253Y-143998402D01*
X90748867Y-144018107D01*
X90761480Y-144039151D01*
X90771970Y-144061329D01*
X90780235Y-144084429D01*
X90786196Y-144108227D01*
X90789796Y-144132496D01*
X90791000Y-144157000D01*
X90791000Y-144907000D01*
X90789796Y-144931504D01*
X90786196Y-144955773D01*
X90780235Y-144979571D01*
X90771970Y-145002671D01*
X90761480Y-145024849D01*
X90748867Y-145045893D01*
X90734253Y-145065598D01*
X90717777Y-145083777D01*
X90699598Y-145100253D01*
X90679893Y-145114867D01*
X90658849Y-145127480D01*
X90636671Y-145137970D01*
X90613571Y-145146235D01*
X90589773Y-145152196D01*
X90565504Y-145155796D01*
X90541000Y-145157000D01*
X89291000Y-145157000D01*
X89266496Y-145155796D01*
X89242227Y-145152196D01*
X89218429Y-145146235D01*
X89195329Y-145137970D01*
X89173151Y-145127480D01*
X89152107Y-145114867D01*
X89132402Y-145100253D01*
X89114223Y-145083777D01*
X89097747Y-145065598D01*
X89083133Y-145045893D01*
X89070520Y-145024849D01*
X89060030Y-145002671D01*
X89051765Y-144979571D01*
X89045804Y-144955773D01*
X89042204Y-144931504D01*
X89041000Y-144907000D01*
X89041000Y-144157000D01*
X89042204Y-144132496D01*
X89045804Y-144108227D01*
X89051765Y-144084429D01*
X89060030Y-144061329D01*
X89070520Y-144039151D01*
X89083133Y-144018107D01*
X89097747Y-143998402D01*
X89114223Y-143980223D01*
X89132402Y-143963747D01*
X89152107Y-143949133D01*
X89173151Y-143936520D01*
X89195329Y-143926030D01*
X89218429Y-143917765D01*
X89242227Y-143911804D01*
X89266496Y-143908204D01*
X89291000Y-143907000D01*
X90541000Y-143907000D01*
X90565504Y-143908204D01*
G37*
G36*
X90565504Y-141108204D02*
G01*
X90589773Y-141111804D01*
X90613571Y-141117765D01*
X90636671Y-141126030D01*
X90658849Y-141136520D01*
X90679893Y-141149133D01*
X90699598Y-141163747D01*
X90717777Y-141180223D01*
X90734253Y-141198402D01*
X90748867Y-141218107D01*
X90761480Y-141239151D01*
X90771970Y-141261329D01*
X90780235Y-141284429D01*
X90786196Y-141308227D01*
X90789796Y-141332496D01*
X90791000Y-141357000D01*
X90791000Y-142107000D01*
X90789796Y-142131504D01*
X90786196Y-142155773D01*
X90780235Y-142179571D01*
X90771970Y-142202671D01*
X90761480Y-142224849D01*
X90748867Y-142245893D01*
X90734253Y-142265598D01*
X90717777Y-142283777D01*
X90699598Y-142300253D01*
X90679893Y-142314867D01*
X90658849Y-142327480D01*
X90636671Y-142337970D01*
X90613571Y-142346235D01*
X90589773Y-142352196D01*
X90565504Y-142355796D01*
X90541000Y-142357000D01*
X89291000Y-142357000D01*
X89266496Y-142355796D01*
X89242227Y-142352196D01*
X89218429Y-142346235D01*
X89195329Y-142337970D01*
X89173151Y-142327480D01*
X89152107Y-142314867D01*
X89132402Y-142300253D01*
X89114223Y-142283777D01*
X89097747Y-142265598D01*
X89083133Y-142245893D01*
X89070520Y-142224849D01*
X89060030Y-142202671D01*
X89051765Y-142179571D01*
X89045804Y-142155773D01*
X89042204Y-142131504D01*
X89041000Y-142107000D01*
X89041000Y-141357000D01*
X89042204Y-141332496D01*
X89045804Y-141308227D01*
X89051765Y-141284429D01*
X89060030Y-141261329D01*
X89070520Y-141239151D01*
X89083133Y-141218107D01*
X89097747Y-141198402D01*
X89114223Y-141180223D01*
X89132402Y-141163747D01*
X89152107Y-141149133D01*
X89173151Y-141136520D01*
X89195329Y-141126030D01*
X89218429Y-141117765D01*
X89242227Y-141111804D01*
X89266496Y-141108204D01*
X89291000Y-141107000D01*
X90541000Y-141107000D01*
X90565504Y-141108204D01*
G37*
D12*
X152525000Y-157131000D03*
X152525000Y-156331000D03*
X152525000Y-161931000D03*
X152525000Y-161131000D03*
X151005000Y-161131000D03*
X151005000Y-161931000D03*
X151005000Y-156331000D03*
X151005000Y-157131000D03*
X152525000Y-160331000D03*
X152525000Y-157931000D03*
X151005000Y-157931000D03*
X151005000Y-160331000D03*
X152525000Y-158731000D03*
X151005000Y-158731000D03*
X152525000Y-159531000D03*
X151005000Y-159531000D03*
X152652000Y-124365000D03*
X152652000Y-123565000D03*
X152652000Y-129165000D03*
X152652000Y-128365000D03*
X151132000Y-128365000D03*
X151132000Y-129165000D03*
X151132000Y-123565000D03*
X151132000Y-124365000D03*
X152652000Y-127565000D03*
X152652000Y-125165000D03*
X151132000Y-125165000D03*
X151132000Y-127565000D03*
X152652000Y-125965000D03*
X151132000Y-125965000D03*
X152652000Y-126765000D03*
X151132000Y-126765000D03*
D11*
G36*
X134507504Y-123198204D02*
G01*
X134531773Y-123201804D01*
X134555571Y-123207765D01*
X134578671Y-123216030D01*
X134600849Y-123226520D01*
X134621893Y-123239133D01*
X134641598Y-123253747D01*
X134659777Y-123270223D01*
X134676253Y-123288402D01*
X134690867Y-123308107D01*
X134703480Y-123329151D01*
X134713970Y-123351329D01*
X134722235Y-123374429D01*
X134728196Y-123398227D01*
X134731796Y-123422496D01*
X134733000Y-123447000D01*
X134733000Y-124197000D01*
X134731796Y-124221504D01*
X134728196Y-124245773D01*
X134722235Y-124269571D01*
X134713970Y-124292671D01*
X134703480Y-124314849D01*
X134690867Y-124335893D01*
X134676253Y-124355598D01*
X134659777Y-124373777D01*
X134641598Y-124390253D01*
X134621893Y-124404867D01*
X134600849Y-124417480D01*
X134578671Y-124427970D01*
X134555571Y-124436235D01*
X134531773Y-124442196D01*
X134507504Y-124445796D01*
X134483000Y-124447000D01*
X133233000Y-124447000D01*
X133208496Y-124445796D01*
X133184227Y-124442196D01*
X133160429Y-124436235D01*
X133137329Y-124427970D01*
X133115151Y-124417480D01*
X133094107Y-124404867D01*
X133074402Y-124390253D01*
X133056223Y-124373777D01*
X133039747Y-124355598D01*
X133025133Y-124335893D01*
X133012520Y-124314849D01*
X133002030Y-124292671D01*
X132993765Y-124269571D01*
X132987804Y-124245773D01*
X132984204Y-124221504D01*
X132983000Y-124197000D01*
X132983000Y-123447000D01*
X132984204Y-123422496D01*
X132987804Y-123398227D01*
X132993765Y-123374429D01*
X133002030Y-123351329D01*
X133012520Y-123329151D01*
X133025133Y-123308107D01*
X133039747Y-123288402D01*
X133056223Y-123270223D01*
X133074402Y-123253747D01*
X133094107Y-123239133D01*
X133115151Y-123226520D01*
X133137329Y-123216030D01*
X133160429Y-123207765D01*
X133184227Y-123201804D01*
X133208496Y-123198204D01*
X133233000Y-123197000D01*
X134483000Y-123197000D01*
X134507504Y-123198204D01*
G37*
G36*
X134507504Y-125998204D02*
G01*
X134531773Y-126001804D01*
X134555571Y-126007765D01*
X134578671Y-126016030D01*
X134600849Y-126026520D01*
X134621893Y-126039133D01*
X134641598Y-126053747D01*
X134659777Y-126070223D01*
X134676253Y-126088402D01*
X134690867Y-126108107D01*
X134703480Y-126129151D01*
X134713970Y-126151329D01*
X134722235Y-126174429D01*
X134728196Y-126198227D01*
X134731796Y-126222496D01*
X134733000Y-126247000D01*
X134733000Y-126997000D01*
X134731796Y-127021504D01*
X134728196Y-127045773D01*
X134722235Y-127069571D01*
X134713970Y-127092671D01*
X134703480Y-127114849D01*
X134690867Y-127135893D01*
X134676253Y-127155598D01*
X134659777Y-127173777D01*
X134641598Y-127190253D01*
X134621893Y-127204867D01*
X134600849Y-127217480D01*
X134578671Y-127227970D01*
X134555571Y-127236235D01*
X134531773Y-127242196D01*
X134507504Y-127245796D01*
X134483000Y-127247000D01*
X133233000Y-127247000D01*
X133208496Y-127245796D01*
X133184227Y-127242196D01*
X133160429Y-127236235D01*
X133137329Y-127227970D01*
X133115151Y-127217480D01*
X133094107Y-127204867D01*
X133074402Y-127190253D01*
X133056223Y-127173777D01*
X133039747Y-127155598D01*
X133025133Y-127135893D01*
X133012520Y-127114849D01*
X133002030Y-127092671D01*
X132993765Y-127069571D01*
X132987804Y-127045773D01*
X132984204Y-127021504D01*
X132983000Y-126997000D01*
X132983000Y-126247000D01*
X132984204Y-126222496D01*
X132987804Y-126198227D01*
X132993765Y-126174429D01*
X133002030Y-126151329D01*
X133012520Y-126129151D01*
X133025133Y-126108107D01*
X133039747Y-126088402D01*
X133056223Y-126070223D01*
X133074402Y-126053747D01*
X133094107Y-126039133D01*
X133115151Y-126026520D01*
X133137329Y-126016030D01*
X133160429Y-126007765D01*
X133184227Y-126001804D01*
X133208496Y-125998204D01*
X133233000Y-125997000D01*
X134483000Y-125997000D01*
X134507504Y-125998204D01*
G37*
G36*
X134507504Y-144794204D02*
G01*
X134531773Y-144797804D01*
X134555571Y-144803765D01*
X134578671Y-144812030D01*
X134600849Y-144822520D01*
X134621893Y-144835133D01*
X134641598Y-144849747D01*
X134659777Y-144866223D01*
X134676253Y-144884402D01*
X134690867Y-144904107D01*
X134703480Y-144925151D01*
X134713970Y-144947329D01*
X134722235Y-144970429D01*
X134728196Y-144994227D01*
X134731796Y-145018496D01*
X134733000Y-145043000D01*
X134733000Y-145793000D01*
X134731796Y-145817504D01*
X134728196Y-145841773D01*
X134722235Y-145865571D01*
X134713970Y-145888671D01*
X134703480Y-145910849D01*
X134690867Y-145931893D01*
X134676253Y-145951598D01*
X134659777Y-145969777D01*
X134641598Y-145986253D01*
X134621893Y-146000867D01*
X134600849Y-146013480D01*
X134578671Y-146023970D01*
X134555571Y-146032235D01*
X134531773Y-146038196D01*
X134507504Y-146041796D01*
X134483000Y-146043000D01*
X133233000Y-146043000D01*
X133208496Y-146041796D01*
X133184227Y-146038196D01*
X133160429Y-146032235D01*
X133137329Y-146023970D01*
X133115151Y-146013480D01*
X133094107Y-146000867D01*
X133074402Y-145986253D01*
X133056223Y-145969777D01*
X133039747Y-145951598D01*
X133025133Y-145931893D01*
X133012520Y-145910849D01*
X133002030Y-145888671D01*
X132993765Y-145865571D01*
X132987804Y-145841773D01*
X132984204Y-145817504D01*
X132983000Y-145793000D01*
X132983000Y-145043000D01*
X132984204Y-145018496D01*
X132987804Y-144994227D01*
X132993765Y-144970429D01*
X133002030Y-144947329D01*
X133012520Y-144925151D01*
X133025133Y-144904107D01*
X133039747Y-144884402D01*
X133056223Y-144866223D01*
X133074402Y-144849747D01*
X133094107Y-144835133D01*
X133115151Y-144822520D01*
X133137329Y-144812030D01*
X133160429Y-144803765D01*
X133184227Y-144797804D01*
X133208496Y-144794204D01*
X133233000Y-144793000D01*
X134483000Y-144793000D01*
X134507504Y-144794204D01*
G37*
G36*
X134507504Y-141994204D02*
G01*
X134531773Y-141997804D01*
X134555571Y-142003765D01*
X134578671Y-142012030D01*
X134600849Y-142022520D01*
X134621893Y-142035133D01*
X134641598Y-142049747D01*
X134659777Y-142066223D01*
X134676253Y-142084402D01*
X134690867Y-142104107D01*
X134703480Y-142125151D01*
X134713970Y-142147329D01*
X134722235Y-142170429D01*
X134728196Y-142194227D01*
X134731796Y-142218496D01*
X134733000Y-142243000D01*
X134733000Y-142993000D01*
X134731796Y-143017504D01*
X134728196Y-143041773D01*
X134722235Y-143065571D01*
X134713970Y-143088671D01*
X134703480Y-143110849D01*
X134690867Y-143131893D01*
X134676253Y-143151598D01*
X134659777Y-143169777D01*
X134641598Y-143186253D01*
X134621893Y-143200867D01*
X134600849Y-143213480D01*
X134578671Y-143223970D01*
X134555571Y-143232235D01*
X134531773Y-143238196D01*
X134507504Y-143241796D01*
X134483000Y-143243000D01*
X133233000Y-143243000D01*
X133208496Y-143241796D01*
X133184227Y-143238196D01*
X133160429Y-143232235D01*
X133137329Y-143223970D01*
X133115151Y-143213480D01*
X133094107Y-143200867D01*
X133074402Y-143186253D01*
X133056223Y-143169777D01*
X133039747Y-143151598D01*
X133025133Y-143131893D01*
X133012520Y-143110849D01*
X133002030Y-143088671D01*
X132993765Y-143065571D01*
X132987804Y-143041773D01*
X132984204Y-143017504D01*
X132983000Y-142993000D01*
X132983000Y-142243000D01*
X132984204Y-142218496D01*
X132987804Y-142194227D01*
X132993765Y-142170429D01*
X133002030Y-142147329D01*
X133012520Y-142125151D01*
X133025133Y-142104107D01*
X133039747Y-142084402D01*
X133056223Y-142066223D01*
X133074402Y-142049747D01*
X133094107Y-142035133D01*
X133115151Y-142022520D01*
X133137329Y-142012030D01*
X133160429Y-142003765D01*
X133184227Y-141997804D01*
X133208496Y-141994204D01*
X133233000Y-141993000D01*
X134483000Y-141993000D01*
X134507504Y-141994204D01*
G37*
G36*
X134761504Y-155964204D02*
G01*
X134785773Y-155967804D01*
X134809571Y-155973765D01*
X134832671Y-155982030D01*
X134854849Y-155992520D01*
X134875893Y-156005133D01*
X134895598Y-156019747D01*
X134913777Y-156036223D01*
X134930253Y-156054402D01*
X134944867Y-156074107D01*
X134957480Y-156095151D01*
X134967970Y-156117329D01*
X134976235Y-156140429D01*
X134982196Y-156164227D01*
X134985796Y-156188496D01*
X134987000Y-156213000D01*
X134987000Y-156963000D01*
X134985796Y-156987504D01*
X134982196Y-157011773D01*
X134976235Y-157035571D01*
X134967970Y-157058671D01*
X134957480Y-157080849D01*
X134944867Y-157101893D01*
X134930253Y-157121598D01*
X134913777Y-157139777D01*
X134895598Y-157156253D01*
X134875893Y-157170867D01*
X134854849Y-157183480D01*
X134832671Y-157193970D01*
X134809571Y-157202235D01*
X134785773Y-157208196D01*
X134761504Y-157211796D01*
X134737000Y-157213000D01*
X133487000Y-157213000D01*
X133462496Y-157211796D01*
X133438227Y-157208196D01*
X133414429Y-157202235D01*
X133391329Y-157193970D01*
X133369151Y-157183480D01*
X133348107Y-157170867D01*
X133328402Y-157156253D01*
X133310223Y-157139777D01*
X133293747Y-157121598D01*
X133279133Y-157101893D01*
X133266520Y-157080849D01*
X133256030Y-157058671D01*
X133247765Y-157035571D01*
X133241804Y-157011773D01*
X133238204Y-156987504D01*
X133237000Y-156963000D01*
X133237000Y-156213000D01*
X133238204Y-156188496D01*
X133241804Y-156164227D01*
X133247765Y-156140429D01*
X133256030Y-156117329D01*
X133266520Y-156095151D01*
X133279133Y-156074107D01*
X133293747Y-156054402D01*
X133310223Y-156036223D01*
X133328402Y-156019747D01*
X133348107Y-156005133D01*
X133369151Y-155992520D01*
X133391329Y-155982030D01*
X133414429Y-155973765D01*
X133438227Y-155967804D01*
X133462496Y-155964204D01*
X133487000Y-155963000D01*
X134737000Y-155963000D01*
X134761504Y-155964204D01*
G37*
G36*
X134761504Y-158764204D02*
G01*
X134785773Y-158767804D01*
X134809571Y-158773765D01*
X134832671Y-158782030D01*
X134854849Y-158792520D01*
X134875893Y-158805133D01*
X134895598Y-158819747D01*
X134913777Y-158836223D01*
X134930253Y-158854402D01*
X134944867Y-158874107D01*
X134957480Y-158895151D01*
X134967970Y-158917329D01*
X134976235Y-158940429D01*
X134982196Y-158964227D01*
X134985796Y-158988496D01*
X134987000Y-159013000D01*
X134987000Y-159763000D01*
X134985796Y-159787504D01*
X134982196Y-159811773D01*
X134976235Y-159835571D01*
X134967970Y-159858671D01*
X134957480Y-159880849D01*
X134944867Y-159901893D01*
X134930253Y-159921598D01*
X134913777Y-159939777D01*
X134895598Y-159956253D01*
X134875893Y-159970867D01*
X134854849Y-159983480D01*
X134832671Y-159993970D01*
X134809571Y-160002235D01*
X134785773Y-160008196D01*
X134761504Y-160011796D01*
X134737000Y-160013000D01*
X133487000Y-160013000D01*
X133462496Y-160011796D01*
X133438227Y-160008196D01*
X133414429Y-160002235D01*
X133391329Y-159993970D01*
X133369151Y-159983480D01*
X133348107Y-159970867D01*
X133328402Y-159956253D01*
X133310223Y-159939777D01*
X133293747Y-159921598D01*
X133279133Y-159901893D01*
X133266520Y-159880849D01*
X133256030Y-159858671D01*
X133247765Y-159835571D01*
X133241804Y-159811773D01*
X133238204Y-159787504D01*
X133237000Y-159763000D01*
X133237000Y-159013000D01*
X133238204Y-158988496D01*
X133241804Y-158964227D01*
X133247765Y-158940429D01*
X133256030Y-158917329D01*
X133266520Y-158895151D01*
X133279133Y-158874107D01*
X133293747Y-158854402D01*
X133310223Y-158836223D01*
X133328402Y-158819747D01*
X133348107Y-158805133D01*
X133369151Y-158792520D01*
X133391329Y-158782030D01*
X133414429Y-158773765D01*
X133438227Y-158767804D01*
X133462496Y-158764204D01*
X133487000Y-158763000D01*
X134737000Y-158763000D01*
X134761504Y-158764204D01*
G37*
G36*
X134507504Y-136920204D02*
G01*
X134531773Y-136923804D01*
X134555571Y-136929765D01*
X134578671Y-136938030D01*
X134600849Y-136948520D01*
X134621893Y-136961133D01*
X134641598Y-136975747D01*
X134659777Y-136992223D01*
X134676253Y-137010402D01*
X134690867Y-137030107D01*
X134703480Y-137051151D01*
X134713970Y-137073329D01*
X134722235Y-137096429D01*
X134728196Y-137120227D01*
X134731796Y-137144496D01*
X134733000Y-137169000D01*
X134733000Y-137919000D01*
X134731796Y-137943504D01*
X134728196Y-137967773D01*
X134722235Y-137991571D01*
X134713970Y-138014671D01*
X134703480Y-138036849D01*
X134690867Y-138057893D01*
X134676253Y-138077598D01*
X134659777Y-138095777D01*
X134641598Y-138112253D01*
X134621893Y-138126867D01*
X134600849Y-138139480D01*
X134578671Y-138149970D01*
X134555571Y-138158235D01*
X134531773Y-138164196D01*
X134507504Y-138167796D01*
X134483000Y-138169000D01*
X133233000Y-138169000D01*
X133208496Y-138167796D01*
X133184227Y-138164196D01*
X133160429Y-138158235D01*
X133137329Y-138149970D01*
X133115151Y-138139480D01*
X133094107Y-138126867D01*
X133074402Y-138112253D01*
X133056223Y-138095777D01*
X133039747Y-138077598D01*
X133025133Y-138057893D01*
X133012520Y-138036849D01*
X133002030Y-138014671D01*
X132993765Y-137991571D01*
X132987804Y-137967773D01*
X132984204Y-137943504D01*
X132983000Y-137919000D01*
X132983000Y-137169000D01*
X132984204Y-137144496D01*
X132987804Y-137120227D01*
X132993765Y-137096429D01*
X133002030Y-137073329D01*
X133012520Y-137051151D01*
X133025133Y-137030107D01*
X133039747Y-137010402D01*
X133056223Y-136992223D01*
X133074402Y-136975747D01*
X133094107Y-136961133D01*
X133115151Y-136948520D01*
X133137329Y-136938030D01*
X133160429Y-136929765D01*
X133184227Y-136923804D01*
X133208496Y-136920204D01*
X133233000Y-136919000D01*
X134483000Y-136919000D01*
X134507504Y-136920204D01*
G37*
G36*
X134507504Y-134120204D02*
G01*
X134531773Y-134123804D01*
X134555571Y-134129765D01*
X134578671Y-134138030D01*
X134600849Y-134148520D01*
X134621893Y-134161133D01*
X134641598Y-134175747D01*
X134659777Y-134192223D01*
X134676253Y-134210402D01*
X134690867Y-134230107D01*
X134703480Y-134251151D01*
X134713970Y-134273329D01*
X134722235Y-134296429D01*
X134728196Y-134320227D01*
X134731796Y-134344496D01*
X134733000Y-134369000D01*
X134733000Y-135119000D01*
X134731796Y-135143504D01*
X134728196Y-135167773D01*
X134722235Y-135191571D01*
X134713970Y-135214671D01*
X134703480Y-135236849D01*
X134690867Y-135257893D01*
X134676253Y-135277598D01*
X134659777Y-135295777D01*
X134641598Y-135312253D01*
X134621893Y-135326867D01*
X134600849Y-135339480D01*
X134578671Y-135349970D01*
X134555571Y-135358235D01*
X134531773Y-135364196D01*
X134507504Y-135367796D01*
X134483000Y-135369000D01*
X133233000Y-135369000D01*
X133208496Y-135367796D01*
X133184227Y-135364196D01*
X133160429Y-135358235D01*
X133137329Y-135349970D01*
X133115151Y-135339480D01*
X133094107Y-135326867D01*
X133074402Y-135312253D01*
X133056223Y-135295777D01*
X133039747Y-135277598D01*
X133025133Y-135257893D01*
X133012520Y-135236849D01*
X133002030Y-135214671D01*
X132993765Y-135191571D01*
X132987804Y-135167773D01*
X132984204Y-135143504D01*
X132983000Y-135119000D01*
X132983000Y-134369000D01*
X132984204Y-134344496D01*
X132987804Y-134320227D01*
X132993765Y-134296429D01*
X133002030Y-134273329D01*
X133012520Y-134251151D01*
X133025133Y-134230107D01*
X133039747Y-134210402D01*
X133056223Y-134192223D01*
X133074402Y-134175747D01*
X133094107Y-134161133D01*
X133115151Y-134148520D01*
X133137329Y-134138030D01*
X133160429Y-134129765D01*
X133184227Y-134123804D01*
X133208496Y-134120204D01*
X133233000Y-134119000D01*
X134483000Y-134119000D01*
X134507504Y-134120204D01*
G37*
M02*
