M48
; DRILL file {KiCad 5.1.5+dfsg1-2build2} date Fri 30 Jul 2021 22:42:50 BST
; FORMAT={-:-/ absolute / inch / decimal}
; #@! TF.CreationDate,2021-07-30T22:42:50+01:00
; #@! TF.GenerationSoftware,Kicad,Pcbnew,5.1.5+dfsg1-2build2
; #@! TF.FileFunction,Plated,1,4,PTH
FMAT,2
INCH
T1C0.0160
T2C0.0394
T3C0.1260
%
G90
G05
T1
X2.605Y-4.51
X2.605Y-4.635
X3.045Y-5.945
X3.07Y-6.1
X3.115Y-5.85
X3.135Y-5.95
X3.145Y-6.335
X3.185Y-6.155
X3.195Y-6.53
X3.25Y-6.575
X3.29Y-5.9
X3.295Y-6.235
X3.305Y-5.33
X3.31Y-6.0
X3.36Y-5.33
X3.37Y-5.7
X3.375Y-5.58
X3.38Y-5.9
X3.395Y-6.235
X3.395Y-6.615
X3.41Y-5.33
X3.42Y-5.94
X3.46Y-5.33
X3.46Y-5.97
X3.495Y-6.235
X3.495Y-6.615
X3.5Y-5.3
X3.5Y-6.01
X3.545Y-6.615
X3.56Y-6.01
X3.595Y-6.34
X3.595Y-6.75
X3.605Y-5.54
X3.61Y-6.01
X3.655Y-5.485
X3.66Y-6.04
X3.71Y-5.485
X3.845Y-5.505
X3.845Y-5.795
X4.07Y-4.945
X4.085Y-6.66
X4.17Y-4.945
X4.27Y-6.51
X4.37Y-5.23
X4.42Y-5.105
X4.6Y-5.3
X4.63Y-5.33
X4.66Y-5.36
X4.69Y-5.39
X4.72Y-5.42
X4.72Y-5.5
X4.72Y-5.56
X4.755Y-6.065
X4.78Y-6.035
X4.78Y-6.095
X4.81Y-6.02
X4.81Y-6.14
X4.84Y-6.005
X4.84Y-6.195
X4.87Y-5.99
X4.87Y-6.24
X4.9Y-5.975
X4.9Y-6.3
X4.93Y-5.955
X4.93Y-6.345
X4.96Y-5.94
X4.96Y-6.4
X4.99Y-5.925
X5.055Y-6.51
X5.08Y-5.19
X5.1Y-5.335
X5.1Y-5.56
X5.1Y-5.675
X5.215Y-6.445
X5.27Y-5.37
X5.27Y-5.56
X5.28Y-5.67
X5.34Y-6.03
X5.405Y-4.66
X5.405Y-5.23
X5.42Y-5.3
X5.43Y-5.335
X5.43Y-5.5
X5.43Y-5.6725
X5.53Y-6.04
X5.53Y-6.095
X5.53Y-6.145
X5.535Y-4.805
X5.54Y-4.855
X5.585Y-5.23
X5.61Y-5.275
X5.79Y-4.725
X5.895Y-6.25
X5.9Y-4.96
X6.005Y-6.125
X6.005Y-6.405
X6.0099Y-4.8351
X6.0099Y-5.1149
T2
X5.6641Y-4.819
X5.6641Y-4.9281
X5.6641Y-5.0371
X5.6641Y-5.1462
X5.6641Y-5.2552
X5.7759Y-4.8735
X5.7759Y-4.9826
X5.7759Y-5.0917
X5.7759Y-5.2007
X5.665Y-6.1088
X5.665Y-6.2178
X5.665Y-6.3269
X5.665Y-6.4359
X5.665Y-6.545
X5.7768Y-6.1633
X5.7768Y-6.2724
X5.7768Y-6.3814
X5.7768Y-6.4905
X2.63Y-7.07
X2.63Y-7.27
X2.73Y-7.07
X2.73Y-7.27
X2.83Y-7.07
X2.83Y-7.27
X2.93Y-7.07
X2.93Y-7.27
X3.03Y-7.07
X3.03Y-7.27
X3.13Y-7.07
X3.13Y-7.27
X3.23Y-7.07
X3.23Y-7.27
X3.33Y-7.07
X3.33Y-7.27
X3.43Y-7.07
X3.43Y-7.27
X3.53Y-7.07
X3.53Y-7.27
X3.63Y-7.07
X3.63Y-7.27
X3.73Y-7.07
X3.73Y-7.27
X3.83Y-7.07
X3.83Y-7.27
X3.93Y-7.07
X3.93Y-7.27
X4.03Y-7.07
X4.03Y-7.27
X4.13Y-7.07
X4.13Y-7.27
X4.23Y-7.07
X4.23Y-7.27
X4.33Y-7.07
X4.33Y-7.27
X4.43Y-7.07
X4.43Y-7.27
X4.53Y-7.07
X4.53Y-7.27
X4.63Y-7.07
X4.63Y-7.27
X4.73Y-7.07
X4.73Y-7.27
X4.83Y-7.07
X4.83Y-7.27
X4.93Y-7.07
X4.93Y-7.27
X5.03Y-7.07
X5.03Y-7.27
X5.13Y-7.07
X5.13Y-7.27
X5.23Y-7.07
X5.23Y-7.27
X5.33Y-7.07
X5.33Y-7.27
X5.43Y-7.07
X5.43Y-7.27
X5.53Y-7.07
X5.53Y-7.27
X5.63Y-7.07
X5.63Y-7.27
X5.73Y-7.07
X5.73Y-7.27
X2.49Y-5.44
X2.49Y-5.54
X2.49Y-5.64
X2.49Y-5.74
X2.49Y-5.84
X2.49Y-5.94
X2.49Y-6.04
X2.49Y-6.14
X2.49Y-6.24
X2.49Y-6.34
X2.49Y-6.44
X2.49Y-6.54
X2.49Y-6.64
X2.59Y-5.44
X2.59Y-5.54
X2.59Y-5.64
X2.59Y-5.74
X2.59Y-5.84
X2.59Y-5.94
X2.59Y-6.04
X2.59Y-6.14
X2.59Y-6.24
X2.59Y-6.34
X2.59Y-6.44
X2.59Y-6.54
X2.59Y-6.64
T3
X5.72Y-4.545
X5.72Y-5.5293
X5.7209Y-5.8348
X5.7209Y-6.819
T0
M30
